<?xml version="1.0" encoding="utf-8"?>
<svg xmlns="http://www.w3.org/2000/svg" xmlns:xlink="http://www.w3.org/1999/xlink" width="600" height="400" viewBox="0 0 2400 1600">
<defs>
  <clipPath id="clip680">
    <rect x="0" y="0" width="2400" height="1600"/>
  </clipPath>
</defs>
<path clip-path="url(#clip680)" d="M0 1600 L2400 1600 L2400 0 L0 0  Z" fill="#ffffff" fill-rule="evenodd" fill-opacity="1"/>
<defs>
  <clipPath id="clip681">
    <rect x="480" y="0" width="1681" height="1600"/>
  </clipPath>
</defs>
<path clip-path="url(#clip680)" d="M224.554 1423.18 L2352.76 1423.18 L2352.76 47.2441 L224.554 47.2441  Z" fill="#ffffff" fill-rule="evenodd" fill-opacity="1"/>
<defs>
  <clipPath id="clip682">
    <rect x="224" y="47" width="2129" height="1377"/>
  </clipPath>
</defs>
<polyline clip-path="url(#clip682)" style="stroke:#000000; stroke-linecap:round; stroke-linejoin:round; stroke-width:2; stroke-opacity:0.1; fill:none" points="507.868,1423.18 507.868,47.2441 "/>
<polyline clip-path="url(#clip682)" style="stroke:#000000; stroke-linecap:round; stroke-linejoin:round; stroke-width:2; stroke-opacity:0.1; fill:none" points="954.032,1423.18 954.032,47.2441 "/>
<polyline clip-path="url(#clip682)" style="stroke:#000000; stroke-linecap:round; stroke-linejoin:round; stroke-width:2; stroke-opacity:0.1; fill:none" points="1400.2,1423.18 1400.2,47.2441 "/>
<polyline clip-path="url(#clip682)" style="stroke:#000000; stroke-linecap:round; stroke-linejoin:round; stroke-width:2; stroke-opacity:0.1; fill:none" points="1846.36,1423.18 1846.36,47.2441 "/>
<polyline clip-path="url(#clip682)" style="stroke:#000000; stroke-linecap:round; stroke-linejoin:round; stroke-width:2; stroke-opacity:0.1; fill:none" points="2292.52,1423.18 2292.52,47.2441 "/>
<polyline clip-path="url(#clip682)" style="stroke:#000000; stroke-linecap:round; stroke-linejoin:round; stroke-width:2; stroke-opacity:0.1; fill:none" points="224.554,1323.84 2352.76,1323.84 "/>
<polyline clip-path="url(#clip682)" style="stroke:#000000; stroke-linecap:round; stroke-linejoin:round; stroke-width:2; stroke-opacity:0.1; fill:none" points="224.554,613.807 2352.76,613.807 "/>
<polyline clip-path="url(#clip680)" style="stroke:#000000; stroke-linecap:round; stroke-linejoin:round; stroke-width:4; stroke-opacity:1; fill:none" points="224.554,1423.18 2352.76,1423.18 "/>
<polyline clip-path="url(#clip680)" style="stroke:#000000; stroke-linecap:round; stroke-linejoin:round; stroke-width:4; stroke-opacity:1; fill:none" points="507.868,1423.18 507.868,1404.28 "/>
<polyline clip-path="url(#clip680)" style="stroke:#000000; stroke-linecap:round; stroke-linejoin:round; stroke-width:4; stroke-opacity:1; fill:none" points="954.032,1423.18 954.032,1404.28 "/>
<polyline clip-path="url(#clip680)" style="stroke:#000000; stroke-linecap:round; stroke-linejoin:round; stroke-width:4; stroke-opacity:1; fill:none" points="1400.2,1423.18 1400.2,1404.28 "/>
<polyline clip-path="url(#clip680)" style="stroke:#000000; stroke-linecap:round; stroke-linejoin:round; stroke-width:4; stroke-opacity:1; fill:none" points="1846.36,1423.18 1846.36,1404.28 "/>
<polyline clip-path="url(#clip680)" style="stroke:#000000; stroke-linecap:round; stroke-linejoin:round; stroke-width:4; stroke-opacity:1; fill:none" points="2292.52,1423.18 2292.52,1404.28 "/>
<path clip-path="url(#clip680)" d="M502.521 1481.64 L518.84 1481.64 L518.84 1485.58 L496.896 1485.58 L496.896 1481.64 Q499.558 1478.89 504.141 1474.26 Q508.747 1469.61 509.928 1468.27 Q512.173 1465.74 513.053 1464.01 Q513.956 1462.25 513.956 1460.56 Q513.956 1457.8 512.011 1456.07 Q510.09 1454.33 506.988 1454.33 Q504.789 1454.33 502.335 1455.09 Q499.905 1455.86 497.127 1457.41 L497.127 1452.69 Q499.951 1451.55 502.405 1450.97 Q504.858 1450.39 506.896 1450.39 Q512.266 1450.39 515.46 1453.08 Q518.655 1455.77 518.655 1460.26 Q518.655 1462.39 517.845 1464.31 Q517.058 1466.2 514.951 1468.8 Q514.372 1469.47 511.271 1472.69 Q508.169 1475.88 502.521 1481.64 Z" fill="#000000" fill-rule="nonzero" fill-opacity="1" /><path clip-path="url(#clip680)" d="M957.041 1455.09 L945.235 1473.54 L957.041 1473.54 L957.041 1455.09 M955.814 1451.02 L961.694 1451.02 L961.694 1473.54 L966.624 1473.54 L966.624 1477.43 L961.694 1477.43 L961.694 1485.58 L957.041 1485.58 L957.041 1477.43 L941.439 1477.43 L941.439 1472.92 L955.814 1451.02 Z" fill="#000000" fill-rule="nonzero" fill-opacity="1" /><path clip-path="url(#clip680)" d="M1400.6 1466.44 Q1397.45 1466.44 1395.6 1468.59 Q1393.77 1470.74 1393.77 1474.49 Q1393.77 1478.22 1395.6 1480.39 Q1397.45 1482.55 1400.6 1482.55 Q1403.75 1482.55 1405.58 1480.39 Q1407.43 1478.22 1407.43 1474.49 Q1407.43 1470.74 1405.58 1468.59 Q1403.75 1466.44 1400.6 1466.44 M1409.88 1451.78 L1409.88 1456.04 Q1408.12 1455.21 1406.32 1454.77 Q1404.54 1454.33 1402.78 1454.33 Q1398.15 1454.33 1395.69 1457.45 Q1393.26 1460.58 1392.92 1466.9 Q1394.28 1464.89 1396.34 1463.82 Q1398.4 1462.73 1400.88 1462.73 Q1406.09 1462.73 1409.1 1465.9 Q1412.13 1469.05 1412.13 1474.49 Q1412.13 1479.82 1408.98 1483.03 Q1405.83 1486.25 1400.6 1486.25 Q1394.61 1486.25 1391.43 1481.67 Q1388.26 1477.06 1388.26 1468.33 Q1388.26 1460.14 1392.15 1455.28 Q1396.04 1450.39 1402.59 1450.39 Q1404.35 1450.39 1406.13 1450.74 Q1407.94 1451.09 1409.88 1451.78 Z" fill="#000000" fill-rule="nonzero" fill-opacity="1" /><path clip-path="url(#clip680)" d="M1846.36 1469.17 Q1843.03 1469.17 1841.11 1470.95 Q1839.21 1472.73 1839.21 1475.86 Q1839.21 1478.98 1841.11 1480.77 Q1843.03 1482.55 1846.36 1482.55 Q1849.69 1482.55 1851.61 1480.77 Q1853.54 1478.96 1853.54 1475.86 Q1853.54 1472.73 1851.61 1470.95 Q1849.72 1469.17 1846.36 1469.17 M1841.68 1467.18 Q1838.67 1466.44 1836.98 1464.38 Q1835.32 1462.32 1835.32 1459.35 Q1835.32 1455.21 1838.26 1452.8 Q1841.22 1450.39 1846.36 1450.39 Q1851.52 1450.39 1854.46 1452.8 Q1857.4 1455.21 1857.4 1459.35 Q1857.4 1462.32 1855.71 1464.38 Q1854.04 1466.44 1851.06 1467.18 Q1854.44 1467.96 1856.31 1470.26 Q1858.21 1472.55 1858.21 1475.86 Q1858.21 1480.88 1855.13 1483.57 Q1852.08 1486.25 1846.36 1486.25 Q1840.64 1486.25 1837.56 1483.57 Q1834.51 1480.88 1834.51 1475.86 Q1834.51 1472.55 1836.41 1470.26 Q1838.3 1467.96 1841.68 1467.18 M1839.97 1459.79 Q1839.97 1462.48 1841.64 1463.98 Q1843.33 1465.49 1846.36 1465.49 Q1849.37 1465.49 1851.06 1463.98 Q1852.77 1462.48 1852.77 1459.79 Q1852.77 1457.11 1851.06 1455.6 Q1849.37 1454.1 1846.36 1454.1 Q1843.33 1454.1 1841.64 1455.6 Q1839.97 1457.11 1839.97 1459.79 Z" fill="#000000" fill-rule="nonzero" fill-opacity="1" /><path clip-path="url(#clip680)" d="M2267.21 1481.64 L2274.85 1481.64 L2274.85 1455.28 L2266.54 1456.95 L2266.54 1452.69 L2274.8 1451.02 L2279.48 1451.02 L2279.48 1481.64 L2287.12 1481.64 L2287.12 1485.58 L2267.21 1485.58 L2267.21 1481.64 Z" fill="#000000" fill-rule="nonzero" fill-opacity="1" /><path clip-path="url(#clip680)" d="M2306.56 1454.1 Q2302.95 1454.1 2301.12 1457.66 Q2299.32 1461.2 2299.32 1468.33 Q2299.32 1475.44 2301.12 1479.01 Q2302.95 1482.55 2306.56 1482.55 Q2310.2 1482.55 2312 1479.01 Q2313.83 1475.44 2313.83 1468.33 Q2313.83 1461.2 2312 1457.66 Q2310.2 1454.1 2306.56 1454.1 M2306.56 1450.39 Q2312.37 1450.39 2315.43 1455 Q2318.51 1459.58 2318.51 1468.33 Q2318.51 1477.06 2315.43 1481.67 Q2312.37 1486.25 2306.56 1486.25 Q2300.75 1486.25 2297.67 1481.67 Q2294.62 1477.06 2294.62 1468.33 Q2294.62 1459.58 2297.67 1455 Q2300.75 1450.39 2306.56 1450.39 Z" fill="#000000" fill-rule="nonzero" fill-opacity="1" /><path clip-path="url(#clip680)" d="M1208.84 1548.76 L1208.84 1551.62 L1181.92 1551.62 Q1182.3 1557.67 1185.55 1560.85 Q1188.82 1564 1194.65 1564 Q1198.02 1564 1201.17 1563.17 Q1204.36 1562.35 1207.48 1560.69 L1207.48 1566.23 Q1204.33 1567.57 1201.01 1568.27 Q1197.7 1568.97 1194.3 1568.97 Q1185.77 1568.97 1180.77 1564 Q1175.81 1559.04 1175.81 1550.57 Q1175.81 1541.82 1180.52 1536.69 Q1185.26 1531.54 1193.28 1531.54 Q1200.47 1531.54 1204.64 1536.18 Q1208.84 1540.8 1208.84 1548.76 M1202.99 1547.04 Q1202.92 1542.23 1200.28 1539.37 Q1197.67 1536.5 1193.34 1536.5 Q1188.44 1536.5 1185.48 1539.27 Q1182.55 1542.04 1182.11 1547.07 L1202.99 1547.04 Z" fill="#000000" fill-rule="nonzero" fill-opacity="1" /><path clip-path="url(#clip680)" d="M1224.12 1562.7 L1224.12 1581.6 L1218.23 1581.6 L1218.23 1532.4 L1224.12 1532.4 L1224.12 1537.81 Q1225.97 1534.62 1228.77 1533.1 Q1231.6 1531.54 1235.52 1531.54 Q1242.01 1531.54 1246.05 1536.69 Q1250.13 1541.85 1250.13 1550.25 Q1250.13 1558.65 1246.05 1563.81 Q1242.01 1568.97 1235.52 1568.97 Q1231.6 1568.97 1228.77 1567.44 Q1225.97 1565.88 1224.12 1562.7 M1244.05 1550.25 Q1244.05 1543.79 1241.37 1540.13 Q1238.73 1536.44 1234.08 1536.44 Q1229.44 1536.44 1226.76 1540.13 Q1224.12 1543.79 1224.12 1550.25 Q1224.12 1556.71 1226.76 1560.4 Q1229.44 1564.07 1234.08 1564.07 Q1238.73 1564.07 1241.37 1560.4 Q1244.05 1556.71 1244.05 1550.25 Z" fill="#000000" fill-rule="nonzero" fill-opacity="1" /><path clip-path="url(#clip680)" d="M1273.65 1536.5 Q1268.94 1536.5 1266.2 1540.19 Q1263.46 1543.85 1263.46 1550.25 Q1263.46 1556.65 1266.17 1560.34 Q1268.91 1564 1273.65 1564 Q1278.33 1564 1281.06 1560.31 Q1283.8 1556.62 1283.8 1550.25 Q1283.8 1543.92 1281.06 1540.23 Q1278.33 1536.5 1273.65 1536.5 M1273.65 1531.54 Q1281.29 1531.54 1285.65 1536.5 Q1290.01 1541.47 1290.01 1550.25 Q1290.01 1559 1285.65 1564 Q1281.29 1568.97 1273.65 1568.97 Q1265.98 1568.97 1261.62 1564 Q1257.29 1559 1257.29 1550.25 Q1257.29 1541.47 1261.62 1536.5 Q1265.98 1531.54 1273.65 1531.54 Z" fill="#000000" fill-rule="nonzero" fill-opacity="1" /><path clip-path="url(#clip680)" d="M1325.37 1533.76 L1325.37 1539.24 Q1322.89 1537.87 1320.37 1537.2 Q1317.89 1536.5 1315.34 1536.5 Q1309.65 1536.5 1306.49 1540.13 Q1303.34 1543.73 1303.34 1550.25 Q1303.34 1556.78 1306.49 1560.4 Q1309.65 1564 1315.34 1564 Q1317.89 1564 1320.37 1563.33 Q1322.89 1562.63 1325.37 1561.26 L1325.37 1566.68 Q1322.92 1567.82 1320.28 1568.39 Q1317.67 1568.97 1314.71 1568.97 Q1306.65 1568.97 1301.91 1563.91 Q1297.17 1558.85 1297.17 1550.25 Q1297.17 1541.53 1301.94 1536.53 Q1306.75 1531.54 1315.09 1531.54 Q1317.79 1531.54 1320.37 1532.11 Q1322.95 1532.65 1325.37 1533.76 Z" fill="#000000" fill-rule="nonzero" fill-opacity="1" /><path clip-path="url(#clip680)" d="M1365.19 1546.53 L1365.19 1568.04 L1359.33 1568.04 L1359.33 1546.72 Q1359.33 1541.66 1357.36 1539.14 Q1355.38 1536.63 1351.44 1536.63 Q1346.69 1536.63 1343.96 1539.65 Q1341.22 1542.68 1341.22 1547.9 L1341.22 1568.04 L1335.33 1568.04 L1335.33 1518.52 L1341.22 1518.52 L1341.22 1537.93 Q1343.32 1534.72 1346.15 1533.13 Q1349.02 1531.54 1352.74 1531.54 Q1358.88 1531.54 1362.04 1535.36 Q1365.19 1539.14 1365.19 1546.53 Z" fill="#000000" fill-rule="nonzero" fill-opacity="1" /><path clip-path="url(#clip680)" d="M1399.59 1533.45 L1399.59 1538.98 Q1397.11 1537.71 1394.44 1537.07 Q1391.76 1536.44 1388.9 1536.44 Q1384.54 1536.44 1382.34 1537.77 Q1380.18 1539.11 1380.18 1541.79 Q1380.18 1543.82 1381.74 1545 Q1383.3 1546.15 1388.01 1547.2 L1390.01 1547.64 Q1396.25 1548.98 1398.86 1551.43 Q1401.5 1553.85 1401.5 1558.21 Q1401.5 1563.17 1397.56 1566.07 Q1393.64 1568.97 1386.77 1568.97 Q1383.9 1568.97 1380.78 1568.39 Q1377.7 1567.85 1374.26 1566.74 L1374.26 1560.69 Q1377.5 1562.38 1380.66 1563.24 Q1383.81 1564.07 1386.89 1564.07 Q1391.03 1564.07 1393.26 1562.66 Q1395.49 1561.23 1395.49 1558.65 Q1395.49 1556.27 1393.86 1554.99 Q1392.27 1553.72 1386.83 1552.54 L1384.79 1552.07 Q1379.35 1550.92 1376.93 1548.56 Q1374.51 1546.18 1374.51 1542.04 Q1374.51 1537.01 1378.08 1534.27 Q1381.64 1531.54 1388.2 1531.54 Q1391.45 1531.54 1394.31 1532.01 Q1397.17 1532.49 1399.59 1533.45 Z" fill="#000000" fill-rule="nonzero" fill-opacity="1" /><polyline clip-path="url(#clip680)" style="stroke:#000000; stroke-linecap:round; stroke-linejoin:round; stroke-width:4; stroke-opacity:1; fill:none" points="224.554,1423.18 224.554,47.2441 "/>
<polyline clip-path="url(#clip680)" style="stroke:#000000; stroke-linecap:round; stroke-linejoin:round; stroke-width:4; stroke-opacity:1; fill:none" points="224.554,1323.84 243.451,1323.84 "/>
<polyline clip-path="url(#clip680)" style="stroke:#000000; stroke-linecap:round; stroke-linejoin:round; stroke-width:4; stroke-opacity:1; fill:none" points="224.554,613.807 243.451,613.807 "/>
<path clip-path="url(#clip680)" d="M51.6634 1343.63 L59.3023 1343.63 L59.3023 1317.26 L50.9921 1318.93 L50.9921 1314.67 L59.256 1313.01 L63.9319 1313.01 L63.9319 1343.63 L71.5707 1343.63 L71.5707 1347.57 L51.6634 1347.57 L51.6634 1343.63 Z" fill="#000000" fill-rule="nonzero" fill-opacity="1" /><path clip-path="url(#clip680)" d="M91.0151 1316.08 Q87.404 1316.08 85.5753 1319.65 Q83.7697 1323.19 83.7697 1330.32 Q83.7697 1337.43 85.5753 1340.99 Q87.404 1344.53 91.0151 1344.53 Q94.6493 1344.53 96.4548 1340.99 Q98.2835 1337.43 98.2835 1330.32 Q98.2835 1323.19 96.4548 1319.65 Q94.6493 1316.08 91.0151 1316.08 M91.0151 1312.38 Q96.8252 1312.38 99.8808 1316.99 Q102.959 1321.57 102.959 1330.32 Q102.959 1339.05 99.8808 1343.65 Q96.8252 1348.24 91.0151 1348.24 Q85.2049 1348.24 82.1262 1343.65 Q79.0707 1339.05 79.0707 1330.32 Q79.0707 1321.57 82.1262 1316.99 Q85.2049 1312.38 91.0151 1312.38 Z" fill="#000000" fill-rule="nonzero" fill-opacity="1" /><path clip-path="url(#clip680)" d="M102.959 1306.48 L127.071 1306.48 L127.071 1309.68 L102.959 1309.68 L102.959 1306.48 Z" fill="#000000" fill-rule="nonzero" fill-opacity="1" /><path clip-path="url(#clip680)" d="M143.396 1294.58 Q140.462 1294.58 138.976 1297.47 Q137.509 1300.35 137.509 1306.14 Q137.509 1311.92 138.976 1314.81 Q140.462 1317.69 143.396 1317.69 Q146.349 1317.69 147.816 1314.81 Q149.302 1311.92 149.302 1306.14 Q149.302 1300.35 147.816 1297.47 Q146.349 1294.58 143.396 1294.58 M143.396 1291.57 Q148.117 1291.57 150.6 1295.31 Q153.101 1299.03 153.101 1306.14 Q153.101 1313.23 150.6 1316.98 Q148.117 1320.7 143.396 1320.7 Q138.675 1320.7 136.174 1316.98 Q133.691 1313.23 133.691 1306.14 Q133.691 1299.03 136.174 1295.31 Q138.675 1291.57 143.396 1291.57 Z" fill="#000000" fill-rule="nonzero" fill-opacity="1" /><path clip-path="url(#clip680)" d="M159.778 1315.38 L163.746 1315.38 L163.746 1320.15 L159.778 1320.15 L159.778 1315.38 Z" fill="#000000" fill-rule="nonzero" fill-opacity="1" /><path clip-path="url(#clip680)" d="M175.294 1316.96 L188.554 1316.96 L188.554 1320.15 L170.724 1320.15 L170.724 1316.96 Q172.887 1314.72 176.611 1310.96 Q180.353 1307.18 181.313 1306.09 Q183.137 1304.04 183.852 1302.63 Q184.585 1301.2 184.585 1299.82 Q184.585 1297.59 183.005 1296.17 Q181.444 1294.76 178.924 1294.76 Q177.137 1294.76 175.144 1295.38 Q173.169 1296.01 170.912 1297.27 L170.912 1293.43 Q173.206 1292.51 175.2 1292.04 Q177.194 1291.57 178.849 1291.57 Q183.212 1291.57 185.808 1293.75 Q188.403 1295.93 188.403 1299.58 Q188.403 1301.31 187.745 1302.87 Q187.105 1304.41 185.394 1306.52 Q184.924 1307.06 182.403 1309.68 Q179.883 1312.27 175.294 1316.96 Z" fill="#000000" fill-rule="nonzero" fill-opacity="1" /><path clip-path="url(#clip680)" d="M81.0976 633.599 L88.7364 633.599 L88.7364 607.234 L80.4263 608.9 L80.4263 604.641 L88.6901 602.975 L93.366 602.975 L93.366 633.599 L101.005 633.599 L101.005 637.535 L81.0976 637.535 L81.0976 633.599 Z" fill="#000000" fill-rule="nonzero" fill-opacity="1" /><path clip-path="url(#clip680)" d="M120.449 606.053 Q116.838 606.053 115.009 609.618 Q113.204 613.16 113.204 620.289 Q113.204 627.396 115.009 630.96 Q116.838 634.502 120.449 634.502 Q124.083 634.502 125.889 630.96 Q127.718 627.396 127.718 620.289 Q127.718 613.16 125.889 609.618 Q124.083 606.053 120.449 606.053 M120.449 602.35 Q126.259 602.35 129.315 606.956 Q132.394 611.539 132.394 620.289 Q132.394 629.016 129.315 633.622 Q126.259 638.206 120.449 638.206 Q114.639 638.206 111.56 633.622 Q108.505 629.016 108.505 620.289 Q108.505 611.539 111.56 606.956 Q114.639 602.35 120.449 602.35 Z" fill="#000000" fill-rule="nonzero" fill-opacity="1" /><path clip-path="url(#clip680)" d="M142.098 584.546 Q139.164 584.546 137.679 587.442 Q136.212 590.32 136.212 596.112 Q136.212 601.886 137.679 604.783 Q139.164 607.66 142.098 607.66 Q145.051 607.66 146.518 604.783 Q148.004 601.886 148.004 596.112 Q148.004 590.32 146.518 587.442 Q145.051 584.546 142.098 584.546 M142.098 581.536 Q146.819 581.536 149.302 585.279 Q151.803 589.003 151.803 596.112 Q151.803 603.203 149.302 606.946 Q146.819 610.67 142.098 610.67 Q137.378 610.67 134.876 606.946 Q132.394 603.203 132.394 596.112 Q132.394 589.003 134.876 585.279 Q137.378 581.536 142.098 581.536 Z" fill="#000000" fill-rule="nonzero" fill-opacity="1" /><path clip-path="url(#clip680)" d="M158.48 605.347 L162.448 605.347 L162.448 610.124 L158.48 610.124 L158.48 605.347 Z" fill="#000000" fill-rule="nonzero" fill-opacity="1" /><path clip-path="url(#clip680)" d="M178.849 584.546 Q175.915 584.546 174.429 587.442 Q172.962 590.32 172.962 596.112 Q172.962 601.886 174.429 604.783 Q175.915 607.66 178.849 607.66 Q181.802 607.66 183.269 604.783 Q184.754 601.886 184.754 596.112 Q184.754 590.32 183.269 587.442 Q181.802 584.546 178.849 584.546 M178.849 581.536 Q183.57 581.536 186.052 585.279 Q188.554 589.003 188.554 596.112 Q188.554 603.203 186.052 606.946 Q183.57 610.67 178.849 610.67 Q174.128 610.67 171.627 606.946 Q169.144 603.203 169.144 596.112 Q169.144 589.003 171.627 585.279 Q174.128 581.536 178.849 581.536 Z" fill="#000000" fill-rule="nonzero" fill-opacity="1" /><polyline clip-path="url(#clip682)" style="stroke:#009af9; stroke-linecap:round; stroke-linejoin:round; stroke-width:4; stroke-opacity:1; fill:none" points="284.786,86.1857 507.868,727.105 730.95,939.37 954.032,1066.08 1177.11,1153.02 1400.2,1218.08 1623.28,1271.45 1846.36,1315.26 2069.44,1350.93 2292.52,1384.24 "/>
<polyline clip-path="url(#clip682)" style="stroke:#e26f46; stroke-linecap:round; stroke-linejoin:round; stroke-width:4; stroke-opacity:1; fill:none" points="284.786,541.517 507.868,834.64 730.95,984.886 954.032,1082.08 1177.11,1155.63 1400.2,1210.15 1623.28,1253.5 1846.36,1292.69 2069.44,1323.98 2292.52,1351.23 "/>
<polyline clip-path="url(#clip682)" style="stroke:#3da44d; stroke-linecap:round; stroke-linejoin:round; stroke-width:4; stroke-opacity:1; fill:none" points="284.786,1223.38 507.868,1120.88 730.95,1064.2 954.032,1034.84 1177.11,1016.35 1400.2,998.278 1623.28,988.84 1846.36,977.933 2069.44,974.314 2292.52,969.566 "/>
<path clip-path="url(#clip680)" d="M1846.96 300.469 L2281.82 300.469 L2281.82 93.1086 L1846.96 93.1086  Z" fill="#ffffff" fill-rule="evenodd" fill-opacity="1"/>
<polyline clip-path="url(#clip680)" style="stroke:#000000; stroke-linecap:round; stroke-linejoin:round; stroke-width:4; stroke-opacity:1; fill:none" points="1846.96,300.469 2281.82,300.469 2281.82,93.1086 1846.96,93.1086 1846.96,300.469 "/>
<polyline clip-path="url(#clip680)" style="stroke:#009af9; stroke-linecap:round; stroke-linejoin:round; stroke-width:4; stroke-opacity:1; fill:none" points="1870.61,144.949 2012.49,144.949 "/>
<path clip-path="url(#clip680)" d="M2043.54 128.942 L2043.54 136.303 L2052.31 136.303 L2052.31 139.613 L2043.54 139.613 L2043.54 153.687 Q2043.54 156.858 2044.4 157.761 Q2045.28 158.664 2047.94 158.664 L2052.31 158.664 L2052.31 162.229 L2047.94 162.229 Q2043.01 162.229 2041.13 160.4 Q2039.26 158.548 2039.26 153.687 L2039.26 139.613 L2036.13 139.613 L2036.13 136.303 L2039.26 136.303 L2039.26 128.942 L2043.54 128.942 Z" fill="#000000" fill-rule="nonzero" fill-opacity="1" /><path clip-path="url(#clip680)" d="M2072.94 140.284 Q2072.22 139.868 2071.36 139.682 Q2070.53 139.474 2069.51 139.474 Q2065.9 139.474 2063.96 141.835 Q2062.04 144.173 2062.04 148.571 L2062.04 162.229 L2057.75 162.229 L2057.75 136.303 L2062.04 136.303 L2062.04 140.331 Q2063.38 137.969 2065.53 136.835 Q2067.68 135.678 2070.76 135.678 Q2071.2 135.678 2071.73 135.747 Q2072.27 135.794 2072.92 135.909 L2072.94 140.284 Z" fill="#000000" fill-rule="nonzero" fill-opacity="1" /><path clip-path="url(#clip680)" d="M2089.19 149.196 Q2084.03 149.196 2082.04 150.377 Q2080.05 151.557 2080.05 154.405 Q2080.05 156.673 2081.53 158.016 Q2083.03 159.335 2085.6 159.335 Q2089.14 159.335 2091.27 156.835 Q2093.42 154.312 2093.42 150.145 L2093.42 149.196 L2089.19 149.196 M2097.68 147.437 L2097.68 162.229 L2093.42 162.229 L2093.42 158.293 Q2091.97 160.655 2089.79 161.789 Q2087.61 162.9 2084.47 162.9 Q2080.48 162.9 2078.12 160.678 Q2075.79 158.432 2075.79 154.682 Q2075.79 150.307 2078.7 148.085 Q2081.64 145.863 2087.45 145.863 L2093.42 145.863 L2093.42 145.446 Q2093.42 142.507 2091.48 140.909 Q2089.56 139.289 2086.06 139.289 Q2083.84 139.289 2081.73 139.821 Q2079.63 140.354 2077.68 141.419 L2077.68 137.483 Q2080.02 136.581 2082.22 136.141 Q2084.42 135.678 2086.5 135.678 Q2092.13 135.678 2094.91 138.594 Q2097.68 141.511 2097.68 147.437 Z" fill="#000000" fill-rule="nonzero" fill-opacity="1" /><path clip-path="url(#clip680)" d="M2106.46 136.303 L2110.72 136.303 L2110.72 162.229 L2106.46 162.229 L2106.46 136.303 M2106.46 126.21 L2110.72 126.21 L2110.72 131.604 L2106.46 131.604 L2106.46 126.21 Z" fill="#000000" fill-rule="nonzero" fill-opacity="1" /><path clip-path="url(#clip680)" d="M2141.18 146.581 L2141.18 162.229 L2136.92 162.229 L2136.92 146.719 Q2136.92 143.039 2135.48 141.21 Q2134.05 139.382 2131.18 139.382 Q2127.73 139.382 2125.74 141.581 Q2123.75 143.78 2123.75 147.576 L2123.75 162.229 L2119.47 162.229 L2119.47 136.303 L2123.75 136.303 L2123.75 140.331 Q2125.28 137.993 2127.34 136.835 Q2129.42 135.678 2132.13 135.678 Q2136.6 135.678 2138.89 138.456 Q2141.18 141.21 2141.18 146.581 Z" fill="#000000" fill-rule="nonzero" fill-opacity="1" /><path clip-path="url(#clip680)" d="M2169.37 170.099 L2169.37 173.409 L2144.74 173.409 L2144.74 170.099 L2169.37 170.099 Z" fill="#000000" fill-rule="nonzero" fill-opacity="1" /><path clip-path="url(#clip680)" d="M2173.38 126.21 L2177.64 126.21 L2177.64 162.229 L2173.38 162.229 L2173.38 126.21 Z" fill="#000000" fill-rule="nonzero" fill-opacity="1" /><path clip-path="url(#clip680)" d="M2196.6 139.289 Q2193.17 139.289 2191.18 141.974 Q2189.19 144.636 2189.19 149.289 Q2189.19 153.942 2191.16 156.627 Q2193.15 159.289 2196.6 159.289 Q2200 159.289 2201.99 156.604 Q2203.98 153.918 2203.98 149.289 Q2203.98 144.682 2201.99 141.997 Q2200 139.289 2196.6 139.289 M2196.6 135.678 Q2202.15 135.678 2205.32 139.289 Q2208.49 142.9 2208.49 149.289 Q2208.49 155.655 2205.32 159.289 Q2202.15 162.9 2196.6 162.9 Q2191.02 162.9 2187.85 159.289 Q2184.7 155.655 2184.7 149.289 Q2184.7 142.9 2187.85 139.289 Q2191.02 135.678 2196.6 135.678 Z" fill="#000000" fill-rule="nonzero" fill-opacity="1" /><path clip-path="url(#clip680)" d="M2232.08 137.067 L2232.08 141.094 Q2230.28 140.169 2228.33 139.706 Q2226.39 139.243 2224.3 139.243 Q2221.13 139.243 2219.54 140.215 Q2217.96 141.187 2217.96 143.131 Q2217.96 144.613 2219.1 145.469 Q2220.23 146.303 2223.66 147.067 L2225.11 147.391 Q2229.65 148.363 2231.55 150.145 Q2233.47 151.905 2233.47 155.076 Q2233.47 158.687 2230.6 160.793 Q2227.75 162.9 2222.75 162.9 Q2220.67 162.9 2218.4 162.483 Q2216.16 162.09 2213.66 161.28 L2213.66 156.881 Q2216.02 158.108 2218.31 158.733 Q2220.6 159.335 2222.85 159.335 Q2225.85 159.335 2227.47 158.317 Q2229.1 157.275 2229.1 155.4 Q2229.1 153.664 2227.91 152.738 Q2226.76 151.812 2222.8 150.956 L2221.32 150.608 Q2217.36 149.775 2215.6 148.062 Q2213.84 146.326 2213.84 143.317 Q2213.84 139.659 2216.43 137.669 Q2219.03 135.678 2223.79 135.678 Q2226.16 135.678 2228.24 136.025 Q2230.32 136.372 2232.08 137.067 Z" fill="#000000" fill-rule="nonzero" fill-opacity="1" /><path clip-path="url(#clip680)" d="M2256.78 137.067 L2256.78 141.094 Q2254.97 140.169 2253.03 139.706 Q2251.09 139.243 2249 139.243 Q2245.83 139.243 2244.23 140.215 Q2242.66 141.187 2242.66 143.131 Q2242.66 144.613 2243.79 145.469 Q2244.93 146.303 2248.35 147.067 L2249.81 147.391 Q2254.35 148.363 2256.25 150.145 Q2258.17 151.905 2258.17 155.076 Q2258.17 158.687 2255.3 160.793 Q2252.45 162.9 2247.45 162.9 Q2245.37 162.9 2243.1 162.483 Q2240.85 162.09 2238.35 161.28 L2238.35 156.881 Q2240.72 158.108 2243.01 158.733 Q2245.3 159.335 2247.54 159.335 Q2250.55 159.335 2252.17 158.317 Q2253.79 157.275 2253.79 155.4 Q2253.79 153.664 2252.61 152.738 Q2251.46 151.812 2247.5 150.956 L2246.02 150.608 Q2242.06 149.775 2240.3 148.062 Q2238.54 146.326 2238.54 143.317 Q2238.54 139.659 2241.13 137.669 Q2243.72 135.678 2248.49 135.678 Q2250.85 135.678 2252.94 136.025 Q2255.02 136.372 2256.78 137.067 Z" fill="#000000" fill-rule="nonzero" fill-opacity="1" /><polyline clip-path="url(#clip680)" style="stroke:#e26f46; stroke-linecap:round; stroke-linejoin:round; stroke-width:4; stroke-opacity:1; fill:none" points="1870.61,196.789 2012.49,196.789 "/>
<path clip-path="url(#clip680)" d="M2036.13 188.143 L2040.65 188.143 L2048.75 209.902 L2056.85 188.143 L2061.36 188.143 L2051.64 214.069 L2045.86 214.069 L2036.13 188.143 Z" fill="#000000" fill-rule="nonzero" fill-opacity="1" /><path clip-path="url(#clip680)" d="M2079.03 201.036 Q2073.86 201.036 2071.87 202.217 Q2069.88 203.397 2069.88 206.245 Q2069.88 208.513 2071.36 209.856 Q2072.87 211.175 2075.44 211.175 Q2078.98 211.175 2081.11 208.675 Q2083.26 206.152 2083.26 201.985 L2083.26 201.036 L2079.03 201.036 M2087.52 199.277 L2087.52 214.069 L2083.26 214.069 L2083.26 210.133 Q2081.8 212.495 2079.63 213.629 Q2077.45 214.74 2074.3 214.74 Q2070.32 214.74 2067.96 212.518 Q2065.62 210.272 2065.62 206.522 Q2065.62 202.147 2068.54 199.925 Q2071.48 197.703 2077.29 197.703 L2083.26 197.703 L2083.26 197.286 Q2083.26 194.347 2081.32 192.749 Q2079.4 191.129 2075.9 191.129 Q2073.68 191.129 2071.57 191.661 Q2069.47 192.194 2067.52 193.259 L2067.52 189.323 Q2069.86 188.421 2072.06 187.981 Q2074.26 187.518 2076.34 187.518 Q2081.97 187.518 2084.74 190.434 Q2087.52 193.351 2087.52 199.277 Z" fill="#000000" fill-rule="nonzero" fill-opacity="1" /><path clip-path="url(#clip680)" d="M2096.3 178.05 L2100.55 178.05 L2100.55 214.069 L2096.3 214.069 L2096.3 178.05 Z" fill="#000000" fill-rule="nonzero" fill-opacity="1" /><path clip-path="url(#clip680)" d="M2129.17 221.939 L2129.17 225.249 L2104.54 225.249 L2104.54 221.939 L2129.17 221.939 Z" fill="#000000" fill-rule="nonzero" fill-opacity="1" /><path clip-path="url(#clip680)" d="M2133.17 178.05 L2137.43 178.05 L2137.43 214.069 L2133.17 214.069 L2133.17 178.05 Z" fill="#000000" fill-rule="nonzero" fill-opacity="1" /><path clip-path="url(#clip680)" d="M2156.39 191.129 Q2152.96 191.129 2150.97 193.814 Q2148.98 196.476 2148.98 201.129 Q2148.98 205.782 2150.95 208.467 Q2152.94 211.129 2156.39 211.129 Q2159.79 211.129 2161.78 208.444 Q2163.77 205.758 2163.77 201.129 Q2163.77 196.522 2161.78 193.837 Q2159.79 191.129 2156.39 191.129 M2156.39 187.518 Q2161.94 187.518 2165.11 191.129 Q2168.29 194.74 2168.29 201.129 Q2168.29 207.495 2165.11 211.129 Q2161.94 214.74 2156.39 214.74 Q2150.81 214.74 2147.64 211.129 Q2144.49 207.495 2144.49 201.129 Q2144.49 194.74 2147.64 191.129 Q2150.81 187.518 2156.39 187.518 Z" fill="#000000" fill-rule="nonzero" fill-opacity="1" /><path clip-path="url(#clip680)" d="M2191.87 188.907 L2191.87 192.934 Q2190.07 192.009 2188.12 191.546 Q2186.18 191.083 2184.1 191.083 Q2180.92 191.083 2179.33 192.055 Q2177.75 193.027 2177.75 194.971 Q2177.75 196.453 2178.89 197.309 Q2180.02 198.143 2183.45 198.907 L2184.91 199.231 Q2189.44 200.203 2191.34 201.985 Q2193.26 203.745 2193.26 206.916 Q2193.26 210.527 2190.39 212.633 Q2187.54 214.74 2182.54 214.74 Q2180.46 214.74 2178.19 214.323 Q2175.95 213.93 2173.45 213.12 L2173.45 208.721 Q2175.81 209.948 2178.1 210.573 Q2180.39 211.175 2182.64 211.175 Q2185.65 211.175 2187.27 210.157 Q2188.89 209.115 2188.89 207.24 Q2188.89 205.504 2187.71 204.578 Q2186.55 203.652 2182.59 202.796 L2181.11 202.448 Q2177.15 201.615 2175.39 199.902 Q2173.63 198.166 2173.63 195.157 Q2173.63 191.499 2176.23 189.509 Q2178.82 187.518 2183.59 187.518 Q2185.95 187.518 2188.03 187.865 Q2190.11 188.212 2191.87 188.907 Z" fill="#000000" fill-rule="nonzero" fill-opacity="1" /><path clip-path="url(#clip680)" d="M2216.57 188.907 L2216.57 192.934 Q2214.77 192.009 2212.82 191.546 Q2210.88 191.083 2208.79 191.083 Q2205.62 191.083 2204.03 192.055 Q2202.45 193.027 2202.45 194.971 Q2202.45 196.453 2203.59 197.309 Q2204.72 198.143 2208.15 198.907 L2209.6 199.231 Q2214.14 200.203 2216.04 201.985 Q2217.96 203.745 2217.96 206.916 Q2217.96 210.527 2215.09 212.633 Q2212.24 214.74 2207.24 214.74 Q2205.16 214.74 2202.89 214.323 Q2200.65 213.93 2198.15 213.12 L2198.15 208.721 Q2200.51 209.948 2202.8 210.573 Q2205.09 211.175 2207.34 211.175 Q2210.35 211.175 2211.97 210.157 Q2213.59 209.115 2213.59 207.24 Q2213.59 205.504 2212.41 204.578 Q2211.25 203.652 2207.29 202.796 L2205.81 202.448 Q2201.85 201.615 2200.09 199.902 Q2198.33 198.166 2198.33 195.157 Q2198.33 191.499 2200.92 189.509 Q2203.52 187.518 2208.29 187.518 Q2210.65 187.518 2212.73 187.865 Q2214.81 188.212 2216.57 188.907 Z" fill="#000000" fill-rule="nonzero" fill-opacity="1" /><polyline clip-path="url(#clip680)" style="stroke:#3da44d; stroke-linecap:round; stroke-linejoin:round; stroke-width:4; stroke-opacity:1; fill:none" points="1870.61,248.629 2012.49,248.629 "/>
<path clip-path="url(#clip680)" d="M2036.13 239.983 L2040.65 239.983 L2048.75 261.742 L2056.85 239.983 L2061.36 239.983 L2051.64 265.909 L2045.86 265.909 L2036.13 239.983 Z" fill="#000000" fill-rule="nonzero" fill-opacity="1" /><path clip-path="url(#clip680)" d="M2079.03 252.876 Q2073.86 252.876 2071.87 254.057 Q2069.88 255.237 2069.88 258.085 Q2069.88 260.353 2071.36 261.696 Q2072.87 263.015 2075.44 263.015 Q2078.98 263.015 2081.11 260.515 Q2083.26 257.992 2083.26 253.825 L2083.26 252.876 L2079.03 252.876 M2087.52 251.117 L2087.52 265.909 L2083.26 265.909 L2083.26 261.973 Q2081.8 264.335 2079.63 265.469 Q2077.45 266.58 2074.3 266.58 Q2070.32 266.58 2067.96 264.358 Q2065.62 262.112 2065.62 258.362 Q2065.62 253.987 2068.54 251.765 Q2071.48 249.543 2077.29 249.543 L2083.26 249.543 L2083.26 249.126 Q2083.26 246.187 2081.32 244.589 Q2079.4 242.969 2075.9 242.969 Q2073.68 242.969 2071.57 243.501 Q2069.47 244.034 2067.52 245.099 L2067.52 241.163 Q2069.86 240.261 2072.06 239.821 Q2074.26 239.358 2076.34 239.358 Q2081.97 239.358 2084.74 242.274 Q2087.52 245.191 2087.52 251.117 Z" fill="#000000" fill-rule="nonzero" fill-opacity="1" /><path clip-path="url(#clip680)" d="M2096.3 229.89 L2100.55 229.89 L2100.55 265.909 L2096.3 265.909 L2096.3 229.89 Z" fill="#000000" fill-rule="nonzero" fill-opacity="1" /><path clip-path="url(#clip680)" d="M2129.17 273.779 L2129.17 277.089 L2104.54 277.089 L2104.54 273.779 L2129.17 273.779 Z" fill="#000000" fill-rule="nonzero" fill-opacity="1" /><path clip-path="url(#clip680)" d="M2144.95 252.876 Q2139.79 252.876 2137.8 254.057 Q2135.81 255.237 2135.81 258.085 Q2135.81 260.353 2137.29 261.696 Q2138.79 263.015 2141.36 263.015 Q2144.91 263.015 2147.04 260.515 Q2149.19 257.992 2149.19 253.825 L2149.19 252.876 L2144.95 252.876 M2153.45 251.117 L2153.45 265.909 L2149.19 265.909 L2149.19 261.973 Q2147.73 264.335 2145.55 265.469 Q2143.38 266.58 2140.23 266.58 Q2136.25 266.58 2133.89 264.358 Q2131.55 262.112 2131.55 258.362 Q2131.55 253.987 2134.47 251.765 Q2137.41 249.543 2143.22 249.543 L2149.19 249.543 L2149.19 249.126 Q2149.19 246.187 2147.24 244.589 Q2145.32 242.969 2141.83 242.969 Q2139.6 242.969 2137.5 243.501 Q2135.39 244.034 2133.45 245.099 L2133.45 241.163 Q2135.79 240.261 2137.98 239.821 Q2140.18 239.358 2142.27 239.358 Q2147.89 239.358 2150.67 242.274 Q2153.45 245.191 2153.45 251.117 Z" fill="#000000" fill-rule="nonzero" fill-opacity="1" /><path clip-path="url(#clip680)" d="M2180.88 240.978 L2180.88 244.96 Q2179.07 243.964 2177.24 243.478 Q2175.44 242.969 2173.59 242.969 Q2169.44 242.969 2167.15 245.608 Q2164.86 248.224 2164.86 252.969 Q2164.86 257.714 2167.15 260.353 Q2169.44 262.969 2173.59 262.969 Q2175.44 262.969 2177.24 262.483 Q2179.07 261.973 2180.88 260.978 L2180.88 264.913 Q2179.1 265.747 2177.17 266.163 Q2175.28 266.58 2173.12 266.58 Q2167.27 266.58 2163.82 262.899 Q2160.37 259.219 2160.37 252.969 Q2160.37 246.626 2163.84 242.992 Q2167.34 239.358 2173.4 239.358 Q2175.37 239.358 2177.24 239.775 Q2179.12 240.168 2180.88 240.978 Z" fill="#000000" fill-rule="nonzero" fill-opacity="1" /><path clip-path="url(#clip680)" d="M2206.94 240.978 L2206.94 244.96 Q2205.14 243.964 2203.31 243.478 Q2201.5 242.969 2199.65 242.969 Q2195.51 242.969 2193.22 245.608 Q2190.92 248.224 2190.92 252.969 Q2190.92 257.714 2193.22 260.353 Q2195.51 262.969 2199.65 262.969 Q2201.5 262.969 2203.31 262.483 Q2205.14 261.973 2206.94 260.978 L2206.94 264.913 Q2205.16 265.747 2203.24 266.163 Q2201.34 266.58 2199.19 266.58 Q2193.33 266.58 2189.88 262.899 Q2186.43 259.219 2186.43 252.969 Q2186.43 246.626 2189.91 242.992 Q2193.4 239.358 2199.47 239.358 Q2201.43 239.358 2203.31 239.775 Q2205.18 240.168 2206.94 240.978 Z" fill="#000000" fill-rule="nonzero" fill-opacity="1" /></svg>
