<?xml version="1.0" encoding="utf-8"?>
<svg xmlns="http://www.w3.org/2000/svg" xmlns:xlink="http://www.w3.org/1999/xlink" width="600" height="400" viewBox="0 0 2400 1600">
<defs>
  <clipPath id="clip920">
    <rect x="0" y="0" width="2400" height="1600"/>
  </clipPath>
</defs>
<path clip-path="url(#clip920)" d="M0 1600 L2400 1600 L2400 0 L0 0  Z" fill="#ffffff" fill-rule="evenodd" fill-opacity="1"/>
<defs>
  <clipPath id="clip921">
    <rect x="480" y="0" width="1681" height="1600"/>
  </clipPath>
</defs>
<path clip-path="url(#clip920)" d="M186.274 1423.18 L2352.76 1423.18 L2352.76 47.2441 L186.274 47.2441  Z" fill="#ffffff" fill-rule="evenodd" fill-opacity="1"/>
<defs>
  <clipPath id="clip922">
    <rect x="186" y="47" width="2167" height="1377"/>
  </clipPath>
</defs>
<polyline clip-path="url(#clip922)" style="stroke:#000000; stroke-linecap:round; stroke-linejoin:round; stroke-width:2; stroke-opacity:0.1; fill:none" points="474.684,1423.18 474.684,47.2441 "/>
<polyline clip-path="url(#clip922)" style="stroke:#000000; stroke-linecap:round; stroke-linejoin:round; stroke-width:2; stroke-opacity:0.1; fill:none" points="928.873,1423.18 928.873,47.2441 "/>
<polyline clip-path="url(#clip922)" style="stroke:#000000; stroke-linecap:round; stroke-linejoin:round; stroke-width:2; stroke-opacity:0.1; fill:none" points="1383.06,1423.18 1383.06,47.2441 "/>
<polyline clip-path="url(#clip922)" style="stroke:#000000; stroke-linecap:round; stroke-linejoin:round; stroke-width:2; stroke-opacity:0.1; fill:none" points="1837.25,1423.18 1837.25,47.2441 "/>
<polyline clip-path="url(#clip922)" style="stroke:#000000; stroke-linecap:round; stroke-linejoin:round; stroke-width:2; stroke-opacity:0.1; fill:none" points="2291.44,1423.18 2291.44,47.2441 "/>
<polyline clip-path="url(#clip922)" style="stroke:#000000; stroke-linecap:round; stroke-linejoin:round; stroke-width:2; stroke-opacity:0.1; fill:none" points="186.274,1332.15 2352.76,1332.15 "/>
<polyline clip-path="url(#clip922)" style="stroke:#000000; stroke-linecap:round; stroke-linejoin:round; stroke-width:2; stroke-opacity:0.1; fill:none" points="186.274,1044.47 2352.76,1044.47 "/>
<polyline clip-path="url(#clip922)" style="stroke:#000000; stroke-linecap:round; stroke-linejoin:round; stroke-width:2; stroke-opacity:0.1; fill:none" points="186.274,756.792 2352.76,756.792 "/>
<polyline clip-path="url(#clip922)" style="stroke:#000000; stroke-linecap:round; stroke-linejoin:round; stroke-width:2; stroke-opacity:0.1; fill:none" points="186.274,469.114 2352.76,469.114 "/>
<polyline clip-path="url(#clip922)" style="stroke:#000000; stroke-linecap:round; stroke-linejoin:round; stroke-width:2; stroke-opacity:0.1; fill:none" points="186.274,181.436 2352.76,181.436 "/>
<polyline clip-path="url(#clip920)" style="stroke:#000000; stroke-linecap:round; stroke-linejoin:round; stroke-width:4; stroke-opacity:1; fill:none" points="186.274,1423.18 2352.76,1423.18 "/>
<polyline clip-path="url(#clip920)" style="stroke:#000000; stroke-linecap:round; stroke-linejoin:round; stroke-width:4; stroke-opacity:1; fill:none" points="474.684,1423.18 474.684,1404.28 "/>
<polyline clip-path="url(#clip920)" style="stroke:#000000; stroke-linecap:round; stroke-linejoin:round; stroke-width:4; stroke-opacity:1; fill:none" points="928.873,1423.18 928.873,1404.28 "/>
<polyline clip-path="url(#clip920)" style="stroke:#000000; stroke-linecap:round; stroke-linejoin:round; stroke-width:4; stroke-opacity:1; fill:none" points="1383.06,1423.18 1383.06,1404.28 "/>
<polyline clip-path="url(#clip920)" style="stroke:#000000; stroke-linecap:round; stroke-linejoin:round; stroke-width:4; stroke-opacity:1; fill:none" points="1837.25,1423.18 1837.25,1404.28 "/>
<polyline clip-path="url(#clip920)" style="stroke:#000000; stroke-linecap:round; stroke-linejoin:round; stroke-width:4; stroke-opacity:1; fill:none" points="2291.44,1423.18 2291.44,1404.28 "/>
<path clip-path="url(#clip920)" d="M469.337 1481.64 L485.656 1481.64 L485.656 1485.58 L463.712 1485.58 L463.712 1481.64 Q466.374 1478.89 470.957 1474.26 Q475.564 1469.61 476.744 1468.27 Q478.99 1465.74 479.869 1464.01 Q480.772 1462.25 480.772 1460.56 Q480.772 1457.8 478.828 1456.07 Q476.906 1454.33 473.804 1454.33 Q471.605 1454.33 469.152 1455.09 Q466.721 1455.86 463.943 1457.41 L463.943 1452.69 Q466.767 1451.55 469.221 1450.97 Q471.675 1450.39 473.712 1450.39 Q479.082 1450.39 482.277 1453.08 Q485.471 1455.77 485.471 1460.26 Q485.471 1462.39 484.661 1464.31 Q483.874 1466.2 481.767 1468.8 Q481.189 1469.47 478.087 1472.69 Q474.985 1475.88 469.337 1481.64 Z" fill="#000000" fill-rule="nonzero" fill-opacity="1" /><path clip-path="url(#clip920)" d="M931.882 1455.09 L920.077 1473.54 L931.882 1473.54 L931.882 1455.09 M930.656 1451.02 L936.535 1451.02 L936.535 1473.54 L941.466 1473.54 L941.466 1477.43 L936.535 1477.43 L936.535 1485.58 L931.882 1485.58 L931.882 1477.43 L916.281 1477.43 L916.281 1472.92 L930.656 1451.02 Z" fill="#000000" fill-rule="nonzero" fill-opacity="1" /><path clip-path="url(#clip920)" d="M1383.47 1466.44 Q1380.32 1466.44 1378.47 1468.59 Q1376.64 1470.74 1376.64 1474.49 Q1376.64 1478.22 1378.47 1480.39 Q1380.32 1482.55 1383.47 1482.55 Q1386.62 1482.55 1388.44 1480.39 Q1390.3 1478.22 1390.3 1474.49 Q1390.3 1470.74 1388.44 1468.59 Q1386.62 1466.44 1383.47 1466.44 M1392.75 1451.78 L1392.75 1456.04 Q1390.99 1455.21 1389.18 1454.77 Q1387.4 1454.33 1385.64 1454.33 Q1381.01 1454.33 1378.56 1457.45 Q1376.13 1460.58 1375.78 1466.9 Q1377.15 1464.89 1379.21 1463.82 Q1381.27 1462.73 1383.75 1462.73 Q1388.95 1462.73 1391.96 1465.9 Q1395 1469.05 1395 1474.49 Q1395 1479.82 1391.85 1483.03 Q1388.7 1486.25 1383.47 1486.25 Q1377.47 1486.25 1374.3 1481.67 Q1371.13 1477.06 1371.13 1468.33 Q1371.13 1460.14 1375.02 1455.28 Q1378.91 1450.39 1385.46 1450.39 Q1387.22 1450.39 1389 1450.74 Q1390.81 1451.09 1392.75 1451.78 Z" fill="#000000" fill-rule="nonzero" fill-opacity="1" /><path clip-path="url(#clip920)" d="M1837.25 1469.17 Q1833.92 1469.17 1832 1470.95 Q1830.1 1472.73 1830.1 1475.86 Q1830.1 1478.98 1832 1480.77 Q1833.92 1482.55 1837.25 1482.55 Q1840.58 1482.55 1842.51 1480.77 Q1844.43 1478.96 1844.43 1475.86 Q1844.43 1472.73 1842.51 1470.95 Q1840.61 1469.17 1837.25 1469.17 M1832.58 1467.18 Q1829.57 1466.44 1827.88 1464.38 Q1826.21 1462.32 1826.21 1459.35 Q1826.21 1455.21 1829.15 1452.8 Q1832.11 1450.39 1837.25 1450.39 Q1842.41 1450.39 1845.35 1452.8 Q1848.29 1455.21 1848.29 1459.35 Q1848.29 1462.32 1846.6 1464.38 Q1844.94 1466.44 1841.95 1467.18 Q1845.33 1467.96 1847.2 1470.26 Q1849.1 1472.55 1849.1 1475.86 Q1849.1 1480.88 1846.02 1483.57 Q1842.97 1486.25 1837.25 1486.25 Q1831.53 1486.25 1828.46 1483.57 Q1825.4 1480.88 1825.4 1475.86 Q1825.4 1472.55 1827.3 1470.26 Q1829.2 1467.96 1832.58 1467.18 M1830.86 1459.79 Q1830.86 1462.48 1832.53 1463.98 Q1834.22 1465.49 1837.25 1465.49 Q1840.26 1465.49 1841.95 1463.98 Q1843.66 1462.48 1843.66 1459.79 Q1843.66 1457.11 1841.95 1455.6 Q1840.26 1454.1 1837.25 1454.1 Q1834.22 1454.1 1832.53 1455.6 Q1830.86 1457.11 1830.86 1459.79 Z" fill="#000000" fill-rule="nonzero" fill-opacity="1" /><path clip-path="url(#clip920)" d="M2266.13 1481.64 L2273.77 1481.64 L2273.77 1455.28 L2265.46 1456.95 L2265.46 1452.69 L2273.72 1451.02 L2278.4 1451.02 L2278.4 1481.64 L2286.04 1481.64 L2286.04 1485.58 L2266.13 1485.58 L2266.13 1481.64 Z" fill="#000000" fill-rule="nonzero" fill-opacity="1" /><path clip-path="url(#clip920)" d="M2305.48 1454.1 Q2301.87 1454.1 2300.04 1457.66 Q2298.23 1461.2 2298.23 1468.33 Q2298.23 1475.44 2300.04 1479.01 Q2301.87 1482.55 2305.48 1482.55 Q2309.11 1482.55 2310.92 1479.01 Q2312.75 1475.44 2312.75 1468.33 Q2312.75 1461.2 2310.92 1457.66 Q2309.11 1454.1 2305.48 1454.1 M2305.48 1450.39 Q2311.29 1450.39 2314.35 1455 Q2317.42 1459.58 2317.42 1468.33 Q2317.42 1477.06 2314.35 1481.67 Q2311.29 1486.25 2305.48 1486.25 Q2299.67 1486.25 2296.59 1481.67 Q2293.54 1477.06 2293.54 1468.33 Q2293.54 1459.58 2296.59 1455 Q2299.67 1450.39 2305.48 1450.39 Z" fill="#000000" fill-rule="nonzero" fill-opacity="1" /><path clip-path="url(#clip920)" d="M1189.7 1548.76 L1189.7 1551.62 L1162.78 1551.62 Q1163.16 1557.67 1166.41 1560.85 Q1169.68 1564 1175.51 1564 Q1178.88 1564 1182.03 1563.17 Q1185.22 1562.35 1188.34 1560.69 L1188.34 1566.23 Q1185.19 1567.57 1181.88 1568.27 Q1178.56 1568.97 1175.16 1568.97 Q1166.63 1568.97 1161.63 1564 Q1156.67 1559.04 1156.67 1550.57 Q1156.67 1541.82 1161.38 1536.69 Q1166.12 1531.54 1174.14 1531.54 Q1181.33 1531.54 1185.5 1536.18 Q1189.7 1540.8 1189.7 1548.76 M1183.85 1547.04 Q1183.78 1542.23 1181.14 1539.37 Q1178.53 1536.5 1174.2 1536.5 Q1169.3 1536.5 1166.34 1539.27 Q1163.41 1542.04 1162.97 1547.07 L1183.85 1547.04 Z" fill="#000000" fill-rule="nonzero" fill-opacity="1" /><path clip-path="url(#clip920)" d="M1204.98 1562.7 L1204.98 1581.6 L1199.09 1581.6 L1199.09 1532.4 L1204.98 1532.4 L1204.98 1537.81 Q1206.83 1534.62 1209.63 1533.1 Q1212.46 1531.54 1216.38 1531.54 Q1222.87 1531.54 1226.91 1536.69 Q1230.99 1541.85 1230.99 1550.25 Q1230.99 1558.65 1226.91 1563.81 Q1222.87 1568.97 1216.38 1568.97 Q1212.46 1568.97 1209.63 1567.44 Q1206.83 1565.88 1204.98 1562.7 M1224.91 1550.25 Q1224.91 1543.79 1222.23 1540.13 Q1219.59 1536.44 1214.94 1536.44 Q1210.3 1536.44 1207.62 1540.13 Q1204.98 1543.79 1204.98 1550.25 Q1204.98 1556.71 1207.62 1560.4 Q1210.3 1564.07 1214.94 1564.07 Q1219.59 1564.07 1222.23 1560.4 Q1224.91 1556.71 1224.91 1550.25 Z" fill="#000000" fill-rule="nonzero" fill-opacity="1" /><path clip-path="url(#clip920)" d="M1254.51 1536.5 Q1249.8 1536.5 1247.06 1540.19 Q1244.32 1543.85 1244.32 1550.25 Q1244.32 1556.65 1247.03 1560.34 Q1249.77 1564 1254.51 1564 Q1259.19 1564 1261.92 1560.31 Q1264.66 1556.62 1264.66 1550.25 Q1264.66 1543.92 1261.92 1540.23 Q1259.19 1536.5 1254.51 1536.5 M1254.51 1531.54 Q1262.15 1531.54 1266.51 1536.5 Q1270.87 1541.47 1270.87 1550.25 Q1270.87 1559 1266.51 1564 Q1262.15 1568.97 1254.51 1568.97 Q1246.84 1568.97 1242.48 1564 Q1238.15 1559 1238.15 1550.25 Q1238.15 1541.47 1242.48 1536.5 Q1246.84 1531.54 1254.51 1531.54 Z" fill="#000000" fill-rule="nonzero" fill-opacity="1" /><path clip-path="url(#clip920)" d="M1306.23 1533.76 L1306.23 1539.24 Q1303.75 1537.87 1301.23 1537.2 Q1298.75 1536.5 1296.2 1536.5 Q1290.51 1536.5 1287.35 1540.13 Q1284.2 1543.73 1284.2 1550.25 Q1284.2 1556.78 1287.35 1560.4 Q1290.51 1564 1296.2 1564 Q1298.75 1564 1301.23 1563.33 Q1303.75 1562.63 1306.23 1561.26 L1306.23 1566.68 Q1303.78 1567.82 1301.14 1568.39 Q1298.53 1568.97 1295.57 1568.97 Q1287.51 1568.97 1282.77 1563.91 Q1278.03 1558.85 1278.03 1550.25 Q1278.03 1541.53 1282.8 1536.53 Q1287.61 1531.54 1295.95 1531.54 Q1298.65 1531.54 1301.23 1532.11 Q1303.81 1532.65 1306.23 1533.76 Z" fill="#000000" fill-rule="nonzero" fill-opacity="1" /><path clip-path="url(#clip920)" d="M1346.05 1546.53 L1346.05 1568.04 L1340.19 1568.04 L1340.19 1546.72 Q1340.19 1541.66 1338.22 1539.14 Q1336.24 1536.63 1332.3 1536.63 Q1327.55 1536.63 1324.82 1539.65 Q1322.08 1542.68 1322.08 1547.9 L1322.08 1568.04 L1316.19 1568.04 L1316.19 1518.52 L1322.08 1518.52 L1322.08 1537.93 Q1324.18 1534.72 1327.01 1533.13 Q1329.88 1531.54 1333.6 1531.54 Q1339.74 1531.54 1342.9 1535.36 Q1346.05 1539.14 1346.05 1546.53 Z" fill="#000000" fill-rule="nonzero" fill-opacity="1" /><path clip-path="url(#clip920)" d="M1380.45 1533.45 L1380.45 1538.98 Q1377.97 1537.71 1375.3 1537.07 Q1372.62 1536.44 1369.76 1536.44 Q1365.4 1536.44 1363.2 1537.77 Q1361.04 1539.11 1361.04 1541.79 Q1361.04 1543.82 1362.6 1545 Q1364.16 1546.15 1368.87 1547.2 L1370.87 1547.64 Q1377.11 1548.98 1379.72 1551.43 Q1382.36 1553.85 1382.36 1558.21 Q1382.36 1563.17 1378.42 1566.07 Q1374.5 1568.97 1367.63 1568.97 Q1364.76 1568.97 1361.64 1568.39 Q1358.56 1567.85 1355.12 1566.74 L1355.12 1560.69 Q1358.36 1562.38 1361.52 1563.24 Q1364.67 1564.07 1367.75 1564.07 Q1371.89 1564.07 1374.12 1562.66 Q1376.35 1561.23 1376.35 1558.65 Q1376.35 1556.27 1374.72 1554.99 Q1373.13 1553.72 1367.69 1552.54 L1365.65 1552.07 Q1360.21 1550.92 1357.79 1548.56 Q1355.37 1546.18 1355.37 1542.04 Q1355.37 1537.01 1358.94 1534.27 Q1362.5 1531.54 1369.06 1531.54 Q1372.31 1531.54 1375.17 1532.01 Q1378.03 1532.49 1380.45 1533.45 Z" fill="#000000" fill-rule="nonzero" fill-opacity="1" /><polyline clip-path="url(#clip920)" style="stroke:#000000; stroke-linecap:round; stroke-linejoin:round; stroke-width:4; stroke-opacity:1; fill:none" points="186.274,1423.18 186.274,47.2441 "/>
<polyline clip-path="url(#clip920)" style="stroke:#000000; stroke-linecap:round; stroke-linejoin:round; stroke-width:4; stroke-opacity:1; fill:none" points="186.274,1332.15 205.172,1332.15 "/>
<polyline clip-path="url(#clip920)" style="stroke:#000000; stroke-linecap:round; stroke-linejoin:round; stroke-width:4; stroke-opacity:1; fill:none" points="186.274,1044.47 205.172,1044.47 "/>
<polyline clip-path="url(#clip920)" style="stroke:#000000; stroke-linecap:round; stroke-linejoin:round; stroke-width:4; stroke-opacity:1; fill:none" points="186.274,756.792 205.172,756.792 "/>
<polyline clip-path="url(#clip920)" style="stroke:#000000; stroke-linecap:round; stroke-linejoin:round; stroke-width:4; stroke-opacity:1; fill:none" points="186.274,469.114 205.172,469.114 "/>
<polyline clip-path="url(#clip920)" style="stroke:#000000; stroke-linecap:round; stroke-linejoin:round; stroke-width:4; stroke-opacity:1; fill:none" points="186.274,181.436 205.172,181.436 "/>
<path clip-path="url(#clip920)" d="M63.9319 1317.95 Q60.3208 1317.95 58.4921 1321.51 Q56.6865 1325.05 56.6865 1332.18 Q56.6865 1339.29 58.4921 1342.85 Q60.3208 1346.4 63.9319 1346.4 Q67.5661 1346.4 69.3717 1342.85 Q71.2004 1339.29 71.2004 1332.18 Q71.2004 1325.05 69.3717 1321.51 Q67.5661 1317.95 63.9319 1317.95 M63.9319 1314.24 Q69.742 1314.24 72.7976 1318.85 Q75.8763 1323.43 75.8763 1332.18 Q75.8763 1340.91 72.7976 1345.52 Q69.742 1350.1 63.9319 1350.1 Q58.1217 1350.1 55.043 1345.52 Q51.9875 1340.91 51.9875 1332.18 Q51.9875 1323.43 55.043 1318.85 Q58.1217 1314.24 63.9319 1314.24 Z" fill="#000000" fill-rule="nonzero" fill-opacity="1" /><path clip-path="url(#clip920)" d="M84.0938 1343.55 L88.978 1343.55 L88.978 1349.43 L84.0938 1349.43 L84.0938 1343.55 Z" fill="#000000" fill-rule="nonzero" fill-opacity="1" /><path clip-path="url(#clip920)" d="M103.191 1345.49 L119.51 1345.49 L119.51 1349.43 L97.566 1349.43 L97.566 1345.49 Q100.228 1342.74 104.811 1338.11 Q109.418 1333.46 110.598 1332.11 Q112.844 1329.59 113.723 1327.85 Q114.626 1326.1 114.626 1324.41 Q114.626 1321.65 112.682 1319.91 Q110.76 1318.18 107.658 1318.18 Q105.459 1318.18 103.006 1318.94 Q100.575 1319.71 97.7974 1321.26 L97.7974 1316.54 Q100.621 1315.4 103.075 1314.82 Q105.529 1314.24 107.566 1314.24 Q112.936 1314.24 116.131 1316.93 Q119.325 1319.61 119.325 1324.1 Q119.325 1326.23 118.515 1328.16 Q117.728 1330.05 115.621 1332.65 Q115.043 1333.32 111.941 1336.54 Q108.839 1339.73 103.191 1345.49 Z" fill="#000000" fill-rule="nonzero" fill-opacity="1" /><path clip-path="url(#clip920)" d="M129.371 1314.87 L147.728 1314.87 L147.728 1318.8 L133.654 1318.8 L133.654 1327.28 Q134.672 1326.93 135.691 1326.77 Q136.709 1326.58 137.728 1326.58 Q143.515 1326.58 146.894 1329.75 Q150.274 1332.92 150.274 1338.34 Q150.274 1343.92 146.802 1347.02 Q143.33 1350.1 137.01 1350.1 Q134.834 1350.1 132.566 1349.73 Q130.32 1349.36 127.913 1348.62 L127.913 1343.92 Q129.996 1345.05 132.219 1345.61 Q134.441 1346.16 136.918 1346.16 Q140.922 1346.16 143.26 1344.06 Q145.598 1341.95 145.598 1338.34 Q145.598 1334.73 143.26 1332.62 Q140.922 1330.52 136.918 1330.52 Q135.043 1330.52 133.168 1330.93 Q131.316 1331.35 129.371 1332.23 L129.371 1314.87 Z" fill="#000000" fill-rule="nonzero" fill-opacity="1" /><path clip-path="url(#clip920)" d="M62.9365 1030.27 Q59.3254 1030.27 57.4967 1033.83 Q55.6912 1037.38 55.6912 1044.51 Q55.6912 1051.61 57.4967 1055.18 Q59.3254 1058.72 62.9365 1058.72 Q66.5707 1058.72 68.3763 1055.18 Q70.205 1051.61 70.205 1044.51 Q70.205 1037.38 68.3763 1033.83 Q66.5707 1030.27 62.9365 1030.27 M62.9365 1026.57 Q68.7467 1026.57 71.8022 1031.17 Q74.8809 1035.76 74.8809 1044.51 Q74.8809 1053.23 71.8022 1057.84 Q68.7467 1062.42 62.9365 1062.42 Q57.1264 1062.42 54.0477 1057.84 Q50.9921 1053.23 50.9921 1044.51 Q50.9921 1035.76 54.0477 1031.17 Q57.1264 1026.57 62.9365 1026.57 Z" fill="#000000" fill-rule="nonzero" fill-opacity="1" /><path clip-path="url(#clip920)" d="M83.0984 1055.87 L87.9827 1055.87 L87.9827 1061.75 L83.0984 1061.75 L83.0984 1055.87 Z" fill="#000000" fill-rule="nonzero" fill-opacity="1" /><path clip-path="url(#clip920)" d="M98.2141 1027.19 L116.57 1027.19 L116.57 1031.13 L102.496 1031.13 L102.496 1039.6 Q103.515 1039.25 104.534 1039.09 Q105.552 1038.9 106.571 1038.9 Q112.358 1038.9 115.737 1042.07 Q119.117 1045.25 119.117 1050.66 Q119.117 1056.24 115.645 1059.34 Q112.172 1062.42 105.853 1062.42 Q103.677 1062.42 101.409 1062.05 Q99.1632 1061.68 96.7558 1060.94 L96.7558 1056.24 Q98.8391 1057.38 101.061 1057.93 Q103.284 1058.49 105.76 1058.49 Q109.765 1058.49 112.103 1056.38 Q114.441 1054.27 114.441 1050.66 Q114.441 1047.05 112.103 1044.94 Q109.765 1042.84 105.76 1042.84 Q103.885 1042.84 102.01 1043.26 Q100.159 1043.67 98.2141 1044.55 L98.2141 1027.19 Z" fill="#000000" fill-rule="nonzero" fill-opacity="1" /><path clip-path="url(#clip920)" d="M138.33 1030.27 Q134.719 1030.27 132.89 1033.83 Q131.084 1037.38 131.084 1044.51 Q131.084 1051.61 132.89 1055.18 Q134.719 1058.72 138.33 1058.72 Q141.964 1058.72 143.769 1055.18 Q145.598 1051.61 145.598 1044.51 Q145.598 1037.38 143.769 1033.83 Q141.964 1030.27 138.33 1030.27 M138.33 1026.57 Q144.14 1026.57 147.195 1031.17 Q150.274 1035.76 150.274 1044.51 Q150.274 1053.23 147.195 1057.84 Q144.14 1062.42 138.33 1062.42 Q132.519 1062.42 129.441 1057.84 Q126.385 1053.23 126.385 1044.51 Q126.385 1035.76 129.441 1031.17 Q132.519 1026.57 138.33 1026.57 Z" fill="#000000" fill-rule="nonzero" fill-opacity="1" /><path clip-path="url(#clip920)" d="M63.9319 742.591 Q60.3208 742.591 58.4921 746.156 Q56.6865 749.698 56.6865 756.827 Q56.6865 763.934 58.4921 767.498 Q60.3208 771.04 63.9319 771.04 Q67.5661 771.04 69.3717 767.498 Q71.2004 763.934 71.2004 756.827 Q71.2004 749.698 69.3717 746.156 Q67.5661 742.591 63.9319 742.591 M63.9319 738.887 Q69.742 738.887 72.7976 743.494 Q75.8763 748.077 75.8763 756.827 Q75.8763 765.554 72.7976 770.16 Q69.742 774.744 63.9319 774.744 Q58.1217 774.744 55.043 770.16 Q51.9875 765.554 51.9875 756.827 Q51.9875 748.077 55.043 743.494 Q58.1217 738.887 63.9319 738.887 Z" fill="#000000" fill-rule="nonzero" fill-opacity="1" /><path clip-path="url(#clip920)" d="M84.0938 768.193 L88.978 768.193 L88.978 774.072 L84.0938 774.072 L84.0938 768.193 Z" fill="#000000" fill-rule="nonzero" fill-opacity="1" /><path clip-path="url(#clip920)" d="M97.9826 739.512 L120.205 739.512 L120.205 741.503 L107.658 774.072 L102.774 774.072 L114.58 743.448 L97.9826 743.448 L97.9826 739.512 Z" fill="#000000" fill-rule="nonzero" fill-opacity="1" /><path clip-path="url(#clip920)" d="M129.371 739.512 L147.728 739.512 L147.728 743.448 L133.654 743.448 L133.654 751.92 Q134.672 751.573 135.691 751.411 Q136.709 751.225 137.728 751.225 Q143.515 751.225 146.894 754.397 Q150.274 757.568 150.274 762.985 Q150.274 768.563 146.802 771.665 Q143.33 774.744 137.01 774.744 Q134.834 774.744 132.566 774.373 Q130.32 774.003 127.913 773.262 L127.913 768.563 Q129.996 769.697 132.219 770.253 Q134.441 770.809 136.918 770.809 Q140.922 770.809 143.26 768.702 Q145.598 766.596 145.598 762.985 Q145.598 759.373 143.26 757.267 Q140.922 755.161 136.918 755.161 Q135.043 755.161 133.168 755.577 Q131.316 755.994 129.371 756.873 L129.371 739.512 Z" fill="#000000" fill-rule="nonzero" fill-opacity="1" /><path clip-path="url(#clip920)" d="M53.7467 482.459 L61.3856 482.459 L61.3856 456.094 L53.0754 457.76 L53.0754 453.501 L61.3393 451.834 L66.0152 451.834 L66.0152 482.459 L73.654 482.459 L73.654 486.394 L53.7467 486.394 L53.7467 482.459 Z" fill="#000000" fill-rule="nonzero" fill-opacity="1" /><path clip-path="url(#clip920)" d="M83.0984 480.515 L87.9827 480.515 L87.9827 486.394 L83.0984 486.394 L83.0984 480.515 Z" fill="#000000" fill-rule="nonzero" fill-opacity="1" /><path clip-path="url(#clip920)" d="M108.168 454.913 Q104.557 454.913 102.728 458.478 Q100.922 462.02 100.922 469.149 Q100.922 476.256 102.728 479.82 Q104.557 483.362 108.168 483.362 Q111.802 483.362 113.608 479.82 Q115.436 476.256 115.436 469.149 Q115.436 462.02 113.608 458.478 Q111.802 454.913 108.168 454.913 M108.168 451.209 Q113.978 451.209 117.033 455.816 Q120.112 460.399 120.112 469.149 Q120.112 477.876 117.033 482.482 Q113.978 487.066 108.168 487.066 Q102.358 487.066 99.2789 482.482 Q96.2234 477.876 96.2234 469.149 Q96.2234 460.399 99.2789 455.816 Q102.358 451.209 108.168 451.209 Z" fill="#000000" fill-rule="nonzero" fill-opacity="1" /><path clip-path="url(#clip920)" d="M138.33 454.913 Q134.719 454.913 132.89 458.478 Q131.084 462.02 131.084 469.149 Q131.084 476.256 132.89 479.82 Q134.719 483.362 138.33 483.362 Q141.964 483.362 143.769 479.82 Q145.598 476.256 145.598 469.149 Q145.598 462.02 143.769 458.478 Q141.964 454.913 138.33 454.913 M138.33 451.209 Q144.14 451.209 147.195 455.816 Q150.274 460.399 150.274 469.149 Q150.274 477.876 147.195 482.482 Q144.14 487.066 138.33 487.066 Q132.519 487.066 129.441 482.482 Q126.385 477.876 126.385 469.149 Q126.385 460.399 129.441 455.816 Q132.519 451.209 138.33 451.209 Z" fill="#000000" fill-rule="nonzero" fill-opacity="1" /><path clip-path="url(#clip920)" d="M54.7421 194.781 L62.381 194.781 L62.381 168.416 L54.0708 170.082 L54.0708 165.823 L62.3347 164.156 L67.0106 164.156 L67.0106 194.781 L74.6494 194.781 L74.6494 198.716 L54.7421 198.716 L54.7421 194.781 Z" fill="#000000" fill-rule="nonzero" fill-opacity="1" /><path clip-path="url(#clip920)" d="M84.0938 192.837 L88.978 192.837 L88.978 198.716 L84.0938 198.716 L84.0938 192.837 Z" fill="#000000" fill-rule="nonzero" fill-opacity="1" /><path clip-path="url(#clip920)" d="M103.191 194.781 L119.51 194.781 L119.51 198.716 L97.566 198.716 L97.566 194.781 Q100.228 192.027 104.811 187.397 Q109.418 182.744 110.598 181.402 Q112.844 178.879 113.723 177.142 Q114.626 175.383 114.626 173.693 Q114.626 170.939 112.682 169.203 Q110.76 167.467 107.658 167.467 Q105.459 167.467 103.006 168.23 Q100.575 168.994 97.7974 170.545 L97.7974 165.823 Q100.621 164.689 103.075 164.11 Q105.529 163.531 107.566 163.531 Q112.936 163.531 116.131 166.217 Q119.325 168.902 119.325 173.392 Q119.325 175.522 118.515 177.443 Q117.728 179.342 115.621 181.934 Q115.043 182.605 111.941 185.823 Q108.839 189.017 103.191 194.781 Z" fill="#000000" fill-rule="nonzero" fill-opacity="1" /><path clip-path="url(#clip920)" d="M129.371 164.156 L147.728 164.156 L147.728 168.092 L133.654 168.092 L133.654 176.564 Q134.672 176.217 135.691 176.054 Q136.709 175.869 137.728 175.869 Q143.515 175.869 146.894 179.041 Q150.274 182.212 150.274 187.629 Q150.274 193.207 146.802 196.309 Q143.33 199.388 137.01 199.388 Q134.834 199.388 132.566 199.017 Q130.32 198.647 127.913 197.906 L127.913 193.207 Q129.996 194.341 132.219 194.897 Q134.441 195.453 136.918 195.453 Q140.922 195.453 143.26 193.346 Q145.598 191.24 145.598 187.629 Q145.598 184.017 143.26 181.911 Q140.922 179.804 136.918 179.804 Q135.043 179.804 133.168 180.221 Q131.316 180.638 129.371 181.517 L129.371 164.156 Z" fill="#000000" fill-rule="nonzero" fill-opacity="1" /><polyline clip-path="url(#clip922)" style="stroke:#009af9; stroke-linecap:round; stroke-linejoin:round; stroke-width:4; stroke-opacity:1; fill:none" points="247.59,180.855 474.684,1036.28 701.779,1151.85 928.873,1221.18 1155.97,1270.99 1383.06,1301.38 1610.16,1327.25 1837.25,1349.88 2064.35,1368.71 2291.44,1384.24 "/>
<polyline clip-path="url(#clip922)" style="stroke:#e26f46; stroke-linecap:round; stroke-linejoin:round; stroke-width:4; stroke-opacity:1; fill:none" points="247.59,86.1857 474.684,985.045 701.779,1025.6 928.873,1111.28 1155.97,1121.99 1383.06,1153.48 1610.16,1155.8 1837.25,1150.11 2064.35,1202.23 2291.44,1192.7 "/>
<polyline clip-path="url(#clip922)" style="stroke:#3da44d; stroke-linecap:round; stroke-linejoin:round; stroke-width:4; stroke-opacity:1; fill:none" points="247.59,1014.2 474.684,673.835 701.779,661.772 928.873,628.657 1155.97,623.423 1383.06,615.002 1610.16,613.295 1837.25,611.929 2064.35,592.242 2291.44,593.722 "/>
<path clip-path="url(#clip920)" d="M1841.86 300.469 L2280.54 300.469 L2280.54 93.1086 L1841.86 93.1086  Z" fill="#ffffff" fill-rule="evenodd" fill-opacity="1"/>
<polyline clip-path="url(#clip920)" style="stroke:#000000; stroke-linecap:round; stroke-linejoin:round; stroke-width:4; stroke-opacity:1; fill:none" points="1841.86,300.469 2280.54,300.469 2280.54,93.1086 1841.86,93.1086 1841.86,300.469 "/>
<polyline clip-path="url(#clip920)" style="stroke:#009af9; stroke-linecap:round; stroke-linejoin:round; stroke-width:4; stroke-opacity:1; fill:none" points="1865.93,144.949 2010.36,144.949 "/>
<path clip-path="url(#clip920)" d="M2041.84 128.942 L2041.84 136.303 L2050.61 136.303 L2050.61 139.613 L2041.84 139.613 L2041.84 153.687 Q2041.84 156.858 2042.7 157.761 Q2043.58 158.664 2046.24 158.664 L2050.61 158.664 L2050.61 162.229 L2046.24 162.229 Q2041.31 162.229 2039.43 160.4 Q2037.56 158.548 2037.56 153.687 L2037.56 139.613 L2034.43 139.613 L2034.43 136.303 L2037.56 136.303 L2037.56 128.942 L2041.84 128.942 Z" fill="#000000" fill-rule="nonzero" fill-opacity="1" /><path clip-path="url(#clip920)" d="M2071.24 140.284 Q2070.52 139.868 2069.66 139.682 Q2068.83 139.474 2067.81 139.474 Q2064.2 139.474 2062.26 141.835 Q2060.33 144.173 2060.33 148.571 L2060.33 162.229 L2056.05 162.229 L2056.05 136.303 L2060.33 136.303 L2060.33 140.331 Q2061.68 137.969 2063.83 136.835 Q2065.98 135.678 2069.06 135.678 Q2069.5 135.678 2070.03 135.747 Q2070.57 135.794 2071.21 135.909 L2071.24 140.284 Z" fill="#000000" fill-rule="nonzero" fill-opacity="1" /><path clip-path="url(#clip920)" d="M2087.49 149.196 Q2082.33 149.196 2080.33 150.377 Q2078.34 151.557 2078.34 154.405 Q2078.34 156.673 2079.83 158.016 Q2081.33 159.335 2083.9 159.335 Q2087.44 159.335 2089.57 156.835 Q2091.72 154.312 2091.72 150.145 L2091.72 149.196 L2087.49 149.196 M2095.98 147.437 L2095.98 162.229 L2091.72 162.229 L2091.72 158.293 Q2090.27 160.655 2088.09 161.789 Q2085.91 162.9 2082.77 162.9 Q2078.78 162.9 2076.42 160.678 Q2074.08 158.432 2074.08 154.682 Q2074.08 150.307 2077 148.085 Q2079.94 145.863 2085.75 145.863 L2091.72 145.863 L2091.72 145.446 Q2091.72 142.507 2089.78 140.909 Q2087.86 139.289 2084.36 139.289 Q2082.14 139.289 2080.03 139.821 Q2077.93 140.354 2075.98 141.419 L2075.98 137.483 Q2078.32 136.581 2080.52 136.141 Q2082.72 135.678 2084.8 135.678 Q2090.43 135.678 2093.2 138.594 Q2095.98 141.511 2095.98 147.437 Z" fill="#000000" fill-rule="nonzero" fill-opacity="1" /><path clip-path="url(#clip920)" d="M2104.76 136.303 L2109.01 136.303 L2109.01 162.229 L2104.76 162.229 L2104.76 136.303 M2104.76 126.21 L2109.01 126.21 L2109.01 131.604 L2104.76 131.604 L2104.76 126.21 Z" fill="#000000" fill-rule="nonzero" fill-opacity="1" /><path clip-path="url(#clip920)" d="M2139.48 146.581 L2139.48 162.229 L2135.22 162.229 L2135.22 146.719 Q2135.22 143.039 2133.78 141.21 Q2132.35 139.382 2129.48 139.382 Q2126.03 139.382 2124.04 141.581 Q2122.05 143.78 2122.05 147.576 L2122.05 162.229 L2117.76 162.229 L2117.76 136.303 L2122.05 136.303 L2122.05 140.331 Q2123.58 137.993 2125.64 136.835 Q2127.72 135.678 2130.43 135.678 Q2134.89 135.678 2137.19 138.456 Q2139.48 141.21 2139.48 146.581 Z" fill="#000000" fill-rule="nonzero" fill-opacity="1" /><path clip-path="url(#clip920)" d="M2167.67 170.099 L2167.67 173.409 L2143.04 173.409 L2143.04 170.099 L2167.67 170.099 Z" fill="#000000" fill-rule="nonzero" fill-opacity="1" /><path clip-path="url(#clip920)" d="M2171.68 126.21 L2175.94 126.21 L2175.94 162.229 L2171.68 162.229 L2171.68 126.21 Z" fill="#000000" fill-rule="nonzero" fill-opacity="1" /><path clip-path="url(#clip920)" d="M2194.89 139.289 Q2191.47 139.289 2189.48 141.974 Q2187.49 144.636 2187.49 149.289 Q2187.49 153.942 2189.45 156.627 Q2191.45 159.289 2194.89 159.289 Q2198.3 159.289 2200.29 156.604 Q2202.28 153.918 2202.28 149.289 Q2202.28 144.682 2200.29 141.997 Q2198.3 139.289 2194.89 139.289 M2194.89 135.678 Q2200.45 135.678 2203.62 139.289 Q2206.79 142.9 2206.79 149.289 Q2206.79 155.655 2203.62 159.289 Q2200.45 162.9 2194.89 162.9 Q2189.32 162.9 2186.14 159.289 Q2183 155.655 2183 149.289 Q2183 142.9 2186.14 139.289 Q2189.32 135.678 2194.89 135.678 Z" fill="#000000" fill-rule="nonzero" fill-opacity="1" /><path clip-path="url(#clip920)" d="M2230.38 137.067 L2230.38 141.094 Q2228.57 140.169 2226.63 139.706 Q2224.69 139.243 2222.6 139.243 Q2219.43 139.243 2217.83 140.215 Q2216.26 141.187 2216.26 143.131 Q2216.26 144.613 2217.39 145.469 Q2218.53 146.303 2221.95 147.067 L2223.41 147.391 Q2227.95 148.363 2229.85 150.145 Q2231.77 151.905 2231.77 155.076 Q2231.77 158.687 2228.9 160.793 Q2226.05 162.9 2221.05 162.9 Q2218.97 162.9 2216.7 162.483 Q2214.45 162.09 2211.95 161.28 L2211.95 156.881 Q2214.32 158.108 2216.61 158.733 Q2218.9 159.335 2221.14 159.335 Q2224.15 159.335 2225.77 158.317 Q2227.39 157.275 2227.39 155.4 Q2227.39 153.664 2226.21 152.738 Q2225.06 151.812 2221.1 150.956 L2219.62 150.608 Q2215.66 149.775 2213.9 148.062 Q2212.14 146.326 2212.14 143.317 Q2212.14 139.659 2214.73 137.669 Q2217.32 135.678 2222.09 135.678 Q2224.45 135.678 2226.54 136.025 Q2228.62 136.372 2230.38 137.067 Z" fill="#000000" fill-rule="nonzero" fill-opacity="1" /><path clip-path="url(#clip920)" d="M2255.08 137.067 L2255.08 141.094 Q2253.27 140.169 2251.33 139.706 Q2249.38 139.243 2247.3 139.243 Q2244.13 139.243 2242.53 140.215 Q2240.96 141.187 2240.96 143.131 Q2240.96 144.613 2242.09 145.469 Q2243.23 146.303 2246.65 147.067 L2248.11 147.391 Q2252.65 148.363 2254.55 150.145 Q2256.47 151.905 2256.47 155.076 Q2256.47 158.687 2253.6 160.793 Q2250.75 162.9 2245.75 162.9 Q2243.67 162.9 2241.4 162.483 Q2239.15 162.09 2236.65 161.28 L2236.65 156.881 Q2239.01 158.108 2241.31 158.733 Q2243.6 159.335 2245.84 159.335 Q2248.85 159.335 2250.47 158.317 Q2252.09 157.275 2252.09 155.4 Q2252.09 153.664 2250.91 152.738 Q2249.75 151.812 2245.8 150.956 L2244.32 150.608 Q2240.36 149.775 2238.6 148.062 Q2236.84 146.326 2236.84 143.317 Q2236.84 139.659 2239.43 137.669 Q2242.02 135.678 2246.79 135.678 Q2249.15 135.678 2251.24 136.025 Q2253.32 136.372 2255.08 137.067 Z" fill="#000000" fill-rule="nonzero" fill-opacity="1" /><polyline clip-path="url(#clip920)" style="stroke:#e26f46; stroke-linecap:round; stroke-linejoin:round; stroke-width:4; stroke-opacity:1; fill:none" points="1865.93,196.789 2010.36,196.789 "/>
<path clip-path="url(#clip920)" d="M2034.43 188.143 L2038.95 188.143 L2047.05 209.902 L2055.15 188.143 L2059.66 188.143 L2049.94 214.069 L2044.15 214.069 L2034.43 188.143 Z" fill="#000000" fill-rule="nonzero" fill-opacity="1" /><path clip-path="url(#clip920)" d="M2077.33 201.036 Q2072.16 201.036 2070.17 202.217 Q2068.18 203.397 2068.18 206.245 Q2068.18 208.513 2069.66 209.856 Q2071.17 211.175 2073.74 211.175 Q2077.28 211.175 2079.41 208.675 Q2081.56 206.152 2081.56 201.985 L2081.56 201.036 L2077.33 201.036 M2085.82 199.277 L2085.82 214.069 L2081.56 214.069 L2081.56 210.133 Q2080.1 212.495 2077.93 213.629 Q2075.75 214.74 2072.6 214.74 Q2068.62 214.74 2066.26 212.518 Q2063.92 210.272 2063.92 206.522 Q2063.92 202.147 2066.84 199.925 Q2069.78 197.703 2075.59 197.703 L2081.56 197.703 L2081.56 197.286 Q2081.56 194.347 2079.62 192.749 Q2077.7 191.129 2074.2 191.129 Q2071.98 191.129 2069.87 191.661 Q2067.77 192.194 2065.82 193.259 L2065.82 189.323 Q2068.16 188.421 2070.36 187.981 Q2072.56 187.518 2074.64 187.518 Q2080.27 187.518 2083.04 190.434 Q2085.82 193.351 2085.82 199.277 Z" fill="#000000" fill-rule="nonzero" fill-opacity="1" /><path clip-path="url(#clip920)" d="M2094.59 178.05 L2098.85 178.05 L2098.85 214.069 L2094.59 214.069 L2094.59 178.05 Z" fill="#000000" fill-rule="nonzero" fill-opacity="1" /><path clip-path="url(#clip920)" d="M2127.46 221.939 L2127.46 225.249 L2102.83 225.249 L2102.83 221.939 L2127.46 221.939 Z" fill="#000000" fill-rule="nonzero" fill-opacity="1" /><path clip-path="url(#clip920)" d="M2131.47 178.05 L2135.73 178.05 L2135.73 214.069 L2131.47 214.069 L2131.47 178.05 Z" fill="#000000" fill-rule="nonzero" fill-opacity="1" /><path clip-path="url(#clip920)" d="M2154.69 191.129 Q2151.26 191.129 2149.27 193.814 Q2147.28 196.476 2147.28 201.129 Q2147.28 205.782 2149.25 208.467 Q2151.24 211.129 2154.69 211.129 Q2158.09 211.129 2160.08 208.444 Q2162.07 205.758 2162.07 201.129 Q2162.07 196.522 2160.08 193.837 Q2158.09 191.129 2154.69 191.129 M2154.69 187.518 Q2160.24 187.518 2163.41 191.129 Q2166.58 194.74 2166.58 201.129 Q2166.58 207.495 2163.41 211.129 Q2160.24 214.74 2154.69 214.74 Q2149.11 214.74 2145.94 211.129 Q2142.79 207.495 2142.79 201.129 Q2142.79 194.74 2145.94 191.129 Q2149.11 187.518 2154.69 187.518 Z" fill="#000000" fill-rule="nonzero" fill-opacity="1" /><path clip-path="url(#clip920)" d="M2190.17 188.907 L2190.17 192.934 Q2188.37 192.009 2186.42 191.546 Q2184.48 191.083 2182.39 191.083 Q2179.22 191.083 2177.63 192.055 Q2176.05 193.027 2176.05 194.971 Q2176.05 196.453 2177.19 197.309 Q2178.32 198.143 2181.75 198.907 L2183.2 199.231 Q2187.74 200.203 2189.64 201.985 Q2191.56 203.745 2191.56 206.916 Q2191.56 210.527 2188.69 212.633 Q2185.84 214.74 2180.84 214.74 Q2178.76 214.74 2176.49 214.323 Q2174.25 213.93 2171.75 213.12 L2171.75 208.721 Q2174.11 209.948 2176.4 210.573 Q2178.69 211.175 2180.94 211.175 Q2183.95 211.175 2185.57 210.157 Q2187.19 209.115 2187.19 207.24 Q2187.19 205.504 2186.01 204.578 Q2184.85 203.652 2180.89 202.796 L2179.41 202.448 Q2175.45 201.615 2173.69 199.902 Q2171.93 198.166 2171.93 195.157 Q2171.93 191.499 2174.52 189.509 Q2177.12 187.518 2181.88 187.518 Q2184.25 187.518 2186.33 187.865 Q2188.41 188.212 2190.17 188.907 Z" fill="#000000" fill-rule="nonzero" fill-opacity="1" /><path clip-path="url(#clip920)" d="M2214.87 188.907 L2214.87 192.934 Q2213.07 192.009 2211.12 191.546 Q2209.18 191.083 2207.09 191.083 Q2203.92 191.083 2202.32 192.055 Q2200.75 193.027 2200.75 194.971 Q2200.75 196.453 2201.88 197.309 Q2203.02 198.143 2206.44 198.907 L2207.9 199.231 Q2212.44 200.203 2214.34 201.985 Q2216.26 203.745 2216.26 206.916 Q2216.26 210.527 2213.39 212.633 Q2210.54 214.74 2205.54 214.74 Q2203.46 214.74 2201.19 214.323 Q2198.94 213.93 2196.44 213.12 L2196.44 208.721 Q2198.81 209.948 2201.1 210.573 Q2203.39 211.175 2205.63 211.175 Q2208.64 211.175 2210.26 210.157 Q2211.88 209.115 2211.88 207.24 Q2211.88 205.504 2210.7 204.578 Q2209.55 203.652 2205.59 202.796 L2204.11 202.448 Q2200.15 201.615 2198.39 199.902 Q2196.63 198.166 2196.63 195.157 Q2196.63 191.499 2199.22 189.509 Q2201.82 187.518 2206.58 187.518 Q2208.94 187.518 2211.03 187.865 Q2213.11 188.212 2214.87 188.907 Z" fill="#000000" fill-rule="nonzero" fill-opacity="1" /><polyline clip-path="url(#clip920)" style="stroke:#3da44d; stroke-linecap:round; stroke-linejoin:round; stroke-width:4; stroke-opacity:1; fill:none" points="1865.93,248.629 2010.36,248.629 "/>
<path clip-path="url(#clip920)" d="M2034.43 239.983 L2038.95 239.983 L2047.05 261.742 L2055.15 239.983 L2059.66 239.983 L2049.94 265.909 L2044.15 265.909 L2034.43 239.983 Z" fill="#000000" fill-rule="nonzero" fill-opacity="1" /><path clip-path="url(#clip920)" d="M2077.33 252.876 Q2072.16 252.876 2070.17 254.057 Q2068.18 255.237 2068.18 258.085 Q2068.18 260.353 2069.66 261.696 Q2071.17 263.015 2073.74 263.015 Q2077.28 263.015 2079.41 260.515 Q2081.56 257.992 2081.56 253.825 L2081.56 252.876 L2077.33 252.876 M2085.82 251.117 L2085.82 265.909 L2081.56 265.909 L2081.56 261.973 Q2080.1 264.335 2077.93 265.469 Q2075.75 266.58 2072.6 266.58 Q2068.62 266.58 2066.26 264.358 Q2063.92 262.112 2063.92 258.362 Q2063.92 253.987 2066.84 251.765 Q2069.78 249.543 2075.59 249.543 L2081.56 249.543 L2081.56 249.126 Q2081.56 246.187 2079.62 244.589 Q2077.7 242.969 2074.2 242.969 Q2071.98 242.969 2069.87 243.501 Q2067.77 244.034 2065.82 245.099 L2065.82 241.163 Q2068.16 240.261 2070.36 239.821 Q2072.56 239.358 2074.64 239.358 Q2080.27 239.358 2083.04 242.274 Q2085.82 245.191 2085.82 251.117 Z" fill="#000000" fill-rule="nonzero" fill-opacity="1" /><path clip-path="url(#clip920)" d="M2094.59 229.89 L2098.85 229.89 L2098.85 265.909 L2094.59 265.909 L2094.59 229.89 Z" fill="#000000" fill-rule="nonzero" fill-opacity="1" /><path clip-path="url(#clip920)" d="M2127.46 273.779 L2127.46 277.089 L2102.83 277.089 L2102.83 273.779 L2127.46 273.779 Z" fill="#000000" fill-rule="nonzero" fill-opacity="1" /><path clip-path="url(#clip920)" d="M2143.25 252.876 Q2138.09 252.876 2136.1 254.057 Q2134.11 255.237 2134.11 258.085 Q2134.11 260.353 2135.59 261.696 Q2137.09 263.015 2139.66 263.015 Q2143.2 263.015 2145.33 260.515 Q2147.49 257.992 2147.49 253.825 L2147.49 252.876 L2143.25 252.876 M2151.75 251.117 L2151.75 265.909 L2147.49 265.909 L2147.49 261.973 Q2146.03 264.335 2143.85 265.469 Q2141.68 266.58 2138.53 266.58 Q2134.55 266.58 2132.19 264.358 Q2129.85 262.112 2129.85 258.362 Q2129.85 253.987 2132.76 251.765 Q2135.7 249.543 2141.51 249.543 L2147.49 249.543 L2147.49 249.126 Q2147.49 246.187 2145.54 244.589 Q2143.62 242.969 2140.13 242.969 Q2137.9 242.969 2135.8 243.501 Q2133.69 244.034 2131.75 245.099 L2131.75 241.163 Q2134.08 240.261 2136.28 239.821 Q2138.48 239.358 2140.57 239.358 Q2146.19 239.358 2148.97 242.274 Q2151.75 245.191 2151.75 251.117 Z" fill="#000000" fill-rule="nonzero" fill-opacity="1" /><path clip-path="url(#clip920)" d="M2179.18 240.978 L2179.18 244.96 Q2177.37 243.964 2175.54 243.478 Q2173.74 242.969 2171.88 242.969 Q2167.74 242.969 2165.45 245.608 Q2163.16 248.224 2163.16 252.969 Q2163.16 257.714 2165.45 260.353 Q2167.74 262.969 2171.88 262.969 Q2173.74 262.969 2175.54 262.483 Q2177.37 261.973 2179.18 260.978 L2179.18 264.913 Q2177.39 265.747 2175.47 266.163 Q2173.57 266.58 2171.42 266.58 Q2165.57 266.58 2162.12 262.899 Q2158.67 259.219 2158.67 252.969 Q2158.67 246.626 2162.14 242.992 Q2165.63 239.358 2171.7 239.358 Q2173.67 239.358 2175.54 239.775 Q2177.42 240.168 2179.18 240.978 Z" fill="#000000" fill-rule="nonzero" fill-opacity="1" /><path clip-path="url(#clip920)" d="M2205.24 240.978 L2205.24 244.96 Q2203.44 243.964 2201.61 243.478 Q2199.8 242.969 2197.95 242.969 Q2193.81 242.969 2191.51 245.608 Q2189.22 248.224 2189.22 252.969 Q2189.22 257.714 2191.51 260.353 Q2193.81 262.969 2197.95 262.969 Q2199.8 262.969 2201.61 262.483 Q2203.44 261.973 2205.24 260.978 L2205.24 264.913 Q2203.46 265.747 2201.54 266.163 Q2199.64 266.58 2197.49 266.58 Q2191.63 266.58 2188.18 262.899 Q2184.73 259.219 2184.73 252.969 Q2184.73 246.626 2188.2 242.992 Q2191.7 239.358 2197.76 239.358 Q2199.73 239.358 2201.61 239.775 Q2203.48 240.168 2205.24 240.978 Z" fill="#000000" fill-rule="nonzero" fill-opacity="1" /></svg>
