<?xml version="1.0" encoding="utf-8"?>
<svg xmlns="http://www.w3.org/2000/svg" xmlns:xlink="http://www.w3.org/1999/xlink" width="600" height="400" viewBox="0 0 2400 1600">
<defs>
  <clipPath id="clip980">
    <rect x="0" y="0" width="2400" height="1600"/>
  </clipPath>
</defs>
<path clip-path="url(#clip980)" d="M0 1600 L2400 1600 L2400 0 L0 0  Z" fill="#ffffff" fill-rule="evenodd" fill-opacity="1"/>
<defs>
  <clipPath id="clip981">
    <rect x="480" y="0" width="1681" height="1600"/>
  </clipPath>
</defs>
<path clip-path="url(#clip980)" d="M188.292 1423.18 L2352.76 1423.18 L2352.76 47.2441 L188.292 47.2441  Z" fill="#ffffff" fill-rule="evenodd" fill-opacity="1"/>
<defs>
  <clipPath id="clip982">
    <rect x="188" y="47" width="2165" height="1377"/>
  </clipPath>
</defs>
<polyline clip-path="url(#clip982)" style="stroke:#000000; stroke-linecap:round; stroke-linejoin:round; stroke-width:2; stroke-opacity:0.1; fill:none" points="476.434,1423.18 476.434,47.2441 "/>
<polyline clip-path="url(#clip982)" style="stroke:#000000; stroke-linecap:round; stroke-linejoin:round; stroke-width:2; stroke-opacity:0.1; fill:none" points="930.2,1423.18 930.2,47.2441 "/>
<polyline clip-path="url(#clip982)" style="stroke:#000000; stroke-linecap:round; stroke-linejoin:round; stroke-width:2; stroke-opacity:0.1; fill:none" points="1383.97,1423.18 1383.97,47.2441 "/>
<polyline clip-path="url(#clip982)" style="stroke:#000000; stroke-linecap:round; stroke-linejoin:round; stroke-width:2; stroke-opacity:0.1; fill:none" points="1837.73,1423.18 1837.73,47.2441 "/>
<polyline clip-path="url(#clip982)" style="stroke:#000000; stroke-linecap:round; stroke-linejoin:round; stroke-width:2; stroke-opacity:0.1; fill:none" points="2291.5,1423.18 2291.5,47.2441 "/>
<polyline clip-path="url(#clip982)" style="stroke:#000000; stroke-linecap:round; stroke-linejoin:round; stroke-width:2; stroke-opacity:0.1; fill:none" points="188.292,1010.37 2352.76,1010.37 "/>
<polyline clip-path="url(#clip982)" style="stroke:#000000; stroke-linecap:round; stroke-linejoin:round; stroke-width:2; stroke-opacity:0.1; fill:none" points="188.292,130.925 2352.76,130.925 "/>
<polyline clip-path="url(#clip980)" style="stroke:#000000; stroke-linecap:round; stroke-linejoin:round; stroke-width:4; stroke-opacity:1; fill:none" points="188.292,1423.18 2352.76,1423.18 "/>
<polyline clip-path="url(#clip980)" style="stroke:#000000; stroke-linecap:round; stroke-linejoin:round; stroke-width:4; stroke-opacity:1; fill:none" points="476.434,1423.18 476.434,1404.28 "/>
<polyline clip-path="url(#clip980)" style="stroke:#000000; stroke-linecap:round; stroke-linejoin:round; stroke-width:4; stroke-opacity:1; fill:none" points="930.2,1423.18 930.2,1404.28 "/>
<polyline clip-path="url(#clip980)" style="stroke:#000000; stroke-linecap:round; stroke-linejoin:round; stroke-width:4; stroke-opacity:1; fill:none" points="1383.97,1423.18 1383.97,1404.28 "/>
<polyline clip-path="url(#clip980)" style="stroke:#000000; stroke-linecap:round; stroke-linejoin:round; stroke-width:4; stroke-opacity:1; fill:none" points="1837.73,1423.18 1837.73,1404.28 "/>
<polyline clip-path="url(#clip980)" style="stroke:#000000; stroke-linecap:round; stroke-linejoin:round; stroke-width:4; stroke-opacity:1; fill:none" points="2291.5,1423.18 2291.5,1404.28 "/>
<path clip-path="url(#clip980)" d="M471.086 1481.64 L487.406 1481.64 L487.406 1485.58 L465.461 1485.58 L465.461 1481.64 Q468.123 1478.89 472.707 1474.26 Q477.313 1469.61 478.494 1468.27 Q480.739 1465.74 481.619 1464.01 Q482.522 1462.25 482.522 1460.56 Q482.522 1457.8 480.577 1456.07 Q478.656 1454.33 475.554 1454.33 Q473.355 1454.33 470.901 1455.09 Q468.471 1455.86 465.693 1457.41 L465.693 1452.69 Q468.517 1451.55 470.971 1450.97 Q473.424 1450.39 475.461 1450.39 Q480.832 1450.39 484.026 1453.08 Q487.221 1455.77 487.221 1460.26 Q487.221 1462.39 486.41 1464.31 Q485.623 1466.2 483.517 1468.8 Q482.938 1469.47 479.836 1472.69 Q476.735 1475.88 471.086 1481.64 Z" fill="#000000" fill-rule="nonzero" fill-opacity="1" /><path clip-path="url(#clip980)" d="M933.209 1455.09 L921.403 1473.54 L933.209 1473.54 L933.209 1455.09 M931.982 1451.02 L937.862 1451.02 L937.862 1473.54 L942.792 1473.54 L942.792 1477.43 L937.862 1477.43 L937.862 1485.58 L933.209 1485.58 L933.209 1477.43 L917.607 1477.43 L917.607 1472.92 L931.982 1451.02 Z" fill="#000000" fill-rule="nonzero" fill-opacity="1" /><path clip-path="url(#clip980)" d="M1384.37 1466.44 Q1381.22 1466.44 1379.37 1468.59 Q1377.54 1470.74 1377.54 1474.49 Q1377.54 1478.22 1379.37 1480.39 Q1381.22 1482.55 1384.37 1482.55 Q1387.52 1482.55 1389.35 1480.39 Q1391.2 1478.22 1391.2 1474.49 Q1391.2 1470.74 1389.35 1468.59 Q1387.52 1466.44 1384.37 1466.44 M1393.65 1451.78 L1393.65 1456.04 Q1391.89 1455.21 1390.09 1454.77 Q1388.31 1454.33 1386.55 1454.33 Q1381.92 1454.33 1379.46 1457.45 Q1377.03 1460.58 1376.69 1466.9 Q1378.05 1464.89 1380.11 1463.82 Q1382.17 1462.73 1384.65 1462.73 Q1389.86 1462.73 1392.87 1465.9 Q1395.9 1469.05 1395.9 1474.49 Q1395.9 1479.82 1392.75 1483.03 Q1389.6 1486.25 1384.37 1486.25 Q1378.38 1486.25 1375.2 1481.67 Q1372.03 1477.06 1372.03 1468.33 Q1372.03 1460.14 1375.92 1455.28 Q1379.81 1450.39 1386.36 1450.39 Q1388.12 1450.39 1389.9 1450.74 Q1391.71 1451.09 1393.65 1451.78 Z" fill="#000000" fill-rule="nonzero" fill-opacity="1" /><path clip-path="url(#clip980)" d="M1837.73 1469.17 Q1834.4 1469.17 1832.48 1470.95 Q1830.58 1472.73 1830.58 1475.86 Q1830.58 1478.98 1832.48 1480.77 Q1834.4 1482.55 1837.73 1482.55 Q1841.06 1482.55 1842.99 1480.77 Q1844.91 1478.96 1844.91 1475.86 Q1844.91 1472.73 1842.99 1470.95 Q1841.09 1469.17 1837.73 1469.17 M1833.06 1467.18 Q1830.05 1466.44 1828.36 1464.38 Q1826.69 1462.32 1826.69 1459.35 Q1826.69 1455.21 1829.63 1452.8 Q1832.59 1450.39 1837.73 1450.39 Q1842.89 1450.39 1845.83 1452.8 Q1848.77 1455.21 1848.77 1459.35 Q1848.77 1462.32 1847.08 1464.38 Q1845.42 1466.44 1842.43 1467.18 Q1845.81 1467.96 1847.69 1470.26 Q1849.58 1472.55 1849.58 1475.86 Q1849.58 1480.88 1846.5 1483.57 Q1843.45 1486.25 1837.73 1486.25 Q1832.01 1486.25 1828.94 1483.57 Q1825.88 1480.88 1825.88 1475.86 Q1825.88 1472.55 1827.78 1470.26 Q1829.68 1467.96 1833.06 1467.18 M1831.34 1459.79 Q1831.34 1462.48 1833.01 1463.98 Q1834.7 1465.49 1837.73 1465.49 Q1840.74 1465.49 1842.43 1463.98 Q1844.14 1462.48 1844.14 1459.79 Q1844.14 1457.11 1842.43 1455.6 Q1840.74 1454.1 1837.73 1454.1 Q1834.7 1454.1 1833.01 1455.6 Q1831.34 1457.11 1831.34 1459.79 Z" fill="#000000" fill-rule="nonzero" fill-opacity="1" /><path clip-path="url(#clip980)" d="M2266.19 1481.64 L2273.82 1481.64 L2273.82 1455.28 L2265.51 1456.95 L2265.51 1452.69 L2273.78 1451.02 L2278.45 1451.02 L2278.45 1481.64 L2286.09 1481.64 L2286.09 1485.58 L2266.19 1485.58 L2266.19 1481.64 Z" fill="#000000" fill-rule="nonzero" fill-opacity="1" /><path clip-path="url(#clip980)" d="M2305.54 1454.1 Q2301.93 1454.1 2300.1 1457.66 Q2298.29 1461.2 2298.29 1468.33 Q2298.29 1475.44 2300.1 1479.01 Q2301.93 1482.55 2305.54 1482.55 Q2309.17 1482.55 2310.98 1479.01 Q2312.81 1475.44 2312.81 1468.33 Q2312.81 1461.2 2310.98 1457.66 Q2309.17 1454.1 2305.54 1454.1 M2305.54 1450.39 Q2311.35 1450.39 2314.4 1455 Q2317.48 1459.58 2317.48 1468.33 Q2317.48 1477.06 2314.4 1481.67 Q2311.35 1486.25 2305.54 1486.25 Q2299.73 1486.25 2296.65 1481.67 Q2293.59 1477.06 2293.59 1468.33 Q2293.59 1459.58 2296.65 1455 Q2299.73 1450.39 2305.54 1450.39 Z" fill="#000000" fill-rule="nonzero" fill-opacity="1" /><path clip-path="url(#clip980)" d="M1190.71 1548.76 L1190.71 1551.62 L1163.79 1551.62 Q1164.17 1557.67 1167.42 1560.85 Q1170.69 1564 1176.52 1564 Q1179.89 1564 1183.04 1563.17 Q1186.23 1562.35 1189.35 1560.69 L1189.35 1566.23 Q1186.19 1567.57 1182.88 1568.27 Q1179.57 1568.97 1176.17 1568.97 Q1167.64 1568.97 1162.64 1564 Q1157.68 1559.04 1157.68 1550.57 Q1157.68 1541.82 1162.39 1536.69 Q1167.13 1531.54 1175.15 1531.54 Q1182.34 1531.54 1186.51 1536.18 Q1190.71 1540.8 1190.71 1548.76 M1184.86 1547.04 Q1184.79 1542.23 1182.15 1539.37 Q1179.54 1536.5 1175.21 1536.5 Q1170.31 1536.5 1167.35 1539.27 Q1164.42 1542.04 1163.98 1547.07 L1184.86 1547.04 Z" fill="#000000" fill-rule="nonzero" fill-opacity="1" /><path clip-path="url(#clip980)" d="M1205.99 1562.7 L1205.99 1581.6 L1200.1 1581.6 L1200.1 1532.4 L1205.99 1532.4 L1205.99 1537.81 Q1207.84 1534.62 1210.64 1533.1 Q1213.47 1531.54 1217.39 1531.54 Q1223.88 1531.54 1227.92 1536.69 Q1232 1541.85 1232 1550.25 Q1232 1558.65 1227.92 1563.81 Q1223.88 1568.97 1217.39 1568.97 Q1213.47 1568.97 1210.64 1567.44 Q1207.84 1565.88 1205.99 1562.7 M1225.92 1550.25 Q1225.92 1543.79 1223.24 1540.13 Q1220.6 1536.44 1215.95 1536.44 Q1211.31 1536.44 1208.63 1540.13 Q1205.99 1543.79 1205.99 1550.25 Q1205.99 1556.71 1208.63 1560.4 Q1211.31 1564.07 1215.95 1564.07 Q1220.6 1564.07 1223.24 1560.4 Q1225.92 1556.71 1225.92 1550.25 Z" fill="#000000" fill-rule="nonzero" fill-opacity="1" /><path clip-path="url(#clip980)" d="M1255.52 1536.5 Q1250.81 1536.5 1248.07 1540.19 Q1245.33 1543.85 1245.33 1550.25 Q1245.33 1556.65 1248.04 1560.34 Q1250.77 1564 1255.52 1564 Q1260.2 1564 1262.93 1560.31 Q1265.67 1556.62 1265.67 1550.25 Q1265.67 1543.92 1262.93 1540.23 Q1260.2 1536.5 1255.52 1536.5 M1255.52 1531.54 Q1263.16 1531.54 1267.52 1536.5 Q1271.88 1541.47 1271.88 1550.25 Q1271.88 1559 1267.52 1564 Q1263.16 1568.97 1255.52 1568.97 Q1247.85 1568.97 1243.49 1564 Q1239.16 1559 1239.16 1550.25 Q1239.16 1541.47 1243.49 1536.5 Q1247.85 1531.54 1255.52 1531.54 Z" fill="#000000" fill-rule="nonzero" fill-opacity="1" /><path clip-path="url(#clip980)" d="M1307.24 1533.76 L1307.24 1539.24 Q1304.76 1537.87 1302.24 1537.2 Q1299.76 1536.5 1297.21 1536.5 Q1291.51 1536.5 1288.36 1540.13 Q1285.21 1543.73 1285.21 1550.25 Q1285.21 1556.78 1288.36 1560.4 Q1291.51 1564 1297.21 1564 Q1299.76 1564 1302.24 1563.33 Q1304.76 1562.63 1307.24 1561.26 L1307.24 1566.68 Q1304.79 1567.82 1302.15 1568.39 Q1299.54 1568.97 1296.58 1568.97 Q1288.52 1568.97 1283.78 1563.91 Q1279.04 1558.85 1279.04 1550.25 Q1279.04 1541.53 1283.81 1536.53 Q1288.62 1531.54 1296.96 1531.54 Q1299.66 1531.54 1302.24 1532.11 Q1304.82 1532.65 1307.24 1533.76 Z" fill="#000000" fill-rule="nonzero" fill-opacity="1" /><path clip-path="url(#clip980)" d="M1347.06 1546.53 L1347.06 1568.04 L1341.2 1568.04 L1341.2 1546.72 Q1341.2 1541.66 1339.23 1539.14 Q1337.25 1536.63 1333.31 1536.63 Q1328.56 1536.63 1325.83 1539.65 Q1323.09 1542.68 1323.09 1547.9 L1323.09 1568.04 L1317.2 1568.04 L1317.2 1518.52 L1323.09 1518.52 L1323.09 1537.93 Q1325.19 1534.72 1328.02 1533.13 Q1330.89 1531.54 1334.61 1531.54 Q1340.75 1531.54 1343.9 1535.36 Q1347.06 1539.14 1347.06 1546.53 Z" fill="#000000" fill-rule="nonzero" fill-opacity="1" /><path clip-path="url(#clip980)" d="M1381.46 1533.45 L1381.46 1538.98 Q1378.98 1537.71 1376.31 1537.07 Q1373.63 1536.44 1370.77 1536.44 Q1366.41 1536.44 1364.21 1537.77 Q1362.05 1539.11 1362.05 1541.79 Q1362.05 1543.82 1363.61 1545 Q1365.17 1546.15 1369.88 1547.2 L1371.88 1547.64 Q1378.12 1548.98 1380.73 1551.43 Q1383.37 1553.85 1383.37 1558.21 Q1383.37 1563.17 1379.43 1566.07 Q1375.51 1568.97 1368.64 1568.97 Q1365.77 1568.97 1362.65 1568.39 Q1359.56 1567.85 1356.13 1566.74 L1356.13 1560.69 Q1359.37 1562.38 1362.52 1563.24 Q1365.68 1564.07 1368.76 1564.07 Q1372.9 1564.07 1375.13 1562.66 Q1377.36 1561.23 1377.36 1558.65 Q1377.36 1556.27 1375.73 1554.99 Q1374.14 1553.72 1368.7 1552.54 L1366.66 1552.07 Q1361.22 1550.92 1358.8 1548.56 Q1356.38 1546.18 1356.38 1542.04 Q1356.38 1537.01 1359.95 1534.27 Q1363.51 1531.54 1370.07 1531.54 Q1373.31 1531.54 1376.18 1532.01 Q1379.04 1532.49 1381.46 1533.45 Z" fill="#000000" fill-rule="nonzero" fill-opacity="1" /><polyline clip-path="url(#clip980)" style="stroke:#000000; stroke-linecap:round; stroke-linejoin:round; stroke-width:4; stroke-opacity:1; fill:none" points="188.292,1423.18 188.292,47.2441 "/>
<polyline clip-path="url(#clip980)" style="stroke:#000000; stroke-linecap:round; stroke-linejoin:round; stroke-width:4; stroke-opacity:1; fill:none" points="188.292,1010.37 207.19,1010.37 "/>
<polyline clip-path="url(#clip980)" style="stroke:#000000; stroke-linecap:round; stroke-linejoin:round; stroke-width:4; stroke-opacity:1; fill:none" points="188.292,130.925 207.19,130.925 "/>
<path clip-path="url(#clip980)" d="M51.6634 1030.16 L59.3023 1030.16 L59.3023 1003.8 L50.9921 1005.46 L50.9921 1001.2 L59.256 999.536 L63.9319 999.536 L63.9319 1030.16 L71.5707 1030.16 L71.5707 1034.1 L51.6634 1034.1 L51.6634 1030.16 Z" fill="#000000" fill-rule="nonzero" fill-opacity="1" /><path clip-path="url(#clip980)" d="M91.0151 1002.62 Q87.404 1002.62 85.5753 1006.18 Q83.7697 1009.72 83.7697 1016.85 Q83.7697 1023.96 85.5753 1027.52 Q87.404 1031.06 91.0151 1031.06 Q94.6493 1031.06 96.4548 1027.52 Q98.2835 1023.96 98.2835 1016.85 Q98.2835 1009.72 96.4548 1006.18 Q94.6493 1002.62 91.0151 1002.62 M91.0151 998.911 Q96.8252 998.911 99.8808 1003.52 Q102.959 1008.1 102.959 1016.85 Q102.959 1025.58 99.8808 1030.18 Q96.8252 1034.77 91.0151 1034.77 Q85.2049 1034.77 82.1262 1030.18 Q79.0707 1025.58 79.0707 1016.85 Q79.0707 1008.1 82.1262 1003.52 Q85.2049 998.911 91.0151 998.911 Z" fill="#000000" fill-rule="nonzero" fill-opacity="1" /><path clip-path="url(#clip980)" d="M102.959 993.013 L127.071 993.013 L127.071 996.21 L102.959 996.21 L102.959 993.013 Z" fill="#000000" fill-rule="nonzero" fill-opacity="1" /><path clip-path="url(#clip980)" d="M135.309 978.606 L150.223 978.606 L150.223 981.803 L138.788 981.803 L138.788 988.687 Q139.616 988.405 140.443 988.273 Q141.271 988.123 142.098 988.123 Q146.8 988.123 149.546 990.699 Q152.292 993.276 152.292 997.677 Q152.292 1002.21 149.471 1004.73 Q146.65 1007.23 141.515 1007.23 Q139.747 1007.23 137.904 1006.93 Q136.08 1006.63 134.124 1006.03 L134.124 1002.21 Q135.817 1003.13 137.622 1003.58 Q139.428 1004.03 141.44 1004.03 Q144.694 1004.03 146.593 1002.32 Q148.493 1000.61 148.493 997.677 Q148.493 994.743 146.593 993.032 Q144.694 991.32 141.44 991.32 Q139.917 991.32 138.393 991.659 Q136.889 991.997 135.309 992.712 L135.309 978.606 Z" fill="#000000" fill-rule="nonzero" fill-opacity="1" /><path clip-path="url(#clip980)" d="M81.5866 150.718 L89.2254 150.718 L89.2254 124.352 L80.9153 126.019 L80.9153 121.76 L89.1791 120.093 L93.855 120.093 L93.855 150.718 L101.494 150.718 L101.494 154.653 L81.5866 154.653 L81.5866 150.718 Z" fill="#000000" fill-rule="nonzero" fill-opacity="1" /><path clip-path="url(#clip980)" d="M120.938 123.172 Q117.327 123.172 115.498 126.736 Q113.693 130.278 113.693 137.408 Q113.693 144.514 115.498 148.079 Q117.327 151.621 120.938 151.621 Q124.572 151.621 126.378 148.079 Q128.207 144.514 128.207 137.408 Q128.207 130.278 126.378 126.736 Q124.572 123.172 120.938 123.172 M120.938 119.468 Q126.748 119.468 129.804 124.074 Q132.883 128.658 132.883 137.408 Q132.883 146.134 129.804 150.741 Q126.748 155.324 120.938 155.324 Q115.128 155.324 112.049 150.741 Q108.994 146.134 108.994 137.408 Q108.994 128.658 112.049 124.074 Q115.128 119.468 120.938 119.468 Z" fill="#000000" fill-rule="nonzero" fill-opacity="1" /><path clip-path="url(#clip980)" d="M142.587 101.664 Q139.653 101.664 138.168 104.56 Q136.701 107.438 136.701 113.231 Q136.701 119.005 138.168 121.901 Q139.653 124.779 142.587 124.779 Q145.54 124.779 147.007 121.901 Q148.493 119.005 148.493 113.231 Q148.493 107.438 147.007 104.56 Q145.54 101.664 142.587 101.664 M142.587 98.6547 Q147.308 98.6547 149.791 102.397 Q152.292 106.121 152.292 113.231 Q152.292 120.321 149.791 124.064 Q147.308 127.788 142.587 127.788 Q137.867 127.788 135.365 124.064 Q132.883 120.321 132.883 113.231 Q132.883 106.121 135.365 102.397 Q137.867 98.6547 142.587 98.6547 Z" fill="#000000" fill-rule="nonzero" fill-opacity="1" /><polyline clip-path="url(#clip982)" style="stroke:#009af9; stroke-linecap:round; stroke-linejoin:round; stroke-width:4; stroke-opacity:1; fill:none" points="249.551,305.113 476.434,487.243 703.317,623.559 930.2,778.664 1157.08,872.215 1383.97,980.113 1610.85,1064.08 1837.73,1180.33 2064.61,1269.74 2291.5,1384.24 "/>
<polyline clip-path="url(#clip982)" style="stroke:#e26f46; stroke-linecap:round; stroke-linejoin:round; stroke-width:4; stroke-opacity:1; fill:none" points="249.551,86.1857 476.434,86.7778 703.317,86.9177 930.2,86.9562 1157.08,86.9967 1383.97,87.0014 1610.85,87.0119 1837.73,87.0159 2064.61,87.0171 2291.5,87.0198 "/>
<path clip-path="url(#clip980)" d="M1842.12 248.629 L2280.61 248.629 L2280.61 93.1086 L1842.12 93.1086  Z" fill="#ffffff" fill-rule="evenodd" fill-opacity="1"/>
<polyline clip-path="url(#clip980)" style="stroke:#000000; stroke-linecap:round; stroke-linejoin:round; stroke-width:4; stroke-opacity:1; fill:none" points="1842.12,248.629 2280.61,248.629 2280.61,93.1086 1842.12,93.1086 1842.12,248.629 "/>
<polyline clip-path="url(#clip980)" style="stroke:#009af9; stroke-linecap:round; stroke-linejoin:round; stroke-width:4; stroke-opacity:1; fill:none" points="1866.17,144.949 2010.47,144.949 "/>
<path clip-path="url(#clip980)" d="M2041.93 128.942 L2041.93 136.303 L2050.7 136.303 L2050.7 139.613 L2041.93 139.613 L2041.93 153.687 Q2041.93 156.858 2042.79 157.761 Q2043.67 158.664 2046.33 158.664 L2050.7 158.664 L2050.7 162.229 L2046.33 162.229 Q2041.4 162.229 2039.52 160.4 Q2037.65 158.548 2037.65 153.687 L2037.65 139.613 L2034.52 139.613 L2034.52 136.303 L2037.65 136.303 L2037.65 128.942 L2041.93 128.942 Z" fill="#000000" fill-rule="nonzero" fill-opacity="1" /><path clip-path="url(#clip980)" d="M2071.33 140.284 Q2070.61 139.868 2069.75 139.682 Q2068.92 139.474 2067.9 139.474 Q2064.29 139.474 2062.35 141.835 Q2060.42 144.173 2060.42 148.571 L2060.42 162.229 L2056.14 162.229 L2056.14 136.303 L2060.42 136.303 L2060.42 140.331 Q2061.77 137.969 2063.92 136.835 Q2066.07 135.678 2069.15 135.678 Q2069.59 135.678 2070.12 135.747 Q2070.66 135.794 2071.3 135.909 L2071.33 140.284 Z" fill="#000000" fill-rule="nonzero" fill-opacity="1" /><path clip-path="url(#clip980)" d="M2087.58 149.196 Q2082.41 149.196 2080.42 150.377 Q2078.43 151.557 2078.43 154.405 Q2078.43 156.673 2079.91 158.016 Q2081.42 159.335 2083.99 159.335 Q2087.53 159.335 2089.66 156.835 Q2091.81 154.312 2091.81 150.145 L2091.81 149.196 L2087.58 149.196 M2096.07 147.437 L2096.07 162.229 L2091.81 162.229 L2091.81 158.293 Q2090.35 160.655 2088.18 161.789 Q2086 162.9 2082.85 162.9 Q2078.87 162.9 2076.51 160.678 Q2074.17 158.432 2074.17 154.682 Q2074.17 150.307 2077.09 148.085 Q2080.03 145.863 2085.84 145.863 L2091.81 145.863 L2091.81 145.446 Q2091.81 142.507 2089.87 140.909 Q2087.95 139.289 2084.45 139.289 Q2082.23 139.289 2080.12 139.821 Q2078.02 140.354 2076.07 141.419 L2076.07 137.483 Q2078.41 136.581 2080.61 136.141 Q2082.81 135.678 2084.89 135.678 Q2090.52 135.678 2093.29 138.594 Q2096.07 141.511 2096.07 147.437 Z" fill="#000000" fill-rule="nonzero" fill-opacity="1" /><path clip-path="url(#clip980)" d="M2104.85 136.303 L2109.1 136.303 L2109.1 162.229 L2104.85 162.229 L2104.85 136.303 M2104.85 126.21 L2109.1 126.21 L2109.1 131.604 L2104.85 131.604 L2104.85 126.21 Z" fill="#000000" fill-rule="nonzero" fill-opacity="1" /><path clip-path="url(#clip980)" d="M2139.57 146.581 L2139.57 162.229 L2135.31 162.229 L2135.31 146.719 Q2135.31 143.039 2133.87 141.21 Q2132.44 139.382 2129.57 139.382 Q2126.12 139.382 2124.13 141.581 Q2122.14 143.78 2122.14 147.576 L2122.14 162.229 L2117.85 162.229 L2117.85 136.303 L2122.14 136.303 L2122.14 140.331 Q2123.66 137.993 2125.72 136.835 Q2127.81 135.678 2130.52 135.678 Q2134.98 135.678 2137.28 138.456 Q2139.57 141.21 2139.57 146.581 Z" fill="#000000" fill-rule="nonzero" fill-opacity="1" /><path clip-path="url(#clip980)" d="M2167.76 170.099 L2167.76 173.409 L2143.13 173.409 L2143.13 170.099 L2167.76 170.099 Z" fill="#000000" fill-rule="nonzero" fill-opacity="1" /><path clip-path="url(#clip980)" d="M2171.77 126.21 L2176.03 126.21 L2176.03 162.229 L2171.77 162.229 L2171.77 126.21 Z" fill="#000000" fill-rule="nonzero" fill-opacity="1" /><path clip-path="url(#clip980)" d="M2194.98 139.289 Q2191.56 139.289 2189.57 141.974 Q2187.58 144.636 2187.58 149.289 Q2187.58 153.942 2189.54 156.627 Q2191.53 159.289 2194.98 159.289 Q2198.39 159.289 2200.38 156.604 Q2202.37 153.918 2202.37 149.289 Q2202.37 144.682 2200.38 141.997 Q2198.39 139.289 2194.98 139.289 M2194.98 135.678 Q2200.54 135.678 2203.71 139.289 Q2206.88 142.9 2206.88 149.289 Q2206.88 155.655 2203.71 159.289 Q2200.54 162.9 2194.98 162.9 Q2189.41 162.9 2186.23 159.289 Q2183.09 155.655 2183.09 149.289 Q2183.09 142.9 2186.23 139.289 Q2189.41 135.678 2194.98 135.678 Z" fill="#000000" fill-rule="nonzero" fill-opacity="1" /><path clip-path="url(#clip980)" d="M2230.47 137.067 L2230.47 141.094 Q2228.66 140.169 2226.72 139.706 Q2224.78 139.243 2222.69 139.243 Q2219.52 139.243 2217.92 140.215 Q2216.35 141.187 2216.35 143.131 Q2216.35 144.613 2217.48 145.469 Q2218.62 146.303 2222.04 147.067 L2223.5 147.391 Q2228.04 148.363 2229.94 150.145 Q2231.86 151.905 2231.86 155.076 Q2231.86 158.687 2228.99 160.793 Q2226.14 162.9 2221.14 162.9 Q2219.06 162.9 2216.79 162.483 Q2214.54 162.09 2212.04 161.28 L2212.04 156.881 Q2214.4 158.108 2216.7 158.733 Q2218.99 159.335 2221.23 159.335 Q2224.24 159.335 2225.86 158.317 Q2227.48 157.275 2227.48 155.4 Q2227.48 153.664 2226.3 152.738 Q2225.15 151.812 2221.19 150.956 L2219.71 150.608 Q2215.75 149.775 2213.99 148.062 Q2212.23 146.326 2212.23 143.317 Q2212.23 139.659 2214.82 137.669 Q2217.41 135.678 2222.18 135.678 Q2224.54 135.678 2226.63 136.025 Q2228.71 136.372 2230.47 137.067 Z" fill="#000000" fill-rule="nonzero" fill-opacity="1" /><path clip-path="url(#clip980)" d="M2255.17 137.067 L2255.17 141.094 Q2253.36 140.169 2251.42 139.706 Q2249.47 139.243 2247.39 139.243 Q2244.22 139.243 2242.62 140.215 Q2241.05 141.187 2241.05 143.131 Q2241.05 144.613 2242.18 145.469 Q2243.32 146.303 2246.74 147.067 L2248.2 147.391 Q2252.74 148.363 2254.64 150.145 Q2256.56 151.905 2256.56 155.076 Q2256.56 158.687 2253.69 160.793 Q2250.84 162.9 2245.84 162.9 Q2243.76 162.9 2241.49 162.483 Q2239.24 162.09 2236.74 161.28 L2236.74 156.881 Q2239.1 158.108 2241.4 158.733 Q2243.69 159.335 2245.93 159.335 Q2248.94 159.335 2250.56 158.317 Q2252.18 157.275 2252.18 155.4 Q2252.18 153.664 2251 152.738 Q2249.84 151.812 2245.89 150.956 L2244.4 150.608 Q2240.45 149.775 2238.69 148.062 Q2236.93 146.326 2236.93 143.317 Q2236.93 139.659 2239.52 137.669 Q2242.11 135.678 2246.88 135.678 Q2249.24 135.678 2251.33 136.025 Q2253.41 136.372 2255.17 137.067 Z" fill="#000000" fill-rule="nonzero" fill-opacity="1" /><polyline clip-path="url(#clip980)" style="stroke:#e26f46; stroke-linecap:round; stroke-linejoin:round; stroke-width:4; stroke-opacity:1; fill:none" points="1866.17,196.789 2010.47,196.789 "/>
<path clip-path="url(#clip980)" d="M2034.52 188.143 L2039.04 188.143 L2047.14 209.902 L2055.24 188.143 L2059.75 188.143 L2050.03 214.069 L2044.24 214.069 L2034.52 188.143 Z" fill="#000000" fill-rule="nonzero" fill-opacity="1" /><path clip-path="url(#clip980)" d="M2077.41 201.036 Q2072.25 201.036 2070.26 202.217 Q2068.27 203.397 2068.27 206.245 Q2068.27 208.513 2069.75 209.856 Q2071.26 211.175 2073.83 211.175 Q2077.37 211.175 2079.5 208.675 Q2081.65 206.152 2081.65 201.985 L2081.65 201.036 L2077.41 201.036 M2085.91 199.277 L2085.91 214.069 L2081.65 214.069 L2081.65 210.133 Q2080.19 212.495 2078.02 213.629 Q2075.84 214.74 2072.69 214.74 Q2068.71 214.74 2066.35 212.518 Q2064.01 210.272 2064.01 206.522 Q2064.01 202.147 2066.93 199.925 Q2069.87 197.703 2075.68 197.703 L2081.65 197.703 L2081.65 197.286 Q2081.65 194.347 2079.71 192.749 Q2077.79 191.129 2074.29 191.129 Q2072.07 191.129 2069.96 191.661 Q2067.85 192.194 2065.91 193.259 L2065.91 189.323 Q2068.25 188.421 2070.45 187.981 Q2072.65 187.518 2074.73 187.518 Q2080.35 187.518 2083.13 190.434 Q2085.91 193.351 2085.91 199.277 Z" fill="#000000" fill-rule="nonzero" fill-opacity="1" /><path clip-path="url(#clip980)" d="M2094.68 178.05 L2098.94 178.05 L2098.94 214.069 L2094.68 214.069 L2094.68 178.05 Z" fill="#000000" fill-rule="nonzero" fill-opacity="1" /><path clip-path="url(#clip980)" d="M2127.55 221.939 L2127.55 225.249 L2102.92 225.249 L2102.92 221.939 L2127.55 221.939 Z" fill="#000000" fill-rule="nonzero" fill-opacity="1" /><path clip-path="url(#clip980)" d="M2131.56 178.05 L2135.82 178.05 L2135.82 214.069 L2131.56 214.069 L2131.56 178.05 Z" fill="#000000" fill-rule="nonzero" fill-opacity="1" /><path clip-path="url(#clip980)" d="M2154.78 191.129 Q2151.35 191.129 2149.36 193.814 Q2147.37 196.476 2147.37 201.129 Q2147.37 205.782 2149.34 208.467 Q2151.33 211.129 2154.78 211.129 Q2158.18 211.129 2160.17 208.444 Q2162.16 205.758 2162.16 201.129 Q2162.16 196.522 2160.17 193.837 Q2158.18 191.129 2154.78 191.129 M2154.78 187.518 Q2160.33 187.518 2163.5 191.129 Q2166.67 194.74 2166.67 201.129 Q2166.67 207.495 2163.5 211.129 Q2160.33 214.74 2154.78 214.74 Q2149.2 214.74 2146.03 211.129 Q2142.88 207.495 2142.88 201.129 Q2142.88 194.74 2146.03 191.129 Q2149.2 187.518 2154.78 187.518 Z" fill="#000000" fill-rule="nonzero" fill-opacity="1" /><path clip-path="url(#clip980)" d="M2190.26 188.907 L2190.26 192.934 Q2188.46 192.009 2186.51 191.546 Q2184.57 191.083 2182.48 191.083 Q2179.31 191.083 2177.72 192.055 Q2176.14 193.027 2176.14 194.971 Q2176.14 196.453 2177.28 197.309 Q2178.41 198.143 2181.84 198.907 L2183.29 199.231 Q2187.83 200.203 2189.73 201.985 Q2191.65 203.745 2191.65 206.916 Q2191.65 210.527 2188.78 212.633 Q2185.93 214.74 2180.93 214.74 Q2178.85 214.74 2176.58 214.323 Q2174.34 213.93 2171.84 213.12 L2171.84 208.721 Q2174.2 209.948 2176.49 210.573 Q2178.78 211.175 2181.03 211.175 Q2184.03 211.175 2185.66 210.157 Q2187.28 209.115 2187.28 207.24 Q2187.28 205.504 2186.09 204.578 Q2184.94 203.652 2180.98 202.796 L2179.5 202.448 Q2175.54 201.615 2173.78 199.902 Q2172.02 198.166 2172.02 195.157 Q2172.02 191.499 2174.61 189.509 Q2177.21 187.518 2181.97 187.518 Q2184.34 187.518 2186.42 187.865 Q2188.5 188.212 2190.26 188.907 Z" fill="#000000" fill-rule="nonzero" fill-opacity="1" /><path clip-path="url(#clip980)" d="M2214.96 188.907 L2214.96 192.934 Q2213.15 192.009 2211.21 191.546 Q2209.27 191.083 2207.18 191.083 Q2204.01 191.083 2202.41 192.055 Q2200.84 193.027 2200.84 194.971 Q2200.84 196.453 2201.97 197.309 Q2203.11 198.143 2206.53 198.907 L2207.99 199.231 Q2212.53 200.203 2214.43 201.985 Q2216.35 203.745 2216.35 206.916 Q2216.35 210.527 2213.48 212.633 Q2210.63 214.74 2205.63 214.74 Q2203.55 214.74 2201.28 214.323 Q2199.03 213.93 2196.53 213.12 L2196.53 208.721 Q2198.9 209.948 2201.19 210.573 Q2203.48 211.175 2205.72 211.175 Q2208.73 211.175 2210.35 210.157 Q2211.97 209.115 2211.97 207.24 Q2211.97 205.504 2210.79 204.578 Q2209.64 203.652 2205.68 202.796 L2204.2 202.448 Q2200.24 201.615 2198.48 199.902 Q2196.72 198.166 2196.72 195.157 Q2196.72 191.499 2199.31 189.509 Q2201.91 187.518 2206.67 187.518 Q2209.03 187.518 2211.12 187.865 Q2213.2 188.212 2214.96 188.907 Z" fill="#000000" fill-rule="nonzero" fill-opacity="1" /></svg>
