<?xml version="1.0" encoding="utf-8"?>
<svg xmlns="http://www.w3.org/2000/svg" xmlns:xlink="http://www.w3.org/1999/xlink" width="600" height="400" viewBox="0 0 2400 1600">
<defs>
  <clipPath id="clip270">
    <rect x="0" y="0" width="2400" height="1600"/>
  </clipPath>
</defs>
<path clip-path="url(#clip270)" d="M0 1600 L2400 1600 L2400 0 L0 0  Z" fill="#ffffff" fill-rule="evenodd" fill-opacity="1"/>
<defs>
  <clipPath id="clip271">
    <rect x="480" y="0" width="1681" height="1600"/>
  </clipPath>
</defs>
<path clip-path="url(#clip270)" d="M188.104 1423.18 L2352.76 1423.18 L2352.76 47.2441 L188.104 47.2441  Z" fill="#ffffff" fill-rule="evenodd" fill-opacity="1"/>
<defs>
  <clipPath id="clip272">
    <rect x="188" y="47" width="2166" height="1377"/>
  </clipPath>
</defs>
<polyline clip-path="url(#clip272)" style="stroke:#000000; stroke-linecap:round; stroke-linejoin:round; stroke-width:2; stroke-opacity:0.1; fill:none" points="476.271,1423.18 476.271,47.2441 "/>
<polyline clip-path="url(#clip272)" style="stroke:#000000; stroke-linecap:round; stroke-linejoin:round; stroke-width:2; stroke-opacity:0.1; fill:none" points="930.076,1423.18 930.076,47.2441 "/>
<polyline clip-path="url(#clip272)" style="stroke:#000000; stroke-linecap:round; stroke-linejoin:round; stroke-width:2; stroke-opacity:0.1; fill:none" points="1383.88,1423.18 1383.88,47.2441 "/>
<polyline clip-path="url(#clip272)" style="stroke:#000000; stroke-linecap:round; stroke-linejoin:round; stroke-width:2; stroke-opacity:0.1; fill:none" points="1837.69,1423.18 1837.69,47.2441 "/>
<polyline clip-path="url(#clip272)" style="stroke:#000000; stroke-linecap:round; stroke-linejoin:round; stroke-width:2; stroke-opacity:0.1; fill:none" points="2291.49,1423.18 2291.49,47.2441 "/>
<polyline clip-path="url(#clip272)" style="stroke:#000000; stroke-linecap:round; stroke-linejoin:round; stroke-width:2; stroke-opacity:0.1; fill:none" points="188.104,1185.1 2352.76,1185.1 "/>
<polyline clip-path="url(#clip272)" style="stroke:#000000; stroke-linecap:round; stroke-linejoin:round; stroke-width:2; stroke-opacity:0.1; fill:none" points="188.104,515.424 2352.76,515.424 "/>
<polyline clip-path="url(#clip270)" style="stroke:#000000; stroke-linecap:round; stroke-linejoin:round; stroke-width:4; stroke-opacity:1; fill:none" points="188.104,1423.18 2352.76,1423.18 "/>
<polyline clip-path="url(#clip270)" style="stroke:#000000; stroke-linecap:round; stroke-linejoin:round; stroke-width:4; stroke-opacity:1; fill:none" points="476.271,1423.18 476.271,1404.28 "/>
<polyline clip-path="url(#clip270)" style="stroke:#000000; stroke-linecap:round; stroke-linejoin:round; stroke-width:4; stroke-opacity:1; fill:none" points="930.076,1423.18 930.076,1404.28 "/>
<polyline clip-path="url(#clip270)" style="stroke:#000000; stroke-linecap:round; stroke-linejoin:round; stroke-width:4; stroke-opacity:1; fill:none" points="1383.88,1423.18 1383.88,1404.28 "/>
<polyline clip-path="url(#clip270)" style="stroke:#000000; stroke-linecap:round; stroke-linejoin:round; stroke-width:4; stroke-opacity:1; fill:none" points="1837.69,1423.18 1837.69,1404.28 "/>
<polyline clip-path="url(#clip270)" style="stroke:#000000; stroke-linecap:round; stroke-linejoin:round; stroke-width:4; stroke-opacity:1; fill:none" points="2291.49,1423.18 2291.49,1404.28 "/>
<path clip-path="url(#clip270)" d="M470.923 1481.64 L487.243 1481.64 L487.243 1485.58 L465.298 1485.58 L465.298 1481.64 Q467.96 1478.89 472.544 1474.26 Q477.15 1469.61 478.331 1468.27 Q480.576 1465.74 481.456 1464.01 Q482.359 1462.25 482.359 1460.56 Q482.359 1457.8 480.414 1456.07 Q478.493 1454.33 475.391 1454.33 Q473.192 1454.33 470.738 1455.09 Q468.308 1455.86 465.53 1457.41 L465.53 1452.69 Q468.354 1451.55 470.808 1450.97 Q473.261 1450.39 475.298 1450.39 Q480.669 1450.39 483.863 1453.08 Q487.058 1455.77 487.058 1460.26 Q487.058 1462.39 486.247 1464.31 Q485.46 1466.2 483.354 1468.8 Q482.775 1469.47 479.673 1472.69 Q476.571 1475.88 470.923 1481.64 Z" fill="#000000" fill-rule="nonzero" fill-opacity="1" /><path clip-path="url(#clip270)" d="M933.085 1455.09 L921.28 1473.54 L933.085 1473.54 L933.085 1455.09 M931.858 1451.02 L937.738 1451.02 L937.738 1473.54 L942.668 1473.54 L942.668 1477.43 L937.738 1477.43 L937.738 1485.58 L933.085 1485.58 L933.085 1477.43 L917.483 1477.43 L917.483 1472.92 L931.858 1451.02 Z" fill="#000000" fill-rule="nonzero" fill-opacity="1" /><path clip-path="url(#clip270)" d="M1384.29 1466.44 Q1381.14 1466.44 1379.29 1468.59 Q1377.46 1470.74 1377.46 1474.49 Q1377.46 1478.22 1379.29 1480.39 Q1381.14 1482.55 1384.29 1482.55 Q1387.43 1482.55 1389.26 1480.39 Q1391.12 1478.22 1391.12 1474.49 Q1391.12 1470.74 1389.26 1468.59 Q1387.43 1466.44 1384.29 1466.44 M1393.57 1451.78 L1393.57 1456.04 Q1391.81 1455.21 1390 1454.77 Q1388.22 1454.33 1386.46 1454.33 Q1381.83 1454.33 1379.38 1457.45 Q1376.95 1460.58 1376.6 1466.9 Q1377.97 1464.89 1380.03 1463.82 Q1382.09 1462.73 1384.56 1462.73 Q1389.77 1462.73 1392.78 1465.9 Q1395.81 1469.05 1395.81 1474.49 Q1395.81 1479.82 1392.67 1483.03 Q1389.52 1486.25 1384.29 1486.25 Q1378.29 1486.25 1375.12 1481.67 Q1371.95 1477.06 1371.95 1468.33 Q1371.95 1460.14 1375.84 1455.28 Q1379.73 1450.39 1386.28 1450.39 Q1388.04 1450.39 1389.82 1450.74 Q1391.62 1451.09 1393.57 1451.78 Z" fill="#000000" fill-rule="nonzero" fill-opacity="1" /><path clip-path="url(#clip270)" d="M1837.69 1469.17 Q1834.35 1469.17 1832.43 1470.95 Q1830.53 1472.73 1830.53 1475.86 Q1830.53 1478.98 1832.43 1480.77 Q1834.35 1482.55 1837.69 1482.55 Q1841.02 1482.55 1842.94 1480.77 Q1844.86 1478.96 1844.86 1475.86 Q1844.86 1472.73 1842.94 1470.95 Q1841.04 1469.17 1837.69 1469.17 M1833.01 1467.18 Q1830 1466.44 1828.31 1464.38 Q1826.65 1462.32 1826.65 1459.35 Q1826.65 1455.21 1829.58 1452.8 Q1832.55 1450.39 1837.69 1450.39 Q1842.85 1450.39 1845.79 1452.8 Q1848.73 1455.21 1848.73 1459.35 Q1848.73 1462.32 1847.04 1464.38 Q1845.37 1466.44 1842.39 1467.18 Q1845.77 1467.96 1847.64 1470.26 Q1849.54 1472.55 1849.54 1475.86 Q1849.54 1480.88 1846.46 1483.57 Q1843.4 1486.25 1837.69 1486.25 Q1831.97 1486.25 1828.89 1483.57 Q1825.83 1480.88 1825.83 1475.86 Q1825.83 1472.55 1827.73 1470.26 Q1829.63 1467.96 1833.01 1467.18 M1831.3 1459.79 Q1831.3 1462.48 1832.96 1463.98 Q1834.65 1465.49 1837.69 1465.49 Q1840.7 1465.49 1842.39 1463.98 Q1844.1 1462.48 1844.1 1459.79 Q1844.1 1457.11 1842.39 1455.6 Q1840.7 1454.1 1837.69 1454.1 Q1834.65 1454.1 1832.96 1455.6 Q1831.3 1457.11 1831.3 1459.79 Z" fill="#000000" fill-rule="nonzero" fill-opacity="1" /><path clip-path="url(#clip270)" d="M2266.18 1481.64 L2273.82 1481.64 L2273.82 1455.28 L2265.51 1456.95 L2265.51 1452.69 L2273.77 1451.02 L2278.45 1451.02 L2278.45 1481.64 L2286.09 1481.64 L2286.09 1485.58 L2266.18 1485.58 L2266.18 1481.64 Z" fill="#000000" fill-rule="nonzero" fill-opacity="1" /><path clip-path="url(#clip270)" d="M2305.53 1454.1 Q2301.92 1454.1 2300.09 1457.66 Q2298.29 1461.2 2298.29 1468.33 Q2298.29 1475.44 2300.09 1479.01 Q2301.92 1482.55 2305.53 1482.55 Q2309.17 1482.55 2310.97 1479.01 Q2312.8 1475.44 2312.8 1468.33 Q2312.8 1461.2 2310.97 1457.66 Q2309.17 1454.1 2305.53 1454.1 M2305.53 1450.39 Q2311.34 1450.39 2314.4 1455 Q2317.48 1459.58 2317.48 1468.33 Q2317.48 1477.06 2314.4 1481.67 Q2311.34 1486.25 2305.53 1486.25 Q2299.72 1486.25 2296.64 1481.67 Q2293.59 1477.06 2293.59 1468.33 Q2293.59 1459.58 2296.64 1455 Q2299.72 1450.39 2305.53 1450.39 Z" fill="#000000" fill-rule="nonzero" fill-opacity="1" /><path clip-path="url(#clip270)" d="M1190.62 1548.76 L1190.62 1551.62 L1163.69 1551.62 Q1164.07 1557.67 1167.32 1560.85 Q1170.6 1564 1176.42 1564 Q1179.8 1564 1182.95 1563.17 Q1186.13 1562.35 1189.25 1560.69 L1189.25 1566.23 Q1186.1 1567.57 1182.79 1568.27 Q1179.48 1568.97 1176.07 1568.97 Q1167.54 1568.97 1162.55 1564 Q1157.58 1559.04 1157.58 1550.57 Q1157.58 1541.82 1162.29 1536.69 Q1167.04 1531.54 1175.06 1531.54 Q1182.25 1531.54 1186.42 1536.18 Q1190.62 1540.8 1190.62 1548.76 M1184.76 1547.04 Q1184.7 1542.23 1182.06 1539.37 Q1179.45 1536.5 1175.12 1536.5 Q1170.22 1536.5 1167.26 1539.27 Q1164.33 1542.04 1163.88 1547.07 L1184.76 1547.04 Z" fill="#000000" fill-rule="nonzero" fill-opacity="1" /><path clip-path="url(#clip270)" d="M1205.9 1562.7 L1205.9 1581.6 L1200.01 1581.6 L1200.01 1532.4 L1205.9 1532.4 L1205.9 1537.81 Q1207.74 1534.62 1210.54 1533.1 Q1213.38 1531.54 1217.29 1531.54 Q1223.79 1531.54 1227.83 1536.69 Q1231.9 1541.85 1231.9 1550.25 Q1231.9 1558.65 1227.83 1563.81 Q1223.79 1568.97 1217.29 1568.97 Q1213.38 1568.97 1210.54 1567.44 Q1207.74 1565.88 1205.9 1562.7 M1225.82 1550.25 Q1225.82 1543.79 1223.15 1540.13 Q1220.51 1536.44 1215.86 1536.44 Q1211.21 1536.44 1208.54 1540.13 Q1205.9 1543.79 1205.9 1550.25 Q1205.9 1556.71 1208.54 1560.4 Q1211.21 1564.07 1215.86 1564.07 Q1220.51 1564.07 1223.15 1560.4 Q1225.82 1556.71 1225.82 1550.25 Z" fill="#000000" fill-rule="nonzero" fill-opacity="1" /><path clip-path="url(#clip270)" d="M1255.42 1536.5 Q1250.71 1536.5 1247.97 1540.19 Q1245.24 1543.85 1245.24 1550.25 Q1245.24 1556.65 1247.94 1560.34 Q1250.68 1564 1255.42 1564 Q1260.1 1564 1262.84 1560.31 Q1265.58 1556.62 1265.58 1550.25 Q1265.58 1543.92 1262.84 1540.23 Q1260.1 1536.5 1255.42 1536.5 M1255.42 1531.54 Q1263.06 1531.54 1267.42 1536.5 Q1271.78 1541.47 1271.78 1550.25 Q1271.78 1559 1267.42 1564 Q1263.06 1568.97 1255.42 1568.97 Q1247.75 1568.97 1243.39 1564 Q1239.06 1559 1239.06 1550.25 Q1239.06 1541.47 1243.39 1536.5 Q1247.75 1531.54 1255.42 1531.54 Z" fill="#000000" fill-rule="nonzero" fill-opacity="1" /><path clip-path="url(#clip270)" d="M1307.14 1533.76 L1307.14 1539.24 Q1304.66 1537.87 1302.15 1537.2 Q1299.66 1536.5 1297.12 1536.5 Q1291.42 1536.5 1288.27 1540.13 Q1285.12 1543.73 1285.12 1550.25 Q1285.12 1556.78 1288.27 1560.4 Q1291.42 1564 1297.12 1564 Q1299.66 1564 1302.15 1563.33 Q1304.66 1562.63 1307.14 1561.26 L1307.14 1566.68 Q1304.69 1567.82 1302.05 1568.39 Q1299.44 1568.97 1296.48 1568.97 Q1288.43 1568.97 1283.69 1563.91 Q1278.94 1558.85 1278.94 1550.25 Q1278.94 1541.53 1283.72 1536.53 Q1288.52 1531.54 1296.86 1531.54 Q1299.57 1531.54 1302.15 1532.11 Q1304.73 1532.65 1307.14 1533.76 Z" fill="#000000" fill-rule="nonzero" fill-opacity="1" /><path clip-path="url(#clip270)" d="M1346.96 1546.53 L1346.96 1568.04 L1341.11 1568.04 L1341.11 1546.72 Q1341.11 1541.66 1339.13 1539.14 Q1337.16 1536.63 1333.21 1536.63 Q1328.47 1536.63 1325.73 1539.65 Q1322.99 1542.68 1322.99 1547.9 L1322.99 1568.04 L1317.11 1568.04 L1317.11 1518.52 L1322.99 1518.52 L1322.99 1537.93 Q1325.1 1534.72 1327.93 1533.13 Q1330.79 1531.54 1334.52 1531.54 Q1340.66 1531.54 1343.81 1535.36 Q1346.96 1539.14 1346.96 1546.53 Z" fill="#000000" fill-rule="nonzero" fill-opacity="1" /><path clip-path="url(#clip270)" d="M1381.37 1533.45 L1381.37 1538.98 Q1378.89 1537.71 1376.21 1537.07 Q1373.54 1536.44 1370.67 1536.44 Q1366.31 1536.44 1364.12 1537.77 Q1361.95 1539.11 1361.95 1541.79 Q1361.95 1543.82 1363.51 1545 Q1365.07 1546.15 1369.78 1547.2 L1371.79 1547.64 Q1378.03 1548.98 1380.64 1551.43 Q1383.28 1553.85 1383.28 1558.21 Q1383.28 1563.17 1379.33 1566.07 Q1375.42 1568.97 1368.54 1568.97 Q1365.68 1568.97 1362.56 1568.39 Q1359.47 1567.85 1356.03 1566.74 L1356.03 1560.69 Q1359.28 1562.38 1362.43 1563.24 Q1365.58 1564.07 1368.67 1564.07 Q1372.81 1564.07 1375.03 1562.66 Q1377.26 1561.23 1377.26 1558.65 Q1377.26 1556.27 1375.64 1554.99 Q1374.05 1553.72 1368.61 1552.54 L1366.57 1552.07 Q1361.13 1550.92 1358.71 1548.56 Q1356.29 1546.18 1356.29 1542.04 Q1356.29 1537.01 1359.85 1534.27 Q1363.42 1531.54 1369.97 1531.54 Q1373.22 1531.54 1376.08 1532.01 Q1378.95 1532.49 1381.37 1533.45 Z" fill="#000000" fill-rule="nonzero" fill-opacity="1" /><polyline clip-path="url(#clip270)" style="stroke:#000000; stroke-linecap:round; stroke-linejoin:round; stroke-width:4; stroke-opacity:1; fill:none" points="188.104,1423.18 188.104,47.2441 "/>
<polyline clip-path="url(#clip270)" style="stroke:#000000; stroke-linecap:round; stroke-linejoin:round; stroke-width:4; stroke-opacity:1; fill:none" points="188.104,1185.1 207.002,1185.1 "/>
<polyline clip-path="url(#clip270)" style="stroke:#000000; stroke-linecap:round; stroke-linejoin:round; stroke-width:4; stroke-opacity:1; fill:none" points="188.104,515.424 207.002,515.424 "/>
<path clip-path="url(#clip270)" d="M51.6634 1204.89 L59.3023 1204.89 L59.3023 1178.52 L50.9921 1180.19 L50.9921 1175.93 L59.256 1174.26 L63.9319 1174.26 L63.9319 1204.89 L71.5707 1204.89 L71.5707 1208.82 L51.6634 1208.82 L51.6634 1204.89 Z" fill="#000000" fill-rule="nonzero" fill-opacity="1" /><path clip-path="url(#clip270)" d="M91.0151 1177.34 Q87.404 1177.34 85.5753 1180.91 Q83.7697 1184.45 83.7697 1191.58 Q83.7697 1198.69 85.5753 1202.25 Q87.404 1205.79 91.0151 1205.79 Q94.6493 1205.79 96.4548 1202.25 Q98.2835 1198.69 98.2835 1191.58 Q98.2835 1184.45 96.4548 1180.91 Q94.6493 1177.34 91.0151 1177.34 M91.0151 1173.64 Q96.8252 1173.64 99.8808 1178.25 Q102.959 1182.83 102.959 1191.58 Q102.959 1200.31 99.8808 1204.91 Q96.8252 1209.5 91.0151 1209.5 Q85.2049 1209.5 82.1262 1204.91 Q79.0707 1200.31 79.0707 1191.58 Q79.0707 1182.83 82.1262 1178.25 Q85.2049 1173.64 91.0151 1173.64 Z" fill="#000000" fill-rule="nonzero" fill-opacity="1" /><path clip-path="url(#clip270)" d="M102.959 1167.74 L127.071 1167.74 L127.071 1170.94 L102.959 1170.94 L102.959 1167.74 Z" fill="#000000" fill-rule="nonzero" fill-opacity="1" /><path clip-path="url(#clip270)" d="M135.929 1178.22 L142.136 1178.22 L142.136 1156.79 L135.384 1158.15 L135.384 1154.69 L142.098 1153.33 L145.898 1153.33 L145.898 1178.22 L152.104 1178.22 L152.104 1181.41 L135.929 1181.41 L135.929 1178.22 Z" fill="#000000" fill-rule="nonzero" fill-opacity="1" /><path clip-path="url(#clip270)" d="M81.3985 535.216 L89.0374 535.216 L89.0374 508.851 L80.7272 510.518 L80.7272 506.258 L88.9911 504.592 L93.667 504.592 L93.667 535.216 L101.306 535.216 L101.306 539.152 L81.3985 539.152 L81.3985 535.216 Z" fill="#000000" fill-rule="nonzero" fill-opacity="1" /><path clip-path="url(#clip270)" d="M120.75 507.67 Q117.139 507.67 115.31 511.235 Q113.505 514.777 113.505 521.906 Q113.505 529.013 115.31 532.578 Q117.139 536.119 120.75 536.119 Q124.384 536.119 126.19 532.578 Q128.019 529.013 128.019 521.906 Q128.019 514.777 126.19 511.235 Q124.384 507.67 120.75 507.67 M120.75 503.967 Q126.56 503.967 129.616 508.573 Q132.695 513.156 132.695 521.906 Q132.695 530.633 129.616 535.24 Q126.56 539.823 120.75 539.823 Q114.94 539.823 111.861 535.24 Q108.806 530.633 108.806 521.906 Q108.806 513.156 111.861 508.573 Q114.94 503.967 120.75 503.967 Z" fill="#000000" fill-rule="nonzero" fill-opacity="1" /><path clip-path="url(#clip270)" d="M142.399 486.163 Q139.465 486.163 137.98 489.059 Q136.513 491.937 136.513 497.729 Q136.513 503.503 137.98 506.4 Q139.465 509.277 142.399 509.277 Q145.352 509.277 146.819 506.4 Q148.305 503.503 148.305 497.729 Q148.305 491.937 146.819 489.059 Q145.352 486.163 142.399 486.163 M142.399 483.153 Q147.12 483.153 149.603 486.896 Q152.104 490.62 152.104 497.729 Q152.104 504.82 149.603 508.563 Q147.12 512.287 142.399 512.287 Q137.679 512.287 135.177 508.563 Q132.695 504.82 132.695 497.729 Q132.695 490.62 135.177 486.896 Q137.679 483.153 142.399 483.153 Z" fill="#000000" fill-rule="nonzero" fill-opacity="1" /><polyline clip-path="url(#clip272)" style="stroke:#009af9; stroke-linecap:round; stroke-linejoin:round; stroke-width:4; stroke-opacity:1; fill:none" points="249.368,102.312 476.271,259.005 703.173,403.817 930.076,547.301 1156.98,690.235 1383.88,832.604 1610.78,973.976 1837.69,1113.36 2064.59,1251.6 2291.49,1384.24 "/>
<polyline clip-path="url(#clip272)" style="stroke:#e26f46; stroke-linecap:round; stroke-linejoin:round; stroke-width:4; stroke-opacity:1; fill:none" points="249.368,86.1857 476.271,230.354 703.173,372.531 930.076,513.688 1156.98,653.05 1383.88,790.251 1610.78,923.214 1837.69,1050.93 2064.59,1169.1 2291.49,1278.35 "/>
<path clip-path="url(#clip270)" d="M1842.1 248.629 L2280.6 248.629 L2280.6 93.1086 L1842.1 93.1086  Z" fill="#ffffff" fill-rule="evenodd" fill-opacity="1"/>
<polyline clip-path="url(#clip270)" style="stroke:#000000; stroke-linecap:round; stroke-linejoin:round; stroke-width:4; stroke-opacity:1; fill:none" points="1842.1,248.629 2280.6,248.629 2280.6,93.1086 1842.1,93.1086 1842.1,248.629 "/>
<polyline clip-path="url(#clip270)" style="stroke:#009af9; stroke-linecap:round; stroke-linejoin:round; stroke-width:4; stroke-opacity:1; fill:none" points="1866.15,144.949 2010.46,144.949 "/>
<path clip-path="url(#clip270)" d="M2041.92 128.942 L2041.92 136.303 L2050.69 136.303 L2050.69 139.613 L2041.92 139.613 L2041.92 153.687 Q2041.92 156.858 2042.78 157.761 Q2043.66 158.664 2046.32 158.664 L2050.69 158.664 L2050.69 162.229 L2046.32 162.229 Q2041.39 162.229 2039.51 160.4 Q2037.64 158.548 2037.64 153.687 L2037.64 139.613 L2034.51 139.613 L2034.51 136.303 L2037.64 136.303 L2037.64 128.942 L2041.92 128.942 Z" fill="#000000" fill-rule="nonzero" fill-opacity="1" /><path clip-path="url(#clip270)" d="M2071.32 140.284 Q2070.6 139.868 2069.74 139.682 Q2068.91 139.474 2067.89 139.474 Q2064.28 139.474 2062.34 141.835 Q2060.42 144.173 2060.42 148.571 L2060.42 162.229 L2056.13 162.229 L2056.13 136.303 L2060.42 136.303 L2060.42 140.331 Q2061.76 137.969 2063.91 136.835 Q2066.06 135.678 2069.14 135.678 Q2069.58 135.678 2070.11 135.747 Q2070.65 135.794 2071.3 135.909 L2071.32 140.284 Z" fill="#000000" fill-rule="nonzero" fill-opacity="1" /><path clip-path="url(#clip270)" d="M2087.57 149.196 Q2082.41 149.196 2080.42 150.377 Q2078.43 151.557 2078.43 154.405 Q2078.43 156.673 2079.91 158.016 Q2081.41 159.335 2083.98 159.335 Q2087.52 159.335 2089.65 156.835 Q2091.8 154.312 2091.8 150.145 L2091.8 149.196 L2087.57 149.196 M2096.06 147.437 L2096.06 162.229 L2091.8 162.229 L2091.8 158.293 Q2090.35 160.655 2088.17 161.789 Q2085.99 162.9 2082.85 162.9 Q2078.86 162.9 2076.5 160.678 Q2074.17 158.432 2074.17 154.682 Q2074.17 150.307 2077.08 148.085 Q2080.02 145.863 2085.83 145.863 L2091.8 145.863 L2091.8 145.446 Q2091.8 142.507 2089.86 140.909 Q2087.94 139.289 2084.44 139.289 Q2082.22 139.289 2080.11 139.821 Q2078.01 140.354 2076.06 141.419 L2076.06 137.483 Q2078.4 136.581 2080.6 136.141 Q2082.8 135.678 2084.88 135.678 Q2090.51 135.678 2093.29 138.594 Q2096.06 141.511 2096.06 147.437 Z" fill="#000000" fill-rule="nonzero" fill-opacity="1" /><path clip-path="url(#clip270)" d="M2104.84 136.303 L2109.1 136.303 L2109.1 162.229 L2104.84 162.229 L2104.84 136.303 M2104.84 126.21 L2109.1 126.21 L2109.1 131.604 L2104.84 131.604 L2104.84 126.21 Z" fill="#000000" fill-rule="nonzero" fill-opacity="1" /><path clip-path="url(#clip270)" d="M2139.56 146.581 L2139.56 162.229 L2135.3 162.229 L2135.3 146.719 Q2135.3 143.039 2133.86 141.21 Q2132.43 139.382 2129.56 139.382 Q2126.11 139.382 2124.12 141.581 Q2122.13 143.78 2122.13 147.576 L2122.13 162.229 L2117.85 162.229 L2117.85 136.303 L2122.13 136.303 L2122.13 140.331 Q2123.66 137.993 2125.72 136.835 Q2127.8 135.678 2130.51 135.678 Q2134.98 135.678 2137.27 138.456 Q2139.56 141.21 2139.56 146.581 Z" fill="#000000" fill-rule="nonzero" fill-opacity="1" /><path clip-path="url(#clip270)" d="M2167.75 170.099 L2167.75 173.409 L2143.12 173.409 L2143.12 170.099 L2167.75 170.099 Z" fill="#000000" fill-rule="nonzero" fill-opacity="1" /><path clip-path="url(#clip270)" d="M2171.76 126.21 L2176.02 126.21 L2176.02 162.229 L2171.76 162.229 L2171.76 126.21 Z" fill="#000000" fill-rule="nonzero" fill-opacity="1" /><path clip-path="url(#clip270)" d="M2194.98 139.289 Q2191.55 139.289 2189.56 141.974 Q2187.57 144.636 2187.57 149.289 Q2187.57 153.942 2189.54 156.627 Q2191.53 159.289 2194.98 159.289 Q2198.38 159.289 2200.37 156.604 Q2202.36 153.918 2202.36 149.289 Q2202.36 144.682 2200.37 141.997 Q2198.38 139.289 2194.98 139.289 M2194.98 135.678 Q2200.53 135.678 2203.7 139.289 Q2206.87 142.9 2206.87 149.289 Q2206.87 155.655 2203.7 159.289 Q2200.53 162.9 2194.98 162.9 Q2189.4 162.9 2186.23 159.289 Q2183.08 155.655 2183.08 149.289 Q2183.08 142.9 2186.23 139.289 Q2189.4 135.678 2194.98 135.678 Z" fill="#000000" fill-rule="nonzero" fill-opacity="1" /><path clip-path="url(#clip270)" d="M2230.46 137.067 L2230.46 141.094 Q2228.66 140.169 2226.71 139.706 Q2224.77 139.243 2222.68 139.243 Q2219.51 139.243 2217.92 140.215 Q2216.34 141.187 2216.34 143.131 Q2216.34 144.613 2217.48 145.469 Q2218.61 146.303 2222.04 147.067 L2223.49 147.391 Q2228.03 148.363 2229.93 150.145 Q2231.85 151.905 2231.85 155.076 Q2231.85 158.687 2228.98 160.793 Q2226.13 162.9 2221.13 162.9 Q2219.05 162.9 2216.78 162.483 Q2214.54 162.09 2212.04 161.28 L2212.04 156.881 Q2214.4 158.108 2216.69 158.733 Q2218.98 159.335 2221.23 159.335 Q2224.23 159.335 2225.85 158.317 Q2227.48 157.275 2227.48 155.4 Q2227.48 153.664 2226.29 152.738 Q2225.14 151.812 2221.18 150.956 L2219.7 150.608 Q2215.74 149.775 2213.98 148.062 Q2212.22 146.326 2212.22 143.317 Q2212.22 139.659 2214.81 137.669 Q2217.41 135.678 2222.17 135.678 Q2224.54 135.678 2226.62 136.025 Q2228.7 136.372 2230.46 137.067 Z" fill="#000000" fill-rule="nonzero" fill-opacity="1" /><path clip-path="url(#clip270)" d="M2255.16 137.067 L2255.16 141.094 Q2253.35 140.169 2251.41 139.706 Q2249.47 139.243 2247.38 139.243 Q2244.21 139.243 2242.61 140.215 Q2241.04 141.187 2241.04 143.131 Q2241.04 144.613 2242.17 145.469 Q2243.31 146.303 2246.73 147.067 L2248.19 147.391 Q2252.73 148.363 2254.63 150.145 Q2256.55 151.905 2256.55 155.076 Q2256.55 158.687 2253.68 160.793 Q2250.83 162.9 2245.83 162.9 Q2243.75 162.9 2241.48 162.483 Q2239.23 162.09 2236.73 161.28 L2236.73 156.881 Q2239.1 158.108 2241.39 158.733 Q2243.68 159.335 2245.92 159.335 Q2248.93 159.335 2250.55 158.317 Q2252.17 157.275 2252.17 155.4 Q2252.17 153.664 2250.99 152.738 Q2249.84 151.812 2245.88 150.956 L2244.4 150.608 Q2240.44 149.775 2238.68 148.062 Q2236.92 146.326 2236.92 143.317 Q2236.92 139.659 2239.51 137.669 Q2242.1 135.678 2246.87 135.678 Q2249.23 135.678 2251.32 136.025 Q2253.4 136.372 2255.16 137.067 Z" fill="#000000" fill-rule="nonzero" fill-opacity="1" /><polyline clip-path="url(#clip270)" style="stroke:#e26f46; stroke-linecap:round; stroke-linejoin:round; stroke-width:4; stroke-opacity:1; fill:none" points="1866.15,196.789 2010.46,196.789 "/>
<path clip-path="url(#clip270)" d="M2034.51 188.143 L2039.03 188.143 L2047.13 209.902 L2055.23 188.143 L2059.74 188.143 L2050.02 214.069 L2044.24 214.069 L2034.51 188.143 Z" fill="#000000" fill-rule="nonzero" fill-opacity="1" /><path clip-path="url(#clip270)" d="M2077.41 201.036 Q2072.24 201.036 2070.25 202.217 Q2068.26 203.397 2068.26 206.245 Q2068.26 208.513 2069.74 209.856 Q2071.25 211.175 2073.82 211.175 Q2077.36 211.175 2079.49 208.675 Q2081.64 206.152 2081.64 201.985 L2081.64 201.036 L2077.41 201.036 M2085.9 199.277 L2085.9 214.069 L2081.64 214.069 L2081.64 210.133 Q2080.18 212.495 2078.01 213.629 Q2075.83 214.74 2072.68 214.74 Q2068.7 214.74 2066.34 212.518 Q2064 210.272 2064 206.522 Q2064 202.147 2066.92 199.925 Q2069.86 197.703 2075.67 197.703 L2081.64 197.703 L2081.64 197.286 Q2081.64 194.347 2079.7 192.749 Q2077.78 191.129 2074.28 191.129 Q2072.06 191.129 2069.95 191.661 Q2067.85 192.194 2065.9 193.259 L2065.9 189.323 Q2068.24 188.421 2070.44 187.981 Q2072.64 187.518 2074.72 187.518 Q2080.35 187.518 2083.12 190.434 Q2085.9 193.351 2085.9 199.277 Z" fill="#000000" fill-rule="nonzero" fill-opacity="1" /><path clip-path="url(#clip270)" d="M2094.68 178.05 L2098.93 178.05 L2098.93 214.069 L2094.68 214.069 L2094.68 178.05 Z" fill="#000000" fill-rule="nonzero" fill-opacity="1" /><path clip-path="url(#clip270)" d="M2127.55 221.939 L2127.55 225.249 L2102.92 225.249 L2102.92 221.939 L2127.55 221.939 Z" fill="#000000" fill-rule="nonzero" fill-opacity="1" /><path clip-path="url(#clip270)" d="M2131.55 178.05 L2135.81 178.05 L2135.81 214.069 L2131.55 214.069 L2131.55 178.05 Z" fill="#000000" fill-rule="nonzero" fill-opacity="1" /><path clip-path="url(#clip270)" d="M2154.77 191.129 Q2151.34 191.129 2149.35 193.814 Q2147.36 196.476 2147.36 201.129 Q2147.36 205.782 2149.33 208.467 Q2151.32 211.129 2154.77 211.129 Q2158.17 211.129 2160.16 208.444 Q2162.15 205.758 2162.15 201.129 Q2162.15 196.522 2160.16 193.837 Q2158.17 191.129 2154.77 191.129 M2154.77 187.518 Q2160.32 187.518 2163.49 191.129 Q2166.67 194.74 2166.67 201.129 Q2166.67 207.495 2163.49 211.129 Q2160.32 214.74 2154.77 214.74 Q2149.19 214.74 2146.02 211.129 Q2142.87 207.495 2142.87 201.129 Q2142.87 194.74 2146.02 191.129 Q2149.19 187.518 2154.77 187.518 Z" fill="#000000" fill-rule="nonzero" fill-opacity="1" /><path clip-path="url(#clip270)" d="M2190.25 188.907 L2190.25 192.934 Q2188.45 192.009 2186.5 191.546 Q2184.56 191.083 2182.48 191.083 Q2179.3 191.083 2177.71 192.055 Q2176.13 193.027 2176.13 194.971 Q2176.13 196.453 2177.27 197.309 Q2178.4 198.143 2181.83 198.907 L2183.29 199.231 Q2187.82 200.203 2189.72 201.985 Q2191.64 203.745 2191.64 206.916 Q2191.64 210.527 2188.77 212.633 Q2185.92 214.74 2180.92 214.74 Q2178.84 214.74 2176.57 214.323 Q2174.33 213.93 2171.83 213.12 L2171.83 208.721 Q2174.19 209.948 2176.48 210.573 Q2178.77 211.175 2181.02 211.175 Q2184.03 211.175 2185.65 210.157 Q2187.27 209.115 2187.27 207.24 Q2187.27 205.504 2186.09 204.578 Q2184.93 203.652 2180.97 202.796 L2179.49 202.448 Q2175.53 201.615 2173.77 199.902 Q2172.01 198.166 2172.01 195.157 Q2172.01 191.499 2174.61 189.509 Q2177.2 187.518 2181.97 187.518 Q2184.33 187.518 2186.41 187.865 Q2188.49 188.212 2190.25 188.907 Z" fill="#000000" fill-rule="nonzero" fill-opacity="1" /><path clip-path="url(#clip270)" d="M2214.95 188.907 L2214.95 192.934 Q2213.15 192.009 2211.2 191.546 Q2209.26 191.083 2207.17 191.083 Q2204 191.083 2202.41 192.055 Q2200.83 193.027 2200.83 194.971 Q2200.83 196.453 2201.97 197.309 Q2203.1 198.143 2206.53 198.907 L2207.98 199.231 Q2212.52 200.203 2214.42 201.985 Q2216.34 203.745 2216.34 206.916 Q2216.34 210.527 2213.47 212.633 Q2210.62 214.74 2205.62 214.74 Q2203.54 214.74 2201.27 214.323 Q2199.03 213.93 2196.53 213.12 L2196.53 208.721 Q2198.89 209.948 2201.18 210.573 Q2203.47 211.175 2205.72 211.175 Q2208.73 211.175 2210.35 210.157 Q2211.97 209.115 2211.97 207.24 Q2211.97 205.504 2210.79 204.578 Q2209.63 203.652 2205.67 202.796 L2204.19 202.448 Q2200.23 201.615 2198.47 199.902 Q2196.71 198.166 2196.71 195.157 Q2196.71 191.499 2199.3 189.509 Q2201.9 187.518 2206.67 187.518 Q2209.03 187.518 2211.11 187.865 Q2213.19 188.212 2214.95 188.907 Z" fill="#000000" fill-rule="nonzero" fill-opacity="1" /></svg>
