<?xml version="1.0" encoding="utf-8"?>
<svg xmlns="http://www.w3.org/2000/svg" xmlns:xlink="http://www.w3.org/1999/xlink" width="600" height="400" viewBox="0 0 2400 1600">
<defs>
  <clipPath id="clip430">
    <rect x="0" y="0" width="2400" height="1600"/>
  </clipPath>
</defs>
<path clip-path="url(#clip430)" d="M0 1600 L2400 1600 L2400 0 L0 0  Z" fill="#ffffff" fill-rule="evenodd" fill-opacity="1"/>
<defs>
  <clipPath id="clip431">
    <rect x="480" y="0" width="1681" height="1600"/>
  </clipPath>
</defs>
<path clip-path="url(#clip430)" d="M156.598 1423.18 L2352.76 1423.18 L2352.76 47.2441 L156.598 47.2441  Z" fill="#ffffff" fill-rule="evenodd" fill-opacity="1"/>
<defs>
  <clipPath id="clip432">
    <rect x="156" y="47" width="2197" height="1377"/>
  </clipPath>
</defs>
<polyline clip-path="url(#clip432)" style="stroke:#000000; stroke-linecap:round; stroke-linejoin:round; stroke-width:2; stroke-opacity:0.1; fill:none" points="448.959,1423.18 448.959,47.2441 "/>
<polyline clip-path="url(#clip432)" style="stroke:#000000; stroke-linecap:round; stroke-linejoin:round; stroke-width:2; stroke-opacity:0.1; fill:none" points="909.369,1423.18 909.369,47.2441 "/>
<polyline clip-path="url(#clip432)" style="stroke:#000000; stroke-linecap:round; stroke-linejoin:round; stroke-width:2; stroke-opacity:0.1; fill:none" points="1369.78,1423.18 1369.78,47.2441 "/>
<polyline clip-path="url(#clip432)" style="stroke:#000000; stroke-linecap:round; stroke-linejoin:round; stroke-width:2; stroke-opacity:0.1; fill:none" points="1830.19,1423.18 1830.19,47.2441 "/>
<polyline clip-path="url(#clip432)" style="stroke:#000000; stroke-linecap:round; stroke-linejoin:round; stroke-width:2; stroke-opacity:0.1; fill:none" points="2290.6,1423.18 2290.6,47.2441 "/>
<polyline clip-path="url(#clip432)" style="stroke:#000000; stroke-linecap:round; stroke-linejoin:round; stroke-width:2; stroke-opacity:0.1; fill:none" points="156.598,1270.84 2352.76,1270.84 "/>
<polyline clip-path="url(#clip432)" style="stroke:#000000; stroke-linecap:round; stroke-linejoin:round; stroke-width:2; stroke-opacity:0.1; fill:none" points="156.598,1104.45 2352.76,1104.45 "/>
<polyline clip-path="url(#clip432)" style="stroke:#000000; stroke-linecap:round; stroke-linejoin:round; stroke-width:2; stroke-opacity:0.1; fill:none" points="156.598,938.066 2352.76,938.066 "/>
<polyline clip-path="url(#clip432)" style="stroke:#000000; stroke-linecap:round; stroke-linejoin:round; stroke-width:2; stroke-opacity:0.1; fill:none" points="156.598,771.68 2352.76,771.68 "/>
<polyline clip-path="url(#clip432)" style="stroke:#000000; stroke-linecap:round; stroke-linejoin:round; stroke-width:2; stroke-opacity:0.1; fill:none" points="156.598,605.294 2352.76,605.294 "/>
<polyline clip-path="url(#clip432)" style="stroke:#000000; stroke-linecap:round; stroke-linejoin:round; stroke-width:2; stroke-opacity:0.1; fill:none" points="156.598,438.908 2352.76,438.908 "/>
<polyline clip-path="url(#clip432)" style="stroke:#000000; stroke-linecap:round; stroke-linejoin:round; stroke-width:2; stroke-opacity:0.1; fill:none" points="156.598,272.522 2352.76,272.522 "/>
<polyline clip-path="url(#clip432)" style="stroke:#000000; stroke-linecap:round; stroke-linejoin:round; stroke-width:2; stroke-opacity:0.1; fill:none" points="156.598,106.136 2352.76,106.136 "/>
<polyline clip-path="url(#clip430)" style="stroke:#000000; stroke-linecap:round; stroke-linejoin:round; stroke-width:4; stroke-opacity:1; fill:none" points="156.598,1423.18 2352.76,1423.18 "/>
<polyline clip-path="url(#clip430)" style="stroke:#000000; stroke-linecap:round; stroke-linejoin:round; stroke-width:4; stroke-opacity:1; fill:none" points="448.959,1423.18 448.959,1404.28 "/>
<polyline clip-path="url(#clip430)" style="stroke:#000000; stroke-linecap:round; stroke-linejoin:round; stroke-width:4; stroke-opacity:1; fill:none" points="909.369,1423.18 909.369,1404.28 "/>
<polyline clip-path="url(#clip430)" style="stroke:#000000; stroke-linecap:round; stroke-linejoin:round; stroke-width:4; stroke-opacity:1; fill:none" points="1369.78,1423.18 1369.78,1404.28 "/>
<polyline clip-path="url(#clip430)" style="stroke:#000000; stroke-linecap:round; stroke-linejoin:round; stroke-width:4; stroke-opacity:1; fill:none" points="1830.19,1423.18 1830.19,1404.28 "/>
<polyline clip-path="url(#clip430)" style="stroke:#000000; stroke-linecap:round; stroke-linejoin:round; stroke-width:4; stroke-opacity:1; fill:none" points="2290.6,1423.18 2290.6,1404.28 "/>
<path clip-path="url(#clip430)" d="M443.612 1481.64 L459.931 1481.64 L459.931 1485.58 L437.987 1485.58 L437.987 1481.64 Q440.649 1478.89 445.232 1474.26 Q449.838 1469.61 451.019 1468.27 Q453.264 1465.74 454.144 1464.01 Q455.047 1462.25 455.047 1460.56 Q455.047 1457.8 453.102 1456.07 Q451.181 1454.33 448.079 1454.33 Q445.88 1454.33 443.426 1455.09 Q440.996 1455.86 438.218 1457.41 L438.218 1452.69 Q441.042 1451.55 443.496 1450.97 Q445.95 1450.39 447.987 1450.39 Q453.357 1450.39 456.551 1453.08 Q459.746 1455.77 459.746 1460.26 Q459.746 1462.39 458.936 1464.31 Q458.149 1466.2 456.042 1468.8 Q455.463 1469.47 452.362 1472.69 Q449.26 1475.88 443.612 1481.64 Z" fill="#000000" fill-rule="nonzero" fill-opacity="1" /><path clip-path="url(#clip430)" d="M912.379 1455.09 L900.573 1473.54 L912.379 1473.54 L912.379 1455.09 M911.152 1451.02 L917.031 1451.02 L917.031 1473.54 L921.962 1473.54 L921.962 1477.43 L917.031 1477.43 L917.031 1485.58 L912.379 1485.58 L912.379 1477.43 L896.777 1477.43 L896.777 1472.92 L911.152 1451.02 Z" fill="#000000" fill-rule="nonzero" fill-opacity="1" /><path clip-path="url(#clip430)" d="M1370.18 1466.44 Q1367.04 1466.44 1365.18 1468.59 Q1363.36 1470.74 1363.36 1474.49 Q1363.36 1478.22 1365.18 1480.39 Q1367.04 1482.55 1370.18 1482.55 Q1373.33 1482.55 1375.16 1480.39 Q1377.01 1478.22 1377.01 1474.49 Q1377.01 1470.74 1375.16 1468.59 Q1373.33 1466.44 1370.18 1466.44 M1379.47 1451.78 L1379.47 1456.04 Q1377.71 1455.21 1375.9 1454.77 Q1374.12 1454.33 1372.36 1454.33 Q1367.73 1454.33 1365.28 1457.45 Q1362.85 1460.58 1362.5 1466.9 Q1363.87 1464.89 1365.93 1463.82 Q1367.99 1462.73 1370.46 1462.73 Q1375.67 1462.73 1378.68 1465.9 Q1381.71 1469.05 1381.71 1474.49 Q1381.71 1479.82 1378.56 1483.03 Q1375.42 1486.25 1370.18 1486.25 Q1364.19 1486.25 1361.02 1481.67 Q1357.85 1477.06 1357.85 1468.33 Q1357.85 1460.14 1361.74 1455.28 Q1365.62 1450.39 1372.18 1450.39 Q1373.93 1450.39 1375.72 1450.74 Q1377.52 1451.09 1379.47 1451.78 Z" fill="#000000" fill-rule="nonzero" fill-opacity="1" /><path clip-path="url(#clip430)" d="M1830.19 1469.17 Q1826.86 1469.17 1824.94 1470.95 Q1823.04 1472.73 1823.04 1475.86 Q1823.04 1478.98 1824.94 1480.77 Q1826.86 1482.55 1830.19 1482.55 Q1833.52 1482.55 1835.44 1480.77 Q1837.37 1478.96 1837.37 1475.86 Q1837.37 1472.73 1835.44 1470.95 Q1833.55 1469.17 1830.19 1469.17 M1825.51 1467.18 Q1822.5 1466.44 1820.82 1464.38 Q1819.15 1462.32 1819.15 1459.35 Q1819.15 1455.21 1822.09 1452.8 Q1825.05 1450.39 1830.19 1450.39 Q1835.35 1450.39 1838.29 1452.8 Q1841.23 1455.21 1841.23 1459.35 Q1841.23 1462.32 1839.54 1464.38 Q1837.88 1466.44 1834.89 1467.18 Q1838.27 1467.96 1840.14 1470.26 Q1842.04 1472.55 1842.04 1475.86 Q1842.04 1480.88 1838.96 1483.57 Q1835.91 1486.25 1830.19 1486.25 Q1824.47 1486.25 1821.39 1483.57 Q1818.34 1480.88 1818.34 1475.86 Q1818.34 1472.55 1820.24 1470.26 Q1822.13 1467.96 1825.51 1467.18 M1823.8 1459.79 Q1823.8 1462.48 1825.47 1463.98 Q1827.16 1465.49 1830.19 1465.49 Q1833.2 1465.49 1834.89 1463.98 Q1836.6 1462.48 1836.6 1459.79 Q1836.6 1457.11 1834.89 1455.6 Q1833.2 1454.1 1830.19 1454.1 Q1827.16 1454.1 1825.47 1455.6 Q1823.8 1457.11 1823.8 1459.79 Z" fill="#000000" fill-rule="nonzero" fill-opacity="1" /><path clip-path="url(#clip430)" d="M2265.29 1481.64 L2272.93 1481.64 L2272.93 1455.28 L2264.62 1456.95 L2264.62 1452.69 L2272.88 1451.02 L2277.56 1451.02 L2277.56 1481.64 L2285.2 1481.64 L2285.2 1485.58 L2265.29 1485.58 L2265.29 1481.64 Z" fill="#000000" fill-rule="nonzero" fill-opacity="1" /><path clip-path="url(#clip430)" d="M2304.64 1454.1 Q2301.03 1454.1 2299.2 1457.66 Q2297.39 1461.2 2297.39 1468.33 Q2297.39 1475.44 2299.2 1479.01 Q2301.03 1482.55 2304.64 1482.55 Q2308.27 1482.55 2310.08 1479.01 Q2311.91 1475.44 2311.91 1468.33 Q2311.91 1461.2 2310.08 1457.66 Q2308.27 1454.1 2304.64 1454.1 M2304.64 1450.39 Q2310.45 1450.39 2313.51 1455 Q2316.58 1459.58 2316.58 1468.33 Q2316.58 1477.06 2313.51 1481.67 Q2310.45 1486.25 2304.64 1486.25 Q2298.83 1486.25 2295.75 1481.67 Q2292.7 1477.06 2292.7 1468.33 Q2292.7 1459.58 2295.75 1455 Q2298.83 1450.39 2304.64 1450.39 Z" fill="#000000" fill-rule="nonzero" fill-opacity="1" /><path clip-path="url(#clip430)" d="M1174.87 1548.76 L1174.87 1551.62 L1147.94 1551.62 Q1148.32 1557.67 1151.57 1560.85 Q1154.85 1564 1160.67 1564 Q1164.05 1564 1167.2 1563.17 Q1170.38 1562.35 1173.5 1560.69 L1173.5 1566.23 Q1170.35 1567.57 1167.04 1568.27 Q1163.73 1568.97 1160.32 1568.97 Q1151.79 1568.97 1146.79 1564 Q1141.83 1559.04 1141.83 1550.57 Q1141.83 1541.82 1146.54 1536.69 Q1151.28 1531.54 1159.3 1531.54 Q1166.5 1531.54 1170.67 1536.18 Q1174.87 1540.8 1174.87 1548.76 M1169.01 1547.04 Q1168.95 1542.23 1166.31 1539.37 Q1163.7 1536.5 1159.37 1536.5 Q1154.46 1536.5 1151.5 1539.27 Q1148.58 1542.04 1148.13 1547.07 L1169.01 1547.04 Z" fill="#000000" fill-rule="nonzero" fill-opacity="1" /><path clip-path="url(#clip430)" d="M1190.14 1562.7 L1190.14 1581.6 L1184.26 1581.6 L1184.26 1532.4 L1190.14 1532.4 L1190.14 1537.81 Q1191.99 1534.62 1194.79 1533.1 Q1197.62 1531.54 1201.54 1531.54 Q1208.03 1531.54 1212.07 1536.69 Q1216.15 1541.85 1216.15 1550.25 Q1216.15 1558.65 1212.07 1563.81 Q1208.03 1568.97 1201.54 1568.97 Q1197.62 1568.97 1194.79 1567.44 Q1191.99 1565.88 1190.14 1562.7 M1210.07 1550.25 Q1210.07 1543.79 1207.4 1540.13 Q1204.75 1536.44 1200.11 1536.44 Q1195.46 1536.44 1192.79 1540.13 Q1190.14 1543.79 1190.14 1550.25 Q1190.14 1556.71 1192.79 1560.4 Q1195.46 1564.07 1200.11 1564.07 Q1204.75 1564.07 1207.4 1560.4 Q1210.07 1556.71 1210.07 1550.25 Z" fill="#000000" fill-rule="nonzero" fill-opacity="1" /><path clip-path="url(#clip430)" d="M1239.67 1536.5 Q1234.96 1536.5 1232.22 1540.19 Q1229.48 1543.85 1229.48 1550.25 Q1229.48 1556.65 1232.19 1560.34 Q1234.93 1564 1239.67 1564 Q1244.35 1564 1247.09 1560.31 Q1249.82 1556.62 1249.82 1550.25 Q1249.82 1543.92 1247.09 1540.23 Q1244.35 1536.5 1239.67 1536.5 M1239.67 1531.54 Q1247.31 1531.54 1251.67 1536.5 Q1256.03 1541.47 1256.03 1550.25 Q1256.03 1559 1251.67 1564 Q1247.31 1568.97 1239.67 1568.97 Q1232 1568.97 1227.64 1564 Q1223.31 1559 1223.31 1550.25 Q1223.31 1541.47 1227.64 1536.5 Q1232 1531.54 1239.67 1531.54 Z" fill="#000000" fill-rule="nonzero" fill-opacity="1" /><path clip-path="url(#clip430)" d="M1291.39 1533.76 L1291.39 1539.24 Q1288.91 1537.87 1286.39 1537.2 Q1283.91 1536.5 1281.37 1536.5 Q1275.67 1536.5 1272.52 1540.13 Q1269.37 1543.73 1269.37 1550.25 Q1269.37 1556.78 1272.52 1560.4 Q1275.67 1564 1281.37 1564 Q1283.91 1564 1286.39 1563.33 Q1288.91 1562.63 1291.39 1561.26 L1291.39 1566.68 Q1288.94 1567.82 1286.3 1568.39 Q1283.69 1568.97 1280.73 1568.97 Q1272.68 1568.97 1267.93 1563.91 Q1263.19 1558.85 1263.19 1550.25 Q1263.19 1541.53 1267.97 1536.53 Q1272.77 1531.54 1281.11 1531.54 Q1283.82 1531.54 1286.39 1532.11 Q1288.97 1532.65 1291.39 1533.76 Z" fill="#000000" fill-rule="nonzero" fill-opacity="1" /><path clip-path="url(#clip430)" d="M1331.21 1546.53 L1331.21 1568.04 L1325.35 1568.04 L1325.35 1546.72 Q1325.35 1541.66 1323.38 1539.14 Q1321.41 1536.63 1317.46 1536.63 Q1312.72 1536.63 1309.98 1539.65 Q1307.24 1542.68 1307.24 1547.9 L1307.24 1568.04 L1301.35 1568.04 L1301.35 1518.52 L1307.24 1518.52 L1307.24 1537.93 Q1309.34 1534.72 1312.18 1533.13 Q1315.04 1531.54 1318.76 1531.54 Q1324.91 1531.54 1328.06 1535.36 Q1331.21 1539.14 1331.21 1546.53 Z" fill="#000000" fill-rule="nonzero" fill-opacity="1" /><path clip-path="url(#clip430)" d="M1365.62 1533.45 L1365.62 1538.98 Q1363.13 1537.71 1360.46 1537.07 Q1357.79 1536.44 1354.92 1536.44 Q1350.56 1536.44 1348.36 1537.77 Q1346.2 1539.11 1346.2 1541.79 Q1346.2 1543.82 1347.76 1545 Q1349.32 1546.15 1354.03 1547.2 L1356.04 1547.64 Q1362.27 1548.98 1364.88 1551.43 Q1367.53 1553.85 1367.53 1558.21 Q1367.53 1563.17 1363.58 1566.07 Q1359.66 1568.97 1352.79 1568.97 Q1349.92 1568.97 1346.8 1568.39 Q1343.72 1567.85 1340.28 1566.74 L1340.28 1560.69 Q1343.53 1562.38 1346.68 1563.24 Q1349.83 1564.07 1352.92 1564.07 Q1357.05 1564.07 1359.28 1562.66 Q1361.51 1561.23 1361.51 1558.65 Q1361.51 1556.27 1359.89 1554.99 Q1358.29 1553.72 1352.85 1552.54 L1350.82 1552.07 Q1345.37 1550.92 1342.95 1548.56 Q1340.53 1546.18 1340.53 1542.04 Q1340.53 1537.01 1344.1 1534.27 Q1347.66 1531.54 1354.22 1531.54 Q1357.47 1531.54 1360.33 1532.01 Q1363.2 1532.49 1365.62 1533.45 Z" fill="#000000" fill-rule="nonzero" fill-opacity="1" /><polyline clip-path="url(#clip430)" style="stroke:#000000; stroke-linecap:round; stroke-linejoin:round; stroke-width:4; stroke-opacity:1; fill:none" points="156.598,1423.18 156.598,47.2441 "/>
<polyline clip-path="url(#clip430)" style="stroke:#000000; stroke-linecap:round; stroke-linejoin:round; stroke-width:4; stroke-opacity:1; fill:none" points="156.598,1270.84 175.496,1270.84 "/>
<polyline clip-path="url(#clip430)" style="stroke:#000000; stroke-linecap:round; stroke-linejoin:round; stroke-width:4; stroke-opacity:1; fill:none" points="156.598,1104.45 175.496,1104.45 "/>
<polyline clip-path="url(#clip430)" style="stroke:#000000; stroke-linecap:round; stroke-linejoin:round; stroke-width:4; stroke-opacity:1; fill:none" points="156.598,938.066 175.496,938.066 "/>
<polyline clip-path="url(#clip430)" style="stroke:#000000; stroke-linecap:round; stroke-linejoin:round; stroke-width:4; stroke-opacity:1; fill:none" points="156.598,771.68 175.496,771.68 "/>
<polyline clip-path="url(#clip430)" style="stroke:#000000; stroke-linecap:round; stroke-linejoin:round; stroke-width:4; stroke-opacity:1; fill:none" points="156.598,605.294 175.496,605.294 "/>
<polyline clip-path="url(#clip430)" style="stroke:#000000; stroke-linecap:round; stroke-linejoin:round; stroke-width:4; stroke-opacity:1; fill:none" points="156.598,438.908 175.496,438.908 "/>
<polyline clip-path="url(#clip430)" style="stroke:#000000; stroke-linecap:round; stroke-linejoin:round; stroke-width:4; stroke-opacity:1; fill:none" points="156.598,272.522 175.496,272.522 "/>
<polyline clip-path="url(#clip430)" style="stroke:#000000; stroke-linecap:round; stroke-linejoin:round; stroke-width:4; stroke-opacity:1; fill:none" points="156.598,106.136 175.496,106.136 "/>
<path clip-path="url(#clip430)" d="M62.9365 1256.64 Q59.3254 1256.64 57.4967 1260.2 Q55.6912 1263.74 55.6912 1270.87 Q55.6912 1277.98 57.4967 1281.54 Q59.3254 1285.09 62.9365 1285.09 Q66.5707 1285.09 68.3763 1281.54 Q70.205 1277.98 70.205 1270.87 Q70.205 1263.74 68.3763 1260.2 Q66.5707 1256.64 62.9365 1256.64 M62.9365 1252.93 Q68.7467 1252.93 71.8022 1257.54 Q74.8809 1262.12 74.8809 1270.87 Q74.8809 1279.6 71.8022 1284.21 Q68.7467 1288.79 62.9365 1288.79 Q57.1264 1288.79 54.0477 1284.21 Q50.9921 1279.6 50.9921 1270.87 Q50.9921 1262.12 54.0477 1257.54 Q57.1264 1252.93 62.9365 1252.93 Z" fill="#000000" fill-rule="nonzero" fill-opacity="1" /><path clip-path="url(#clip430)" d="M83.0984 1282.24 L87.9827 1282.24 L87.9827 1288.12 L83.0984 1288.12 L83.0984 1282.24 Z" fill="#000000" fill-rule="nonzero" fill-opacity="1" /><path clip-path="url(#clip430)" d="M111.015 1257.63 L99.2095 1276.08 L111.015 1276.08 L111.015 1257.63 M109.788 1253.56 L115.668 1253.56 L115.668 1276.08 L120.598 1276.08 L120.598 1279.97 L115.668 1279.97 L115.668 1288.12 L111.015 1288.12 L111.015 1279.97 L95.4132 1279.97 L95.4132 1275.46 L109.788 1253.56 Z" fill="#000000" fill-rule="nonzero" fill-opacity="1" /><path clip-path="url(#clip430)" d="M63.2606 1090.25 Q59.6495 1090.25 57.8208 1093.82 Q56.0152 1097.36 56.0152 1104.49 Q56.0152 1111.59 57.8208 1115.16 Q59.6495 1118.7 63.2606 1118.7 Q66.8948 1118.7 68.7004 1115.16 Q70.5291 1111.59 70.5291 1104.49 Q70.5291 1097.36 68.7004 1093.82 Q66.8948 1090.25 63.2606 1090.25 M63.2606 1086.55 Q69.0707 1086.55 72.1263 1091.15 Q75.205 1095.74 75.205 1104.49 Q75.205 1113.21 72.1263 1117.82 Q69.0707 1122.4 63.2606 1122.4 Q57.4504 1122.4 54.3717 1117.82 Q51.3162 1113.21 51.3162 1104.49 Q51.3162 1095.74 54.3717 1091.15 Q57.4504 1086.55 63.2606 1086.55 Z" fill="#000000" fill-rule="nonzero" fill-opacity="1" /><path clip-path="url(#clip430)" d="M83.4225 1115.85 L88.3067 1115.85 L88.3067 1121.73 L83.4225 1121.73 L83.4225 1115.85 Z" fill="#000000" fill-rule="nonzero" fill-opacity="1" /><path clip-path="url(#clip430)" d="M109.071 1102.59 Q105.922 1102.59 104.071 1104.74 Q102.242 1106.89 102.242 1110.64 Q102.242 1114.37 104.071 1116.55 Q105.922 1118.7 109.071 1118.7 Q112.219 1118.7 114.047 1116.55 Q115.899 1114.37 115.899 1110.64 Q115.899 1106.89 114.047 1104.74 Q112.219 1102.59 109.071 1102.59 M118.353 1087.94 L118.353 1092.19 Q116.594 1091.36 114.788 1090.92 Q113.006 1090.48 111.246 1090.48 Q106.617 1090.48 104.163 1093.61 Q101.733 1096.73 101.385 1103.05 Q102.751 1101.04 104.811 1099.97 Q106.871 1098.88 109.348 1098.88 Q114.557 1098.88 117.566 1102.06 Q120.598 1105.2 120.598 1110.64 Q120.598 1115.97 117.45 1119.19 Q114.302 1122.4 109.071 1122.4 Q103.075 1122.4 99.9039 1117.82 Q96.7326 1113.21 96.7326 1104.49 Q96.7326 1096.29 100.621 1091.43 Q104.51 1086.55 111.061 1086.55 Q112.82 1086.55 114.603 1086.89 Q116.408 1087.24 118.353 1087.94 Z" fill="#000000" fill-rule="nonzero" fill-opacity="1" /><path clip-path="url(#clip430)" d="M63.5152 923.864 Q59.9041 923.864 58.0754 927.429 Q56.2699 930.971 56.2699 938.1 Q56.2699 945.207 58.0754 948.772 Q59.9041 952.313 63.5152 952.313 Q67.1494 952.313 68.955 948.772 Q70.7837 945.207 70.7837 938.1 Q70.7837 930.971 68.955 927.429 Q67.1494 923.864 63.5152 923.864 M63.5152 920.161 Q69.3254 920.161 72.3809 924.767 Q75.4596 929.35 75.4596 938.1 Q75.4596 946.827 72.3809 951.434 Q69.3254 956.017 63.5152 956.017 Q57.7051 956.017 54.6264 951.434 Q51.5708 946.827 51.5708 938.1 Q51.5708 929.35 54.6264 924.767 Q57.7051 920.161 63.5152 920.161 Z" fill="#000000" fill-rule="nonzero" fill-opacity="1" /><path clip-path="url(#clip430)" d="M83.6771 949.466 L88.5614 949.466 L88.5614 955.346 L83.6771 955.346 L83.6771 949.466 Z" fill="#000000" fill-rule="nonzero" fill-opacity="1" /><path clip-path="url(#clip430)" d="M108.746 938.934 Q105.413 938.934 103.492 940.716 Q101.594 942.498 101.594 945.623 Q101.594 948.748 103.492 950.531 Q105.413 952.313 108.746 952.313 Q112.08 952.313 114.001 950.531 Q115.922 948.725 115.922 945.623 Q115.922 942.498 114.001 940.716 Q112.103 938.934 108.746 938.934 M104.071 936.943 Q101.061 936.202 99.3715 934.142 Q97.7048 932.082 97.7048 929.119 Q97.7048 924.975 100.645 922.568 Q103.608 920.161 108.746 920.161 Q113.908 920.161 116.848 922.568 Q119.788 924.975 119.788 929.119 Q119.788 932.082 118.098 934.142 Q116.432 936.202 113.445 936.943 Q116.825 937.73 118.7 940.022 Q120.598 942.313 120.598 945.623 Q120.598 950.647 117.52 953.332 Q114.464 956.017 108.746 956.017 Q103.029 956.017 99.9502 953.332 Q96.8947 950.647 96.8947 945.623 Q96.8947 942.313 98.7928 940.022 Q100.691 937.73 104.071 936.943 M102.358 929.559 Q102.358 932.244 104.024 933.748 Q105.714 935.253 108.746 935.253 Q111.756 935.253 113.445 933.748 Q115.158 932.244 115.158 929.559 Q115.158 926.874 113.445 925.369 Q111.756 923.864 108.746 923.864 Q105.714 923.864 104.024 925.369 Q102.358 926.874 102.358 929.559 Z" fill="#000000" fill-rule="nonzero" fill-opacity="1" /><path clip-path="url(#clip430)" d="M54.2328 785.025 L61.8717 785.025 L61.8717 758.659 L53.5616 760.326 L53.5616 756.066 L61.8254 754.4 L66.5013 754.4 L66.5013 785.025 L74.1402 785.025 L74.1402 788.96 L54.2328 788.96 L54.2328 785.025 Z" fill="#000000" fill-rule="nonzero" fill-opacity="1" /><path clip-path="url(#clip430)" d="M83.5845 783.08 L88.4688 783.08 L88.4688 788.96 L83.5845 788.96 L83.5845 783.08 Z" fill="#000000" fill-rule="nonzero" fill-opacity="1" /><path clip-path="url(#clip430)" d="M108.654 757.478 Q105.043 757.478 103.214 761.043 Q101.409 764.585 101.409 771.714 Q101.409 778.821 103.214 782.386 Q105.043 785.927 108.654 785.927 Q112.288 785.927 114.094 782.386 Q115.922 778.821 115.922 771.714 Q115.922 764.585 114.094 761.043 Q112.288 757.478 108.654 757.478 M108.654 753.775 Q114.464 753.775 117.52 758.381 Q120.598 762.964 120.598 771.714 Q120.598 780.441 117.52 785.048 Q114.464 789.631 108.654 789.631 Q102.844 789.631 99.765 785.048 Q96.7095 780.441 96.7095 771.714 Q96.7095 762.964 99.765 758.381 Q102.844 753.775 108.654 753.775 Z" fill="#000000" fill-rule="nonzero" fill-opacity="1" /><path clip-path="url(#clip430)" d="M55.8301 618.639 L63.4689 618.639 L63.4689 592.273 L55.1588 593.94 L55.1588 589.68 L63.4226 588.014 L68.0985 588.014 L68.0985 618.639 L75.7374 618.639 L75.7374 622.574 L55.8301 622.574 L55.8301 618.639 Z" fill="#000000" fill-rule="nonzero" fill-opacity="1" /><path clip-path="url(#clip430)" d="M85.1818 616.694 L90.066 616.694 L90.066 622.574 L85.1818 622.574 L85.1818 616.694 Z" fill="#000000" fill-rule="nonzero" fill-opacity="1" /><path clip-path="url(#clip430)" d="M104.279 618.639 L120.598 618.639 L120.598 622.574 L98.6539 622.574 L98.6539 618.639 Q101.316 615.884 105.899 611.254 Q110.506 606.602 111.686 605.259 Q113.932 602.736 114.811 601 Q115.714 599.241 115.714 597.551 Q115.714 594.796 113.77 593.06 Q111.848 591.324 108.746 591.324 Q106.547 591.324 104.094 592.088 Q101.663 592.852 98.8854 594.403 L98.8854 589.68 Q101.709 588.546 104.163 587.967 Q106.617 587.389 108.654 587.389 Q114.024 587.389 117.219 590.074 Q120.413 592.759 120.413 597.25 Q120.413 599.379 119.603 601.301 Q118.816 603.199 116.709 605.791 Q116.131 606.463 113.029 609.68 Q109.927 612.875 104.279 618.639 Z" fill="#000000" fill-rule="nonzero" fill-opacity="1" /><path clip-path="url(#clip430)" d="M53.7467 452.253 L61.3856 452.253 L61.3856 425.887 L53.0754 427.554 L53.0754 423.295 L61.3393 421.628 L66.0152 421.628 L66.0152 452.253 L73.654 452.253 L73.654 456.188 L53.7467 456.188 L53.7467 452.253 Z" fill="#000000" fill-rule="nonzero" fill-opacity="1" /><path clip-path="url(#clip430)" d="M83.0984 450.308 L87.9827 450.308 L87.9827 456.188 L83.0984 456.188 L83.0984 450.308 Z" fill="#000000" fill-rule="nonzero" fill-opacity="1" /><path clip-path="url(#clip430)" d="M111.015 425.702 L99.2095 444.151 L111.015 444.151 L111.015 425.702 M109.788 421.628 L115.668 421.628 L115.668 444.151 L120.598 444.151 L120.598 448.04 L115.668 448.04 L115.668 456.188 L111.015 456.188 L111.015 448.04 L95.4132 448.04 L95.4132 443.526 L109.788 421.628 Z" fill="#000000" fill-rule="nonzero" fill-opacity="1" /><path clip-path="url(#clip430)" d="M54.0708 285.867 L61.7097 285.867 L61.7097 259.501 L53.3995 261.168 L53.3995 256.909 L61.6634 255.242 L66.3393 255.242 L66.3393 285.867 L73.9781 285.867 L73.9781 289.802 L54.0708 289.802 L54.0708 285.867 Z" fill="#000000" fill-rule="nonzero" fill-opacity="1" /><path clip-path="url(#clip430)" d="M83.4225 283.922 L88.3067 283.922 L88.3067 289.802 L83.4225 289.802 L83.4225 283.922 Z" fill="#000000" fill-rule="nonzero" fill-opacity="1" /><path clip-path="url(#clip430)" d="M109.071 270.659 Q105.922 270.659 104.071 272.811 Q102.242 274.964 102.242 278.714 Q102.242 282.441 104.071 284.617 Q105.922 286.77 109.071 286.77 Q112.219 286.77 114.047 284.617 Q115.899 282.441 115.899 278.714 Q115.899 274.964 114.047 272.811 Q112.219 270.659 109.071 270.659 M118.353 256.006 L118.353 260.265 Q116.594 259.432 114.788 258.992 Q113.006 258.552 111.246 258.552 Q106.617 258.552 104.163 261.677 Q101.733 264.802 101.385 271.121 Q102.751 269.108 104.811 268.043 Q106.871 266.955 109.348 266.955 Q114.557 266.955 117.566 270.126 Q120.598 273.274 120.598 278.714 Q120.598 284.038 117.45 287.256 Q114.302 290.473 109.071 290.473 Q103.075 290.473 99.9039 285.89 Q96.7326 281.283 96.7326 272.557 Q96.7326 264.362 100.621 259.501 Q104.51 254.617 111.061 254.617 Q112.82 254.617 114.603 254.964 Q116.408 255.311 118.353 256.006 Z" fill="#000000" fill-rule="nonzero" fill-opacity="1" /><path clip-path="url(#clip430)" d="M54.3254 119.481 L61.9643 119.481 L61.9643 93.1153 L53.6541 94.7819 L53.6541 90.5227 L61.918 88.856 L66.5939 88.856 L66.5939 119.481 L74.2327 119.481 L74.2327 123.416 L54.3254 123.416 L54.3254 119.481 Z" fill="#000000" fill-rule="nonzero" fill-opacity="1" /><path clip-path="url(#clip430)" d="M83.6771 117.536 L88.5614 117.536 L88.5614 123.416 L83.6771 123.416 L83.6771 117.536 Z" fill="#000000" fill-rule="nonzero" fill-opacity="1" /><path clip-path="url(#clip430)" d="M108.746 107.004 Q105.413 107.004 103.492 108.786 Q101.594 110.569 101.594 113.694 Q101.594 116.819 103.492 118.601 Q105.413 120.384 108.746 120.384 Q112.08 120.384 114.001 118.601 Q115.922 116.796 115.922 113.694 Q115.922 110.569 114.001 108.786 Q112.103 107.004 108.746 107.004 M104.071 105.013 Q101.061 104.273 99.3715 102.212 Q97.7048 100.152 97.7048 97.1893 Q97.7048 93.0458 100.645 90.6384 Q103.608 88.231 108.746 88.231 Q113.908 88.231 116.848 90.6384 Q119.788 93.0458 119.788 97.1893 Q119.788 100.152 118.098 102.212 Q116.432 104.273 113.445 105.013 Q116.825 105.8 118.7 108.092 Q120.598 110.384 120.598 113.694 Q120.598 118.717 117.52 121.402 Q114.464 124.087 108.746 124.087 Q103.029 124.087 99.9502 121.402 Q96.8947 118.717 96.8947 113.694 Q96.8947 110.384 98.7928 108.092 Q100.691 105.8 104.071 105.013 M102.358 97.6291 Q102.358 100.314 104.024 101.819 Q105.714 103.324 108.746 103.324 Q111.756 103.324 113.445 101.819 Q115.158 100.314 115.158 97.6291 Q115.158 94.9439 113.445 93.4393 Q111.756 91.9347 108.746 91.9347 Q105.714 91.9347 104.024 93.4393 Q102.358 94.9439 102.358 97.6291 Z" fill="#000000" fill-rule="nonzero" fill-opacity="1" /><polyline clip-path="url(#clip432)" style="stroke:#009af9; stroke-linecap:round; stroke-linejoin:round; stroke-width:4; stroke-opacity:1; fill:none" points="218.754,86.1857 448.959,980.4 679.164,1172.88 909.369,1246.82 1139.57,1293.56 1369.78,1258.7 1599.98,1319.38 1830.19,1352.9 2060.4,1369.56 2290.6,1384.24 "/>
<polyline clip-path="url(#clip432)" style="stroke:#e26f46; stroke-linecap:round; stroke-linejoin:round; stroke-width:4; stroke-opacity:1; fill:none" points="218.754,667.209 448.959,1065.2 679.164,1134.17 909.369,1168.11 1139.57,1188.55 1369.78,1166.87 1599.98,1206.94 1830.19,1278.71 2060.4,1283.98 2290.6,1299.52 "/>
<polyline clip-path="url(#clip432)" style="stroke:#3da44d; stroke-linecap:round; stroke-linejoin:round; stroke-width:4; stroke-opacity:1; fill:none" points="218.754,1131.04 448.959,974.397 679.164,943.134 909.369,932.521 1139.57,936.552 1369.78,921.907 1599.98,919.193 1830.19,890.644 2060.4,888.176 2290.6,882.664 "/>
<path clip-path="url(#clip430)" d="M1837.9 300.469 L2279.55 300.469 L2279.55 93.1086 L1837.9 93.1086  Z" fill="#ffffff" fill-rule="evenodd" fill-opacity="1"/>
<polyline clip-path="url(#clip430)" style="stroke:#000000; stroke-linecap:round; stroke-linejoin:round; stroke-width:4; stroke-opacity:1; fill:none" points="1837.9,300.469 2279.55,300.469 2279.55,93.1086 1837.9,93.1086 1837.9,300.469 "/>
<polyline clip-path="url(#clip430)" style="stroke:#009af9; stroke-linecap:round; stroke-linejoin:round; stroke-width:4; stroke-opacity:1; fill:none" points="1862.3,144.949 2008.71,144.949 "/>
<path clip-path="url(#clip430)" d="M2040.52 128.942 L2040.52 136.303 L2049.29 136.303 L2049.29 139.613 L2040.52 139.613 L2040.52 153.687 Q2040.52 156.858 2041.38 157.761 Q2042.26 158.664 2044.92 158.664 L2049.29 158.664 L2049.29 162.229 L2044.92 162.229 Q2039.99 162.229 2038.11 160.4 Q2036.24 158.548 2036.24 153.687 L2036.24 139.613 L2033.11 139.613 L2033.11 136.303 L2036.24 136.303 L2036.24 128.942 L2040.52 128.942 Z" fill="#000000" fill-rule="nonzero" fill-opacity="1" /><path clip-path="url(#clip430)" d="M2069.92 140.284 Q2069.2 139.868 2068.34 139.682 Q2067.51 139.474 2066.49 139.474 Q2062.88 139.474 2060.94 141.835 Q2059.02 144.173 2059.02 148.571 L2059.02 162.229 L2054.73 162.229 L2054.73 136.303 L2059.02 136.303 L2059.02 140.331 Q2060.36 137.969 2062.51 136.835 Q2064.66 135.678 2067.74 135.678 Q2068.18 135.678 2068.71 135.747 Q2069.25 135.794 2069.9 135.909 L2069.92 140.284 Z" fill="#000000" fill-rule="nonzero" fill-opacity="1" /><path clip-path="url(#clip430)" d="M2086.17 149.196 Q2081.01 149.196 2079.02 150.377 Q2077.02 151.557 2077.02 154.405 Q2077.02 156.673 2078.51 158.016 Q2080.01 159.335 2082.58 159.335 Q2086.12 159.335 2088.25 156.835 Q2090.4 154.312 2090.4 150.145 L2090.4 149.196 L2086.17 149.196 M2094.66 147.437 L2094.66 162.229 L2090.4 162.229 L2090.4 158.293 Q2088.95 160.655 2086.77 161.789 Q2084.59 162.9 2081.45 162.9 Q2077.46 162.9 2075.1 160.678 Q2072.77 158.432 2072.77 154.682 Q2072.77 150.307 2075.68 148.085 Q2078.62 145.863 2084.43 145.863 L2090.4 145.863 L2090.4 145.446 Q2090.4 142.507 2088.46 140.909 Q2086.54 139.289 2083.04 139.289 Q2080.82 139.289 2078.71 139.821 Q2076.61 140.354 2074.66 141.419 L2074.66 137.483 Q2077 136.581 2079.2 136.141 Q2081.4 135.678 2083.48 135.678 Q2089.11 135.678 2091.89 138.594 Q2094.66 141.511 2094.66 147.437 Z" fill="#000000" fill-rule="nonzero" fill-opacity="1" /><path clip-path="url(#clip430)" d="M2103.44 136.303 L2107.7 136.303 L2107.7 162.229 L2103.44 162.229 L2103.44 136.303 M2103.44 126.21 L2107.7 126.21 L2107.7 131.604 L2103.44 131.604 L2103.44 126.21 Z" fill="#000000" fill-rule="nonzero" fill-opacity="1" /><path clip-path="url(#clip430)" d="M2138.16 146.581 L2138.16 162.229 L2133.9 162.229 L2133.9 146.719 Q2133.9 143.039 2132.46 141.21 Q2131.03 139.382 2128.16 139.382 Q2124.71 139.382 2122.72 141.581 Q2120.73 143.78 2120.73 147.576 L2120.73 162.229 L2116.45 162.229 L2116.45 136.303 L2120.73 136.303 L2120.73 140.331 Q2122.26 137.993 2124.32 136.835 Q2126.4 135.678 2129.11 135.678 Q2133.58 135.678 2135.87 138.456 Q2138.16 141.21 2138.16 146.581 Z" fill="#000000" fill-rule="nonzero" fill-opacity="1" /><path clip-path="url(#clip430)" d="M2166.35 170.099 L2166.35 173.409 L2141.72 173.409 L2141.72 170.099 L2166.35 170.099 Z" fill="#000000" fill-rule="nonzero" fill-opacity="1" /><path clip-path="url(#clip430)" d="M2170.36 126.21 L2174.62 126.21 L2174.62 162.229 L2170.36 162.229 L2170.36 126.21 Z" fill="#000000" fill-rule="nonzero" fill-opacity="1" /><path clip-path="url(#clip430)" d="M2193.58 139.289 Q2190.15 139.289 2188.16 141.974 Q2186.17 144.636 2186.17 149.289 Q2186.17 153.942 2188.14 156.627 Q2190.13 159.289 2193.58 159.289 Q2196.98 159.289 2198.97 156.604 Q2200.96 153.918 2200.96 149.289 Q2200.96 144.682 2198.97 141.997 Q2196.98 139.289 2193.58 139.289 M2193.58 135.678 Q2199.13 135.678 2202.3 139.289 Q2205.47 142.9 2205.47 149.289 Q2205.47 155.655 2202.3 159.289 Q2199.13 162.9 2193.58 162.9 Q2188 162.9 2184.83 159.289 Q2181.68 155.655 2181.68 149.289 Q2181.68 142.9 2184.83 139.289 Q2188 135.678 2193.58 135.678 Z" fill="#000000" fill-rule="nonzero" fill-opacity="1" /><path clip-path="url(#clip430)" d="M2229.06 137.067 L2229.06 141.094 Q2227.26 140.169 2225.31 139.706 Q2223.37 139.243 2221.28 139.243 Q2218.11 139.243 2216.51 140.215 Q2214.94 141.187 2214.94 143.131 Q2214.94 144.613 2216.08 145.469 Q2217.21 146.303 2220.64 147.067 L2222.09 147.391 Q2226.63 148.363 2228.53 150.145 Q2230.45 151.905 2230.45 155.076 Q2230.45 158.687 2227.58 160.793 Q2224.73 162.9 2219.73 162.9 Q2217.65 162.9 2215.38 162.483 Q2213.14 162.09 2210.64 161.28 L2210.64 156.881 Q2213 158.108 2215.29 158.733 Q2217.58 159.335 2219.83 159.335 Q2222.83 159.335 2224.45 158.317 Q2226.07 157.275 2226.07 155.4 Q2226.07 153.664 2224.89 152.738 Q2223.74 151.812 2219.78 150.956 L2218.3 150.608 Q2214.34 149.775 2212.58 148.062 Q2210.82 146.326 2210.82 143.317 Q2210.82 139.659 2213.41 137.669 Q2216.01 135.678 2220.77 135.678 Q2223.14 135.678 2225.22 136.025 Q2227.3 136.372 2229.06 137.067 Z" fill="#000000" fill-rule="nonzero" fill-opacity="1" /><path clip-path="url(#clip430)" d="M2253.76 137.067 L2253.76 141.094 Q2251.95 140.169 2250.01 139.706 Q2248.07 139.243 2245.98 139.243 Q2242.81 139.243 2241.21 140.215 Q2239.64 141.187 2239.64 143.131 Q2239.64 144.613 2240.77 145.469 Q2241.91 146.303 2245.33 147.067 L2246.79 147.391 Q2251.33 148.363 2253.23 150.145 Q2255.15 151.905 2255.15 155.076 Q2255.15 158.687 2252.28 160.793 Q2249.43 162.9 2244.43 162.9 Q2242.35 162.9 2240.08 162.483 Q2237.83 162.09 2235.33 161.28 L2235.33 156.881 Q2237.7 158.108 2239.99 158.733 Q2242.28 159.335 2244.52 159.335 Q2247.53 159.335 2249.15 158.317 Q2250.77 157.275 2250.77 155.4 Q2250.77 153.664 2249.59 152.738 Q2248.44 151.812 2244.48 150.956 L2243 150.608 Q2239.04 149.775 2237.28 148.062 Q2235.52 146.326 2235.52 143.317 Q2235.52 139.659 2238.11 137.669 Q2240.7 135.678 2245.47 135.678 Q2247.83 135.678 2249.92 136.025 Q2252 136.372 2253.76 137.067 Z" fill="#000000" fill-rule="nonzero" fill-opacity="1" /><polyline clip-path="url(#clip430)" style="stroke:#e26f46; stroke-linecap:round; stroke-linejoin:round; stroke-width:4; stroke-opacity:1; fill:none" points="1862.3,196.789 2008.71,196.789 "/>
<path clip-path="url(#clip430)" d="M2033.11 188.143 L2037.63 188.143 L2045.73 209.902 L2053.83 188.143 L2058.34 188.143 L2048.62 214.069 L2042.84 214.069 L2033.11 188.143 Z" fill="#000000" fill-rule="nonzero" fill-opacity="1" /><path clip-path="url(#clip430)" d="M2076.01 201.036 Q2070.84 201.036 2068.85 202.217 Q2066.86 203.397 2066.86 206.245 Q2066.86 208.513 2068.34 209.856 Q2069.85 211.175 2072.42 211.175 Q2075.96 211.175 2078.09 208.675 Q2080.24 206.152 2080.24 201.985 L2080.24 201.036 L2076.01 201.036 M2084.5 199.277 L2084.5 214.069 L2080.24 214.069 L2080.24 210.133 Q2078.78 212.495 2076.61 213.629 Q2074.43 214.74 2071.28 214.74 Q2067.3 214.74 2064.94 212.518 Q2062.6 210.272 2062.6 206.522 Q2062.6 202.147 2065.52 199.925 Q2068.46 197.703 2074.27 197.703 L2080.24 197.703 L2080.24 197.286 Q2080.24 194.347 2078.3 192.749 Q2076.38 191.129 2072.88 191.129 Q2070.66 191.129 2068.55 191.661 Q2066.45 192.194 2064.5 193.259 L2064.5 189.323 Q2066.84 188.421 2069.04 187.981 Q2071.24 187.518 2073.32 187.518 Q2078.95 187.518 2081.72 190.434 Q2084.5 193.351 2084.5 199.277 Z" fill="#000000" fill-rule="nonzero" fill-opacity="1" /><path clip-path="url(#clip430)" d="M2093.27 178.05 L2097.53 178.05 L2097.53 214.069 L2093.27 214.069 L2093.27 178.05 Z" fill="#000000" fill-rule="nonzero" fill-opacity="1" /><path clip-path="url(#clip430)" d="M2126.14 221.939 L2126.14 225.249 L2101.52 225.249 L2101.52 221.939 L2126.14 221.939 Z" fill="#000000" fill-rule="nonzero" fill-opacity="1" /><path clip-path="url(#clip430)" d="M2130.15 178.05 L2134.41 178.05 L2134.41 214.069 L2130.15 214.069 L2130.15 178.05 Z" fill="#000000" fill-rule="nonzero" fill-opacity="1" /><path clip-path="url(#clip430)" d="M2153.37 191.129 Q2149.94 191.129 2147.95 193.814 Q2145.96 196.476 2145.96 201.129 Q2145.96 205.782 2147.93 208.467 Q2149.92 211.129 2153.37 211.129 Q2156.77 211.129 2158.76 208.444 Q2160.75 205.758 2160.75 201.129 Q2160.75 196.522 2158.76 193.837 Q2156.77 191.129 2153.37 191.129 M2153.37 187.518 Q2158.92 187.518 2162.09 191.129 Q2165.27 194.74 2165.27 201.129 Q2165.27 207.495 2162.09 211.129 Q2158.92 214.74 2153.37 214.74 Q2147.79 214.74 2144.62 211.129 Q2141.47 207.495 2141.47 201.129 Q2141.47 194.74 2144.62 191.129 Q2147.79 187.518 2153.37 187.518 Z" fill="#000000" fill-rule="nonzero" fill-opacity="1" /><path clip-path="url(#clip430)" d="M2188.85 188.907 L2188.85 192.934 Q2187.05 192.009 2185.1 191.546 Q2183.16 191.083 2181.08 191.083 Q2177.9 191.083 2176.31 192.055 Q2174.73 193.027 2174.73 194.971 Q2174.73 196.453 2175.87 197.309 Q2177 198.143 2180.43 198.907 L2181.89 199.231 Q2186.42 200.203 2188.32 201.985 Q2190.24 203.745 2190.24 206.916 Q2190.24 210.527 2187.37 212.633 Q2184.52 214.74 2179.52 214.74 Q2177.44 214.74 2175.17 214.323 Q2172.93 213.93 2170.43 213.12 L2170.43 208.721 Q2172.79 209.948 2175.08 210.573 Q2177.37 211.175 2179.62 211.175 Q2182.63 211.175 2184.25 210.157 Q2185.87 209.115 2185.87 207.24 Q2185.87 205.504 2184.69 204.578 Q2183.53 203.652 2179.57 202.796 L2178.09 202.448 Q2174.13 201.615 2172.37 199.902 Q2170.61 198.166 2170.61 195.157 Q2170.61 191.499 2173.2 189.509 Q2175.8 187.518 2180.57 187.518 Q2182.93 187.518 2185.01 187.865 Q2187.09 188.212 2188.85 188.907 Z" fill="#000000" fill-rule="nonzero" fill-opacity="1" /><path clip-path="url(#clip430)" d="M2213.55 188.907 L2213.55 192.934 Q2211.75 192.009 2209.8 191.546 Q2207.86 191.083 2205.77 191.083 Q2202.6 191.083 2201.01 192.055 Q2199.43 193.027 2199.43 194.971 Q2199.43 196.453 2200.57 197.309 Q2201.7 198.143 2205.13 198.907 L2206.58 199.231 Q2211.12 200.203 2213.02 201.985 Q2214.94 203.745 2214.94 206.916 Q2214.94 210.527 2212.07 212.633 Q2209.22 214.74 2204.22 214.74 Q2202.14 214.74 2199.87 214.323 Q2197.63 213.93 2195.13 213.12 L2195.13 208.721 Q2197.49 209.948 2199.78 210.573 Q2202.07 211.175 2204.32 211.175 Q2207.33 211.175 2208.95 210.157 Q2210.57 209.115 2210.57 207.24 Q2210.57 205.504 2209.39 204.578 Q2208.23 203.652 2204.27 202.796 L2202.79 202.448 Q2198.83 201.615 2197.07 199.902 Q2195.31 198.166 2195.31 195.157 Q2195.31 191.499 2197.9 189.509 Q2200.5 187.518 2205.26 187.518 Q2207.63 187.518 2209.71 187.865 Q2211.79 188.212 2213.55 188.907 Z" fill="#000000" fill-rule="nonzero" fill-opacity="1" /><polyline clip-path="url(#clip430)" style="stroke:#3da44d; stroke-linecap:round; stroke-linejoin:round; stroke-width:4; stroke-opacity:1; fill:none" points="1862.3,248.629 2008.71,248.629 "/>
<path clip-path="url(#clip430)" d="M2033.11 239.983 L2037.63 239.983 L2045.73 261.742 L2053.83 239.983 L2058.34 239.983 L2048.62 265.909 L2042.84 265.909 L2033.11 239.983 Z" fill="#000000" fill-rule="nonzero" fill-opacity="1" /><path clip-path="url(#clip430)" d="M2076.01 252.876 Q2070.84 252.876 2068.85 254.057 Q2066.86 255.237 2066.86 258.085 Q2066.86 260.353 2068.34 261.696 Q2069.85 263.015 2072.42 263.015 Q2075.96 263.015 2078.09 260.515 Q2080.24 257.992 2080.24 253.825 L2080.24 252.876 L2076.01 252.876 M2084.5 251.117 L2084.5 265.909 L2080.24 265.909 L2080.24 261.973 Q2078.78 264.335 2076.61 265.469 Q2074.43 266.58 2071.28 266.58 Q2067.3 266.58 2064.94 264.358 Q2062.6 262.112 2062.6 258.362 Q2062.6 253.987 2065.52 251.765 Q2068.46 249.543 2074.27 249.543 L2080.24 249.543 L2080.24 249.126 Q2080.24 246.187 2078.3 244.589 Q2076.38 242.969 2072.88 242.969 Q2070.66 242.969 2068.55 243.501 Q2066.45 244.034 2064.5 245.099 L2064.5 241.163 Q2066.84 240.261 2069.04 239.821 Q2071.24 239.358 2073.32 239.358 Q2078.95 239.358 2081.72 242.274 Q2084.5 245.191 2084.5 251.117 Z" fill="#000000" fill-rule="nonzero" fill-opacity="1" /><path clip-path="url(#clip430)" d="M2093.27 229.89 L2097.53 229.89 L2097.53 265.909 L2093.27 265.909 L2093.27 229.89 Z" fill="#000000" fill-rule="nonzero" fill-opacity="1" /><path clip-path="url(#clip430)" d="M2126.14 273.779 L2126.14 277.089 L2101.52 277.089 L2101.52 273.779 L2126.14 273.779 Z" fill="#000000" fill-rule="nonzero" fill-opacity="1" /><path clip-path="url(#clip430)" d="M2141.93 252.876 Q2136.77 252.876 2134.78 254.057 Q2132.79 255.237 2132.79 258.085 Q2132.79 260.353 2134.27 261.696 Q2135.77 263.015 2138.34 263.015 Q2141.89 263.015 2144.02 260.515 Q2146.17 257.992 2146.17 253.825 L2146.17 252.876 L2141.93 252.876 M2150.43 251.117 L2150.43 265.909 L2146.17 265.909 L2146.17 261.973 Q2144.71 264.335 2142.53 265.469 Q2140.36 266.58 2137.21 266.58 Q2133.23 266.58 2130.87 264.358 Q2128.53 262.112 2128.53 258.362 Q2128.53 253.987 2131.45 251.765 Q2134.39 249.543 2140.2 249.543 L2146.17 249.543 L2146.17 249.126 Q2146.17 246.187 2144.22 244.589 Q2142.3 242.969 2138.81 242.969 Q2136.58 242.969 2134.48 243.501 Q2132.37 244.034 2130.43 245.099 L2130.43 241.163 Q2132.77 240.261 2134.96 239.821 Q2137.16 239.358 2139.25 239.358 Q2144.87 239.358 2147.65 242.274 Q2150.43 245.191 2150.43 251.117 Z" fill="#000000" fill-rule="nonzero" fill-opacity="1" /><path clip-path="url(#clip430)" d="M2177.86 240.978 L2177.86 244.96 Q2176.05 243.964 2174.22 243.478 Q2172.42 242.969 2170.57 242.969 Q2166.42 242.969 2164.13 245.608 Q2161.84 248.224 2161.84 252.969 Q2161.84 257.714 2164.13 260.353 Q2166.42 262.969 2170.57 262.969 Q2172.42 262.969 2174.22 262.483 Q2176.05 261.973 2177.86 260.978 L2177.86 264.913 Q2176.08 265.747 2174.15 266.163 Q2172.26 266.58 2170.1 266.58 Q2164.25 266.58 2160.8 262.899 Q2157.35 259.219 2157.35 252.969 Q2157.35 246.626 2160.82 242.992 Q2164.32 239.358 2170.38 239.358 Q2172.35 239.358 2174.22 239.775 Q2176.1 240.168 2177.86 240.978 Z" fill="#000000" fill-rule="nonzero" fill-opacity="1" /><path clip-path="url(#clip430)" d="M2203.92 240.978 L2203.92 244.96 Q2202.12 243.964 2200.29 243.478 Q2198.48 242.969 2196.63 242.969 Q2192.49 242.969 2190.2 245.608 Q2187.9 248.224 2187.9 252.969 Q2187.9 257.714 2190.2 260.353 Q2192.49 262.969 2196.63 262.969 Q2198.48 262.969 2200.29 262.483 Q2202.12 261.973 2203.92 260.978 L2203.92 264.913 Q2202.14 265.747 2200.22 266.163 Q2198.32 266.58 2196.17 266.58 Q2190.31 266.58 2186.86 262.899 Q2183.41 259.219 2183.41 252.969 Q2183.41 246.626 2186.89 242.992 Q2190.38 239.358 2196.45 239.358 Q2198.41 239.358 2200.29 239.775 Q2202.16 240.168 2203.92 240.978 Z" fill="#000000" fill-rule="nonzero" fill-opacity="1" /></svg>
