<?xml version="1.0" encoding="utf-8"?>
<svg xmlns="http://www.w3.org/2000/svg" xmlns:xlink="http://www.w3.org/1999/xlink" width="600" height="400" viewBox="0 0 2400 1600">
<defs>
  <clipPath id="clip250">
    <rect x="0" y="0" width="2400" height="1600"/>
  </clipPath>
</defs>
<path clip-path="url(#clip250)" d="M0 1600 L2400 1600 L2400 0 L0 0  Z" fill="#ffffff" fill-rule="evenodd" fill-opacity="1"/>
<defs>
  <clipPath id="clip251">
    <rect x="480" y="0" width="1681" height="1600"/>
  </clipPath>
</defs>
<path clip-path="url(#clip250)" d="M221.637 1410.9 L2352.76 1410.9 L2352.76 47.2441 L221.637 47.2441  Z" fill="#ffffff" fill-rule="evenodd" fill-opacity="1"/>
<defs>
  <clipPath id="clip252">
    <rect x="221" y="47" width="2132" height="1365"/>
  </clipPath>
</defs>
<polyline clip-path="url(#clip252)" style="stroke:#000000; stroke-linecap:round; stroke-linejoin:round; stroke-width:2; stroke-opacity:0.1; fill:none" points="281.952,1410.9 281.952,47.2441 "/>
<polyline clip-path="url(#clip252)" style="stroke:#000000; stroke-linecap:round; stroke-linejoin:round; stroke-width:2; stroke-opacity:0.1; fill:none" points="1380.35,1410.9 1380.35,47.2441 "/>
<polyline clip-path="url(#clip252)" style="stroke:#000000; stroke-linecap:round; stroke-linejoin:round; stroke-width:2; stroke-opacity:0.1; fill:none" points="221.637,1372.3 2352.76,1372.3 "/>
<polyline clip-path="url(#clip252)" style="stroke:#000000; stroke-linecap:round; stroke-linejoin:round; stroke-width:2; stroke-opacity:0.1; fill:none" points="221.637,605.249 2352.76,605.249 "/>
<polyline clip-path="url(#clip250)" style="stroke:#000000; stroke-linecap:round; stroke-linejoin:round; stroke-width:4; stroke-opacity:1; fill:none" points="221.637,1410.9 2352.76,1410.9 "/>
<polyline clip-path="url(#clip250)" style="stroke:#000000; stroke-linecap:round; stroke-linejoin:round; stroke-width:4; stroke-opacity:1; fill:none" points="281.952,1410.9 281.952,1392 "/>
<polyline clip-path="url(#clip250)" style="stroke:#000000; stroke-linecap:round; stroke-linejoin:round; stroke-width:4; stroke-opacity:1; fill:none" points="1380.35,1410.9 1380.35,1392 "/>
<path clip-path="url(#clip250)" d="M246.935 1485.02 L254.573 1485.02 L254.573 1458.66 L246.263 1460.32 L246.263 1456.06 L254.527 1454.4 L259.203 1454.4 L259.203 1485.02 L266.842 1485.02 L266.842 1488.96 L246.935 1488.96 L246.935 1485.02 Z" fill="#000000" fill-rule="nonzero" fill-opacity="1" /><path clip-path="url(#clip250)" d="M286.286 1457.48 Q282.675 1457.48 280.846 1461.04 Q279.041 1464.58 279.041 1471.71 Q279.041 1478.82 280.846 1482.38 Q282.675 1485.92 286.286 1485.92 Q289.92 1485.92 291.726 1482.38 Q293.555 1478.82 293.555 1471.71 Q293.555 1464.58 291.726 1461.04 Q289.92 1457.48 286.286 1457.48 M286.286 1453.77 Q292.096 1453.77 295.152 1458.38 Q298.231 1462.96 298.231 1471.71 Q298.231 1480.44 295.152 1485.04 Q292.096 1489.63 286.286 1489.63 Q280.476 1489.63 277.397 1485.04 Q274.342 1480.44 274.342 1471.71 Q274.342 1462.96 277.397 1458.38 Q280.476 1453.77 286.286 1453.77 Z" fill="#000000" fill-rule="nonzero" fill-opacity="1" /><path clip-path="url(#clip250)" d="M307.935 1435.97 Q305.001 1435.97 303.516 1438.86 Q302.049 1441.74 302.049 1447.53 Q302.049 1453.31 303.516 1456.2 Q305.001 1459.08 307.935 1459.08 Q310.888 1459.08 312.355 1456.2 Q313.841 1453.31 313.841 1447.53 Q313.841 1441.74 312.355 1438.86 Q310.888 1435.97 307.935 1435.97 M307.935 1432.96 Q312.656 1432.96 315.139 1436.7 Q317.64 1440.43 317.64 1447.53 Q317.64 1454.62 315.139 1458.37 Q312.656 1462.09 307.935 1462.09 Q303.215 1462.09 300.713 1458.37 Q298.231 1454.62 298.231 1447.53 Q298.231 1440.43 300.713 1436.7 Q303.215 1432.96 307.935 1432.96 Z" fill="#000000" fill-rule="nonzero" fill-opacity="1" /><path clip-path="url(#clip250)" d="M1346.12 1485.02 L1353.76 1485.02 L1353.76 1458.66 L1345.45 1460.32 L1345.45 1456.06 L1353.71 1454.4 L1358.39 1454.4 L1358.39 1485.02 L1366.03 1485.02 L1366.03 1488.96 L1346.12 1488.96 L1346.12 1485.02 Z" fill="#000000" fill-rule="nonzero" fill-opacity="1" /><path clip-path="url(#clip250)" d="M1385.47 1457.48 Q1381.86 1457.48 1380.03 1461.04 Q1378.23 1464.58 1378.23 1471.71 Q1378.23 1478.82 1380.03 1482.38 Q1381.86 1485.92 1385.47 1485.92 Q1389.11 1485.92 1390.91 1482.38 Q1392.74 1478.82 1392.74 1471.71 Q1392.74 1464.58 1390.91 1461.04 Q1389.11 1457.48 1385.47 1457.48 M1385.47 1453.77 Q1391.28 1453.77 1394.34 1458.38 Q1397.42 1462.96 1397.42 1471.71 Q1397.42 1480.44 1394.34 1485.04 Q1391.28 1489.63 1385.47 1489.63 Q1379.66 1489.63 1376.58 1485.04 Q1373.53 1480.44 1373.53 1471.71 Q1373.53 1462.96 1376.58 1458.38 Q1379.66 1453.77 1385.47 1453.77 Z" fill="#000000" fill-rule="nonzero" fill-opacity="1" /><path clip-path="url(#clip250)" d="M1401.99 1458.35 L1415.25 1458.35 L1415.25 1461.55 L1397.42 1461.55 L1397.42 1458.35 Q1399.58 1456.11 1403.3 1452.35 Q1407.05 1448.57 1408.01 1447.48 Q1409.83 1445.43 1410.55 1444.02 Q1411.28 1442.59 1411.28 1441.22 Q1411.28 1438.98 1409.7 1437.57 Q1408.14 1436.16 1405.62 1436.16 Q1403.83 1436.16 1401.84 1436.78 Q1399.86 1437.4 1397.61 1438.66 L1397.61 1434.82 Q1399.9 1433.9 1401.89 1433.43 Q1403.89 1432.96 1405.54 1432.96 Q1409.91 1432.96 1412.5 1435.14 Q1415.1 1437.32 1415.1 1440.97 Q1415.1 1442.7 1414.44 1444.26 Q1413.8 1445.8 1412.09 1447.91 Q1411.62 1448.46 1409.1 1451.07 Q1406.58 1453.67 1401.99 1458.35 Z" fill="#000000" fill-rule="nonzero" fill-opacity="1" /><path clip-path="url(#clip250)" d="M1167.55 1528.42 L1167.55 1538.54 L1179.62 1538.54 L1179.62 1543.09 L1167.55 1543.09 L1167.55 1562.44 Q1167.55 1566.8 1168.73 1568.04 Q1169.94 1569.28 1173.6 1569.28 L1179.62 1569.28 L1179.62 1574.19 L1173.6 1574.19 Q1166.82 1574.19 1164.24 1571.67 Q1161.66 1569.12 1161.66 1562.44 L1161.66 1543.09 L1157.37 1543.09 L1157.37 1538.54 L1161.66 1538.54 L1161.66 1528.42 L1167.55 1528.42 Z" fill="#000000" fill-rule="nonzero" fill-opacity="1" /><path clip-path="url(#clip250)" d="M1201.13 1542.64 Q1196.42 1542.64 1193.68 1546.34 Q1190.95 1550 1190.95 1556.39 Q1190.95 1562.79 1193.65 1566.48 Q1196.39 1570.14 1201.13 1570.14 Q1205.81 1570.14 1208.55 1566.45 Q1211.29 1562.76 1211.29 1556.39 Q1211.29 1550.06 1208.55 1546.37 Q1205.81 1542.64 1201.13 1542.64 M1201.13 1537.68 Q1208.77 1537.68 1213.13 1542.64 Q1217.49 1547.61 1217.49 1556.39 Q1217.49 1565.15 1213.13 1570.14 Q1208.77 1575.11 1201.13 1575.11 Q1193.46 1575.11 1189.1 1570.14 Q1184.77 1565.15 1184.77 1556.39 Q1184.77 1547.61 1189.1 1542.64 Q1193.46 1537.68 1201.13 1537.68 Z" fill="#000000" fill-rule="nonzero" fill-opacity="1" /><path clip-path="url(#clip250)" d="M1226.98 1524.66 L1232.87 1524.66 L1232.87 1553.91 L1250.34 1538.54 L1257.82 1538.54 L1238.91 1555.22 L1258.61 1574.19 L1250.98 1574.19 L1232.87 1556.78 L1232.87 1574.19 L1226.98 1574.19 L1226.98 1524.66 Z" fill="#000000" fill-rule="nonzero" fill-opacity="1" /><path clip-path="url(#clip250)" d="M1293.12 1554.9 L1293.12 1557.76 L1266.19 1557.76 Q1266.57 1563.81 1269.82 1566.99 Q1273.1 1570.14 1278.92 1570.14 Q1282.29 1570.14 1285.45 1569.32 Q1288.63 1568.49 1291.75 1566.83 L1291.75 1572.37 Q1288.6 1573.71 1285.29 1574.41 Q1281.98 1575.11 1278.57 1575.11 Q1270.04 1575.11 1265.04 1570.14 Q1260.08 1565.18 1260.08 1556.71 Q1260.08 1547.96 1264.79 1542.83 Q1269.53 1537.68 1277.55 1537.68 Q1284.75 1537.68 1288.92 1542.33 Q1293.12 1546.94 1293.12 1554.9 M1287.26 1553.18 Q1287.2 1548.37 1284.55 1545.51 Q1281.94 1542.64 1277.62 1542.64 Q1272.71 1542.64 1269.75 1545.41 Q1266.83 1548.18 1266.38 1553.21 L1287.26 1553.18 Z" fill="#000000" fill-rule="nonzero" fill-opacity="1" /><path clip-path="url(#clip250)" d="M1332.36 1552.67 L1332.36 1574.19 L1326.5 1574.19 L1326.5 1552.86 Q1326.5 1547.8 1324.53 1545.29 Q1322.56 1542.77 1318.61 1542.77 Q1313.87 1542.77 1311.13 1545.79 Q1308.39 1548.82 1308.39 1554.04 L1308.39 1574.19 L1302.51 1574.19 L1302.51 1538.54 L1308.39 1538.54 L1308.39 1544.08 Q1310.49 1540.86 1313.33 1539.27 Q1316.19 1537.68 1319.92 1537.68 Q1326.06 1537.68 1329.21 1541.5 Q1332.36 1545.29 1332.36 1552.67 Z" fill="#000000" fill-rule="nonzero" fill-opacity="1" /><path clip-path="url(#clip250)" d="M1345.54 1566.1 L1352.25 1566.1 L1352.25 1574.19 L1345.54 1574.19 L1345.54 1566.1 M1345.54 1540.48 L1352.25 1540.48 L1352.25 1548.56 L1345.54 1548.56 L1345.54 1540.48 Z" fill="#000000" fill-rule="nonzero" fill-opacity="1" /><path clip-path="url(#clip250)" d="M1416.36 1538.54 L1403.47 1555.88 L1417.03 1574.19 L1410.12 1574.19 L1399.74 1560.18 L1389.37 1574.19 L1382.46 1574.19 L1396.3 1555.53 L1383.64 1538.54 L1390.54 1538.54 L1400 1551.24 L1409.45 1538.54 L1416.36 1538.54 Z" fill="#000000" fill-rule="nonzero" fill-opacity="1" /><polyline clip-path="url(#clip250)" style="stroke:#000000; stroke-linecap:round; stroke-linejoin:round; stroke-width:4; stroke-opacity:1; fill:none" points="221.637,1410.9 221.637,47.2441 "/>
<polyline clip-path="url(#clip250)" style="stroke:#000000; stroke-linecap:round; stroke-linejoin:round; stroke-width:4; stroke-opacity:1; fill:none" points="221.637,1372.3 240.535,1372.3 "/>
<polyline clip-path="url(#clip250)" style="stroke:#000000; stroke-linecap:round; stroke-linejoin:round; stroke-width:4; stroke-opacity:1; fill:none" points="221.637,605.249 240.535,605.249 "/>
<path clip-path="url(#clip250)" d="M114.931 1392.1 L122.57 1392.1 L122.57 1365.73 L114.26 1367.4 L114.26 1363.14 L122.524 1361.47 L127.2 1361.47 L127.2 1392.1 L134.839 1392.1 L134.839 1396.03 L114.931 1396.03 L114.931 1392.1 Z" fill="#000000" fill-rule="nonzero" fill-opacity="1" /><path clip-path="url(#clip250)" d="M154.283 1364.55 Q150.672 1364.55 148.843 1368.11 Q147.038 1371.66 147.038 1378.79 Q147.038 1385.89 148.843 1389.46 Q150.672 1393 154.283 1393 Q157.917 1393 159.723 1389.46 Q161.552 1385.89 161.552 1378.79 Q161.552 1371.66 159.723 1368.11 Q157.917 1364.55 154.283 1364.55 M154.283 1360.85 Q160.093 1360.85 163.149 1365.45 Q166.227 1370.04 166.227 1378.79 Q166.227 1387.51 163.149 1392.12 Q160.093 1396.7 154.283 1396.7 Q148.473 1396.7 145.394 1392.12 Q142.339 1387.51 142.339 1378.79 Q142.339 1370.04 145.394 1365.45 Q148.473 1360.85 154.283 1360.85 Z" fill="#000000" fill-rule="nonzero" fill-opacity="1" /><path clip-path="url(#clip250)" d="M175.932 1343.04 Q172.998 1343.04 171.512 1345.94 Q170.045 1348.82 170.045 1354.61 Q170.045 1360.38 171.512 1363.28 Q172.998 1366.16 175.932 1366.16 Q178.885 1366.16 180.352 1363.28 Q181.838 1360.38 181.838 1354.61 Q181.838 1348.82 180.352 1345.94 Q178.885 1343.04 175.932 1343.04 M175.932 1340.03 Q180.653 1340.03 183.136 1343.77 Q185.637 1347.5 185.637 1354.61 Q185.637 1361.7 183.136 1365.44 Q180.653 1369.17 175.932 1369.17 Q171.212 1369.17 168.71 1365.44 Q166.227 1361.7 166.227 1354.61 Q166.227 1347.5 168.71 1343.77 Q171.212 1340.03 175.932 1340.03 Z" fill="#000000" fill-rule="nonzero" fill-opacity="1" /><path clip-path="url(#clip250)" d="M116.511 625.041 L124.15 625.041 L124.15 598.676 L115.84 600.342 L115.84 596.083 L124.104 594.416 L128.78 594.416 L128.78 625.041 L136.419 625.041 L136.419 628.976 L116.511 628.976 L116.511 625.041 Z" fill="#000000" fill-rule="nonzero" fill-opacity="1" /><path clip-path="url(#clip250)" d="M155.863 597.495 Q152.252 597.495 150.423 601.06 Q148.618 604.602 148.618 611.731 Q148.618 618.838 150.423 622.402 Q152.252 625.944 155.863 625.944 Q159.497 625.944 161.303 622.402 Q163.131 618.838 163.131 611.731 Q163.131 604.602 161.303 601.06 Q159.497 597.495 155.863 597.495 M155.863 593.791 Q161.673 593.791 164.729 598.398 Q167.807 602.981 167.807 611.731 Q167.807 620.458 164.729 625.064 Q161.673 629.648 155.863 629.648 Q150.053 629.648 146.974 625.064 Q143.919 620.458 143.919 611.731 Q143.919 602.981 146.974 598.398 Q150.053 593.791 155.863 593.791 Z" fill="#000000" fill-rule="nonzero" fill-opacity="1" /><path clip-path="url(#clip250)" d="M172.378 598.369 L185.637 598.369 L185.637 601.566 L167.807 601.566 L167.807 598.369 Q169.97 596.131 173.694 592.369 Q177.437 588.589 178.396 587.498 Q180.22 585.448 180.935 584.037 Q181.669 582.608 181.669 581.235 Q181.669 578.997 180.089 577.586 Q178.528 576.176 176.008 576.176 Q174.221 576.176 172.227 576.796 Q170.252 577.417 167.995 578.677 L167.995 574.84 Q170.29 573.919 172.284 573.448 Q174.277 572.978 175.932 572.978 Q180.296 572.978 182.891 575.16 Q185.487 577.342 185.487 580.99 Q185.487 582.721 184.828 584.282 Q184.189 585.824 182.477 587.93 Q182.007 588.476 179.487 591.09 Q176.967 593.686 172.378 598.369 Z" fill="#000000" fill-rule="nonzero" fill-opacity="1" /><path clip-path="url(#clip250)" d="M14.479 950.645 L19.3487 950.645 L19.3487 956.247 Q19.3487 959.398 20.6219 960.639 Q21.895 961.848 25.2052 961.848 L28.3562 961.848 L28.3562 952.204 L32.9077 952.204 L32.9077 961.848 L64.0042 961.848 L64.0042 967.737 L32.9077 967.737 L32.9077 973.338 L28.3562 973.338 L28.3562 967.737 L25.8736 967.737 Q19.9216 967.737 17.2162 964.968 Q14.479 962.198 14.479 956.183 L14.479 950.645 Z" fill="#000000" fill-rule="nonzero" fill-opacity="1" /><path clip-path="url(#clip250)" d="M33.8307 925.086 Q33.2578 926.073 33.0032 927.251 Q32.7167 928.397 32.7167 929.797 Q32.7167 934.762 35.9632 937.436 Q39.1779 940.078 45.2253 940.078 L64.0042 940.078 L64.0042 945.966 L28.3562 945.966 L28.3562 940.078 L33.8944 940.078 Q30.6479 938.232 29.0883 935.272 Q27.4968 932.311 27.4968 928.078 Q27.4968 927.474 27.5923 926.741 Q27.656 926.009 27.8151 925.118 L33.8307 925.086 Z" fill="#000000" fill-rule="nonzero" fill-opacity="1" /><path clip-path="url(#clip250)" d="M44.7161 889.884 L47.5806 889.884 L47.5806 916.811 Q53.6281 916.429 56.8109 913.183 Q59.9619 909.904 59.9619 904.08 Q59.9619 900.706 59.1344 897.555 Q58.3069 894.372 56.6518 891.253 L62.1899 891.253 Q63.5267 894.404 64.227 897.714 Q64.9272 901.024 64.9272 904.43 Q64.9272 912.96 59.9619 917.957 Q54.9967 922.922 46.5303 922.922 Q37.7774 922.922 32.6531 918.211 Q27.4968 913.469 27.4968 905.448 Q27.4968 898.255 32.1438 894.085 Q36.7589 889.884 44.7161 889.884 M42.9973 895.74 Q38.1912 895.804 35.3266 898.446 Q32.4621 901.056 32.4621 905.385 Q32.4621 910.286 35.2312 913.246 Q38.0002 916.174 43.0292 916.62 L42.9973 895.74 Z" fill="#000000" fill-rule="nonzero" fill-opacity="1" /><path clip-path="url(#clip250)" d="M46.212 876.771 Q52.6732 876.771 56.3653 874.129 Q60.0256 871.455 60.0256 866.808 Q60.0256 862.161 56.3653 859.488 Q52.6732 856.814 46.212 856.814 Q39.7508 856.814 36.0905 859.488 Q32.3984 862.161 32.3984 866.808 Q32.3984 871.455 36.0905 874.129 Q39.7508 876.771 46.212 876.771 M58.657 856.814 Q61.8398 858.66 63.3994 861.493 Q64.9272 864.294 64.9272 868.241 Q64.9272 874.702 59.771 878.776 Q54.6147 882.818 46.212 882.818 Q37.8093 882.818 32.6531 878.776 Q27.4968 874.702 27.4968 868.241 Q27.4968 864.294 29.0564 861.493 Q30.5842 858.66 33.7671 856.814 L28.3562 856.814 L28.3562 850.958 L77.5631 850.958 L77.5631 856.814 L58.657 856.814 Z" fill="#000000" fill-rule="nonzero" fill-opacity="1" /><path clip-path="url(#clip250)" d="M49.9359 839.499 L28.3562 839.499 L28.3562 833.643 L49.7131 833.643 Q54.7739 833.643 57.3202 831.67 Q59.8346 829.696 59.8346 825.75 Q59.8346 821.007 56.8109 818.27 Q53.7872 815.501 48.5673 815.501 L28.3562 815.501 L28.3562 809.644 L64.0042 809.644 L64.0042 815.501 L58.5296 815.501 Q61.7762 817.633 63.3676 820.466 Q64.9272 823.267 64.9272 826.991 Q64.9272 833.134 61.1078 836.317 Q57.2883 839.499 49.9359 839.499 M27.4968 824.763 L27.4968 824.763 Z" fill="#000000" fill-rule="nonzero" fill-opacity="1" /><path clip-path="url(#clip250)" d="M44.7161 767.09 L47.5806 767.09 L47.5806 794.016 Q53.6281 793.635 56.8109 790.388 Q59.9619 787.11 59.9619 781.285 Q59.9619 777.911 59.1344 774.76 Q58.3069 771.577 56.6518 768.458 L62.1899 768.458 Q63.5267 771.609 64.227 774.919 Q64.9272 778.23 64.9272 781.635 Q64.9272 790.165 59.9619 795.162 Q54.9967 800.128 46.5303 800.128 Q37.7774 800.128 32.6531 795.417 Q27.4968 790.674 27.4968 782.654 Q27.4968 775.46 32.1438 771.291 Q36.7589 767.09 44.7161 767.09 M42.9973 772.946 Q38.1912 773.01 35.3266 775.651 Q32.4621 778.261 32.4621 782.59 Q32.4621 787.492 35.2312 790.452 Q38.0002 793.38 43.0292 793.826 L42.9973 772.946 Z" fill="#000000" fill-rule="nonzero" fill-opacity="1" /><path clip-path="url(#clip250)" d="M42.4881 727.845 L64.0042 727.845 L64.0042 733.701 L42.679 733.701 Q37.6183 733.701 35.1038 735.675 Q32.5894 737.648 32.5894 741.595 Q32.5894 746.337 35.6131 749.075 Q38.6368 751.812 43.8567 751.812 L64.0042 751.812 L64.0042 757.7 L28.3562 757.7 L28.3562 751.812 L33.8944 751.812 Q30.6797 749.711 29.0883 746.878 Q27.4968 744.014 27.4968 740.29 Q27.4968 734.147 31.3163 730.996 Q35.1038 727.845 42.4881 727.845 Z" fill="#000000" fill-rule="nonzero" fill-opacity="1" /><path clip-path="url(#clip250)" d="M29.7248 690.51 L35.1993 690.51 Q33.8307 692.993 33.1623 695.507 Q32.4621 697.99 32.4621 700.536 Q32.4621 706.233 36.0905 709.384 Q39.6872 712.535 46.212 712.535 Q52.7369 712.535 56.3653 709.384 Q59.9619 706.233 59.9619 700.536 Q59.9619 697.99 59.2935 695.507 Q58.5933 692.993 57.2247 690.51 L62.6355 690.51 Q63.7814 692.961 64.3543 695.603 Q64.9272 698.213 64.9272 701.173 Q64.9272 709.225 59.8664 713.968 Q54.8057 718.71 46.212 718.71 Q37.491 718.71 32.4939 713.936 Q27.4968 709.13 27.4968 700.791 Q27.4968 698.085 28.0697 695.507 Q28.6108 692.929 29.7248 690.51 Z" fill="#000000" fill-rule="nonzero" fill-opacity="1" /><path clip-path="url(#clip250)" d="M67.3143 665.493 Q73.68 667.975 75.6216 670.331 Q77.5631 672.686 77.5631 676.633 L77.5631 681.312 L72.6615 681.312 L72.6615 677.874 Q72.6615 675.455 71.5157 674.118 Q70.3699 672.782 66.1048 671.158 L63.4312 670.108 L28.3562 684.526 L28.3562 678.32 L56.238 667.18 L28.3562 656.04 L28.3562 649.833 L67.3143 665.493 Z" fill="#000000" fill-rule="nonzero" fill-opacity="1" /><path clip-path="url(#clip250)" d="M55.9197 644.995 L55.9197 638.279 L64.0042 638.279 L64.0042 644.995 L55.9197 644.995 M30.2977 644.995 L30.2977 638.279 L38.3822 638.279 L38.3822 644.995 L30.2977 644.995 Z" fill="#000000" fill-rule="nonzero" fill-opacity="1" /><path clip-path="url(#clip250)" d="M42.4881 574.177 L64.0042 574.177 L64.0042 580.033 L42.679 580.033 Q37.6183 580.033 35.1038 582.007 Q32.5894 583.98 32.5894 587.927 Q32.5894 592.669 35.6131 595.406 Q38.6368 598.144 43.8567 598.144 L64.0042 598.144 L64.0042 604.032 L28.3562 604.032 L28.3562 598.144 L33.8944 598.144 Q30.6797 596.043 29.0883 593.21 Q27.4968 590.346 27.4968 586.622 Q27.4968 580.479 31.3163 577.328 Q35.1038 574.177 42.4881 574.177 Z" fill="#000000" fill-rule="nonzero" fill-opacity="1" /><path clip-path="url(#clip250)" d="M14.5426 548.428 Q21.8632 552.693 29.0246 554.761 Q36.186 556.83 43.5384 556.83 Q50.8908 556.83 58.1159 554.761 Q65.3091 552.661 72.5979 548.428 L72.5979 553.52 Q65.1182 558.294 57.8931 560.682 Q50.668 563.037 43.5384 563.037 Q36.4406 563.037 29.2474 560.682 Q22.0542 558.326 14.5426 553.52 L14.5426 548.428 Z" fill="#000000" fill-rule="nonzero" fill-opacity="1" /><path clip-path="url(#clip250)" d="M28.3562 507.432 L45.7028 520.323 L64.0042 506.764 L64.0042 513.671 L49.9996 524.047 L64.0042 534.423 L64.0042 541.33 L45.3526 527.484 L28.3562 540.152 L28.3562 533.245 L41.0558 523.792 L28.3562 514.339 L28.3562 507.432 Z" fill="#000000" fill-rule="nonzero" fill-opacity="1" /><path clip-path="url(#clip250)" d="M14.5426 499.412 L14.5426 494.319 Q22.0542 489.545 29.2474 487.189 Q36.4406 484.802 43.5384 484.802 Q50.668 484.802 57.8931 487.189 Q65.1182 489.545 72.5979 494.319 L72.5979 499.412 Q65.3091 495.178 58.1159 493.11 Q50.8908 491.009 43.5384 491.009 Q36.186 491.009 29.0246 493.11 Q21.8632 495.178 14.5426 499.412 Z" fill="#000000" fill-rule="nonzero" fill-opacity="1" /><polyline clip-path="url(#clip252)" style="stroke:#009af9; stroke-linecap:round; stroke-linejoin:round; stroke-width:4; stroke-opacity:1; fill:none" points="281.952,85.838 447.277,182.304 543.986,185.222 612.602,197.72 665.825,255.591 709.311,282.325 746.078,320.695 777.927,324.048 806.02,357.336 831.15,358.467 853.883,359.607 874.636,394.691 893.728,433.158 911.403,439.809 927.859,457.358 943.253,473.165 957.712,476.977 971.345,486.497 984.241,489.796 996.475,529.058 1008.11,535.507 1019.21,552.813 1029.81,552.813 1039.96,556.501 1049.7,562.835 1059.05,565.437 1068.05,570.768 1076.73,572.127 1085.1,572.127 1093.18,572.127 1101.01,574.881 1108.58,577.68 1115.92,583.424 1123.04,583.424 1129.95,584.892 1136.67,584.892 1143.21,586.372 1149.57,595.543 1155.76,597.122 1161.8,600.325 1167.69,615.555 1173.44,617.336 1179.05,619.137 1184.53,619.137 1189.89,620.958 1195.14,624.659 1200.27,626.541 1205.29,628.445 1210.2,630.37 1215.02,632.319 1219.75,632.319 1224.38,632.319 1228.92,634.29 1233.38,634.29 1237.76,638.304 1242.05,644.512 1246.28,648.783 1250.42,653.166 1254.5,655.402 1258.51,655.402 1262.45,655.402 1266.33,657.668 1270.15,659.966 1273.9,662.295 1277.6,664.658 1281.24,664.658 1284.83,664.658 1288.36,667.055 1291.84,674.459 1295.28,684.872 1298.66,687.581 1302,690.334 1305.29,693.133 1308.53,693.133 1311.73,698.877 1314.89,698.877 1318.01,698.877 1321.09,704.827 1324.13,707.883 1327.13,707.883 1330.09,710.996 1333.02,714.169 1335.91,717.404 1338.76,720.702 1341.59,724.067 1344.38,724.067 1347.13,724.067 1349.86,724.067 1352.55,724.067 1355.22,724.067 1357.85,727.501 1360.46,727.501 1363.04,731.008 1365.59,731.008 1368.11,734.59 1370.61,734.59 1373.08,734.59 1375.53,734.59 1377.95,738.251 1380.35,738.251 1382.72,741.994 1385.07,745.824 1387.4,745.824 1389.7,745.824 1391.99,749.743 1394.25,749.743 1396.49,753.757 1398.7,757.87 1400.9,757.87 1403.08,757.87 1405.24,757.87 1407.38,762.087 1409.5,766.413 1411.6,766.413 1413.68,770.855 1415.75,770.855 1417.8,770.855 1419.83,770.855 1421.84,770.855 1423.83,775.419 1425.81,775.419 1427.78,775.419 1429.72,775.419 1431.66,775.419 1433.57,775.419 1435.47,780.111 1437.36,780.111 1439.23,780.111 1441.08,780.111 1442.93,780.111 1444.75,784.939 1446.57,784.939 1448.37,784.939 1450.15,784.939 1451.93,784.939 1453.69,784.939 1455.44,789.912 1457.17,789.912 1458.89,789.912 1460.6,795.037 1462.3,795.037 1463.99,795.037 1465.66,795.037 1467.32,795.037 1468.97,800.325 1470.61,800.325 1472.24,800.325 1473.86,805.787 1475.46,805.787 1477.06,805.787 1478.64,811.434 1480.22,811.434 1481.78,817.279 1483.33,817.279 1484.88,817.279 1486.41,817.279 1487.94,817.279 1489.45,817.279 1490.96,823.336 1492.45,823.336 1493.94,823.336 1495.41,823.336 1496.88,823.336 1498.34,829.622 1499.79,829.622 1501.23,829.622 1502.66,829.622 1504.09,829.622 1505.5,829.622 1506.91,829.622 1508.31,836.155 1509.7,836.155 1511.08,836.155 1512.46,836.155 1513.82,842.954 1515.18,842.954 1516.54,842.954 1517.88,842.954 1519.22,842.954 1520.54,850.043 1521.87,850.043 1523.18,850.043 1524.49,850.043 1525.79,850.043 1527.08,850.043 1528.36,857.447 1529.64,857.447 1530.92,857.447 1532.18,857.447 1533.44,857.447 1534.69,857.447 1535.94,857.447 1537.18,857.447 1538.41,857.447 1539.64,857.447 1540.86,857.447 1542.07,865.196 1543.28,865.196 1544.48,865.196 1545.67,865.196 1546.86,865.196 1548.05,865.196 1549.22,865.196 1550.4,865.196 1551.56,865.196 1552.72,873.323 1553.88,873.323 1555.03,873.323 1556.17,873.323 1557.31,873.323 1558.44,873.323 1559.57,873.323 1560.69,873.323 1561.81,873.323 1562.92,873.323 1564.03,873.323 1565.13,873.323 1566.23,873.323 1567.32,881.866 1568.41,881.866 1569.49,881.866 1570.57,881.866 1571.64,881.866 1572.7,881.866 1573.77,881.866 1574.82,881.866 1575.88,881.866 1576.93,881.866 1577.97,881.866 1579.01,890.872 1580.04,890.872 1581.07,890.872 1582.1,890.872 1583.12,890.872 1584.14,900.392 1585.15,900.392 1586.16,900.392 1587.16,900.392 1588.16,900.392 1589.16,900.392 1590.15,900.392 1591.14,900.392 1592.12,900.392 1593.1,910.49 1594.08,910.49 1595.05,910.49 1596.02,910.49 1596.98,910.49 1597.94,910.49 1598.9,910.49 1599.85,910.49 1600.8,910.49 1601.74,910.49 1602.68,910.49 1603.62,910.49 1604.55,910.49 1605.48,910.49 1606.41,910.49 1607.33,910.49 1608.25,910.49 1609.17,910.49 1610.08,921.24 1610.99,921.24 1611.89,921.24 1612.79,921.24 1613.69,921.24 1614.59,921.24 1615.48,921.24 1616.37,921.24 1617.25,921.24 1618.13,921.24 1619.01,921.24 1619.89,921.24 1620.76,932.732 1621.63,932.732 1622.5,932.732 1623.36,932.732 1624.22,932.732 1625.07,932.732 1625.93,932.732 1626.78,932.732 1627.62,932.732 1628.47,932.732 1629.31,932.732 1630.15,932.732 1630.98,932.732 1631.82,932.732 1632.65,945.075 1633.47,945.075 1634.3,945.075 1635.12,945.075 1635.94,945.075 1636.75,945.075 1637.56,945.075 1638.37,945.075 1639.18,945.075 1639.99,945.075 1640.79,945.075 1641.59,945.075 1642.38,945.075 1643.18,945.075 1643.97,945.075 1644.76,945.075 1645.54,945.075 1646.33,945.075 1647.11,945.075 1647.88,945.075 1648.66,945.075 1649.43,945.075 1650.2,945.075 1650.97,945.075 1651.74,945.075 1652.5,958.408 1653.26,958.408 1654.02,958.408 1654.78,958.408 1655.53,958.408 1656.28,958.408 1657.03,958.408 1657.78,958.408 1658.52,958.408 1659.26,958.408 1660,958.408 1660.74,958.408 1661.47,958.408 1662.21,958.408 1662.94,958.408 1663.67,958.408 1664.39,958.408 1665.12,972.901 1665.84,972.901 1666.56,972.901 1667.27,972.901 1667.99,972.901 1668.7,972.901 1669.41,972.901 1670.12,972.901 1670.83,972.901 1671.53,972.901 1672.24,972.901 1672.94,972.901 1673.63,972.901 1674.33,972.901 1675.03,972.901 1675.72,972.901 1676.41,972.901 1677.1,972.901 1677.78,972.901 1678.47,972.901 1679.15,972.901 1679.83,972.901 1680.51,972.901 1681.19,972.901 1681.86,972.901 1682.53,972.901 1683.2,972.901 1683.87,972.901 1684.54,972.901 1685.21,972.901 1685.87,972.901 1686.53,972.901 1687.19,988.776 1687.85,988.776 1688.5,988.776 1689.16,988.776 1689.81,988.776 1690.46,988.776 1691.11,988.776 1691.76,988.776 1692.4,988.776 1693.05,988.776 1693.69,988.776 1694.33,988.776 1694.97,988.776 1695.61,988.776 1696.24,988.776 1696.87,988.776 1697.51,988.776 1698.14,988.776 1698.76,988.776 1699.39,988.776 1700.02,988.776 1700.64,988.776 1701.26,988.776 1701.88,988.776 1702.5,988.776 1703.12,988.776 1703.73,988.776 1704.35,988.776 1704.96,988.776 1705.57,988.776 1706.18,988.776 1706.79,988.776 1707.39,988.776 1708,988.776 1708.6,988.776 1709.2,988.776 1709.8,988.776 1710.4,988.776 1711,1006.32 1711.59,1006.32 1712.19,1006.32 1712.78,1006.32 1713.37,1006.32 1713.96,1006.32 1714.55,1006.32 1715.14,1006.32 1715.72,1006.32 1716.31,1006.32 1716.89,1006.32 1717.47,1006.32 1718.05,1006.32 1718.63,1006.32 1719.2,1006.32 1719.78,1006.32 1720.35,1006.32 1720.93,1006.32 1721.5,1006.32 1722.07,1006.32 1722.64,1006.32 1723.2,1006.32 1723.77,1006.32 1724.33,1006.32 1724.9,1006.32 1725.46,1006.32 1726.02,1006.32 1726.58,1006.32 1727.14,1006.32 1727.69,1006.32 1728.25,1006.32 1728.8,1006.32 1729.36,1006.32 1729.91,1006.32 1730.46,1006.32 1731.01,1006.32 1731.55,1006.32 1732.1,1006.32 1732.65,1006.32 1733.19,1025.94 1733.73,1025.94 1734.27,1025.94 1734.81,1025.94 1735.35,1025.94 1735.89,1025.94 1736.43,1025.94 1736.96,1025.94 1737.5,1025.94 1738.03,1025.94 1738.56,1025.94 1739.09,1025.94 1739.62,1025.94 1740.15,1025.94 1740.68,1025.94 1741.2,1025.94 1741.73,1025.94 1742.25,1025.94 1742.77,1025.94 1743.29,1025.94 1743.82,1025.94 1744.33,1025.94 1744.85,1025.94 1745.37,1025.94 1745.88,1025.94 1746.4,1025.94 1746.91,1025.94 1747.43,1025.94 1747.94,1025.94 1748.45,1025.94 1748.96,1025.94 1749.46,1025.94 1749.97,1025.94 1750.48,1025.94 1750.98,1025.94 1751.49,1025.94 1751.99,1025.94 1752.49,1025.94 1752.99,1025.94 1753.49,1025.94 1753.99,1025.94 1754.49,1025.94 1754.98,1025.94 1755.48,1025.94 1755.97,1025.94 1756.46,1025.94 1756.96,1025.94 1757.45,1025.94 1757.94,1025.94 1758.43,1025.94 1758.92,1025.94 1759.4,1025.94 1759.89,1025.94 1760.37,1025.94 1760.86,1025.94 1761.34,1025.94 1761.82,1025.94 1762.31,1025.94 1762.79,1025.94 1763.27,1025.94 1763.74,1025.94 1764.22,1025.94 1764.7,1025.94 1765.17,1048.18 1765.65,1048.18 1766.12,1048.18 1766.6,1048.18 1767.07,1048.18 1767.54,1048.18 1768.01,1048.18 1768.48,1048.18 1768.95,1048.18 1769.41,1048.18 1769.88,1048.18 1770.34,1048.18 1770.81,1048.18 1771.27,1048.18 1771.73,1048.18 1772.2,1048.18 1772.66,1048.18 1773.12,1048.18 1773.58,1048.18 1774.03,1048.18 1774.49,1048.18 1774.95,1048.18 1775.4,1048.18 1775.86,1048.18 1776.31,1048.18 1776.77,1048.18 1777.22,1048.18 1777.67,1048.18 1778.12,1048.18 1778.57,1048.18 1779.02,1048.18 1779.47,1048.18 1779.91,1048.18 1780.36,1048.18 1780.8,1048.18 1781.25,1048.18 1781.69,1048.18 1782.14,1048.18 1782.58,1048.18 1783.02,1048.18 1783.46,1048.18 1783.9,1048.18 1784.34,1048.18 1784.78,1048.18 1785.21,1048.18 1785.65,1048.18 1786.09,1048.18 1786.52,1048.18 1786.95,1048.18 1787.39,1048.18 1787.82,1048.18 1788.25,1048.18 1788.68,1048.18 1789.11,1048.18 1789.54,1048.18 1789.97,1048.18 1790.4,1048.18 1790.83,1048.18 1791.25,1048.18 1791.68,1048.18 1792.1,1048.18 1792.53,1048.18 1792.95,1048.18 1793.37,1048.18 1793.79,1048.18 1794.22,1048.18 1794.64,1048.18 1795.06,1048.18 1795.47,1048.18 1795.89,1048.18 1796.31,1048.18 1796.73,1048.18 1797.14,1048.18 1797.56,1048.18 1797.97,1048.18 1798.39,1048.18 1798.8,1048.18 1799.21,1048.18 1799.62,1048.18 1800.03,1048.18 1800.44,1048.18 1800.85,1048.18 1801.26,1048.18 1801.67,1048.18 1802.08,1073.86 1802.48,1073.86 1802.89,1073.86 1803.29,1073.86 1803.7,1073.86 1804.1,1073.86 1804.51,1073.86 1804.91,1073.86 1805.31,1073.86 1805.71,1073.86 1806.11,1073.86 1806.51,1073.86 1806.91,1073.86 1807.31,1073.86 1807.71,1073.86 1808.11,1073.86 1808.5,1073.86 1808.9,1073.86 1809.29,1073.86 1809.69,1073.86 1810.08,1073.86 1810.47,1073.86 1810.87,1073.86 1811.26,1073.86 1811.65,1073.86 1812.04,1073.86 1812.43,1073.86 1812.82,1073.86 1813.21,1073.86 1813.6,1073.86 1813.99,1073.86 1814.37,1073.86 1814.76,1073.86 1815.14,1073.86 1815.53,1073.86 1815.91,1073.86 1816.3,1073.86 1816.68,1073.86 1817.06,1073.86 1817.44,1073.86 1817.83,1073.86 1818.21,1073.86 1818.59,1073.86 1818.97,1073.86 1819.35,1073.86 1819.72,1073.86 1820.1,1073.86 1820.48,1073.86 1820.85,1073.86 1821.23,1073.86 1821.61,1073.86 1821.98,1073.86 1822.35,1073.86 1822.73,1073.86 1823.1,1073.86 1823.47,1073.86 1823.85,1073.86 1824.22,1073.86 1824.59,1073.86 1824.96,1073.86 1825.33,1073.86 1825.7,1073.86 1826.06,1073.86 1826.43,1073.86 1826.8,1073.86 1827.17,1073.86 1827.53,1073.86 1827.9,1073.86 1828.26,1073.86 1828.63,1073.86 1828.99,1073.86 1829.35,1073.86 1829.72,1073.86 1830.08,1073.86 1830.44,1073.86 1830.8,1073.86 1831.16,1073.86 1831.52,1073.86 1831.88,1073.86 1832.24,1073.86 1832.6,1073.86 1832.96,1073.86 1833.31,1073.86 1833.67,1073.86 1834.03,1073.86 1834.38,1073.86 1834.74,1073.86 1835.09,1073.86 1835.45,1073.86 1835.8,1073.86 1836.15,1073.86 1836.51,1073.86 1836.86,1073.86 1837.21,1073.86 1837.56,1104.23 1837.91,1104.23 1838.26,1104.23 1838.61,1104.23 1838.96,1104.23 1839.31,1104.23 1839.66,1104.23 1840,1104.23 1840.35,1104.23 1840.7,1104.23 1841.04,1104.23 1841.39,1104.23 1841.73,1104.23 1842.08,1104.23 1842.42,1104.23 1842.77,1104.23 1843.11,1104.23 1843.45,1104.23 1843.79,1104.23 1844.13,1104.23 1844.48,1104.23 1844.82,1104.23 1845.16,1104.23 1845.5,1104.23 1845.83,1104.23 1846.17,1104.23 1846.51,1104.23 1846.85,1104.23 1847.19,1104.23 1847.52,1104.23 1847.86,1104.23 1848.19,1104.23 1848.53,1104.23 1848.86,1104.23 1849.2,1104.23 1849.53,1104.23 1849.87,1104.23 1850.2,1104.23 1850.53,1104.23 1850.86,1104.23 1851.19,1104.23 1851.53,1104.23 1851.86,1104.23 1852.19,1104.23 1852.52,1104.23 1852.84,1104.23 1853.17,1104.23 1853.5,1104.23 1853.83,1104.23 1854.16,1104.23 1854.48,1104.23 1854.81,1104.23 1855.14,1104.23 1855.46,1104.23 1855.79,1104.23 1856.11,1104.23 1856.44,1104.23 1856.76,1104.23 1857.08,1104.23 1857.41,1104.23 1857.73,1104.23 1858.05,1104.23 1858.37,1104.23 1858.69,1104.23 1859.02,1104.23 1859.34,1104.23 1859.66,1104.23 1859.97,1104.23 1860.29,1104.23 1860.61,1104.23 1860.93,1104.23 1861.25,1104.23 1861.57,1104.23 1861.88,1104.23 1862.2,1104.23 1862.52,1104.23 1862.83,1104.23 1863.15,1104.23 1863.46,1104.23 1863.78,1104.23 1864.09,1104.23 1864.4,1104.23 1864.72,1104.23 1865.03,1104.23 1865.34,1104.23 1865.65,1104.23 1865.97,1104.23 1866.28,1104.23 1866.59,1104.23 1866.9,1104.23 1867.21,1104.23 1867.52,1104.23 1867.83,1104.23 1868.14,1104.23 1868.44,1104.23 1868.75,1104.23 1869.06,1104.23 1869.37,1104.23 1869.67,1104.23 1869.98,1104.23 1870.29,1104.23 1870.59,1104.23 1870.9,1104.23 1871.2,1104.23 1871.51,1104.23 1871.81,1104.23 1872.11,1104.23 1872.42,1104.23 1872.72,1104.23 1873.02,1104.23 1873.32,1104.23 1873.63,1104.23 1873.93,1104.23 1874.23,1104.23 1874.53,1104.23 1874.83,1104.23 1875.13,1104.23 1875.43,1104.23 1875.73,1104.23 1876.03,1104.23 1876.32,1104.23 1876.62,1104.23 1876.92,1104.23 1877.22,1104.23 1877.51,1104.23 1877.81,1104.23 1878.11,1104.23 1878.4,1104.23 1878.7,1104.23 1878.99,1104.23 1879.29,1104.23 1879.58,1104.23 1879.88,1104.23 1880.17,1104.23 1880.46,1104.23 1880.75,1104.23 1881.05,1104.23 1881.34,1104.23 1881.63,1104.23 1881.92,1104.23 1882.21,1104.23 1882.5,1104.23 1882.79,1104.23 1883.08,1104.23 1883.37,1104.23 1883.66,1141.4 1883.95,1141.4 1884.24,1141.4 1884.53,1141.4 1884.82,1141.4 1885.1,1141.4 1885.39,1141.4 1885.68,1141.4 1885.97,1141.4 1886.25,1141.4 1886.54,1141.4 1886.82,1141.4 1887.11,1141.4 1887.39,1141.4 1887.68,1141.4 1887.96,1141.4 1888.25,1141.4 1888.53,1141.4 1888.81,1141.4 1889.09,1141.4 1889.38,1141.4 1889.66,1141.4 1889.94,1141.4 1890.22,1141.4 1890.5,1141.4 1890.78,1141.4 1891.06,1141.4 1891.34,1141.4 1891.62,1141.4 1891.9,1141.4 1892.18,1141.4 1892.46,1141.4 1892.74,1141.4 1893.02,1141.4 1893.3,1141.4 1893.57,1141.4 1893.85,1141.4 1894.13,1141.4 1894.4,1141.4 1894.68,1141.4 1894.96,1141.4 1895.23,1141.4 1895.51,1141.4 1895.78,1141.4 1896.06,1141.4 1896.33,1141.4 1896.61,1141.4 1896.88,1141.4 1897.15,1141.4 1897.43,1141.4 1897.7,1141.4 1897.97,1141.4 1898.24,1141.4 1898.51,1141.4 1898.79,1141.4 1899.06,1141.4 1899.33,1141.4 1899.6,1141.4 1899.87,1141.4 1900.14,1141.4 1900.41,1141.4 1900.68,1141.4 1900.95,1141.4 1901.22,1141.4 1901.48,1141.4 1901.75,1141.4 1902.02,1141.4 1902.29,1141.4 1902.55,1141.4 1902.82,1141.4 1903.09,1141.4 1903.35,1141.4 1903.62,1141.4 1903.89,1141.4 1904.15,1141.4 1904.42,1141.4 1904.68,1141.4 1904.95,1141.4 1905.21,1141.4 1905.47,1141.4 1905.74,1141.4 1906,1141.4 1906.27,1141.4 1906.53,1141.4 1906.79,1141.4 1907.05,1141.4 1907.31,1141.4 1907.58,1141.4 1907.84,1141.4 1908.1,1141.4 1908.36,1141.4 1908.62,1141.4 1908.88,1141.4 1909.14,1141.4 1909.4,1141.4 1909.66,1141.4 1909.92,1141.4 1910.18,1141.4 1910.44,1141.4 1910.69,1141.4 1910.95,1141.4 1911.21,1141.4 1911.47,1141.4 1911.72,1141.4 1911.98,1141.4 1912.24,1141.4 1912.49,1141.4 1912.75,1141.4 1913.01,1141.4 1913.26,1141.4 1913.52,1141.4 1913.77,1141.4 1914.03,1141.4 1914.28,1141.4 1914.54,1141.4 1914.79,1141.4 1915.04,1141.4 1915.3,1141.4 1915.55,1141.4 1915.8,1141.4 1916.05,1141.4 1916.31,1141.4 1916.56,1141.4 1916.81,1141.4 1917.06,1141.4 1917.31,1141.4 1917.56,1141.4 1917.81,1141.4 1918.06,1141.4 1918.32,1141.4 1918.56,1141.4 1918.81,1141.4 1919.06,1141.4 1919.31,1141.4 1919.56,1141.4 1919.81,1141.4 1920.06,1141.4 1920.31,1141.4 1920.55,1141.4 1920.8,1141.4 1921.05,1141.4 1921.3,1141.4 1921.54,1141.4 1921.79,1141.4 1922.04,1141.4 1922.28,1141.4 1922.53,1141.4 1922.77,1141.4 1923.02,1141.4 1923.26,1141.4 1923.51,1141.4 1923.75,1141.4 1924,1141.4 1924.24,1141.4 1924.48,1141.4 1924.73,1141.4 1924.97,1141.4 1925.21,1141.4 1925.46,1141.4 1925.7,1141.4 1925.94,1141.4 1926.18,1141.4 1926.43,1141.4 1926.67,1141.4 1926.91,1141.4 1927.15,1141.4 1927.39,1141.4 1927.63,1141.4 1927.87,1141.4 1928.11,1141.4 1928.35,1141.4 1928.59,1141.4 1928.83,1141.4 1929.07,1141.4 1929.31,1141.4 1929.55,1141.4 1929.79,1141.4 1930.02,1141.4 1930.26,1141.4 1930.5,1141.4 1930.74,1141.4 1930.97,1141.4 1931.21,1141.4 1931.45,1141.4 1931.68,1141.4 1931.92,1141.4 1932.16,1141.4 1932.39,1141.4 1932.63,1141.4 1932.86,1141.4 1933.1,1141.4 1933.33,1141.4 1933.57,1141.4 1933.8,1141.4 1934.04,1141.4 1934.27,1141.4 1934.5,1141.4 1934.74,1141.4 1934.97,1141.4 1935.2,1141.4 1935.44,1141.4 1935.67,1141.4 1935.9,1141.4 1936.13,1141.4 1936.37,1141.4 1936.6,1141.4 1936.83,1141.4 1937.06,1141.4 1937.29,1141.4 1937.52,1141.4 1937.75,1141.4 1937.98,1141.4 1938.21,1141.4 1938.44,1141.4 1938.67,1141.4 1938.9,1141.4 1939.13,1141.4 1939.36,1141.4 1939.59,1141.4 1939.82,1189.31 1940.05,1189.31 1940.27,1189.31 1940.5,1189.31 1940.73,1189.31 1940.96,1189.31 1941.18,1189.31 1941.41,1189.31 1941.64,1189.31 1941.86,1189.31 1942.09,1189.31 1942.32,1189.31 1942.54,1189.31 1942.77,1189.31 1942.99,1189.31 1943.22,1189.31 1943.44,1189.31 1943.67,1189.31 1943.89,1189.31 1944.12,1189.31 1944.34,1189.31 1944.57,1189.31 1944.79,1189.31 1945.01,1189.31 1945.24,1189.31 1945.46,1189.31 1945.68,1189.31 1945.91,1189.31 1946.13,1189.31 1946.35,1189.31 1946.57,1189.31 1946.8,1189.31 1947.02,1189.31 1947.24,1189.31 1947.46,1189.31 1947.68,1189.31 1947.9,1189.31 1948.12,1189.31 1948.34,1189.31 1948.56,1189.31 1948.79,1189.31 1949,1189.31 1949.22,1189.31 1949.44,1189.31 1949.66,1189.31 1949.88,1189.31 1950.1,1189.31 1950.32,1189.31 1950.54,1189.31 1950.76,1189.31 1950.98,1189.31 1951.19,1189.31 1951.41,1189.31 1951.63,1189.31 1951.85,1189.31 1952.06,1189.31 1952.28,1189.31 1952.5,1189.31 1952.71,1189.31 1952.93,1189.31 1953.15,1189.31 1953.36,1189.31 1953.58,1189.31 1953.79,1189.31 1954.01,1189.31 1954.22,1189.31 1954.44,1189.31 1954.65,1189.31 1954.87,1189.31 1955.08,1189.31 1955.3,1189.31 1955.51,1189.31 1955.72,1189.31 1955.94,1189.31 1956.15,1189.31 1956.36,1189.31 1956.58,1189.31 1956.79,1189.31 1957,1189.31 1957.22,1189.31 1957.43,1189.31 1957.64,1189.31 1957.85,1189.31 1958.06,1189.31 1958.28,1189.31 1958.49,1189.31 1958.7,1189.31 1958.91,1189.31 1959.12,1189.31 1959.33,1189.31 1959.54,1189.31 1959.75,1189.31 1959.96,1189.31 1960.17,1189.31 1960.38,1189.31 1960.59,1189.31 1960.8,1189.31 1961.01,1189.31 1961.22,1189.31 1961.43,1189.31 1961.63,1189.31 1961.84,1189.31 1962.05,1189.31 1962.26,1189.31 1962.47,1189.31 1962.67,1189.31 1962.88,1189.31 1963.09,1189.31 1963.3,1189.31 1963.5,1189.31 1963.71,1189.31 1963.92,1189.31 1964.12,1189.31 1964.33,1189.31 1964.54,1189.31 1964.74,1189.31 1964.95,1189.31 1965.15,1189.31 1965.36,1189.31 1965.56,1189.31 1965.77,1189.31 1965.97,1189.31 1966.18,1189.31 1966.38,1189.31 1966.59,1189.31 1966.79,1189.31 1966.99,1189.31 1967.2,1189.31 1967.4,1189.31 1967.61,1189.31 1967.81,1189.31 1968.01,1189.31 1968.21,1189.31 1968.42,1189.31 1968.62,1189.31 1968.82,1189.31 1969.02,1189.31 1969.23,1189.31 1969.43,1189.31 1969.63,1189.31 1969.83,1189.31 1970.03,1189.31 1970.23,1189.31 1970.44,1189.31 1970.64,1189.31 1970.84,1189.31 1971.04,1189.31 1971.24,1189.31 1971.44,1189.31 1971.64,1189.31 1971.84,1189.31 1972.04,1189.31 1972.24,1189.31 1972.44,1189.31 1972.64,1189.31 1972.83,1189.31 1973.03,1189.31 1973.23,1189.31 1973.43,1189.31 1973.63,1189.31 1973.83,1189.31 1974.02,1189.31 1974.22,1189.31 1974.42,1189.31 1974.62,1189.31 1974.82,1189.31 1975.01,1189.31 1975.21,1189.31 1975.41,1189.31 1975.6,1189.31 1975.8,1189.31 1976,1189.31 1976.19,1189.31 1976.39,1189.31 1976.58,1189.31 1976.78,1189.31 1976.98,1189.31 1977.17,1189.31 1977.37,1189.31 1977.56,1189.31 1977.76,1189.31 1977.95,1189.31 1978.15,1189.31 1978.34,1189.31 1978.53,1189.31 1978.73,1189.31 1978.92,1189.31 1979.12,1189.31 1979.31,1189.31 1979.5,1189.31 1979.7,1189.31 1979.89,1189.31 1980.08,1189.31 1980.28,1189.31 1980.47,1189.31 1980.66,1189.31 1980.85,1189.31 1981.05,1189.31 1981.24,1189.31 1981.43,1189.31 1981.62,1189.31 1981.81,1189.31 1982.01,1189.31 1982.2,1189.31 1982.39,1189.31 1982.58,1189.31 1982.77,1189.31 1982.96,1189.31 1983.15,1189.31 1983.34,1189.31 1983.53,1189.31 1983.72,1189.31 1983.91,1189.31 1984.1,1189.31 1984.29,1189.31 1984.48,1189.31 1984.67,1189.31 1984.86,1189.31 1985.05,1189.31 1985.24,1189.31 1985.43,1189.31 1985.61,1189.31 1985.8,1189.31 1985.99,1189.31 1986.18,1189.31 1986.37,1189.31 1986.56,1189.31 1986.74,1189.31 1986.93,1189.31 1987.12,1189.31 1987.31,1189.31 1987.49,1189.31 1987.68,1189.31 1987.87,1189.31 1988.05,1189.31 1988.24,1189.31 1988.43,1189.31 1988.61,1189.31 1988.8,1189.31 1988.98,1189.31 1989.17,1189.31 1989.36,1189.31 1989.54,1189.31 1989.73,1189.31 1989.91,1189.31 1990.1,1189.31 1990.28,1189.31 1990.47,1189.31 1990.65,1189.31 1990.84,1189.31 1991.02,1189.31 1991.21,1189.31 1991.39,1189.31 1991.57,1189.31 1991.76,1189.31 1991.94,1189.31 1992.12,1189.31 1992.31,1189.31 1992.49,1189.31 1992.67,1189.31 1992.86,1189.31 1993.04,1189.31 1993.22,1189.31 1993.41,1189.31 1993.59,1189.31 1993.77,1189.31 1993.95,1189.31 1994.13,1189.31 1994.32,1189.31 1994.5,1189.31 1994.68,1189.31 1994.86,1189.31 1995.04,1189.31 1995.22,1189.31 1995.4,1189.31 1995.59,1189.31 1995.77,1189.31 1995.95,1189.31 1996.13,1189.31 1996.31,1189.31 1996.49,1189.31 1996.67,1189.31 1996.85,1189.31 1997.03,1189.31 1997.21,1189.31 1997.39,1189.31 1997.57,1189.31 1997.75,1189.31 1997.92,1189.31 1998.1,1189.31 1998.28,1189.31 1998.46,1189.31 1998.64,1189.31 1998.82,1189.31 1999,1189.31 1999.17,1189.31 1999.35,1189.31 1999.53,1189.31 1999.71,1189.31 1999.89,1189.31 2000.06,1189.31 2000.24,1189.31 2000.42,1189.31 2000.6,1189.31 2000.77,1189.31 2000.95,1189.31 2001.13,1189.31 2001.3,1189.31 2001.48,1189.31 2001.66,1189.31 2001.83,1189.31 2002.01,1189.31 2002.18,1189.31 2002.36,1189.31 2002.54,1189.31 2002.71,1189.31 2002.89,1189.31 2003.06,1189.31 2003.24,1189.31 2003.41,1189.31 2003.59,1189.31 2003.76,1189.31 2003.94,1189.31 2004.11,1189.31 2004.29,1189.31 2004.46,1189.31 2004.63,1189.31 2004.81,1189.31 2004.98,1189.31 2005.16,1189.31 2005.33,1189.31 2005.5,1189.31 2005.68,1189.31 2005.85,1189.31 2006.02,1189.31 2006.2,1189.31 2006.37,1189.31 2006.54,1189.31 2006.71,1189.31 2006.89,1189.31 2007.06,1189.31 2007.23,1189.31 2007.4,1189.31 2007.58,1189.31 2007.75,1189.31 2007.92,1189.31 2008.09,1189.31 2008.26,1189.31 2008.43,1189.31 2008.6,1189.31 2008.78,1189.31 2008.95,1189.31 2009.12,1189.31 2009.29,1189.31 2009.46,1189.31 2009.63,1189.31 2009.8,1189.31 2009.97,1189.31 2010.14,1189.31 2010.31,1189.31 2010.48,1189.31 2010.65,1189.31 2010.82,1189.31 2010.99,1189.31 2011.16,1189.31 2011.33,1189.31 2011.5,1189.31 2011.67,1189.31 2011.84,1189.31 2012,1189.31 2012.17,1189.31 2012.34,1189.31 2012.51,1189.31 2012.68,1189.31 2012.85,1189.31 2013.02,1189.31 2013.18,1256.85 2013.35,1256.85 2013.52,1256.85 2013.69,1256.85 2013.85,1256.85 2014.02,1256.85 2014.19,1256.85 2014.36,1256.85 2014.52,1256.85 2014.69,1256.85 2014.86,1256.85 2015.02,1256.85 2015.19,1256.85 2015.36,1256.85 2015.52,1256.85 2015.69,1256.85 2015.86,1256.85 2016.02,1256.85 2016.19,1256.85 2016.35,1256.85 2016.52,1256.85 2016.69,1256.85 2016.85,1256.85 2017.02,1256.85 2017.18,1256.85 2017.35,1256.85 2017.51,1256.85 2017.68,1256.85 2017.84,1256.85 2018.01,1256.85 2018.17,1256.85 2018.33,1256.85 2018.5,1256.85 2018.66,1256.85 2018.83,1256.85 2018.99,1256.85 2019.15,1256.85 2019.32,1256.85 2019.48,1256.85 2019.65,1256.85 2019.81,1256.85 2019.97,1256.85 2020.14,1256.85 2020.3,1256.85 2020.46,1256.85 2020.62,1256.85 2020.79,1256.85 2020.95,1256.85 2021.11,1256.85 2021.28,1256.85 2021.44,1256.85 2021.6,1256.85 2021.76,1256.85 2021.92,1256.85 2022.09,1256.85 2022.25,1256.85 2022.41,1256.85 2022.57,1256.85 2022.73,1256.85 2022.89,1256.85 2023.05,1256.85 2023.22,1256.85 2023.38,1256.85 2023.54,1256.85 2023.7,1256.85 2023.86,1256.85 2024.02,1256.85 2024.18,1256.85 2024.34,1256.85 2024.5,1256.85 2024.66,1256.85 2024.82,1256.85 2024.98,1256.85 2025.14,1256.85 2025.3,1256.85 2025.46,1256.85 2025.62,1256.85 2025.78,1256.85 2025.94,1256.85 2026.1,1256.85 2026.26,1256.85 2026.42,1256.85 2026.57,1256.85 2026.73,1256.85 2026.89,1256.85 2027.05,1256.85 2027.21,1256.85 2027.37,1256.85 2027.52,1256.85 2027.68,1256.85 2027.84,1256.85 2028,1256.85 2028.16,1256.85 2028.31,1256.85 2028.47,1256.85 2028.63,1256.85 2028.79,1256.85 2028.94,1256.85 2029.1,1256.85 2029.26,1256.85 2029.42,1256.85 2029.57,1256.85 2029.73,1256.85 2029.89,1256.85 2030.04,1256.85 2030.2,1256.85 2030.35,1256.85 2030.51,1256.85 2030.67,1256.85 2030.82,1256.85 2030.98,1256.85 2031.14,1256.85 2031.29,1256.85 2031.45,1256.85 2031.6,1256.85 2031.76,1256.85 2031.91,1256.85 2032.07,1256.85 2032.22,1256.85 2032.38,1256.85 2032.53,1256.85 2032.69,1256.85 2032.84,1256.85 2033,1256.85 2033.15,1256.85 2033.31,1256.85 2033.46,1256.85 2033.61,1256.85 2033.77,1256.85 2033.92,1256.85 2034.08,1256.85 2034.23,1256.85 2034.38,1256.85 2034.54,1256.85 2034.69,1256.85 2034.85,1256.85 2035,1256.85 2035.15,1256.85 2035.3,1256.85 2035.46,1256.85 2035.61,1256.85 2035.76,1256.85 2035.92,1256.85 2036.07,1256.85 2036.22,1256.85 2036.37,1256.85 2036.53,1256.85 2036.68,1256.85 2036.83,1256.85 2036.98,1256.85 2037.13,1256.85 2037.29,1256.85 2037.44,1256.85 2037.59,1256.85 2037.74,1256.85 2037.89,1256.85 2038.04,1256.85 2038.2,1256.85 2038.35,1256.85 2038.5,1256.85 2038.65,1256.85 2038.8,1256.85 2038.95,1256.85 2039.1,1256.85 2039.25,1256.85 2039.4,1256.85 2039.55,1256.85 2039.7,1256.85 2039.85,1256.85 2040,1256.85 2040.15,1256.85 2040.3,1256.85 2040.45,1256.85 2040.6,1256.85 2040.75,1256.85 2040.9,1256.85 2041.05,1256.85 2041.2,1256.85 2041.35,1256.85 2041.5,1256.85 2041.65,1256.85 2041.8,1256.85 2041.95,1256.85 2042.1,1256.85 2042.24,1256.85 2042.39,1256.85 2042.54,1256.85 2042.69,1256.85 2042.84,1256.85 2042.99,1256.85 2043.14,1256.85 2043.28,1256.85 2043.43,1256.85 2043.58,1256.85 2043.73,1256.85 2043.88,1256.85 2044.02,1256.85 2044.17,1256.85 2044.32,1256.85 2044.47,1256.85 2044.61,1256.85 2044.76,1256.85 2044.91,1256.85 2045.05,1256.85 2045.2,1256.85 2045.35,1256.85 2045.49,1256.85 2045.64,1256.85 2045.79,1256.85 2045.93,1256.85 2046.08,1256.85 2046.23,1256.85 2046.37,1256.85 2046.52,1256.85 2046.66,1256.85 2046.81,1256.85 2046.96,1256.85 2047.1,1256.85 2047.25,1256.85 2047.39,1256.85 2047.54,1256.85 2047.68,1256.85 2047.83,1256.85 2047.97,1256.85 2048.12,1256.85 2048.27,1256.85 2048.41,1256.85 2048.55,1256.85 2048.7,1256.85 2048.84,1256.85 2048.99,1256.85 2049.13,1256.85 2049.28,1256.85 2049.42,1256.85 2049.57,1256.85 2049.71,1256.85 2049.85,1256.85 2050,1256.85 2050.14,1256.85 2050.29,1256.85 2050.43,1256.85 2050.57,1256.85 2050.72,1256.85 2050.86,1256.85 2051,1256.85 2051.15,1256.85 2051.29,1256.85 2051.43,1256.85 2051.58,1256.85 2051.72,1256.85 2051.86,1256.85 2052.01,1256.85 2052.15,1256.85 2052.29,1256.85 2052.43,1256.85 2052.58,1256.85 2052.72,1256.85 2052.86,1256.85 2053,1256.85 2053.14,1256.85 2053.29,1256.85 2053.43,1256.85 2053.57,1256.85 2053.71,1256.85 2053.85,1256.85 2054,1256.85 2054.14,1256.85 2054.28,1256.85 2054.42,1256.85 2054.56,1256.85 2054.7,1256.85 2054.84,1256.85 2054.98,1256.85 2055.13,1256.85 2055.27,1256.85 2055.41,1256.85 2055.55,1256.85 2055.69,1256.85 2055.83,1256.85 2055.97,1256.85 2056.11,1256.85 2056.25,1256.85 2056.39,1256.85 2056.53,1256.85 2056.67,1256.85 2056.81,1256.85 2056.95,1256.85 2057.09,1256.85 2057.23,1256.85 2057.37,1256.85 2057.51,1256.85 2057.65,1256.85 2057.79,1256.85 2057.93,1256.85 2058.07,1256.85 2058.2,1256.85 2058.34,1256.85 2058.48,1256.85 2058.62,1256.85 2058.76,1256.85 2058.9,1256.85 2059.04,1256.85 2059.18,1256.85 2059.31,1256.85 2059.45,1256.85 2059.59,1256.85 2059.73,1256.85 2059.87,1256.85 2060.01,1256.85 2060.14,1256.85 2060.28,1256.85 2060.42,1256.85 2060.56,1256.85 2060.69,1256.85 2060.83,1256.85 2060.97,1256.85 2061.11,1256.85 2061.24,1256.85 2061.38,1256.85 2061.52,1256.85 2061.66,1256.85 2061.79,1256.85 2061.93,1256.85 2062.07,1256.85 2062.2,1256.85 2062.34,1256.85 2062.48,1256.85 2062.61,1256.85 2062.75,1256.85 2062.89,1256.85 2063.02,1256.85 2063.16,1256.85 2063.3,1256.85 2063.43,1256.85 2063.57,1256.85 2063.7,1256.85 2063.84,1256.85 2063.98,1256.85 2064.11,1256.85 2064.25,1256.85 2064.38,1256.85 2064.52,1256.85 2064.65,1256.85 2064.79,1256.85 2064.92,1256.85 2065.06,1256.85 2065.19,1256.85 2065.33,1256.85 2065.46,1256.85 2065.6,1256.85 2065.73,1256.85 2065.87,1256.85 2066,1256.85 2066.14,1256.85 2066.27,1256.85 2066.41,1256.85 2066.54,1256.85 2066.67,1256.85 2066.81,1256.85 2066.94,1256.85 2067.08,1256.85 2067.21,1256.85 2067.35,1256.85 2067.48,1256.85 2067.61,1256.85 2067.75,1256.85 2067.88,1256.85 2068.01,1256.85 2068.15,1256.85 2068.28,1256.85 2068.41,1256.85 2068.55,1256.85 2068.68,1256.85 2068.81,1256.85 2068.95,1256.85 2069.08,1256.85 2069.21,1256.85 2069.34,1256.85 2069.48,1256.85 2069.61,1256.85 2069.74,1256.85 2069.87,1256.85 2070.01,1256.85 2070.14,1256.85 2070.27,1256.85 2070.4,1256.85 2070.54,1256.85 2070.67,1256.85 2070.8,1256.85 2070.93,1256.85 2071.06,1256.85 2071.2,1256.85 2071.33,1256.85 2071.46,1256.85 2071.59,1256.85 2071.72,1256.85 2071.85,1256.85 2071.98,1256.85 2072.12,1256.85 2072.25,1256.85 2072.38,1256.85 2072.51,1256.85 2072.64,1256.85 2072.77,1256.85 2072.9,1256.85 2073.03,1256.85 2073.16,1256.85 2073.29,1256.85 2073.42,1256.85 2073.55,1256.85 2073.68,1256.85 2073.82,1256.85 2073.95,1256.85 2074.08,1256.85 2074.21,1256.85 2074.34,1256.85 2074.47,1256.85 2074.6,1256.85 2074.73,1256.85 2074.85,1256.85 2074.98,1256.85 2075.11,1256.85 2075.24,1256.85 2075.37,1256.85 2075.5,1256.85 2075.63,1256.85 2075.76,1256.85 2075.89,1256.85 2076.02,1256.85 2076.15,1256.85 2076.28,1256.85 2076.41,1256.85 2076.54,1256.85 2076.66,1256.85 2076.79,1256.85 2076.92,1256.85 2077.05,1256.85 2077.18,1256.85 2077.31,1256.85 2077.43,1256.85 2077.56,1256.85 2077.69,1256.85 2077.82,1256.85 2077.95,1256.85 2078.08,1256.85 2078.2,1256.85 2078.33,1256.85 2078.46,1256.85 2078.59,1256.85 2078.71,1256.85 2078.84,1256.85 2078.97,1256.85 2079.1,1256.85 2079.22,1256.85 2079.35,1256.85 2079.48,1256.85 2079.61,1256.85 2079.73,1256.85 2079.86,1256.85 2079.99,1256.85 2080.11,1256.85 2080.24,1256.85 2080.37,1256.85 2080.49,1256.85 2080.62,1256.85 2080.75,1256.85 2080.87,1256.85 2081,1256.85 2081.13,1256.85 2081.25,1256.85 2081.38,1256.85 2081.51,1256.85 2081.63,1256.85 2081.76,1256.85 2081.88,1256.85 2082.01,1256.85 2082.14,1256.85 2082.26,1256.85 2082.39,1256.85 2082.51,1256.85 2082.64,1256.85 2082.76,1256.85 2082.89,1256.85 2083.01,1256.85 2083.14,1256.85 2083.26,1256.85 2083.39,1256.85 2083.52,1256.85 2083.64,1256.85 2083.77,1256.85 2083.89,1256.85 2084.01,1256.85 2084.14,1256.85 2084.26,1256.85 2084.39,1256.85 2084.51,1256.85 2084.64,1256.85 2084.76,1256.85 2084.89,1256.85 2085.01,1256.85 2085.14,1256.85 2085.26,1256.85 2085.38,1256.85 2085.51,1256.85 2085.63,1256.85 2085.76,1256.85 2085.88,1256.85 2086,1256.85 2086.13,1256.85 2086.25,1256.85 2086.37,1256.85 2086.5,1256.85 2086.62,1256.85 2086.75,1256.85 2086.87,1256.85 2086.99,1256.85 2087.11,1256.85 2087.24,1256.85 2087.36,1256.85 2087.48,1256.85 2087.61,1256.85 2087.73,1256.85 2087.85,1256.85 2087.98,1256.85 2088.1,1256.85 2088.22,1256.85 2088.34,1256.85 2088.47,1256.85 2088.59,1256.85 2088.71,1256.85 2088.83,1256.85 2088.96,1256.85 2089.08,1256.85 2089.2,1256.85 2089.32,1256.85 2089.44,1256.85 2089.57,1256.85 2089.69,1256.85 2089.81,1256.85 2089.93,1256.85 2090.05,1256.85 2090.18,1256.85 2090.3,1256.85 2090.42,1256.85 2090.54,1256.85 2090.66,1256.85 2090.78,1256.85 2090.9,1256.85 2091.03,1256.85 2091.15,1256.85 2091.27,1256.85 2091.39,1256.85 2091.51,1256.85 2091.63,1256.85 2091.75,1256.85 2091.87,1256.85 2091.99,1256.85 2092.11,1256.85 2092.23,1256.85 2092.35,1256.85 2092.48,1256.85 2092.6,1256.85 2092.72,1256.85 2092.84,1256.85 2092.96,1256.85 2093.08,1256.85 2093.2,1256.85 2093.32,1256.85 2093.44,1256.85 2093.56,1256.85 2093.68,1256.85 2093.8,1256.85 2093.92,1256.85 2094.04,1256.85 2094.16,1256.85 2094.28,1256.85 2094.39,1256.85 2094.51,1256.85 2094.63,1256.85 2094.75,1256.85 2094.87,1256.85 2094.99,1256.85 2095.11,1256.85 2095.23,1256.85 2095.35,1256.85 2095.47,1256.85 2095.59,1256.85 2095.71,1256.85 2095.82,1256.85 2095.94,1256.85 2096.06,1256.85 2096.18,1256.85 2096.3,1256.85 2096.42,1256.85 2096.54,1256.85 2096.65,1256.85 2096.77,1256.85 2096.89,1256.85 2097.01,1256.85 2097.13,1256.85 2097.25,1256.85 2097.36,1256.85 2097.48,1256.85 2097.6,1256.85 2097.72,1256.85 2097.84,1256.85 2097.95,1256.85 2098.07,1256.85 2098.19,1256.85 2098.31,1256.85 2098.42,1256.85 2098.54,1256.85 2098.66,1256.85 2098.78,1256.85 2098.89,1256.85 2099.01,1256.85 2099.13,1256.85 2099.24,1256.85 2099.36,1256.85 2099.48,1256.85 2099.6,1256.85 2099.71,1256.85 2099.83,1256.85 2099.95,1256.85 2100.06,1256.85 2100.18,1256.85 2100.3,1256.85 2100.41,1256.85 2100.53,1256.85 2100.65,1256.85 2100.76,1256.85 2100.88,1256.85 2100.99,1256.85 2101.11,1256.85 2101.23,1256.85 2101.34,1256.85 2101.46,1256.85 2101.57,1256.85 2101.69,1256.85 2101.81,1256.85 2101.92,1256.85 2102.04,1256.85 2102.15,1256.85 2102.27,1256.85 2102.39,1256.85 2102.5,1256.85 2102.62,1256.85 2102.73,1256.85 2102.85,1256.85 2102.96,1256.85 2103.08,1256.85 2103.19,1256.85 2103.31,1256.85 2103.42,1256.85 2103.54,1256.85 2103.65,1256.85 2103.77,1256.85 2103.88,1256.85 2104,1256.85 2104.11,1256.85 2104.23,1256.85 2104.34,1256.85 2104.46,1256.85 2104.57,1256.85 2104.69,1256.85 2104.8,1256.85 2104.91,1256.85 2105.03,1256.85 2105.14,1256.85 2105.26,1256.85 2105.37,1256.85 2105.48,1256.85 2105.6,1256.85 2105.71,1256.85 2105.83,1256.85 2105.94,1256.85 2106.05,1256.85 2106.17,1256.85 2106.28,1256.85 2106.4,1256.85 2106.51,1256.85 2106.62,1256.85 2106.74,1256.85 2106.85,1256.85 2106.96,1256.85 2107.08,1256.85 2107.19,1256.85 2107.3,1256.85 2107.42,1256.85 2107.53,1256.85 2107.64,1256.85 2107.76,1256.85 2107.87,1256.85 2107.98,1256.85 2108.09,1256.85 2108.21,1256.85 2108.32,1256.85 2108.43,1256.85 2108.55,1256.85 2108.66,1256.85 2108.77,1256.85 2108.88,1256.85 2109,1256.85 2109.11,1256.85 2109.22,1256.85 2109.33,1256.85 2109.44,1256.85 2109.56,1256.85 2109.67,1256.85 2109.78,1256.85 2109.89,1256.85 2110,1256.85 2110.12,1256.85 2110.23,1256.85 2110.34,1256.85 2110.45,1256.85 2110.56,1256.85 2110.68,1256.85 2110.79,1256.85 2110.9,1256.85 2111.01,1256.85 2111.12,1256.85 2111.23,1256.85 2111.34,1256.85 2111.46,1256.85 2111.57,1256.85 2111.68,1256.85 2111.79,1256.85 2111.9,1256.85 2112.01,1256.85 2112.12,1256.85 2112.23,1256.85 2112.34,1256.85 2112.45,1256.85 2112.57,1256.85 2112.68,1256.85 2112.79,1256.85 2112.9,1256.85 2113.01,1256.85 2113.12,1256.85 2113.23,1256.85 2113.34,1256.85 2113.45,1256.85 2113.56,1256.85 2113.67,1256.85 2113.78,1256.85 2113.89,1256.85 2114,1256.85 2114.11,1256.85 2114.22,1256.85 2114.33,1256.85 2114.44,1256.85 2114.55,1256.85 2114.66,1256.85 2114.77,1256.85 2114.88,1256.85 2114.99,1256.85 2115.1,1256.85 2115.21,1256.85 2115.32,1256.85 2115.43,1256.85 2115.54,1256.85 2115.65,1256.85 2115.75,1372.3 2115.86,1372.3 2115.97,1372.3 2116.08,1372.3 2116.19,1372.3 2116.3,1372.3 2116.41,1372.3 2116.52,1372.3 2116.63,1372.3 2116.74,1372.3 2116.84,1372.3 2116.95,1372.3 2117.06,1372.3 2117.17,1372.3 2117.28,1372.3 2117.39,1372.3 2117.5,1372.3 2117.61,1372.3 2117.71,1372.3 2117.82,1372.3 2117.93,1372.3 2118.04,1372.3 2118.15,1372.3 2118.25,1372.3 2118.36,1372.3 2118.47,1372.3 2118.58,1372.3 2118.69,1372.3 2118.79,1372.3 2118.9,1372.3 2119.01,1372.3 2119.12,1372.3 2119.23,1372.3 2119.33,1372.3 2119.44,1372.3 2119.55,1372.3 2119.66,1372.3 2119.76,1372.3 2119.87,1372.3 2119.98,1372.3 2120.09,1372.3 2120.19,1372.3 2120.3,1372.3 2120.41,1372.3 2120.51,1372.3 2120.62,1372.3 2120.73,1372.3 2120.84,1372.3 2120.94,1372.3 2121.05,1372.3 2121.16,1372.3 2121.26,1372.3 2121.37,1372.3 2121.48,1372.3 2121.58,1372.3 2121.69,1372.3 2121.8,1372.3 2121.9,1372.3 2122.01,1372.3 2122.12,1372.3 2122.22,1372.3 2122.33,1372.3 2122.43,1372.3 2122.54,1372.3 2122.65,1372.3 2122.75,1372.3 2122.86,1372.3 2122.97,1372.3 2123.07,1372.3 2123.18,1372.3 2123.28,1372.3 2123.39,1372.3 2123.49,1372.3 2123.6,1372.3 2123.71,1372.3 2123.81,1372.3 2123.92,1372.3 2124.02,1372.3 2124.13,1372.3 2124.23,1372.3 2124.34,1372.3 2124.44,1372.3 2124.55,1372.3 2124.66,1372.3 2124.76,1372.3 2124.87,1372.3 2124.97,1372.3 2125.08,1372.3 2125.18,1372.3 2125.29,1372.3 2125.39,1372.3 2125.5,1372.3 2125.6,1372.3 2125.71,1372.3 2125.81,1372.3 2125.91,1372.3 2126.02,1372.3 2126.12,1372.3 2126.23,1372.3 2126.33,1372.3 2126.44,1372.3 2126.54,1372.3 2126.65,1372.3 2126.75,1372.3 2126.86,1372.3 2126.96,1372.3 2127.06,1372.3 2127.17,1372.3 2127.27,1372.3 2127.38,1372.3 2127.48,1372.3 2127.58,1372.3 2127.69,1372.3 2127.79,1372.3 2127.9,1372.3 2128,1372.3 2128.1,1372.3 2128.21,1372.3 2128.31,1372.3 2128.41,1372.3 2128.52,1372.3 2128.62,1372.3 2128.73,1372.3 2128.83,1372.3 2128.93,1372.3 2129.04,1372.3 2129.14,1372.3 2129.24,1372.3 2129.35,1372.3 2129.45,1372.3 2129.55,1372.3 2129.65,1372.3 2129.76,1372.3 2129.86,1372.3 2129.96,1372.3 2130.07,1372.3 2130.17,1372.3 2130.27,1372.3 2130.38,1372.3 2130.48,1372.3 2130.58,1372.3 2130.68,1372.3 2130.79,1372.3 2130.89,1372.3 2130.99,1372.3 2131.09,1372.3 2131.2,1372.3 2131.3,1372.3 2131.4,1372.3 2131.5,1372.3 2131.61,1372.3 2131.71,1372.3 2131.81,1372.3 2131.91,1372.3 2132.01,1372.3 2132.12,1372.3 2132.22,1372.3 2132.32,1372.3 2132.42,1372.3 2132.52,1372.3 2132.63,1372.3 2132.73,1372.3 2132.83,1372.3 2132.93,1372.3 2133.03,1372.3 2133.13,1372.3 2133.24,1372.3 2133.34,1372.3 2133.44,1372.3 2133.54,1372.3 2133.64,1372.3 2133.74,1372.3 2133.84,1372.3 2133.95,1372.3 2134.05,1372.3 2134.15,1372.3 2134.25,1372.3 2134.35,1372.3 2134.45,1372.3 2134.55,1372.3 2134.65,1372.3 2134.75,1372.3 2134.85,1372.3 2134.96,1372.3 2135.06,1372.3 2135.16,1372.3 2135.26,1372.3 2135.36,1372.3 2135.46,1372.3 2135.56,1372.3 2135.66,1372.3 2135.76,1372.3 2135.86,1372.3 2135.96,1372.3 2136.06,1372.3 2136.16,1372.3 2136.26,1372.3 2136.36,1372.3 2136.46,1372.3 2136.56,1372.3 2136.66,1372.3 2136.76,1372.3 2136.86,1372.3 2136.96,1372.3 2137.06,1372.3 2137.16,1372.3 2137.26,1372.3 2137.36,1372.3 2137.46,1372.3 2137.56,1372.3 2137.66,1372.3 2137.76,1372.3 2137.86,1372.3 2137.96,1372.3 2138.06,1372.3 2138.16,1372.3 2138.26,1372.3 2138.36,1372.3 2138.46,1372.3 2138.56,1372.3 2138.66,1372.3 2138.76,1372.3 2138.85,1372.3 2138.95,1372.3 2139.05,1372.3 2139.15,1372.3 2139.25,1372.3 2139.35,1372.3 2139.45,1372.3 2139.55,1372.3 2139.65,1372.3 2139.75,1372.3 2139.84,1372.3 2139.94,1372.3 2140.04,1372.3 2140.14,1372.3 2140.24,1372.3 2140.34,1372.3 2140.44,1372.3 2140.53,1372.3 2140.63,1372.3 2140.73,1372.3 2140.83,1372.3 2140.93,1372.3 2141.03,1372.3 2141.12,1372.3 2141.22,1372.3 2141.32,1372.3 2141.42,1372.3 2141.52,1372.3 2141.62,1372.3 2141.71,1372.3 2141.81,1372.3 2141.91,1372.3 2142.01,1372.3 2142.11,1372.3 2142.2,1372.3 2142.3,1372.3 2142.4,1372.3 2142.5,1372.3 2142.59,1372.3 2142.69,1372.3 2142.79,1372.3 2142.89,1372.3 2142.98,1372.3 2143.08,1372.3 2143.18,1372.3 2143.28,1372.3 2143.37,1372.3 2143.47,1372.3 2143.57,1372.3 2143.67,1372.3 2143.76,1372.3 2143.86,1372.3 2143.96,1372.3 2144.05,1372.3 2144.15,1372.3 2144.25,1372.3 2144.34,1372.3 2144.44,1372.3 2144.54,1372.3 2144.64,1372.3 2144.73,1372.3 2144.83,1372.3 2144.93,1372.3 2145.02,1372.3 2145.12,1372.3 2145.22,1372.3 2145.31,1372.3 2145.41,1372.3 2145.51,1372.3 2145.6,1372.3 2145.7,1372.3 2145.79,1372.3 2145.89,1372.3 2145.99,1372.3 2146.08,1372.3 2146.18,1372.3 2146.28,1372.3 2146.37,1372.3 2146.47,1372.3 2146.56,1372.3 2146.66,1372.3 2146.76,1372.3 2146.85,1372.3 2146.95,1372.3 2147.04,1372.3 2147.14,1372.3 2147.23,1372.3 2147.33,1372.3 2147.43,1372.3 2147.52,1372.3 2147.62,1372.3 2147.71,1372.3 2147.81,1372.3 2147.9,1372.3 2148,1372.3 2148.1,1372.3 2148.19,1372.3 2148.29,1372.3 2148.38,1372.3 2148.48,1372.3 2148.57,1372.3 2148.67,1372.3 2148.76,1372.3 2148.86,1372.3 2148.95,1372.3 2149.05,1372.3 2149.14,1372.3 2149.24,1372.3 2149.33,1372.3 2149.43,1372.3 2149.52,1372.3 2149.62,1372.3 2149.71,1372.3 2149.81,1372.3 2149.9,1372.3 2150,1372.3 2150.09,1372.3 2150.18,1372.3 2150.28,1372.3 2150.37,1372.3 2150.47,1372.3 2150.56,1372.3 2150.66,1372.3 2150.75,1372.3 2150.85,1372.3 2150.94,1372.3 2151.03,1372.3 2151.13,1372.3 2151.22,1372.3 2151.32,1372.3 2151.41,1372.3 2151.51,1372.3 2151.6,1372.3 2151.69,1372.3 2151.79,1372.3 2151.88,1372.3 2151.97,1372.3 2152.07,1372.3 2152.16,1372.3 2152.26,1372.3 2152.35,1372.3 2152.44,1372.3 2152.54,1372.3 2152.63,1372.3 2152.72,1372.3 2152.82,1372.3 2152.91,1372.3 2153.01,1372.3 2153.1,1372.3 2153.19,1372.3 2153.29,1372.3 2153.38,1372.3 2153.47,1372.3 2153.57,1372.3 2153.66,1372.3 2153.75,1372.3 2153.84,1372.3 2153.94,1372.3 2154.03,1372.3 2154.12,1372.3 2154.22,1372.3 2154.31,1372.3 2154.4,1372.3 2154.5,1372.3 2154.59,1372.3 2154.68,1372.3 2154.77,1372.3 2154.87,1372.3 2154.96,1372.3 2155.05,1372.3 2155.15,1372.3 2155.24,1372.3 2155.33,1372.3 2155.42,1372.3 2155.52,1372.3 2155.61,1372.3 2155.7,1372.3 2155.79,1372.3 2155.89,1372.3 2155.98,1372.3 2156.07,1372.3 2156.16,1372.3 2156.25,1372.3 2156.35,1372.3 2156.44,1372.3 2156.53,1372.3 2156.62,1372.3 2156.71,1372.3 2156.81,1372.3 2156.9,1372.3 2156.99,1372.3 2157.08,1372.3 2157.17,1372.3 2157.27,1372.3 2157.36,1372.3 2157.45,1372.3 2157.54,1372.3 2157.63,1372.3 2157.72,1372.3 2157.82,1372.3 2157.91,1372.3 2158,1372.3 2158.09,1372.3 2158.18,1372.3 2158.27,1372.3 2158.37,1372.3 2158.46,1372.3 2158.55,1372.3 2158.64,1372.3 2158.73,1372.3 2158.82,1372.3 2158.91,1372.3 2159,1372.3 2159.1,1372.3 2159.19,1372.3 2159.28,1372.3 2159.37,1372.3 2159.46,1372.3 2159.55,1372.3 2159.64,1372.3 2159.73,1372.3 2159.82,1372.3 2159.91,1372.3 2160,1372.3 2160.1,1372.3 2160.19,1372.3 2160.28,1372.3 2160.37,1372.3 2160.46,1372.3 2160.55,1372.3 2160.64,1372.3 2160.73,1372.3 2160.82,1372.3 2160.91,1372.3 2161,1372.3 2161.09,1372.3 2161.18,1372.3 2161.27,1372.3 2161.36,1372.3 2161.45,1372.3 2161.54,1372.3 2161.63,1372.3 2161.72,1372.3 2161.81,1372.3 2161.9,1372.3 2161.99,1372.3 2162.08,1372.3 2162.17,1372.3 2162.26,1372.3 2162.35,1372.3 2162.44,1372.3 2162.53,1372.3 2162.62,1372.3 2162.71,1372.3 2162.8,1372.3 2162.89,1372.3 2162.98,1372.3 2163.07,1372.3 2163.16,1372.3 2163.25,1372.3 2163.34,1372.3 2163.43,1372.3 2163.52,1372.3 2163.61,1372.3 2163.7,1372.3 2163.79,1372.3 2163.88,1372.3 2163.96,1372.3 2164.05,1372.3 2164.14,1372.3 2164.23,1372.3 2164.32,1372.3 2164.41,1372.3 2164.5,1372.3 2164.59,1372.3 2164.68,1372.3 2164.77,1372.3 2164.86,1372.3 2164.94,1372.3 2165.03,1372.3 2165.12,1372.3 2165.21,1372.3 2165.3,1372.3 2165.39,1372.3 2165.48,1372.3 2165.57,1372.3 2165.65,1372.3 2165.74,1372.3 2165.83,1372.3 2165.92,1372.3 2166.01,1372.3 2166.1,1372.3 2166.19,1372.3 2166.27,1372.3 2166.36,1372.3 2166.45,1372.3 2166.54,1372.3 2166.63,1372.3 2166.72,1372.3 2166.8,1372.3 2166.89,1372.3 2166.98,1372.3 2167.07,1372.3 2167.16,1372.3 2167.25,1372.3 2167.33,1372.3 2167.42,1372.3 2167.51,1372.3 2167.6,1372.3 2167.68,1372.3 2167.77,1372.3 2167.86,1372.3 2167.95,1372.3 2168.04,1372.3 2168.12,1372.3 2168.21,1372.3 2168.3,1372.3 2168.39,1372.3 2168.47,1372.3 2168.56,1372.3 2168.65,1372.3 2168.74,1372.3 2168.82,1372.3 2168.91,1372.3 2169,1372.3 2169.09,1372.3 2169.17,1372.3 2169.26,1372.3 2169.35,1372.3 2169.44,1372.3 2169.52,1372.3 2169.61,1372.3 2169.7,1372.3 2169.78,1372.3 2169.87,1372.3 2169.96,1372.3 2170.05,1372.3 2170.13,1372.3 2170.22,1372.3 2170.31,1372.3 2170.39,1372.3 2170.48,1372.3 2170.57,1372.3 2170.65,1372.3 2170.74,1372.3 2170.83,1372.3 2170.91,1372.3 2171,1372.3 2171.09,1372.3 2171.17,1372.3 2171.26,1372.3 2171.35,1372.3 2171.43,1372.3 2171.52,1372.3 2171.61,1372.3 2171.69,1372.3 2171.78,1372.3 2171.87,1372.3 2171.95,1372.3 2172.04,1372.3 2172.13,1372.3 2172.21,1372.3 2172.3,1372.3 2172.38,1372.3 2172.47,1372.3 2172.56,1372.3 2172.64,1372.3 2172.73,1372.3 2172.81,1372.3 2172.9,1372.3 2172.99,1372.3 2173.07,1372.3 2173.16,1372.3 2173.24,1372.3 2173.33,1372.3 2173.42,1372.3 2173.5,1372.3 2173.59,1372.3 2173.67,1372.3 2173.76,1372.3 2173.84,1372.3 2173.93,1372.3 2174.02,1372.3 2174.1,1372.3 2174.19,1372.3 2174.27,1372.3 2174.36,1372.3 2174.44,1372.3 2174.53,1372.3 2174.61,1372.3 2174.7,1372.3 2174.78,1372.3 2174.87,1372.3 2174.96,1372.3 2175.04,1372.3 2175.13,1372.3 2175.21,1372.3 2175.3,1372.3 2175.38,1372.3 2175.47,1372.3 2175.55,1372.3 2175.64,1372.3 2175.72,1372.3 2175.81,1372.3 2175.89,1372.3 2175.98,1372.3 2176.06,1372.3 2176.15,1372.3 2176.23,1372.3 2176.32,1372.3 2176.4,1372.3 2176.48,1372.3 2176.57,1372.3 2176.65,1372.3 2176.74,1372.3 2176.82,1372.3 2176.91,1372.3 2176.99,1372.3 2177.08,1372.3 2177.16,1372.3 2177.25,1372.3 2177.33,1372.3 2177.41,1372.3 2177.5,1372.3 2177.58,1372.3 2177.67,1372.3 2177.75,1372.3 2177.84,1372.3 2177.92,1372.3 2178,1372.3 2178.09,1372.3 2178.17,1372.3 2178.26,1372.3 2178.34,1372.3 2178.42,1372.3 2178.51,1372.3 2178.59,1372.3 2178.68,1372.3 2178.76,1372.3 2178.84,1372.3 2178.93,1372.3 2179.01,1372.3 2179.1,1372.3 2179.18,1372.3 2179.26,1372.3 2179.35,1372.3 2179.43,1372.3 2179.51,1372.3 2179.6,1372.3 2179.68,1372.3 2179.77,1372.3 2179.85,1372.3 2179.93,1372.3 2180.02,1372.3 2180.1,1372.3 2180.18,1372.3 2180.27,1372.3 2180.35,1372.3 2180.43,1372.3 2180.52,1372.3 2180.6,1372.3 2180.68,1372.3 2180.77,1372.3 2180.85,1372.3 2180.93,1372.3 2181.02,1372.3 2181.1,1372.3 2181.18,1372.3 2181.26,1372.3 2181.35,1372.3 2181.43,1372.3 2181.51,1372.3 2181.6,1372.3 2181.68,1372.3 2181.76,1372.3 2181.84,1372.3 2181.93,1372.3 2182.01,1372.3 2182.09,1372.3 2182.18,1372.3 2182.26,1372.3 2182.34,1372.3 2182.42,1372.3 2182.51,1372.3 2182.59,1372.3 2182.67,1372.3 2182.75,1372.3 2182.84,1372.3 2182.92,1372.3 2183,1372.3 2183.08,1372.3 2183.17,1372.3 2183.25,1372.3 2183.33,1372.3 2183.41,1372.3 2183.5,1372.3 2183.58,1372.3 2183.66,1372.3 2183.74,1372.3 2183.82,1372.3 2183.91,1372.3 2183.99,1372.3 2184.07,1372.3 2184.15,1372.3 2184.23,1372.3 2184.32,1372.3 2184.4,1372.3 2184.48,1372.3 2184.56,1372.3 2184.64,1372.3 2184.73,1372.3 2184.81,1372.3 2184.89,1372.3 2184.97,1372.3 2185.05,1372.3 2185.13,1372.3 2185.22,1372.3 2185.3,1372.3 2185.38,1372.3 2185.46,1372.3 2185.54,1372.3 2185.62,1372.3 2185.71,1372.3 2185.79,1372.3 2185.87,1372.3 2185.95,1372.3 2186.03,1372.3 2186.11,1372.3 2186.19,1372.3 2186.28,1372.3 2186.36,1372.3 2186.44,1372.3 2186.52,1372.3 2186.6,1372.3 2186.68,1372.3 2186.76,1372.3 2186.84,1372.3 2186.92,1372.3 2187.01,1372.3 2187.09,1372.3 2187.17,1372.3 2187.25,1372.3 2187.33,1372.3 2187.41,1372.3 2187.49,1372.3 2187.57,1372.3 2187.65,1372.3 2187.73,1372.3 2187.81,1372.3 2187.9,1372.3 2187.98,1372.3 2188.06,1372.3 2188.14,1372.3 2188.22,1372.3 2188.3,1372.3 2188.38,1372.3 2188.46,1372.3 2188.54,1372.3 2188.62,1372.3 2188.7,1372.3 2188.78,1372.3 2188.86,1372.3 2188.94,1372.3 2189.02,1372.3 2189.1,1372.3 2189.18,1372.3 2189.26,1372.3 2189.34,1372.3 2189.42,1372.3 2189.51,1372.3 2189.59,1372.3 2189.67,1372.3 2189.75,1372.3 2189.83,1372.3 2189.91,1372.3 2189.99,1372.3 2190.07,1372.3 2190.15,1372.3 2190.23,1372.3 2190.31,1372.3 2190.39,1372.3 2190.47,1372.3 2190.55,1372.3 2190.63,1372.3 2190.71,1372.3 2190.78,1372.3 2190.86,1372.3 2190.94,1372.3 2191.02,1372.3 2191.1,1372.3 2191.18,1372.3 2191.26,1372.3 2191.34,1372.3 2191.42,1372.3 2191.5,1372.3 2191.58,1372.3 2191.66,1372.3 2191.74,1372.3 2191.82,1372.3 2191.9,1372.3 2191.98,1372.3 2192.06,1372.3 2192.14,1372.3 2192.22,1372.3 2192.3,1372.3 2192.37,1372.3 2192.45,1372.3 2192.53,1372.3 2192.61,1372.3 2192.69,1372.3 2192.77,1372.3 2192.85,1372.3 2192.93,1372.3 2193.01,1372.3 2193.09,1372.3 2193.17,1372.3 2193.25,1372.3 2193.32,1372.3 2193.4,1372.3 2193.48,1372.3 2193.56,1372.3 2193.64,1372.3 2193.72,1372.3 2193.8,1372.3 2193.88,1372.3 2193.95,1372.3 2194.03,1372.3 2194.11,1372.3 2194.19,1372.3 2194.27,1372.3 2194.35,1372.3 2194.43,1372.3 2194.5,1372.3 2194.58,1372.3 2194.66,1372.3 2194.74,1372.3 2194.82,1372.3 2194.9,1372.3 2194.98,1372.3 2195.05,1372.3 2195.13,1372.3 2195.21,1372.3 2195.29,1372.3 2195.37,1372.3 2195.45,1372.3 2195.52,1372.3 2195.6,1372.3 2195.68,1372.3 2195.76,1372.3 2195.84,1372.3 2195.91,1372.3 2195.99,1372.3 2196.07,1372.3 2196.15,1372.3 2196.23,1372.3 2196.3,1372.3 2196.38,1372.3 2196.46,1372.3 2196.54,1372.3 2196.62,1372.3 2196.69,1372.3 2196.77,1372.3 2196.85,1372.3 2196.93,1372.3 2197,1372.3 2197.08,1372.3 2197.16,1372.3 2197.24,1372.3 2197.32,1372.3 2197.39,1372.3 2197.47,1372.3 2197.55,1372.3 2197.63,1372.3 2197.7,1372.3 2197.78,1372.3 2197.86,1372.3 2197.94,1372.3 2198.01,1372.3 2198.09,1372.3 2198.17,1372.3 2198.25,1372.3 2198.32,1372.3 2198.4,1372.3 2198.48,1372.3 2198.55,1372.3 2198.63,1372.3 2198.71,1372.3 2198.79,1372.3 2198.86,1372.3 2198.94,1372.3 2199.02,1372.3 2199.09,1372.3 2199.17,1372.3 2199.25,1372.3 2199.33,1372.3 2199.4,1372.3 2199.48,1372.3 2199.56,1372.3 2199.63,1372.3 2199.71,1372.3 2199.79,1372.3 2199.86,1372.3 2199.94,1372.3 2200.02,1372.3 2200.09,1372.3 2200.17,1372.3 2200.25,1372.3 2200.32,1372.3 2200.4,1372.3 2200.48,1372.3 2200.55,1372.3 2200.63,1372.3 2200.71,1372.3 2200.78,1372.3 2200.86,1372.3 2200.94,1372.3 2201.01,1372.3 2201.09,1372.3 2201.17,1372.3 2201.24,1372.3 2201.32,1372.3 2201.39,1372.3 2201.47,1372.3 2201.55,1372.3 2201.62,1372.3 2201.7,1372.3 2201.78,1372.3 2201.85,1372.3 2201.93,1372.3 2202,1372.3 2202.08,1372.3 2202.16,1372.3 2202.23,1372.3 2202.31,1372.3 2202.38,1372.3 2202.46,1372.3 2202.54,1372.3 2202.61,1372.3 2202.69,1372.3 2202.76,1372.3 2202.84,1372.3 2202.92,1372.3 2202.99,1372.3 2203.07,1372.3 2203.14,1372.3 2203.22,1372.3 2203.29,1372.3 2203.37,1372.3 2203.45,1372.3 2203.52,1372.3 2203.6,1372.3 2203.67,1372.3 2203.75,1372.3 2203.82,1372.3 2203.9,1372.3 2203.97,1372.3 2204.05,1372.3 2204.13,1372.3 2204.2,1372.3 2204.28,1372.3 2204.35,1372.3 2204.43,1372.3 2204.5,1372.3 2204.58,1372.3 2204.65,1372.3 2204.73,1372.3 2204.8,1372.3 2204.88,1372.3 2204.95,1372.3 2205.03,1372.3 2205.1,1372.3 2205.18,1372.3 2205.25,1372.3 2205.33,1372.3 2205.4,1372.3 2205.48,1372.3 2205.55,1372.3 2205.63,1372.3 2205.7,1372.3 2205.78,1372.3 2205.85,1372.3 2205.93,1372.3 2206,1372.3 2206.08,1372.3 2206.15,1372.3 2206.23,1372.3 2206.3,1372.3 2206.38,1372.3 2206.45,1372.3 2206.53,1372.3 2206.6,1372.3 2206.68,1372.3 2206.75,1372.3 2206.83,1372.3 2206.9,1372.3 2206.97,1372.3 2207.05,1372.3 2207.12,1372.3 2207.2,1372.3 2207.27,1372.3 2207.35,1372.3 2207.42,1372.3 2207.5,1372.3 2207.57,1372.3 2207.64,1372.3 2207.72,1372.3 2207.79,1372.3 2207.87,1372.3 2207.94,1372.3 2208.02,1372.3 2208.09,1372.3 2208.16,1372.3 2208.24,1372.3 2208.31,1372.3 2208.39,1372.3 2208.46,1372.3 2208.53,1372.3 2208.61,1372.3 2208.68,1372.3 2208.76,1372.3 2208.83,1372.3 2208.9,1372.3 2208.98,1372.3 2209.05,1372.3 2209.13,1372.3 2209.2,1372.3 2209.27,1372.3 2209.35,1372.3 2209.42,1372.3 2209.5,1372.3 2209.57,1372.3 2209.64,1372.3 2209.72,1372.3 2209.79,1372.3 2209.86,1372.3 2209.94,1372.3 2210.01,1372.3 2210.08,1372.3 2210.16,1372.3 2210.23,1372.3 2210.31,1372.3 2210.38,1372.3 2210.45,1372.3 2210.53,1372.3 2210.6,1372.3 2210.67,1372.3 2210.75,1372.3 2210.82,1372.3 2210.89,1372.3 2210.97,1372.3 2211.04,1372.3 2211.11,1372.3 2211.19,1372.3 2211.26,1372.3 2211.33,1372.3 2211.41,1372.3 2211.48,1372.3 2211.55,1372.3 2211.62,1372.3 2211.7,1372.3 2211.77,1372.3 2211.84,1372.3 2211.92,1372.3 2211.99,1372.3 2212.06,1372.3 2212.14,1372.3 2212.21,1372.3 2212.28,1372.3 2212.35,1372.3 2212.43,1372.3 2212.5,1372.3 2212.57,1372.3 2212.65,1372.3 2212.72,1372.3 2212.79,1372.3 2212.86,1372.3 2212.94,1372.3 2213.01,1372.3 2213.08,1372.3 2213.15,1372.3 2213.23,1372.3 2213.3,1372.3 2213.37,1372.3 2213.45,1372.3 2213.52,1372.3 2213.59,1372.3 2213.66,1372.3 2213.74,1372.3 2213.81,1372.3 2213.88,1372.3 2213.95,1372.3 2214.02,1372.3 2214.1,1372.3 2214.17,1372.3 2214.24,1372.3 2214.31,1372.3 2214.39,1372.3 2214.46,1372.3 2214.53,1372.3 2214.6,1372.3 2214.68,1372.3 2214.75,1372.3 2214.82,1372.3 2214.89,1372.3 2214.96,1372.3 2215.04,1372.3 2215.11,1372.3 2215.18,1372.3 2215.25,1372.3 2215.32,1372.3 2215.4,1372.3 2215.47,1372.3 2215.54,1372.3 2215.61,1372.3 2215.68,1372.3 2215.76,1372.3 2215.83,1372.3 2215.9,1372.3 2215.97,1372.3 2216.04,1372.3 2216.11,1372.3 2216.19,1372.3 2216.26,1372.3 2216.33,1372.3 2216.4,1372.3 2216.47,1372.3 2216.54,1372.3 2216.62,1372.3 2216.69,1372.3 2216.76,1372.3 2216.83,1372.3 2216.9,1372.3 2216.97,1372.3 2217.04,1372.3 2217.12,1372.3 2217.19,1372.3 2217.26,1372.3 2217.33,1372.3 2217.4,1372.3 2217.47,1372.3 2217.54,1372.3 2217.62,1372.3 2217.69,1372.3 2217.76,1372.3 2217.83,1372.3 2217.9,1372.3 2217.97,1372.3 2218.04,1372.3 2218.11,1372.3 2218.19,1372.3 2218.26,1372.3 2218.33,1372.3 2218.4,1372.3 2218.47,1372.3 2218.54,1372.3 2218.61,1372.3 2218.68,1372.3 2218.75,1372.3 2218.82,1372.3 2218.9,1372.3 2218.97,1372.3 2219.04,1372.3 2219.11,1372.3 2219.18,1372.3 2219.25,1372.3 2219.32,1372.3 2219.39,1372.3 2219.46,1372.3 2219.53,1372.3 2219.6,1372.3 2219.67,1372.3 2219.74,1372.3 2219.82,1372.3 2219.89,1372.3 2219.96,1372.3 2220.03,1372.3 2220.1,1372.3 2220.17,1372.3 2220.24,1372.3 2220.31,1372.3 2220.38,1372.3 2220.45,1372.3 2220.52,1372.3 2220.59,1372.3 2220.66,1372.3 2220.73,1372.3 2220.8,1372.3 2220.87,1372.3 2220.94,1372.3 2221.01,1372.3 2221.08,1372.3 2221.15,1372.3 2221.22,1372.3 2221.29,1372.3 2221.36,1372.3 2221.43,1372.3 2221.5,1372.3 2221.57,1372.3 2221.64,1372.3 2221.71,1372.3 2221.78,1372.3 2221.85,1372.3 2221.92,1372.3 2221.99,1372.3 2222.06,1372.3 2222.13,1372.3 2222.2,1372.3 2222.27,1372.3 2222.34,1372.3 2222.41,1372.3 2222.48,1372.3 2222.55,1372.3 2222.62,1372.3 2222.69,1372.3 2222.76,1372.3 2222.83,1372.3 2222.9,1372.3 2222.97,1372.3 2223.04,1372.3 2223.11,1372.3 2223.18,1372.3 2223.25,1372.3 2223.32,1372.3 2223.39,1372.3 2223.46,1372.3 2223.53,1372.3 2223.6,1372.3 2223.67,1372.3 2223.74,1372.3 2223.81,1372.3 2223.88,1372.3 2223.95,1372.3 2224.02,1372.3 2224.09,1372.3 2224.15,1372.3 2224.22,1372.3 2224.29,1372.3 2224.36,1372.3 2224.43,1372.3 2224.5,1372.3 2224.57,1372.3 2224.64,1372.3 2224.71,1372.3 2224.78,1372.3 2224.85,1372.3 2224.92,1372.3 2224.99,1372.3 2225.05,1372.3 2225.12,1372.3 2225.19,1372.3 2225.26,1372.3 2225.33,1372.3 2225.4,1372.3 2225.47,1372.3 2225.54,1372.3 2225.61,1372.3 2225.68,1372.3 2225.74,1372.3 2225.81,1372.3 2225.88,1372.3 2225.95,1372.3 2226.02,1372.3 2226.09,1372.3 2226.16,1372.3 2226.23,1372.3 2226.3,1372.3 2226.36,1372.3 2226.43,1372.3 2226.5,1372.3 2226.57,1372.3 2226.64,1372.3 2226.71,1372.3 2226.78,1372.3 2226.84,1372.3 2226.91,1372.3 2226.98,1372.3 2227.05,1372.3 2227.12,1372.3 2227.19,1372.3 2227.26,1372.3 2227.32,1372.3 2227.39,1372.3 2227.46,1372.3 2227.53,1372.3 2227.6,1372.3 2227.67,1372.3 2227.73,1372.3 2227.8,1372.3 2227.87,1372.3 2227.94,1372.3 2228.01,1372.3 2228.08,1372.3 2228.14,1372.3 2228.21,1372.3 2228.28,1372.3 2228.35,1372.3 2228.42,1372.3 2228.48,1372.3 2228.55,1372.3 2228.62,1372.3 2228.69,1372.3 2228.76,1372.3 2228.82,1372.3 2228.89,1372.3 2228.96,1372.3 2229.03,1372.3 2229.1,1372.3 2229.16,1372.3 2229.23,1372.3 2229.3,1372.3 2229.37,1372.3 2229.44,1372.3 2229.5,1372.3 2229.57,1372.3 2229.64,1372.3 2229.71,1372.3 2229.78,1372.3 2229.84,1372.3 2229.91,1372.3 2229.98,1372.3 2230.05,1372.3 2230.11,1372.3 2230.18,1372.3 2230.25,1372.3 2230.32,1372.3 2230.38,1372.3 2230.45,1372.3 2230.52,1372.3 2230.59,1372.3 2230.65,1372.3 2230.72,1372.3 2230.79,1372.3 2230.86,1372.3 2230.92,1372.3 2230.99,1372.3 2231.06,1372.3 2231.13,1372.3 2231.19,1372.3 2231.26,1372.3 2231.33,1372.3 2231.4,1372.3 2231.46,1372.3 2231.53,1372.3 2231.6,1372.3 2231.66,1372.3 2231.73,1372.3 2231.8,1372.3 2231.87,1372.3 2231.93,1372.3 2232,1372.3 2232.07,1372.3 2232.13,1372.3 2232.2,1372.3 2232.27,1372.3 2232.34,1372.3 2232.4,1372.3 2232.47,1372.3 2232.54,1372.3 2232.6,1372.3 2232.67,1372.3 2232.74,1372.3 2232.8,1372.3 2232.87,1372.3 2232.94,1372.3 2233,1372.3 2233.07,1372.3 2233.14,1372.3 2233.21,1372.3 2233.27,1372.3 2233.34,1372.3 2233.41,1372.3 2233.47,1372.3 2233.54,1372.3 2233.61,1372.3 2233.67,1372.3 2233.74,1372.3 2233.81,1372.3 2233.87,1372.3 2233.94,1372.3 2234.01,1372.3 2234.07,1372.3 2234.14,1372.3 2234.2,1372.3 2234.27,1372.3 2234.34,1372.3 2234.4,1372.3 2234.47,1372.3 2234.54,1372.3 2234.6,1372.3 2234.67,1372.3 2234.74,1372.3 2234.8,1372.3 2234.87,1372.3 2234.93,1372.3 2235,1372.3 2235.07,1372.3 2235.13,1372.3 2235.2,1372.3 2235.27,1372.3 2235.33,1372.3 2235.4,1372.3 2235.46,1372.3 2235.53,1372.3 2235.6,1372.3 2235.66,1372.3 2235.73,1372.3 2235.8,1372.3 2235.86,1372.3 2235.93,1372.3 2235.99,1372.3 2236.06,1372.3 2236.13,1372.3 2236.19,1372.3 2236.26,1372.3 2236.32,1372.3 2236.39,1372.3 2236.45,1372.3 2236.52,1372.3 2236.59,1372.3 2236.65,1372.3 2236.72,1372.3 2236.78,1372.3 2236.85,1372.3 2236.92,1372.3 2236.98,1372.3 2237.05,1372.3 2237.11,1372.3 2237.18,1372.3 2237.24,1372.3 2237.31,1372.3 2237.38,1372.3 2237.44,1372.3 2237.51,1372.3 2237.57,1372.3 2237.64,1372.3 2237.7,1372.3 2237.77,1372.3 2237.83,1372.3 2237.9,1372.3 2237.96,1372.3 2238.03,1372.3 2238.1,1372.3 2238.16,1372.3 2238.23,1372.3 2238.29,1372.3 2238.36,1372.3 2238.42,1372.3 2238.49,1372.3 2238.55,1372.3 2238.62,1372.3 2238.68,1372.3 2238.75,1372.3 2238.81,1372.3 2238.88,1372.3 2238.94,1372.3 2239.01,1372.3 2239.08,1372.3 2239.14,1372.3 2239.21,1372.3 2239.27,1372.3 2239.34,1372.3 2239.4,1372.3 2239.47,1372.3 2239.53,1372.3 2239.6,1372.3 2239.66,1372.3 2239.73,1372.3 2239.79,1372.3 2239.86,1372.3 2239.92,1372.3 2239.99,1372.3 2240.05,1372.3 2240.12,1372.3 2240.18,1372.3 2240.24,1372.3 2240.31,1372.3 2240.37,1372.3 2240.44,1372.3 2240.5,1372.3 2240.57,1372.3 2240.63,1372.3 2240.7,1372.3 2240.76,1372.3 2240.83,1372.3 2240.89,1372.3 2240.96,1372.3 2241.02,1372.3 2241.09,1372.3 2241.15,1372.3 2241.22,1372.3 2241.28,1372.3 2241.34,1372.3 2241.41,1372.3 2241.47,1372.3 2241.54,1372.3 2241.6,1372.3 2241.67,1372.3 2241.73,1372.3 2241.8,1372.3 2241.86,1372.3 2241.92,1372.3 2241.99,1372.3 2242.05,1372.3 2242.12,1372.3 2242.18,1372.3 2242.25,1372.3 2242.31,1372.3 2242.37,1372.3 2242.44,1372.3 2242.5,1372.3 2242.57,1372.3 2242.63,1372.3 2242.7,1372.3 2242.76,1372.3 2242.82,1372.3 2242.89,1372.3 2242.95,1372.3 2243.02,1372.3 2243.08,1372.3 2243.14,1372.3 2243.21,1372.3 2243.27,1372.3 2243.34,1372.3 2243.4,1372.3 2243.46,1372.3 2243.53,1372.3 2243.59,1372.3 2243.66,1372.3 2243.72,1372.3 2243.78,1372.3 2243.85,1372.3 2243.91,1372.3 2243.98,1372.3 2244.04,1372.3 2244.1,1372.3 2244.17,1372.3 2244.23,1372.3 2244.29,1372.3 2244.36,1372.3 2244.42,1372.3 2244.49,1372.3 2244.55,1372.3 2244.61,1372.3 2244.68,1372.3 2244.74,1372.3 2244.8,1372.3 2244.87,1372.3 2244.93,1372.3 2244.99,1372.3 2245.06,1372.3 2245.12,1372.3 2245.19,1372.3 2245.25,1372.3 2245.31,1372.3 2245.38,1372.3 2245.44,1372.3 2245.5,1372.3 2245.57,1372.3 2245.63,1372.3 2245.69,1372.3 2245.76,1372.3 2245.82,1372.3 2245.88,1372.3 2245.95,1372.3 2246.01,1372.3 2246.07,1372.3 2246.14,1372.3 2246.2,1372.3 2246.26,1372.3 2246.33,1372.3 2246.39,1372.3 2246.45,1372.3 2246.52,1372.3 2246.58,1372.3 2246.64,1372.3 2246.7,1372.3 2246.77,1372.3 2246.83,1372.3 2246.89,1372.3 2246.96,1372.3 2247.02,1372.3 2247.08,1372.3 2247.15,1372.3 2247.21,1372.3 2247.27,1372.3 2247.33,1372.3 2247.4,1372.3 2247.46,1372.3 2247.52,1372.3 2247.59,1372.3 2247.65,1372.3 2247.71,1372.3 2247.77,1372.3 2247.84,1372.3 2247.9,1372.3 2247.96,1372.3 2248.03,1372.3 2248.09,1372.3 2248.15,1372.3 2248.21,1372.3 2248.28,1372.3 2248.34,1372.3 2248.4,1372.3 2248.46,1372.3 2248.53,1372.3 2248.59,1372.3 2248.65,1372.3 2248.72,1372.3 2248.78,1372.3 2248.84,1372.3 2248.9,1372.3 2248.97,1372.3 2249.03,1372.3 2249.09,1372.3 2249.15,1372.3 2249.22,1372.3 2249.28,1372.3 2249.34,1372.3 2249.4,1372.3 2249.46,1372.3 2249.53,1372.3 2249.59,1372.3 2249.65,1372.3 2249.71,1372.3 2249.78,1372.3 2249.84,1372.3 2249.9,1372.3 2249.96,1372.3 2250.03,1372.3 2250.09,1372.3 2250.15,1372.3 2250.21,1372.3 2250.27,1372.3 2250.34,1372.3 2250.4,1372.3 2250.46,1372.3 2250.52,1372.3 2250.59,1372.3 2250.65,1372.3 2250.71,1372.3 2250.77,1372.3 2250.83,1372.3 2250.9,1372.3 2250.96,1372.3 2251.02,1372.3 2251.08,1372.3 2251.14,1372.3 2251.21,1372.3 2251.27,1372.3 2251.33,1372.3 2251.39,1372.3 2251.45,1372.3 2251.51,1372.3 2251.58,1372.3 2251.64,1372.3 2251.7,1372.3 2251.76,1372.3 2251.82,1372.3 2251.89,1372.3 2251.95,1372.3 2252.01,1372.3 2252.07,1372.3 2252.13,1372.3 2252.19,1372.3 2252.26,1372.3 2252.32,1372.3 2252.38,1372.3 2252.44,1372.3 2252.5,1372.3 2252.56,1372.3 2252.62,1372.3 2252.69,1372.3 2252.75,1372.3 2252.81,1372.3 2252.87,1372.3 2252.93,1372.3 2252.99,1372.3 2253.06,1372.3 2253.12,1372.3 2253.18,1372.3 2253.24,1372.3 2253.3,1372.3 2253.36,1372.3 2253.42,1372.3 2253.49,1372.3 2253.55,1372.3 2253.61,1372.3 2253.67,1372.3 2253.73,1372.3 2253.79,1372.3 2253.85,1372.3 2253.91,1372.3 2253.98,1372.3 2254.04,1372.3 2254.1,1372.3 2254.16,1372.3 2254.22,1372.3 2254.28,1372.3 2254.34,1372.3 2254.4,1372.3 2254.46,1372.3 2254.53,1372.3 2254.59,1372.3 2254.65,1372.3 2254.71,1372.3 2254.77,1372.3 2254.83,1372.3 2254.89,1372.3 2254.95,1372.3 2255.01,1372.3 2255.07,1372.3 2255.14,1372.3 2255.2,1372.3 2255.26,1372.3 2255.32,1372.3 2255.38,1372.3 2255.44,1372.3 2255.5,1372.3 2255.56,1372.3 2255.62,1372.3 2255.68,1372.3 2255.74,1372.3 2255.8,1372.3 2255.87,1372.3 2255.93,1372.3 2255.99,1372.3 2256.05,1372.3 2256.11,1372.3 2256.17,1372.3 2256.23,1372.3 2256.29,1372.3 2256.35,1372.3 2256.41,1372.3 2256.47,1372.3 2256.53,1372.3 2256.59,1372.3 2256.65,1372.3 2256.71,1372.3 2256.77,1372.3 2256.83,1372.3 2256.9,1372.3 2256.96,1372.3 2257.02,1372.3 2257.08,1372.3 2257.14,1372.3 2257.2,1372.3 2257.26,1372.3 2257.32,1372.3 2257.38,1372.3 2257.44,1372.3 2257.5,1372.3 2257.56,1372.3 2257.62,1372.3 2257.68,1372.3 2257.74,1372.3 2257.8,1372.3 2257.86,1372.3 2257.92,1372.3 2257.98,1372.3 2258.04,1372.3 2258.1,1372.3 2258.16,1372.3 2258.22,1372.3 2258.28,1372.3 2258.34,1372.3 2258.4,1372.3 2258.46,1372.3 2258.52,1372.3 2258.58,1372.3 2258.64,1372.3 2258.7,1372.3 2258.76,1372.3 2258.82,1372.3 2258.88,1372.3 2258.94,1372.3 2259,1372.3 2259.06,1372.3 2259.12,1372.3 2259.18,1372.3 2259.24,1372.3 2259.3,1372.3 2259.36,1372.3 2259.42,1372.3 2259.48,1372.3 2259.54,1372.3 2259.6,1372.3 2259.66,1372.3 2259.72,1372.3 2259.78,1372.3 2259.84,1372.3 2259.9,1372.3 2259.96,1372.3 2260.02,1372.3 2260.08,1372.3 2260.14,1372.3 2260.2,1372.3 2260.26,1372.3 2260.32,1372.3 2260.38,1372.3 2260.44,1372.3 2260.5,1372.3 2260.55,1372.3 2260.61,1372.3 2260.67,1372.3 2260.73,1372.3 2260.79,1372.3 2260.85,1372.3 2260.91,1372.3 2260.97,1372.3 2261.03,1372.3 2261.09,1372.3 2261.15,1372.3 2261.21,1372.3 2261.27,1372.3 2261.33,1372.3 2261.39,1372.3 2261.45,1372.3 2261.51,1372.3 2261.56,1372.3 2261.62,1372.3 2261.68,1372.3 2261.74,1372.3 2261.8,1372.3 2261.86,1372.3 2261.92,1372.3 2261.98,1372.3 2262.04,1372.3 2262.1,1372.3 2262.16,1372.3 2262.22,1372.3 2262.28,1372.3 2262.33,1372.3 2262.39,1372.3 2262.45,1372.3 2262.51,1372.3 2262.57,1372.3 2262.63,1372.3 2262.69,1372.3 2262.75,1372.3 2262.81,1372.3 2262.87,1372.3 2262.92,1372.3 2262.98,1372.3 2263.04,1372.3 2263.1,1372.3 2263.16,1372.3 2263.22,1372.3 2263.28,1372.3 2263.34,1372.3 2263.4,1372.3 2263.45,1372.3 2263.51,1372.3 2263.57,1372.3 2263.63,1372.3 2263.69,1372.3 2263.75,1372.3 2263.81,1372.3 2263.87,1372.3 2263.92,1372.3 2263.98,1372.3 2264.04,1372.3 2264.1,1372.3 2264.16,1372.3 2264.22,1372.3 2264.28,1372.3 2264.34,1372.3 2264.39,1372.3 2264.45,1372.3 2264.51,1372.3 2264.57,1372.3 2264.63,1372.3 2264.69,1372.3 2264.75,1372.3 2264.8,1372.3 2264.86,1372.3 2264.92,1372.3 2264.98,1372.3 2265.04,1372.3 2265.1,1372.3 2265.15,1372.3 2265.21,1372.3 2265.27,1372.3 2265.33,1372.3 2265.39,1372.3 2265.45,1372.3 2265.5,1372.3 2265.56,1372.3 2265.62,1372.3 2265.68,1372.3 2265.74,1372.3 2265.8,1372.3 2265.85,1372.3 2265.91,1372.3 2265.97,1372.3 2266.03,1372.3 2266.09,1372.3 2266.15,1372.3 2266.2,1372.3 2266.26,1372.3 2266.32,1372.3 2266.38,1372.3 2266.44,1372.3 2266.49,1372.3 2266.55,1372.3 2266.61,1372.3 2266.67,1372.3 2266.73,1372.3 2266.78,1372.3 2266.84,1372.3 2266.9,1372.3 2266.96,1372.3 2267.02,1372.3 2267.07,1372.3 2267.13,1372.3 2267.19,1372.3 2267.25,1372.3 2267.31,1372.3 2267.36,1372.3 2267.42,1372.3 2267.48,1372.3 2267.54,1372.3 2267.59,1372.3 2267.65,1372.3 2267.71,1372.3 2267.77,1372.3 2267.83,1372.3 2267.88,1372.3 2267.94,1372.3 2268,1372.3 2268.06,1372.3 2268.11,1372.3 2268.17,1372.3 2268.23,1372.3 2268.29,1372.3 2268.35,1372.3 2268.4,1372.3 2268.46,1372.3 2268.52,1372.3 2268.58,1372.3 2268.63,1372.3 2268.69,1372.3 2268.75,1372.3 2268.81,1372.3 2268.86,1372.3 2268.92,1372.3 2268.98,1372.3 2269.04,1372.3 2269.09,1372.3 2269.15,1372.3 2269.21,1372.3 2269.27,1372.3 2269.32,1372.3 2269.38,1372.3 2269.44,1372.3 2269.49,1372.3 2269.55,1372.3 2269.61,1372.3 2269.67,1372.3 2269.72,1372.3 2269.78,1372.3 2269.84,1372.3 2269.9,1372.3 2269.95,1372.3 2270.01,1372.3 2270.07,1372.3 2270.12,1372.3 2270.18,1372.3 2270.24,1372.3 2270.3,1372.3 2270.35,1372.3 2270.41,1372.3 2270.47,1372.3 2270.52,1372.3 2270.58,1372.3 2270.64,1372.3 2270.7,1372.3 2270.75,1372.3 2270.81,1372.3 2270.87,1372.3 2270.92,1372.3 2270.98,1372.3 2271.04,1372.3 2271.1,1372.3 2271.15,1372.3 2271.21,1372.3 2271.27,1372.3 2271.32,1372.3 2271.38,1372.3 2271.44,1372.3 2271.49,1372.3 2271.55,1372.3 2271.61,1372.3 2271.66,1372.3 2271.72,1372.3 2271.78,1372.3 2271.83,1372.3 2271.89,1372.3 2271.95,1372.3 2272,1372.3 2272.06,1372.3 2272.12,1372.3 2272.18,1372.3 2272.23,1372.3 2272.29,1372.3 2272.35,1372.3 2272.4,1372.3 2272.46,1372.3 2272.52,1372.3 2272.57,1372.3 2272.63,1372.3 2272.68,1372.3 2272.74,1372.3 2272.8,1372.3 2272.85,1372.3 2272.91,1372.3 2272.97,1372.3 2273.02,1372.3 2273.08,1372.3 2273.14,1372.3 2273.19,1372.3 2273.25,1372.3 2273.31,1372.3 2273.36,1372.3 2273.42,1372.3 2273.48,1372.3 2273.53,1372.3 2273.59,1372.3 2273.64,1372.3 2273.7,1372.3 2273.76,1372.3 2273.81,1372.3 2273.87,1372.3 2273.93,1372.3 2273.98,1372.3 2274.04,1372.3 2274.1,1372.3 2274.15,1372.3 2274.21,1372.3 2274.26,1372.3 2274.32,1372.3 2274.38,1372.3 2274.43,1372.3 2274.49,1372.3 2274.54,1372.3 2274.6,1372.3 2274.66,1372.3 2274.71,1372.3 2274.77,1372.3 2274.83,1372.3 2274.88,1372.3 2274.94,1372.3 2274.99,1372.3 2275.05,1372.3 2275.11,1372.3 2275.16,1372.3 2275.22,1372.3 2275.27,1372.3 2275.33,1372.3 2275.39,1372.3 2275.44,1372.3 2275.5,1372.3 2275.55,1372.3 2275.61,1372.3 2275.67,1372.3 2275.72,1372.3 2275.78,1372.3 2275.83,1372.3 2275.89,1372.3 2275.94,1372.3 2276,1372.3 2276.06,1372.3 2276.11,1372.3 2276.17,1372.3 2276.22,1372.3 2276.28,1372.3 2276.33,1372.3 2276.39,1372.3 2276.45,1372.3 2276.5,1372.3 2276.56,1372.3 2276.61,1372.3 2276.67,1372.3 2276.72,1372.3 2276.78,1372.3 2276.84,1372.3 2276.89,1372.3 2276.95,1372.3 2277,1372.3 2277.06,1372.3 2277.11,1372.3 2277.17,1372.3 2277.22,1372.3 2277.28,1372.3 2277.34,1372.3 2277.39,1372.3 2277.45,1372.3 2277.5,1372.3 2277.56,1372.3 2277.61,1372.3 2277.67,1372.3 2277.72,1372.3 2277.78,1372.3 2277.83,1372.3 2277.89,1372.3 2277.95,1372.3 2278,1372.3 2278.06,1372.3 2278.11,1372.3 2278.17,1372.3 2278.22,1372.3 2278.28,1372.3 2278.33,1372.3 2278.39,1372.3 2278.44,1372.3 2278.5,1372.3 2278.55,1372.3 2278.61,1372.3 2278.66,1372.3 2278.72,1372.3 2278.77,1372.3 2278.83,1372.3 2278.88,1372.3 2278.94,1372.3 2278.99,1372.3 2279.05,1372.3 2279.11,1372.3 2279.16,1372.3 2279.22,1372.3 2279.27,1372.3 2279.33,1372.3 2279.38,1372.3 2279.44,1372.3 2279.49,1372.3 2279.55,1372.3 2279.6,1372.3 2279.66,1372.3 2279.71,1372.3 2279.77,1372.3 2279.82,1372.3 2279.88,1372.3 2279.93,1372.3 2279.98,1372.3 2280.04,1372.3 2280.09,1372.3 2280.15,1372.3 2280.2,1372.3 2280.26,1372.3 2280.31,1372.3 2280.37,1372.3 2280.42,1372.3 2280.48,1372.3 2280.53,1372.3 2280.59,1372.3 2280.64,1372.3 2280.7,1372.3 2280.75,1372.3 2280.81,1372.3 2280.86,1372.3 2280.92,1372.3 2280.97,1372.3 2281.03,1372.3 2281.08,1372.3 2281.13,1372.3 2281.19,1372.3 2281.24,1372.3 2281.3,1372.3 2281.35,1372.3 2281.41,1372.3 2281.46,1372.3 2281.52,1372.3 2281.57,1372.3 2281.63,1372.3 2281.68,1372.3 2281.73,1372.3 2281.79,1372.3 2281.84,1372.3 2281.9,1372.3 2281.95,1372.3 2282.01,1372.3 2282.06,1372.3 2282.12,1372.3 2282.17,1372.3 2282.22,1372.3 2282.28,1372.3 2282.33,1372.3 2282.39,1372.3 2282.44,1372.3 2282.5,1372.3 2282.55,1372.3 2282.6,1372.3 2282.66,1372.3 2282.71,1372.3 2282.77,1372.3 2282.82,1372.3 2282.88,1372.3 2282.93,1372.3 2282.98,1372.3 2283.04,1372.3 2283.09,1372.3 2283.15,1372.3 2283.2,1372.3 2283.26,1372.3 2283.31,1372.3 2283.36,1372.3 2283.42,1372.3 2283.47,1372.3 2283.53,1372.3 2283.58,1372.3 2283.63,1372.3 2283.69,1372.3 2283.74,1372.3 2283.8,1372.3 2283.85,1372.3 2283.9,1372.3 2283.96,1372.3 2284.01,1372.3 2284.07,1372.3 2284.12,1372.3 2284.17,1372.3 2284.23,1372.3 2284.28,1372.3 2284.34,1372.3 2284.39,1372.3 2284.44,1372.3 2284.5,1372.3 2284.55,1372.3 2284.6,1372.3 2284.66,1372.3 2284.71,1372.3 2284.77,1372.3 2284.82,1372.3 2284.87,1372.3 2284.93,1372.3 2284.98,1372.3 2285.04,1372.3 2285.09,1372.3 2285.14,1372.3 2285.2,1372.3 2285.25,1372.3 2285.3,1372.3 2285.36,1372.3 2285.41,1372.3 2285.46,1372.3 2285.52,1372.3 2285.57,1372.3 2285.63,1372.3 2285.68,1372.3 2285.73,1372.3 2285.79,1372.3 2285.84,1372.3 2285.89,1372.3 2285.95,1372.3 2286,1372.3 2286.05,1372.3 2286.11,1372.3 2286.16,1372.3 2286.21,1372.3 2286.27,1372.3 2286.32,1372.3 2286.37,1372.3 2286.43,1372.3 2286.48,1372.3 2286.53,1372.3 2286.59,1372.3 2286.64,1372.3 2286.69,1372.3 2286.75,1372.3 2286.8,1372.3 2286.85,1372.3 2286.91,1372.3 2286.96,1372.3 2287.01,1372.3 2287.07,1372.3 2287.12,1372.3 2287.17,1372.3 2287.23,1372.3 2287.28,1372.3 2287.33,1372.3 2287.39,1372.3 2287.44,1372.3 2287.49,1372.3 2287.55,1372.3 2287.6,1372.3 2287.65,1372.3 2287.71,1372.3 2287.76,1372.3 2287.81,1372.3 2287.87,1372.3 2287.92,1372.3 2287.97,1372.3 2288.03,1372.3 2288.08,1372.3 2288.13,1372.3 2288.18,1372.3 2288.24,1372.3 2288.29,1372.3 2288.34,1372.3 2288.4,1372.3 2288.45,1372.3 2288.5,1372.3 2288.56,1372.3 2288.61,1372.3 2288.66,1372.3 2288.71,1372.3 2288.77,1372.3 2288.82,1372.3 2288.87,1372.3 2288.93,1372.3 2288.98,1372.3 2289.03,1372.3 2289.08,1372.3 2289.14,1372.3 2289.19,1372.3 2289.24,1372.3 2289.3,1372.3 2289.35,1372.3 2289.4,1372.3 2289.45,1372.3 2289.51,1372.3 2289.56,1372.3 2289.61,1372.3 2289.66,1372.3 2289.72,1372.3 2289.77,1372.3 2289.82,1372.3 2289.88,1372.3 2289.93,1372.3 2289.98,1372.3 2290.03,1372.3 2290.09,1372.3 2290.14,1372.3 2290.19,1372.3 2290.24,1372.3 2290.3,1372.3 2290.35,1372.3 2290.4,1372.3 2290.45,1372.3 2290.51,1372.3 2290.56,1372.3 2290.61,1372.3 2290.66,1372.3 2290.72,1372.3 2290.77,1372.3 2290.82,1372.3 2290.87,1372.3 2290.93,1372.3 2290.98,1372.3 2291.03,1372.3 2291.08,1372.3 2291.14,1372.3 2291.19,1372.3 2291.24,1372.3 2291.29,1372.3 2291.34,1372.3 2291.4,1372.3 2291.45,1372.3 2291.5,1372.3 2291.55,1372.3 2291.61,1372.3 2291.66,1372.3 2291.71,1372.3 2291.76,1372.3 2291.82,1372.3 2291.87,1372.3 2291.92,1372.3 2291.97,1372.3 2292.02,1372.3 2292.08,1372.3 2292.13,1372.3 2292.18,1372.3 2292.23,1372.3 2292.28,1372.3 2292.34,1372.3 2292.39,1372.3 2292.44,1372.3 "/>
<path clip-path="url(#clip250)" d="M2016.18 196.379 L2281.72 196.379 L2281.72 92.6992 L2016.18 92.6992  Z" fill="#ffffff" fill-rule="evenodd" fill-opacity="1"/>
<polyline clip-path="url(#clip250)" style="stroke:#000000; stroke-linecap:round; stroke-linejoin:round; stroke-width:4; stroke-opacity:1; fill:none" points="2016.18,196.379 2281.72,196.379 2281.72,92.6992 2016.18,92.6992 2016.18,196.379 "/>
<polyline clip-path="url(#clip250)" style="stroke:#009af9; stroke-linecap:round; stroke-linejoin:round; stroke-width:4; stroke-opacity:1; fill:none" points="2039.86,144.539 2181.93,144.539 "/>
<path clip-path="url(#clip250)" d="M2219.45 164.227 Q2217.65 168.856 2215.93 170.268 Q2214.22 171.68 2211.35 171.68 L2207.95 171.68 L2207.95 168.115 L2210.45 168.115 Q2212.21 168.115 2213.18 167.282 Q2214.15 166.449 2215.33 163.347 L2216.1 161.403 L2205.61 135.893 L2210.12 135.893 L2218.22 156.171 L2226.33 135.893 L2230.84 135.893 L2219.45 164.227 Z" fill="#000000" fill-rule="nonzero" fill-opacity="1" /><path clip-path="url(#clip250)" d="M2238.13 157.884 L2245.77 157.884 L2245.77 131.518 L2237.46 133.185 L2237.46 128.926 L2245.72 127.259 L2250.4 127.259 L2250.4 157.884 L2258.04 157.884 L2258.04 161.819 L2238.13 161.819 L2238.13 157.884 Z" fill="#000000" fill-rule="nonzero" fill-opacity="1" /></svg>
