<?xml version="1.0" encoding="utf-8"?>
<svg xmlns="http://www.w3.org/2000/svg" xmlns:xlink="http://www.w3.org/1999/xlink" width="600" height="400" viewBox="0 0 2400 1600">
<defs>
  <clipPath id="clip090">
    <rect x="0" y="0" width="2400" height="1600"/>
  </clipPath>
</defs>
<path clip-path="url(#clip090)" d="M0 1600 L2400 1600 L2400 0 L0 0  Z" fill="#ffffff" fill-rule="evenodd" fill-opacity="1"/>
<defs>
  <clipPath id="clip091">
    <rect x="480" y="0" width="1681" height="1600"/>
  </clipPath>
</defs>
<path clip-path="url(#clip090)" d="M225.325 1423.18 L2352.76 1423.18 L2352.76 47.2441 L225.325 47.2441  Z" fill="#ffffff" fill-rule="evenodd" fill-opacity="1"/>
<defs>
  <clipPath id="clip092">
    <rect x="225" y="47" width="2128" height="1377"/>
  </clipPath>
</defs>
<polyline clip-path="url(#clip092)" style="stroke:#000000; stroke-linecap:round; stroke-linejoin:round; stroke-width:2; stroke-opacity:0.1; fill:none" points="562.364,1423.18 562.364,47.2441 "/>
<polyline clip-path="url(#clip092)" style="stroke:#000000; stroke-linecap:round; stroke-linejoin:round; stroke-width:2; stroke-opacity:0.1; fill:none" points="908.4,1423.18 908.4,47.2441 "/>
<polyline clip-path="url(#clip092)" style="stroke:#000000; stroke-linecap:round; stroke-linejoin:round; stroke-width:2; stroke-opacity:0.1; fill:none" points="1254.44,1423.18 1254.44,47.2441 "/>
<polyline clip-path="url(#clip092)" style="stroke:#000000; stroke-linecap:round; stroke-linejoin:round; stroke-width:2; stroke-opacity:0.1; fill:none" points="1600.47,1423.18 1600.47,47.2441 "/>
<polyline clip-path="url(#clip092)" style="stroke:#000000; stroke-linecap:round; stroke-linejoin:round; stroke-width:2; stroke-opacity:0.1; fill:none" points="1946.51,1423.18 1946.51,47.2441 "/>
<polyline clip-path="url(#clip092)" style="stroke:#000000; stroke-linecap:round; stroke-linejoin:round; stroke-width:2; stroke-opacity:0.1; fill:none" points="2292.55,1423.18 2292.55,47.2441 "/>
<polyline clip-path="url(#clip092)" style="stroke:#000000; stroke-linecap:round; stroke-linejoin:round; stroke-width:2; stroke-opacity:0.1; fill:none" points="225.325,1140.88 2352.76,1140.88 "/>
<polyline clip-path="url(#clip092)" style="stroke:#000000; stroke-linecap:round; stroke-linejoin:round; stroke-width:2; stroke-opacity:0.1; fill:none" points="225.325,842.224 2352.76,842.224 "/>
<polyline clip-path="url(#clip092)" style="stroke:#000000; stroke-linecap:round; stroke-linejoin:round; stroke-width:2; stroke-opacity:0.1; fill:none" points="225.325,543.571 2352.76,543.571 "/>
<polyline clip-path="url(#clip092)" style="stroke:#000000; stroke-linecap:round; stroke-linejoin:round; stroke-width:2; stroke-opacity:0.1; fill:none" points="225.325,244.917 2352.76,244.917 "/>
<polyline clip-path="url(#clip090)" style="stroke:#000000; stroke-linecap:round; stroke-linejoin:round; stroke-width:4; stroke-opacity:1; fill:none" points="225.325,1423.18 2352.76,1423.18 "/>
<polyline clip-path="url(#clip090)" style="stroke:#000000; stroke-linecap:round; stroke-linejoin:round; stroke-width:4; stroke-opacity:1; fill:none" points="562.364,1423.18 562.364,1404.28 "/>
<polyline clip-path="url(#clip090)" style="stroke:#000000; stroke-linecap:round; stroke-linejoin:round; stroke-width:4; stroke-opacity:1; fill:none" points="908.4,1423.18 908.4,1404.28 "/>
<polyline clip-path="url(#clip090)" style="stroke:#000000; stroke-linecap:round; stroke-linejoin:round; stroke-width:4; stroke-opacity:1; fill:none" points="1254.44,1423.18 1254.44,1404.28 "/>
<polyline clip-path="url(#clip090)" style="stroke:#000000; stroke-linecap:round; stroke-linejoin:round; stroke-width:4; stroke-opacity:1; fill:none" points="1600.47,1423.18 1600.47,1404.28 "/>
<polyline clip-path="url(#clip090)" style="stroke:#000000; stroke-linecap:round; stroke-linejoin:round; stroke-width:4; stroke-opacity:1; fill:none" points="1946.51,1423.18 1946.51,1404.28 "/>
<polyline clip-path="url(#clip090)" style="stroke:#000000; stroke-linecap:round; stroke-linejoin:round; stroke-width:4; stroke-opacity:1; fill:none" points="2292.55,1423.18 2292.55,1404.28 "/>
<path clip-path="url(#clip090)" d="M552.642 1451.02 L570.998 1451.02 L570.998 1454.96 L556.924 1454.96 L556.924 1463.43 Q557.943 1463.08 558.961 1462.92 Q559.98 1462.73 560.998 1462.73 Q566.785 1462.73 570.165 1465.9 Q573.545 1469.08 573.545 1474.49 Q573.545 1480.07 570.072 1483.17 Q566.6 1486.25 560.281 1486.25 Q558.105 1486.25 555.836 1485.88 Q553.591 1485.51 551.184 1484.77 L551.184 1480.07 Q553.267 1481.2 555.489 1481.76 Q557.711 1482.32 560.188 1482.32 Q564.193 1482.32 566.531 1480.21 Q568.869 1478.1 568.869 1474.49 Q568.869 1470.88 566.531 1468.77 Q564.193 1466.67 560.188 1466.67 Q558.313 1466.67 556.438 1467.08 Q554.586 1467.5 552.642 1468.38 L552.642 1451.02 Z" fill="#000000" fill-rule="nonzero" fill-opacity="1" /><path clip-path="url(#clip090)" d="M883.088 1481.64 L890.727 1481.64 L890.727 1455.28 L882.417 1456.95 L882.417 1452.69 L890.681 1451.02 L895.356 1451.02 L895.356 1481.64 L902.995 1481.64 L902.995 1485.58 L883.088 1485.58 L883.088 1481.64 Z" fill="#000000" fill-rule="nonzero" fill-opacity="1" /><path clip-path="url(#clip090)" d="M922.44 1454.1 Q918.829 1454.1 917 1457.66 Q915.194 1461.2 915.194 1468.33 Q915.194 1475.44 917 1479.01 Q918.829 1482.55 922.44 1482.55 Q926.074 1482.55 927.879 1479.01 Q929.708 1475.44 929.708 1468.33 Q929.708 1461.2 927.879 1457.66 Q926.074 1454.1 922.44 1454.1 M922.44 1450.39 Q928.25 1450.39 931.305 1455 Q934.384 1459.58 934.384 1468.33 Q934.384 1477.06 931.305 1481.67 Q928.25 1486.25 922.44 1486.25 Q916.63 1486.25 913.551 1481.67 Q910.495 1477.06 910.495 1468.33 Q910.495 1459.58 913.551 1455 Q916.63 1450.39 922.44 1450.39 Z" fill="#000000" fill-rule="nonzero" fill-opacity="1" /><path clip-path="url(#clip090)" d="M1229.62 1481.64 L1237.26 1481.64 L1237.26 1455.28 L1228.95 1456.95 L1228.95 1452.69 L1237.21 1451.02 L1241.89 1451.02 L1241.89 1481.64 L1249.53 1481.64 L1249.53 1485.58 L1229.62 1485.58 L1229.62 1481.64 Z" fill="#000000" fill-rule="nonzero" fill-opacity="1" /><path clip-path="url(#clip090)" d="M1259.02 1451.02 L1277.38 1451.02 L1277.38 1454.96 L1263.3 1454.96 L1263.3 1463.43 Q1264.32 1463.08 1265.34 1462.92 Q1266.36 1462.73 1267.38 1462.73 Q1273.16 1462.73 1276.54 1465.9 Q1279.92 1469.08 1279.92 1474.49 Q1279.92 1480.07 1276.45 1483.17 Q1272.98 1486.25 1266.66 1486.25 Q1264.48 1486.25 1262.21 1485.88 Q1259.97 1485.51 1257.56 1484.77 L1257.56 1480.07 Q1259.64 1481.2 1261.87 1481.76 Q1264.09 1482.32 1266.57 1482.32 Q1270.57 1482.32 1272.91 1480.21 Q1275.25 1478.1 1275.25 1474.49 Q1275.25 1470.88 1272.91 1468.77 Q1270.57 1466.67 1266.57 1466.67 Q1264.69 1466.67 1262.82 1467.08 Q1260.96 1467.5 1259.02 1468.38 L1259.02 1451.02 Z" fill="#000000" fill-rule="nonzero" fill-opacity="1" /><path clip-path="url(#clip090)" d="M1579.25 1481.64 L1595.57 1481.64 L1595.57 1485.58 L1573.62 1485.58 L1573.62 1481.64 Q1576.28 1478.89 1580.87 1474.26 Q1585.47 1469.61 1586.65 1468.27 Q1588.9 1465.74 1589.78 1464.01 Q1590.68 1462.25 1590.68 1460.56 Q1590.68 1457.8 1588.74 1456.07 Q1586.82 1454.33 1583.71 1454.33 Q1581.51 1454.33 1579.06 1455.09 Q1576.63 1455.86 1573.85 1457.41 L1573.85 1452.69 Q1576.68 1451.55 1579.13 1450.97 Q1581.58 1450.39 1583.62 1450.39 Q1588.99 1450.39 1592.19 1453.08 Q1595.38 1455.77 1595.38 1460.26 Q1595.38 1462.39 1594.57 1464.31 Q1593.78 1466.2 1591.68 1468.8 Q1591.1 1469.47 1588 1472.69 Q1584.89 1475.88 1579.25 1481.64 Z" fill="#000000" fill-rule="nonzero" fill-opacity="1" /><path clip-path="url(#clip090)" d="M1615.38 1454.1 Q1611.77 1454.1 1609.94 1457.66 Q1608.13 1461.2 1608.13 1468.33 Q1608.13 1475.44 1609.94 1479.01 Q1611.77 1482.55 1615.38 1482.55 Q1619.01 1482.55 1620.82 1479.01 Q1622.65 1475.44 1622.65 1468.33 Q1622.65 1461.2 1620.82 1457.66 Q1619.01 1454.1 1615.38 1454.1 M1615.38 1450.39 Q1621.19 1450.39 1624.25 1455 Q1627.32 1459.58 1627.32 1468.33 Q1627.32 1477.06 1624.25 1481.67 Q1621.19 1486.25 1615.38 1486.25 Q1609.57 1486.25 1606.49 1481.67 Q1603.44 1477.06 1603.44 1468.33 Q1603.44 1459.58 1606.49 1455 Q1609.57 1450.39 1615.38 1450.39 Z" fill="#000000" fill-rule="nonzero" fill-opacity="1" /><path clip-path="url(#clip090)" d="M1925.78 1481.64 L1942.1 1481.64 L1942.1 1485.58 L1920.16 1485.58 L1920.16 1481.64 Q1922.82 1478.89 1927.4 1474.26 Q1932.01 1469.61 1933.19 1468.27 Q1935.43 1465.74 1936.31 1464.01 Q1937.22 1462.25 1937.22 1460.56 Q1937.22 1457.8 1935.27 1456.07 Q1933.35 1454.33 1930.25 1454.33 Q1928.05 1454.33 1925.6 1455.09 Q1923.16 1455.86 1920.39 1457.41 L1920.39 1452.69 Q1923.21 1451.55 1925.66 1450.97 Q1928.12 1450.39 1930.16 1450.39 Q1935.53 1450.39 1938.72 1453.08 Q1941.91 1455.77 1941.91 1460.26 Q1941.91 1462.39 1941.1 1464.31 Q1940.32 1466.2 1938.21 1468.8 Q1937.63 1469.47 1934.53 1472.69 Q1931.43 1475.88 1925.78 1481.64 Z" fill="#000000" fill-rule="nonzero" fill-opacity="1" /><path clip-path="url(#clip090)" d="M1951.96 1451.02 L1970.32 1451.02 L1970.32 1454.96 L1956.24 1454.96 L1956.24 1463.43 Q1957.26 1463.08 1958.28 1462.92 Q1959.3 1462.73 1960.32 1462.73 Q1966.1 1462.73 1969.48 1465.9 Q1972.86 1469.08 1972.86 1474.49 Q1972.86 1480.07 1969.39 1483.17 Q1965.92 1486.25 1959.6 1486.25 Q1957.42 1486.25 1955.16 1485.88 Q1952.91 1485.51 1950.5 1484.77 L1950.5 1480.07 Q1952.59 1481.2 1954.81 1481.76 Q1957.03 1482.32 1959.51 1482.32 Q1963.51 1482.32 1965.85 1480.21 Q1968.19 1478.1 1968.19 1474.49 Q1968.19 1470.88 1965.85 1468.77 Q1963.51 1466.67 1959.51 1466.67 Q1957.63 1466.67 1955.76 1467.08 Q1953.91 1467.5 1951.96 1468.38 L1951.96 1451.02 Z" fill="#000000" fill-rule="nonzero" fill-opacity="1" /><path clip-path="url(#clip090)" d="M2281.39 1466.95 Q2284.74 1467.66 2286.62 1469.93 Q2288.52 1472.2 2288.52 1475.53 Q2288.52 1480.65 2285 1483.45 Q2281.48 1486.25 2275 1486.25 Q2272.82 1486.25 2270.51 1485.81 Q2268.22 1485.39 2265.76 1484.54 L2265.76 1480.02 Q2267.71 1481.16 2270.02 1481.74 Q2272.34 1482.32 2274.86 1482.32 Q2279.26 1482.32 2281.55 1480.58 Q2283.87 1478.84 2283.87 1475.53 Q2283.87 1472.48 2281.71 1470.77 Q2279.58 1469.03 2275.76 1469.03 L2271.74 1469.03 L2271.74 1465.19 L2275.95 1465.19 Q2279.4 1465.19 2281.23 1463.82 Q2283.05 1462.43 2283.05 1459.84 Q2283.05 1457.18 2281.16 1455.77 Q2279.28 1454.33 2275.76 1454.33 Q2273.84 1454.33 2271.64 1454.75 Q2269.44 1455.16 2266.8 1456.04 L2266.8 1451.88 Q2269.47 1451.14 2271.78 1450.77 Q2274.12 1450.39 2276.18 1450.39 Q2281.5 1450.39 2284.61 1452.83 Q2287.71 1455.23 2287.71 1459.35 Q2287.71 1462.22 2286.06 1464.21 Q2284.42 1466.18 2281.39 1466.95 Z" fill="#000000" fill-rule="nonzero" fill-opacity="1" /><path clip-path="url(#clip090)" d="M2307.38 1454.1 Q2303.77 1454.1 2301.94 1457.66 Q2300.14 1461.2 2300.14 1468.33 Q2300.14 1475.44 2301.94 1479.01 Q2303.77 1482.55 2307.38 1482.55 Q2311.02 1482.55 2312.82 1479.01 Q2314.65 1475.44 2314.65 1468.33 Q2314.65 1461.2 2312.82 1457.66 Q2311.02 1454.1 2307.38 1454.1 M2307.38 1450.39 Q2313.19 1450.39 2316.25 1455 Q2319.33 1459.58 2319.33 1468.33 Q2319.33 1477.06 2316.25 1481.67 Q2313.19 1486.25 2307.38 1486.25 Q2301.57 1486.25 2298.49 1481.67 Q2295.44 1477.06 2295.44 1468.33 Q2295.44 1459.58 2298.49 1455 Q2301.57 1450.39 2307.38 1450.39 Z" fill="#000000" fill-rule="nonzero" fill-opacity="1" /><path clip-path="url(#clip090)" d="M1209.23 1548.76 L1209.23 1551.62 L1182.3 1551.62 Q1182.69 1557.67 1185.93 1560.85 Q1189.21 1564 1195.03 1564 Q1198.41 1564 1201.56 1563.17 Q1204.74 1562.35 1207.86 1560.69 L1207.86 1566.23 Q1204.71 1567.57 1201.4 1568.27 Q1198.09 1568.97 1194.68 1568.97 Q1186.15 1568.97 1181.16 1564 Q1176.19 1559.04 1176.19 1550.57 Q1176.19 1541.82 1180.9 1536.69 Q1185.65 1531.54 1193.67 1531.54 Q1200.86 1531.54 1205.03 1536.18 Q1209.23 1540.8 1209.23 1548.76 M1203.37 1547.04 Q1203.31 1542.23 1200.67 1539.37 Q1198.06 1536.5 1193.73 1536.5 Q1188.83 1536.5 1185.87 1539.27 Q1182.94 1542.04 1182.49 1547.07 L1203.37 1547.04 Z" fill="#000000" fill-rule="nonzero" fill-opacity="1" /><path clip-path="url(#clip090)" d="M1224.51 1562.7 L1224.51 1581.6 L1218.62 1581.6 L1218.62 1532.4 L1224.51 1532.4 L1224.51 1537.81 Q1226.35 1534.62 1229.15 1533.1 Q1231.99 1531.54 1235.9 1531.54 Q1242.4 1531.54 1246.44 1536.69 Q1250.51 1541.85 1250.51 1550.25 Q1250.51 1558.65 1246.44 1563.81 Q1242.4 1568.97 1235.9 1568.97 Q1231.99 1568.97 1229.15 1567.44 Q1226.35 1565.88 1224.51 1562.7 M1244.43 1550.25 Q1244.43 1543.79 1241.76 1540.13 Q1239.12 1536.44 1234.47 1536.44 Q1229.82 1536.44 1227.15 1540.13 Q1224.51 1543.79 1224.51 1550.25 Q1224.51 1556.71 1227.15 1560.4 Q1229.82 1564.07 1234.47 1564.07 Q1239.12 1564.07 1241.76 1560.4 Q1244.43 1556.71 1244.43 1550.25 Z" fill="#000000" fill-rule="nonzero" fill-opacity="1" /><path clip-path="url(#clip090)" d="M1274.03 1536.5 Q1269.32 1536.5 1266.59 1540.19 Q1263.85 1543.85 1263.85 1550.25 Q1263.85 1556.65 1266.55 1560.34 Q1269.29 1564 1274.03 1564 Q1278.71 1564 1281.45 1560.31 Q1284.19 1556.62 1284.19 1550.25 Q1284.19 1543.92 1281.45 1540.23 Q1278.71 1536.5 1274.03 1536.5 M1274.03 1531.54 Q1281.67 1531.54 1286.03 1536.5 Q1290.39 1541.47 1290.39 1550.25 Q1290.39 1559 1286.03 1564 Q1281.67 1568.97 1274.03 1568.97 Q1266.36 1568.97 1262 1564 Q1257.67 1559 1257.67 1550.25 Q1257.67 1541.47 1262 1536.5 Q1266.36 1531.54 1274.03 1531.54 Z" fill="#000000" fill-rule="nonzero" fill-opacity="1" /><path clip-path="url(#clip090)" d="M1325.75 1533.76 L1325.75 1539.24 Q1323.27 1537.87 1320.76 1537.2 Q1318.27 1536.5 1315.73 1536.5 Q1310.03 1536.5 1306.88 1540.13 Q1303.73 1543.73 1303.73 1550.25 Q1303.73 1556.78 1306.88 1560.4 Q1310.03 1564 1315.73 1564 Q1318.27 1564 1320.76 1563.33 Q1323.27 1562.63 1325.75 1561.26 L1325.75 1566.68 Q1323.3 1567.82 1320.66 1568.39 Q1318.05 1568.97 1315.09 1568.97 Q1307.04 1568.97 1302.3 1563.91 Q1297.55 1558.85 1297.55 1550.25 Q1297.55 1541.53 1302.33 1536.53 Q1307.13 1531.54 1315.47 1531.54 Q1318.18 1531.54 1320.76 1532.11 Q1323.34 1532.65 1325.75 1533.76 Z" fill="#000000" fill-rule="nonzero" fill-opacity="1" /><path clip-path="url(#clip090)" d="M1365.57 1546.53 L1365.57 1568.04 L1359.72 1568.04 L1359.72 1546.72 Q1359.72 1541.66 1357.74 1539.14 Q1355.77 1536.63 1351.82 1536.63 Q1347.08 1536.63 1344.34 1539.65 Q1341.61 1542.68 1341.61 1547.9 L1341.61 1568.04 L1335.72 1568.04 L1335.72 1518.52 L1341.61 1518.52 L1341.61 1537.93 Q1343.71 1534.72 1346.54 1533.13 Q1349.4 1531.54 1353.13 1531.54 Q1359.27 1531.54 1362.42 1535.36 Q1365.57 1539.14 1365.57 1546.53 Z" fill="#000000" fill-rule="nonzero" fill-opacity="1" /><path clip-path="url(#clip090)" d="M1399.98 1533.45 L1399.98 1538.98 Q1397.5 1537.71 1394.82 1537.07 Q1392.15 1536.44 1389.28 1536.44 Q1384.92 1536.44 1382.73 1537.77 Q1380.56 1539.11 1380.56 1541.79 Q1380.56 1543.82 1382.12 1545 Q1383.68 1546.15 1388.39 1547.2 L1390.4 1547.64 Q1396.64 1548.98 1399.25 1551.43 Q1401.89 1553.85 1401.89 1558.21 Q1401.89 1563.17 1397.94 1566.07 Q1394.03 1568.97 1387.15 1568.97 Q1384.29 1568.97 1381.17 1568.39 Q1378.08 1567.85 1374.64 1566.74 L1374.64 1560.69 Q1377.89 1562.38 1381.04 1563.24 Q1384.19 1564.07 1387.28 1564.07 Q1391.42 1564.07 1393.64 1562.66 Q1395.87 1561.23 1395.87 1558.65 Q1395.87 1556.27 1394.25 1554.99 Q1392.66 1553.72 1387.22 1552.54 L1385.18 1552.07 Q1379.74 1550.92 1377.32 1548.56 Q1374.9 1546.18 1374.9 1542.04 Q1374.9 1537.01 1378.46 1534.27 Q1382.03 1531.54 1388.58 1531.54 Q1391.83 1531.54 1394.7 1532.01 Q1397.56 1532.49 1399.98 1533.45 Z" fill="#000000" fill-rule="nonzero" fill-opacity="1" /><polyline clip-path="url(#clip090)" style="stroke:#000000; stroke-linecap:round; stroke-linejoin:round; stroke-width:4; stroke-opacity:1; fill:none" points="225.325,1423.18 225.325,47.2441 "/>
<polyline clip-path="url(#clip090)" style="stroke:#000000; stroke-linecap:round; stroke-linejoin:round; stroke-width:4; stroke-opacity:1; fill:none" points="225.325,1140.88 244.222,1140.88 "/>
<polyline clip-path="url(#clip090)" style="stroke:#000000; stroke-linecap:round; stroke-linejoin:round; stroke-width:4; stroke-opacity:1; fill:none" points="225.325,842.224 244.222,842.224 "/>
<polyline clip-path="url(#clip090)" style="stroke:#000000; stroke-linecap:round; stroke-linejoin:round; stroke-width:4; stroke-opacity:1; fill:none" points="225.325,543.571 244.222,543.571 "/>
<polyline clip-path="url(#clip090)" style="stroke:#000000; stroke-linecap:round; stroke-linejoin:round; stroke-width:4; stroke-opacity:1; fill:none" points="225.325,244.917 244.222,244.917 "/>
<path clip-path="url(#clip090)" d="M51.6634 1160.67 L59.3023 1160.67 L59.3023 1134.3 L50.9921 1135.97 L50.9921 1131.71 L59.256 1130.05 L63.9319 1130.05 L63.9319 1160.67 L71.5707 1160.67 L71.5707 1164.61 L51.6634 1164.61 L51.6634 1160.67 Z" fill="#000000" fill-rule="nonzero" fill-opacity="1" /><path clip-path="url(#clip090)" d="M91.0151 1133.12 Q87.404 1133.12 85.5753 1136.69 Q83.7697 1140.23 83.7697 1147.36 Q83.7697 1154.47 85.5753 1158.03 Q87.404 1161.57 91.0151 1161.57 Q94.6493 1161.57 96.4548 1158.03 Q98.2835 1154.47 98.2835 1147.36 Q98.2835 1140.23 96.4548 1136.69 Q94.6493 1133.12 91.0151 1133.12 M91.0151 1129.42 Q96.8252 1129.42 99.8808 1134.03 Q102.959 1138.61 102.959 1147.36 Q102.959 1156.09 99.8808 1160.69 Q96.8252 1165.28 91.0151 1165.28 Q85.2049 1165.28 82.1262 1160.69 Q79.0707 1156.09 79.0707 1147.36 Q79.0707 1138.61 82.1262 1134.03 Q85.2049 1129.42 91.0151 1129.42 Z" fill="#000000" fill-rule="nonzero" fill-opacity="1" /><path clip-path="url(#clip090)" d="M102.959 1123.52 L127.071 1123.52 L127.071 1126.72 L102.959 1126.72 L102.959 1123.52 Z" fill="#000000" fill-rule="nonzero" fill-opacity="1" /><path clip-path="url(#clip090)" d="M143.396 1111.62 Q140.462 1111.62 138.976 1114.51 Q137.509 1117.39 137.509 1123.18 Q137.509 1128.96 138.976 1131.85 Q140.462 1134.73 143.396 1134.73 Q146.349 1134.73 147.816 1131.85 Q149.302 1128.96 149.302 1123.18 Q149.302 1117.39 147.816 1114.51 Q146.349 1111.62 143.396 1111.62 M143.396 1108.61 Q148.117 1108.61 150.6 1112.35 Q153.101 1116.07 153.101 1123.18 Q153.101 1130.27 150.6 1134.02 Q148.117 1137.74 143.396 1137.74 Q138.675 1137.74 136.174 1134.02 Q133.691 1130.27 133.691 1123.18 Q133.691 1116.07 136.174 1112.35 Q138.675 1108.61 143.396 1108.61 Z" fill="#000000" fill-rule="nonzero" fill-opacity="1" /><path clip-path="url(#clip090)" d="M159.778 1132.42 L163.746 1132.42 L163.746 1137.2 L159.778 1137.2 L159.778 1132.42 Z" fill="#000000" fill-rule="nonzero" fill-opacity="1" /><path clip-path="url(#clip090)" d="M183.532 1122.06 Q186.259 1122.64 187.782 1124.48 Q189.325 1126.32 189.325 1129.03 Q189.325 1133.19 186.466 1135.46 Q183.607 1137.74 178.341 1137.74 Q176.573 1137.74 174.692 1137.38 Q172.83 1137.04 170.837 1136.35 L170.837 1132.68 Q172.417 1133.6 174.297 1134.07 Q176.178 1134.54 178.228 1134.54 Q181.802 1134.54 183.664 1133.13 Q185.544 1131.72 185.544 1129.03 Q185.544 1126.55 183.795 1125.16 Q182.065 1123.75 178.962 1123.75 L175.689 1123.75 L175.689 1120.63 L179.112 1120.63 Q181.914 1120.63 183.4 1119.52 Q184.886 1118.39 184.886 1116.28 Q184.886 1114.12 183.344 1112.97 Q181.82 1111.8 178.962 1111.8 Q177.401 1111.8 175.614 1112.14 Q173.827 1112.48 171.683 1113.2 L171.683 1109.81 Q173.846 1109.21 175.727 1108.91 Q177.626 1108.61 179.3 1108.61 Q183.626 1108.61 186.146 1110.58 Q188.666 1112.54 188.666 1115.89 Q188.666 1118.22 187.331 1119.84 Q185.996 1121.43 183.532 1122.06 Z" fill="#000000" fill-rule="nonzero" fill-opacity="1" /><path clip-path="url(#clip090)" d="M81.8687 862.017 L89.5075 862.017 L89.5075 835.651 L81.1974 837.318 L81.1974 833.059 L89.4612 831.392 L94.1371 831.392 L94.1371 862.017 L101.776 862.017 L101.776 865.952 L81.8687 865.952 L81.8687 862.017 Z" fill="#000000" fill-rule="nonzero" fill-opacity="1" /><path clip-path="url(#clip090)" d="M121.22 834.471 Q117.609 834.471 115.781 838.036 Q113.975 841.577 113.975 848.707 Q113.975 855.813 115.781 859.378 Q117.609 862.92 121.22 862.92 Q124.855 862.92 126.66 859.378 Q128.489 855.813 128.489 848.707 Q128.489 841.577 126.66 838.036 Q124.855 834.471 121.22 834.471 M121.22 830.767 Q127.03 830.767 130.086 835.374 Q133.165 839.957 133.165 848.707 Q133.165 857.434 130.086 862.04 Q127.03 866.623 121.22 866.623 Q115.41 866.623 112.331 862.04 Q109.276 857.434 109.276 848.707 Q109.276 839.957 112.331 835.374 Q115.41 830.767 121.22 830.767 Z" fill="#000000" fill-rule="nonzero" fill-opacity="1" /><path clip-path="url(#clip090)" d="M142.87 812.963 Q139.936 812.963 138.45 815.86 Q136.983 818.737 136.983 824.53 Q136.983 830.304 138.45 833.2 Q139.936 836.078 142.87 836.078 Q145.822 836.078 147.289 833.2 Q148.775 830.304 148.775 824.53 Q148.775 818.737 147.289 815.86 Q145.822 812.963 142.87 812.963 M142.87 809.954 Q147.59 809.954 150.073 813.697 Q152.574 817.421 152.574 824.53 Q152.574 831.62 150.073 835.363 Q147.59 839.087 142.87 839.087 Q138.149 839.087 135.647 835.363 Q133.165 831.62 133.165 824.53 Q133.165 817.421 135.647 813.697 Q138.149 809.954 142.87 809.954 Z" fill="#000000" fill-rule="nonzero" fill-opacity="1" /><path clip-path="url(#clip090)" d="M159.251 833.765 L163.22 833.765 L163.22 838.542 L159.251 838.542 L159.251 833.765 Z" fill="#000000" fill-rule="nonzero" fill-opacity="1" /><path clip-path="url(#clip090)" d="M179.62 812.963 Q176.686 812.963 175.2 815.86 Q173.733 818.737 173.733 824.53 Q173.733 830.304 175.2 833.2 Q176.686 836.078 179.62 836.078 Q182.573 836.078 184.04 833.2 Q185.526 830.304 185.526 824.53 Q185.526 818.737 184.04 815.86 Q182.573 812.963 179.62 812.963 M179.62 809.954 Q184.341 809.954 186.823 813.697 Q189.325 817.421 189.325 824.53 Q189.325 831.62 186.823 835.363 Q184.341 839.087 179.62 839.087 Q174.899 839.087 172.398 835.363 Q169.915 831.62 169.915 824.53 Q169.915 817.421 172.398 813.697 Q174.899 809.954 179.62 809.954 Z" fill="#000000" fill-rule="nonzero" fill-opacity="1" /><path clip-path="url(#clip090)" d="M82.3953 563.363 L90.0342 563.363 L90.0342 536.998 L81.724 538.664 L81.724 534.405 L89.9879 532.738 L94.6638 532.738 L94.6638 563.363 L102.303 563.363 L102.303 567.298 L82.3953 567.298 L82.3953 563.363 Z" fill="#000000" fill-rule="nonzero" fill-opacity="1" /><path clip-path="url(#clip090)" d="M121.747 535.817 Q118.136 535.817 116.307 539.382 Q114.502 542.924 114.502 550.053 Q114.502 557.16 116.307 560.724 Q118.136 564.266 121.747 564.266 Q125.381 564.266 127.187 560.724 Q129.015 557.16 129.015 550.053 Q129.015 542.924 127.187 539.382 Q125.381 535.817 121.747 535.817 M121.747 532.113 Q127.557 532.113 130.613 536.72 Q133.691 541.303 133.691 550.053 Q133.691 558.78 130.613 563.386 Q127.557 567.97 121.747 567.97 Q115.937 567.97 112.858 563.386 Q109.803 558.78 109.803 550.053 Q109.803 541.303 112.858 536.72 Q115.937 532.113 121.747 532.113 Z" fill="#000000" fill-rule="nonzero" fill-opacity="1" /><path clip-path="url(#clip090)" d="M143.396 514.31 Q140.462 514.31 138.976 517.206 Q137.509 520.084 137.509 525.876 Q137.509 531.65 138.976 534.547 Q140.462 537.424 143.396 537.424 Q146.349 537.424 147.816 534.547 Q149.302 531.65 149.302 525.876 Q149.302 520.084 147.816 517.206 Q146.349 514.31 143.396 514.31 M143.396 511.3 Q148.117 511.3 150.6 515.043 Q153.101 518.767 153.101 525.876 Q153.101 532.967 150.6 536.71 Q148.117 540.434 143.396 540.434 Q138.675 540.434 136.174 536.71 Q133.691 532.967 133.691 525.876 Q133.691 518.767 136.174 515.043 Q138.675 511.3 143.396 511.3 Z" fill="#000000" fill-rule="nonzero" fill-opacity="1" /><path clip-path="url(#clip090)" d="M159.778 535.111 L163.746 535.111 L163.746 539.888 L159.778 539.888 L159.778 535.111 Z" fill="#000000" fill-rule="nonzero" fill-opacity="1" /><path clip-path="url(#clip090)" d="M183.532 524.748 Q186.259 525.331 187.782 527.174 Q189.325 529.017 189.325 531.726 Q189.325 535.882 186.466 538.158 Q183.607 540.434 178.341 540.434 Q176.573 540.434 174.692 540.076 Q172.83 539.738 170.837 539.042 L170.837 535.374 Q172.417 536.296 174.297 536.766 Q176.178 537.236 178.228 537.236 Q181.802 537.236 183.664 535.826 Q185.544 534.415 185.544 531.726 Q185.544 529.243 183.795 527.851 Q182.065 526.441 178.962 526.441 L175.689 526.441 L175.689 523.318 L179.112 523.318 Q181.914 523.318 183.4 522.209 Q184.886 521.08 184.886 518.974 Q184.886 516.811 183.344 515.664 Q181.82 514.498 178.962 514.498 Q177.401 514.498 175.614 514.836 Q173.827 515.175 171.683 515.889 L171.683 512.504 Q173.846 511.902 175.727 511.601 Q177.626 511.3 179.3 511.3 Q183.626 511.3 186.146 513.275 Q188.666 515.231 188.666 518.579 Q188.666 520.911 187.331 522.529 Q185.996 524.127 183.532 524.748 Z" fill="#000000" fill-rule="nonzero" fill-opacity="1" /><path clip-path="url(#clip090)" d="M81.737 264.71 L89.3759 264.71 L89.3759 238.344 L81.0657 240.011 L81.0657 235.752 L89.3296 234.085 L94.0055 234.085 L94.0055 264.71 L101.644 264.71 L101.644 268.645 L81.737 268.645 L81.737 264.71 Z" fill="#000000" fill-rule="nonzero" fill-opacity="1" /><path clip-path="url(#clip090)" d="M121.089 237.164 Q117.478 237.164 115.649 240.728 Q113.843 244.27 113.843 251.4 Q113.843 258.506 115.649 262.071 Q117.478 265.613 121.089 265.613 Q124.723 265.613 126.528 262.071 Q128.357 258.506 128.357 251.4 Q128.357 244.27 126.528 240.728 Q124.723 237.164 121.089 237.164 M121.089 233.46 Q126.899 233.46 129.954 238.066 Q133.033 242.65 133.033 251.4 Q133.033 260.126 129.954 264.733 Q126.899 269.316 121.089 269.316 Q115.279 269.316 112.2 264.733 Q109.144 260.126 109.144 251.4 Q109.144 242.65 112.2 238.066 Q115.279 233.46 121.089 233.46 Z" fill="#000000" fill-rule="nonzero" fill-opacity="1" /><path clip-path="url(#clip090)" d="M142.738 215.656 Q139.804 215.656 138.318 218.552 Q136.851 221.43 136.851 227.223 Q136.851 232.997 138.318 235.893 Q139.804 238.771 142.738 238.771 Q145.691 238.771 147.158 235.893 Q148.644 232.997 148.644 227.223 Q148.644 221.43 147.158 218.552 Q145.691 215.656 142.738 215.656 M142.738 212.647 Q147.459 212.647 149.941 216.389 Q152.443 220.113 152.443 227.223 Q152.443 234.313 149.941 238.056 Q147.459 241.78 142.738 241.78 Q138.017 241.78 135.516 238.056 Q133.033 234.313 133.033 227.223 Q133.033 220.113 135.516 216.389 Q138.017 212.647 142.738 212.647 Z" fill="#000000" fill-rule="nonzero" fill-opacity="1" /><path clip-path="url(#clip090)" d="M159.119 236.457 L163.088 236.457 L163.088 241.234 L159.119 241.234 L159.119 236.457 Z" fill="#000000" fill-rule="nonzero" fill-opacity="1" /><path clip-path="url(#clip090)" d="M179.958 225.68 Q177.401 225.68 175.896 227.43 Q174.41 229.179 174.41 232.226 Q174.41 235.254 175.896 237.022 Q177.401 238.771 179.958 238.771 Q182.516 238.771 184.002 237.022 Q185.507 235.254 185.507 232.226 Q185.507 229.179 184.002 227.43 Q182.516 225.68 179.958 225.68 M187.5 213.775 L187.5 217.236 Q186.071 216.559 184.604 216.201 Q183.156 215.844 181.726 215.844 Q177.965 215.844 175.971 218.383 Q173.996 220.922 173.714 226.057 Q174.824 224.42 176.498 223.555 Q178.172 222.671 180.184 222.671 Q184.416 222.671 186.861 225.248 Q189.325 227.806 189.325 232.226 Q189.325 236.551 186.767 239.166 Q184.209 241.78 179.958 241.78 Q175.087 241.78 172.511 238.056 Q169.934 234.313 169.934 227.223 Q169.934 220.565 173.094 216.615 Q176.253 212.647 181.576 212.647 Q183.005 212.647 184.454 212.929 Q185.921 213.211 187.5 213.775 Z" fill="#000000" fill-rule="nonzero" fill-opacity="1" /><polyline clip-path="url(#clip092)" style="stroke:#009af9; stroke-linecap:round; stroke-linejoin:round; stroke-width:4; stroke-opacity:1; fill:none" points="285.535,86.1857 354.742,331.637 423.95,403.266 493.157,485.137 562.364,576.621 631.571,653.601 700.779,741.356 769.986,810.952 839.193,876.302 908.4,960.322 977.608,1004.44 1046.81,1058.21 1116.02,1119.13 1185.23,1179.94 1254.44,1223.36 1323.64,1221.09 1392.85,1263.69 1462.06,1282.74 1531.27,1307.59 1600.47,1310.86 1669.68,1326.65 1738.89,1335.41 1808.09,1380.02 1877.3,1359.88 1946.51,1355.01 2015.72,1364.32 2084.92,1368.98 2154.13,1364.87 2223.34,1384.24 2292.55,1360.71 "/>
<polyline clip-path="url(#clip092)" style="stroke:#e26f46; stroke-linecap:round; stroke-linejoin:round; stroke-width:4; stroke-opacity:1; fill:none" points="285.535,153.858 354.742,186.565 423.95,188.498 493.157,198.512 562.364,188.833 631.571,176.141 700.779,168.542 769.986,155.522 839.193,145.832 908.4,175.977 977.608,181.667 1046.81,152.505 1116.02,173.341 1185.23,148.527 1254.44,157.472 1323.64,164.295 1392.85,168.128 1462.06,167.279 1531.27,151.854 1600.47,125.792 1669.68,163.465 1738.89,149.046 1808.09,139.762 1877.3,145.551 1946.51,141.113 2015.72,157.229 2084.92,139.011 2154.13,143.902 2223.34,122.847 2292.55,120.539 "/>
<path clip-path="url(#clip090)" d="M296.239 1377.32 L731.018 1377.32 L731.018 1221.8 L296.239 1221.8  Z" fill="#ffffff" fill-rule="evenodd" fill-opacity="1"/>
<polyline clip-path="url(#clip090)" style="stroke:#000000; stroke-linecap:round; stroke-linejoin:round; stroke-width:4; stroke-opacity:1; fill:none" points="296.239,1377.32 731.018,1377.32 731.018,1221.8 296.239,1221.8 296.239,1377.32 "/>
<polyline clip-path="url(#clip090)" style="stroke:#009af9; stroke-linecap:round; stroke-linejoin:round; stroke-width:4; stroke-opacity:1; fill:none" points="319.877,1273.64 461.706,1273.64 "/>
<path clip-path="url(#clip090)" d="M492.751 1257.63 L492.751 1264.99 L501.525 1264.99 L501.525 1268.3 L492.751 1268.3 L492.751 1282.37 Q492.751 1285.54 493.608 1286.45 Q494.488 1287.35 497.15 1287.35 L501.525 1287.35 L501.525 1290.92 L497.15 1290.92 Q492.219 1290.92 490.344 1289.09 Q488.469 1287.23 488.469 1282.37 L488.469 1268.3 L485.344 1268.3 L485.344 1264.99 L488.469 1264.99 L488.469 1257.63 L492.751 1257.63 Z" fill="#000000" fill-rule="nonzero" fill-opacity="1" /><path clip-path="url(#clip090)" d="M522.149 1268.97 Q521.432 1268.55 520.575 1268.37 Q519.742 1268.16 518.724 1268.16 Q515.112 1268.16 513.168 1270.52 Q511.247 1272.86 511.247 1277.26 L511.247 1290.92 L506.964 1290.92 L506.964 1264.99 L511.247 1264.99 L511.247 1269.02 Q512.589 1266.66 514.742 1265.52 Q516.895 1264.36 519.974 1264.36 Q520.413 1264.36 520.946 1264.43 Q521.478 1264.48 522.126 1264.6 L522.149 1268.97 Z" fill="#000000" fill-rule="nonzero" fill-opacity="1" /><path clip-path="url(#clip090)" d="M538.399 1277.88 Q533.237 1277.88 531.247 1279.06 Q529.256 1280.24 529.256 1283.09 Q529.256 1285.36 530.737 1286.7 Q532.242 1288.02 534.811 1288.02 Q538.353 1288.02 540.483 1285.52 Q542.635 1283 542.635 1278.83 L542.635 1277.88 L538.399 1277.88 M546.895 1276.12 L546.895 1290.92 L542.635 1290.92 L542.635 1286.98 Q541.177 1289.34 539.001 1290.48 Q536.825 1291.59 533.677 1291.59 Q529.696 1291.59 527.335 1289.36 Q524.997 1287.12 524.997 1283.37 Q524.997 1278.99 527.913 1276.77 Q530.853 1274.55 536.663 1274.55 L542.635 1274.55 L542.635 1274.13 Q542.635 1271.19 540.691 1269.6 Q538.77 1267.98 535.274 1267.98 Q533.052 1267.98 530.946 1268.51 Q528.839 1269.04 526.895 1270.11 L526.895 1266.17 Q529.233 1265.27 531.432 1264.83 Q533.631 1264.36 535.714 1264.36 Q541.339 1264.36 544.117 1267.28 Q546.895 1270.2 546.895 1276.12 Z" fill="#000000" fill-rule="nonzero" fill-opacity="1" /><path clip-path="url(#clip090)" d="M555.668 1264.99 L559.927 1264.99 L559.927 1290.92 L555.668 1290.92 L555.668 1264.99 M555.668 1254.9 L559.927 1254.9 L559.927 1260.29 L555.668 1260.29 L555.668 1254.9 Z" fill="#000000" fill-rule="nonzero" fill-opacity="1" /><path clip-path="url(#clip090)" d="M590.39 1275.27 L590.39 1290.92 L586.131 1290.92 L586.131 1275.41 Q586.131 1271.73 584.695 1269.9 Q583.26 1268.07 580.39 1268.07 Q576.941 1268.07 574.95 1270.27 Q572.959 1272.47 572.959 1276.26 L572.959 1290.92 L568.677 1290.92 L568.677 1264.99 L572.959 1264.99 L572.959 1269.02 Q574.487 1266.68 576.547 1265.52 Q578.631 1264.36 581.339 1264.36 Q585.807 1264.36 588.098 1267.14 Q590.39 1269.9 590.39 1275.27 Z" fill="#000000" fill-rule="nonzero" fill-opacity="1" /><path clip-path="url(#clip090)" d="M618.584 1298.79 L618.584 1302.1 L593.955 1302.1 L593.955 1298.79 L618.584 1298.79 Z" fill="#000000" fill-rule="nonzero" fill-opacity="1" /><path clip-path="url(#clip090)" d="M622.589 1254.9 L626.848 1254.9 L626.848 1290.92 L622.589 1290.92 L622.589 1254.9 Z" fill="#000000" fill-rule="nonzero" fill-opacity="1" /><path clip-path="url(#clip090)" d="M645.806 1267.98 Q642.38 1267.98 640.39 1270.66 Q638.399 1273.32 638.399 1277.98 Q638.399 1282.63 640.366 1285.31 Q642.357 1287.98 645.806 1287.98 Q649.209 1287.98 651.2 1285.29 Q653.19 1282.61 653.19 1277.98 Q653.19 1273.37 651.2 1270.68 Q649.209 1267.98 645.806 1267.98 M645.806 1264.36 Q651.362 1264.36 654.533 1267.98 Q657.704 1271.59 657.704 1277.98 Q657.704 1284.34 654.533 1287.98 Q651.362 1291.59 645.806 1291.59 Q640.228 1291.59 637.056 1287.98 Q633.908 1284.34 633.908 1277.98 Q633.908 1271.59 637.056 1267.98 Q640.228 1264.36 645.806 1264.36 Z" fill="#000000" fill-rule="nonzero" fill-opacity="1" /><path clip-path="url(#clip090)" d="M681.292 1265.75 L681.292 1269.78 Q679.487 1268.86 677.542 1268.39 Q675.598 1267.93 673.514 1267.93 Q670.343 1267.93 668.746 1268.9 Q667.172 1269.87 667.172 1271.82 Q667.172 1273.3 668.306 1274.16 Q669.44 1274.99 672.866 1275.75 L674.325 1276.08 Q678.862 1277.05 680.76 1278.83 Q682.681 1280.59 682.681 1283.76 Q682.681 1287.37 679.811 1289.48 Q676.963 1291.59 671.963 1291.59 Q669.88 1291.59 667.612 1291.17 Q665.366 1290.78 662.866 1289.97 L662.866 1285.57 Q665.227 1286.79 667.519 1287.42 Q669.811 1288.02 672.056 1288.02 Q675.065 1288.02 676.686 1287 Q678.306 1285.96 678.306 1284.09 Q678.306 1282.35 677.125 1281.42 Q675.968 1280.5 672.01 1279.64 L670.528 1279.3 Q666.57 1278.46 664.811 1276.75 Q663.051 1275.01 663.051 1272 Q663.051 1268.35 665.644 1266.36 Q668.237 1264.36 673.005 1264.36 Q675.366 1264.36 677.45 1264.71 Q679.533 1265.06 681.292 1265.75 Z" fill="#000000" fill-rule="nonzero" fill-opacity="1" /><path clip-path="url(#clip090)" d="M705.991 1265.75 L705.991 1269.78 Q704.186 1268.86 702.241 1268.39 Q700.297 1267.93 698.213 1267.93 Q695.042 1267.93 693.445 1268.9 Q691.871 1269.87 691.871 1271.82 Q691.871 1273.3 693.005 1274.16 Q694.139 1274.99 697.565 1275.75 L699.023 1276.08 Q703.561 1277.05 705.459 1278.83 Q707.38 1280.59 707.38 1283.76 Q707.38 1287.37 704.51 1289.48 Q701.662 1291.59 696.662 1291.59 Q694.579 1291.59 692.311 1291.17 Q690.065 1290.78 687.565 1289.97 L687.565 1285.57 Q689.926 1286.79 692.218 1287.42 Q694.51 1288.02 696.755 1288.02 Q699.764 1288.02 701.385 1287 Q703.005 1285.96 703.005 1284.09 Q703.005 1282.35 701.824 1281.42 Q700.667 1280.5 696.709 1279.64 L695.227 1279.3 Q691.269 1278.46 689.51 1276.75 Q687.75 1275.01 687.75 1272 Q687.75 1268.35 690.343 1266.36 Q692.936 1264.36 697.704 1264.36 Q700.065 1264.36 702.148 1264.71 Q704.232 1265.06 705.991 1265.75 Z" fill="#000000" fill-rule="nonzero" fill-opacity="1" /><polyline clip-path="url(#clip090)" style="stroke:#e26f46; stroke-linecap:round; stroke-linejoin:round; stroke-width:4; stroke-opacity:1; fill:none" points="319.877,1325.48 461.706,1325.48 "/>
<path clip-path="url(#clip090)" d="M485.344 1316.83 L489.858 1316.83 L497.96 1338.59 L506.062 1316.83 L510.575 1316.83 L500.853 1342.76 L495.066 1342.76 L485.344 1316.83 Z" fill="#000000" fill-rule="nonzero" fill-opacity="1" /><path clip-path="url(#clip090)" d="M528.237 1329.72 Q523.075 1329.72 521.085 1330.9 Q519.094 1332.08 519.094 1334.93 Q519.094 1337.2 520.575 1338.54 Q522.08 1339.86 524.649 1339.86 Q528.191 1339.86 530.321 1337.36 Q532.473 1334.84 532.473 1330.67 L532.473 1329.72 L528.237 1329.72 M536.733 1327.96 L536.733 1342.76 L532.473 1342.76 L532.473 1338.82 Q531.015 1341.18 528.839 1342.32 Q526.663 1343.43 523.515 1343.43 Q519.534 1343.43 517.173 1341.2 Q514.835 1338.96 514.835 1335.21 Q514.835 1330.83 517.751 1328.61 Q520.691 1326.39 526.501 1326.39 L532.473 1326.39 L532.473 1325.97 Q532.473 1323.03 530.529 1321.44 Q528.608 1319.82 525.112 1319.82 Q522.89 1319.82 520.784 1320.35 Q518.677 1320.88 516.733 1321.95 L516.733 1318.01 Q519.071 1317.11 521.27 1316.67 Q523.469 1316.2 525.552 1316.2 Q531.177 1316.2 533.955 1319.12 Q536.733 1322.04 536.733 1327.96 Z" fill="#000000" fill-rule="nonzero" fill-opacity="1" /><path clip-path="url(#clip090)" d="M545.506 1306.74 L549.765 1306.74 L549.765 1342.76 L545.506 1342.76 L545.506 1306.74 Z" fill="#000000" fill-rule="nonzero" fill-opacity="1" /><path clip-path="url(#clip090)" d="M578.376 1350.63 L578.376 1353.94 L553.746 1353.94 L553.746 1350.63 L578.376 1350.63 Z" fill="#000000" fill-rule="nonzero" fill-opacity="1" /><path clip-path="url(#clip090)" d="M582.381 1306.74 L586.64 1306.74 L586.64 1342.76 L582.381 1342.76 L582.381 1306.74 Z" fill="#000000" fill-rule="nonzero" fill-opacity="1" /><path clip-path="url(#clip090)" d="M605.598 1319.82 Q602.172 1319.82 600.181 1322.5 Q598.191 1325.16 598.191 1329.82 Q598.191 1334.47 600.158 1337.15 Q602.149 1339.82 605.598 1339.82 Q609.001 1339.82 610.992 1337.13 Q612.982 1334.45 612.982 1329.82 Q612.982 1325.21 610.992 1322.52 Q609.001 1319.82 605.598 1319.82 M605.598 1316.2 Q611.154 1316.2 614.325 1319.82 Q617.496 1323.43 617.496 1329.82 Q617.496 1336.18 614.325 1339.82 Q611.154 1343.43 605.598 1343.43 Q600.019 1343.43 596.848 1339.82 Q593.7 1336.18 593.7 1329.82 Q593.7 1323.43 596.848 1319.82 Q600.019 1316.2 605.598 1316.2 Z" fill="#000000" fill-rule="nonzero" fill-opacity="1" /><path clip-path="url(#clip090)" d="M641.084 1317.59 L641.084 1321.62 Q639.278 1320.7 637.334 1320.23 Q635.39 1319.77 633.306 1319.77 Q630.135 1319.77 628.538 1320.74 Q626.964 1321.71 626.964 1323.66 Q626.964 1325.14 628.098 1326 Q629.232 1326.83 632.658 1327.59 L634.116 1327.92 Q638.653 1328.89 640.552 1330.67 Q642.473 1332.43 642.473 1335.6 Q642.473 1339.21 639.603 1341.32 Q636.755 1343.43 631.755 1343.43 Q629.672 1343.43 627.404 1343.01 Q625.158 1342.62 622.658 1341.81 L622.658 1337.41 Q625.019 1338.63 627.311 1339.26 Q629.603 1339.86 631.848 1339.86 Q634.857 1339.86 636.478 1338.84 Q638.098 1337.8 638.098 1335.93 Q638.098 1334.19 636.917 1333.26 Q635.76 1332.34 631.802 1331.48 L630.32 1331.14 Q626.362 1330.3 624.603 1328.59 Q622.843 1326.85 622.843 1323.84 Q622.843 1320.19 625.436 1318.2 Q628.029 1316.2 632.797 1316.2 Q635.158 1316.2 637.241 1316.55 Q639.325 1316.9 641.084 1317.59 Z" fill="#000000" fill-rule="nonzero" fill-opacity="1" /><path clip-path="url(#clip090)" d="M665.783 1317.59 L665.783 1321.62 Q663.977 1320.7 662.033 1320.23 Q660.089 1319.77 658.005 1319.77 Q654.834 1319.77 653.237 1320.74 Q651.663 1321.71 651.663 1323.66 Q651.663 1325.14 652.797 1326 Q653.931 1326.83 657.357 1327.59 L658.815 1327.92 Q663.352 1328.89 665.251 1330.67 Q667.172 1332.43 667.172 1335.6 Q667.172 1339.21 664.301 1341.32 Q661.454 1343.43 656.454 1343.43 Q654.371 1343.43 652.102 1343.01 Q649.857 1342.62 647.357 1341.81 L647.357 1337.41 Q649.718 1338.63 652.01 1339.26 Q654.302 1339.86 656.547 1339.86 Q659.556 1339.86 661.176 1338.84 Q662.797 1337.8 662.797 1335.93 Q662.797 1334.19 661.616 1333.26 Q660.459 1332.34 656.501 1331.48 L655.019 1331.14 Q651.061 1330.3 649.302 1328.59 Q647.542 1326.85 647.542 1323.84 Q647.542 1320.19 650.135 1318.2 Q652.727 1316.2 657.496 1316.2 Q659.857 1316.2 661.94 1316.55 Q664.024 1316.9 665.783 1317.59 Z" fill="#000000" fill-rule="nonzero" fill-opacity="1" /></svg>
