<?xml version="1.0" encoding="utf-8"?>
<svg xmlns="http://www.w3.org/2000/svg" xmlns:xlink="http://www.w3.org/1999/xlink" width="600" height="400" viewBox="0 0 2400 1600">
<defs>
  <clipPath id="clip940">
    <rect x="0" y="0" width="2400" height="1600"/>
  </clipPath>
</defs>
<path clip-path="url(#clip940)" d="M0 1600 L2400 1600 L2400 0 L0 0  Z" fill="#ffffff" fill-rule="evenodd" fill-opacity="1"/>
<defs>
  <clipPath id="clip941">
    <rect x="480" y="0" width="1681" height="1600"/>
  </clipPath>
</defs>
<path clip-path="url(#clip940)" d="M140.696 1423.18 L2352.76 1423.18 L2352.76 47.2441 L140.696 47.2441  Z" fill="#ffffff" fill-rule="evenodd" fill-opacity="1"/>
<defs>
  <clipPath id="clip942">
    <rect x="140" y="47" width="2213" height="1377"/>
  </clipPath>
</defs>
<polyline clip-path="url(#clip942)" style="stroke:#000000; stroke-linecap:round; stroke-linejoin:round; stroke-width:2; stroke-opacity:0.1; fill:none" points="182.222,1423.18 182.222,47.2441 "/>
<polyline clip-path="url(#clip942)" style="stroke:#000000; stroke-linecap:round; stroke-linejoin:round; stroke-width:2; stroke-opacity:0.1; fill:none" points="709.204,1423.18 709.204,47.2441 "/>
<polyline clip-path="url(#clip942)" style="stroke:#000000; stroke-linecap:round; stroke-linejoin:round; stroke-width:2; stroke-opacity:0.1; fill:none" points="1236.19,1423.18 1236.19,47.2441 "/>
<polyline clip-path="url(#clip942)" style="stroke:#000000; stroke-linecap:round; stroke-linejoin:round; stroke-width:2; stroke-opacity:0.1; fill:none" points="1763.17,1423.18 1763.17,47.2441 "/>
<polyline clip-path="url(#clip942)" style="stroke:#000000; stroke-linecap:round; stroke-linejoin:round; stroke-width:2; stroke-opacity:0.1; fill:none" points="2290.15,1423.18 2290.15,47.2441 "/>
<polyline clip-path="url(#clip942)" style="stroke:#000000; stroke-linecap:round; stroke-linejoin:round; stroke-width:2; stroke-opacity:0.1; fill:none" points="140.696,1220.79 2352.76,1220.79 "/>
<polyline clip-path="url(#clip942)" style="stroke:#000000; stroke-linecap:round; stroke-linejoin:round; stroke-width:2; stroke-opacity:0.1; fill:none" points="140.696,872.7 2352.76,872.7 "/>
<polyline clip-path="url(#clip942)" style="stroke:#000000; stroke-linecap:round; stroke-linejoin:round; stroke-width:2; stroke-opacity:0.1; fill:none" points="140.696,524.611 2352.76,524.611 "/>
<polyline clip-path="url(#clip942)" style="stroke:#000000; stroke-linecap:round; stroke-linejoin:round; stroke-width:2; stroke-opacity:0.1; fill:none" points="140.696,176.522 2352.76,176.522 "/>
<polyline clip-path="url(#clip940)" style="stroke:#000000; stroke-linecap:round; stroke-linejoin:round; stroke-width:4; stroke-opacity:1; fill:none" points="140.696,1423.18 2352.76,1423.18 "/>
<polyline clip-path="url(#clip940)" style="stroke:#000000; stroke-linecap:round; stroke-linejoin:round; stroke-width:4; stroke-opacity:1; fill:none" points="182.222,1423.18 182.222,1404.28 "/>
<polyline clip-path="url(#clip940)" style="stroke:#000000; stroke-linecap:round; stroke-linejoin:round; stroke-width:4; stroke-opacity:1; fill:none" points="709.204,1423.18 709.204,1404.28 "/>
<polyline clip-path="url(#clip940)" style="stroke:#000000; stroke-linecap:round; stroke-linejoin:round; stroke-width:4; stroke-opacity:1; fill:none" points="1236.19,1423.18 1236.19,1404.28 "/>
<polyline clip-path="url(#clip940)" style="stroke:#000000; stroke-linecap:round; stroke-linejoin:round; stroke-width:4; stroke-opacity:1; fill:none" points="1763.17,1423.18 1763.17,1404.28 "/>
<polyline clip-path="url(#clip940)" style="stroke:#000000; stroke-linecap:round; stroke-linejoin:round; stroke-width:4; stroke-opacity:1; fill:none" points="2290.15,1423.18 2290.15,1404.28 "/>
<path clip-path="url(#clip940)" d="M182.222 1454.1 Q178.611 1454.1 176.782 1457.66 Q174.976 1461.2 174.976 1468.33 Q174.976 1475.44 176.782 1479.01 Q178.611 1482.55 182.222 1482.55 Q185.856 1482.55 187.662 1479.01 Q189.49 1475.44 189.49 1468.33 Q189.49 1461.2 187.662 1457.66 Q185.856 1454.1 182.222 1454.1 M182.222 1450.39 Q188.032 1450.39 191.087 1455 Q194.166 1459.58 194.166 1468.33 Q194.166 1477.06 191.087 1481.67 Q188.032 1486.25 182.222 1486.25 Q176.412 1486.25 173.333 1481.67 Q170.277 1477.06 170.277 1468.33 Q170.277 1459.58 173.333 1455 Q176.412 1450.39 182.222 1450.39 Z" fill="#000000" fill-rule="nonzero" fill-opacity="1" /><path clip-path="url(#clip940)" d="M688.475 1481.64 L704.794 1481.64 L704.794 1485.58 L682.85 1485.58 L682.85 1481.64 Q685.512 1478.89 690.095 1474.26 Q694.702 1469.61 695.882 1468.27 Q698.128 1465.74 699.007 1464.01 Q699.91 1462.25 699.91 1460.56 Q699.91 1457.8 697.966 1456.07 Q696.044 1454.33 692.942 1454.33 Q690.743 1454.33 688.29 1455.09 Q685.859 1455.86 683.081 1457.41 L683.081 1452.69 Q685.905 1451.55 688.359 1450.97 Q690.813 1450.39 692.85 1450.39 Q698.22 1450.39 701.415 1453.08 Q704.609 1455.77 704.609 1460.26 Q704.609 1462.39 703.799 1464.31 Q703.012 1466.2 700.905 1468.8 Q700.327 1469.47 697.225 1472.69 Q694.123 1475.88 688.475 1481.64 Z" fill="#000000" fill-rule="nonzero" fill-opacity="1" /><path clip-path="url(#clip940)" d="M714.655 1451.02 L733.012 1451.02 L733.012 1454.96 L718.938 1454.96 L718.938 1463.43 Q719.956 1463.08 720.975 1462.92 Q721.993 1462.73 723.012 1462.73 Q728.799 1462.73 732.178 1465.9 Q735.558 1469.08 735.558 1474.49 Q735.558 1480.07 732.086 1483.17 Q728.614 1486.25 722.294 1486.25 Q720.118 1486.25 717.85 1485.88 Q715.604 1485.51 713.197 1484.77 L713.197 1480.07 Q715.28 1481.2 717.502 1481.76 Q719.725 1482.32 722.202 1482.32 Q726.206 1482.32 728.544 1480.21 Q730.882 1478.1 730.882 1474.49 Q730.882 1470.88 728.544 1468.77 Q726.206 1466.67 722.202 1466.67 Q720.327 1466.67 718.452 1467.08 Q716.6 1467.5 714.655 1468.38 L714.655 1451.02 Z" fill="#000000" fill-rule="nonzero" fill-opacity="1" /><path clip-path="url(#clip940)" d="M1210.89 1451.02 L1229.24 1451.02 L1229.24 1454.96 L1215.17 1454.96 L1215.17 1463.43 Q1216.19 1463.08 1217.2 1462.92 Q1218.22 1462.73 1219.24 1462.73 Q1225.03 1462.73 1228.41 1465.9 Q1231.79 1469.08 1231.79 1474.49 Q1231.79 1480.07 1228.32 1483.17 Q1224.84 1486.25 1218.52 1486.25 Q1216.35 1486.25 1214.08 1485.88 Q1211.83 1485.51 1209.43 1484.77 L1209.43 1480.07 Q1211.51 1481.2 1213.73 1481.76 Q1215.95 1482.32 1218.43 1482.32 Q1222.44 1482.32 1224.77 1480.21 Q1227.11 1478.1 1227.11 1474.49 Q1227.11 1470.88 1224.77 1468.77 Q1222.44 1466.67 1218.43 1466.67 Q1216.56 1466.67 1214.68 1467.08 Q1212.83 1467.5 1210.89 1468.38 L1210.89 1451.02 Z" fill="#000000" fill-rule="nonzero" fill-opacity="1" /><path clip-path="url(#clip940)" d="M1251 1454.1 Q1247.39 1454.1 1245.56 1457.66 Q1243.76 1461.2 1243.76 1468.33 Q1243.76 1475.44 1245.56 1479.01 Q1247.39 1482.55 1251 1482.55 Q1254.64 1482.55 1256.44 1479.01 Q1258.27 1475.44 1258.27 1468.33 Q1258.27 1461.2 1256.44 1457.66 Q1254.64 1454.1 1251 1454.1 M1251 1450.39 Q1256.81 1450.39 1259.87 1455 Q1262.95 1459.58 1262.95 1468.33 Q1262.95 1477.06 1259.87 1481.67 Q1256.81 1486.25 1251 1486.25 Q1245.19 1486.25 1242.11 1481.67 Q1239.06 1477.06 1239.06 1468.33 Q1239.06 1459.58 1242.11 1455 Q1245.19 1450.39 1251 1450.39 Z" fill="#000000" fill-rule="nonzero" fill-opacity="1" /><path clip-path="url(#clip940)" d="M1737.02 1451.02 L1759.24 1451.02 L1759.24 1453.01 L1746.7 1485.58 L1741.81 1485.58 L1753.62 1454.96 L1737.02 1454.96 L1737.02 1451.02 Z" fill="#000000" fill-rule="nonzero" fill-opacity="1" /><path clip-path="url(#clip940)" d="M1768.41 1451.02 L1786.77 1451.02 L1786.77 1454.96 L1772.69 1454.96 L1772.69 1463.43 Q1773.71 1463.08 1774.73 1462.92 Q1775.75 1462.73 1776.77 1462.73 Q1782.55 1462.73 1785.93 1465.9 Q1789.31 1469.08 1789.31 1474.49 Q1789.31 1480.07 1785.84 1483.17 Q1782.37 1486.25 1776.05 1486.25 Q1773.87 1486.25 1771.61 1485.88 Q1769.36 1485.51 1766.95 1484.77 L1766.95 1480.07 Q1769.04 1481.2 1771.26 1481.76 Q1773.48 1482.32 1775.96 1482.32 Q1779.96 1482.32 1782.3 1480.21 Q1784.64 1478.1 1784.64 1474.49 Q1784.64 1470.88 1782.3 1468.77 Q1779.96 1466.67 1775.96 1466.67 Q1774.08 1466.67 1772.21 1467.08 Q1770.36 1467.5 1768.41 1468.38 L1768.41 1451.02 Z" fill="#000000" fill-rule="nonzero" fill-opacity="1" /><path clip-path="url(#clip940)" d="M2249.76 1481.64 L2257.4 1481.64 L2257.4 1455.28 L2249.09 1456.95 L2249.09 1452.69 L2257.35 1451.02 L2262.03 1451.02 L2262.03 1481.64 L2269.66 1481.64 L2269.66 1485.58 L2249.76 1485.58 L2249.76 1481.64 Z" fill="#000000" fill-rule="nonzero" fill-opacity="1" /><path clip-path="url(#clip940)" d="M2289.11 1454.1 Q2285.5 1454.1 2283.67 1457.66 Q2281.86 1461.2 2281.86 1468.33 Q2281.86 1475.44 2283.67 1479.01 Q2285.5 1482.55 2289.11 1482.55 Q2292.74 1482.55 2294.55 1479.01 Q2296.38 1475.44 2296.38 1468.33 Q2296.38 1461.2 2294.55 1457.66 Q2292.74 1454.1 2289.11 1454.1 M2289.11 1450.39 Q2294.92 1450.39 2297.97 1455 Q2301.05 1459.58 2301.05 1468.33 Q2301.05 1477.06 2297.97 1481.67 Q2294.92 1486.25 2289.11 1486.25 Q2283.3 1486.25 2280.22 1481.67 Q2277.16 1477.06 2277.16 1468.33 Q2277.16 1459.58 2280.22 1455 Q2283.3 1450.39 2289.11 1450.39 Z" fill="#000000" fill-rule="nonzero" fill-opacity="1" /><path clip-path="url(#clip940)" d="M2319.27 1454.1 Q2315.66 1454.1 2313.83 1457.66 Q2312.03 1461.2 2312.03 1468.33 Q2312.03 1475.44 2313.83 1479.01 Q2315.66 1482.55 2319.27 1482.55 Q2322.9 1482.55 2324.71 1479.01 Q2326.54 1475.44 2326.54 1468.33 Q2326.54 1461.2 2324.71 1457.66 Q2322.9 1454.1 2319.27 1454.1 M2319.27 1450.39 Q2325.08 1450.39 2328.14 1455 Q2331.22 1459.58 2331.22 1468.33 Q2331.22 1477.06 2328.14 1481.67 Q2325.08 1486.25 2319.27 1486.25 Q2313.46 1486.25 2310.38 1481.67 Q2307.33 1477.06 2307.33 1468.33 Q2307.33 1459.58 2310.38 1455 Q2313.46 1450.39 2319.27 1450.39 Z" fill="#000000" fill-rule="nonzero" fill-opacity="1" /><path clip-path="url(#clip940)" d="M1166.92 1548.76 L1166.92 1551.62 L1139.99 1551.62 Q1140.37 1557.67 1143.62 1560.85 Q1146.9 1564 1152.72 1564 Q1156.09 1564 1159.25 1563.17 Q1162.43 1562.35 1165.55 1560.69 L1165.55 1566.23 Q1162.4 1567.57 1159.09 1568.27 Q1155.78 1568.97 1152.37 1568.97 Q1143.84 1568.97 1138.84 1564 Q1133.88 1559.04 1133.88 1550.57 Q1133.88 1541.82 1138.59 1536.69 Q1143.33 1531.54 1151.35 1531.54 Q1158.54 1531.54 1162.71 1536.18 Q1166.92 1540.8 1166.92 1548.76 M1161.06 1547.04 Q1161 1542.23 1158.35 1539.37 Q1155.74 1536.5 1151.42 1536.5 Q1146.51 1536.5 1143.55 1539.27 Q1140.63 1542.04 1140.18 1547.07 L1161.06 1547.04 Z" fill="#000000" fill-rule="nonzero" fill-opacity="1" /><path clip-path="url(#clip940)" d="M1182.19 1562.7 L1182.19 1581.6 L1176.31 1581.6 L1176.31 1532.4 L1182.19 1532.4 L1182.19 1537.81 Q1184.04 1534.62 1186.84 1533.1 Q1189.67 1531.54 1193.59 1531.54 Q1200.08 1531.54 1204.12 1536.69 Q1208.2 1541.85 1208.2 1550.25 Q1208.2 1558.65 1204.12 1563.81 Q1200.08 1568.97 1193.59 1568.97 Q1189.67 1568.97 1186.84 1567.44 Q1184.04 1565.88 1182.19 1562.7 M1202.12 1550.25 Q1202.12 1543.79 1199.44 1540.13 Q1196.8 1536.44 1192.16 1536.44 Q1187.51 1536.44 1184.84 1540.13 Q1182.19 1543.79 1182.19 1550.25 Q1182.19 1556.71 1184.84 1560.4 Q1187.51 1564.07 1192.16 1564.07 Q1196.8 1564.07 1199.44 1560.4 Q1202.12 1556.71 1202.12 1550.25 Z" fill="#000000" fill-rule="nonzero" fill-opacity="1" /><path clip-path="url(#clip940)" d="M1231.72 1536.5 Q1227.01 1536.5 1224.27 1540.19 Q1221.53 1543.85 1221.53 1550.25 Q1221.53 1556.65 1224.24 1560.34 Q1226.98 1564 1231.72 1564 Q1236.4 1564 1239.13 1560.31 Q1241.87 1556.62 1241.87 1550.25 Q1241.87 1543.92 1239.13 1540.23 Q1236.4 1536.5 1231.72 1536.5 M1231.72 1531.54 Q1239.36 1531.54 1243.72 1536.5 Q1248.08 1541.47 1248.08 1550.25 Q1248.08 1559 1243.72 1564 Q1239.36 1568.97 1231.72 1568.97 Q1224.05 1568.97 1219.69 1564 Q1215.36 1559 1215.36 1550.25 Q1215.36 1541.47 1219.69 1536.5 Q1224.05 1531.54 1231.72 1531.54 Z" fill="#000000" fill-rule="nonzero" fill-opacity="1" /><path clip-path="url(#clip940)" d="M1283.44 1533.76 L1283.44 1539.24 Q1280.96 1537.87 1278.44 1537.2 Q1275.96 1536.5 1273.41 1536.5 Q1267.72 1536.5 1264.57 1540.13 Q1261.41 1543.73 1261.41 1550.25 Q1261.41 1556.78 1264.57 1560.4 Q1267.72 1564 1273.41 1564 Q1275.96 1564 1278.44 1563.33 Q1280.96 1562.63 1283.44 1561.26 L1283.44 1566.68 Q1280.99 1567.82 1278.35 1568.39 Q1275.74 1568.97 1272.78 1568.97 Q1264.72 1568.97 1259.98 1563.91 Q1255.24 1558.85 1255.24 1550.25 Q1255.24 1541.53 1260.01 1536.53 Q1264.82 1531.54 1273.16 1531.54 Q1275.86 1531.54 1278.44 1532.11 Q1281.02 1532.65 1283.44 1533.76 Z" fill="#000000" fill-rule="nonzero" fill-opacity="1" /><path clip-path="url(#clip940)" d="M1323.26 1546.53 L1323.26 1568.04 L1317.4 1568.04 L1317.4 1546.72 Q1317.4 1541.66 1315.43 1539.14 Q1313.45 1536.63 1309.51 1536.63 Q1304.77 1536.63 1302.03 1539.65 Q1299.29 1542.68 1299.29 1547.9 L1299.29 1568.04 L1293.4 1568.04 L1293.4 1518.52 L1299.29 1518.52 L1299.29 1537.93 Q1301.39 1534.72 1304.22 1533.13 Q1307.09 1531.54 1310.81 1531.54 Q1316.96 1531.54 1320.11 1535.36 Q1323.26 1539.14 1323.26 1546.53 Z" fill="#000000" fill-rule="nonzero" fill-opacity="1" /><path clip-path="url(#clip940)" d="M1357.66 1533.45 L1357.66 1538.98 Q1355.18 1537.71 1352.51 1537.07 Q1349.83 1536.44 1346.97 1536.44 Q1342.61 1536.44 1340.41 1537.77 Q1338.25 1539.11 1338.25 1541.79 Q1338.25 1543.82 1339.81 1545 Q1341.37 1546.15 1346.08 1547.2 L1348.08 1547.64 Q1354.32 1548.98 1356.93 1551.43 Q1359.57 1553.85 1359.57 1558.21 Q1359.57 1563.17 1355.63 1566.07 Q1351.71 1568.97 1344.84 1568.97 Q1341.97 1568.97 1338.85 1568.39 Q1335.77 1567.85 1332.33 1566.74 L1332.33 1560.69 Q1335.58 1562.38 1338.73 1563.24 Q1341.88 1564.07 1344.96 1564.07 Q1349.1 1564.07 1351.33 1562.66 Q1353.56 1561.23 1353.56 1558.65 Q1353.56 1556.27 1351.93 1554.99 Q1350.34 1553.72 1344.9 1552.54 L1342.86 1552.07 Q1337.42 1550.92 1335 1548.56 Q1332.58 1546.18 1332.58 1542.04 Q1332.58 1537.01 1336.15 1534.27 Q1339.71 1531.54 1346.27 1531.54 Q1349.52 1531.54 1352.38 1532.01 Q1355.25 1532.49 1357.66 1533.45 Z" fill="#000000" fill-rule="nonzero" fill-opacity="1" /><polyline clip-path="url(#clip940)" style="stroke:#000000; stroke-linecap:round; stroke-linejoin:round; stroke-width:4; stroke-opacity:1; fill:none" points="140.696,1423.18 140.696,47.2441 "/>
<polyline clip-path="url(#clip940)" style="stroke:#000000; stroke-linecap:round; stroke-linejoin:round; stroke-width:4; stroke-opacity:1; fill:none" points="140.696,1220.79 159.593,1220.79 "/>
<polyline clip-path="url(#clip940)" style="stroke:#000000; stroke-linecap:round; stroke-linejoin:round; stroke-width:4; stroke-opacity:1; fill:none" points="140.696,872.7 159.593,872.7 "/>
<polyline clip-path="url(#clip940)" style="stroke:#000000; stroke-linecap:round; stroke-linejoin:round; stroke-width:4; stroke-opacity:1; fill:none" points="140.696,524.611 159.593,524.611 "/>
<polyline clip-path="url(#clip940)" style="stroke:#000000; stroke-linecap:round; stroke-linejoin:round; stroke-width:4; stroke-opacity:1; fill:none" points="140.696,176.522 159.593,176.522 "/>
<path clip-path="url(#clip940)" d="M83.7929 1203.51 L102.149 1203.51 L102.149 1207.45 L88.0753 1207.45 L88.0753 1215.92 Q89.0938 1215.57 90.1123 1215.41 Q91.1308 1215.22 92.1493 1215.22 Q97.9363 1215.22 101.316 1218.39 Q104.696 1221.57 104.696 1226.98 Q104.696 1232.56 101.223 1235.66 Q97.7511 1238.74 91.4317 1238.74 Q89.2558 1238.74 86.9873 1238.37 Q84.7419 1238 82.3346 1237.26 L82.3346 1232.56 Q84.4179 1233.69 86.6401 1234.25 Q88.8623 1234.81 91.3391 1234.81 Q95.3437 1234.81 97.6817 1232.7 Q100.02 1230.59 100.02 1226.98 Q100.02 1223.37 97.6817 1221.26 Q95.3437 1219.16 91.3391 1219.16 Q89.4641 1219.16 87.5892 1219.57 Q85.7373 1219.99 83.7929 1220.87 L83.7929 1203.51 Z" fill="#000000" fill-rule="nonzero" fill-opacity="1" /><path clip-path="url(#clip940)" d="M53.3995 886.045 L61.0384 886.045 L61.0384 859.68 L52.7282 861.346 L52.7282 857.087 L60.9921 855.42 L65.668 855.42 L65.668 886.045 L73.3068 886.045 L73.3068 889.98 L53.3995 889.98 L53.3995 886.045 Z" fill="#000000" fill-rule="nonzero" fill-opacity="1" /><path clip-path="url(#clip940)" d="M92.7512 858.499 Q89.1401 858.499 87.3114 862.064 Q85.5058 865.606 85.5058 872.735 Q85.5058 879.842 87.3114 883.406 Q89.1401 886.948 92.7512 886.948 Q96.3854 886.948 98.1909 883.406 Q100.02 879.842 100.02 872.735 Q100.02 865.606 98.1909 862.064 Q96.3854 858.499 92.7512 858.499 M92.7512 854.795 Q98.5613 854.795 101.617 859.402 Q104.696 863.985 104.696 872.735 Q104.696 881.462 101.617 886.068 Q98.5613 890.652 92.7512 890.652 Q86.941 890.652 83.8623 886.068 Q80.8068 881.462 80.8068 872.735 Q80.8068 863.985 83.8623 859.402 Q86.941 854.795 92.7512 854.795 Z" fill="#000000" fill-rule="nonzero" fill-opacity="1" /><path clip-path="url(#clip940)" d="M54.3949 537.956 L62.0337 537.956 L62.0337 511.59 L53.7236 513.257 L53.7236 508.998 L61.9874 507.331 L66.6633 507.331 L66.6633 537.956 L74.3022 537.956 L74.3022 541.891 L54.3949 541.891 L54.3949 537.956 Z" fill="#000000" fill-rule="nonzero" fill-opacity="1" /><path clip-path="url(#clip940)" d="M83.7929 507.331 L102.149 507.331 L102.149 511.266 L88.0753 511.266 L88.0753 519.738 Q89.0938 519.391 90.1123 519.229 Q91.1308 519.044 92.1493 519.044 Q97.9363 519.044 101.316 522.215 Q104.696 525.386 104.696 530.803 Q104.696 536.382 101.223 539.484 Q97.7511 542.562 91.4317 542.562 Q89.2558 542.562 86.9873 542.192 Q84.7419 541.822 82.3346 541.081 L82.3346 536.382 Q84.4179 537.516 86.6401 538.072 Q88.8623 538.627 91.3391 538.627 Q95.3437 538.627 97.6817 536.521 Q100.02 534.414 100.02 530.803 Q100.02 527.192 97.6817 525.086 Q95.3437 522.979 91.3391 522.979 Q89.4641 522.979 87.5892 523.396 Q85.7373 523.812 83.7929 524.692 L83.7929 507.331 Z" fill="#000000" fill-rule="nonzero" fill-opacity="1" /><path clip-path="url(#clip940)" d="M56.6171 189.866 L72.9365 189.866 L72.9365 193.802 L50.9921 193.802 L50.9921 189.866 Q53.6541 187.112 58.2375 182.482 Q62.8439 177.829 64.0245 176.487 Q66.2698 173.964 67.1494 172.228 Q68.0522 170.468 68.0522 168.779 Q68.0522 166.024 66.1078 164.288 Q64.1865 162.552 61.0847 162.552 Q58.8856 162.552 56.4319 163.316 Q54.0014 164.08 51.2236 165.63 L51.2236 160.908 Q54.0477 159.774 56.5014 159.195 Q58.955 158.617 60.9921 158.617 Q66.3624 158.617 69.5568 161.302 Q72.7513 163.987 72.7513 168.478 Q72.7513 170.607 71.9411 172.529 Q71.1541 174.427 69.0476 177.019 Q68.4689 177.691 65.367 180.908 Q62.2652 184.103 56.6171 189.866 Z" fill="#000000" fill-rule="nonzero" fill-opacity="1" /><path clip-path="url(#clip940)" d="M92.7512 162.32 Q89.1401 162.32 87.3114 165.885 Q85.5058 169.427 85.5058 176.556 Q85.5058 183.663 87.3114 187.228 Q89.1401 190.769 92.7512 190.769 Q96.3854 190.769 98.1909 187.228 Q100.02 183.663 100.02 176.556 Q100.02 169.427 98.1909 165.885 Q96.3854 162.32 92.7512 162.32 M92.7512 158.617 Q98.5613 158.617 101.617 163.223 Q104.696 167.806 104.696 176.556 Q104.696 185.283 101.617 189.89 Q98.5613 194.473 92.7512 194.473 Q86.941 194.473 83.8623 189.89 Q80.8068 185.283 80.8068 176.556 Q80.8068 167.806 83.8623 163.223 Q86.941 158.617 92.7512 158.617 Z" fill="#000000" fill-rule="nonzero" fill-opacity="1" /><polyline clip-path="url(#clip942)" style="stroke:#009af9; stroke-linecap:round; stroke-linejoin:round; stroke-width:4; stroke-opacity:1; fill:none" points="203.301,92.6997 224.38,224.997 245.46,300.516 266.539,449.632 287.618,620.767 308.697,717.837 329.777,788.959 350.856,841.89 371.935,892.425 393.015,927.726 414.094,959.412 435.173,986.479 456.252,1013.59 477.332,1040.31 498.411,1060.65 519.49,1083.79 540.57,1105.43 561.649,1123.03 582.728,1140 603.807,1155.83 624.887,1166.18 645.966,1182.7 667.045,1193.04 688.125,1202.72 709.204,1215.14 730.283,1225.09 751.362,1235.63 772.442,1242.97 793.521,1251.98 814.6,1258.25 835.68,1266.83 856.759,1272.13 877.838,1279.53 898.917,1283.85 919.997,1289.97 941.076,1295 962.155,1298.01 983.235,1302.52 1004.31,1307.61 1025.39,1311.12 1046.47,1315.46 1067.55,1317.59 1088.63,1322.17 1109.71,1325.27 1130.79,1327.42 1151.87,1328.37 1172.95,1332.28 1194.03,1335.13 1215.11,1337.37 1236.19,1339.8 1257.27,1341.64 1278.34,1342.46 1299.42,1345.44 1320.5,1346.71 1341.58,1347.93 1362.66,1350.59 1383.74,1352.14 1404.82,1353.62 1425.9,1354.69 1446.98,1355.48 1468.06,1356.75 1489.14,1358.81 1510.22,1360.41 1531.3,1361.51 1552.38,1361.91 1573.45,1362.89 1594.53,1362.72 1615.61,1365.78 1636.69,1365.72 1657.77,1366.06 1678.85,1367.3 1699.93,1368.96 1721.01,1369.76 1742.09,1369.75 1763.17,1371.31 1784.25,1370.75 1805.33,1372.45 1826.41,1373.45 1847.49,1373.61 1868.56,1373.59 1889.64,1374.62 1910.72,1375.35 1931.8,1375.65 1952.88,1377.82 1973.96,1376.73 1995.04,1378.29 2016.12,1378.31 2037.2,1378.87 2058.28,1378.96 2079.36,1379.25 2100.44,1379.8 2121.52,1381.32 2142.6,1381.88 2163.67,1381.74 2184.75,1382.32 2205.83,1382.74 2226.91,1383.01 2247.99,1383.64 2269.07,1384.2 2290.15,1384.24 "/>
<polyline clip-path="url(#clip942)" style="stroke:#e26f46; stroke-linecap:round; stroke-linejoin:round; stroke-width:4; stroke-opacity:1; fill:none" points="203.301,86.1857 224.38,265.198 245.46,386.753 266.539,610.634 287.618,686.533 308.697,747.313 329.777,821.411 350.856,822.63 371.935,865.806 393.015,896.757 414.094,940.297 435.173,962.552 456.252,965.903 477.332,988.425 498.411,985.8 519.49,1001.41 540.57,1021.7 561.649,1048.14 582.728,1057.46 603.807,1048.44 624.887,1060.7 645.966,1074.64 667.045,1070.74 688.125,1083.94 709.204,1072.56 730.283,1074.19 751.362,1084.49 772.442,1094.77 793.521,1087.44 814.6,1091.28 835.68,1096.78 856.759,1091.74 877.838,1090.65 898.917,1076.53 919.997,1070.1 941.076,1075.99 962.155,1076.89 983.235,1066.94 1004.31,1054.5 1025.39,1063.33 1046.47,1064.32 1067.55,1055.87 1088.63,1044.5 1109.71,1051.89 1130.79,1054.25 1151.87,1052.32 1172.95,1055.39 1194.03,1041.62 1215.11,1026.04 1236.19,1039.52 1257.27,1008.88 1278.34,1018.01 1299.42,1026.71 1320.5,1018.46 1341.58,1017.35 1362.66,1002.8 1383.74,1001.81 1404.82,1002.23 1425.9,1002.29 1446.98,993.28 1468.06,997.288 1489.14,1003.98 1510.22,995.301 1531.3,986.437 1552.38,975.166 1573.45,962.682 1594.53,975.972 1615.61,961.547 1636.69,975.386 1657.77,962.821 1678.85,969.144 1699.93,953.679 1721.01,946.408 1742.09,945.444 1763.17,934.631 1784.25,942.459 1805.33,927.246 1826.41,923.441 1847.49,913.144 1868.56,926.485 1889.64,928.853 1910.72,927.402 1931.8,927.796 1952.88,918.355 1973.96,915.875 1995.04,893.022 2016.12,889.231 2037.2,904.528 2058.28,915.577 2079.36,903.973 2100.44,891.255 2121.52,899.081 2142.6,884.572 2163.67,891.742 2184.75,891.925 2205.83,889.898 2226.91,870.169 2247.99,886.941 2269.07,863.605 2290.15,883.843 "/>
<path clip-path="url(#clip940)" d="M1856.13 248.629 L2279.02 248.629 L2279.02 93.1086 L1856.13 93.1086  Z" fill="#ffffff" fill-rule="evenodd" fill-opacity="1"/>
<polyline clip-path="url(#clip940)" style="stroke:#000000; stroke-linecap:round; stroke-linejoin:round; stroke-width:4; stroke-opacity:1; fill:none" points="1856.13,248.629 2279.02,248.629 2279.02,93.1086 1856.13,93.1086 1856.13,248.629 "/>
<polyline clip-path="url(#clip940)" style="stroke:#009af9; stroke-linecap:round; stroke-linejoin:round; stroke-width:4; stroke-opacity:1; fill:none" points="1880.7,144.949 2028.17,144.949 "/>
<path clip-path="url(#clip940)" d="M2060.16 128.942 L2060.16 136.303 L2068.93 136.303 L2068.93 139.613 L2060.16 139.613 L2060.16 153.687 Q2060.16 156.858 2061.02 157.761 Q2061.9 158.664 2064.56 158.664 L2068.93 158.664 L2068.93 162.229 L2064.56 162.229 Q2059.63 162.229 2057.75 160.4 Q2055.88 158.548 2055.88 153.687 L2055.88 139.613 L2052.75 139.613 L2052.75 136.303 L2055.88 136.303 L2055.88 128.942 L2060.16 128.942 Z" fill="#000000" fill-rule="nonzero" fill-opacity="1" /><path clip-path="url(#clip940)" d="M2089.56 140.284 Q2088.84 139.868 2087.98 139.682 Q2087.15 139.474 2086.13 139.474 Q2082.52 139.474 2080.58 141.835 Q2078.66 144.173 2078.66 148.571 L2078.66 162.229 L2074.37 162.229 L2074.37 136.303 L2078.66 136.303 L2078.66 140.331 Q2080 137.969 2082.15 136.835 Q2084.3 135.678 2087.38 135.678 Q2087.82 135.678 2088.36 135.747 Q2088.89 135.794 2089.54 135.909 L2089.56 140.284 Z" fill="#000000" fill-rule="nonzero" fill-opacity="1" /><path clip-path="url(#clip940)" d="M2105.81 149.196 Q2100.65 149.196 2098.66 150.377 Q2096.67 151.557 2096.67 154.405 Q2096.67 156.673 2098.15 158.016 Q2099.65 159.335 2102.22 159.335 Q2105.76 159.335 2107.89 156.835 Q2110.04 154.312 2110.04 150.145 L2110.04 149.196 L2105.81 149.196 M2114.3 147.437 L2114.3 162.229 L2110.04 162.229 L2110.04 158.293 Q2108.59 160.655 2106.41 161.789 Q2104.23 162.9 2101.09 162.9 Q2097.1 162.9 2094.74 160.678 Q2092.41 158.432 2092.41 154.682 Q2092.41 150.307 2095.32 148.085 Q2098.26 145.863 2104.07 145.863 L2110.04 145.863 L2110.04 145.446 Q2110.04 142.507 2108.1 140.909 Q2106.18 139.289 2102.68 139.289 Q2100.46 139.289 2098.35 139.821 Q2096.25 140.354 2094.3 141.419 L2094.3 137.483 Q2096.64 136.581 2098.84 136.141 Q2101.04 135.678 2103.12 135.678 Q2108.75 135.678 2111.53 138.594 Q2114.3 141.511 2114.3 147.437 Z" fill="#000000" fill-rule="nonzero" fill-opacity="1" /><path clip-path="url(#clip940)" d="M2123.08 136.303 L2127.34 136.303 L2127.34 162.229 L2123.08 162.229 L2123.08 136.303 M2123.08 126.21 L2127.34 126.21 L2127.34 131.604 L2123.08 131.604 L2123.08 126.21 Z" fill="#000000" fill-rule="nonzero" fill-opacity="1" /><path clip-path="url(#clip940)" d="M2157.8 146.581 L2157.8 162.229 L2153.54 162.229 L2153.54 146.719 Q2153.54 143.039 2152.1 141.21 Q2150.67 139.382 2147.8 139.382 Q2144.35 139.382 2142.36 141.581 Q2140.37 143.78 2140.37 147.576 L2140.37 162.229 L2136.09 162.229 L2136.09 136.303 L2140.37 136.303 L2140.37 140.331 Q2141.9 137.993 2143.96 136.835 Q2146.04 135.678 2148.75 135.678 Q2153.22 135.678 2155.51 138.456 Q2157.8 141.21 2157.8 146.581 Z" fill="#000000" fill-rule="nonzero" fill-opacity="1" /><path clip-path="url(#clip940)" d="M2185.99 170.099 L2185.99 173.409 L2161.36 173.409 L2161.36 170.099 L2185.99 170.099 Z" fill="#000000" fill-rule="nonzero" fill-opacity="1" /><path clip-path="url(#clip940)" d="M2194.12 158.34 L2194.12 172.09 L2189.84 172.09 L2189.84 136.303 L2194.12 136.303 L2194.12 140.238 Q2195.46 137.923 2197.5 136.812 Q2199.56 135.678 2202.41 135.678 Q2207.13 135.678 2210.07 139.428 Q2213.03 143.178 2213.03 149.289 Q2213.03 155.4 2210.07 159.15 Q2207.13 162.9 2202.41 162.9 Q2199.56 162.9 2197.5 161.789 Q2195.46 160.655 2194.12 158.34 M2208.61 149.289 Q2208.61 144.59 2206.66 141.928 Q2204.74 139.243 2201.36 139.243 Q2197.98 139.243 2196.04 141.928 Q2194.12 144.59 2194.12 149.289 Q2194.12 153.988 2196.04 156.673 Q2197.98 159.335 2201.36 159.335 Q2204.74 159.335 2206.66 156.673 Q2208.61 153.988 2208.61 149.289 Z" fill="#000000" fill-rule="nonzero" fill-opacity="1" /><path clip-path="url(#clip940)" d="M2224.21 158.34 L2224.21 172.09 L2219.93 172.09 L2219.93 136.303 L2224.21 136.303 L2224.21 140.238 Q2225.55 137.923 2227.59 136.812 Q2229.65 135.678 2232.5 135.678 Q2237.22 135.678 2240.16 139.428 Q2243.12 143.178 2243.12 149.289 Q2243.12 155.4 2240.16 159.15 Q2237.22 162.9 2232.5 162.9 Q2229.65 162.9 2227.59 161.789 Q2225.55 160.655 2224.21 158.34 M2238.7 149.289 Q2238.7 144.59 2236.76 141.928 Q2234.84 139.243 2231.46 139.243 Q2228.08 139.243 2226.13 141.928 Q2224.21 144.59 2224.21 149.289 Q2224.21 153.988 2226.13 156.673 Q2228.08 159.335 2231.46 159.335 Q2234.84 159.335 2236.76 156.673 Q2238.7 153.988 2238.7 149.289 Z" fill="#000000" fill-rule="nonzero" fill-opacity="1" /><path clip-path="url(#clip940)" d="M2250.18 126.21 L2254.44 126.21 L2254.44 162.229 L2250.18 162.229 L2250.18 126.21 Z" fill="#000000" fill-rule="nonzero" fill-opacity="1" /><polyline clip-path="url(#clip940)" style="stroke:#e26f46; stroke-linecap:round; stroke-linejoin:round; stroke-width:4; stroke-opacity:1; fill:none" points="1880.7,196.789 2028.17,196.789 "/>
<path clip-path="url(#clip940)" d="M2052.75 188.143 L2057.27 188.143 L2065.37 209.902 L2073.47 188.143 L2077.98 188.143 L2068.26 214.069 L2062.48 214.069 L2052.75 188.143 Z" fill="#000000" fill-rule="nonzero" fill-opacity="1" /><path clip-path="url(#clip940)" d="M2095.65 201.036 Q2090.48 201.036 2088.49 202.217 Q2086.5 203.397 2086.5 206.245 Q2086.5 208.513 2087.98 209.856 Q2089.49 211.175 2092.06 211.175 Q2095.6 211.175 2097.73 208.675 Q2099.88 206.152 2099.88 201.985 L2099.88 201.036 L2095.65 201.036 M2104.14 199.277 L2104.14 214.069 L2099.88 214.069 L2099.88 210.133 Q2098.42 212.495 2096.25 213.629 Q2094.07 214.74 2090.92 214.74 Q2086.94 214.74 2084.58 212.518 Q2082.24 210.272 2082.24 206.522 Q2082.24 202.147 2085.16 199.925 Q2088.1 197.703 2093.91 197.703 L2099.88 197.703 L2099.88 197.286 Q2099.88 194.347 2097.94 192.749 Q2096.02 191.129 2092.52 191.129 Q2090.3 191.129 2088.19 191.661 Q2086.09 192.194 2084.14 193.259 L2084.14 189.323 Q2086.48 188.421 2088.68 187.981 Q2090.88 187.518 2092.96 187.518 Q2098.59 187.518 2101.36 190.434 Q2104.14 193.351 2104.14 199.277 Z" fill="#000000" fill-rule="nonzero" fill-opacity="1" /><path clip-path="url(#clip940)" d="M2112.92 178.05 L2117.17 178.05 L2117.17 214.069 L2112.92 214.069 L2112.92 178.05 Z" fill="#000000" fill-rule="nonzero" fill-opacity="1" /><path clip-path="url(#clip940)" d="M2145.79 221.939 L2145.79 225.249 L2121.16 225.249 L2121.16 221.939 L2145.79 221.939 Z" fill="#000000" fill-rule="nonzero" fill-opacity="1" /><path clip-path="url(#clip940)" d="M2153.91 210.18 L2153.91 223.93 L2149.63 223.93 L2149.63 188.143 L2153.91 188.143 L2153.91 192.078 Q2155.25 189.763 2157.29 188.652 Q2159.35 187.518 2162.2 187.518 Q2166.92 187.518 2169.86 191.268 Q2172.82 195.018 2172.82 201.129 Q2172.82 207.24 2169.86 210.99 Q2166.92 214.74 2162.2 214.74 Q2159.35 214.74 2157.29 213.629 Q2155.25 212.495 2153.91 210.18 M2168.4 201.129 Q2168.4 196.43 2166.46 193.768 Q2164.54 191.083 2161.16 191.083 Q2157.78 191.083 2155.83 193.768 Q2153.91 196.43 2153.91 201.129 Q2153.91 205.828 2155.83 208.513 Q2157.78 211.175 2161.16 211.175 Q2164.54 211.175 2166.46 208.513 Q2168.4 205.828 2168.4 201.129 Z" fill="#000000" fill-rule="nonzero" fill-opacity="1" /><path clip-path="url(#clip940)" d="M2184 210.18 L2184 223.93 L2179.72 223.93 L2179.72 188.143 L2184 188.143 L2184 192.078 Q2185.35 189.763 2187.38 188.652 Q2189.44 187.518 2192.29 187.518 Q2197.01 187.518 2199.95 191.268 Q2202.91 195.018 2202.91 201.129 Q2202.91 207.24 2199.95 210.99 Q2197.01 214.74 2192.29 214.74 Q2189.44 214.74 2187.38 213.629 Q2185.35 212.495 2184 210.18 M2198.49 201.129 Q2198.49 196.43 2196.55 193.768 Q2194.63 191.083 2191.25 191.083 Q2187.87 191.083 2185.92 193.768 Q2184 196.43 2184 201.129 Q2184 205.828 2185.92 208.513 Q2187.87 211.175 2191.25 211.175 Q2194.63 211.175 2196.55 208.513 Q2198.49 205.828 2198.49 201.129 Z" fill="#000000" fill-rule="nonzero" fill-opacity="1" /><path clip-path="url(#clip940)" d="M2209.97 178.05 L2214.23 178.05 L2214.23 214.069 L2209.97 214.069 L2209.97 178.05 Z" fill="#000000" fill-rule="nonzero" fill-opacity="1" /></svg>
