<?xml version="1.0" encoding="utf-8"?>
<svg xmlns="http://www.w3.org/2000/svg" xmlns:xlink="http://www.w3.org/1999/xlink" width="600" height="400" viewBox="0 0 2400 1600">
<defs>
  <clipPath id="clip760">
    <rect x="0" y="0" width="2400" height="1600"/>
  </clipPath>
</defs>
<path clip-path="url(#clip760)" d="M0 1600 L2400 1600 L2400 0 L0 0  Z" fill="#ffffff" fill-rule="evenodd" fill-opacity="1"/>
<defs>
  <clipPath id="clip761">
    <rect x="480" y="0" width="1681" height="1600"/>
  </clipPath>
</defs>
<path clip-path="url(#clip760)" d="M141.853 1423.18 L2352.76 1423.18 L2352.76 47.2441 L141.853 47.2441  Z" fill="#ffffff" fill-rule="evenodd" fill-opacity="1"/>
<defs>
  <clipPath id="clip762">
    <rect x="141" y="47" width="2212" height="1377"/>
  </clipPath>
</defs>
<polyline clip-path="url(#clip762)" style="stroke:#000000; stroke-linecap:round; stroke-linejoin:round; stroke-width:2; stroke-opacity:0.1; fill:none" points="161.859,1423.18 161.859,47.2441 "/>
<polyline clip-path="url(#clip762)" style="stroke:#000000; stroke-linecap:round; stroke-linejoin:round; stroke-width:2; stroke-opacity:0.1; fill:none" points="587.524,1423.18 587.524,47.2441 "/>
<polyline clip-path="url(#clip762)" style="stroke:#000000; stroke-linecap:round; stroke-linejoin:round; stroke-width:2; stroke-opacity:0.1; fill:none" points="1013.19,1423.18 1013.19,47.2441 "/>
<polyline clip-path="url(#clip762)" style="stroke:#000000; stroke-linecap:round; stroke-linejoin:round; stroke-width:2; stroke-opacity:0.1; fill:none" points="1438.85,1423.18 1438.85,47.2441 "/>
<polyline clip-path="url(#clip762)" style="stroke:#000000; stroke-linecap:round; stroke-linejoin:round; stroke-width:2; stroke-opacity:0.1; fill:none" points="1864.52,1423.18 1864.52,47.2441 "/>
<polyline clip-path="url(#clip762)" style="stroke:#000000; stroke-linecap:round; stroke-linejoin:round; stroke-width:2; stroke-opacity:0.1; fill:none" points="2290.18,1423.18 2290.18,47.2441 "/>
<polyline clip-path="url(#clip762)" style="stroke:#000000; stroke-linecap:round; stroke-linejoin:round; stroke-width:2; stroke-opacity:0.1; fill:none" points="141.853,1260.84 2352.76,1260.84 "/>
<polyline clip-path="url(#clip762)" style="stroke:#000000; stroke-linecap:round; stroke-linejoin:round; stroke-width:2; stroke-opacity:0.1; fill:none" points="141.853,1056.42 2352.76,1056.42 "/>
<polyline clip-path="url(#clip762)" style="stroke:#000000; stroke-linecap:round; stroke-linejoin:round; stroke-width:2; stroke-opacity:0.1; fill:none" points="141.853,851.995 2352.76,851.995 "/>
<polyline clip-path="url(#clip762)" style="stroke:#000000; stroke-linecap:round; stroke-linejoin:round; stroke-width:2; stroke-opacity:0.1; fill:none" points="141.853,647.574 2352.76,647.574 "/>
<polyline clip-path="url(#clip762)" style="stroke:#000000; stroke-linecap:round; stroke-linejoin:round; stroke-width:2; stroke-opacity:0.1; fill:none" points="141.853,443.153 2352.76,443.153 "/>
<polyline clip-path="url(#clip762)" style="stroke:#000000; stroke-linecap:round; stroke-linejoin:round; stroke-width:2; stroke-opacity:0.1; fill:none" points="141.853,238.732 2352.76,238.732 "/>
<polyline clip-path="url(#clip760)" style="stroke:#000000; stroke-linecap:round; stroke-linejoin:round; stroke-width:4; stroke-opacity:1; fill:none" points="141.853,1423.18 2352.76,1423.18 "/>
<polyline clip-path="url(#clip760)" style="stroke:#000000; stroke-linecap:round; stroke-linejoin:round; stroke-width:4; stroke-opacity:1; fill:none" points="161.859,1423.18 161.859,1404.28 "/>
<polyline clip-path="url(#clip760)" style="stroke:#000000; stroke-linecap:round; stroke-linejoin:round; stroke-width:4; stroke-opacity:1; fill:none" points="587.524,1423.18 587.524,1404.28 "/>
<polyline clip-path="url(#clip760)" style="stroke:#000000; stroke-linecap:round; stroke-linejoin:round; stroke-width:4; stroke-opacity:1; fill:none" points="1013.19,1423.18 1013.19,1404.28 "/>
<polyline clip-path="url(#clip760)" style="stroke:#000000; stroke-linecap:round; stroke-linejoin:round; stroke-width:4; stroke-opacity:1; fill:none" points="1438.85,1423.18 1438.85,1404.28 "/>
<polyline clip-path="url(#clip760)" style="stroke:#000000; stroke-linecap:round; stroke-linejoin:round; stroke-width:4; stroke-opacity:1; fill:none" points="1864.52,1423.18 1864.52,1404.28 "/>
<polyline clip-path="url(#clip760)" style="stroke:#000000; stroke-linecap:round; stroke-linejoin:round; stroke-width:4; stroke-opacity:1; fill:none" points="2290.18,1423.18 2290.18,1404.28 "/>
<path clip-path="url(#clip760)" d="M161.859 1454.1 Q158.248 1454.1 156.419 1457.66 Q154.614 1461.2 154.614 1468.33 Q154.614 1475.44 156.419 1479.01 Q158.248 1482.55 161.859 1482.55 Q165.493 1482.55 167.299 1479.01 Q169.128 1475.44 169.128 1468.33 Q169.128 1461.2 167.299 1457.66 Q165.493 1454.1 161.859 1454.1 M161.859 1450.39 Q167.669 1450.39 170.725 1455 Q173.804 1459.58 173.804 1468.33 Q173.804 1477.06 170.725 1481.67 Q167.669 1486.25 161.859 1486.25 Q156.049 1486.25 152.97 1481.67 Q149.915 1477.06 149.915 1468.33 Q149.915 1459.58 152.97 1455 Q156.049 1450.39 161.859 1450.39 Z" fill="#000000" fill-rule="nonzero" fill-opacity="1" /><path clip-path="url(#clip760)" d="M562.212 1481.64 L569.85 1481.64 L569.85 1455.28 L561.54 1456.95 L561.54 1452.69 L569.804 1451.02 L574.48 1451.02 L574.48 1481.64 L582.119 1481.64 L582.119 1485.58 L562.212 1485.58 L562.212 1481.64 Z" fill="#000000" fill-rule="nonzero" fill-opacity="1" /><path clip-path="url(#clip760)" d="M601.563 1454.1 Q597.952 1454.1 596.123 1457.66 Q594.318 1461.2 594.318 1468.33 Q594.318 1475.44 596.123 1479.01 Q597.952 1482.55 601.563 1482.55 Q605.198 1482.55 607.003 1479.01 Q608.832 1475.44 608.832 1468.33 Q608.832 1461.2 607.003 1457.66 Q605.198 1454.1 601.563 1454.1 M601.563 1450.39 Q607.373 1450.39 610.429 1455 Q613.508 1459.58 613.508 1468.33 Q613.508 1477.06 610.429 1481.67 Q607.373 1486.25 601.563 1486.25 Q595.753 1486.25 592.674 1481.67 Q589.619 1477.06 589.619 1468.33 Q589.619 1459.58 592.674 1455 Q595.753 1450.39 601.563 1450.39 Z" fill="#000000" fill-rule="nonzero" fill-opacity="1" /><path clip-path="url(#clip760)" d="M991.962 1481.64 L1008.28 1481.64 L1008.28 1485.58 L986.337 1485.58 L986.337 1481.64 Q988.999 1478.89 993.582 1474.26 Q998.189 1469.61 999.369 1468.27 Q1001.61 1465.74 1002.49 1464.01 Q1003.4 1462.25 1003.4 1460.56 Q1003.4 1457.8 1001.45 1456.07 Q999.531 1454.33 996.43 1454.33 Q994.231 1454.33 991.777 1455.09 Q989.346 1455.86 986.569 1457.41 L986.569 1452.69 Q989.393 1451.55 991.846 1450.97 Q994.3 1450.39 996.337 1450.39 Q1001.71 1450.39 1004.9 1453.08 Q1008.1 1455.77 1008.1 1460.26 Q1008.1 1462.39 1007.29 1464.31 Q1006.5 1466.2 1004.39 1468.8 Q1003.81 1469.47 1000.71 1472.69 Q997.61 1475.88 991.962 1481.64 Z" fill="#000000" fill-rule="nonzero" fill-opacity="1" /><path clip-path="url(#clip760)" d="M1028.1 1454.1 Q1024.49 1454.1 1022.66 1457.66 Q1020.85 1461.2 1020.85 1468.33 Q1020.85 1475.44 1022.66 1479.01 Q1024.49 1482.55 1028.1 1482.55 Q1031.73 1482.55 1033.54 1479.01 Q1035.36 1475.44 1035.36 1468.33 Q1035.36 1461.2 1033.54 1457.66 Q1031.73 1454.1 1028.1 1454.1 M1028.1 1450.39 Q1033.91 1450.39 1036.96 1455 Q1040.04 1459.58 1040.04 1468.33 Q1040.04 1477.06 1036.96 1481.67 Q1033.91 1486.25 1028.1 1486.25 Q1022.29 1486.25 1019.21 1481.67 Q1016.15 1477.06 1016.15 1468.33 Q1016.15 1459.58 1019.21 1455 Q1022.29 1450.39 1028.1 1450.39 Z" fill="#000000" fill-rule="nonzero" fill-opacity="1" /><path clip-path="url(#clip760)" d="M1427.7 1466.95 Q1431.05 1467.66 1432.93 1469.93 Q1434.83 1472.2 1434.83 1475.53 Q1434.83 1480.65 1431.31 1483.45 Q1427.79 1486.25 1421.31 1486.25 Q1419.13 1486.25 1416.82 1485.81 Q1414.53 1485.39 1412.07 1484.54 L1412.07 1480.02 Q1414.02 1481.16 1416.33 1481.74 Q1418.65 1482.32 1421.17 1482.32 Q1425.57 1482.32 1427.86 1480.58 Q1430.17 1478.84 1430.17 1475.53 Q1430.17 1472.48 1428.02 1470.77 Q1425.89 1469.03 1422.07 1469.03 L1418.04 1469.03 L1418.04 1465.19 L1422.26 1465.19 Q1425.71 1465.19 1427.53 1463.82 Q1429.36 1462.43 1429.36 1459.84 Q1429.36 1457.18 1427.46 1455.77 Q1425.59 1454.33 1422.07 1454.33 Q1420.15 1454.33 1417.95 1454.75 Q1415.75 1455.16 1413.11 1456.04 L1413.11 1451.88 Q1415.78 1451.14 1418.09 1450.77 Q1420.43 1450.39 1422.49 1450.39 Q1427.81 1450.39 1430.91 1452.83 Q1434.02 1455.23 1434.02 1459.35 Q1434.02 1462.22 1432.37 1464.21 Q1430.73 1466.18 1427.7 1466.95 Z" fill="#000000" fill-rule="nonzero" fill-opacity="1" /><path clip-path="url(#clip760)" d="M1453.69 1454.1 Q1450.08 1454.1 1448.25 1457.66 Q1446.45 1461.2 1446.45 1468.33 Q1446.45 1475.44 1448.25 1479.01 Q1450.08 1482.55 1453.69 1482.55 Q1457.33 1482.55 1459.13 1479.01 Q1460.96 1475.44 1460.96 1468.33 Q1460.96 1461.2 1459.13 1457.66 Q1457.33 1454.1 1453.69 1454.1 M1453.69 1450.39 Q1459.5 1450.39 1462.56 1455 Q1465.64 1459.58 1465.64 1468.33 Q1465.64 1477.06 1462.56 1481.67 Q1459.5 1486.25 1453.69 1486.25 Q1447.88 1486.25 1444.8 1481.67 Q1441.75 1477.06 1441.75 1468.33 Q1441.75 1459.58 1444.8 1455 Q1447.88 1450.39 1453.69 1450.39 Z" fill="#000000" fill-rule="nonzero" fill-opacity="1" /><path clip-path="url(#clip760)" d="M1852.69 1455.09 L1840.88 1473.54 L1852.69 1473.54 L1852.69 1455.09 M1851.46 1451.02 L1857.34 1451.02 L1857.34 1473.54 L1862.27 1473.54 L1862.27 1477.43 L1857.34 1477.43 L1857.34 1485.58 L1852.69 1485.58 L1852.69 1477.43 L1837.09 1477.43 L1837.09 1472.92 L1851.46 1451.02 Z" fill="#000000" fill-rule="nonzero" fill-opacity="1" /><path clip-path="url(#clip760)" d="M1880 1454.1 Q1876.39 1454.1 1874.56 1457.66 Q1872.76 1461.2 1872.76 1468.33 Q1872.76 1475.44 1874.56 1479.01 Q1876.39 1482.55 1880 1482.55 Q1883.64 1482.55 1885.44 1479.01 Q1887.27 1475.44 1887.27 1468.33 Q1887.27 1461.2 1885.44 1457.66 Q1883.64 1454.1 1880 1454.1 M1880 1450.39 Q1885.81 1450.39 1888.87 1455 Q1891.95 1459.58 1891.95 1468.33 Q1891.95 1477.06 1888.87 1481.67 Q1885.81 1486.25 1880 1486.25 Q1874.19 1486.25 1871.12 1481.67 Q1868.06 1477.06 1868.06 1468.33 Q1868.06 1459.58 1871.12 1455 Q1874.19 1450.39 1880 1450.39 Z" fill="#000000" fill-rule="nonzero" fill-opacity="1" /><path clip-path="url(#clip760)" d="M2264.88 1451.02 L2283.24 1451.02 L2283.24 1454.96 L2269.16 1454.96 L2269.16 1463.43 Q2270.18 1463.08 2271.2 1462.92 Q2272.22 1462.73 2273.24 1462.73 Q2279.03 1462.73 2282.41 1465.9 Q2285.79 1469.08 2285.79 1474.49 Q2285.79 1480.07 2282.31 1483.17 Q2278.84 1486.25 2272.52 1486.25 Q2270.35 1486.25 2268.08 1485.88 Q2265.83 1485.51 2263.42 1484.77 L2263.42 1480.07 Q2265.51 1481.2 2267.73 1481.76 Q2269.95 1482.32 2272.43 1482.32 Q2276.43 1482.32 2278.77 1480.21 Q2281.11 1478.1 2281.11 1474.49 Q2281.11 1470.88 2278.77 1468.77 Q2276.43 1466.67 2272.43 1466.67 Q2270.55 1466.67 2268.68 1467.08 Q2266.83 1467.5 2264.88 1468.38 L2264.88 1451.02 Z" fill="#000000" fill-rule="nonzero" fill-opacity="1" /><path clip-path="url(#clip760)" d="M2305 1454.1 Q2301.39 1454.1 2299.56 1457.66 Q2297.75 1461.2 2297.75 1468.33 Q2297.75 1475.44 2299.56 1479.01 Q2301.39 1482.55 2305 1482.55 Q2308.63 1482.55 2310.44 1479.01 Q2312.27 1475.44 2312.27 1468.33 Q2312.27 1461.2 2310.44 1457.66 Q2308.63 1454.1 2305 1454.1 M2305 1450.39 Q2310.81 1450.39 2313.86 1455 Q2316.94 1459.58 2316.94 1468.33 Q2316.94 1477.06 2313.86 1481.67 Q2310.81 1486.25 2305 1486.25 Q2299.19 1486.25 2296.11 1481.67 Q2293.05 1477.06 2293.05 1468.33 Q2293.05 1459.58 2296.11 1455 Q2299.19 1450.39 2305 1450.39 Z" fill="#000000" fill-rule="nonzero" fill-opacity="1" /><path clip-path="url(#clip760)" d="M1167.49 1548.76 L1167.49 1551.62 L1140.57 1551.62 Q1140.95 1557.67 1144.2 1560.85 Q1147.47 1564 1153.3 1564 Q1156.67 1564 1159.82 1563.17 Q1163.01 1562.35 1166.13 1560.69 L1166.13 1566.23 Q1162.97 1567.57 1159.66 1568.27 Q1156.35 1568.97 1152.95 1568.97 Q1144.42 1568.97 1139.42 1564 Q1134.46 1559.04 1134.46 1550.57 Q1134.46 1541.82 1139.17 1536.69 Q1143.91 1531.54 1151.93 1531.54 Q1159.12 1531.54 1163.29 1536.18 Q1167.49 1540.8 1167.49 1548.76 M1161.64 1547.04 Q1161.57 1542.23 1158.93 1539.37 Q1156.32 1536.5 1151.99 1536.5 Q1147.09 1536.5 1144.13 1539.27 Q1141.2 1542.04 1140.76 1547.07 L1161.64 1547.04 Z" fill="#000000" fill-rule="nonzero" fill-opacity="1" /><path clip-path="url(#clip760)" d="M1182.77 1562.7 L1182.77 1581.6 L1176.88 1581.6 L1176.88 1532.4 L1182.77 1532.4 L1182.77 1537.81 Q1184.62 1534.62 1187.42 1533.1 Q1190.25 1531.54 1194.17 1531.54 Q1200.66 1531.54 1204.7 1536.69 Q1208.78 1541.85 1208.78 1550.25 Q1208.78 1558.65 1204.7 1563.81 Q1200.66 1568.97 1194.17 1568.97 Q1190.25 1568.97 1187.42 1567.44 Q1184.62 1565.88 1182.77 1562.7 M1202.7 1550.25 Q1202.7 1543.79 1200.02 1540.13 Q1197.38 1536.44 1192.73 1536.44 Q1188.09 1536.44 1185.41 1540.13 Q1182.77 1543.79 1182.77 1550.25 Q1182.77 1556.71 1185.41 1560.4 Q1188.09 1564.07 1192.73 1564.07 Q1197.38 1564.07 1200.02 1560.4 Q1202.7 1556.71 1202.7 1550.25 Z" fill="#000000" fill-rule="nonzero" fill-opacity="1" /><path clip-path="url(#clip760)" d="M1232.3 1536.5 Q1227.59 1536.5 1224.85 1540.19 Q1222.11 1543.85 1222.11 1550.25 Q1222.11 1556.65 1224.82 1560.34 Q1227.55 1564 1232.3 1564 Q1236.98 1564 1239.71 1560.31 Q1242.45 1556.62 1242.45 1550.25 Q1242.45 1543.92 1239.71 1540.23 Q1236.98 1536.5 1232.3 1536.5 M1232.3 1531.54 Q1239.94 1531.54 1244.3 1536.5 Q1248.66 1541.47 1248.66 1550.25 Q1248.66 1559 1244.3 1564 Q1239.94 1568.97 1232.3 1568.97 Q1224.63 1568.97 1220.27 1564 Q1215.94 1559 1215.94 1550.25 Q1215.94 1541.47 1220.27 1536.5 Q1224.63 1531.54 1232.3 1531.54 Z" fill="#000000" fill-rule="nonzero" fill-opacity="1" /><path clip-path="url(#clip760)" d="M1284.02 1533.76 L1284.02 1539.24 Q1281.54 1537.87 1279.02 1537.2 Q1276.54 1536.5 1273.99 1536.5 Q1268.3 1536.5 1265.14 1540.13 Q1261.99 1543.73 1261.99 1550.25 Q1261.99 1556.78 1265.14 1560.4 Q1268.3 1564 1273.99 1564 Q1276.54 1564 1279.02 1563.33 Q1281.54 1562.63 1284.02 1561.26 L1284.02 1566.68 Q1281.57 1567.82 1278.93 1568.39 Q1276.32 1568.97 1273.36 1568.97 Q1265.3 1568.97 1260.56 1563.91 Q1255.82 1558.85 1255.82 1550.25 Q1255.82 1541.53 1260.59 1536.53 Q1265.4 1531.54 1273.74 1531.54 Q1276.44 1531.54 1279.02 1532.11 Q1281.6 1532.65 1284.02 1533.76 Z" fill="#000000" fill-rule="nonzero" fill-opacity="1" /><path clip-path="url(#clip760)" d="M1323.84 1546.53 L1323.84 1568.04 L1317.98 1568.04 L1317.98 1546.72 Q1317.98 1541.66 1316.01 1539.14 Q1314.03 1536.63 1310.09 1536.63 Q1305.34 1536.63 1302.61 1539.65 Q1299.87 1542.68 1299.87 1547.9 L1299.87 1568.04 L1293.98 1568.04 L1293.98 1518.52 L1299.87 1518.52 L1299.87 1537.93 Q1301.97 1534.72 1304.8 1533.13 Q1307.67 1531.54 1311.39 1531.54 Q1317.53 1531.54 1320.69 1535.36 Q1323.84 1539.14 1323.84 1546.53 Z" fill="#000000" fill-rule="nonzero" fill-opacity="1" /><path clip-path="url(#clip760)" d="M1358.24 1533.45 L1358.24 1538.98 Q1355.76 1537.71 1353.09 1537.07 Q1350.41 1536.44 1347.55 1536.44 Q1343.19 1536.44 1340.99 1537.77 Q1338.83 1539.11 1338.83 1541.79 Q1338.83 1543.82 1340.39 1545 Q1341.95 1546.15 1346.66 1547.2 L1348.66 1547.64 Q1354.9 1548.98 1357.51 1551.43 Q1360.15 1553.85 1360.15 1558.21 Q1360.15 1563.17 1356.21 1566.07 Q1352.29 1568.97 1345.42 1568.97 Q1342.55 1568.97 1339.43 1568.39 Q1336.34 1567.85 1332.91 1566.74 L1332.91 1560.69 Q1336.15 1562.38 1339.3 1563.24 Q1342.46 1564.07 1345.54 1564.07 Q1349.68 1564.07 1351.91 1562.66 Q1354.14 1561.23 1354.14 1558.65 Q1354.14 1556.27 1352.51 1554.99 Q1350.92 1553.72 1345.48 1552.54 L1343.44 1552.07 Q1338 1550.92 1335.58 1548.56 Q1333.16 1546.18 1333.16 1542.04 Q1333.16 1537.01 1336.73 1534.27 Q1340.29 1531.54 1346.85 1531.54 Q1350.09 1531.54 1352.96 1532.01 Q1355.82 1532.49 1358.24 1533.45 Z" fill="#000000" fill-rule="nonzero" fill-opacity="1" /><polyline clip-path="url(#clip760)" style="stroke:#000000; stroke-linecap:round; stroke-linejoin:round; stroke-width:4; stroke-opacity:1; fill:none" points="141.853,1423.18 141.853,47.2441 "/>
<polyline clip-path="url(#clip760)" style="stroke:#000000; stroke-linecap:round; stroke-linejoin:round; stroke-width:4; stroke-opacity:1; fill:none" points="141.853,1260.84 160.751,1260.84 "/>
<polyline clip-path="url(#clip760)" style="stroke:#000000; stroke-linecap:round; stroke-linejoin:round; stroke-width:4; stroke-opacity:1; fill:none" points="141.853,1056.42 160.751,1056.42 "/>
<polyline clip-path="url(#clip760)" style="stroke:#000000; stroke-linecap:round; stroke-linejoin:round; stroke-width:4; stroke-opacity:1; fill:none" points="141.853,851.995 160.751,851.995 "/>
<polyline clip-path="url(#clip760)" style="stroke:#000000; stroke-linecap:round; stroke-linejoin:round; stroke-width:4; stroke-opacity:1; fill:none" points="141.853,647.574 160.751,647.574 "/>
<polyline clip-path="url(#clip760)" style="stroke:#000000; stroke-linecap:round; stroke-linejoin:round; stroke-width:4; stroke-opacity:1; fill:none" points="141.853,443.153 160.751,443.153 "/>
<polyline clip-path="url(#clip760)" style="stroke:#000000; stroke-linecap:round; stroke-linejoin:round; stroke-width:4; stroke-opacity:1; fill:none" points="141.853,238.732 160.751,238.732 "/>
<path clip-path="url(#clip760)" d="M54.5569 1274.18 L62.1958 1274.18 L62.1958 1247.82 L53.8856 1249.48 L53.8856 1245.22 L62.1495 1243.56 L66.8254 1243.56 L66.8254 1274.18 L74.4642 1274.18 L74.4642 1278.12 L54.5569 1278.12 L54.5569 1274.18 Z" fill="#000000" fill-rule="nonzero" fill-opacity="1" /><path clip-path="url(#clip760)" d="M93.9086 1246.64 Q90.2975 1246.64 88.4688 1250.2 Q86.6632 1253.74 86.6632 1260.87 Q86.6632 1267.98 88.4688 1271.54 Q90.2975 1275.09 93.9086 1275.09 Q97.5428 1275.09 99.3483 1271.54 Q101.177 1267.98 101.177 1260.87 Q101.177 1253.74 99.3483 1250.2 Q97.5428 1246.64 93.9086 1246.64 M93.9086 1242.93 Q99.7187 1242.93 102.774 1247.54 Q105.853 1252.12 105.853 1260.87 Q105.853 1269.6 102.774 1274.21 Q99.7187 1278.79 93.9086 1278.79 Q88.0984 1278.79 85.0197 1274.21 Q81.9642 1269.6 81.9642 1260.87 Q81.9642 1252.12 85.0197 1247.54 Q88.0984 1242.93 93.9086 1242.93 Z" fill="#000000" fill-rule="nonzero" fill-opacity="1" /><path clip-path="url(#clip760)" d="M57.7745 1069.76 L74.0939 1069.76 L74.0939 1073.7 L52.1495 1073.7 L52.1495 1069.76 Q54.8115 1067.01 59.3949 1062.38 Q64.0013 1057.72 65.1819 1056.38 Q67.4272 1053.86 68.3068 1052.12 Q69.2096 1050.36 69.2096 1048.67 Q69.2096 1045.92 67.2652 1044.18 Q65.3439 1042.45 62.2421 1042.45 Q60.043 1042.45 57.5893 1043.21 Q55.1588 1043.97 52.381 1045.53 L52.381 1040.8 Q55.2051 1039.67 57.6588 1039.09 Q60.1124 1038.51 62.1495 1038.51 Q67.5198 1038.51 70.7142 1041.2 Q73.9087 1043.88 73.9087 1048.37 Q73.9087 1050.5 73.0985 1052.42 Q72.3115 1054.32 70.205 1056.91 Q69.6263 1057.59 66.5245 1060.8 Q63.4226 1064 57.7745 1069.76 Z" fill="#000000" fill-rule="nonzero" fill-opacity="1" /><path clip-path="url(#clip760)" d="M93.9086 1042.22 Q90.2975 1042.22 88.4688 1045.78 Q86.6632 1049.32 86.6632 1056.45 Q86.6632 1063.56 88.4688 1067.12 Q90.2975 1070.66 93.9086 1070.66 Q97.5428 1070.66 99.3483 1067.12 Q101.177 1063.56 101.177 1056.45 Q101.177 1049.32 99.3483 1045.78 Q97.5428 1042.22 93.9086 1042.22 M93.9086 1038.51 Q99.7187 1038.51 102.774 1043.12 Q105.853 1047.7 105.853 1056.45 Q105.853 1065.18 102.774 1069.78 Q99.7187 1074.37 93.9086 1074.37 Q88.0984 1074.37 85.0197 1069.78 Q81.9642 1065.18 81.9642 1056.45 Q81.9642 1047.7 85.0197 1043.12 Q88.0984 1038.51 93.9086 1038.51 Z" fill="#000000" fill-rule="nonzero" fill-opacity="1" /><path clip-path="url(#clip760)" d="M67.9133 850.641 Q71.2698 851.359 73.1448 853.627 Q75.0429 855.896 75.0429 859.229 Q75.0429 864.345 71.5244 867.146 Q68.0059 869.947 61.5245 869.947 Q59.3486 869.947 57.0338 869.507 Q54.7421 869.09 52.2884 868.234 L52.2884 863.72 Q54.2328 864.854 56.5477 865.433 Q58.8625 866.011 61.3856 866.011 Q65.7837 866.011 68.0754 864.275 Q70.3902 862.539 70.3902 859.229 Q70.3902 856.173 68.2374 854.46 Q66.1078 852.724 62.2884 852.724 L58.2606 852.724 L58.2606 848.882 L62.4735 848.882 Q65.9226 848.882 67.7513 847.516 Q69.58 846.127 69.58 843.535 Q69.58 840.873 67.6819 839.461 Q65.8069 838.025 62.2884 838.025 Q60.3671 838.025 58.168 838.442 Q55.969 838.859 53.3301 839.738 L53.3301 835.572 Q55.9921 834.831 58.3069 834.461 Q60.6449 834.09 62.705 834.09 Q68.0291 834.09 71.1309 836.521 Q74.2327 838.928 74.2327 843.049 Q74.2327 845.919 72.5892 847.91 Q70.9457 849.877 67.9133 850.641 Z" fill="#000000" fill-rule="nonzero" fill-opacity="1" /><path clip-path="url(#clip760)" d="M93.9086 837.794 Q90.2975 837.794 88.4688 841.359 Q86.6632 844.9 86.6632 852.03 Q86.6632 859.136 88.4688 862.701 Q90.2975 866.243 93.9086 866.243 Q97.5428 866.243 99.3483 862.701 Q101.177 859.136 101.177 852.03 Q101.177 844.9 99.3483 841.359 Q97.5428 837.794 93.9086 837.794 M93.9086 834.09 Q99.7187 834.09 102.774 838.697 Q105.853 843.28 105.853 852.03 Q105.853 860.757 102.774 865.363 Q99.7187 869.947 93.9086 869.947 Q88.0984 869.947 85.0197 865.363 Q81.9642 860.757 81.9642 852.03 Q81.9642 843.28 85.0197 838.697 Q88.0984 834.09 93.9086 834.09 Z" fill="#000000" fill-rule="nonzero" fill-opacity="1" /><path clip-path="url(#clip760)" d="M66.5939 634.368 L54.7884 652.817 L66.5939 652.817 L66.5939 634.368 M65.367 630.294 L71.2466 630.294 L71.2466 652.817 L76.1772 652.817 L76.1772 656.706 L71.2466 656.706 L71.2466 664.854 L66.5939 664.854 L66.5939 656.706 L50.9921 656.706 L50.9921 652.192 L65.367 630.294 Z" fill="#000000" fill-rule="nonzero" fill-opacity="1" /><path clip-path="url(#clip760)" d="M93.9086 633.373 Q90.2975 633.373 88.4688 636.938 Q86.6632 640.479 86.6632 647.609 Q86.6632 654.715 88.4688 658.28 Q90.2975 661.822 93.9086 661.822 Q97.5428 661.822 99.3483 658.28 Q101.177 654.715 101.177 647.609 Q101.177 640.479 99.3483 636.938 Q97.5428 633.373 93.9086 633.373 M93.9086 629.669 Q99.7187 629.669 102.774 634.275 Q105.853 638.859 105.853 647.609 Q105.853 656.336 102.774 660.942 Q99.7187 665.525 93.9086 665.525 Q88.0984 665.525 85.0197 660.942 Q81.9642 656.336 81.9642 647.609 Q81.9642 638.859 85.0197 634.275 Q88.0984 629.669 93.9086 629.669 Z" fill="#000000" fill-rule="nonzero" fill-opacity="1" /><path clip-path="url(#clip760)" d="M53.793 425.873 L72.1494 425.873 L72.1494 429.808 L58.0754 429.808 L58.0754 438.28 Q59.0939 437.933 60.1124 437.771 Q61.131 437.586 62.1495 437.586 Q67.9365 437.586 71.3161 440.757 Q74.6957 443.928 74.6957 449.345 Q74.6957 454.924 71.2235 458.025 Q67.7513 461.104 61.4319 461.104 Q59.256 461.104 56.9875 460.734 Q54.7421 460.363 52.3347 459.623 L52.3347 454.924 Q54.418 456.058 56.6402 456.613 Q58.8625 457.169 61.3393 457.169 Q65.3439 457.169 67.6819 455.063 Q70.0198 452.956 70.0198 449.345 Q70.0198 445.734 67.6819 443.627 Q65.3439 441.521 61.3393 441.521 Q59.4643 441.521 57.5893 441.938 Q55.7375 442.354 53.793 443.234 L53.793 425.873 Z" fill="#000000" fill-rule="nonzero" fill-opacity="1" /><path clip-path="url(#clip760)" d="M93.9086 428.952 Q90.2975 428.952 88.4688 432.516 Q86.6632 436.058 86.6632 443.188 Q86.6632 450.294 88.4688 453.859 Q90.2975 457.4 93.9086 457.4 Q97.5428 457.4 99.3483 453.859 Q101.177 450.294 101.177 443.188 Q101.177 436.058 99.3483 432.516 Q97.5428 428.952 93.9086 428.952 M93.9086 425.248 Q99.7187 425.248 102.774 429.854 Q105.853 434.438 105.853 443.188 Q105.853 451.914 102.774 456.521 Q99.7187 461.104 93.9086 461.104 Q88.0984 461.104 85.0197 456.521 Q81.9642 451.914 81.9642 443.188 Q81.9642 434.438 85.0197 429.854 Q88.0984 425.248 93.9086 425.248 Z" fill="#000000" fill-rule="nonzero" fill-opacity="1" /><path clip-path="url(#clip760)" d="M64.3254 236.868 Q61.1773 236.868 59.3254 239.021 Q57.4967 241.174 57.4967 244.924 Q57.4967 248.651 59.3254 250.827 Q61.1773 252.979 64.3254 252.979 Q67.4735 252.979 69.3022 250.827 Q71.1541 248.651 71.1541 244.924 Q71.1541 241.174 69.3022 239.021 Q67.4735 236.868 64.3254 236.868 M73.6077 222.216 L73.6077 226.475 Q71.8485 225.641 70.0429 225.202 Q68.2606 224.762 66.5013 224.762 Q61.8717 224.762 59.418 227.887 Q56.9875 231.012 56.6402 237.331 Q58.006 235.317 60.0662 234.253 Q62.1263 233.165 64.6032 233.165 Q69.8115 233.165 72.8207 236.336 Q75.8531 239.484 75.8531 244.924 Q75.8531 250.248 72.705 253.465 Q69.5568 256.683 64.3254 256.683 Q58.33 256.683 55.1588 252.1 Q51.9875 247.493 51.9875 238.766 Q51.9875 230.572 55.8764 225.711 Q59.7652 220.827 66.3161 220.827 Q68.0754 220.827 69.8578 221.174 Q71.6633 221.521 73.6077 222.216 Z" fill="#000000" fill-rule="nonzero" fill-opacity="1" /><path clip-path="url(#clip760)" d="M93.9086 224.53 Q90.2975 224.53 88.4688 228.095 Q86.6632 231.637 86.6632 238.766 Q86.6632 245.873 88.4688 249.438 Q90.2975 252.979 93.9086 252.979 Q97.5428 252.979 99.3483 249.438 Q101.177 245.873 101.177 238.766 Q101.177 231.637 99.3483 228.095 Q97.5428 224.53 93.9086 224.53 M93.9086 220.827 Q99.7187 220.827 102.774 225.433 Q105.853 230.016 105.853 238.766 Q105.853 247.493 102.774 252.1 Q99.7187 256.683 93.9086 256.683 Q88.0984 256.683 85.0197 252.1 Q81.9642 247.493 81.9642 238.766 Q81.9642 230.016 85.0197 225.433 Q88.0984 220.827 93.9086 220.827 Z" fill="#000000" fill-rule="nonzero" fill-opacity="1" /><polyline clip-path="url(#clip762)" style="stroke:#009af9; stroke-linecap:round; stroke-linejoin:round; stroke-width:4; stroke-opacity:1; fill:none" points="204.426,955.374 246.992,86.1857 289.559,881.445 332.125,904.759 374.692,987.082 417.258,907.156 459.825,1116.56 502.391,1138.58 544.958,1169.23 587.524,1188.84 630.09,1209.51 672.657,1221.93 715.223,1239 757.79,1255.77 800.356,1269.42 842.923,1277.55 885.489,1289.02 928.056,1292.59 970.622,1303.73 1013.19,1308.84 1055.76,1316.18 1098.32,1321.53 1140.89,1327.51 1183.45,1330.58 1226.02,1336.21 1268.59,1340.24 1311.15,1344.42 1353.72,1347.01 1396.29,1349.74 1438.85,1353.33 1481.42,1355.18 1523.99,1358.08 1566.55,1361.68 1609.12,1364.2 1651.69,1366.65 1694.25,1368.54 1736.82,1370.14 1779.39,1370.58 1821.95,1372.18 1864.52,1374.75 1907.08,1376.12 1949.65,1376.71 1992.22,1377.37 2034.78,1379.15 2077.35,1380.48 2119.92,1380.16 2162.48,1381.06 2205.05,1382.7 2247.62,1383.24 2290.18,1384.24 "/>
<polyline clip-path="url(#clip762)" style="stroke:#e26f46; stroke-linecap:round; stroke-linejoin:round; stroke-width:4; stroke-opacity:1; fill:none" points="204.426,1078.47 246.992,1024.82 289.559,1102.96 332.125,991.459 374.692,1166.12 417.258,576.376 459.825,1206.65 502.391,1149.23 544.958,1152.85 587.524,1229.88 630.09,1250.27 672.657,1239.22 715.223,1239.73 757.79,1255.65 800.356,1256.21 842.923,1259.59 885.489,1270.4 928.056,1276.73 970.622,1276.28 1013.19,1264.56 1055.76,1286.12 1098.32,1295.48 1140.89,1291.09 1183.45,1288.43 1226.02,1294.71 1268.59,1302.29 1311.15,1293.74 1353.72,1293.84 1396.29,1301.97 1438.85,1303.47 1481.42,1302.58 1523.99,1297.27 1566.55,1298.13 1609.12,1295.24 1651.69,1293.79 1694.25,1292.52 1736.82,1300.77 1779.39,1301.22 1821.95,1298.89 1864.52,1293.47 1907.08,1283.2 1949.65,1300.3 1992.22,1302.11 2034.78,1293.66 2077.35,1294.56 2119.92,1289.15 2162.48,1293.08 2205.05,1287.95 2247.62,1298.87 2290.18,1291.05 "/>
<path clip-path="url(#clip760)" d="M1856.28 248.629 L2279.06 248.629 L2279.06 93.1086 L1856.28 93.1086  Z" fill="#ffffff" fill-rule="evenodd" fill-opacity="1"/>
<polyline clip-path="url(#clip760)" style="stroke:#000000; stroke-linecap:round; stroke-linejoin:round; stroke-width:4; stroke-opacity:1; fill:none" points="1856.28,248.629 2279.06,248.629 2279.06,93.1086 1856.28,93.1086 1856.28,248.629 "/>
<polyline clip-path="url(#clip760)" style="stroke:#009af9; stroke-linecap:round; stroke-linejoin:round; stroke-width:4; stroke-opacity:1; fill:none" points="1880.85,144.949 2028.24,144.949 "/>
<path clip-path="url(#clip760)" d="M2060.21 128.942 L2060.21 136.303 L2068.99 136.303 L2068.99 139.613 L2060.21 139.613 L2060.21 153.687 Q2060.21 156.858 2061.07 157.761 Q2061.95 158.664 2064.61 158.664 L2068.99 158.664 L2068.99 162.229 L2064.61 162.229 Q2059.68 162.229 2057.8 160.4 Q2055.93 158.548 2055.93 153.687 L2055.93 139.613 L2052.8 139.613 L2052.8 136.303 L2055.93 136.303 L2055.93 128.942 L2060.21 128.942 Z" fill="#000000" fill-rule="nonzero" fill-opacity="1" /><path clip-path="url(#clip760)" d="M2089.61 140.284 Q2088.89 139.868 2088.04 139.682 Q2087.2 139.474 2086.18 139.474 Q2082.57 139.474 2080.63 141.835 Q2078.71 144.173 2078.71 148.571 L2078.71 162.229 L2074.43 162.229 L2074.43 136.303 L2078.71 136.303 L2078.71 140.331 Q2080.05 137.969 2082.2 136.835 Q2084.36 135.678 2087.43 135.678 Q2087.87 135.678 2088.41 135.747 Q2088.94 135.794 2089.59 135.909 L2089.61 140.284 Z" fill="#000000" fill-rule="nonzero" fill-opacity="1" /><path clip-path="url(#clip760)" d="M2105.86 149.196 Q2100.7 149.196 2098.71 150.377 Q2096.72 151.557 2096.72 154.405 Q2096.72 156.673 2098.2 158.016 Q2099.7 159.335 2102.27 159.335 Q2105.81 159.335 2107.94 156.835 Q2110.1 154.312 2110.1 150.145 L2110.1 149.196 L2105.86 149.196 M2114.36 147.437 L2114.36 162.229 L2110.1 162.229 L2110.1 158.293 Q2108.64 160.655 2106.46 161.789 Q2104.29 162.9 2101.14 162.9 Q2097.16 162.9 2094.8 160.678 Q2092.46 158.432 2092.46 154.682 Q2092.46 150.307 2095.37 148.085 Q2098.31 145.863 2104.12 145.863 L2110.1 145.863 L2110.1 145.446 Q2110.1 142.507 2108.15 140.909 Q2106.23 139.289 2102.74 139.289 Q2100.51 139.289 2098.41 139.821 Q2096.3 140.354 2094.36 141.419 L2094.36 137.483 Q2096.69 136.581 2098.89 136.141 Q2101.09 135.678 2103.17 135.678 Q2108.8 135.678 2111.58 138.594 Q2114.36 141.511 2114.36 147.437 Z" fill="#000000" fill-rule="nonzero" fill-opacity="1" /><path clip-path="url(#clip760)" d="M2123.13 136.303 L2127.39 136.303 L2127.39 162.229 L2123.13 162.229 L2123.13 136.303 M2123.13 126.21 L2127.39 126.21 L2127.39 131.604 L2123.13 131.604 L2123.13 126.21 Z" fill="#000000" fill-rule="nonzero" fill-opacity="1" /><path clip-path="url(#clip760)" d="M2157.85 146.581 L2157.85 162.229 L2153.59 162.229 L2153.59 146.719 Q2153.59 143.039 2152.16 141.21 Q2150.72 139.382 2147.85 139.382 Q2144.4 139.382 2142.41 141.581 Q2140.42 143.78 2140.42 147.576 L2140.42 162.229 L2136.14 162.229 L2136.14 136.303 L2140.42 136.303 L2140.42 140.331 Q2141.95 137.993 2144.01 136.835 Q2146.09 135.678 2148.8 135.678 Q2153.27 135.678 2155.56 138.456 Q2157.85 141.21 2157.85 146.581 Z" fill="#000000" fill-rule="nonzero" fill-opacity="1" /><path clip-path="url(#clip760)" d="M2186.04 170.099 L2186.04 173.409 L2161.42 173.409 L2161.42 170.099 L2186.04 170.099 Z" fill="#000000" fill-rule="nonzero" fill-opacity="1" /><path clip-path="url(#clip760)" d="M2194.17 158.34 L2194.17 172.09 L2189.89 172.09 L2189.89 136.303 L2194.17 136.303 L2194.17 140.238 Q2195.51 137.923 2197.55 136.812 Q2199.61 135.678 2202.46 135.678 Q2207.18 135.678 2210.12 139.428 Q2213.08 143.178 2213.08 149.289 Q2213.08 155.4 2210.12 159.15 Q2207.18 162.9 2202.46 162.9 Q2199.61 162.9 2197.55 161.789 Q2195.51 160.655 2194.17 158.34 M2208.66 149.289 Q2208.66 144.59 2206.72 141.928 Q2204.79 139.243 2201.42 139.243 Q2198.04 139.243 2196.09 141.928 Q2194.17 144.59 2194.17 149.289 Q2194.17 153.988 2196.09 156.673 Q2198.04 159.335 2201.42 159.335 Q2204.79 159.335 2206.72 156.673 Q2208.66 153.988 2208.66 149.289 Z" fill="#000000" fill-rule="nonzero" fill-opacity="1" /><path clip-path="url(#clip760)" d="M2224.26 158.34 L2224.26 172.09 L2219.98 172.09 L2219.98 136.303 L2224.26 136.303 L2224.26 140.238 Q2225.6 137.923 2227.64 136.812 Q2229.7 135.678 2232.55 135.678 Q2237.27 135.678 2240.21 139.428 Q2243.17 143.178 2243.17 149.289 Q2243.17 155.4 2240.21 159.15 Q2237.27 162.9 2232.55 162.9 Q2229.7 162.9 2227.64 161.789 Q2225.6 160.655 2224.26 158.34 M2238.75 149.289 Q2238.75 144.59 2236.81 141.928 Q2234.89 139.243 2231.51 139.243 Q2228.13 139.243 2226.18 141.928 Q2224.26 144.59 2224.26 149.289 Q2224.26 153.988 2226.18 156.673 Q2228.13 159.335 2231.51 159.335 Q2234.89 159.335 2236.81 156.673 Q2238.75 153.988 2238.75 149.289 Z" fill="#000000" fill-rule="nonzero" fill-opacity="1" /><path clip-path="url(#clip760)" d="M2250.23 126.21 L2254.49 126.21 L2254.49 162.229 L2250.23 162.229 L2250.23 126.21 Z" fill="#000000" fill-rule="nonzero" fill-opacity="1" /><polyline clip-path="url(#clip760)" style="stroke:#e26f46; stroke-linecap:round; stroke-linejoin:round; stroke-width:4; stroke-opacity:1; fill:none" points="1880.85,196.789 2028.24,196.789 "/>
<path clip-path="url(#clip760)" d="M2052.8 188.143 L2057.32 188.143 L2065.42 209.902 L2073.52 188.143 L2078.04 188.143 L2068.31 214.069 L2062.53 214.069 L2052.8 188.143 Z" fill="#000000" fill-rule="nonzero" fill-opacity="1" /><path clip-path="url(#clip760)" d="M2095.7 201.036 Q2090.54 201.036 2088.55 202.217 Q2086.55 203.397 2086.55 206.245 Q2086.55 208.513 2088.04 209.856 Q2089.54 211.175 2092.11 211.175 Q2095.65 211.175 2097.78 208.675 Q2099.93 206.152 2099.93 201.985 L2099.93 201.036 L2095.7 201.036 M2104.19 199.277 L2104.19 214.069 L2099.93 214.069 L2099.93 210.133 Q2098.48 212.495 2096.3 213.629 Q2094.12 214.74 2090.98 214.74 Q2086.99 214.74 2084.63 212.518 Q2082.3 210.272 2082.3 206.522 Q2082.3 202.147 2085.21 199.925 Q2088.15 197.703 2093.96 197.703 L2099.93 197.703 L2099.93 197.286 Q2099.93 194.347 2097.99 192.749 Q2096.07 191.129 2092.57 191.129 Q2090.35 191.129 2088.24 191.661 Q2086.14 192.194 2084.19 193.259 L2084.19 189.323 Q2086.53 188.421 2088.73 187.981 Q2090.93 187.518 2093.01 187.518 Q2098.64 187.518 2101.42 190.434 Q2104.19 193.351 2104.19 199.277 Z" fill="#000000" fill-rule="nonzero" fill-opacity="1" /><path clip-path="url(#clip760)" d="M2112.97 178.05 L2117.23 178.05 L2117.23 214.069 L2112.97 214.069 L2112.97 178.05 Z" fill="#000000" fill-rule="nonzero" fill-opacity="1" /><path clip-path="url(#clip760)" d="M2145.84 221.939 L2145.84 225.249 L2121.21 225.249 L2121.21 221.939 L2145.84 221.939 Z" fill="#000000" fill-rule="nonzero" fill-opacity="1" /><path clip-path="url(#clip760)" d="M2153.96 210.18 L2153.96 223.93 L2149.68 223.93 L2149.68 188.143 L2153.96 188.143 L2153.96 192.078 Q2155.3 189.763 2157.34 188.652 Q2159.4 187.518 2162.25 187.518 Q2166.97 187.518 2169.91 191.268 Q2172.87 195.018 2172.87 201.129 Q2172.87 207.24 2169.91 210.99 Q2166.97 214.74 2162.25 214.74 Q2159.4 214.74 2157.34 213.629 Q2155.3 212.495 2153.96 210.18 M2168.45 201.129 Q2168.45 196.43 2166.51 193.768 Q2164.59 191.083 2161.21 191.083 Q2157.83 191.083 2155.88 193.768 Q2153.96 196.43 2153.96 201.129 Q2153.96 205.828 2155.88 208.513 Q2157.83 211.175 2161.21 211.175 Q2164.59 211.175 2166.51 208.513 Q2168.45 205.828 2168.45 201.129 Z" fill="#000000" fill-rule="nonzero" fill-opacity="1" /><path clip-path="url(#clip760)" d="M2184.05 210.18 L2184.05 223.93 L2179.77 223.93 L2179.77 188.143 L2184.05 188.143 L2184.05 192.078 Q2185.4 189.763 2187.43 188.652 Q2189.49 187.518 2192.34 187.518 Q2197.06 187.518 2200 191.268 Q2202.97 195.018 2202.97 201.129 Q2202.97 207.24 2200 210.99 Q2197.06 214.74 2192.34 214.74 Q2189.49 214.74 2187.43 213.629 Q2185.4 212.495 2184.05 210.18 M2198.54 201.129 Q2198.54 196.43 2196.6 193.768 Q2194.68 191.083 2191.3 191.083 Q2187.92 191.083 2185.98 193.768 Q2184.05 196.43 2184.05 201.129 Q2184.05 205.828 2185.98 208.513 Q2187.92 211.175 2191.3 211.175 Q2194.68 211.175 2196.6 208.513 Q2198.54 205.828 2198.54 201.129 Z" fill="#000000" fill-rule="nonzero" fill-opacity="1" /><path clip-path="url(#clip760)" d="M2210.03 178.05 L2214.29 178.05 L2214.29 214.069 L2210.03 214.069 L2210.03 178.05 Z" fill="#000000" fill-rule="nonzero" fill-opacity="1" /></svg>
