<?xml version="1.0" encoding="utf-8"?>
<svg xmlns="http://www.w3.org/2000/svg" xmlns:xlink="http://www.w3.org/1999/xlink" width="600" height="400" viewBox="0 0 2400 1600">
<defs>
  <clipPath id="clip140">
    <rect x="0" y="0" width="2400" height="1600"/>
  </clipPath>
</defs>
<path clip-path="url(#clip140)" d="M0 1600 L2400 1600 L2400 0 L0 0  Z" fill="#ffffff" fill-rule="evenodd" fill-opacity="1"/>
<defs>
  <clipPath id="clip141">
    <rect x="480" y="0" width="1681" height="1600"/>
  </clipPath>
</defs>
<path clip-path="url(#clip140)" d="M193.936 1486.45 L2352.76 1486.45 L2352.76 47.2441 L193.936 47.2441  Z" fill="#ffffff" fill-rule="evenodd" fill-opacity="1"/>
<defs>
  <clipPath id="clip142">
    <rect x="193" y="47" width="2160" height="1440"/>
  </clipPath>
</defs>
<polyline clip-path="url(#clip142)" style="stroke:#000000; stroke-linecap:round; stroke-linejoin:round; stroke-width:2; stroke-opacity:0.1; fill:none" points="246.855,1486.45 246.855,47.2441 "/>
<polyline clip-path="url(#clip142)" style="stroke:#000000; stroke-linecap:round; stroke-linejoin:round; stroke-width:2; stroke-opacity:0.1; fill:none" points="758.056,1486.45 758.056,47.2441 "/>
<polyline clip-path="url(#clip142)" style="stroke:#000000; stroke-linecap:round; stroke-linejoin:round; stroke-width:2; stroke-opacity:0.1; fill:none" points="1269.26,1486.45 1269.26,47.2441 "/>
<polyline clip-path="url(#clip142)" style="stroke:#000000; stroke-linecap:round; stroke-linejoin:round; stroke-width:2; stroke-opacity:0.1; fill:none" points="1780.46,1486.45 1780.46,47.2441 "/>
<polyline clip-path="url(#clip142)" style="stroke:#000000; stroke-linecap:round; stroke-linejoin:round; stroke-width:2; stroke-opacity:0.1; fill:none" points="2291.66,1486.45 2291.66,47.2441 "/>
<polyline clip-path="url(#clip142)" style="stroke:#000000; stroke-linecap:round; stroke-linejoin:round; stroke-width:2; stroke-opacity:0.1; fill:none" points="193.936,1302.76 2352.76,1302.76 "/>
<polyline clip-path="url(#clip142)" style="stroke:#000000; stroke-linecap:round; stroke-linejoin:round; stroke-width:2; stroke-opacity:0.1; fill:none" points="193.936,1043.27 2352.76,1043.27 "/>
<polyline clip-path="url(#clip142)" style="stroke:#000000; stroke-linecap:round; stroke-linejoin:round; stroke-width:2; stroke-opacity:0.1; fill:none" points="193.936,783.779 2352.76,783.779 "/>
<polyline clip-path="url(#clip142)" style="stroke:#000000; stroke-linecap:round; stroke-linejoin:round; stroke-width:2; stroke-opacity:0.1; fill:none" points="193.936,524.29 2352.76,524.29 "/>
<polyline clip-path="url(#clip142)" style="stroke:#000000; stroke-linecap:round; stroke-linejoin:round; stroke-width:2; stroke-opacity:0.1; fill:none" points="193.936,264.801 2352.76,264.801 "/>
<polyline clip-path="url(#clip140)" style="stroke:#000000; stroke-linecap:round; stroke-linejoin:round; stroke-width:4; stroke-opacity:1; fill:none" points="193.936,1486.45 2352.76,1486.45 "/>
<polyline clip-path="url(#clip140)" style="stroke:#000000; stroke-linecap:round; stroke-linejoin:round; stroke-width:4; stroke-opacity:1; fill:none" points="246.855,1486.45 246.855,1467.55 "/>
<polyline clip-path="url(#clip140)" style="stroke:#000000; stroke-linecap:round; stroke-linejoin:round; stroke-width:4; stroke-opacity:1; fill:none" points="758.056,1486.45 758.056,1467.55 "/>
<polyline clip-path="url(#clip140)" style="stroke:#000000; stroke-linecap:round; stroke-linejoin:round; stroke-width:4; stroke-opacity:1; fill:none" points="1269.26,1486.45 1269.26,1467.55 "/>
<polyline clip-path="url(#clip140)" style="stroke:#000000; stroke-linecap:round; stroke-linejoin:round; stroke-width:4; stroke-opacity:1; fill:none" points="1780.46,1486.45 1780.46,1467.55 "/>
<polyline clip-path="url(#clip140)" style="stroke:#000000; stroke-linecap:round; stroke-linejoin:round; stroke-width:4; stroke-opacity:1; fill:none" points="2291.66,1486.45 2291.66,1467.55 "/>
<path clip-path="url(#clip140)" d="M246.855 1517.37 Q243.244 1517.37 241.416 1520.93 Q239.61 1524.47 239.61 1531.6 Q239.61 1538.71 241.416 1542.27 Q243.244 1545.82 246.855 1545.82 Q250.49 1545.82 252.295 1542.27 Q254.124 1538.71 254.124 1531.6 Q254.124 1524.47 252.295 1520.93 Q250.49 1517.37 246.855 1517.37 M246.855 1513.66 Q252.666 1513.66 255.721 1518.27 Q258.8 1522.85 258.8 1531.6 Q258.8 1540.33 255.721 1544.94 Q252.666 1549.52 246.855 1549.52 Q241.045 1549.52 237.967 1544.94 Q234.911 1540.33 234.911 1531.6 Q234.911 1522.85 237.967 1518.27 Q241.045 1513.66 246.855 1513.66 Z" fill="#000000" fill-rule="nonzero" fill-opacity="1" /><path clip-path="url(#clip140)" d="M721.748 1544.91 L738.068 1544.91 L738.068 1548.85 L716.123 1548.85 L716.123 1544.91 Q718.785 1542.16 723.369 1537.53 Q727.975 1532.88 729.156 1531.53 Q731.401 1529.01 732.281 1527.27 Q733.183 1525.51 733.183 1523.82 Q733.183 1521.07 731.239 1519.33 Q729.318 1517.6 726.216 1517.6 Q724.017 1517.6 721.563 1518.36 Q719.133 1519.13 716.355 1520.68 L716.355 1515.95 Q719.179 1514.82 721.632 1514.24 Q724.086 1513.66 726.123 1513.66 Q731.494 1513.66 734.688 1516.35 Q737.882 1519.03 737.882 1523.52 Q737.882 1525.65 737.072 1527.57 Q736.285 1529.47 734.179 1532.07 Q733.6 1532.74 730.498 1535.95 Q727.396 1539.15 721.748 1544.91 Z" fill="#000000" fill-rule="nonzero" fill-opacity="1" /><path clip-path="url(#clip140)" d="M747.929 1514.29 L766.285 1514.29 L766.285 1518.22 L752.211 1518.22 L752.211 1526.7 Q753.23 1526.35 754.248 1526.19 Q755.267 1526 756.285 1526 Q762.072 1526 765.452 1529.17 Q768.831 1532.34 768.831 1537.76 Q768.831 1543.34 765.359 1546.44 Q761.887 1549.52 755.567 1549.52 Q753.392 1549.52 751.123 1549.15 Q748.878 1548.78 746.47 1548.04 L746.47 1543.34 Q748.554 1544.47 750.776 1545.03 Q752.998 1545.58 755.475 1545.58 Q759.48 1545.58 761.817 1543.48 Q764.155 1541.37 764.155 1537.76 Q764.155 1534.15 761.817 1532.04 Q759.48 1529.94 755.475 1529.94 Q753.6 1529.94 751.725 1530.35 Q749.873 1530.77 747.929 1531.65 L747.929 1514.29 Z" fill="#000000" fill-rule="nonzero" fill-opacity="1" /><path clip-path="url(#clip140)" d="M788.044 1517.37 Q784.433 1517.37 782.604 1520.93 Q780.799 1524.47 780.799 1531.6 Q780.799 1538.71 782.604 1542.27 Q784.433 1545.82 788.044 1545.82 Q791.678 1545.82 793.484 1542.27 Q795.313 1538.71 795.313 1531.6 Q795.313 1524.47 793.484 1520.93 Q791.678 1517.37 788.044 1517.37 M788.044 1513.66 Q793.854 1513.66 796.91 1518.27 Q799.989 1522.85 799.989 1531.6 Q799.989 1540.33 796.91 1544.94 Q793.854 1549.52 788.044 1549.52 Q782.234 1549.52 779.155 1544.94 Q776.1 1540.33 776.1 1531.6 Q776.1 1522.85 779.155 1518.27 Q782.234 1513.66 788.044 1513.66 Z" fill="#000000" fill-rule="nonzero" fill-opacity="1" /><path clip-path="url(#clip140)" d="M1228.87 1514.29 L1247.23 1514.29 L1247.23 1518.22 L1233.16 1518.22 L1233.16 1526.7 Q1234.18 1526.35 1235.19 1526.19 Q1236.21 1526 1237.23 1526 Q1243.02 1526 1246.4 1529.17 Q1249.78 1532.34 1249.78 1537.76 Q1249.78 1543.34 1246.31 1546.44 Q1242.83 1549.52 1236.51 1549.52 Q1234.34 1549.52 1232.07 1549.15 Q1229.82 1548.78 1227.42 1548.04 L1227.42 1543.34 Q1229.5 1544.47 1231.72 1545.03 Q1233.94 1545.58 1236.42 1545.58 Q1240.43 1545.58 1242.76 1543.48 Q1245.1 1541.37 1245.1 1537.76 Q1245.1 1534.15 1242.76 1532.04 Q1240.43 1529.94 1236.42 1529.94 Q1234.55 1529.94 1232.67 1530.35 Q1230.82 1530.77 1228.87 1531.65 L1228.87 1514.29 Z" fill="#000000" fill-rule="nonzero" fill-opacity="1" /><path clip-path="url(#clip140)" d="M1268.99 1517.37 Q1265.38 1517.37 1263.55 1520.93 Q1261.74 1524.47 1261.74 1531.6 Q1261.74 1538.71 1263.55 1542.27 Q1265.38 1545.82 1268.99 1545.82 Q1272.62 1545.82 1274.43 1542.27 Q1276.26 1538.71 1276.26 1531.6 Q1276.26 1524.47 1274.43 1520.93 Q1272.62 1517.37 1268.99 1517.37 M1268.99 1513.66 Q1274.8 1513.66 1277.86 1518.27 Q1280.93 1522.85 1280.93 1531.6 Q1280.93 1540.33 1277.86 1544.94 Q1274.8 1549.52 1268.99 1549.52 Q1263.18 1549.52 1260.1 1544.94 Q1257.05 1540.33 1257.05 1531.6 Q1257.05 1522.85 1260.1 1518.27 Q1263.18 1513.66 1268.99 1513.66 Z" fill="#000000" fill-rule="nonzero" fill-opacity="1" /><path clip-path="url(#clip140)" d="M1299.15 1517.37 Q1295.54 1517.37 1293.71 1520.93 Q1291.91 1524.47 1291.91 1531.6 Q1291.91 1538.71 1293.71 1542.27 Q1295.54 1545.82 1299.15 1545.82 Q1302.79 1545.82 1304.59 1542.27 Q1306.42 1538.71 1306.42 1531.6 Q1306.42 1524.47 1304.59 1520.93 Q1302.79 1517.37 1299.15 1517.37 M1299.15 1513.66 Q1304.96 1513.66 1308.02 1518.27 Q1311.1 1522.85 1311.1 1531.6 Q1311.1 1540.33 1308.02 1544.94 Q1304.96 1549.52 1299.15 1549.52 Q1293.34 1549.52 1290.26 1544.94 Q1287.21 1540.33 1287.21 1531.6 Q1287.21 1522.85 1290.26 1518.27 Q1293.34 1513.66 1299.15 1513.66 Z" fill="#000000" fill-rule="nonzero" fill-opacity="1" /><path clip-path="url(#clip140)" d="M1738.73 1514.29 L1760.95 1514.29 L1760.95 1516.28 L1748.41 1548.85 L1743.52 1548.85 L1755.33 1518.22 L1738.73 1518.22 L1738.73 1514.29 Z" fill="#000000" fill-rule="nonzero" fill-opacity="1" /><path clip-path="url(#clip140)" d="M1770.12 1514.29 L1788.48 1514.29 L1788.48 1518.22 L1774.4 1518.22 L1774.4 1526.7 Q1775.42 1526.35 1776.44 1526.19 Q1777.46 1526 1778.48 1526 Q1784.26 1526 1787.64 1529.17 Q1791.02 1532.34 1791.02 1537.76 Q1791.02 1543.34 1787.55 1546.44 Q1784.08 1549.52 1777.76 1549.52 Q1775.58 1549.52 1773.32 1549.15 Q1771.07 1548.78 1768.66 1548.04 L1768.66 1543.34 Q1770.75 1544.47 1772.97 1545.03 Q1775.19 1545.58 1777.67 1545.58 Q1781.67 1545.58 1784.01 1543.48 Q1786.35 1541.37 1786.35 1537.76 Q1786.35 1534.15 1784.01 1532.04 Q1781.67 1529.94 1777.67 1529.94 Q1775.79 1529.94 1773.92 1530.35 Q1772.07 1530.77 1770.12 1531.65 L1770.12 1514.29 Z" fill="#000000" fill-rule="nonzero" fill-opacity="1" /><path clip-path="url(#clip140)" d="M1810.24 1517.37 Q1806.63 1517.37 1804.8 1520.93 Q1802.99 1524.47 1802.99 1531.6 Q1802.99 1538.71 1804.8 1542.27 Q1806.63 1545.82 1810.24 1545.82 Q1813.87 1545.82 1815.68 1542.27 Q1817.51 1538.71 1817.51 1531.6 Q1817.51 1524.47 1815.68 1520.93 Q1813.87 1517.37 1810.24 1517.37 M1810.24 1513.66 Q1816.05 1513.66 1819.1 1518.27 Q1822.18 1522.85 1822.18 1531.6 Q1822.18 1540.33 1819.1 1544.94 Q1816.05 1549.52 1810.24 1549.52 Q1804.43 1549.52 1801.35 1544.94 Q1798.29 1540.33 1798.29 1531.6 Q1798.29 1522.85 1801.35 1518.27 Q1804.43 1513.66 1810.24 1513.66 Z" fill="#000000" fill-rule="nonzero" fill-opacity="1" /><path clip-path="url(#clip140)" d="M2236.18 1544.91 L2243.82 1544.91 L2243.82 1518.55 L2235.51 1520.21 L2235.51 1515.95 L2243.78 1514.29 L2248.45 1514.29 L2248.45 1544.91 L2256.09 1544.91 L2256.09 1548.85 L2236.18 1548.85 L2236.18 1544.91 Z" fill="#000000" fill-rule="nonzero" fill-opacity="1" /><path clip-path="url(#clip140)" d="M2275.53 1517.37 Q2271.92 1517.37 2270.09 1520.93 Q2268.29 1524.47 2268.29 1531.6 Q2268.29 1538.71 2270.09 1542.27 Q2271.92 1545.82 2275.53 1545.82 Q2279.17 1545.82 2280.97 1542.27 Q2282.8 1538.71 2282.8 1531.6 Q2282.8 1524.47 2280.97 1520.93 Q2279.17 1517.37 2275.53 1517.37 M2275.53 1513.66 Q2281.34 1513.66 2284.4 1518.27 Q2287.48 1522.85 2287.48 1531.6 Q2287.48 1540.33 2284.4 1544.94 Q2281.34 1549.52 2275.53 1549.52 Q2269.72 1549.52 2266.65 1544.94 Q2263.59 1540.33 2263.59 1531.6 Q2263.59 1522.85 2266.65 1518.27 Q2269.72 1513.66 2275.53 1513.66 Z" fill="#000000" fill-rule="nonzero" fill-opacity="1" /><path clip-path="url(#clip140)" d="M2305.7 1517.37 Q2302.09 1517.37 2300.26 1520.93 Q2298.45 1524.47 2298.45 1531.6 Q2298.45 1538.71 2300.26 1542.27 Q2302.09 1545.82 2305.7 1545.82 Q2309.33 1545.82 2311.14 1542.27 Q2312.96 1538.71 2312.96 1531.6 Q2312.96 1524.47 2311.14 1520.93 Q2309.33 1517.37 2305.7 1517.37 M2305.7 1513.66 Q2311.51 1513.66 2314.56 1518.27 Q2317.64 1522.85 2317.64 1531.6 Q2317.64 1540.33 2314.56 1544.94 Q2311.51 1549.52 2305.7 1549.52 Q2299.89 1549.52 2296.81 1544.94 Q2293.75 1540.33 2293.75 1531.6 Q2293.75 1522.85 2296.81 1518.27 Q2299.89 1513.66 2305.7 1513.66 Z" fill="#000000" fill-rule="nonzero" fill-opacity="1" /><path clip-path="url(#clip140)" d="M2335.86 1517.37 Q2332.25 1517.37 2330.42 1520.93 Q2328.61 1524.47 2328.61 1531.6 Q2328.61 1538.71 2330.42 1542.27 Q2332.25 1545.82 2335.86 1545.82 Q2339.49 1545.82 2341.3 1542.27 Q2343.13 1538.71 2343.13 1531.6 Q2343.13 1524.47 2341.3 1520.93 Q2339.49 1517.37 2335.86 1517.37 M2335.86 1513.66 Q2341.67 1513.66 2344.72 1518.27 Q2347.8 1522.85 2347.8 1531.6 Q2347.8 1540.33 2344.72 1544.94 Q2341.67 1549.52 2335.86 1549.52 Q2330.05 1549.52 2326.97 1544.94 Q2323.91 1540.33 2323.91 1531.6 Q2323.91 1522.85 2326.97 1518.27 Q2330.05 1513.66 2335.86 1513.66 Z" fill="#000000" fill-rule="nonzero" fill-opacity="1" /><polyline clip-path="url(#clip140)" style="stroke:#000000; stroke-linecap:round; stroke-linejoin:round; stroke-width:4; stroke-opacity:1; fill:none" points="193.936,1486.45 193.936,47.2441 "/>
<polyline clip-path="url(#clip140)" style="stroke:#000000; stroke-linecap:round; stroke-linejoin:round; stroke-width:4; stroke-opacity:1; fill:none" points="193.936,1302.76 212.834,1302.76 "/>
<polyline clip-path="url(#clip140)" style="stroke:#000000; stroke-linecap:round; stroke-linejoin:round; stroke-width:4; stroke-opacity:1; fill:none" points="193.936,1043.27 212.834,1043.27 "/>
<polyline clip-path="url(#clip140)" style="stroke:#000000; stroke-linecap:round; stroke-linejoin:round; stroke-width:4; stroke-opacity:1; fill:none" points="193.936,783.779 212.834,783.779 "/>
<polyline clip-path="url(#clip140)" style="stroke:#000000; stroke-linecap:round; stroke-linejoin:round; stroke-width:4; stroke-opacity:1; fill:none" points="193.936,524.29 212.834,524.29 "/>
<polyline clip-path="url(#clip140)" style="stroke:#000000; stroke-linecap:round; stroke-linejoin:round; stroke-width:4; stroke-opacity:1; fill:none" points="193.936,264.801 212.834,264.801 "/>
<path clip-path="url(#clip140)" d="M50.9921 1303.21 L80.6679 1303.21 L80.6679 1307.14 L50.9921 1307.14 L50.9921 1303.21 Z" fill="#000000" fill-rule="nonzero" fill-opacity="1" /><path clip-path="url(#clip140)" d="M91.5706 1316.1 L99.2095 1316.1 L99.2095 1289.74 L90.8993 1291.4 L90.8993 1287.14 L99.1632 1285.48 L103.839 1285.48 L103.839 1316.1 L111.478 1316.1 L111.478 1320.04 L91.5706 1320.04 L91.5706 1316.1 Z" fill="#000000" fill-rule="nonzero" fill-opacity="1" /><path clip-path="url(#clip140)" d="M120.922 1314.16 L125.807 1314.16 L125.807 1320.04 L120.922 1320.04 L120.922 1314.16 Z" fill="#000000" fill-rule="nonzero" fill-opacity="1" /><path clip-path="url(#clip140)" d="M145.992 1288.56 Q142.381 1288.56 140.552 1292.12 Q138.746 1295.66 138.746 1302.79 Q138.746 1309.9 140.552 1313.46 Q142.381 1317 145.992 1317 Q149.626 1317 151.431 1313.46 Q153.26 1309.9 153.26 1302.79 Q153.26 1295.66 151.431 1292.12 Q149.626 1288.56 145.992 1288.56 M145.992 1284.85 Q151.802 1284.85 154.857 1289.46 Q157.936 1294.04 157.936 1302.79 Q157.936 1311.52 154.857 1316.12 Q151.802 1320.71 145.992 1320.71 Q140.181 1320.71 137.103 1316.12 Q134.047 1311.52 134.047 1302.79 Q134.047 1294.04 137.103 1289.46 Q140.181 1284.85 145.992 1284.85 Z" fill="#000000" fill-rule="nonzero" fill-opacity="1" /><path clip-path="url(#clip140)" d="M51.9875 1043.72 L81.6633 1043.72 L81.6633 1047.65 L51.9875 1047.65 L51.9875 1043.72 Z" fill="#000000" fill-rule="nonzero" fill-opacity="1" /><path clip-path="url(#clip140)" d="M101.756 1029.07 Q98.1447 1029.07 96.316 1032.63 Q94.5104 1036.17 94.5104 1043.3 Q94.5104 1050.41 96.316 1053.97 Q98.1447 1057.52 101.756 1057.52 Q105.39 1057.52 107.196 1053.97 Q109.024 1050.41 109.024 1043.3 Q109.024 1036.17 107.196 1032.63 Q105.39 1029.07 101.756 1029.07 M101.756 1025.36 Q107.566 1025.36 110.621 1029.97 Q113.7 1034.55 113.7 1043.3 Q113.7 1052.03 110.621 1056.64 Q107.566 1061.22 101.756 1061.22 Q95.9456 1061.22 92.8669 1056.64 Q89.8114 1052.03 89.8114 1043.3 Q89.8114 1034.55 92.8669 1029.97 Q95.9456 1025.36 101.756 1025.36 Z" fill="#000000" fill-rule="nonzero" fill-opacity="1" /><path clip-path="url(#clip140)" d="M121.918 1054.67 L126.802 1054.67 L126.802 1060.55 L121.918 1060.55 L121.918 1054.67 Z" fill="#000000" fill-rule="nonzero" fill-opacity="1" /><path clip-path="url(#clip140)" d="M137.033 1025.99 L155.39 1025.99 L155.39 1029.92 L141.316 1029.92 L141.316 1038.39 Q142.334 1038.05 143.353 1037.89 Q144.371 1037.7 145.39 1037.7 Q151.177 1037.7 154.556 1040.87 Q157.936 1044.04 157.936 1049.46 Q157.936 1055.04 154.464 1058.14 Q150.992 1061.22 144.672 1061.22 Q142.496 1061.22 140.228 1060.85 Q137.982 1060.48 135.575 1059.74 L135.575 1055.04 Q137.658 1056.17 139.881 1056.73 Q142.103 1057.28 144.58 1057.28 Q148.584 1057.28 150.922 1055.18 Q153.26 1053.07 153.26 1049.46 Q153.26 1045.85 150.922 1043.74 Q148.584 1041.64 144.58 1041.64 Q142.705 1041.64 140.83 1042.05 Q138.978 1042.47 137.033 1043.35 L137.033 1025.99 Z" fill="#000000" fill-rule="nonzero" fill-opacity="1" /><path clip-path="url(#clip140)" d="M100.76 769.577 Q97.1493 769.577 95.3206 773.142 Q93.515 776.684 93.515 783.813 Q93.515 790.92 95.3206 794.484 Q97.1493 798.026 100.76 798.026 Q104.395 798.026 106.2 794.484 Q108.029 790.92 108.029 783.813 Q108.029 776.684 106.2 773.142 Q104.395 769.577 100.76 769.577 M100.76 765.874 Q106.571 765.874 109.626 770.48 Q112.705 775.063 112.705 783.813 Q112.705 792.54 109.626 797.146 Q106.571 801.73 100.76 801.73 Q94.9502 801.73 91.8715 797.146 Q88.816 792.54 88.816 783.813 Q88.816 775.063 91.8715 770.48 Q94.9502 765.874 100.76 765.874 Z" fill="#000000" fill-rule="nonzero" fill-opacity="1" /><path clip-path="url(#clip140)" d="M120.922 795.179 L125.807 795.179 L125.807 801.059 L120.922 801.059 L120.922 795.179 Z" fill="#000000" fill-rule="nonzero" fill-opacity="1" /><path clip-path="url(#clip140)" d="M145.992 769.577 Q142.381 769.577 140.552 773.142 Q138.746 776.684 138.746 783.813 Q138.746 790.92 140.552 794.484 Q142.381 798.026 145.992 798.026 Q149.626 798.026 151.431 794.484 Q153.26 790.92 153.26 783.813 Q153.26 776.684 151.431 773.142 Q149.626 769.577 145.992 769.577 M145.992 765.874 Q151.802 765.874 154.857 770.48 Q157.936 775.063 157.936 783.813 Q157.936 792.54 154.857 797.146 Q151.802 801.73 145.992 801.73 Q140.181 801.73 137.103 797.146 Q134.047 792.54 134.047 783.813 Q134.047 775.063 137.103 770.48 Q140.181 765.874 145.992 765.874 Z" fill="#000000" fill-rule="nonzero" fill-opacity="1" /><path clip-path="url(#clip140)" d="M101.756 510.088 Q98.1447 510.088 96.316 513.653 Q94.5104 517.195 94.5104 524.324 Q94.5104 531.431 96.316 534.996 Q98.1447 538.537 101.756 538.537 Q105.39 538.537 107.196 534.996 Q109.024 531.431 109.024 524.324 Q109.024 517.195 107.196 513.653 Q105.39 510.088 101.756 510.088 M101.756 506.385 Q107.566 506.385 110.621 510.991 Q113.7 515.574 113.7 524.324 Q113.7 533.051 110.621 537.658 Q107.566 542.241 101.756 542.241 Q95.9456 542.241 92.8669 537.658 Q89.8114 533.051 89.8114 524.324 Q89.8114 515.574 92.8669 510.991 Q95.9456 506.385 101.756 506.385 Z" fill="#000000" fill-rule="nonzero" fill-opacity="1" /><path clip-path="url(#clip140)" d="M121.918 535.69 L126.802 535.69 L126.802 541.57 L121.918 541.57 L121.918 535.69 Z" fill="#000000" fill-rule="nonzero" fill-opacity="1" /><path clip-path="url(#clip140)" d="M137.033 507.01 L155.39 507.01 L155.39 510.945 L141.316 510.945 L141.316 519.417 Q142.334 519.07 143.353 518.908 Q144.371 518.722 145.39 518.722 Q151.177 518.722 154.556 521.894 Q157.936 525.065 157.936 530.482 Q157.936 536.06 154.464 539.162 Q150.992 542.241 144.672 542.241 Q142.496 542.241 140.228 541.87 Q137.982 541.5 135.575 540.759 L135.575 536.06 Q137.658 537.195 139.881 537.75 Q142.103 538.306 144.58 538.306 Q148.584 538.306 150.922 536.199 Q153.26 534.093 153.26 530.482 Q153.26 526.871 150.922 524.764 Q148.584 522.658 144.58 522.658 Q142.705 522.658 140.83 523.074 Q138.978 523.491 137.033 524.371 L137.033 507.01 Z" fill="#000000" fill-rule="nonzero" fill-opacity="1" /><path clip-path="url(#clip140)" d="M91.5706 278.145 L99.2095 278.145 L99.2095 251.78 L90.8993 253.446 L90.8993 249.187 L99.1632 247.521 L103.839 247.521 L103.839 278.145 L111.478 278.145 L111.478 282.081 L91.5706 282.081 L91.5706 278.145 Z" fill="#000000" fill-rule="nonzero" fill-opacity="1" /><path clip-path="url(#clip140)" d="M120.922 276.201 L125.807 276.201 L125.807 282.081 L120.922 282.081 L120.922 276.201 Z" fill="#000000" fill-rule="nonzero" fill-opacity="1" /><path clip-path="url(#clip140)" d="M145.992 250.599 Q142.381 250.599 140.552 254.164 Q138.746 257.706 138.746 264.835 Q138.746 271.942 140.552 275.507 Q142.381 279.048 145.992 279.048 Q149.626 279.048 151.431 275.507 Q153.26 271.942 153.26 264.835 Q153.26 257.706 151.431 254.164 Q149.626 250.599 145.992 250.599 M145.992 246.896 Q151.802 246.896 154.857 251.502 Q157.936 256.085 157.936 264.835 Q157.936 273.562 154.857 278.169 Q151.802 282.752 145.992 282.752 Q140.181 282.752 137.103 278.169 Q134.047 273.562 134.047 264.835 Q134.047 256.085 137.103 251.502 Q140.181 246.896 145.992 246.896 Z" fill="#000000" fill-rule="nonzero" fill-opacity="1" /><polyline clip-path="url(#clip142)" style="stroke:#009af9; stroke-linecap:round; stroke-linejoin:round; stroke-width:4; stroke-opacity:1; fill:none" points="255.035,714.008 257.079,781.174 259.124,833.561 261.169,749.062 263.214,802.054 265.259,841.082 267.303,715.93 269.348,748.252 271.393,711.194 273.438,594.705 275.483,673.539 277.527,632.065 279.572,641.434 281.617,632.506 283.662,638.642 285.707,689.983 287.752,643.89 289.796,601.122 291.841,707.323 293.886,649.225 295.931,652.218 297.976,745.124 300.02,703.31 302.065,694.115 304.11,637.149 306.155,677.579 308.2,483.801 310.244,716.404 312.289,622.398 314.334,550.335 316.379,716.857 318.424,642.268 320.468,628.171 322.513,623.658 324.558,595.109 326.603,673.592 328.648,501.166 330.692,584.204 332.737,701.875 334.782,486.744 336.827,544.061 338.872,572.259 340.916,582.674 342.961,725.999 345.006,526.427 347.051,578.33 349.096,612.297 351.14,482.445 353.185,572.054 355.23,535.095 357.275,490.63 359.32,585.535 361.364,441.95 363.409,540.959 365.454,589.609 367.499,422.08 369.544,539.131 371.588,516.084 373.633,423.645 375.678,467.174 377.723,490.394 379.768,470.418 381.812,451.638 383.857,575.423 385.902,597.033 387.947,512.887 389.992,475.053 392.036,505.529 394.081,418.833 396.126,347.66 398.171,416.802 400.216,408.581 402.26,311.713 404.305,397.359 406.35,472.251 408.395,434.975 410.44,314.495 412.484,356.443 414.529,334.236 416.574,375.056 418.619,440.967 420.664,462.071 422.708,433.923 424.753,473.214 426.798,501.628 428.843,418.399 430.888,368.772 432.932,432.935 434.977,382.052 437.022,224.619 439.067,401.072 441.112,352.91 443.156,381.747 445.201,454.978 447.246,293.164 449.291,349.329 451.336,352.408 453.38,229.944 455.425,249.002 457.47,323.619 459.515,338.341 461.56,217.051 463.604,308.634 465.649,324.291 467.694,281.764 469.739,297.548 471.784,281.95 473.828,310.332 475.873,160.949 477.918,329.721 479.963,243.834 482.008,354.497 484.052,293.108 486.097,175.306 488.142,370.275 490.187,278.511 492.232,233.669 494.276,358.741 496.321,247.731 498.366,196.542 500.411,368.841 502.456,247.711 504.5,286.764 506.545,382.229 508.59,221.261 510.635,250.015 512.68,296.208 514.724,305.178 516.769,280.727 518.814,191.791 520.859,281.813 522.904,233.05 524.949,252.964 526.993,282.583 529.038,220.34 531.083,270.003 533.128,285.033 535.173,208.854 537.217,201.241 539.262,249.806 541.307,334.78 543.352,235.2 545.397,173.984 547.441,274.06 549.486,289.749 551.531,308.583 553.576,329.249 555.621,278.215 557.665,317.969 559.71,331.384 561.755,244.866 563.8,268.373 565.845,282.261 567.889,284.288 569.934,198.083 571.979,199.545 574.024,348.944 576.069,308.669 578.113,302.607 580.158,238.993 582.203,227.299 584.248,349.155 586.293,266.869 588.337,285.696 590.382,213.613 592.427,257.181 594.472,247.847 596.517,318.22 598.561,372.756 600.606,444.846 602.651,300.01 604.696,229.04 606.741,304.877 608.785,122.327 610.83,227.51 612.875,337.934 614.92,230.465 616.965,194.87 619.009,304.212 621.054,275.099 623.099,279.523 625.144,270.952 627.189,359.446 629.233,336.824 631.278,354.856 633.323,331.164 635.368,227.985 637.413,291.775 639.457,347.539 641.502,306.896 643.547,185.841 645.592,380.755 647.637,448.089 649.681,271.1 651.726,421.424 653.771,366.236 655.816,364.591 657.861,400.831 659.905,323.37 661.95,257.096 663.995,373.849 666.04,255.287 668.085,225.385 670.129,301.622 672.174,196.024 674.219,166.236 676.264,263.37 678.309,352.945 680.353,447.23 682.398,312.624 684.443,385.185 686.488,351.642 688.533,370.112 690.577,357.283 692.622,351.663 694.667,365.573 696.712,235.713 698.757,377.749 700.801,391.446 702.846,371.872 704.891,441.621 706.936,459.918 708.981,488.392 711.025,518.205 713.07,482.648 715.115,475.381 717.16,463.2 719.205,470.309 721.249,511.197 723.294,472.826 725.339,406.413 727.384,338.491 729.429,492.406 731.473,354.844 733.518,415.423 735.563,460.619 737.608,403.95 739.653,376.853 741.697,380.841 743.742,488.83 745.787,463.117 747.832,494.147 749.877,383.57 751.922,470.461 753.966,487.882 756.011,405.318 758.056,538.914 760.101,486.287 762.146,504.254 764.19,539.344 766.235,526.531 768.28,556.512 770.325,451.519 772.37,448.021 774.414,563.435 776.459,497.04 778.504,575.563 780.549,542.326 782.594,508.993 784.638,501.439 786.683,455.256 788.728,507.1 790.773,516.005 792.818,550.477 794.862,493.408 796.907,494.338 798.952,477.071 800.997,544.234 803.042,610.462 805.086,642.131 807.131,622.882 809.176,620.335 811.221,621.079 813.266,627.887 815.31,664.384 817.355,635.183 819.4,658.627 821.445,612.922 823.49,661.115 825.534,599.054 827.579,558.239 829.624,618.186 831.669,654.026 833.714,582.217 835.758,711.295 837.803,758.904 839.848,549.998 841.893,602.548 843.938,612.469 845.982,558.108 848.027,622.904 850.072,647.6 852.117,684.594 854.162,671.164 856.206,607.339 858.251,665.287 860.296,805.509 862.341,817.172 864.386,659.164 866.43,723.118 868.475,764.046 870.52,672.016 872.565,787.071 874.61,739.716 876.654,664.448 878.699,784.678 880.744,838.572 882.789,747.144 884.834,753.012 886.878,891.036 888.923,806.019 890.968,835.953 893.013,886.835 895.058,832.293 897.102,728.421 899.147,805.079 901.192,781.009 903.237,667.12 905.282,750.68 907.326,873.256 909.371,776.158 911.416,827.102 913.461,845.533 915.506,769.211 917.55,789.72 919.595,785.343 921.64,737.556 923.685,757.443 925.73,795.076 927.774,762.053 929.819,771.326 931.864,919.564 933.909,912.927 935.954,940.314 937.998,995.673 940.043,1021.61 942.088,1019.68 944.133,1035.23 946.178,1057.29 948.222,1025.93 950.267,910.818 952.312,987.697 954.357,895.977 956.402,788.19 958.446,987.437 960.491,1021.92 962.536,922.345 964.581,872.079 966.626,928.111 968.67,932.788 970.715,942.848 972.76,931.063 974.805,923.072 976.85,994.275 978.894,1021.78 980.939,1012.84 982.984,1069.66 985.029,1063.95 987.074,1036.72 989.119,1010.99 991.163,1028.8 993.208,1039.93 995.253,890.685 997.298,986.593 999.343,1066.78 1001.39,974.51 1003.43,1120.33 1005.48,1151.55 1007.52,1047.37 1009.57,1134.95 1011.61,1062.06 1013.66,1010.18 1015.7,1097.41 1017.75,1101.81 1019.79,1090.05 1021.84,1071.37 1023.88,1070.02 1025.92,1093.17 1027.97,1113.54 1030.01,1122.44 1032.06,1163.99 1034.1,1158.2 1036.15,1150.56 1038.19,1092.63 1040.24,1064.47 1042.28,1146.2 1044.33,1027.4 1046.37,1080.21 1048.42,977.205 1050.46,1006.76 1052.51,1216.78 1054.55,1104.08 1056.6,1152.92 1058.64,1319.45 1060.69,1284.91 1062.73,1173.25 1064.78,1219.97 1066.82,1211.63 1068.87,1181.01 1070.91,1166.81 1072.96,1067.37 1075,1252.84 1077.04,1167.69 1079.09,1110.28 1081.13,1271.06 1083.18,1340.93 1085.22,1199.26 1087.27,1151.9 1089.31,1295.23 1091.36,1261.06 1093.4,1250.41 1095.45,1157.2 1097.49,1168.49 1099.54,1280.39 1101.58,1331.51 1103.63,1277.11 1105.67,1239.26 1107.72,1357.28 1109.76,1208.92 1111.81,1133.75 1113.85,1136.21 1115.9,1200.39 1117.94,1142.92 1119.99,1158.82 1122.03,1212.97 1124.08,1243.96 1126.12,1200.5 1128.17,1263.35 1130.21,1227.21 1132.25,1230.51 1134.3,1269.9 1136.34,1137.08 1138.39,1259.12 1140.43,1206.74 1142.48,1231.02 1144.52,1294.05 1146.57,1219.68 1148.61,1303.5 1150.66,1222.02 1152.7,1266.51 1154.75,1443.67 1156.79,1308.82 1158.84,1384.77 1160.88,1388.04 1162.93,1298.23 1164.97,1363.53 1167.02,1253.92 1169.06,1266.68 1171.11,1305.81 1173.15,1313.34 1175.2,1445.72 1177.24,1311.66 1179.29,1299.24 1181.33,1413.23 1183.37,1282.59 1185.42,1225.9 1187.46,1327.63 1189.51,1337.22 1191.55,1287.97 1193.6,1369.49 1195.64,1285.32 1197.69,1251.4 1199.73,1404.85 1201.78,1195.98 1203.82,1180.1 1205.87,1390.76 1207.91,1397.61 1209.96,1372.92 1212,1295.1 1214.05,1355.32 1216.09,1333.89 1218.14,1284.49 1220.18,1345.33 1222.23,1375.26 1224.27,1348.99 1226.32,1342.41 1228.36,1343 1230.41,1370.6 1232.45,1294.47 1234.49,1246.06 1236.54,1225.46 1238.58,1247.72 1240.63,1326.29 1242.67,1130.41 1244.72,1221.67 1246.76,1343.89 1248.81,1215.08 1250.85,1262.89 1252.9,1161.77 1254.94,1279.15 1256.99,1380.14 1259.03,1313.92 1261.08,1290.41 1263.12,1246.18 1265.17,1273.12 1267.21,1274.88 1269.26,1248.52 1271.3,1262.46 1273.35,1269.32 1275.39,1314 1277.44,1234.59 1279.48,1241.64 1281.53,1295.48 1283.57,1218.44 1285.61,1297.52 1287.66,1362.56 1289.7,1276.38 1291.75,1280.73 1293.79,1216.02 1295.84,1127.02 1297.88,1250.47 1299.93,1230.44 1301.97,1208.02 1304.02,1366.85 1306.06,1260.96 1308.11,1224.46 1310.15,1126.86 1312.2,1216.16 1314.24,1229.87 1316.29,1131.79 1318.33,1271.58 1320.38,1199.71 1322.42,1194.89 1324.47,1245 1326.51,1279.99 1328.56,1146.94 1330.6,1270.25 1332.65,1344.02 1334.69,1183.05 1336.73,1256.32 1338.78,1119.35 1340.82,1108.66 1342.87,1122.29 1344.91,1069.45 1346.96,1073.71 1349,1165.5 1351.05,1185.22 1353.09,1204.63 1355.14,1258.33 1357.18,1220.39 1359.23,1141.35 1361.27,1271.74 1363.32,1245.76 1365.36,1175.26 1367.41,1137.95 1369.45,1243.93 1371.5,1190.35 1373.54,1103.11 1375.59,1206.3 1377.63,1145.37 1379.68,1184.13 1381.72,1225.47 1383.77,1167.46 1385.81,1103.06 1387.85,1167.82 1389.9,1051.89 1391.94,979.17 1393.99,1217.17 1396.03,1091.77 1398.08,1092.75 1400.12,1179.15 1402.17,1106.48 1404.21,1064.9 1406.26,1017.61 1408.3,1088.86 1410.35,1072.65 1412.39,1124.5 1414.44,1202.7 1416.48,1079.2 1418.53,995.63 1420.57,989.3 1422.62,1130.17 1424.66,1020.99 1426.71,993.051 1428.75,1087.21 1430.8,1064.22 1432.84,1041.05 1434.89,990.368 1436.93,1021.34 1438.97,969.98 1441.02,1024.8 1443.06,974.373 1445.11,975.451 1447.15,1051.59 1449.2,976.269 1451.24,973.86 1453.29,1046.77 1455.33,1020.01 1457.38,1141.96 1459.42,932.168 1461.47,984.496 1463.51,1109.31 1465.56,899.386 1467.6,897.948 1469.65,895.097 1471.69,949.438 1473.74,956.304 1475.78,978.71 1477.83,1032.51 1479.87,942.972 1481.92,871.513 1483.96,854.342 1486.01,959.823 1488.05,808.028 1490.09,792.558 1492.14,932.109 1494.18,943.804 1496.23,867.883 1498.27,850.204 1500.32,917.411 1502.36,838.005 1504.41,876.229 1506.45,910.883 1508.5,908.537 1510.54,952.928 1512.59,815.404 1514.63,803.283 1516.68,974.648 1518.72,886.553 1520.77,813.506 1522.81,801.709 1524.86,754.045 1526.9,673.657 1528.95,804.607 1530.99,708.507 1533.04,681.673 1535.08,833.809 1537.13,674.733 1539.17,780.254 1541.21,790.346 1543.26,685.68 1545.3,777.982 1547.35,721.234 1549.39,834.704 1551.44,753.148 1553.48,814.941 1555.53,829.469 1557.57,691.774 1559.62,695.864 1561.66,735.69 1563.71,764.004 1565.75,708.148 1567.8,712.813 1569.84,711.445 1571.89,682.191 1573.93,697.564 1575.98,698.395 1578.02,634.005 1580.07,653.786 1582.11,645.758 1584.16,580.347 1586.2,744.378 1588.25,674.139 1590.29,516.568 1592.34,584.257 1594.38,609.606 1596.42,593.634 1598.47,688.55 1600.51,625.198 1602.56,540.027 1604.6,643.798 1606.65,603.754 1608.69,538.786 1610.74,597.88 1612.78,563.653 1614.83,500.256 1616.87,617.589 1618.92,538.218 1620.96,459.341 1623.01,520.997 1625.05,509.952 1627.1,467.601 1629.14,527.817 1631.19,488.904 1633.23,508.647 1635.28,416.7 1637.32,484.346 1639.37,582.11 1641.41,637.213 1643.46,601.468 1645.5,576.613 1647.54,608.077 1649.59,549.375 1651.63,587.017 1653.68,508.475 1655.72,519.687 1657.77,558.2 1659.81,390.516 1661.86,478.409 1663.9,502.075 1665.95,434.463 1667.99,442.067 1670.04,436.347 1672.08,357.823 1674.13,369.396 1676.17,529.58 1678.22,422.865 1680.26,440.57 1682.31,484.422 1684.35,453.442 1686.4,377.719 1688.44,453.466 1690.49,442.902 1692.53,439.716 1694.58,414.916 1696.62,502.935 1698.66,513.478 1700.71,331.891 1702.75,535.103 1704.8,297.751 1706.84,336.835 1708.89,481.724 1710.93,349.552 1712.98,420.915 1715.02,356.512 1717.07,261.775 1719.11,309.955 1721.16,295.242 1723.2,205.125 1725.25,321.429 1727.29,263.169 1729.34,256.427 1731.38,316.877 1733.43,364.921 1735.47,293.817 1737.52,353.127 1739.56,433.186 1741.61,325.905 1743.65,387.687 1745.7,311.935 1747.74,313.153 1749.78,316.844 1751.83,287.522 1753.87,318.837 1755.92,399.688 1757.96,208.656 1760.01,333.423 1762.05,347.868 1764.1,213.448 1766.14,293.32 1768.19,319.733 1770.23,281.395 1772.28,195.698 1774.32,268.063 1776.37,287.315 1778.41,240.65 1780.46,351.084 1782.5,330.314 1784.55,302.448 1786.59,283.693 1788.64,371.203 1790.68,297.906 1792.73,211.607 1794.77,319.083 1796.82,239.552 1798.86,219.286 1800.9,263.635 1802.95,239.883 1804.99,330.901 1807.04,303.832 1809.08,200.218 1811.13,329.006 1813.17,304.481 1815.22,253.623 1817.26,285.505 1819.31,282.449 1821.35,201.784 1823.4,286.636 1825.44,259.085 1827.49,218.759 1829.53,266.635 1831.58,205.152 1833.62,143.102 1835.67,263.357 1837.71,202.559 1839.76,157.522 1841.8,282.345 1843.85,222.275 1845.89,263.686 1847.94,246.233 1849.98,196.138 1852.02,263.57 1854.07,205.694 1856.11,177.277 1858.16,192.177 1860.2,148.435 1862.25,158.215 1864.29,211.116 1866.34,258.636 1868.38,253.067 1870.43,145.399 1872.47,206.017 1874.52,293.886 1876.56,178.482 1878.61,154.745 1880.65,193.784 1882.7,87.9763 1884.74,188.34 1886.79,271.915 1888.83,257.887 1890.88,315.045 1892.92,342.767 1894.97,292.923 1897.01,253.56 1899.06,326.909 1901.1,239.389 1903.14,367.159 1905.19,270.375 1907.23,253.997 1909.28,361.792 1911.32,274.281 1913.37,144.173 1915.41,263.44 1917.46,276.113 1919.5,119.799 1921.55,202.443 1923.59,157.874 1925.64,237.121 1927.68,325.895 1929.73,267.278 1931.77,316.302 1933.82,322.821 1935.86,302.061 1937.91,340.775 1939.95,303.045 1942,289.062 1944.04,311.414 1946.09,331.606 1948.13,252.603 1950.18,458.162 1952.22,375.099 1954.26,309.653 1956.31,489.534 1958.35,393.048 1960.4,357.44 1962.44,344.643 1964.49,339.041 1966.53,304.101 1968.58,305.823 1970.62,424.207 1972.67,330.45 1974.71,390.915 1976.76,344.099 1978.8,256.776 1980.85,381.472 1982.89,363.971 1984.94,365.988 1986.98,330.397 1989.03,422.507 1991.07,512.116 1993.12,349.855 1995.16,407.635 1997.21,463.943 1999.25,344.49 2001.3,326.918 2003.34,398.817 2005.38,296.686 2007.43,440.56 2009.47,488.104 2011.52,357.181 2013.56,430.764 2015.61,446.088 2017.65,400.596 2019.7,336.727 2021.74,379.995 2023.79,372.078 2025.83,324.524 2027.88,352.078 2029.92,432.04 2031.97,360.596 2034.01,539.382 2036.06,554.641 2038.1,503.583 2040.15,553.088 2042.19,542.687 2044.24,533.877 2046.28,395.703 2048.33,351.881 2050.37,577.711 2052.42,529.465 2054.46,428.446 2056.51,551.296 2058.55,431.184 2060.59,513.95 2062.64,431.644 2064.68,452.819 2066.73,489.824 2068.77,488.887 2070.82,453.504 2072.86,470.71 2074.91,467.868 2076.95,454.691 2079,557.969 2081.04,537.601 2083.09,533.854 2085.13,626.109 2087.18,568.502 2089.22,650.373 2091.27,636.429 2093.31,559.131 2095.36,703.487 2097.4,590.293 2099.45,673.211 2101.49,689.802 2103.54,533.128 2105.58,630.803 2107.63,632.274 2109.67,621.424 2111.71,552.309 2113.76,626.904 2115.8,553.041 2117.85,633.617 2119.89,662.205 2121.94,694.19 2123.98,651.655 2126.03,625.338 2128.07,741.756 2130.12,688.018 2132.16,733.977 2134.21,671.073 2136.25,739.947 2138.3,738.08 2140.34,598.477 2142.39,662.468 2144.43,657.422 2146.48,689.056 2148.52,592.187 2150.57,633.015 2152.61,766.327 2154.66,625.614 2156.7,677.571 2158.75,698.233 2160.79,748.921 2162.83,798.654 2164.88,705.876 2166.92,768.224 2168.97,778.634 2171.01,772.718 2173.06,801.391 2175.1,821.544 2177.15,819.307 2179.19,755.904 2181.24,778.964 2183.28,791.21 2185.33,767.714 2187.37,824.35 2189.42,817.923 2191.46,753.361 2193.51,975.839 2195.55,912.043 2197.6,703.892 2199.64,840.789 2201.69,732.625 2203.73,756.02 2205.78,912.249 2207.82,836.671 2209.87,951.205 2211.91,975.214 2213.95,875.093 2216,894.566 2218.04,916.329 2220.09,748.142 2222.13,856.084 2224.18,919.551 2226.22,917.486 2228.27,868.303 2230.31,825.919 2232.36,929.084 2234.4,881.164 2236.45,919.979 2238.49,958.603 2240.54,910.99 2242.58,900.739 2244.63,951.597 2246.67,860.161 2248.72,998.493 2250.76,948.278 2252.81,922.759 2254.85,1069.88 2256.9,953.956 2258.94,934.903 2260.99,1063.56 2263.03,977.848 2265.07,1010.18 2267.12,1021.72 2269.16,983.71 2271.21,1057.66 2273.25,1067.09 2275.3,1102.78 2277.34,972.771 2279.39,1061.47 2281.43,1004.3 2283.48,894.012 2285.52,991.337 2287.57,1024.96 2289.61,940.735 2291.66,994.223 "/>
<polyline clip-path="url(#clip142)" style="stroke:#e26f46; stroke-linecap:round; stroke-linejoin:round; stroke-width:4; stroke-opacity:1; fill:none" points="1481.92,878.459 1483.96,943.076 1486.01,929.235 1488.05,899.496 1490.09,941.751 1492.14,916.88 1494.18,914.361 1496.23,933.25 1498.27,913.695 1500.32,921.385 1502.36,924.791 1504.41,915.39 1506.45,921.426 1508.5,918.76 1510.54,917.649 1512.59,918.195 1514.63,915.927 1516.68,917.914 1518.72,913.261 1520.77,914.151 1522.81,913.754 1524.86,908.331 1526.9,908.482 1528.95,907.766 1530.99,899.845 1533.04,900.901 1535.08,899.087 1537.13,888.114 1539.17,892.796 1541.21,885.42 1543.26,876.758 1545.3,882.414 1547.35,869.433 1549.39,869.023 1551.44,866.671 1553.48,857.327 1555.53,858.425 1557.57,851.377 1559.62,846.8 1561.66,845.326 1563.71,838.037 1565.75,835.285 1567.8,831.791 1569.84,825.795 1571.89,822.681 1573.93,818.108 1575.98,812.807 1578.02,808.434 1580.07,804.948 1582.11,799.236 1584.16,792.792 1586.2,791.552 1588.25,782.812 1590.29,777.571 1592.34,776.336 1594.38,765.633 1596.42,761.889 1598.47,759.883 1600.51,748.336 1602.56,745.911 1604.6,742.446 1606.65,730.873 1608.69,729.348 1610.74,724.432 1612.78,713.847 1614.83,711.512 1616.87,706.436 1618.92,695.43 1620.96,693.371 1623.01,687.194 1625.05,677.15 1627.1,674.264 1629.14,667.127 1631.19,656.986 1633.23,655.833 1635.28,645.533 1637.32,639.592 1639.37,636.3 1641.41,627.44 1643.46,623.257 1645.5,618.983 1647.54,612.467 1649.59,608.41 1651.63,605.354 1653.68,598.15 1655.72,595.735 1657.77,593.155 1659.81,584.283 1661.86,585.592 1663.9,579.274 1665.95,572.138 1667.99,573.38 1670.04,565.227 1672.08,560.084 1674.13,559.083 1676.17,552.43 1678.22,546.31 1680.26,545.546 1682.31,538.327 1684.35,533.537 1686.4,530.701 1688.44,525.105 1690.49,519.955 1692.53,518.048 1694.58,511.289 1696.62,508.669 1698.66,505.423 1700.71,496.752 1702.75,500.508 1704.8,488.988 1706.84,487.758 1708.89,488.474 1710.93,474.234 1712.98,479.582 1715.02,472.402 1717.07,461.967 1719.11,467.558 1721.16,454.969 1723.2,449.026 1725.25,452.195 1727.29,436.527 1729.34,435.774 1731.38,432.941 1733.43,420.961 1735.47,420.198 1737.52,415.119 1739.56,406.875 1741.61,403.86 1743.65,400.329 1745.7,391.711 1747.74,390.28 1749.78,385.954 1751.83,378.206 1753.87,377.453 1755.92,373.806 1757.96,363.925 1760.01,367.778 1762.05,360.164 1764.1,353.123 1766.14,357.052 1768.19,346.722 1770.23,344.189 1772.28,344.071 1774.32,335.715 1776.37,334.993 1778.41,331.105 1780.46,327.234 1782.5,324.814 1784.55,321.549 1786.59,318.234 1788.64,316.86 1790.68,312.771 1792.73,309.81 1794.77,309.629 1796.82,303.694 1798.86,303.3 1800.9,301.888 1802.95,295.217 1804.99,297.961 1807.04,293.72 1809.08,288.541 1811.13,293.168 1813.17,285.359 1815.22,284.275 1817.26,286.711 1819.31,279.256 1821.35,279.607 1823.4,280.905 1825.44,273.193 1827.49,275.016 1829.53,274.331 1831.58,267.499 1833.62,268.66 1835.67,267.926 1837.71,260.719 1839.76,262.466 1841.8,261.021 1843.85,253.242 1845.89,257.416 1847.94,252.767 1849.98,247.286 1852.02,251.717 1854.07,243.522 1856.11,242.004 1858.16,243.862 1860.2,235.509 1862.25,236.59 1864.29,234.506 1866.34,228.781 1868.38,230.866 1870.43,225.464 1872.47,223.62 1874.52,224.061 1876.56,217.098 1878.61,218.129 1880.65,216.436 1882.7,209.492 1884.74,213.573 1886.79,209.025 1888.83,205.26 1890.88,209.438 1892.92,204.21 1894.97,203.932 1897.01,206.377 1899.06,203.654 1901.1,203.091 1903.14,208.454 1905.19,203.303 1907.23,205.999 1909.28,210.785 1911.32,205.883 1913.37,209.361 1915.41,213.124 1917.46,208.257 1919.5,211.928 1921.55,215.435 1923.59,209.265 1925.64,215.451 1927.68,216.326 1929.73,211.422 1931.77,219.511 1933.82,217.06 1935.86,215.789 1937.91,223.245 1939.95,218.857 1942,221.762 1944.04,226.584 1946.09,224.056 1948.13,226.74 1950.18,233.813 1952.22,229.764 1954.26,235.293 1956.31,242.344 1958.35,237.093 1960.4,246.47 1962.44,249.46 1964.49,247.68 1966.53,257.268 1968.58,257.096 1970.62,260.444 1972.67,264.978 1974.71,267.817 1976.76,270.733 1978.8,272.895 1980.85,278.452 1982.89,278.708 1984.94,283.309 1986.98,286.656 1989.03,287.889 1991.07,294.521 1993.12,293.921 1995.16,299.05 1997.21,303.374 1999.25,301.977 2001.3,309.427 2003.34,311.788 2005.38,309.767 2007.43,320.143 2009.47,318.915 2011.52,319.257 2013.56,329.393 2015.61,325.579 2017.65,329.822 2019.7,335.606 2021.74,332.951 2023.79,338.132 2025.83,340.353 2027.88,340.047 2029.92,345.726 2031.97,344.163 2034.01,350.096 2036.06,352.028 2038.1,352.794 2040.15,359.487 2042.19,359.013 2044.24,364.335 2046.28,368.405 2048.33,367.939 2050.37,377.344 2052.42,376.713 2054.46,379.783 2056.51,389.412 2058.55,384.291 2060.59,394.822 2062.64,396.825 2064.68,396.264 2066.73,405.934 2068.77,404.855 2070.82,407.623 2072.86,415.202 2074.91,413.144 2076.95,418.153 2079,423.756 2081.04,422.429 2083.09,428.863 2085.13,433.683 2087.18,432.217 2089.22,442.027 2091.27,443.981 2093.31,445.281 2095.36,457.486 2097.4,454.25 2099.45,463.166 2101.49,471.463 2103.54,468.297 2105.58,482.237 2107.63,483.709 2109.67,486.329 2111.71,497.374 2113.76,498.94 2115.8,502.935 2117.85,513.091 2119.89,513.161 2121.94,520.856 2123.98,527.338 2126.03,528.916 2128.07,538.516 2130.12,541.436 2132.16,547.614 2134.21,553.454 2136.25,558.18 2138.3,565.059 2140.34,567.887 2142.39,575.412 2144.43,579.077 2146.48,584.284 2148.52,589.262 2150.57,592.476 2152.61,599.476 2154.66,600.55 2156.7,607.615 2158.75,611.128 2160.79,613.491 2162.83,621.678 2164.88,621.894 2166.92,628.615 2168.97,634.12 2171.01,635.455 2173.06,643.624 2175.1,646.959 2177.15,651.212 2179.19,657.952 2181.24,661.522 2183.28,666.721 2185.33,671.995 2187.37,677.997 2189.42,683.118 2191.46,686.527 2193.51,696.418 2195.55,697.871 2197.6,702.211 2199.64,714.243 2201.69,710.631 2203.73,720.51 2205.78,729.843 2207.82,725.144 2209.87,740.753 2211.91,743.527 2213.95,742.728 2216,758.404 2218.04,758.381 2220.09,760.761 2222.13,775.392 2224.18,772.226 2226.22,779.945 2228.27,789.458 2230.31,787.216 2232.36,798.442 2234.4,801.779 2236.45,804.273 2238.49,814.071 2240.54,814.822 2242.58,820.925 2244.63,828.527 2246.67,827.715 2248.72,839.004 2250.76,840.334 2252.81,843.43 2254.85,855.505 2256.9,852.802 2258.94,861.133 2260.99,870.463 2263.03,866.588 2265.07,880.105 2267.12,883.87 2269.16,884.15 2271.21,898.203 2273.25,898.114 2275.3,904.741 2277.34,912.588 2279.39,916.01 2281.43,922.345 2283.48,926.934 2285.52,932.991 2287.57,937.599 2289.61,941.209 2291.66,948.756 "/>
<path clip-path="url(#clip140)" d="M1731.51 1438.47 L2280.8 1438.47 L2280.8 1282.95 L1731.51 1282.95  Z" fill="#ffffff" fill-rule="evenodd" fill-opacity="1"/>
<polyline clip-path="url(#clip140)" style="stroke:#000000; stroke-linecap:round; stroke-linejoin:round; stroke-width:4; stroke-opacity:1; fill:none" points="1731.51,1438.47 2280.8,1438.47 2280.8,1282.95 1731.51,1282.95 1731.51,1438.47 "/>
<polyline clip-path="url(#clip140)" style="stroke:#009af9; stroke-linecap:round; stroke-linejoin:round; stroke-width:4; stroke-opacity:1; fill:none" points="1755.5,1334.79 1899.42,1334.79 "/>
<path clip-path="url(#clip140)" d="M1935.31 1329.13 Q1931.88 1329.13 1929.89 1331.82 Q1927.9 1334.48 1927.9 1339.13 Q1927.9 1343.79 1929.87 1346.47 Q1931.86 1349.13 1935.31 1349.13 Q1938.71 1349.13 1940.7 1346.45 Q1942.69 1343.76 1942.69 1339.13 Q1942.69 1334.53 1940.7 1331.84 Q1938.71 1329.13 1935.31 1329.13 M1935.31 1325.52 Q1940.86 1325.52 1944.03 1329.13 Q1947.2 1332.75 1947.2 1339.13 Q1947.2 1345.5 1944.03 1349.13 Q1940.86 1352.75 1935.31 1352.75 Q1929.73 1352.75 1926.56 1349.13 Q1923.41 1345.5 1923.41 1339.13 Q1923.41 1332.75 1926.56 1329.13 Q1929.73 1325.52 1935.31 1325.52 Z" fill="#000000" fill-rule="nonzero" fill-opacity="1" /><path clip-path="url(#clip140)" d="M1975.81 1336.43 L1975.81 1352.07 L1971.56 1352.07 L1971.56 1336.57 Q1971.56 1332.88 1970.12 1331.06 Q1968.68 1329.23 1965.81 1329.23 Q1962.37 1329.23 1960.37 1331.43 Q1958.38 1333.63 1958.38 1337.42 L1958.38 1352.07 L1954.1 1352.07 L1954.1 1326.15 L1958.38 1326.15 L1958.38 1330.18 Q1959.91 1327.84 1961.97 1326.68 Q1964.06 1325.52 1966.76 1325.52 Q1971.23 1325.52 1973.52 1328.3 Q1975.81 1331.06 1975.81 1336.43 Z" fill="#000000" fill-rule="nonzero" fill-opacity="1" /><path clip-path="url(#clip140)" d="M2006.49 1338.05 L2006.49 1340.13 L1986.9 1340.13 Q1987.18 1344.53 1989.54 1346.84 Q1991.93 1349.13 1996.16 1349.13 Q1998.62 1349.13 2000.91 1348.53 Q2003.22 1347.93 2005.49 1346.73 L2005.49 1350.75 Q2003.2 1351.73 2000.79 1352.24 Q1998.38 1352.75 1995.91 1352.75 Q1989.7 1352.75 1986.07 1349.13 Q1982.46 1345.52 1982.46 1339.37 Q1982.46 1333 1985.88 1329.27 Q1989.33 1325.52 1995.17 1325.52 Q2000.4 1325.52 2003.43 1328.9 Q2006.49 1332.26 2006.49 1338.05 M2002.23 1336.8 Q2002.18 1333.3 2000.26 1331.22 Q1998.36 1329.13 1995.21 1329.13 Q1991.65 1329.13 1989.49 1331.15 Q1987.37 1333.16 1987.04 1336.82 L2002.23 1336.8 Z" fill="#000000" fill-rule="nonzero" fill-opacity="1" /><path clip-path="url(#clip140)" d="M2030 1326.91 L2030 1330.94 Q2028.2 1330.01 2026.25 1329.55 Q2024.31 1329.09 2022.23 1329.09 Q2019.05 1329.09 2017.46 1330.06 Q2015.88 1331.03 2015.88 1332.98 Q2015.88 1334.46 2017.02 1335.32 Q2018.15 1336.15 2021.58 1336.91 L2023.04 1337.24 Q2027.57 1338.21 2029.47 1339.99 Q2031.39 1341.75 2031.39 1344.92 Q2031.39 1348.53 2028.52 1350.64 Q2025.68 1352.75 2020.68 1352.75 Q2018.59 1352.75 2016.32 1352.33 Q2014.08 1351.94 2011.58 1351.13 L2011.58 1346.73 Q2013.94 1347.95 2016.23 1348.58 Q2018.52 1349.18 2020.77 1349.18 Q2023.78 1349.18 2025.4 1348.16 Q2027.02 1347.12 2027.02 1345.25 Q2027.02 1343.51 2025.84 1342.58 Q2024.68 1341.66 2020.72 1340.8 L2019.24 1340.45 Q2015.28 1339.62 2013.52 1337.91 Q2011.76 1336.17 2011.76 1333.16 Q2011.76 1329.51 2014.36 1327.51 Q2016.95 1325.52 2021.72 1325.52 Q2024.08 1325.52 2026.16 1325.87 Q2028.24 1326.22 2030 1326.91 Z" fill="#000000" fill-rule="nonzero" fill-opacity="1" /><path clip-path="url(#clip140)" d="M2042.39 1318.79 L2042.39 1326.15 L2051.16 1326.15 L2051.16 1329.46 L2042.39 1329.46 L2042.39 1343.53 Q2042.39 1346.7 2043.24 1347.61 Q2044.12 1348.51 2046.79 1348.51 L2051.16 1348.51 L2051.16 1352.07 L2046.79 1352.07 Q2041.86 1352.07 2039.98 1350.25 Q2038.11 1348.39 2038.11 1343.53 L2038.11 1329.46 L2034.98 1329.46 L2034.98 1326.15 L2038.11 1326.15 L2038.11 1318.79 L2042.39 1318.79 Z" fill="#000000" fill-rule="nonzero" fill-opacity="1" /><path clip-path="url(#clip140)" d="M2078.94 1338.05 L2078.94 1340.13 L2059.36 1340.13 Q2059.63 1344.53 2061.99 1346.84 Q2064.38 1349.13 2068.61 1349.13 Q2071.07 1349.13 2073.36 1348.53 Q2075.68 1347.93 2077.94 1346.73 L2077.94 1350.75 Q2075.65 1351.73 2073.24 1352.24 Q2070.84 1352.75 2068.36 1352.75 Q2062.16 1352.75 2058.52 1349.13 Q2054.91 1345.52 2054.91 1339.37 Q2054.91 1333 2058.34 1329.27 Q2061.79 1325.52 2067.62 1325.52 Q2072.85 1325.52 2075.88 1328.9 Q2078.94 1332.26 2078.94 1338.05 M2074.68 1336.8 Q2074.63 1333.3 2072.71 1331.22 Q2070.81 1329.13 2067.67 1329.13 Q2064.1 1329.13 2061.95 1331.15 Q2059.82 1333.16 2059.49 1336.82 L2074.68 1336.8 Z" fill="#000000" fill-rule="nonzero" fill-opacity="1" /><path clip-path="url(#clip140)" d="M2090.05 1348.19 L2090.05 1361.94 L2085.77 1361.94 L2085.77 1326.15 L2090.05 1326.15 L2090.05 1330.08 Q2091.39 1327.77 2093.43 1326.66 Q2095.49 1325.52 2098.34 1325.52 Q2103.06 1325.52 2106 1329.27 Q2108.96 1333.02 2108.96 1339.13 Q2108.96 1345.25 2106 1349 Q2103.06 1352.75 2098.34 1352.75 Q2095.49 1352.75 2093.43 1351.63 Q2091.39 1350.5 2090.05 1348.19 M2104.54 1339.13 Q2104.54 1334.44 2102.6 1331.77 Q2100.67 1329.09 2097.3 1329.09 Q2093.92 1329.09 2091.97 1331.77 Q2090.05 1334.44 2090.05 1339.13 Q2090.05 1343.83 2091.97 1346.52 Q2093.92 1349.18 2097.3 1349.18 Q2100.67 1349.18 2102.6 1346.52 Q2104.54 1343.83 2104.54 1339.13 Z" fill="#000000" fill-rule="nonzero" fill-opacity="1" /><path clip-path="url(#clip140)" d="M2135.21 1348.19 L2135.21 1361.94 L2130.93 1361.94 L2130.93 1326.15 L2135.21 1326.15 L2135.21 1330.08 Q2136.55 1327.77 2138.59 1326.66 Q2140.65 1325.52 2143.5 1325.52 Q2148.22 1325.52 2151.16 1329.27 Q2154.12 1333.02 2154.12 1339.13 Q2154.12 1345.25 2151.16 1349 Q2148.22 1352.75 2143.5 1352.75 Q2140.65 1352.75 2138.59 1351.63 Q2136.55 1350.5 2135.21 1348.19 M2149.7 1339.13 Q2149.7 1334.44 2147.76 1331.77 Q2145.84 1329.09 2142.46 1329.09 Q2139.08 1329.09 2137.13 1331.77 Q2135.21 1334.44 2135.21 1339.13 Q2135.21 1343.83 2137.13 1346.52 Q2139.08 1349.18 2142.46 1349.18 Q2145.84 1349.18 2147.76 1346.52 Q2149.7 1343.83 2149.7 1339.13 Z" fill="#000000" fill-rule="nonzero" fill-opacity="1" /><path clip-path="url(#clip140)" d="M2176.21 1330.13 Q2175.49 1329.71 2174.63 1329.53 Q2173.8 1329.32 2172.78 1329.32 Q2169.17 1329.32 2167.23 1331.68 Q2165.3 1334.02 2165.3 1338.42 L2165.3 1352.07 L2161.02 1352.07 L2161.02 1326.15 L2165.3 1326.15 L2165.3 1330.18 Q2166.65 1327.82 2168.8 1326.68 Q2170.95 1325.52 2174.03 1325.52 Q2174.47 1325.52 2175 1325.59 Q2175.54 1325.64 2176.18 1325.76 L2176.21 1330.13 Z" fill="#000000" fill-rule="nonzero" fill-opacity="1" /><path clip-path="url(#clip140)" d="M2201.81 1338.05 L2201.81 1340.13 L2182.23 1340.13 Q2182.5 1344.53 2184.86 1346.84 Q2187.25 1349.13 2191.48 1349.13 Q2193.94 1349.13 2196.23 1348.53 Q2198.54 1347.93 2200.81 1346.73 L2200.81 1350.75 Q2198.52 1351.73 2196.11 1352.24 Q2193.71 1352.75 2191.23 1352.75 Q2185.03 1352.75 2181.39 1349.13 Q2177.78 1345.52 2177.78 1339.37 Q2177.78 1333 2181.21 1329.27 Q2184.66 1325.52 2190.49 1325.52 Q2195.72 1325.52 2198.75 1328.9 Q2201.81 1332.26 2201.81 1338.05 M2197.55 1336.8 Q2197.5 1333.3 2195.58 1331.22 Q2193.68 1329.13 2190.54 1329.13 Q2186.97 1329.13 2184.82 1331.15 Q2182.69 1333.16 2182.36 1336.82 L2197.55 1336.8 Z" fill="#000000" fill-rule="nonzero" fill-opacity="1" /><path clip-path="url(#clip140)" d="M2225.86 1330.08 L2225.86 1316.06 L2230.12 1316.06 L2230.12 1352.07 L2225.86 1352.07 L2225.86 1348.19 Q2224.52 1350.5 2222.46 1351.63 Q2220.42 1352.75 2217.55 1352.75 Q2212.85 1352.75 2209.89 1349 Q2206.95 1345.25 2206.95 1339.13 Q2206.95 1333.02 2209.89 1329.27 Q2212.85 1325.52 2217.55 1325.52 Q2220.42 1325.52 2222.46 1326.66 Q2224.52 1327.77 2225.86 1330.08 M2211.35 1339.13 Q2211.35 1343.83 2213.27 1346.52 Q2215.21 1349.18 2218.59 1349.18 Q2221.97 1349.18 2223.92 1346.52 Q2225.86 1343.83 2225.86 1339.13 Q2225.86 1334.44 2223.92 1331.77 Q2221.97 1329.09 2218.59 1329.09 Q2215.21 1329.09 2213.27 1331.77 Q2211.35 1334.44 2211.35 1339.13 Z" fill="#000000" fill-rule="nonzero" fill-opacity="1" /><path clip-path="url(#clip140)" d="M2255.42 1326.91 L2255.42 1330.94 Q2253.61 1330.01 2251.67 1329.55 Q2249.73 1329.09 2247.64 1329.09 Q2244.47 1329.09 2242.87 1330.06 Q2241.3 1331.03 2241.3 1332.98 Q2241.3 1334.46 2242.43 1335.32 Q2243.57 1336.15 2246.99 1336.91 L2248.45 1337.24 Q2252.99 1338.21 2254.89 1339.99 Q2256.81 1341.75 2256.81 1344.92 Q2256.81 1348.53 2253.94 1350.64 Q2251.09 1352.75 2246.09 1352.75 Q2244.01 1352.75 2241.74 1352.33 Q2239.49 1351.94 2236.99 1351.13 L2236.99 1346.73 Q2239.35 1347.95 2241.65 1348.58 Q2243.94 1349.18 2246.18 1349.18 Q2249.19 1349.18 2250.81 1348.16 Q2252.43 1347.12 2252.43 1345.25 Q2252.43 1343.51 2251.25 1342.58 Q2250.1 1341.66 2246.14 1340.8 L2244.66 1340.45 Q2240.7 1339.62 2238.94 1337.91 Q2237.18 1336.17 2237.18 1333.16 Q2237.18 1329.51 2239.77 1327.51 Q2242.36 1325.52 2247.13 1325.52 Q2249.49 1325.52 2251.58 1325.87 Q2253.66 1326.22 2255.42 1326.91 Z" fill="#000000" fill-rule="nonzero" fill-opacity="1" /><polyline clip-path="url(#clip140)" style="stroke:#e26f46; stroke-linecap:round; stroke-linejoin:round; stroke-width:4; stroke-opacity:1; fill:none" points="1755.5,1386.63 1899.42,1386.63 "/>
<path clip-path="url(#clip140)" d="M1937.25 1406.32 Q1935.44 1410.95 1933.73 1412.36 Q1932.02 1413.78 1929.15 1413.78 L1925.75 1413.78 L1925.75 1410.21 L1928.25 1410.21 Q1930 1410.21 1930.98 1409.38 Q1931.95 1408.54 1933.13 1405.44 L1933.89 1403.5 L1923.41 1377.99 L1927.92 1377.99 L1936.02 1398.27 L1944.12 1377.99 L1948.64 1377.99 L1937.25 1406.32 Z" fill="#000000" fill-rule="nonzero" fill-opacity="1" /><path clip-path="url(#clip140)" d="M1959.15 1399.98 L1975.47 1399.98 L1975.47 1403.91 L1953.52 1403.91 L1953.52 1399.98 Q1956.18 1397.22 1960.77 1392.6 Q1965.37 1387.94 1966.56 1386.6 Q1968.8 1384.08 1969.68 1382.34 Q1970.58 1380.58 1970.58 1378.89 Q1970.58 1376.14 1968.64 1374.4 Q1966.72 1372.66 1963.62 1372.66 Q1961.42 1372.66 1958.96 1373.43 Q1956.53 1374.19 1953.75 1375.74 L1953.75 1371.02 Q1956.58 1369.89 1959.03 1369.31 Q1961.49 1368.73 1963.52 1368.73 Q1968.89 1368.73 1972.09 1371.41 Q1975.28 1374.1 1975.28 1378.59 Q1975.28 1380.72 1974.47 1382.64 Q1973.68 1384.54 1971.58 1387.13 Q1971 1387.8 1967.9 1391.02 Q1964.8 1394.22 1959.15 1399.98 Z" fill="#000000" fill-rule="nonzero" fill-opacity="1" /></svg>
