<?xml version="1.0" encoding="utf-8"?>
<svg xmlns="http://www.w3.org/2000/svg" xmlns:xlink="http://www.w3.org/1999/xlink" width="600" height="400" viewBox="0 0 2400 1600">
<defs>
  <clipPath id="clip420">
    <rect x="0" y="0" width="2400" height="1600"/>
  </clipPath>
</defs>
<path clip-path="url(#clip420)" d="M0 1600 L2400 1600 L2400 0 L0 0  Z" fill="#ffffff" fill-rule="evenodd" fill-opacity="1"/>
<defs>
  <clipPath id="clip421">
    <rect x="480" y="0" width="1681" height="1600"/>
  </clipPath>
</defs>
<path clip-path="url(#clip420)" d="M257.204 1423.18 L2352.76 1423.18 L2352.76 47.2441 L257.204 47.2441  Z" fill="#ffffff" fill-rule="evenodd" fill-opacity="1"/>
<defs>
  <clipPath id="clip422">
    <rect x="257" y="47" width="2097" height="1377"/>
  </clipPath>
</defs>
<polyline clip-path="url(#clip422)" style="stroke:#000000; stroke-linecap:round; stroke-linejoin:round; stroke-width:2; stroke-opacity:0.1; fill:none" points="314.533,1423.18 314.533,47.2441 "/>
<polyline clip-path="url(#clip422)" style="stroke:#000000; stroke-linecap:round; stroke-linejoin:round; stroke-width:2; stroke-opacity:0.1; fill:none" points="809.262,1423.18 809.262,47.2441 "/>
<polyline clip-path="url(#clip422)" style="stroke:#000000; stroke-linecap:round; stroke-linejoin:round; stroke-width:2; stroke-opacity:0.1; fill:none" points="1303.99,1423.18 1303.99,47.2441 "/>
<polyline clip-path="url(#clip422)" style="stroke:#000000; stroke-linecap:round; stroke-linejoin:round; stroke-width:2; stroke-opacity:0.1; fill:none" points="1798.72,1423.18 1798.72,47.2441 "/>
<polyline clip-path="url(#clip422)" style="stroke:#000000; stroke-linecap:round; stroke-linejoin:round; stroke-width:2; stroke-opacity:0.1; fill:none" points="2293.45,1423.18 2293.45,47.2441 "/>
<polyline clip-path="url(#clip422)" style="stroke:#000000; stroke-linecap:round; stroke-linejoin:round; stroke-width:2; stroke-opacity:0.1; fill:none" points="257.204,1378.01 2352.76,1378.01 "/>
<polyline clip-path="url(#clip422)" style="stroke:#000000; stroke-linecap:round; stroke-linejoin:round; stroke-width:2; stroke-opacity:0.1; fill:none" points="257.204,1156.98 2352.76,1156.98 "/>
<polyline clip-path="url(#clip422)" style="stroke:#000000; stroke-linecap:round; stroke-linejoin:round; stroke-width:2; stroke-opacity:0.1; fill:none" points="257.204,935.957 2352.76,935.957 "/>
<polyline clip-path="url(#clip422)" style="stroke:#000000; stroke-linecap:round; stroke-linejoin:round; stroke-width:2; stroke-opacity:0.1; fill:none" points="257.204,714.93 2352.76,714.93 "/>
<polyline clip-path="url(#clip422)" style="stroke:#000000; stroke-linecap:round; stroke-linejoin:round; stroke-width:2; stroke-opacity:0.1; fill:none" points="257.204,493.903 2352.76,493.903 "/>
<polyline clip-path="url(#clip422)" style="stroke:#000000; stroke-linecap:round; stroke-linejoin:round; stroke-width:2; stroke-opacity:0.1; fill:none" points="257.204,272.876 2352.76,272.876 "/>
<polyline clip-path="url(#clip422)" style="stroke:#000000; stroke-linecap:round; stroke-linejoin:round; stroke-width:2; stroke-opacity:0.1; fill:none" points="257.204,51.8484 2352.76,51.8484 "/>
<polyline clip-path="url(#clip420)" style="stroke:#000000; stroke-linecap:round; stroke-linejoin:round; stroke-width:4; stroke-opacity:1; fill:none" points="257.204,1423.18 2352.76,1423.18 "/>
<polyline clip-path="url(#clip420)" style="stroke:#000000; stroke-linecap:round; stroke-linejoin:round; stroke-width:4; stroke-opacity:1; fill:none" points="314.533,1423.18 314.533,1404.28 "/>
<polyline clip-path="url(#clip420)" style="stroke:#000000; stroke-linecap:round; stroke-linejoin:round; stroke-width:4; stroke-opacity:1; fill:none" points="809.262,1423.18 809.262,1404.28 "/>
<polyline clip-path="url(#clip420)" style="stroke:#000000; stroke-linecap:round; stroke-linejoin:round; stroke-width:4; stroke-opacity:1; fill:none" points="1303.99,1423.18 1303.99,1404.28 "/>
<polyline clip-path="url(#clip420)" style="stroke:#000000; stroke-linecap:round; stroke-linejoin:round; stroke-width:4; stroke-opacity:1; fill:none" points="1798.72,1423.18 1798.72,1404.28 "/>
<polyline clip-path="url(#clip420)" style="stroke:#000000; stroke-linecap:round; stroke-linejoin:round; stroke-width:4; stroke-opacity:1; fill:none" points="2293.45,1423.18 2293.45,1404.28 "/>
<path clip-path="url(#clip420)" d="M314.533 1454.1 Q310.922 1454.1 309.093 1457.66 Q307.288 1461.2 307.288 1468.33 Q307.288 1475.44 309.093 1479.01 Q310.922 1482.55 314.533 1482.55 Q318.167 1482.55 319.973 1479.01 Q321.802 1475.44 321.802 1468.33 Q321.802 1461.2 319.973 1457.66 Q318.167 1454.1 314.533 1454.1 M314.533 1450.39 Q320.343 1450.39 323.399 1455 Q326.478 1459.58 326.478 1468.33 Q326.478 1477.06 323.399 1481.67 Q320.343 1486.25 314.533 1486.25 Q308.723 1486.25 305.644 1481.67 Q302.589 1477.06 302.589 1468.33 Q302.589 1459.58 305.644 1455 Q308.723 1450.39 314.533 1450.39 Z" fill="#000000" fill-rule="nonzero" fill-opacity="1" /><path clip-path="url(#clip420)" d="M772.954 1481.64 L789.274 1481.64 L789.274 1485.58 L767.329 1485.58 L767.329 1481.64 Q769.991 1478.89 774.575 1474.26 Q779.181 1469.61 780.362 1468.27 Q782.607 1465.74 783.487 1464.01 Q784.389 1462.25 784.389 1460.56 Q784.389 1457.8 782.445 1456.07 Q780.524 1454.33 777.422 1454.33 Q775.223 1454.33 772.769 1455.09 Q770.338 1455.86 767.561 1457.41 L767.561 1452.69 Q770.385 1451.55 772.838 1450.97 Q775.292 1450.39 777.329 1450.39 Q782.699 1450.39 785.894 1453.08 Q789.088 1455.77 789.088 1460.26 Q789.088 1462.39 788.278 1464.31 Q787.491 1466.2 785.385 1468.8 Q784.806 1469.47 781.704 1472.69 Q778.602 1475.88 772.954 1481.64 Z" fill="#000000" fill-rule="nonzero" fill-opacity="1" /><path clip-path="url(#clip420)" d="M799.135 1451.02 L817.491 1451.02 L817.491 1454.96 L803.417 1454.96 L803.417 1463.43 Q804.435 1463.08 805.454 1462.92 Q806.473 1462.73 807.491 1462.73 Q813.278 1462.73 816.658 1465.9 Q820.037 1469.08 820.037 1474.49 Q820.037 1480.07 816.565 1483.17 Q813.093 1486.25 806.773 1486.25 Q804.598 1486.25 802.329 1485.88 Q800.084 1485.51 797.676 1484.77 L797.676 1480.07 Q799.76 1481.2 801.982 1481.76 Q804.204 1482.32 806.681 1482.32 Q810.685 1482.32 813.023 1480.21 Q815.361 1478.1 815.361 1474.49 Q815.361 1470.88 813.023 1468.77 Q810.685 1466.67 806.681 1466.67 Q804.806 1466.67 802.931 1467.08 Q801.079 1467.5 799.135 1468.38 L799.135 1451.02 Z" fill="#000000" fill-rule="nonzero" fill-opacity="1" /><path clip-path="url(#clip420)" d="M839.25 1454.1 Q835.639 1454.1 833.81 1457.66 Q832.005 1461.2 832.005 1468.33 Q832.005 1475.44 833.81 1479.01 Q835.639 1482.55 839.25 1482.55 Q842.884 1482.55 844.69 1479.01 Q846.519 1475.44 846.519 1468.33 Q846.519 1461.2 844.69 1457.66 Q842.884 1454.1 839.25 1454.1 M839.25 1450.39 Q845.06 1450.39 848.116 1455 Q851.194 1459.58 851.194 1468.33 Q851.194 1477.06 848.116 1481.67 Q845.06 1486.25 839.25 1486.25 Q833.44 1486.25 830.361 1481.67 Q827.306 1477.06 827.306 1468.33 Q827.306 1459.58 830.361 1455 Q833.44 1450.39 839.25 1450.39 Z" fill="#000000" fill-rule="nonzero" fill-opacity="1" /><path clip-path="url(#clip420)" d="M1263.61 1451.02 L1281.97 1451.02 L1281.97 1454.96 L1267.89 1454.96 L1267.89 1463.43 Q1268.91 1463.08 1269.93 1462.92 Q1270.95 1462.73 1271.97 1462.73 Q1277.75 1462.73 1281.13 1465.9 Q1284.51 1469.08 1284.51 1474.49 Q1284.51 1480.07 1281.04 1483.17 Q1277.57 1486.25 1271.25 1486.25 Q1269.07 1486.25 1266.8 1485.88 Q1264.56 1485.51 1262.15 1484.77 L1262.15 1480.07 Q1264.23 1481.2 1266.46 1481.76 Q1268.68 1482.32 1271.16 1482.32 Q1275.16 1482.32 1277.5 1480.21 Q1279.84 1478.1 1279.84 1474.49 Q1279.84 1470.88 1277.5 1468.77 Q1275.16 1466.67 1271.16 1466.67 Q1269.28 1466.67 1267.41 1467.08 Q1265.55 1467.5 1263.61 1468.38 L1263.61 1451.02 Z" fill="#000000" fill-rule="nonzero" fill-opacity="1" /><path clip-path="url(#clip420)" d="M1303.72 1454.1 Q1300.11 1454.1 1298.28 1457.66 Q1296.48 1461.2 1296.48 1468.33 Q1296.48 1475.44 1298.28 1479.01 Q1300.11 1482.55 1303.72 1482.55 Q1307.36 1482.55 1309.16 1479.01 Q1310.99 1475.44 1310.99 1468.33 Q1310.99 1461.2 1309.16 1457.66 Q1307.36 1454.1 1303.72 1454.1 M1303.72 1450.39 Q1309.53 1450.39 1312.59 1455 Q1315.67 1459.58 1315.67 1468.33 Q1315.67 1477.06 1312.59 1481.67 Q1309.53 1486.25 1303.72 1486.25 Q1297.91 1486.25 1294.84 1481.67 Q1291.78 1477.06 1291.78 1468.33 Q1291.78 1459.58 1294.84 1455 Q1297.91 1450.39 1303.72 1450.39 Z" fill="#000000" fill-rule="nonzero" fill-opacity="1" /><path clip-path="url(#clip420)" d="M1333.89 1454.1 Q1330.28 1454.1 1328.45 1457.66 Q1326.64 1461.2 1326.64 1468.33 Q1326.64 1475.44 1328.45 1479.01 Q1330.28 1482.55 1333.89 1482.55 Q1337.52 1482.55 1339.33 1479.01 Q1341.15 1475.44 1341.15 1468.33 Q1341.15 1461.2 1339.33 1457.66 Q1337.52 1454.1 1333.89 1454.1 M1333.89 1450.39 Q1339.7 1450.39 1342.75 1455 Q1345.83 1459.58 1345.83 1468.33 Q1345.83 1477.06 1342.75 1481.67 Q1339.7 1486.25 1333.89 1486.25 Q1328.08 1486.25 1325 1481.67 Q1321.94 1477.06 1321.94 1468.33 Q1321.94 1459.58 1325 1455 Q1328.08 1450.39 1333.89 1450.39 Z" fill="#000000" fill-rule="nonzero" fill-opacity="1" /><path clip-path="url(#clip420)" d="M1756.99 1451.02 L1779.22 1451.02 L1779.22 1453.01 L1766.67 1485.58 L1761.79 1485.58 L1773.59 1454.96 L1756.99 1454.96 L1756.99 1451.02 Z" fill="#000000" fill-rule="nonzero" fill-opacity="1" /><path clip-path="url(#clip420)" d="M1788.38 1451.02 L1806.74 1451.02 L1806.74 1454.96 L1792.67 1454.96 L1792.67 1463.43 Q1793.68 1463.08 1794.7 1462.92 Q1795.72 1462.73 1796.74 1462.73 Q1802.53 1462.73 1805.91 1465.9 Q1809.29 1469.08 1809.29 1474.49 Q1809.29 1480.07 1805.81 1483.17 Q1802.34 1486.25 1796.02 1486.25 Q1793.85 1486.25 1791.58 1485.88 Q1789.33 1485.51 1786.93 1484.77 L1786.93 1480.07 Q1789.01 1481.2 1791.23 1481.76 Q1793.45 1482.32 1795.93 1482.32 Q1799.93 1482.32 1802.27 1480.21 Q1804.61 1478.1 1804.61 1474.49 Q1804.61 1470.88 1802.27 1468.77 Q1799.93 1466.67 1795.93 1466.67 Q1794.05 1466.67 1792.18 1467.08 Q1790.33 1467.5 1788.38 1468.38 L1788.38 1451.02 Z" fill="#000000" fill-rule="nonzero" fill-opacity="1" /><path clip-path="url(#clip420)" d="M1828.5 1454.1 Q1824.89 1454.1 1823.06 1457.66 Q1821.25 1461.2 1821.25 1468.33 Q1821.25 1475.44 1823.06 1479.01 Q1824.89 1482.55 1828.5 1482.55 Q1832.13 1482.55 1833.94 1479.01 Q1835.77 1475.44 1835.77 1468.33 Q1835.77 1461.2 1833.94 1457.66 Q1832.13 1454.1 1828.5 1454.1 M1828.5 1450.39 Q1834.31 1450.39 1837.36 1455 Q1840.44 1459.58 1840.44 1468.33 Q1840.44 1477.06 1837.36 1481.67 Q1834.31 1486.25 1828.5 1486.25 Q1822.69 1486.25 1819.61 1481.67 Q1816.55 1477.06 1816.55 1468.33 Q1816.55 1459.58 1819.61 1455 Q1822.69 1450.39 1828.5 1450.39 Z" fill="#000000" fill-rule="nonzero" fill-opacity="1" /><path clip-path="url(#clip420)" d="M2237.97 1481.64 L2245.61 1481.64 L2245.61 1455.28 L2237.3 1456.95 L2237.3 1452.69 L2245.57 1451.02 L2250.24 1451.02 L2250.24 1481.64 L2257.88 1481.64 L2257.88 1485.58 L2237.97 1485.58 L2237.97 1481.64 Z" fill="#000000" fill-rule="nonzero" fill-opacity="1" /><path clip-path="url(#clip420)" d="M2277.33 1454.1 Q2273.71 1454.1 2271.89 1457.66 Q2270.08 1461.2 2270.08 1468.33 Q2270.08 1475.44 2271.89 1479.01 Q2273.71 1482.55 2277.33 1482.55 Q2280.96 1482.55 2282.77 1479.01 Q2284.59 1475.44 2284.59 1468.33 Q2284.59 1461.2 2282.77 1457.66 Q2280.96 1454.1 2277.33 1454.1 M2277.33 1450.39 Q2283.14 1450.39 2286.19 1455 Q2289.27 1459.58 2289.27 1468.33 Q2289.27 1477.06 2286.19 1481.67 Q2283.14 1486.25 2277.33 1486.25 Q2271.52 1486.25 2268.44 1481.67 Q2265.38 1477.06 2265.38 1468.33 Q2265.38 1459.58 2268.44 1455 Q2271.52 1450.39 2277.33 1450.39 Z" fill="#000000" fill-rule="nonzero" fill-opacity="1" /><path clip-path="url(#clip420)" d="M2307.49 1454.1 Q2303.88 1454.1 2302.05 1457.66 Q2300.24 1461.2 2300.24 1468.33 Q2300.24 1475.44 2302.05 1479.01 Q2303.88 1482.55 2307.49 1482.55 Q2311.12 1482.55 2312.93 1479.01 Q2314.76 1475.44 2314.76 1468.33 Q2314.76 1461.2 2312.93 1457.66 Q2311.12 1454.1 2307.49 1454.1 M2307.49 1450.39 Q2313.3 1450.39 2316.35 1455 Q2319.43 1459.58 2319.43 1468.33 Q2319.43 1477.06 2316.35 1481.67 Q2313.3 1486.25 2307.49 1486.25 Q2301.68 1486.25 2298.6 1481.67 Q2295.54 1477.06 2295.54 1468.33 Q2295.54 1459.58 2298.6 1455 Q2301.68 1450.39 2307.49 1450.39 Z" fill="#000000" fill-rule="nonzero" fill-opacity="1" /><path clip-path="url(#clip420)" d="M2337.65 1454.1 Q2334.04 1454.1 2332.21 1457.66 Q2330.4 1461.2 2330.4 1468.33 Q2330.4 1475.44 2332.21 1479.01 Q2334.04 1482.55 2337.65 1482.55 Q2341.28 1482.55 2343.09 1479.01 Q2344.92 1475.44 2344.92 1468.33 Q2344.92 1461.2 2343.09 1457.66 Q2341.28 1454.1 2337.65 1454.1 M2337.65 1450.39 Q2343.46 1450.39 2346.51 1455 Q2349.59 1459.58 2349.59 1468.33 Q2349.59 1477.06 2346.51 1481.67 Q2343.46 1486.25 2337.65 1486.25 Q2331.84 1486.25 2328.76 1481.67 Q2325.7 1477.06 2325.7 1468.33 Q2325.7 1459.58 2328.76 1455 Q2331.84 1450.39 2337.65 1450.39 Z" fill="#000000" fill-rule="nonzero" fill-opacity="1" /><path clip-path="url(#clip420)" d="M1244.14 1522.27 L1244.14 1532.4 L1256.2 1532.4 L1256.2 1536.95 L1244.14 1536.95 L1244.14 1556.3 Q1244.14 1560.66 1245.32 1561.9 Q1246.53 1563.14 1250.19 1563.14 L1256.2 1563.14 L1256.2 1568.04 L1250.19 1568.04 Q1243.41 1568.04 1240.83 1565.53 Q1238.25 1562.98 1238.25 1556.3 L1238.25 1536.95 L1233.95 1536.95 L1233.95 1532.4 L1238.25 1532.4 L1238.25 1522.27 L1244.14 1522.27 Z" fill="#000000" fill-rule="nonzero" fill-opacity="1" /><path clip-path="url(#clip420)" d="M1263.91 1532.4 L1269.76 1532.4 L1269.76 1568.04 L1263.91 1568.04 L1263.91 1532.4 M1263.91 1518.52 L1269.76 1518.52 L1269.76 1525.93 L1263.91 1525.93 L1263.91 1518.52 Z" fill="#000000" fill-rule="nonzero" fill-opacity="1" /><path clip-path="url(#clip420)" d="M1309.77 1539.24 Q1311.97 1535.29 1315.02 1533.41 Q1318.08 1531.54 1322.22 1531.54 Q1327.79 1531.54 1330.81 1535.45 Q1333.83 1539.33 1333.83 1546.53 L1333.83 1568.04 L1327.94 1568.04 L1327.94 1546.72 Q1327.94 1541.59 1326.13 1539.11 Q1324.32 1536.63 1320.59 1536.63 Q1316.04 1536.63 1313.4 1539.65 Q1310.76 1542.68 1310.76 1547.9 L1310.76 1568.04 L1304.87 1568.04 L1304.87 1546.72 Q1304.87 1541.56 1303.05 1539.11 Q1301.24 1536.63 1297.45 1536.63 Q1292.96 1536.63 1290.32 1539.68 Q1287.68 1542.71 1287.68 1547.9 L1287.68 1568.04 L1281.79 1568.04 L1281.79 1532.4 L1287.68 1532.4 L1287.68 1537.93 Q1289.69 1534.66 1292.49 1533.1 Q1295.29 1531.54 1299.14 1531.54 Q1303.02 1531.54 1305.73 1533.51 Q1308.47 1535.48 1309.77 1539.24 Z" fill="#000000" fill-rule="nonzero" fill-opacity="1" /><path clip-path="url(#clip420)" d="M1376.01 1548.76 L1376.01 1551.62 L1349.08 1551.62 Q1349.46 1557.67 1352.71 1560.85 Q1355.99 1564 1361.81 1564 Q1365.18 1564 1368.33 1563.17 Q1371.52 1562.35 1374.64 1560.69 L1374.64 1566.23 Q1371.49 1567.57 1368.18 1568.27 Q1364.87 1568.97 1361.46 1568.97 Q1352.93 1568.97 1347.93 1564 Q1342.97 1559.04 1342.97 1550.57 Q1342.97 1541.82 1347.68 1536.69 Q1352.42 1531.54 1360.44 1531.54 Q1367.63 1531.54 1371.8 1536.18 Q1376.01 1540.8 1376.01 1548.76 M1370.15 1547.04 Q1370.09 1542.23 1367.44 1539.37 Q1364.83 1536.5 1360.5 1536.5 Q1355.6 1536.5 1352.64 1539.27 Q1349.71 1542.04 1349.27 1547.07 L1370.15 1547.04 Z" fill="#000000" fill-rule="nonzero" fill-opacity="1" /><polyline clip-path="url(#clip420)" style="stroke:#000000; stroke-linecap:round; stroke-linejoin:round; stroke-width:4; stroke-opacity:1; fill:none" points="257.204,1423.18 257.204,47.2441 "/>
<polyline clip-path="url(#clip420)" style="stroke:#000000; stroke-linecap:round; stroke-linejoin:round; stroke-width:4; stroke-opacity:1; fill:none" points="257.204,1378.01 276.102,1378.01 "/>
<polyline clip-path="url(#clip420)" style="stroke:#000000; stroke-linecap:round; stroke-linejoin:round; stroke-width:4; stroke-opacity:1; fill:none" points="257.204,1156.98 276.102,1156.98 "/>
<polyline clip-path="url(#clip420)" style="stroke:#000000; stroke-linecap:round; stroke-linejoin:round; stroke-width:4; stroke-opacity:1; fill:none" points="257.204,935.957 276.102,935.957 "/>
<polyline clip-path="url(#clip420)" style="stroke:#000000; stroke-linecap:round; stroke-linejoin:round; stroke-width:4; stroke-opacity:1; fill:none" points="257.204,714.93 276.102,714.93 "/>
<polyline clip-path="url(#clip420)" style="stroke:#000000; stroke-linecap:round; stroke-linejoin:round; stroke-width:4; stroke-opacity:1; fill:none" points="257.204,493.903 276.102,493.903 "/>
<polyline clip-path="url(#clip420)" style="stroke:#000000; stroke-linecap:round; stroke-linejoin:round; stroke-width:4; stroke-opacity:1; fill:none" points="257.204,272.876 276.102,272.876 "/>
<polyline clip-path="url(#clip420)" style="stroke:#000000; stroke-linecap:round; stroke-linejoin:round; stroke-width:4; stroke-opacity:1; fill:none" points="257.204,51.8484 276.102,51.8484 "/>
<path clip-path="url(#clip420)" d="M115.256 1378.46 L144.931 1378.46 L144.931 1382.4 L115.256 1382.4 L115.256 1378.46 Z" fill="#000000" fill-rule="nonzero" fill-opacity="1" /><path clip-path="url(#clip420)" d="M155.834 1391.36 L163.473 1391.36 L163.473 1364.99 L155.163 1366.66 L155.163 1362.4 L163.427 1360.73 L168.102 1360.73 L168.102 1391.36 L175.741 1391.36 L175.741 1395.29 L155.834 1395.29 L155.834 1391.36 Z" fill="#000000" fill-rule="nonzero" fill-opacity="1" /><path clip-path="url(#clip420)" d="M185.186 1389.41 L190.07 1389.41 L190.07 1395.29 L185.186 1395.29 L185.186 1389.41 Z" fill="#000000" fill-rule="nonzero" fill-opacity="1" /><path clip-path="url(#clip420)" d="M200.301 1360.73 L218.658 1360.73 L218.658 1364.67 L204.584 1364.67 L204.584 1373.14 Q205.602 1372.79 206.621 1372.63 Q207.639 1372.44 208.658 1372.44 Q214.445 1372.44 217.824 1375.62 Q221.204 1378.79 221.204 1384.2 Q221.204 1389.78 217.732 1392.88 Q214.26 1395.96 207.94 1395.96 Q205.764 1395.96 203.496 1395.59 Q201.25 1395.22 198.843 1394.48 L198.843 1389.78 Q200.926 1390.92 203.149 1391.47 Q205.371 1392.03 207.848 1392.03 Q211.852 1392.03 214.19 1389.92 Q216.528 1387.82 216.528 1384.2 Q216.528 1380.59 214.19 1378.49 Q211.852 1376.38 207.848 1376.38 Q205.973 1376.38 204.098 1376.8 Q202.246 1377.21 200.301 1378.09 L200.301 1360.73 Z" fill="#000000" fill-rule="nonzero" fill-opacity="1" /><path clip-path="url(#clip420)" d="M114.26 1157.44 L143.936 1157.44 L143.936 1161.37 L114.26 1161.37 L114.26 1157.44 Z" fill="#000000" fill-rule="nonzero" fill-opacity="1" /><path clip-path="url(#clip420)" d="M154.839 1170.33 L162.477 1170.33 L162.477 1143.96 L154.167 1145.63 L154.167 1141.37 L162.431 1139.7 L167.107 1139.7 L167.107 1170.33 L174.746 1170.33 L174.746 1174.26 L154.839 1174.26 L154.839 1170.33 Z" fill="#000000" fill-rule="nonzero" fill-opacity="1" /><path clip-path="url(#clip420)" d="M184.19 1168.39 L189.075 1168.39 L189.075 1174.26 L184.19 1174.26 L184.19 1168.39 Z" fill="#000000" fill-rule="nonzero" fill-opacity="1" /><path clip-path="url(#clip420)" d="M209.26 1142.78 Q205.649 1142.78 203.82 1146.35 Q202.014 1149.89 202.014 1157.02 Q202.014 1164.13 203.82 1167.69 Q205.649 1171.23 209.26 1171.23 Q212.894 1171.23 214.699 1167.69 Q216.528 1164.13 216.528 1157.02 Q216.528 1149.89 214.699 1146.35 Q212.894 1142.78 209.26 1142.78 M209.26 1139.08 Q215.07 1139.08 218.125 1143.69 Q221.204 1148.27 221.204 1157.02 Q221.204 1165.75 218.125 1170.35 Q215.07 1174.94 209.26 1174.94 Q203.449 1174.94 200.371 1170.35 Q197.315 1165.75 197.315 1157.02 Q197.315 1148.27 200.371 1143.69 Q203.449 1139.08 209.26 1139.08 Z" fill="#000000" fill-rule="nonzero" fill-opacity="1" /><path clip-path="url(#clip420)" d="M115.256 936.409 L144.931 936.409 L144.931 940.344 L115.256 940.344 L115.256 936.409 Z" fill="#000000" fill-rule="nonzero" fill-opacity="1" /><path clip-path="url(#clip420)" d="M165.024 921.756 Q161.413 921.756 159.584 925.321 Q157.778 928.863 157.778 935.992 Q157.778 943.099 159.584 946.663 Q161.413 950.205 165.024 950.205 Q168.658 950.205 170.464 946.663 Q172.292 943.099 172.292 935.992 Q172.292 928.863 170.464 925.321 Q168.658 921.756 165.024 921.756 M165.024 918.052 Q170.834 918.052 173.889 922.659 Q176.968 927.242 176.968 935.992 Q176.968 944.719 173.889 949.325 Q170.834 953.909 165.024 953.909 Q159.214 953.909 156.135 949.325 Q153.079 944.719 153.079 935.992 Q153.079 927.242 156.135 922.659 Q159.214 918.052 165.024 918.052 Z" fill="#000000" fill-rule="nonzero" fill-opacity="1" /><path clip-path="url(#clip420)" d="M185.186 947.358 L190.07 947.358 L190.07 953.237 L185.186 953.237 L185.186 947.358 Z" fill="#000000" fill-rule="nonzero" fill-opacity="1" /><path clip-path="url(#clip420)" d="M200.301 918.677 L218.658 918.677 L218.658 922.613 L204.584 922.613 L204.584 931.085 Q205.602 930.738 206.621 930.575 Q207.639 930.39 208.658 930.39 Q214.445 930.39 217.824 933.562 Q221.204 936.733 221.204 942.149 Q221.204 947.728 217.732 950.83 Q214.26 953.909 207.94 953.909 Q205.764 953.909 203.496 953.538 Q201.25 953.168 198.843 952.427 L198.843 947.728 Q200.926 948.862 203.149 949.418 Q205.371 949.974 207.848 949.974 Q211.852 949.974 214.19 947.867 Q216.528 945.761 216.528 942.149 Q216.528 938.538 214.19 936.432 Q211.852 934.325 207.848 934.325 Q205.973 934.325 204.098 934.742 Q202.246 935.159 200.301 936.038 L200.301 918.677 Z" fill="#000000" fill-rule="nonzero" fill-opacity="1" /><path clip-path="url(#clip420)" d="M164.028 700.729 Q160.417 700.729 158.589 704.294 Q156.783 707.835 156.783 714.965 Q156.783 722.071 158.589 725.636 Q160.417 729.178 164.028 729.178 Q167.663 729.178 169.468 725.636 Q171.297 722.071 171.297 714.965 Q171.297 707.835 169.468 704.294 Q167.663 700.729 164.028 700.729 M164.028 697.025 Q169.839 697.025 172.894 701.632 Q175.973 706.215 175.973 714.965 Q175.973 723.692 172.894 728.298 Q169.839 732.881 164.028 732.881 Q158.218 732.881 155.14 728.298 Q152.084 723.692 152.084 714.965 Q152.084 706.215 155.14 701.632 Q158.218 697.025 164.028 697.025 Z" fill="#000000" fill-rule="nonzero" fill-opacity="1" /><path clip-path="url(#clip420)" d="M184.19 726.331 L189.075 726.331 L189.075 732.21 L184.19 732.21 L184.19 726.331 Z" fill="#000000" fill-rule="nonzero" fill-opacity="1" /><path clip-path="url(#clip420)" d="M209.26 700.729 Q205.649 700.729 203.82 704.294 Q202.014 707.835 202.014 714.965 Q202.014 722.071 203.82 725.636 Q205.649 729.178 209.26 729.178 Q212.894 729.178 214.699 725.636 Q216.528 722.071 216.528 714.965 Q216.528 707.835 214.699 704.294 Q212.894 700.729 209.26 700.729 M209.26 697.025 Q215.07 697.025 218.125 701.632 Q221.204 706.215 221.204 714.965 Q221.204 723.692 218.125 728.298 Q215.07 732.881 209.26 732.881 Q203.449 732.881 200.371 728.298 Q197.315 723.692 197.315 714.965 Q197.315 706.215 200.371 701.632 Q203.449 697.025 209.26 697.025 Z" fill="#000000" fill-rule="nonzero" fill-opacity="1" /><path clip-path="url(#clip420)" d="M165.024 479.702 Q161.413 479.702 159.584 483.266 Q157.778 486.808 157.778 493.938 Q157.778 501.044 159.584 504.609 Q161.413 508.15 165.024 508.15 Q168.658 508.15 170.464 504.609 Q172.292 501.044 172.292 493.938 Q172.292 486.808 170.464 483.266 Q168.658 479.702 165.024 479.702 M165.024 475.998 Q170.834 475.998 173.889 480.604 Q176.968 485.188 176.968 493.938 Q176.968 502.664 173.889 507.271 Q170.834 511.854 165.024 511.854 Q159.214 511.854 156.135 507.271 Q153.079 502.664 153.079 493.938 Q153.079 485.188 156.135 480.604 Q159.214 475.998 165.024 475.998 Z" fill="#000000" fill-rule="nonzero" fill-opacity="1" /><path clip-path="url(#clip420)" d="M185.186 505.303 L190.07 505.303 L190.07 511.183 L185.186 511.183 L185.186 505.303 Z" fill="#000000" fill-rule="nonzero" fill-opacity="1" /><path clip-path="url(#clip420)" d="M200.301 476.623 L218.658 476.623 L218.658 480.558 L204.584 480.558 L204.584 489.03 Q205.602 488.683 206.621 488.521 Q207.639 488.336 208.658 488.336 Q214.445 488.336 217.824 491.507 Q221.204 494.678 221.204 500.095 Q221.204 505.674 217.732 508.775 Q214.26 511.854 207.94 511.854 Q205.764 511.854 203.496 511.484 Q201.25 511.113 198.843 510.373 L198.843 505.674 Q200.926 506.808 203.149 507.363 Q205.371 507.919 207.848 507.919 Q211.852 507.919 214.19 505.813 Q216.528 503.706 216.528 500.095 Q216.528 496.484 214.19 494.377 Q211.852 492.271 207.848 492.271 Q205.973 492.271 204.098 492.688 Q202.246 493.104 200.301 493.984 L200.301 476.623 Z" fill="#000000" fill-rule="nonzero" fill-opacity="1" /><path clip-path="url(#clip420)" d="M154.839 286.22 L162.477 286.22 L162.477 259.855 L154.167 261.522 L154.167 257.262 L162.431 255.596 L167.107 255.596 L167.107 286.22 L174.746 286.22 L174.746 290.156 L154.839 290.156 L154.839 286.22 Z" fill="#000000" fill-rule="nonzero" fill-opacity="1" /><path clip-path="url(#clip420)" d="M184.19 284.276 L189.075 284.276 L189.075 290.156 L184.19 290.156 L184.19 284.276 Z" fill="#000000" fill-rule="nonzero" fill-opacity="1" /><path clip-path="url(#clip420)" d="M209.26 258.674 Q205.649 258.674 203.82 262.239 Q202.014 265.781 202.014 272.91 Q202.014 280.017 203.82 283.582 Q205.649 287.123 209.26 287.123 Q212.894 287.123 214.699 283.582 Q216.528 280.017 216.528 272.91 Q216.528 265.781 214.699 262.239 Q212.894 258.674 209.26 258.674 M209.26 254.971 Q215.07 254.971 218.125 259.577 Q221.204 264.16 221.204 272.91 Q221.204 281.637 218.125 286.244 Q215.07 290.827 209.26 290.827 Q203.449 290.827 200.371 286.244 Q197.315 281.637 197.315 272.91 Q197.315 264.16 200.371 259.577 Q203.449 254.971 209.26 254.971 Z" fill="#000000" fill-rule="nonzero" fill-opacity="1" /><path clip-path="url(#clip420)" d="M155.834 65.1932 L163.473 65.1932 L163.473 38.8276 L155.163 40.4942 L155.163 36.235 L163.427 34.5684 L168.102 34.5684 L168.102 65.1932 L175.741 65.1932 L175.741 69.1284 L155.834 69.1284 L155.834 65.1932 Z" fill="#000000" fill-rule="nonzero" fill-opacity="1" /><path clip-path="url(#clip420)" d="M185.186 63.2488 L190.07 63.2488 L190.07 69.1284 L185.186 69.1284 L185.186 63.2488 Z" fill="#000000" fill-rule="nonzero" fill-opacity="1" /><path clip-path="url(#clip420)" d="M200.301 34.5684 L218.658 34.5684 L218.658 38.5035 L204.584 38.5035 L204.584 46.9757 Q205.602 46.6285 206.621 46.4664 Q207.639 46.2813 208.658 46.2813 Q214.445 46.2813 217.824 49.4525 Q221.204 52.6238 221.204 58.0405 Q221.204 63.6191 217.732 66.721 Q214.26 69.7996 207.94 69.7996 Q205.764 69.7996 203.496 69.4293 Q201.25 69.0589 198.843 68.3182 L198.843 63.6191 Q200.926 64.7534 203.149 65.3089 Q205.371 65.8645 207.848 65.8645 Q211.852 65.8645 214.19 63.758 Q216.528 61.6515 216.528 58.0405 Q216.528 54.4294 214.19 52.3229 Q211.852 50.2164 207.848 50.2164 Q205.973 50.2164 204.098 50.6331 Q202.246 51.0497 200.301 51.9294 L200.301 34.5684 Z" fill="#000000" fill-rule="nonzero" fill-opacity="1" /><path clip-path="url(#clip420)" d="M16.4842 753.386 L16.4842 746.479 L34.149 734.671 L16.4842 722.799 L16.4842 715.892 L39.3052 731.17 L64.0042 714.874 L64.0042 721.78 L43.793 735.148 L64.0042 748.612 L64.0042 755.55 L38.6368 738.586 L16.4842 753.386 Z" fill="#000000" fill-rule="nonzero" fill-opacity="1" /><polyline clip-path="url(#clip422)" style="stroke:#009af9; stroke-linecap:round; stroke-linejoin:round; stroke-width:4; stroke-opacity:1; fill:none" points="316.512,635.45 318.491,754.926 320.47,681.868 322.449,657.713 324.428,788.555 326.407,702.152 328.386,900.035 330.365,721.174 332.343,676.213 334.322,545.649 336.301,628.112 338.28,667.199 340.259,793.971 342.238,580.677 344.217,623.833 346.196,671.985 348.175,693.484 350.154,506.934 352.133,636.755 354.111,557.819 356.09,861.033 358.069,538.398 360.048,626.106 362.027,708.504 364.006,501.714 365.985,707.98 367.964,574.174 369.943,717.838 371.922,567.365 373.901,722.66 375.88,515.236 377.858,715.829 379.837,560.988 381.816,506.079 383.795,565.587 385.774,601.631 387.753,534.41 389.732,594.883 391.711,519.486 393.69,361.89 395.669,590.486 397.648,559.783 399.627,637.659 401.605,469.249 403.584,290.053 405.563,470.012 407.542,488.132 409.521,637.319 411.5,593.355 413.479,392.919 415.458,444.767 417.437,299.486 419.416,344.865 421.395,582.315 423.373,557.653 425.352,433.087 427.331,568.606 429.31,470.932 431.289,549.435 433.268,517.785 435.247,392.767 437.226,491.363 439.205,508.168 441.184,560.082 443.163,342.851 445.142,579.618 447.12,464.424 449.099,325.801 451.078,483.964 453.057,522.397 455.036,266.164 457.015,614.151 458.994,231.589 460.973,482.171 462.952,494.189 464.931,583.264 466.91,398.129 468.889,371.323 470.867,417.887 472.846,444.789 474.825,320.315 476.804,377.781 478.783,386.044 480.762,490.205 482.741,281.875 484.72,286.303 486.699,408.026 488.678,485.174 490.657,411.519 492.636,418.915 494.614,284.049 496.593,482.008 498.572,296.806 500.551,300.963 502.53,255.62 504.509,398.862 506.488,284.26 508.467,281.999 510.446,367.903 512.425,363.389 514.404,453.743 516.382,284.249 518.361,434.946 520.34,463.398 522.319,356.59 524.298,302.395 526.277,391.133 528.256,409.387 530.235,313.276 532.214,305.562 534.193,280.955 536.172,233.859 538.151,504.057 540.129,403.679 542.108,177.266 544.087,248.189 546.066,457.646 548.045,296.261 550.024,316.428 552.003,295.844 553.982,384.007 555.961,357.739 557.94,308.701 559.919,297.714 561.898,290.909 563.876,474.139 565.855,171.82 567.834,260.709 569.813,244.187 571.792,204.771 573.771,295.214 575.75,282.743 577.729,292.808 579.708,153.776 581.687,106.823 583.666,306.427 585.644,224.126 587.623,185.731 589.602,110.456 591.581,248.208 593.56,377.337 595.539,308.578 597.518,318.092 599.497,343.723 601.476,159.201 603.455,271.339 605.434,304.743 607.413,267.006 609.391,299.333 611.37,303.073 613.349,456.777 615.328,127.419 617.307,327.749 619.286,383.023 621.265,175.976 623.244,263.431 625.223,274.035 627.202,196.719 629.181,130.228 631.16,256.634 633.138,261.632 635.117,378.978 637.096,175.343 639.075,244.735 641.054,369.42 643.033,104.153 645.012,361.431 646.991,86.1857 648.97,331.548 650.949,302.542 652.928,384.531 654.907,364.632 656.885,301.177 658.864,332.404 660.843,446.61 662.822,355.609 664.801,324.127 666.78,168.506 668.759,286.823 670.738,271.193 672.717,324.841 674.696,381.33 676.675,367.454 678.653,232.543 680.632,346.088 682.611,330.879 684.59,162.256 686.569,463.607 688.548,403.55 690.527,334.078 692.506,416.768 694.485,193.3 696.464,516.572 698.443,350.589 700.422,206.976 702.4,377.548 704.379,276.449 706.358,346.071 708.337,152.458 710.316,242.876 712.295,327.486 714.274,269.038 716.253,218.618 718.232,428.81 720.211,338.252 722.19,143.893 724.169,284.308 726.147,326.07 728.126,398.124 730.105,442.276 732.084,433.449 734.063,181.277 736.042,314.421 738.021,244.491 740,251.491 741.979,341.217 743.958,324.564 745.937,649.838 747.915,333.672 749.894,251.744 751.873,370.246 753.852,242.728 755.831,406.09 757.81,430.198 759.789,273.249 761.768,360.524 763.747,464.181 765.726,523.36 767.705,300.435 769.684,415.711 771.662,535.733 773.641,323.013 775.62,341.768 777.599,244.253 779.578,304.067 781.557,344.377 783.536,267.001 785.515,466.618 787.494,556.008 789.473,461.656 791.452,350.026 793.431,303.254 795.409,463.949 797.388,533.337 799.367,379.672 801.346,271.607 803.325,479.504 805.304,362.963 807.283,391.37 809.262,340.173 811.241,397.958 813.22,477.118 815.199,350.579 817.178,579.717 819.156,414.719 821.135,400.336 823.114,585.899 825.093,444.718 827.072,475.644 829.051,511.848 831.03,490.95 833.009,395.132 834.988,509.067 836.967,602.494 838.946,514.739 840.924,530.929 842.903,535.131 844.882,338.748 846.861,526.893 848.84,401.402 850.819,495.115 852.798,652.608 854.777,629.385 856.756,341.319 858.735,608.093 860.714,536.307 862.693,319.039 864.671,653.86 866.65,484.122 868.629,658.471 870.608,648.793 872.587,537.575 874.566,604.075 876.545,508.159 878.524,604.914 880.503,660.774 882.482,685.126 884.461,592.961 886.44,514.249 888.418,611.686 890.397,550.703 892.376,515.422 894.355,411.34 896.334,649.185 898.313,649.493 900.292,732.105 902.271,669.806 904.25,700.257 906.229,743.143 908.208,767.311 910.186,705.697 912.165,549.788 914.144,802.957 916.123,801.918 918.102,644.513 920.081,589.72 922.06,637.924 924.039,797.697 926.018,747.767 927.997,781.847 929.976,542.754 931.955,663.06 933.933,770.103 935.912,803.429 937.891,704.705 939.87,859.964 941.849,803.857 943.828,524.967 945.807,879.642 947.786,838.548 949.765,826.114 951.744,816.834 953.723,885.561 955.702,927.53 957.68,696.446 959.659,694.642 961.638,882.694 963.617,824.681 965.596,641.014 967.575,682.886 969.554,810.361 971.533,787.188 973.512,913.861 975.491,830.068 977.47,774.635 979.449,835.665 981.427,742.442 983.406,740.177 985.385,848.663 987.364,899.377 989.343,896.058 991.322,639.143 993.301,923.027 995.28,748.639 997.259,770.662 999.238,813.987 1001.22,797.957 1003.2,903.156 1005.17,888.792 1007.15,844.999 1009.13,887.567 1011.11,915.226 1013.09,845.731 1015.07,890.693 1017.05,1020.28 1019.03,981.745 1021.01,867.155 1022.98,883.508 1024.96,932.254 1026.94,989.713 1028.92,996.556 1030.9,747.53 1032.88,1033.89 1034.86,820.356 1036.84,943.008 1038.82,993.18 1040.79,893.313 1042.77,849.077 1044.75,910.098 1046.73,838.341 1048.71,950.297 1050.69,1034.92 1052.67,960.245 1054.65,1058.35 1056.63,1027.81 1058.61,998.625 1060.58,998.069 1062.56,1034.61 1064.54,984.921 1066.52,1122.92 1068.5,1011.48 1070.48,1039.6 1072.46,885.444 1074.44,1066 1076.42,990.705 1078.39,893.262 1080.37,958.655 1082.35,1087.93 1084.33,999.409 1086.31,863.45 1088.29,1018.57 1090.27,951.174 1092.25,1082.24 1094.23,983.771 1096.2,1059.18 1098.18,901.925 1100.16,955.678 1102.14,1040.68 1104.12,1007.35 1106.1,1029.01 1108.08,1131.51 1110.06,960.763 1112.04,1002.05 1114.01,1100.77 1115.99,1191.31 1117.97,1198.29 1119.95,919.471 1121.93,1218.33 1123.91,1068.98 1125.89,1072.65 1127.87,1188.94 1129.85,1128.56 1131.82,1205.05 1133.8,1112.57 1135.78,1053.75 1137.76,1054.3 1139.74,1075.24 1141.72,1184.05 1143.7,1040.21 1145.68,1140.33 1147.66,1020.08 1149.64,1129.88 1151.61,1069.78 1153.59,1068.88 1155.57,1173.71 1157.55,1016.81 1159.53,1207.5 1161.51,1189.21 1163.49,1242.93 1165.47,979.862 1167.45,1108.89 1169.42,1181.65 1171.4,1153.35 1173.38,1144.19 1175.36,1236.57 1177.34,1225.9 1179.32,1165.71 1181.3,1156.19 1183.28,956.405 1185.26,1123.3 1187.23,1181.66 1189.21,1112.25 1191.19,1034.58 1193.17,1173.28 1195.15,1273.79 1197.13,1098.43 1199.11,1246.16 1201.09,1077.63 1203.07,1051.23 1205.04,1299.81 1207.02,1151.87 1209,1384.24 1210.98,956.621 1212.96,1240.21 1214.94,1006.42 1216.92,1317.27 1218.9,1246.34 1220.88,1223.97 1222.86,1217.65 1224.83,1184.48 1226.81,1224.59 1228.79,1178.73 1230.77,1276.38 1232.75,1114.09 1234.73,1233.56 1236.71,1082.02 1238.69,1362.2 1240.67,1252.89 1242.64,1077.53 1244.62,1135.44 1246.6,1227.06 1248.58,1068.27 1250.56,1124.05 1252.54,1205.07 1254.52,1186.6 1256.5,1228.6 1258.48,1110.31 1260.45,1102.16 1262.43,1116.64 1264.41,1193.7 1266.39,1133.96 1268.37,1206.3 1270.35,1238.38 1272.33,1069.37 1274.31,1197.9 1276.29,1211.22 1278.26,1337.08 1280.24,1006.94 1282.22,1243.63 1284.2,1142.5 1286.18,1140.16 1288.16,1117.66 1290.14,1167.35 1292.12,1203.92 1294.1,1117.97 1296.07,1185.08 1298.05,1306.61 1300.03,1110.77 1302.01,1155.75 1303.99,977.672 1305.97,1232.24 1307.95,1259.01 1309.93,1156.01 1311.91,1176.12 1313.89,1070.01 1315.86,1156.68 1317.84,1079.18 1319.82,1146.63 1321.8,932.414 1323.78,1129.09 1325.76,1223.45 1327.74,1072.46 1329.72,1261.86 1331.7,924.255 1333.67,1149.38 1335.65,1149.17 1337.63,1046.8 1339.61,1096.15 1341.59,1141.58 1343.57,1196.37 1345.55,1098.05 1347.53,1116.53 1349.51,1086.54 1351.48,1159.29 1353.46,1211.79 1355.44,1047.19 1357.42,1132.73 1359.4,1159.03 1361.38,1110.61 1363.36,1012.5 1365.34,964.119 1367.32,1229.83 1369.29,1021.11 1371.27,1152.03 1373.25,1168.44 1375.23,988.683 1377.21,1159.06 1379.19,1147.12 1381.17,1118.94 1383.15,1014.57 1385.13,1060.72 1387.1,907.943 1389.08,1003.34 1391.06,975.449 1393.04,1179.64 1395.02,1005.24 1397,854.556 1398.98,1025.59 1400.96,1069.46 1402.94,1141.69 1404.92,966.767 1406.89,1068.69 1408.87,1114.4 1410.85,1028.57 1412.83,1091.73 1414.81,954.634 1416.79,1044.86 1418.77,1021.24 1420.75,1122.12 1422.73,970.627 1424.7,1041.59 1426.68,786.96 1428.66,1038.27 1430.64,982.676 1432.62,925.509 1434.6,1012.76 1436.58,904.311 1438.56,1058.46 1440.54,952.405 1442.51,962.548 1444.49,804.692 1446.47,1044.2 1448.45,967.734 1450.43,1001.06 1452.41,953.803 1454.39,1072.7 1456.37,864.337 1458.35,951.625 1460.32,919.574 1462.3,833.983 1464.28,810.317 1466.26,1050.15 1468.24,843.028 1470.22,825.104 1472.2,1055.04 1474.18,930.966 1476.16,938.362 1478.13,953.164 1480.11,919.498 1482.09,905.226 1484.07,893.851 1486.05,931.165 1488.03,990.774 1490.01,908.03 1491.99,911.569 1493.97,889.967 1495.95,869.412 1497.92,776.933 1499.9,805.888 1501.88,654.809 1503.86,891.179 1505.84,746.223 1507.82,752.523 1509.8,780.818 1511.78,792.101 1513.76,763.796 1515.73,811.662 1517.71,894.111 1519.69,821.898 1521.67,819.644 1523.65,916.674 1525.63,877.648 1527.61,880.333 1529.59,978.956 1531.57,729.707 1533.54,878.047 1535.52,811.373 1537.5,617.887 1539.48,570.576 1541.46,808.953 1543.44,724.384 1545.42,691.088 1547.4,677.676 1549.38,603.447 1551.35,509.944 1553.33,756.638 1555.31,760.65 1557.29,676.065 1559.27,820.558 1561.25,758.914 1563.23,757.306 1565.21,669.823 1567.19,807.281 1569.17,793.829 1571.14,602.964 1573.12,787.656 1575.1,692.615 1577.08,712.275 1579.06,721.606 1581.04,625.029 1583.02,734.636 1585,627.115 1586.98,615.044 1588.95,748.52 1590.93,791.147 1592.91,496.044 1594.89,624.055 1596.87,690.191 1598.85,689.17 1600.83,448.351 1602.81,473.387 1604.79,625.884 1606.76,591.637 1608.74,477.696 1610.72,586.241 1612.7,466.031 1614.68,585.71 1616.66,479.201 1618.64,652.661 1620.62,438.23 1622.6,438.438 1624.57,602.027 1626.55,488.673 1628.53,567.388 1630.51,619.96 1632.49,446.396 1634.47,543.565 1636.45,659.222 1638.43,556.18 1640.41,544.349 1642.38,468.18 1644.36,445.086 1646.34,431.305 1648.32,560.434 1650.3,570.65 1652.28,644.004 1654.26,529.178 1656.24,330.044 1658.22,516.687 1660.2,658.781 1662.17,612.946 1664.15,545.498 1666.13,578.072 1668.11,602.351 1670.09,522.38 1672.07,571.379 1674.05,541.729 1676.03,527.917 1678.01,543.688 1679.98,389.015 1681.96,426.077 1683.94,528.982 1685.92,426.615 1687.9,400.76 1689.88,353.208 1691.86,508.321 1693.84,460.309 1695.82,266.777 1697.79,462.272 1699.77,497.31 1701.75,468.321 1703.73,446.117 1705.71,452.359 1707.69,448.765 1709.67,299.049 1711.65,526.486 1713.63,174.307 1715.6,477.556 1717.58,300.567 1719.56,451.524 1721.54,755.245 1723.52,453.977 1725.5,435.276 1727.48,312.887 1729.46,385.125 1731.44,384.252 1733.41,408.409 1735.39,420.535 1737.37,330.597 1739.35,505.329 1741.33,299.765 1743.31,297.864 1745.29,261.061 1747.27,245.141 1749.25,325.372 1751.23,597.129 1753.2,440.47 1755.18,398.258 1757.16,470.861 1759.14,218.495 1761.12,338.154 1763.1,379.679 1765.08,274.676 1767.06,406.512 1769.04,314.302 1771.01,373.763 1772.99,216.041 1774.97,185.204 1776.95,330.619 1778.93,298.91 1780.91,425.089 1782.89,362.122 1784.87,215.572 1786.85,256.805 1788.82,373.912 1790.8,236.696 1792.78,274.067 1794.76,305.513 1796.74,383.298 1798.72,224.196 1800.7,178.597 1802.68,244.656 1804.66,261.802 1806.63,286 1808.61,99.6079 1810.59,386.895 1812.57,383.385 1814.55,321.588 1816.53,317.728 1818.51,424.047 1820.49,273.419 1822.47,271.472 1824.45,299.536 1826.42,177.53 1828.4,232.5 1830.38,410.9 1832.36,216.385 1834.34,90.4488 1836.32,128.784 1838.3,227.198 1840.28,270.833 1842.26,115.214 1844.23,445.904 1846.21,414.047 1848.19,220.475 1850.17,350.762 1852.15,212.231 1854.13,242.311 1856.11,347.863 1858.09,228.809 1860.07,348.705 1862.04,357.784 1864.02,264.248 1866,471.762 1867.98,439.467 1869.96,336.402 1871.94,193.47 1873.92,414.651 1875.9,248.631 1877.88,295.997 1879.85,381.387 1881.83,381.363 1883.81,479.766 1885.79,243.153 1887.77,290.089 1889.75,180.302 1891.73,215.863 1893.71,136.253 1895.69,172.342 1897.66,155.782 1899.64,395.156 1901.62,312.175 1903.6,361.733 1905.58,197.085 1907.56,247.765 1909.54,396.951 1911.52,308.559 1913.5,309.445 1915.48,255.679 1917.45,200.564 1919.43,233.317 1921.41,241.316 1923.39,139.19 1925.37,439.902 1927.35,269.322 1929.33,318.602 1931.31,193.236 1933.29,300.135 1935.26,228.057 1937.24,263.182 1939.22,234.249 1941.2,311.714 1943.18,193.817 1945.16,215.21 1947.14,239.197 1949.12,360.928 1951.1,293.693 1953.07,278.323 1955.05,292.593 1957.03,356.822 1959.01,252.356 1960.99,253.072 1962.97,406.359 1964.95,312.166 1966.93,170.069 1968.91,237.337 1970.88,390.993 1972.86,322.831 1974.84,232.554 1976.82,299.712 1978.8,165.722 1980.78,370.78 1982.76,197.524 1984.74,455.442 1986.72,381.325 1988.69,461.611 1990.67,306.042 1992.65,404.186 1994.63,325.773 1996.61,204.398 1998.59,456.752 2000.57,315.637 2002.55,441.476 2004.53,332.043 2006.51,362.252 2008.48,444.034 2010.46,372.911 2012.44,405.952 2014.42,482.747 2016.4,384.638 2018.38,451.571 2020.36,519.253 2022.34,377.963 2024.32,363.183 2026.29,437.59 2028.27,387.903 2030.25,353.848 2032.23,497.984 2034.21,229.849 2036.19,597.433 2038.17,548.644 2040.15,452.719 2042.13,466.18 2044.1,600.605 2046.08,546.9 2048.06,407.899 2050.04,489.196 2052.02,268.364 2054,378.535 2055.98,554.711 2057.96,587.624 2059.94,532.692 2061.91,486.872 2063.89,435.742 2065.87,596.98 2067.85,387.119 2069.83,462.275 2071.81,589.804 2073.79,373.196 2075.77,612.425 2077.75,569.201 2079.73,466.434 2081.7,379.271 2083.68,417.207 2085.66,529.905 2087.64,555.924 2089.62,610.346 2091.6,565.988 2093.58,604.012 2095.56,439.449 2097.54,640.718 2099.51,647.036 2101.49,568.5 2103.47,479.378 2105.45,628.84 2107.43,498.135 2109.41,680.878 2111.39,593.704 2113.37,545.577 2115.35,410.451 2117.32,515.591 2119.3,657.794 2121.28,613.418 2123.26,584.095 2125.24,614.598 2127.22,541.467 2129.2,717.921 2131.18,718.129 2133.16,649.366 2135.13,504.5 2137.11,664.215 2139.09,645.076 2141.07,528.363 2143.05,703.68 2145.03,681.062 2147.01,694.27 2148.99,495.504 2150.97,540.006 2152.94,758.96 2154.92,667.108 2156.9,739.444 2158.88,580.283 2160.86,489.023 2162.84,725.891 2164.82,518.288 2166.8,759.802 2168.78,573.723 2170.76,840.022 2172.73,761.336 2174.71,834.018 2176.69,654.063 2178.67,593.065 2180.65,710.387 2182.63,677.273 2184.61,735.945 2186.59,658.071 2188.57,713.208 2190.54,707.768 2192.52,871.066 2194.5,806.885 2196.48,809.228 2198.46,771.807 2200.44,722.951 2202.42,790.322 2204.4,776.284 2206.38,748.604 2208.35,819.446 2210.33,754.485 2212.31,827.553 2214.29,824.445 2216.27,842.946 2218.25,733.695 2220.23,789.715 2222.21,745.495 2224.19,809.394 2226.16,849.644 2228.14,977.906 2230.12,958.293 2232.1,747.01 2234.08,900.907 2236.06,787.096 2238.04,940.207 2240.02,845.396 2242,942.027 2243.97,805.304 2245.95,915.476 2247.93,928.248 2249.91,797.554 2251.89,994.294 2253.87,811.685 2255.85,905.376 2257.83,873.614 2259.81,939.497 2261.79,803.021 2263.76,909.71 2265.74,1045.68 2267.72,855.705 2269.7,950.255 2271.68,626.255 2273.66,743.099 2275.64,1009.01 2277.62,919.492 2279.6,854.962 2281.57,868.466 2283.55,857.659 2285.53,829.682 2287.51,919.079 2289.49,842.429 2291.47,887.483 2293.45,924.475 "/>
<path clip-path="url(#clip420)" d="M2020.92 1377.32 L2282.9 1377.32 L2282.9 1273.64 L2020.92 1273.64  Z" fill="#ffffff" fill-rule="evenodd" fill-opacity="1"/>
<polyline clip-path="url(#clip420)" style="stroke:#000000; stroke-linecap:round; stroke-linejoin:round; stroke-width:4; stroke-opacity:1; fill:none" points="2020.92,1377.32 2282.9,1377.32 2282.9,1273.64 2020.92,1273.64 2020.92,1377.32 "/>
<polyline clip-path="url(#clip420)" style="stroke:#009af9; stroke-linecap:round; stroke-linejoin:round; stroke-width:4; stroke-opacity:1; fill:none" points="2044.2,1325.48 2183.91,1325.48 "/>
<path clip-path="url(#clip420)" d="M2221.03 1345.16 Q2219.23 1349.79 2217.51 1351.2 Q2215.8 1352.62 2212.93 1352.62 L2209.53 1352.62 L2209.53 1349.05 L2212.03 1349.05 Q2213.79 1349.05 2214.76 1348.22 Q2215.73 1347.38 2216.91 1344.28 L2217.68 1342.34 L2207.19 1316.83 L2211.7 1316.83 L2219.81 1337.11 L2227.91 1316.83 L2232.42 1316.83 L2221.03 1345.16 Z" fill="#000000" fill-rule="nonzero" fill-opacity="1" /><path clip-path="url(#clip420)" d="M2239.71 1338.82 L2247.35 1338.82 L2247.35 1312.45 L2239.04 1314.12 L2239.04 1309.86 L2247.31 1308.2 L2251.98 1308.2 L2251.98 1338.82 L2259.62 1338.82 L2259.62 1342.76 L2239.71 1342.76 L2239.71 1338.82 Z" fill="#000000" fill-rule="nonzero" fill-opacity="1" /></svg>
