<?xml version="1.0" encoding="utf-8"?>
<svg xmlns="http://www.w3.org/2000/svg" xmlns:xlink="http://www.w3.org/1999/xlink" width="600" height="400" viewBox="0 0 2400 1600">
<defs>
  <clipPath id="clip780">
    <rect x="0" y="0" width="2400" height="1600"/>
  </clipPath>
</defs>
<path clip-path="url(#clip780)" d="M0 1600 L2400 1600 L2400 0 L0 0  Z" fill="#ffffff" fill-rule="evenodd" fill-opacity="1"/>
<defs>
  <clipPath id="clip781">
    <rect x="480" y="0" width="1681" height="1600"/>
  </clipPath>
</defs>
<path clip-path="url(#clip780)" d="M225.851 1423.18 L2352.76 1423.18 L2352.76 47.2441 L225.851 47.2441  Z" fill="#ffffff" fill-rule="evenodd" fill-opacity="1"/>
<defs>
  <clipPath id="clip782">
    <rect x="225" y="47" width="2128" height="1377"/>
  </clipPath>
</defs>
<polyline clip-path="url(#clip782)" style="stroke:#000000; stroke-linecap:round; stroke-linejoin:round; stroke-width:2; stroke-opacity:0.1; fill:none" points="286.047,1423.18 286.047,47.2441 "/>
<polyline clip-path="url(#clip782)" style="stroke:#000000; stroke-linecap:round; stroke-linejoin:round; stroke-width:2; stroke-opacity:0.1; fill:none" points="787.675,1423.18 787.675,47.2441 "/>
<polyline clip-path="url(#clip782)" style="stroke:#000000; stroke-linecap:round; stroke-linejoin:round; stroke-width:2; stroke-opacity:0.1; fill:none" points="1289.3,1423.18 1289.3,47.2441 "/>
<polyline clip-path="url(#clip782)" style="stroke:#000000; stroke-linecap:round; stroke-linejoin:round; stroke-width:2; stroke-opacity:0.1; fill:none" points="1790.93,1423.18 1790.93,47.2441 "/>
<polyline clip-path="url(#clip782)" style="stroke:#000000; stroke-linecap:round; stroke-linejoin:round; stroke-width:2; stroke-opacity:0.1; fill:none" points="2292.56,1423.18 2292.56,47.2441 "/>
<polyline clip-path="url(#clip782)" style="stroke:#000000; stroke-linecap:round; stroke-linejoin:round; stroke-width:2; stroke-opacity:0.1; fill:none" points="225.851,1309.64 2352.76,1309.64 "/>
<polyline clip-path="url(#clip782)" style="stroke:#000000; stroke-linecap:round; stroke-linejoin:round; stroke-width:2; stroke-opacity:0.1; fill:none" points="225.851,823.232 2352.76,823.232 "/>
<polyline clip-path="url(#clip782)" style="stroke:#000000; stroke-linecap:round; stroke-linejoin:round; stroke-width:2; stroke-opacity:0.1; fill:none" points="225.851,336.82 2352.76,336.82 "/>
<polyline clip-path="url(#clip780)" style="stroke:#000000; stroke-linecap:round; stroke-linejoin:round; stroke-width:4; stroke-opacity:1; fill:none" points="225.851,1423.18 2352.76,1423.18 "/>
<polyline clip-path="url(#clip780)" style="stroke:#000000; stroke-linecap:round; stroke-linejoin:round; stroke-width:4; stroke-opacity:1; fill:none" points="286.047,1423.18 286.047,1404.28 "/>
<polyline clip-path="url(#clip780)" style="stroke:#000000; stroke-linecap:round; stroke-linejoin:round; stroke-width:4; stroke-opacity:1; fill:none" points="787.675,1423.18 787.675,1404.28 "/>
<polyline clip-path="url(#clip780)" style="stroke:#000000; stroke-linecap:round; stroke-linejoin:round; stroke-width:4; stroke-opacity:1; fill:none" points="1289.3,1423.18 1289.3,1404.28 "/>
<polyline clip-path="url(#clip780)" style="stroke:#000000; stroke-linecap:round; stroke-linejoin:round; stroke-width:4; stroke-opacity:1; fill:none" points="1790.93,1423.18 1790.93,1404.28 "/>
<polyline clip-path="url(#clip780)" style="stroke:#000000; stroke-linecap:round; stroke-linejoin:round; stroke-width:4; stroke-opacity:1; fill:none" points="2292.56,1423.18 2292.56,1404.28 "/>
<path clip-path="url(#clip780)" d="M253.2 1481.64 L260.839 1481.64 L260.839 1455.28 L252.528 1456.95 L252.528 1452.69 L260.792 1451.02 L265.468 1451.02 L265.468 1481.64 L273.107 1481.64 L273.107 1485.58 L253.2 1485.58 L253.2 1481.64 Z" fill="#000000" fill-rule="nonzero" fill-opacity="1" /><path clip-path="url(#clip780)" d="M282.551 1479.7 L287.436 1479.7 L287.436 1485.58 L282.551 1485.58 L282.551 1479.7 Z" fill="#000000" fill-rule="nonzero" fill-opacity="1" /><path clip-path="url(#clip780)" d="M307.621 1454.1 Q304.01 1454.1 302.181 1457.66 Q300.375 1461.2 300.375 1468.33 Q300.375 1475.44 302.181 1479.01 Q304.01 1482.55 307.621 1482.55 Q311.255 1482.55 313.06 1479.01 Q314.889 1475.44 314.889 1468.33 Q314.889 1461.2 313.06 1457.66 Q311.255 1454.1 307.621 1454.1 M307.621 1450.39 Q313.431 1450.39 316.486 1455 Q319.565 1459.58 319.565 1468.33 Q319.565 1477.06 316.486 1481.67 Q313.431 1486.25 307.621 1486.25 Q301.811 1486.25 298.732 1481.67 Q295.676 1477.06 295.676 1468.33 Q295.676 1459.58 298.732 1455 Q301.811 1450.39 307.621 1450.39 Z" fill="#000000" fill-rule="nonzero" fill-opacity="1" /><path clip-path="url(#clip780)" d="M755.326 1481.64 L762.965 1481.64 L762.965 1455.28 L754.655 1456.95 L754.655 1452.69 L762.918 1451.02 L767.594 1451.02 L767.594 1481.64 L775.233 1481.64 L775.233 1485.58 L755.326 1485.58 L755.326 1481.64 Z" fill="#000000" fill-rule="nonzero" fill-opacity="1" /><path clip-path="url(#clip780)" d="M784.678 1479.7 L789.562 1479.7 L789.562 1485.58 L784.678 1485.58 L784.678 1479.7 Z" fill="#000000" fill-rule="nonzero" fill-opacity="1" /><path clip-path="url(#clip780)" d="M799.793 1451.02 L818.15 1451.02 L818.15 1454.96 L804.076 1454.96 L804.076 1463.43 Q805.094 1463.08 806.113 1462.92 Q807.131 1462.73 808.15 1462.73 Q813.937 1462.73 817.316 1465.9 Q820.696 1469.08 820.696 1474.49 Q820.696 1480.07 817.224 1483.17 Q813.751 1486.25 807.432 1486.25 Q805.256 1486.25 802.988 1485.88 Q800.742 1485.51 798.335 1484.77 L798.335 1480.07 Q800.418 1481.2 802.64 1481.76 Q804.863 1482.32 807.339 1482.32 Q811.344 1482.32 813.682 1480.21 Q816.02 1478.1 816.02 1474.49 Q816.02 1470.88 813.682 1468.77 Q811.344 1466.67 807.339 1466.67 Q805.464 1466.67 803.589 1467.08 Q801.738 1467.5 799.793 1468.38 L799.793 1451.02 Z" fill="#000000" fill-rule="nonzero" fill-opacity="1" /><path clip-path="url(#clip780)" d="M1260.54 1481.64 L1276.86 1481.64 L1276.86 1485.58 L1254.92 1485.58 L1254.92 1481.64 Q1257.58 1478.89 1262.16 1474.26 Q1266.77 1469.61 1267.95 1468.27 Q1270.19 1465.74 1271.07 1464.01 Q1271.98 1462.25 1271.98 1460.56 Q1271.98 1457.8 1270.03 1456.07 Q1268.11 1454.33 1265.01 1454.33 Q1262.81 1454.33 1260.36 1455.09 Q1257.93 1455.86 1255.15 1457.41 L1255.15 1452.69 Q1257.97 1451.55 1260.43 1450.97 Q1262.88 1450.39 1264.92 1450.39 Q1270.29 1450.39 1273.48 1453.08 Q1276.68 1455.77 1276.68 1460.26 Q1276.68 1462.39 1275.87 1464.31 Q1275.08 1466.2 1272.97 1468.8 Q1272.39 1469.47 1269.29 1472.69 Q1266.19 1475.88 1260.54 1481.64 Z" fill="#000000" fill-rule="nonzero" fill-opacity="1" /><path clip-path="url(#clip780)" d="M1286.68 1479.7 L1291.56 1479.7 L1291.56 1485.58 L1286.68 1485.58 L1286.68 1479.7 Z" fill="#000000" fill-rule="nonzero" fill-opacity="1" /><path clip-path="url(#clip780)" d="M1311.75 1454.1 Q1308.13 1454.1 1306.31 1457.66 Q1304.5 1461.2 1304.5 1468.33 Q1304.5 1475.44 1306.31 1479.01 Q1308.13 1482.55 1311.75 1482.55 Q1315.38 1482.55 1317.19 1479.01 Q1319.01 1475.44 1319.01 1468.33 Q1319.01 1461.2 1317.19 1457.66 Q1315.38 1454.1 1311.75 1454.1 M1311.75 1450.39 Q1317.56 1450.39 1320.61 1455 Q1323.69 1459.58 1323.69 1468.33 Q1323.69 1477.06 1320.61 1481.67 Q1317.56 1486.25 1311.75 1486.25 Q1305.94 1486.25 1302.86 1481.67 Q1299.8 1477.06 1299.8 1468.33 Q1299.8 1459.58 1302.86 1455 Q1305.94 1450.39 1311.75 1450.39 Z" fill="#000000" fill-rule="nonzero" fill-opacity="1" /><path clip-path="url(#clip780)" d="M1762.67 1481.64 L1778.99 1481.64 L1778.99 1485.58 L1757.04 1485.58 L1757.04 1481.64 Q1759.71 1478.89 1764.29 1474.26 Q1768.9 1469.61 1770.08 1468.27 Q1772.32 1465.74 1773.2 1464.01 Q1774.1 1462.25 1774.1 1460.56 Q1774.1 1457.8 1772.16 1456.07 Q1770.24 1454.33 1767.14 1454.33 Q1764.94 1454.33 1762.48 1455.09 Q1760.05 1455.86 1757.27 1457.41 L1757.27 1452.69 Q1760.1 1451.55 1762.55 1450.97 Q1765.01 1450.39 1767.04 1450.39 Q1772.41 1450.39 1775.61 1453.08 Q1778.8 1455.77 1778.8 1460.26 Q1778.8 1462.39 1777.99 1464.31 Q1777.21 1466.2 1775.1 1468.8 Q1774.52 1469.47 1771.42 1472.69 Q1768.32 1475.88 1762.67 1481.64 Z" fill="#000000" fill-rule="nonzero" fill-opacity="1" /><path clip-path="url(#clip780)" d="M1788.8 1479.7 L1793.69 1479.7 L1793.69 1485.58 L1788.8 1485.58 L1788.8 1479.7 Z" fill="#000000" fill-rule="nonzero" fill-opacity="1" /><path clip-path="url(#clip780)" d="M1803.92 1451.02 L1822.27 1451.02 L1822.27 1454.96 L1808.2 1454.96 L1808.2 1463.43 Q1809.22 1463.08 1810.24 1462.92 Q1811.26 1462.73 1812.27 1462.73 Q1818.06 1462.73 1821.44 1465.9 Q1824.82 1469.08 1824.82 1474.49 Q1824.82 1480.07 1821.35 1483.17 Q1817.88 1486.25 1811.56 1486.25 Q1809.38 1486.25 1807.11 1485.88 Q1804.87 1485.51 1802.46 1484.77 L1802.46 1480.07 Q1804.54 1481.2 1806.77 1481.76 Q1808.99 1482.32 1811.46 1482.32 Q1815.47 1482.32 1817.81 1480.21 Q1820.14 1478.1 1820.14 1474.49 Q1820.14 1470.88 1817.81 1468.77 Q1815.47 1466.67 1811.46 1466.67 Q1809.59 1466.67 1807.71 1467.08 Q1805.86 1467.5 1803.92 1468.38 L1803.92 1451.02 Z" fill="#000000" fill-rule="nonzero" fill-opacity="1" /><path clip-path="url(#clip780)" d="M2273.87 1466.95 Q2277.22 1467.66 2279.1 1469.93 Q2281 1472.2 2281 1475.53 Q2281 1480.65 2277.48 1483.45 Q2273.96 1486.25 2267.48 1486.25 Q2265.3 1486.25 2262.99 1485.81 Q2260.7 1485.39 2258.24 1484.54 L2258.24 1480.02 Q2260.19 1481.16 2262.5 1481.74 Q2264.82 1482.32 2267.34 1482.32 Q2271.74 1482.32 2274.03 1480.58 Q2276.35 1478.84 2276.35 1475.53 Q2276.35 1472.48 2274.19 1470.77 Q2272.06 1469.03 2268.24 1469.03 L2264.22 1469.03 L2264.22 1465.19 L2268.43 1465.19 Q2271.88 1465.19 2273.71 1463.82 Q2275.54 1462.43 2275.54 1459.84 Q2275.54 1457.18 2273.64 1455.77 Q2271.76 1454.33 2268.24 1454.33 Q2266.32 1454.33 2264.12 1454.75 Q2261.92 1455.16 2259.29 1456.04 L2259.29 1451.88 Q2261.95 1451.14 2264.26 1450.77 Q2266.6 1450.39 2268.66 1450.39 Q2273.98 1450.39 2277.09 1452.83 Q2280.19 1455.23 2280.19 1459.35 Q2280.19 1462.22 2278.54 1464.21 Q2276.9 1466.18 2273.87 1466.95 Z" fill="#000000" fill-rule="nonzero" fill-opacity="1" /><path clip-path="url(#clip780)" d="M2289.86 1479.7 L2294.75 1479.7 L2294.75 1485.58 L2289.86 1485.58 L2289.86 1479.7 Z" fill="#000000" fill-rule="nonzero" fill-opacity="1" /><path clip-path="url(#clip780)" d="M2314.93 1454.1 Q2311.32 1454.1 2309.49 1457.66 Q2307.69 1461.2 2307.69 1468.33 Q2307.69 1475.44 2309.49 1479.01 Q2311.32 1482.55 2314.93 1482.55 Q2318.57 1482.55 2320.37 1479.01 Q2322.2 1475.44 2322.2 1468.33 Q2322.2 1461.2 2320.37 1457.66 Q2318.57 1454.1 2314.93 1454.1 M2314.93 1450.39 Q2320.74 1450.39 2323.8 1455 Q2326.88 1459.58 2326.88 1468.33 Q2326.88 1477.06 2323.8 1481.67 Q2320.74 1486.25 2314.93 1486.25 Q2309.12 1486.25 2306.04 1481.67 Q2302.99 1477.06 2302.99 1468.33 Q2302.99 1459.58 2306.04 1455 Q2309.12 1450.39 2314.93 1450.39 Z" fill="#000000" fill-rule="nonzero" fill-opacity="1" /><path clip-path="url(#clip780)" d="M1209.49 1548.76 L1209.49 1551.62 L1182.57 1551.62 Q1182.95 1557.67 1186.2 1560.85 Q1189.47 1564 1195.3 1564 Q1198.67 1564 1201.82 1563.17 Q1205.01 1562.35 1208.12 1560.69 L1208.12 1566.23 Q1204.97 1567.57 1201.66 1568.27 Q1198.35 1568.97 1194.95 1568.97 Q1186.42 1568.97 1181.42 1564 Q1176.46 1559.04 1176.46 1550.57 Q1176.46 1541.82 1181.17 1536.69 Q1185.91 1531.54 1193.93 1531.54 Q1201.12 1531.54 1205.29 1536.18 Q1209.49 1540.8 1209.49 1548.76 M1203.64 1547.04 Q1203.57 1542.23 1200.93 1539.37 Q1198.32 1536.5 1193.99 1536.5 Q1189.09 1536.5 1186.13 1539.27 Q1183.2 1542.04 1182.76 1547.07 L1203.64 1547.04 Z" fill="#000000" fill-rule="nonzero" fill-opacity="1" /><path clip-path="url(#clip780)" d="M1224.77 1562.7 L1224.77 1581.6 L1218.88 1581.6 L1218.88 1532.4 L1224.77 1532.4 L1224.77 1537.81 Q1226.62 1534.62 1229.42 1533.1 Q1232.25 1531.54 1236.17 1531.54 Q1242.66 1531.54 1246.7 1536.69 Q1250.78 1541.85 1250.78 1550.25 Q1250.78 1558.65 1246.7 1563.81 Q1242.66 1568.97 1236.17 1568.97 Q1232.25 1568.97 1229.42 1567.44 Q1226.62 1565.88 1224.77 1562.7 M1244.7 1550.25 Q1244.7 1543.79 1242.02 1540.13 Q1239.38 1536.44 1234.73 1536.44 Q1230.09 1536.44 1227.41 1540.13 Q1224.77 1543.79 1224.77 1550.25 Q1224.77 1556.71 1227.41 1560.4 Q1230.09 1564.07 1234.73 1564.07 Q1239.38 1564.07 1242.02 1560.4 Q1244.7 1556.71 1244.7 1550.25 Z" fill="#000000" fill-rule="nonzero" fill-opacity="1" /><path clip-path="url(#clip780)" d="M1274.3 1536.5 Q1269.59 1536.5 1266.85 1540.19 Q1264.11 1543.85 1264.11 1550.25 Q1264.11 1556.65 1266.82 1560.34 Q1269.55 1564 1274.3 1564 Q1278.98 1564 1281.71 1560.31 Q1284.45 1556.62 1284.45 1550.25 Q1284.45 1543.92 1281.71 1540.23 Q1278.98 1536.5 1274.3 1536.5 M1274.3 1531.54 Q1281.94 1531.54 1286.3 1536.5 Q1290.66 1541.47 1290.66 1550.25 Q1290.66 1559 1286.3 1564 Q1281.94 1568.97 1274.3 1568.97 Q1266.63 1568.97 1262.27 1564 Q1257.94 1559 1257.94 1550.25 Q1257.94 1541.47 1262.27 1536.5 Q1266.63 1531.54 1274.3 1531.54 Z" fill="#000000" fill-rule="nonzero" fill-opacity="1" /><path clip-path="url(#clip780)" d="M1326.02 1533.76 L1326.02 1539.24 Q1323.54 1537.87 1321.02 1537.2 Q1318.54 1536.5 1315.99 1536.5 Q1310.29 1536.5 1307.14 1540.13 Q1303.99 1543.73 1303.99 1550.25 Q1303.99 1556.78 1307.14 1560.4 Q1310.29 1564 1315.99 1564 Q1318.54 1564 1321.02 1563.33 Q1323.54 1562.63 1326.02 1561.26 L1326.02 1566.68 Q1323.57 1567.82 1320.93 1568.39 Q1318.32 1568.97 1315.36 1568.97 Q1307.3 1568.97 1302.56 1563.91 Q1297.82 1558.85 1297.82 1550.25 Q1297.82 1541.53 1302.59 1536.53 Q1307.4 1531.54 1315.74 1531.54 Q1318.44 1531.54 1321.02 1532.11 Q1323.6 1532.65 1326.02 1533.76 Z" fill="#000000" fill-rule="nonzero" fill-opacity="1" /><path clip-path="url(#clip780)" d="M1365.84 1546.53 L1365.84 1568.04 L1359.98 1568.04 L1359.98 1546.72 Q1359.98 1541.66 1358.01 1539.14 Q1356.03 1536.63 1352.09 1536.63 Q1347.34 1536.63 1344.61 1539.65 Q1341.87 1542.68 1341.87 1547.9 L1341.87 1568.04 L1335.98 1568.04 L1335.98 1518.52 L1341.87 1518.52 L1341.87 1537.93 Q1343.97 1534.72 1346.8 1533.13 Q1349.67 1531.54 1353.39 1531.54 Q1359.53 1531.54 1362.68 1535.36 Q1365.84 1539.14 1365.84 1546.53 Z" fill="#000000" fill-rule="nonzero" fill-opacity="1" /><path clip-path="url(#clip780)" d="M1400.24 1533.45 L1400.24 1538.98 Q1397.76 1537.71 1395.09 1537.07 Q1392.41 1536.44 1389.55 1536.44 Q1385.19 1536.44 1382.99 1537.77 Q1380.83 1539.11 1380.83 1541.79 Q1380.83 1543.82 1382.39 1545 Q1383.95 1546.15 1388.66 1547.2 L1390.66 1547.64 Q1396.9 1548.98 1399.51 1551.43 Q1402.15 1553.85 1402.15 1558.21 Q1402.15 1563.17 1398.2 1566.07 Q1394.29 1568.97 1387.42 1568.97 Q1384.55 1568.97 1381.43 1568.39 Q1378.34 1567.85 1374.91 1566.74 L1374.91 1560.69 Q1378.15 1562.38 1381.3 1563.24 Q1384.46 1564.07 1387.54 1564.07 Q1391.68 1564.07 1393.91 1562.66 Q1396.14 1561.23 1396.14 1558.65 Q1396.14 1556.27 1394.51 1554.99 Q1392.92 1553.72 1387.48 1552.54 L1385.44 1552.07 Q1380 1550.92 1377.58 1548.56 Q1375.16 1546.18 1375.16 1542.04 Q1375.16 1537.01 1378.73 1534.27 Q1382.29 1531.54 1388.85 1531.54 Q1392.09 1531.54 1394.96 1532.01 Q1397.82 1532.49 1400.24 1533.45 Z" fill="#000000" fill-rule="nonzero" fill-opacity="1" /><polyline clip-path="url(#clip780)" style="stroke:#000000; stroke-linecap:round; stroke-linejoin:round; stroke-width:4; stroke-opacity:1; fill:none" points="225.851,1423.18 225.851,47.2441 "/>
<polyline clip-path="url(#clip780)" style="stroke:#000000; stroke-linecap:round; stroke-linejoin:round; stroke-width:4; stroke-opacity:1; fill:none" points="225.851,1309.64 244.749,1309.64 "/>
<polyline clip-path="url(#clip780)" style="stroke:#000000; stroke-linecap:round; stroke-linejoin:round; stroke-width:4; stroke-opacity:1; fill:none" points="225.851,823.232 244.749,823.232 "/>
<polyline clip-path="url(#clip780)" style="stroke:#000000; stroke-linecap:round; stroke-linejoin:round; stroke-width:4; stroke-opacity:1; fill:none" points="225.851,336.82 244.749,336.82 "/>
<path clip-path="url(#clip780)" d="M52.4722 1329.44 L60.111 1329.44 L60.111 1303.07 L51.8009 1304.74 L51.8009 1300.48 L60.0647 1298.81 L64.7406 1298.81 L64.7406 1329.44 L72.3795 1329.44 L72.3795 1333.37 L52.4722 1333.37 L52.4722 1329.44 Z" fill="#000000" fill-rule="nonzero" fill-opacity="1" /><path clip-path="url(#clip780)" d="M91.8238 1301.89 Q88.2127 1301.89 86.384 1305.46 Q84.5785 1309 84.5785 1316.13 Q84.5785 1323.23 86.384 1326.8 Q88.2127 1330.34 91.8238 1330.34 Q95.458 1330.34 97.2636 1326.8 Q99.0923 1323.23 99.0923 1316.13 Q99.0923 1309 97.2636 1305.46 Q95.458 1301.89 91.8238 1301.89 M91.8238 1298.19 Q97.6339 1298.19 100.689 1302.79 Q103.768 1307.38 103.768 1316.13 Q103.768 1324.85 100.689 1329.46 Q97.6339 1334.04 91.8238 1334.04 Q86.0136 1334.04 82.935 1329.46 Q79.8794 1324.85 79.8794 1316.13 Q79.8794 1307.38 82.935 1302.79 Q86.0136 1298.19 91.8238 1298.19 Z" fill="#000000" fill-rule="nonzero" fill-opacity="1" /><path clip-path="url(#clip780)" d="M103.768 1292.29 L127.88 1292.29 L127.88 1295.49 L103.768 1295.49 L103.768 1292.29 Z" fill="#000000" fill-rule="nonzero" fill-opacity="1" /><path clip-path="url(#clip780)" d="M136.738 1302.76 L142.945 1302.76 L142.945 1281.34 L136.193 1282.7 L136.193 1279.24 L142.907 1277.88 L146.706 1277.88 L146.706 1302.76 L152.913 1302.76 L152.913 1305.96 L136.738 1305.96 L136.738 1302.76 Z" fill="#000000" fill-rule="nonzero" fill-opacity="1" /><path clip-path="url(#clip780)" d="M160.586 1301.18 L164.555 1301.18 L164.555 1305.96 L160.586 1305.96 L160.586 1301.18 Z" fill="#000000" fill-rule="nonzero" fill-opacity="1" /><path clip-path="url(#clip780)" d="M172.868 1277.88 L187.782 1277.88 L187.782 1281.08 L176.347 1281.08 L176.347 1287.96 Q177.175 1287.68 178.002 1287.55 Q178.83 1287.4 179.658 1287.4 Q184.359 1287.4 187.105 1289.97 Q189.851 1292.55 189.851 1296.95 Q189.851 1301.49 187.03 1304.01 Q184.209 1306.51 179.074 1306.51 Q177.307 1306.51 175.463 1306.21 Q173.639 1305.9 171.683 1305.3 L171.683 1301.49 Q173.376 1302.41 175.181 1302.86 Q176.987 1303.31 178.999 1303.31 Q182.253 1303.31 184.153 1301.6 Q186.052 1299.89 186.052 1296.95 Q186.052 1294.02 184.153 1292.31 Q182.253 1290.6 178.999 1290.6 Q177.476 1290.6 175.952 1290.93 Q174.448 1291.27 172.868 1291.99 L172.868 1277.88 Z" fill="#000000" fill-rule="nonzero" fill-opacity="1" /><path clip-path="url(#clip780)" d="M51.6634 843.025 L59.3023 843.025 L59.3023 816.659 L50.9921 818.326 L50.9921 814.066 L59.256 812.4 L63.9319 812.4 L63.9319 843.025 L71.5707 843.025 L71.5707 846.96 L51.6634 846.96 L51.6634 843.025 Z" fill="#000000" fill-rule="nonzero" fill-opacity="1" /><path clip-path="url(#clip780)" d="M91.0151 815.478 Q87.404 815.478 85.5753 819.043 Q83.7697 822.585 83.7697 829.714 Q83.7697 836.821 85.5753 840.386 Q87.404 843.927 91.0151 843.927 Q94.6493 843.927 96.4548 840.386 Q98.2835 836.821 98.2835 829.714 Q98.2835 822.585 96.4548 819.043 Q94.6493 815.478 91.0151 815.478 M91.0151 811.775 Q96.8252 811.775 99.8808 816.381 Q102.959 820.964 102.959 829.714 Q102.959 838.441 99.8808 843.048 Q96.8252 847.631 91.0151 847.631 Q85.2049 847.631 82.1262 843.048 Q79.0707 838.441 79.0707 829.714 Q79.0707 820.964 82.1262 816.381 Q85.2049 811.775 91.0151 811.775 Z" fill="#000000" fill-rule="nonzero" fill-opacity="1" /><path clip-path="url(#clip780)" d="M102.959 805.876 L127.071 805.876 L127.071 809.073 L102.959 809.073 L102.959 805.876 Z" fill="#000000" fill-rule="nonzero" fill-opacity="1" /><path clip-path="url(#clip780)" d="M135.929 816.352 L142.136 816.352 L142.136 794.93 L135.384 796.284 L135.384 792.823 L142.098 791.469 L145.898 791.469 L145.898 816.352 L152.104 816.352 L152.104 819.549 L135.929 819.549 L135.929 816.352 Z" fill="#000000" fill-rule="nonzero" fill-opacity="1" /><path clip-path="url(#clip780)" d="M159.778 814.772 L163.746 814.772 L163.746 819.549 L159.778 819.549 L159.778 814.772 Z" fill="#000000" fill-rule="nonzero" fill-opacity="1" /><path clip-path="url(#clip780)" d="M180.147 793.971 Q177.213 793.971 175.727 796.867 Q174.26 799.745 174.26 805.538 Q174.26 811.312 175.727 814.208 Q177.213 817.085 180.147 817.085 Q183.099 817.085 184.566 814.208 Q186.052 811.312 186.052 805.538 Q186.052 799.745 184.566 796.867 Q183.099 793.971 180.147 793.971 M180.147 790.962 Q184.867 790.962 187.35 794.704 Q189.851 798.428 189.851 805.538 Q189.851 812.628 187.35 816.371 Q184.867 820.095 180.147 820.095 Q175.426 820.095 172.924 816.371 Q170.442 812.628 170.442 805.538 Q170.442 798.428 172.924 794.704 Q175.426 790.962 180.147 790.962 Z" fill="#000000" fill-rule="nonzero" fill-opacity="1" /><path clip-path="url(#clip780)" d="M52.4722 356.613 L60.111 356.613 L60.111 330.247 L51.8009 331.914 L51.8009 327.654 L60.0647 325.988 L64.7406 325.988 L64.7406 356.613 L72.3795 356.613 L72.3795 360.548 L52.4722 360.548 L52.4722 356.613 Z" fill="#000000" fill-rule="nonzero" fill-opacity="1" /><path clip-path="url(#clip780)" d="M91.8238 329.066 Q88.2127 329.066 86.384 332.631 Q84.5785 336.173 84.5785 343.302 Q84.5785 350.409 86.384 353.974 Q88.2127 357.515 91.8238 357.515 Q95.458 357.515 97.2636 353.974 Q99.0923 350.409 99.0923 343.302 Q99.0923 336.173 97.2636 332.631 Q95.458 329.066 91.8238 329.066 M91.8238 325.363 Q97.6339 325.363 100.689 329.969 Q103.768 334.552 103.768 343.302 Q103.768 352.029 100.689 356.636 Q97.6339 361.219 91.8238 361.219 Q86.0136 361.219 82.935 356.636 Q79.8794 352.029 79.8794 343.302 Q79.8794 334.552 82.935 329.969 Q86.0136 325.363 91.8238 325.363 Z" fill="#000000" fill-rule="nonzero" fill-opacity="1" /><path clip-path="url(#clip780)" d="M103.768 319.464 L127.88 319.464 L127.88 322.661 L103.768 322.661 L103.768 319.464 Z" fill="#000000" fill-rule="nonzero" fill-opacity="1" /><path clip-path="url(#clip780)" d="M144.205 307.559 Q141.271 307.559 139.785 310.455 Q138.318 313.333 138.318 319.125 Q138.318 324.899 139.785 327.796 Q141.271 330.673 144.205 330.673 Q147.158 330.673 148.625 327.796 Q150.111 324.899 150.111 319.125 Q150.111 313.333 148.625 310.455 Q147.158 307.559 144.205 307.559 M144.205 304.549 Q148.926 304.549 151.408 308.292 Q153.91 312.016 153.91 319.125 Q153.91 326.216 151.408 329.959 Q148.926 333.683 144.205 333.683 Q139.484 333.683 136.983 329.959 Q134.5 326.216 134.5 319.125 Q134.5 312.016 136.983 308.292 Q139.484 304.549 144.205 304.549 Z" fill="#000000" fill-rule="nonzero" fill-opacity="1" /><path clip-path="url(#clip780)" d="M160.586 328.36 L164.555 328.36 L164.555 333.137 L160.586 333.137 L160.586 328.36 Z" fill="#000000" fill-rule="nonzero" fill-opacity="1" /><path clip-path="url(#clip780)" d="M172.868 305.057 L187.782 305.057 L187.782 308.255 L176.347 308.255 L176.347 315.138 Q177.175 314.856 178.002 314.724 Q178.83 314.574 179.658 314.574 Q184.359 314.574 187.105 317.151 Q189.851 319.727 189.851 324.128 Q189.851 328.661 187.03 331.181 Q184.209 333.683 179.074 333.683 Q177.307 333.683 175.463 333.382 Q173.639 333.081 171.683 332.479 L171.683 328.661 Q173.376 329.583 175.181 330.034 Q176.987 330.485 178.999 330.485 Q182.253 330.485 184.153 328.774 Q186.052 327.062 186.052 324.128 Q186.052 321.194 184.153 319.483 Q182.253 317.771 178.999 317.771 Q177.476 317.771 175.952 318.11 Q174.448 318.448 172.868 319.163 L172.868 305.057 Z" fill="#000000" fill-rule="nonzero" fill-opacity="1" /><polyline clip-path="url(#clip782)" style="stroke:#009af9; stroke-linecap:round; stroke-linejoin:round; stroke-width:4; stroke-opacity:1; fill:none" points="286.047,86.1857 1289.3,1076.45 2292.56,1271.04 "/>
<polyline clip-path="url(#clip782)" style="stroke:#e26f46; stroke-linecap:round; stroke-linejoin:round; stroke-width:4; stroke-opacity:1; fill:none" points="286.047,875.185 1289.3,1328.94 2292.56,1384.24 "/>
<path clip-path="url(#clip780)" d="M1847.13 248.629 L2281.86 248.629 L2281.86 93.1086 L1847.13 93.1086  Z" fill="#ffffff" fill-rule="evenodd" fill-opacity="1"/>
<polyline clip-path="url(#clip780)" style="stroke:#000000; stroke-linecap:round; stroke-linejoin:round; stroke-width:4; stroke-opacity:1; fill:none" points="1847.13,248.629 2281.86,248.629 2281.86,93.1086 1847.13,93.1086 1847.13,248.629 "/>
<polyline clip-path="url(#clip780)" style="stroke:#009af9; stroke-linecap:round; stroke-linejoin:round; stroke-width:4; stroke-opacity:1; fill:none" points="1870.77,144.949 2012.56,144.949 "/>
<path clip-path="url(#clip780)" d="M2043.6 128.942 L2043.6 136.303 L2052.37 136.303 L2052.37 139.613 L2043.6 139.613 L2043.6 153.687 Q2043.6 156.858 2044.45 157.761 Q2045.33 158.664 2048 158.664 L2052.37 158.664 L2052.37 162.229 L2048 162.229 Q2043.07 162.229 2041.19 160.4 Q2039.32 158.548 2039.32 153.687 L2039.32 139.613 L2036.19 139.613 L2036.19 136.303 L2039.32 136.303 L2039.32 128.942 L2043.6 128.942 Z" fill="#000000" fill-rule="nonzero" fill-opacity="1" /><path clip-path="url(#clip780)" d="M2073 140.284 Q2072.28 139.868 2071.42 139.682 Q2070.59 139.474 2069.57 139.474 Q2065.96 139.474 2064.01 141.835 Q2062.09 144.173 2062.09 148.571 L2062.09 162.229 L2057.81 162.229 L2057.81 136.303 L2062.09 136.303 L2062.09 140.331 Q2063.44 137.969 2065.59 136.835 Q2067.74 135.678 2070.82 135.678 Q2071.26 135.678 2071.79 135.747 Q2072.33 135.794 2072.97 135.909 L2073 140.284 Z" fill="#000000" fill-rule="nonzero" fill-opacity="1" /><path clip-path="url(#clip780)" d="M2089.25 149.196 Q2084.08 149.196 2082.09 150.377 Q2080.1 151.557 2080.1 154.405 Q2080.1 156.673 2081.58 158.016 Q2083.09 159.335 2085.66 159.335 Q2089.2 159.335 2091.33 156.835 Q2093.48 154.312 2093.48 150.145 L2093.48 149.196 L2089.25 149.196 M2097.74 147.437 L2097.74 162.229 L2093.48 162.229 L2093.48 158.293 Q2092.02 160.655 2089.85 161.789 Q2087.67 162.9 2084.52 162.9 Q2080.54 162.9 2078.18 160.678 Q2075.84 158.432 2075.84 154.682 Q2075.84 150.307 2078.76 148.085 Q2081.7 145.863 2087.51 145.863 L2093.48 145.863 L2093.48 145.446 Q2093.48 142.507 2091.54 140.909 Q2089.62 139.289 2086.12 139.289 Q2083.9 139.289 2081.79 139.821 Q2079.69 140.354 2077.74 141.419 L2077.74 137.483 Q2080.08 136.581 2082.28 136.141 Q2084.48 135.678 2086.56 135.678 Q2092.19 135.678 2094.96 138.594 Q2097.74 141.511 2097.74 147.437 Z" fill="#000000" fill-rule="nonzero" fill-opacity="1" /><path clip-path="url(#clip780)" d="M2106.51 136.303 L2110.77 136.303 L2110.77 162.229 L2106.51 162.229 L2106.51 136.303 M2106.51 126.21 L2110.77 126.21 L2110.77 131.604 L2106.51 131.604 L2106.51 126.21 Z" fill="#000000" fill-rule="nonzero" fill-opacity="1" /><path clip-path="url(#clip780)" d="M2141.24 146.581 L2141.24 162.229 L2136.98 162.229 L2136.98 146.719 Q2136.98 143.039 2135.54 141.21 Q2134.11 139.382 2131.24 139.382 Q2127.79 139.382 2125.8 141.581 Q2123.81 143.78 2123.81 147.576 L2123.81 162.229 L2119.52 162.229 L2119.52 136.303 L2123.81 136.303 L2123.81 140.331 Q2125.33 137.993 2127.39 136.835 Q2129.48 135.678 2132.19 135.678 Q2136.65 135.678 2138.95 138.456 Q2141.24 141.21 2141.24 146.581 Z" fill="#000000" fill-rule="nonzero" fill-opacity="1" /><path clip-path="url(#clip780)" d="M2169.43 170.099 L2169.43 173.409 L2144.8 173.409 L2144.8 170.099 L2169.43 170.099 Z" fill="#000000" fill-rule="nonzero" fill-opacity="1" /><path clip-path="url(#clip780)" d="M2173.44 126.21 L2177.69 126.21 L2177.69 162.229 L2173.44 162.229 L2173.44 126.21 Z" fill="#000000" fill-rule="nonzero" fill-opacity="1" /><path clip-path="url(#clip780)" d="M2196.65 139.289 Q2193.23 139.289 2191.24 141.974 Q2189.25 144.636 2189.25 149.289 Q2189.25 153.942 2191.21 156.627 Q2193.2 159.289 2196.65 159.289 Q2200.06 159.289 2202.05 156.604 Q2204.04 153.918 2204.04 149.289 Q2204.04 144.682 2202.05 141.997 Q2200.06 139.289 2196.65 139.289 M2196.65 135.678 Q2202.21 135.678 2205.38 139.289 Q2208.55 142.9 2208.55 149.289 Q2208.55 155.655 2205.38 159.289 Q2202.21 162.9 2196.65 162.9 Q2191.07 162.9 2187.9 159.289 Q2184.75 155.655 2184.75 149.289 Q2184.75 142.9 2187.9 139.289 Q2191.07 135.678 2196.65 135.678 Z" fill="#000000" fill-rule="nonzero" fill-opacity="1" /><path clip-path="url(#clip780)" d="M2232.14 137.067 L2232.14 141.094 Q2230.33 140.169 2228.39 139.706 Q2226.44 139.243 2224.36 139.243 Q2221.19 139.243 2219.59 140.215 Q2218.02 141.187 2218.02 143.131 Q2218.02 144.613 2219.15 145.469 Q2220.29 146.303 2223.71 147.067 L2225.17 147.391 Q2229.71 148.363 2231.61 150.145 Q2233.53 151.905 2233.53 155.076 Q2233.53 158.687 2230.66 160.793 Q2227.81 162.9 2222.81 162.9 Q2220.73 162.9 2218.46 162.483 Q2216.21 162.09 2213.71 161.28 L2213.71 156.881 Q2216.07 158.108 2218.37 158.733 Q2220.66 159.335 2222.9 159.335 Q2225.91 159.335 2227.53 158.317 Q2229.15 157.275 2229.15 155.4 Q2229.15 153.664 2227.97 152.738 Q2226.81 151.812 2222.86 150.956 L2221.38 150.608 Q2217.42 149.775 2215.66 148.062 Q2213.9 146.326 2213.9 143.317 Q2213.9 139.659 2216.49 137.669 Q2219.08 135.678 2223.85 135.678 Q2226.21 135.678 2228.3 136.025 Q2230.38 136.372 2232.14 137.067 Z" fill="#000000" fill-rule="nonzero" fill-opacity="1" /><path clip-path="url(#clip780)" d="M2256.84 137.067 L2256.84 141.094 Q2255.03 140.169 2253.09 139.706 Q2251.14 139.243 2249.06 139.243 Q2245.89 139.243 2244.29 140.215 Q2242.72 141.187 2242.72 143.131 Q2242.72 144.613 2243.85 145.469 Q2244.99 146.303 2248.41 147.067 L2249.87 147.391 Q2254.41 148.363 2256.31 150.145 Q2258.23 151.905 2258.23 155.076 Q2258.23 158.687 2255.36 160.793 Q2252.51 162.9 2247.51 162.9 Q2245.43 162.9 2243.16 162.483 Q2240.91 162.09 2238.41 161.28 L2238.41 156.881 Q2240.77 158.108 2243.06 158.733 Q2245.36 159.335 2247.6 159.335 Q2250.61 159.335 2252.23 158.317 Q2253.85 157.275 2253.85 155.4 Q2253.85 153.664 2252.67 152.738 Q2251.51 151.812 2247.56 150.956 L2246.07 150.608 Q2242.12 149.775 2240.36 148.062 Q2238.6 146.326 2238.6 143.317 Q2238.6 139.659 2241.19 137.669 Q2243.78 135.678 2248.55 135.678 Q2250.91 135.678 2253 136.025 Q2255.08 136.372 2256.84 137.067 Z" fill="#000000" fill-rule="nonzero" fill-opacity="1" /><polyline clip-path="url(#clip780)" style="stroke:#e26f46; stroke-linecap:round; stroke-linejoin:round; stroke-width:4; stroke-opacity:1; fill:none" points="1870.77,196.789 2012.56,196.789 "/>
<path clip-path="url(#clip780)" d="M2036.19 188.143 L2040.7 188.143 L2048.81 209.902 L2056.91 188.143 L2061.42 188.143 L2051.7 214.069 L2045.91 214.069 L2036.19 188.143 Z" fill="#000000" fill-rule="nonzero" fill-opacity="1" /><path clip-path="url(#clip780)" d="M2079.08 201.036 Q2073.92 201.036 2071.93 202.217 Q2069.94 203.397 2069.94 206.245 Q2069.94 208.513 2071.42 209.856 Q2072.93 211.175 2075.5 211.175 Q2079.04 211.175 2081.17 208.675 Q2083.32 206.152 2083.32 201.985 L2083.32 201.036 L2079.08 201.036 M2087.58 199.277 L2087.58 214.069 L2083.32 214.069 L2083.32 210.133 Q2081.86 212.495 2079.69 213.629 Q2077.51 214.74 2074.36 214.74 Q2070.38 214.74 2068.02 212.518 Q2065.68 210.272 2065.68 206.522 Q2065.68 202.147 2068.6 199.925 Q2071.54 197.703 2077.35 197.703 L2083.32 197.703 L2083.32 197.286 Q2083.32 194.347 2081.38 192.749 Q2079.45 191.129 2075.96 191.129 Q2073.74 191.129 2071.63 191.661 Q2069.52 192.194 2067.58 193.259 L2067.58 189.323 Q2069.92 188.421 2072.12 187.981 Q2074.32 187.518 2076.4 187.518 Q2082.02 187.518 2084.8 190.434 Q2087.58 193.351 2087.58 199.277 Z" fill="#000000" fill-rule="nonzero" fill-opacity="1" /><path clip-path="url(#clip780)" d="M2096.35 178.05 L2100.61 178.05 L2100.61 214.069 L2096.35 214.069 L2096.35 178.05 Z" fill="#000000" fill-rule="nonzero" fill-opacity="1" /><path clip-path="url(#clip780)" d="M2129.22 221.939 L2129.22 225.249 L2104.59 225.249 L2104.59 221.939 L2129.22 221.939 Z" fill="#000000" fill-rule="nonzero" fill-opacity="1" /><path clip-path="url(#clip780)" d="M2133.23 178.05 L2137.49 178.05 L2137.49 214.069 L2133.23 214.069 L2133.23 178.05 Z" fill="#000000" fill-rule="nonzero" fill-opacity="1" /><path clip-path="url(#clip780)" d="M2156.44 191.129 Q2153.02 191.129 2151.03 193.814 Q2149.04 196.476 2149.04 201.129 Q2149.04 205.782 2151.01 208.467 Q2153 211.129 2156.44 211.129 Q2159.85 211.129 2161.84 208.444 Q2163.83 205.758 2163.83 201.129 Q2163.83 196.522 2161.84 193.837 Q2159.85 191.129 2156.44 191.129 M2156.44 187.518 Q2162 187.518 2165.17 191.129 Q2168.34 194.74 2168.34 201.129 Q2168.34 207.495 2165.17 211.129 Q2162 214.74 2156.44 214.74 Q2150.87 214.74 2147.69 211.129 Q2144.55 207.495 2144.55 201.129 Q2144.55 194.74 2147.69 191.129 Q2150.87 187.518 2156.44 187.518 Z" fill="#000000" fill-rule="nonzero" fill-opacity="1" /><path clip-path="url(#clip780)" d="M2191.93 188.907 L2191.93 192.934 Q2190.13 192.009 2188.18 191.546 Q2186.24 191.083 2184.15 191.083 Q2180.98 191.083 2179.38 192.055 Q2177.81 193.027 2177.81 194.971 Q2177.81 196.453 2178.94 197.309 Q2180.08 198.143 2183.5 198.907 L2184.96 199.231 Q2189.5 200.203 2191.4 201.985 Q2193.32 203.745 2193.32 206.916 Q2193.32 210.527 2190.45 212.633 Q2187.6 214.74 2182.6 214.74 Q2180.52 214.74 2178.25 214.323 Q2176.01 213.93 2173.51 213.12 L2173.51 208.721 Q2175.87 209.948 2178.16 210.573 Q2180.45 211.175 2182.69 211.175 Q2185.7 211.175 2187.32 210.157 Q2188.94 209.115 2188.94 207.24 Q2188.94 205.504 2187.76 204.578 Q2186.61 203.652 2182.65 202.796 L2181.17 202.448 Q2177.21 201.615 2175.45 199.902 Q2173.69 198.166 2173.69 195.157 Q2173.69 191.499 2176.28 189.509 Q2178.88 187.518 2183.64 187.518 Q2186 187.518 2188.09 187.865 Q2190.17 188.212 2191.93 188.907 Z" fill="#000000" fill-rule="nonzero" fill-opacity="1" /><path clip-path="url(#clip780)" d="M2216.63 188.907 L2216.63 192.934 Q2214.82 192.009 2212.88 191.546 Q2210.94 191.083 2208.85 191.083 Q2205.68 191.083 2204.08 192.055 Q2202.51 193.027 2202.51 194.971 Q2202.51 196.453 2203.64 197.309 Q2204.78 198.143 2208.2 198.907 L2209.66 199.231 Q2214.2 200.203 2216.1 201.985 Q2218.02 203.745 2218.02 206.916 Q2218.02 210.527 2215.15 212.633 Q2212.3 214.74 2207.3 214.74 Q2205.22 214.74 2202.95 214.323 Q2200.7 213.93 2198.2 213.12 L2198.2 208.721 Q2200.57 209.948 2202.86 210.573 Q2205.15 211.175 2207.39 211.175 Q2210.4 211.175 2212.02 210.157 Q2213.64 209.115 2213.64 207.24 Q2213.64 205.504 2212.46 204.578 Q2211.31 203.652 2207.35 202.796 L2205.87 202.448 Q2201.91 201.615 2200.15 199.902 Q2198.39 198.166 2198.39 195.157 Q2198.39 191.499 2200.98 189.509 Q2203.57 187.518 2208.34 187.518 Q2210.7 187.518 2212.79 187.865 Q2214.87 188.212 2216.63 188.907 Z" fill="#000000" fill-rule="nonzero" fill-opacity="1" /></svg>
