<?xml version="1.0" encoding="utf-8"?>
<svg xmlns="http://www.w3.org/2000/svg" xmlns:xlink="http://www.w3.org/1999/xlink" width="600" height="400" viewBox="0 0 2400 1600">
<defs>
  <clipPath id="clip050">
    <rect x="0" y="0" width="2400" height="1600"/>
  </clipPath>
</defs>
<path clip-path="url(#clip050)" d="M0 1600 L2400 1600 L2400 0 L0 0  Z" fill="#ffffff" fill-rule="evenodd" fill-opacity="1"/>
<defs>
  <clipPath id="clip051">
    <rect x="480" y="0" width="1681" height="1600"/>
  </clipPath>
</defs>
<path clip-path="url(#clip050)" d="M193.936 1486.45 L2352.76 1486.45 L2352.76 47.2441 L193.936 47.2441  Z" fill="#ffffff" fill-rule="evenodd" fill-opacity="1"/>
<defs>
  <clipPath id="clip052">
    <rect x="193" y="47" width="2160" height="1440"/>
  </clipPath>
</defs>
<polyline clip-path="url(#clip052)" style="stroke:#000000; stroke-linecap:round; stroke-linejoin:round; stroke-width:2; stroke-opacity:0.1; fill:none" points="246.855,1486.45 246.855,47.2441 "/>
<polyline clip-path="url(#clip052)" style="stroke:#000000; stroke-linecap:round; stroke-linejoin:round; stroke-width:2; stroke-opacity:0.1; fill:none" points="758.056,1486.45 758.056,47.2441 "/>
<polyline clip-path="url(#clip052)" style="stroke:#000000; stroke-linecap:round; stroke-linejoin:round; stroke-width:2; stroke-opacity:0.1; fill:none" points="1269.26,1486.45 1269.26,47.2441 "/>
<polyline clip-path="url(#clip052)" style="stroke:#000000; stroke-linecap:round; stroke-linejoin:round; stroke-width:2; stroke-opacity:0.1; fill:none" points="1780.46,1486.45 1780.46,47.2441 "/>
<polyline clip-path="url(#clip052)" style="stroke:#000000; stroke-linecap:round; stroke-linejoin:round; stroke-width:2; stroke-opacity:0.1; fill:none" points="2291.66,1486.45 2291.66,47.2441 "/>
<polyline clip-path="url(#clip052)" style="stroke:#000000; stroke-linecap:round; stroke-linejoin:round; stroke-width:2; stroke-opacity:0.1; fill:none" points="193.936,1266.58 2352.76,1266.58 "/>
<polyline clip-path="url(#clip052)" style="stroke:#000000; stroke-linecap:round; stroke-linejoin:round; stroke-width:2; stroke-opacity:0.1; fill:none" points="193.936,1026.12 2352.76,1026.12 "/>
<polyline clip-path="url(#clip052)" style="stroke:#000000; stroke-linecap:round; stroke-linejoin:round; stroke-width:2; stroke-opacity:0.1; fill:none" points="193.936,785.653 2352.76,785.653 "/>
<polyline clip-path="url(#clip052)" style="stroke:#000000; stroke-linecap:round; stroke-linejoin:round; stroke-width:2; stroke-opacity:0.1; fill:none" points="193.936,545.187 2352.76,545.187 "/>
<polyline clip-path="url(#clip052)" style="stroke:#000000; stroke-linecap:round; stroke-linejoin:round; stroke-width:2; stroke-opacity:0.1; fill:none" points="193.936,304.722 2352.76,304.722 "/>
<polyline clip-path="url(#clip052)" style="stroke:#000000; stroke-linecap:round; stroke-linejoin:round; stroke-width:2; stroke-opacity:0.1; fill:none" points="193.936,64.256 2352.76,64.256 "/>
<polyline clip-path="url(#clip050)" style="stroke:#000000; stroke-linecap:round; stroke-linejoin:round; stroke-width:4; stroke-opacity:1; fill:none" points="193.936,1486.45 2352.76,1486.45 "/>
<polyline clip-path="url(#clip050)" style="stroke:#000000; stroke-linecap:round; stroke-linejoin:round; stroke-width:4; stroke-opacity:1; fill:none" points="246.855,1486.45 246.855,1467.55 "/>
<polyline clip-path="url(#clip050)" style="stroke:#000000; stroke-linecap:round; stroke-linejoin:round; stroke-width:4; stroke-opacity:1; fill:none" points="758.056,1486.45 758.056,1467.55 "/>
<polyline clip-path="url(#clip050)" style="stroke:#000000; stroke-linecap:round; stroke-linejoin:round; stroke-width:4; stroke-opacity:1; fill:none" points="1269.26,1486.45 1269.26,1467.55 "/>
<polyline clip-path="url(#clip050)" style="stroke:#000000; stroke-linecap:round; stroke-linejoin:round; stroke-width:4; stroke-opacity:1; fill:none" points="1780.46,1486.45 1780.46,1467.55 "/>
<polyline clip-path="url(#clip050)" style="stroke:#000000; stroke-linecap:round; stroke-linejoin:round; stroke-width:4; stroke-opacity:1; fill:none" points="2291.66,1486.45 2291.66,1467.55 "/>
<path clip-path="url(#clip050)" d="M246.855 1517.37 Q243.244 1517.37 241.416 1520.93 Q239.61 1524.47 239.61 1531.6 Q239.61 1538.71 241.416 1542.27 Q243.244 1545.82 246.855 1545.82 Q250.49 1545.82 252.295 1542.27 Q254.124 1538.71 254.124 1531.6 Q254.124 1524.47 252.295 1520.93 Q250.49 1517.37 246.855 1517.37 M246.855 1513.66 Q252.666 1513.66 255.721 1518.27 Q258.8 1522.85 258.8 1531.6 Q258.8 1540.33 255.721 1544.94 Q252.666 1549.52 246.855 1549.52 Q241.045 1549.52 237.967 1544.94 Q234.911 1540.33 234.911 1531.6 Q234.911 1522.85 237.967 1518.27 Q241.045 1513.66 246.855 1513.66 Z" fill="#000000" fill-rule="nonzero" fill-opacity="1" /><path clip-path="url(#clip050)" d="M721.748 1544.91 L738.068 1544.91 L738.068 1548.85 L716.123 1548.85 L716.123 1544.91 Q718.785 1542.16 723.369 1537.53 Q727.975 1532.88 729.156 1531.53 Q731.401 1529.01 732.281 1527.27 Q733.183 1525.51 733.183 1523.82 Q733.183 1521.07 731.239 1519.33 Q729.318 1517.6 726.216 1517.6 Q724.017 1517.6 721.563 1518.36 Q719.133 1519.13 716.355 1520.68 L716.355 1515.95 Q719.179 1514.82 721.632 1514.24 Q724.086 1513.66 726.123 1513.66 Q731.494 1513.66 734.688 1516.35 Q737.882 1519.03 737.882 1523.52 Q737.882 1525.65 737.072 1527.57 Q736.285 1529.47 734.179 1532.07 Q733.6 1532.74 730.498 1535.95 Q727.396 1539.15 721.748 1544.91 Z" fill="#000000" fill-rule="nonzero" fill-opacity="1" /><path clip-path="url(#clip050)" d="M747.929 1514.29 L766.285 1514.29 L766.285 1518.22 L752.211 1518.22 L752.211 1526.7 Q753.23 1526.35 754.248 1526.19 Q755.267 1526 756.285 1526 Q762.072 1526 765.452 1529.17 Q768.831 1532.34 768.831 1537.76 Q768.831 1543.34 765.359 1546.44 Q761.887 1549.52 755.567 1549.52 Q753.392 1549.52 751.123 1549.15 Q748.878 1548.78 746.47 1548.04 L746.47 1543.34 Q748.554 1544.47 750.776 1545.03 Q752.998 1545.58 755.475 1545.58 Q759.48 1545.58 761.817 1543.48 Q764.155 1541.37 764.155 1537.76 Q764.155 1534.15 761.817 1532.04 Q759.48 1529.94 755.475 1529.94 Q753.6 1529.94 751.725 1530.35 Q749.873 1530.77 747.929 1531.65 L747.929 1514.29 Z" fill="#000000" fill-rule="nonzero" fill-opacity="1" /><path clip-path="url(#clip050)" d="M788.044 1517.37 Q784.433 1517.37 782.604 1520.93 Q780.799 1524.47 780.799 1531.6 Q780.799 1538.71 782.604 1542.27 Q784.433 1545.82 788.044 1545.82 Q791.678 1545.82 793.484 1542.27 Q795.313 1538.71 795.313 1531.6 Q795.313 1524.47 793.484 1520.93 Q791.678 1517.37 788.044 1517.37 M788.044 1513.66 Q793.854 1513.66 796.91 1518.27 Q799.989 1522.85 799.989 1531.6 Q799.989 1540.33 796.91 1544.94 Q793.854 1549.52 788.044 1549.52 Q782.234 1549.52 779.155 1544.94 Q776.1 1540.33 776.1 1531.6 Q776.1 1522.85 779.155 1518.27 Q782.234 1513.66 788.044 1513.66 Z" fill="#000000" fill-rule="nonzero" fill-opacity="1" /><path clip-path="url(#clip050)" d="M1228.87 1514.29 L1247.23 1514.29 L1247.23 1518.22 L1233.16 1518.22 L1233.16 1526.7 Q1234.18 1526.35 1235.19 1526.19 Q1236.21 1526 1237.23 1526 Q1243.02 1526 1246.4 1529.17 Q1249.78 1532.34 1249.78 1537.76 Q1249.78 1543.34 1246.31 1546.44 Q1242.83 1549.52 1236.51 1549.52 Q1234.34 1549.52 1232.07 1549.15 Q1229.82 1548.78 1227.42 1548.04 L1227.42 1543.34 Q1229.5 1544.47 1231.72 1545.03 Q1233.94 1545.58 1236.42 1545.58 Q1240.43 1545.58 1242.76 1543.48 Q1245.1 1541.37 1245.1 1537.76 Q1245.1 1534.15 1242.76 1532.04 Q1240.43 1529.94 1236.42 1529.94 Q1234.55 1529.94 1232.67 1530.35 Q1230.82 1530.77 1228.87 1531.65 L1228.87 1514.29 Z" fill="#000000" fill-rule="nonzero" fill-opacity="1" /><path clip-path="url(#clip050)" d="M1268.99 1517.37 Q1265.38 1517.37 1263.55 1520.93 Q1261.74 1524.47 1261.74 1531.6 Q1261.74 1538.71 1263.55 1542.27 Q1265.38 1545.82 1268.99 1545.82 Q1272.62 1545.82 1274.43 1542.27 Q1276.26 1538.71 1276.26 1531.6 Q1276.26 1524.47 1274.43 1520.93 Q1272.62 1517.37 1268.99 1517.37 M1268.99 1513.66 Q1274.8 1513.66 1277.86 1518.27 Q1280.93 1522.85 1280.93 1531.6 Q1280.93 1540.33 1277.86 1544.94 Q1274.8 1549.52 1268.99 1549.52 Q1263.18 1549.52 1260.1 1544.94 Q1257.05 1540.33 1257.05 1531.6 Q1257.05 1522.85 1260.1 1518.27 Q1263.18 1513.66 1268.99 1513.66 Z" fill="#000000" fill-rule="nonzero" fill-opacity="1" /><path clip-path="url(#clip050)" d="M1299.15 1517.37 Q1295.54 1517.37 1293.71 1520.93 Q1291.91 1524.47 1291.91 1531.6 Q1291.91 1538.71 1293.71 1542.27 Q1295.54 1545.82 1299.15 1545.82 Q1302.79 1545.82 1304.59 1542.27 Q1306.42 1538.71 1306.42 1531.6 Q1306.42 1524.47 1304.59 1520.93 Q1302.79 1517.37 1299.15 1517.37 M1299.15 1513.66 Q1304.96 1513.66 1308.02 1518.27 Q1311.1 1522.85 1311.1 1531.6 Q1311.1 1540.33 1308.02 1544.94 Q1304.96 1549.52 1299.15 1549.52 Q1293.34 1549.52 1290.26 1544.94 Q1287.21 1540.33 1287.21 1531.6 Q1287.21 1522.85 1290.26 1518.27 Q1293.34 1513.66 1299.15 1513.66 Z" fill="#000000" fill-rule="nonzero" fill-opacity="1" /><path clip-path="url(#clip050)" d="M1738.73 1514.29 L1760.95 1514.29 L1760.95 1516.28 L1748.41 1548.85 L1743.52 1548.85 L1755.33 1518.22 L1738.73 1518.22 L1738.73 1514.29 Z" fill="#000000" fill-rule="nonzero" fill-opacity="1" /><path clip-path="url(#clip050)" d="M1770.12 1514.29 L1788.48 1514.29 L1788.48 1518.22 L1774.4 1518.22 L1774.4 1526.7 Q1775.42 1526.35 1776.44 1526.19 Q1777.46 1526 1778.48 1526 Q1784.26 1526 1787.64 1529.17 Q1791.02 1532.34 1791.02 1537.76 Q1791.02 1543.34 1787.55 1546.44 Q1784.08 1549.52 1777.76 1549.52 Q1775.58 1549.52 1773.32 1549.15 Q1771.07 1548.78 1768.66 1548.04 L1768.66 1543.34 Q1770.75 1544.47 1772.97 1545.03 Q1775.19 1545.58 1777.67 1545.58 Q1781.67 1545.58 1784.01 1543.48 Q1786.35 1541.37 1786.35 1537.76 Q1786.35 1534.15 1784.01 1532.04 Q1781.67 1529.94 1777.67 1529.94 Q1775.79 1529.94 1773.92 1530.35 Q1772.07 1530.77 1770.12 1531.65 L1770.12 1514.29 Z" fill="#000000" fill-rule="nonzero" fill-opacity="1" /><path clip-path="url(#clip050)" d="M1810.24 1517.37 Q1806.63 1517.37 1804.8 1520.93 Q1802.99 1524.47 1802.99 1531.6 Q1802.99 1538.71 1804.8 1542.27 Q1806.63 1545.82 1810.24 1545.82 Q1813.87 1545.82 1815.68 1542.27 Q1817.51 1538.71 1817.51 1531.6 Q1817.51 1524.47 1815.68 1520.93 Q1813.87 1517.37 1810.24 1517.37 M1810.24 1513.66 Q1816.05 1513.66 1819.1 1518.27 Q1822.18 1522.85 1822.18 1531.6 Q1822.18 1540.33 1819.1 1544.94 Q1816.05 1549.52 1810.24 1549.52 Q1804.43 1549.52 1801.35 1544.94 Q1798.29 1540.33 1798.29 1531.6 Q1798.29 1522.85 1801.35 1518.27 Q1804.43 1513.66 1810.24 1513.66 Z" fill="#000000" fill-rule="nonzero" fill-opacity="1" /><path clip-path="url(#clip050)" d="M2236.18 1544.91 L2243.82 1544.91 L2243.82 1518.55 L2235.51 1520.21 L2235.51 1515.95 L2243.78 1514.29 L2248.45 1514.29 L2248.45 1544.91 L2256.09 1544.91 L2256.09 1548.85 L2236.18 1548.85 L2236.18 1544.91 Z" fill="#000000" fill-rule="nonzero" fill-opacity="1" /><path clip-path="url(#clip050)" d="M2275.53 1517.37 Q2271.92 1517.37 2270.09 1520.93 Q2268.29 1524.47 2268.29 1531.6 Q2268.29 1538.71 2270.09 1542.27 Q2271.92 1545.82 2275.53 1545.82 Q2279.17 1545.82 2280.97 1542.27 Q2282.8 1538.71 2282.8 1531.6 Q2282.8 1524.47 2280.97 1520.93 Q2279.17 1517.37 2275.53 1517.37 M2275.53 1513.66 Q2281.34 1513.66 2284.4 1518.27 Q2287.48 1522.85 2287.48 1531.6 Q2287.48 1540.33 2284.4 1544.94 Q2281.34 1549.52 2275.53 1549.52 Q2269.72 1549.52 2266.65 1544.94 Q2263.59 1540.33 2263.59 1531.6 Q2263.59 1522.85 2266.65 1518.27 Q2269.72 1513.66 2275.53 1513.66 Z" fill="#000000" fill-rule="nonzero" fill-opacity="1" /><path clip-path="url(#clip050)" d="M2305.7 1517.37 Q2302.09 1517.37 2300.26 1520.93 Q2298.45 1524.47 2298.45 1531.6 Q2298.45 1538.71 2300.26 1542.27 Q2302.09 1545.82 2305.7 1545.82 Q2309.33 1545.82 2311.14 1542.27 Q2312.96 1538.71 2312.96 1531.6 Q2312.96 1524.47 2311.14 1520.93 Q2309.33 1517.37 2305.7 1517.37 M2305.7 1513.66 Q2311.51 1513.66 2314.56 1518.27 Q2317.64 1522.85 2317.64 1531.6 Q2317.64 1540.33 2314.56 1544.94 Q2311.51 1549.52 2305.7 1549.52 Q2299.89 1549.52 2296.81 1544.94 Q2293.75 1540.33 2293.75 1531.6 Q2293.75 1522.85 2296.81 1518.27 Q2299.89 1513.66 2305.7 1513.66 Z" fill="#000000" fill-rule="nonzero" fill-opacity="1" /><path clip-path="url(#clip050)" d="M2335.86 1517.37 Q2332.25 1517.37 2330.42 1520.93 Q2328.61 1524.47 2328.61 1531.6 Q2328.61 1538.71 2330.42 1542.27 Q2332.25 1545.82 2335.86 1545.82 Q2339.49 1545.82 2341.3 1542.27 Q2343.13 1538.71 2343.13 1531.6 Q2343.13 1524.47 2341.3 1520.93 Q2339.49 1517.37 2335.86 1517.37 M2335.86 1513.66 Q2341.67 1513.66 2344.72 1518.27 Q2347.8 1522.85 2347.8 1531.6 Q2347.8 1540.33 2344.72 1544.94 Q2341.67 1549.52 2335.86 1549.52 Q2330.05 1549.52 2326.97 1544.94 Q2323.91 1540.33 2323.91 1531.6 Q2323.91 1522.85 2326.97 1518.27 Q2330.05 1513.66 2335.86 1513.66 Z" fill="#000000" fill-rule="nonzero" fill-opacity="1" /><polyline clip-path="url(#clip050)" style="stroke:#000000; stroke-linecap:round; stroke-linejoin:round; stroke-width:4; stroke-opacity:1; fill:none" points="193.936,1486.45 193.936,47.2441 "/>
<polyline clip-path="url(#clip050)" style="stroke:#000000; stroke-linecap:round; stroke-linejoin:round; stroke-width:4; stroke-opacity:1; fill:none" points="193.936,1266.58 212.834,1266.58 "/>
<polyline clip-path="url(#clip050)" style="stroke:#000000; stroke-linecap:round; stroke-linejoin:round; stroke-width:4; stroke-opacity:1; fill:none" points="193.936,1026.12 212.834,1026.12 "/>
<polyline clip-path="url(#clip050)" style="stroke:#000000; stroke-linecap:round; stroke-linejoin:round; stroke-width:4; stroke-opacity:1; fill:none" points="193.936,785.653 212.834,785.653 "/>
<polyline clip-path="url(#clip050)" style="stroke:#000000; stroke-linecap:round; stroke-linejoin:round; stroke-width:4; stroke-opacity:1; fill:none" points="193.936,545.187 212.834,545.187 "/>
<polyline clip-path="url(#clip050)" style="stroke:#000000; stroke-linecap:round; stroke-linejoin:round; stroke-width:4; stroke-opacity:1; fill:none" points="193.936,304.722 212.834,304.722 "/>
<polyline clip-path="url(#clip050)" style="stroke:#000000; stroke-linecap:round; stroke-linejoin:round; stroke-width:4; stroke-opacity:1; fill:none" points="193.936,64.256 212.834,64.256 "/>
<path clip-path="url(#clip050)" d="M50.9921 1267.04 L80.6679 1267.04 L80.6679 1270.97 L50.9921 1270.97 L50.9921 1267.04 Z" fill="#000000" fill-rule="nonzero" fill-opacity="1" /><path clip-path="url(#clip050)" d="M91.5706 1279.93 L99.2095 1279.93 L99.2095 1253.56 L90.8993 1255.23 L90.8993 1250.97 L99.1632 1249.3 L103.839 1249.3 L103.839 1279.93 L111.478 1279.93 L111.478 1283.86 L91.5706 1283.86 L91.5706 1279.93 Z" fill="#000000" fill-rule="nonzero" fill-opacity="1" /><path clip-path="url(#clip050)" d="M120.922 1277.98 L125.807 1277.98 L125.807 1283.86 L120.922 1283.86 L120.922 1277.98 Z" fill="#000000" fill-rule="nonzero" fill-opacity="1" /><path clip-path="url(#clip050)" d="M145.992 1252.38 Q142.381 1252.38 140.552 1255.95 Q138.746 1259.49 138.746 1266.62 Q138.746 1273.73 140.552 1277.29 Q142.381 1280.83 145.992 1280.83 Q149.626 1280.83 151.431 1277.29 Q153.26 1273.73 153.26 1266.62 Q153.26 1259.49 151.431 1255.95 Q149.626 1252.38 145.992 1252.38 M145.992 1248.68 Q151.802 1248.68 154.857 1253.29 Q157.936 1257.87 157.936 1266.62 Q157.936 1275.35 154.857 1279.95 Q151.802 1284.54 145.992 1284.54 Q140.181 1284.54 137.103 1279.95 Q134.047 1275.35 134.047 1266.62 Q134.047 1257.87 137.103 1253.29 Q140.181 1248.68 145.992 1248.68 Z" fill="#000000" fill-rule="nonzero" fill-opacity="1" /><path clip-path="url(#clip050)" d="M51.9875 1026.57 L81.6633 1026.57 L81.6633 1030.5 L51.9875 1030.5 L51.9875 1026.57 Z" fill="#000000" fill-rule="nonzero" fill-opacity="1" /><path clip-path="url(#clip050)" d="M101.756 1011.92 Q98.1447 1011.92 96.316 1015.48 Q94.5104 1019.02 94.5104 1026.15 Q94.5104 1033.26 96.316 1036.82 Q98.1447 1040.37 101.756 1040.37 Q105.39 1040.37 107.196 1036.82 Q109.024 1033.26 109.024 1026.15 Q109.024 1019.02 107.196 1015.48 Q105.39 1011.92 101.756 1011.92 M101.756 1008.21 Q107.566 1008.21 110.621 1012.82 Q113.7 1017.4 113.7 1026.15 Q113.7 1034.88 110.621 1039.49 Q107.566 1044.07 101.756 1044.07 Q95.9456 1044.07 92.8669 1039.49 Q89.8114 1034.88 89.8114 1026.15 Q89.8114 1017.4 92.8669 1012.82 Q95.9456 1008.21 101.756 1008.21 Z" fill="#000000" fill-rule="nonzero" fill-opacity="1" /><path clip-path="url(#clip050)" d="M121.918 1037.52 L126.802 1037.52 L126.802 1043.4 L121.918 1043.4 L121.918 1037.52 Z" fill="#000000" fill-rule="nonzero" fill-opacity="1" /><path clip-path="url(#clip050)" d="M137.033 1008.84 L155.39 1008.84 L155.39 1012.77 L141.316 1012.77 L141.316 1021.25 Q142.334 1020.9 143.353 1020.74 Q144.371 1020.55 145.39 1020.55 Q151.177 1020.55 154.556 1023.72 Q157.936 1026.89 157.936 1032.31 Q157.936 1037.89 154.464 1040.99 Q150.992 1044.07 144.672 1044.07 Q142.496 1044.07 140.228 1043.7 Q137.982 1043.33 135.575 1042.59 L135.575 1037.89 Q137.658 1039.02 139.881 1039.58 Q142.103 1040.13 144.58 1040.13 Q148.584 1040.13 150.922 1038.03 Q153.26 1035.92 153.26 1032.31 Q153.26 1028.7 150.922 1026.59 Q148.584 1024.49 144.58 1024.49 Q142.705 1024.49 140.83 1024.9 Q138.978 1025.32 137.033 1026.2 L137.033 1008.84 Z" fill="#000000" fill-rule="nonzero" fill-opacity="1" /><path clip-path="url(#clip050)" d="M100.76 771.452 Q97.1493 771.452 95.3206 775.016 Q93.515 778.558 93.515 785.688 Q93.515 792.794 95.3206 796.359 Q97.1493 799.9 100.76 799.9 Q104.395 799.9 106.2 796.359 Q108.029 792.794 108.029 785.688 Q108.029 778.558 106.2 775.016 Q104.395 771.452 100.76 771.452 M100.76 767.748 Q106.571 767.748 109.626 772.354 Q112.705 776.938 112.705 785.688 Q112.705 794.414 109.626 799.021 Q106.571 803.604 100.76 803.604 Q94.9502 803.604 91.8715 799.021 Q88.816 794.414 88.816 785.688 Q88.816 776.938 91.8715 772.354 Q94.9502 767.748 100.76 767.748 Z" fill="#000000" fill-rule="nonzero" fill-opacity="1" /><path clip-path="url(#clip050)" d="M120.922 797.053 L125.807 797.053 L125.807 802.933 L120.922 802.933 L120.922 797.053 Z" fill="#000000" fill-rule="nonzero" fill-opacity="1" /><path clip-path="url(#clip050)" d="M145.992 771.452 Q142.381 771.452 140.552 775.016 Q138.746 778.558 138.746 785.688 Q138.746 792.794 140.552 796.359 Q142.381 799.9 145.992 799.9 Q149.626 799.9 151.431 796.359 Q153.26 792.794 153.26 785.688 Q153.26 778.558 151.431 775.016 Q149.626 771.452 145.992 771.452 M145.992 767.748 Q151.802 767.748 154.857 772.354 Q157.936 776.938 157.936 785.688 Q157.936 794.414 154.857 799.021 Q151.802 803.604 145.992 803.604 Q140.181 803.604 137.103 799.021 Q134.047 794.414 134.047 785.688 Q134.047 776.938 137.103 772.354 Q140.181 767.748 145.992 767.748 Z" fill="#000000" fill-rule="nonzero" fill-opacity="1" /><path clip-path="url(#clip050)" d="M101.756 530.986 Q98.1447 530.986 96.316 534.551 Q94.5104 538.092 94.5104 545.222 Q94.5104 552.328 96.316 555.893 Q98.1447 559.435 101.756 559.435 Q105.39 559.435 107.196 555.893 Q109.024 552.328 109.024 545.222 Q109.024 538.092 107.196 534.551 Q105.39 530.986 101.756 530.986 M101.756 527.282 Q107.566 527.282 110.621 531.889 Q113.7 536.472 113.7 545.222 Q113.7 553.949 110.621 558.555 Q107.566 563.139 101.756 563.139 Q95.9456 563.139 92.8669 558.555 Q89.8114 553.949 89.8114 545.222 Q89.8114 536.472 92.8669 531.889 Q95.9456 527.282 101.756 527.282 Z" fill="#000000" fill-rule="nonzero" fill-opacity="1" /><path clip-path="url(#clip050)" d="M121.918 556.588 L126.802 556.588 L126.802 562.467 L121.918 562.467 L121.918 556.588 Z" fill="#000000" fill-rule="nonzero" fill-opacity="1" /><path clip-path="url(#clip050)" d="M137.033 527.907 L155.39 527.907 L155.39 531.842 L141.316 531.842 L141.316 540.315 Q142.334 539.967 143.353 539.805 Q144.371 539.62 145.39 539.62 Q151.177 539.62 154.556 542.791 Q157.936 545.963 157.936 551.379 Q157.936 556.958 154.464 560.06 Q150.992 563.139 144.672 563.139 Q142.496 563.139 140.228 562.768 Q137.982 562.398 135.575 561.657 L135.575 556.958 Q137.658 558.092 139.881 558.648 Q142.103 559.203 144.58 559.203 Q148.584 559.203 150.922 557.097 Q153.26 554.99 153.26 551.379 Q153.26 547.768 150.922 545.662 Q148.584 543.555 144.58 543.555 Q142.705 543.555 140.83 543.972 Q138.978 544.389 137.033 545.268 L137.033 527.907 Z" fill="#000000" fill-rule="nonzero" fill-opacity="1" /><path clip-path="url(#clip050)" d="M91.5706 318.066 L99.2095 318.066 L99.2095 291.701 L90.8993 293.368 L90.8993 289.108 L99.1632 287.442 L103.839 287.442 L103.839 318.066 L111.478 318.066 L111.478 322.002 L91.5706 322.002 L91.5706 318.066 Z" fill="#000000" fill-rule="nonzero" fill-opacity="1" /><path clip-path="url(#clip050)" d="M120.922 316.122 L125.807 316.122 L125.807 322.002 L120.922 322.002 L120.922 316.122 Z" fill="#000000" fill-rule="nonzero" fill-opacity="1" /><path clip-path="url(#clip050)" d="M145.992 290.52 Q142.381 290.52 140.552 294.085 Q138.746 297.627 138.746 304.756 Q138.746 311.863 140.552 315.428 Q142.381 318.969 145.992 318.969 Q149.626 318.969 151.431 315.428 Q153.26 311.863 153.26 304.756 Q153.26 297.627 151.431 294.085 Q149.626 290.52 145.992 290.52 M145.992 286.817 Q151.802 286.817 154.857 291.423 Q157.936 296.006 157.936 304.756 Q157.936 313.483 154.857 318.09 Q151.802 322.673 145.992 322.673 Q140.181 322.673 137.103 318.09 Q134.047 313.483 134.047 304.756 Q134.047 296.006 137.103 291.423 Q140.181 286.817 145.992 286.817 Z" fill="#000000" fill-rule="nonzero" fill-opacity="1" /><path clip-path="url(#clip050)" d="M92.566 77.6009 L100.205 77.6009 L100.205 51.2353 L91.8947 52.9019 L91.8947 48.6427 L100.159 46.976 L104.834 46.976 L104.834 77.6009 L112.473 77.6009 L112.473 81.536 L92.566 81.536 L92.566 77.6009 Z" fill="#000000" fill-rule="nonzero" fill-opacity="1" /><path clip-path="url(#clip050)" d="M121.918 75.6564 L126.802 75.6564 L126.802 81.536 L121.918 81.536 L121.918 75.6564 Z" fill="#000000" fill-rule="nonzero" fill-opacity="1" /><path clip-path="url(#clip050)" d="M137.033 46.976 L155.39 46.976 L155.39 50.9112 L141.316 50.9112 L141.316 59.3834 Q142.334 59.0361 143.353 58.8741 Q144.371 58.6889 145.39 58.6889 Q151.177 58.6889 154.556 61.8602 Q157.936 65.0315 157.936 70.4481 Q157.936 76.0268 154.464 79.1286 Q150.992 82.2073 144.672 82.2073 Q142.496 82.2073 140.228 81.8369 Q137.982 81.4666 135.575 80.7258 L135.575 76.0268 Q137.658 77.161 139.881 77.7166 Q142.103 78.2721 144.58 78.2721 Q148.584 78.2721 150.922 76.1657 Q153.26 74.0592 153.26 70.4481 Q153.26 66.837 150.922 64.7306 Q148.584 62.6241 144.58 62.6241 Q142.705 62.6241 140.83 63.0407 Q138.978 63.4574 137.033 64.337 L137.033 46.976 Z" fill="#000000" fill-rule="nonzero" fill-opacity="1" /><polyline clip-path="url(#clip052)" style="stroke:#009af9; stroke-linecap:round; stroke-linejoin:round; stroke-width:4; stroke-opacity:1; fill:none" points="255.035,720.998 257.079,783.24 259.124,831.786 261.169,753.481 263.214,802.589 265.259,838.756 267.303,722.778 269.348,752.731 271.393,718.389 273.438,610.44 275.483,683.495 277.527,645.062 279.572,653.744 281.617,645.47 283.662,651.157 285.707,698.733 287.752,656.02 289.796,616.387 291.841,714.802 293.886,660.964 295.931,663.737 297.976,749.832 300.02,711.083 302.065,702.563 304.11,649.773 306.155,687.239 308.2,507.667 310.244,723.218 312.289,636.104 314.334,569.323 316.379,723.637 318.424,654.516 320.468,641.453 322.513,637.271 324.558,610.815 326.603,683.545 328.648,523.759 330.692,600.71 332.737,709.754 334.782,510.394 336.827,563.51 338.872,589.64 340.916,599.292 342.961,732.109 345.006,547.168 347.051,595.266 349.096,626.743 351.14,506.411 353.185,589.45 355.23,555.2 357.275,513.995 359.32,601.943 361.364,468.884 363.409,560.634 365.454,605.718 367.499,450.471 369.544,558.941 371.588,537.583 373.633,451.921 375.678,492.259 377.723,513.777 379.768,495.265 381.812,477.861 383.857,592.572 385.902,612.597 387.947,534.62 389.992,499.56 392.036,527.802 394.081,447.462 396.126,381.506 398.171,445.579 400.216,437.962 402.26,348.194 404.305,427.562 406.35,496.964 408.395,462.42 410.44,350.773 412.484,389.646 414.529,369.066 416.574,406.894 418.619,467.973 420.664,487.53 422.708,461.445 424.753,497.856 426.798,524.187 428.843,447.059 430.888,401.07 432.932,460.53 434.977,413.377 437.022,267.486 439.067,431.003 441.112,386.372 443.156,413.094 445.201,480.957 447.246,331.006 449.291,383.053 451.336,385.907 453.38,272.42 455.425,290.081 457.47,359.228 459.515,372.871 461.56,260.472 463.604,345.341 465.649,359.851 467.694,320.442 469.739,335.069 471.784,320.614 473.828,346.915 475.873,208.483 477.918,364.883 479.963,285.292 482.008,387.842 484.052,330.954 486.097,221.788 488.142,402.464 490.187,317.426 492.232,275.872 494.276,391.775 496.321,288.903 498.366,241.467 500.411,401.134 502.456,288.885 504.5,325.075 506.545,413.541 508.59,264.374 510.635,291.02 512.68,333.827 514.724,342.139 516.769,319.48 518.814,237.065 520.859,320.487 522.904,275.298 524.949,293.753 526.993,321.201 529.038,263.521 531.083,309.543 533.128,323.471 535.173,252.876 537.217,245.822 539.262,290.826 541.307,369.571 543.352,277.291 545.397,220.563 547.441,313.302 549.486,327.841 551.531,345.294 553.576,364.446 555.621,317.152 557.665,353.992 559.71,366.423 561.755,286.248 563.8,308.032 565.845,320.902 567.889,322.78 569.934,242.896 571.979,244.25 574.024,382.696 576.069,345.374 578.113,339.756 580.158,280.806 582.203,269.969 584.248,382.892 586.293,306.638 588.337,324.085 590.382,257.287 592.427,297.66 594.472,289.011 596.517,354.225 598.561,404.763 600.606,471.568 602.651,337.35 604.696,271.583 606.741,341.86 608.785,172.693 610.83,270.164 612.875,372.494 614.92,272.903 616.965,239.918 619.009,341.243 621.054,314.265 623.099,318.364 625.144,310.422 627.189,392.428 629.233,371.465 631.278,388.175 633.323,366.22 635.368,270.605 637.413,329.718 639.457,381.395 641.502,343.731 643.547,231.551 645.592,412.176 647.637,474.573 649.681,310.56 651.726,449.863 653.771,398.721 655.816,397.196 657.861,430.78 659.905,358.997 661.95,297.582 663.995,405.776 666.04,295.906 668.085,268.196 670.129,338.844 672.174,240.987 674.219,213.383 676.264,303.396 678.309,386.404 680.353,473.777 682.398,349.039 684.443,416.281 686.488,385.197 688.533,402.313 690.577,390.424 692.622,385.216 694.667,398.107 696.712,277.767 698.757,409.39 700.801,422.083 702.846,403.943 704.891,468.579 706.936,485.534 708.981,511.921 711.025,539.549 713.07,506.599 715.115,499.864 717.16,488.576 719.205,495.164 721.249,533.054 723.294,497.497 725.339,435.953 727.384,373.01 729.429,515.641 731.473,388.164 733.518,444.302 735.563,486.184 737.608,433.669 739.653,408.56 741.697,412.255 743.742,512.327 745.787,488.499 747.832,517.254 749.877,414.784 751.922,495.305 753.966,511.449 756.011,434.938 758.056,558.739 760.101,509.971 762.146,526.621 764.19,559.138 766.235,547.265 768.28,575.047 770.325,477.751 772.37,474.51 774.414,581.463 776.459,519.936 778.504,592.701 780.549,561.902 782.594,531.012 784.638,524.011 786.683,481.215 788.728,529.258 790.773,537.51 792.818,569.455 794.862,516.569 796.907,517.432 798.952,501.43 800.997,563.67 803.042,625.042 805.086,654.39 807.131,636.552 809.176,634.191 811.221,634.881 813.266,641.189 815.31,675.011 817.355,647.951 819.4,669.677 821.445,627.322 823.49,671.982 825.534,614.47 827.579,576.648 829.624,632.2 831.669,665.413 833.714,598.868 835.758,718.483 837.803,762.602 839.848,569.011 841.893,617.708 843.938,626.902 845.982,576.526 848.027,636.572 850.072,659.458 852.117,693.739 854.162,681.294 856.206,622.149 858.251,675.848 860.296,805.79 862.341,816.598 864.386,670.174 866.43,729.439 868.475,767.366 870.52,682.084 872.565,788.704 874.61,744.821 876.654,675.071 878.699,786.487 880.744,836.429 882.789,751.704 884.834,757.142 886.878,885.047 888.923,806.263 890.968,834.002 893.013,881.154 895.058,830.611 897.102,734.353 899.147,805.392 901.192,783.086 903.237,677.546 905.282,754.98 907.326,868.571 909.371,778.591 911.416,825.8 913.461,842.88 915.506,772.153 917.55,791.159 919.595,787.103 921.64,742.819 923.685,761.248 925.73,796.122 927.774,765.52 929.819,774.114 931.864,911.484 933.909,905.333 935.954,930.712 937.998,982.014 940.043,1006.05 942.088,1004.26 944.133,1018.67 946.178,1039.11 948.222,1010.06 950.267,903.379 952.312,974.622 954.357,889.626 956.402,789.741 958.446,974.381 960.491,1006.34 962.536,914.061 964.581,867.48 966.626,919.404 968.67,923.739 970.715,933.061 972.76,922.14 974.805,914.734 976.85,980.717 978.894,1006.21 980.939,997.921 982.984,1050.58 985.029,1045.28 987.074,1020.05 989.119,996.205 991.163,1012.71 993.208,1023.03 995.253,884.722 997.298,973.599 999.343,1047.91 1001.39,962.401 1003.43,1097.53 1005.48,1126.46 1007.52,1029.92 1009.57,1111.08 1011.61,1043.53 1013.66,995.457 1015.7,1076.29 1017.75,1080.37 1019.79,1069.48 1021.84,1052.16 1023.88,1050.91 1025.92,1072.36 1027.97,1091.24 1030.01,1099.49 1032.06,1137.99 1034.1,1132.63 1036.15,1125.54 1038.19,1071.87 1040.24,1045.76 1042.28,1121.51 1044.33,1011.42 1046.37,1060.35 1048.42,964.899 1050.46,992.292 1052.51,1186.91 1054.55,1082.47 1056.6,1127.73 1058.64,1282.05 1060.69,1250.04 1062.73,1146.57 1064.78,1189.87 1066.82,1182.14 1068.87,1153.76 1070.91,1140.61 1072.96,1048.46 1075,1220.32 1077.04,1141.42 1079.09,1088.22 1081.13,1237.21 1083.18,1301.96 1085.22,1170.67 1087.27,1126.79 1089.31,1259.61 1091.36,1227.95 1093.4,1218.08 1095.45,1131.7 1097.49,1142.16 1099.54,1245.85 1101.58,1293.23 1103.63,1242.82 1105.67,1207.74 1107.72,1317.11 1109.76,1179.63 1111.81,1109.97 1113.85,1112.25 1115.9,1171.72 1117.94,1118.46 1119.99,1133.2 1122.03,1183.38 1124.08,1212.09 1126.12,1171.83 1128.17,1230.07 1130.21,1196.57 1132.25,1199.63 1134.3,1236.14 1136.34,1113.05 1138.39,1226.15 1140.43,1177.61 1142.48,1200.11 1144.52,1258.51 1146.57,1189.6 1148.61,1267.28 1150.66,1191.77 1152.7,1233 1154.75,1397.17 1156.79,1272.21 1158.84,1342.58 1160.88,1345.61 1162.93,1262.39 1164.97,1322.9 1167.02,1221.33 1169.06,1233.15 1171.11,1269.41 1173.15,1276.39 1175.2,1399.06 1177.24,1274.84 1179.29,1263.32 1181.33,1368.96 1183.37,1247.89 1185.42,1195.36 1187.46,1289.63 1189.51,1298.52 1191.55,1252.89 1193.6,1328.42 1195.64,1250.43 1197.69,1218.99 1199.73,1361.19 1201.78,1167.64 1203.82,1152.92 1205.87,1348.13 1207.91,1354.48 1209.96,1331.6 1212,1259.49 1214.05,1315.3 1216.09,1295.43 1218.14,1249.66 1220.18,1306.03 1222.23,1333.77 1224.27,1309.43 1226.32,1303.33 1228.36,1303.88 1230.41,1329.46 1232.45,1258.91 1234.49,1214.05 1236.54,1194.96 1238.58,1215.58 1240.63,1288.39 1242.67,1106.87 1244.72,1191.44 1246.76,1304.7 1248.81,1185.33 1250.85,1229.64 1252.9,1135.93 1254.94,1244.7 1256.99,1338.29 1259.03,1276.93 1261.08,1255.14 1263.12,1214.15 1265.17,1239.12 1267.21,1240.75 1269.26,1216.32 1271.3,1229.24 1273.35,1235.59 1275.39,1277 1277.44,1203.42 1279.48,1209.95 1281.53,1259.84 1283.57,1188.45 1285.61,1261.73 1287.66,1322 1289.7,1242.14 1291.75,1246.17 1293.79,1186.21 1295.84,1103.73 1297.88,1218.13 1299.93,1199.57 1301.97,1178.79 1304.02,1325.98 1306.06,1227.85 1308.11,1194.02 1310.15,1103.58 1312.2,1186.33 1314.24,1199.04 1316.29,1108.15 1318.33,1237.69 1320.38,1171.09 1322.42,1166.63 1324.47,1213.06 1326.51,1245.49 1328.56,1122.19 1330.6,1236.46 1332.65,1304.82 1334.69,1155.66 1336.73,1223.55 1338.78,1096.62 1340.82,1086.72 1342.87,1099.35 1344.91,1050.38 1346.96,1054.33 1349,1139.39 1351.05,1157.66 1353.09,1175.65 1355.14,1225.41 1357.18,1190.26 1359.23,1117.01 1361.27,1237.84 1363.32,1213.77 1365.36,1148.44 1367.41,1113.86 1369.45,1212.07 1371.5,1162.42 1373.54,1081.57 1375.59,1177.2 1377.63,1120.73 1379.68,1156.65 1381.72,1194.96 1383.77,1141.21 1385.81,1081.53 1387.85,1141.54 1389.9,1034.1 1391.94,966.72 1393.99,1187.27 1396.03,1071.06 1398.08,1071.97 1400.12,1152.04 1402.17,1084.69 1404.21,1046.17 1406.26,1002.35 1408.3,1068.37 1410.35,1053.34 1412.39,1101.4 1414.44,1173.86 1416.48,1059.42 1418.53,981.973 1420.57,976.108 1422.62,1106.65 1424.66,1005.47 1426.71,979.584 1428.75,1066.84 1430.8,1045.54 1432.84,1024.06 1434.89,977.098 1436.93,1005.8 1438.97,958.203 1441.02,1009.01 1443.06,962.275 1445.11,963.274 1447.15,1033.83 1449.2,964.031 1451.24,961.8 1453.29,1029.37 1455.33,1004.56 1457.38,1117.58 1459.42,923.164 1461.47,971.656 1463.51,1087.32 1465.56,892.785 1467.6,891.453 1469.65,888.81 1471.69,939.168 1473.74,945.53 1475.78,966.294 1477.83,1016.15 1479.87,933.176 1481.92,866.955 1483.96,851.043 1486.01,948.791 1488.05,808.125 1490.09,793.788 1492.14,923.109 1494.18,933.947 1496.23,863.591 1498.27,847.209 1500.32,909.488 1502.36,835.904 1504.41,871.325 1506.45,903.439 1508.5,901.265 1510.54,942.402 1512.59,814.96 1514.63,803.728 1516.68,962.529 1518.72,880.893 1520.77,813.201 1522.81,802.269 1524.86,758.099 1526.9,683.604 1528.95,804.954 1530.99,715.9 1533.04,691.033 1535.08,832.015 1537.13,684.601 1539.17,782.386 1541.21,791.739 1543.26,694.746 1545.3,780.281 1547.35,727.694 1549.39,832.845 1551.44,757.268 1553.48,814.531 1555.53,827.994 1557.57,700.394 1559.62,704.183 1561.66,741.09 1563.71,767.328 1565.75,715.567 1567.8,719.89 1569.84,718.622 1571.89,691.512 1573.93,705.759 1575.98,706.529 1578.02,646.859 1580.07,665.19 1582.11,657.75 1584.16,597.135 1586.2,749.141 1588.25,684.051 1590.29,538.032 1592.34,600.758 1594.38,624.249 1596.42,609.448 1598.47,697.406 1600.51,638.698 1602.56,559.771 1604.6,655.934 1606.65,618.826 1608.69,558.621 1610.74,613.383 1612.78,581.665 1614.83,522.916 1616.87,631.647 1618.92,558.095 1620.96,485 1623.01,542.136 1625.05,531.901 1627.1,492.654 1629.14,548.456 1631.19,512.396 1633.23,530.691 1635.28,445.485 1637.32,508.172 1639.37,598.769 1641.41,649.832 1643.46,616.708 1645.5,593.675 1647.54,622.832 1649.59,568.433 1651.63,603.316 1653.68,530.532 1655.72,540.922 1657.77,576.611 1659.81,421.221 1661.86,502.67 1663.9,524.601 1665.95,461.946 1667.99,468.993 1670.04,463.691 1672.08,390.924 1674.13,401.649 1676.17,550.09 1678.22,451.198 1680.26,467.605 1682.31,508.243 1684.35,479.534 1686.4,409.362 1688.44,479.556 1690.49,469.766 1692.53,466.814 1694.58,443.832 1696.62,525.399 1698.66,535.169 1700.71,366.894 1702.75,555.208 1704.8,335.256 1706.84,371.475 1708.89,505.742 1710.93,383.26 1712.98,449.391 1715.02,389.71 1717.07,301.918 1719.11,346.565 1721.16,332.931 1723.2,249.42 1725.25,357.199 1727.29,303.21 1729.34,296.962 1731.38,352.981 1733.43,397.502 1735.47,331.61 1737.52,386.573 1739.56,460.763 1741.61,361.346 1743.65,418.599 1745.7,348.401 1747.74,349.529 1749.78,352.95 1751.83,325.777 1753.87,354.797 1755.92,429.72 1757.96,252.693 1760.01,368.314 1762.05,381.699 1764.1,257.134 1766.14,331.15 1768.19,355.627 1770.23,320.099 1772.28,240.685 1774.32,307.744 1776.37,325.585 1778.41,282.342 1780.46,384.68 1782.5,365.433 1784.55,339.609 1786.59,322.229 1788.64,403.324 1790.68,335.4 1792.73,255.427 1794.77,355.025 1796.82,281.324 1798.86,262.544 1800.9,303.641 1802.95,281.63 1804.99,365.976 1807.04,340.892 1809.08,244.874 1811.13,364.22 1813.17,341.493 1815.22,294.363 1817.26,323.908 1819.31,321.076 1821.35,246.325 1823.4,324.957 1825.44,299.425 1827.49,262.055 1829.53,306.422 1831.58,249.446 1833.62,191.945 1835.67,303.384 1837.71,247.043 1839.76,205.308 1841.8,320.98 1843.85,265.314 1845.89,303.689 1847.94,287.516 1849.98,241.093 1852.02,303.582 1854.07,249.948 1856.11,223.615 1858.16,237.422 1860.2,196.887 1862.25,205.95 1864.29,254.972 1866.34,299.009 1868.38,293.848 1870.43,194.074 1872.47,250.247 1874.52,331.675 1876.56,224.731 1878.61,202.735 1880.65,238.912 1882.7,140.86 1884.74,233.866 1886.79,311.314 1888.83,298.315 1890.88,351.283 1892.92,376.972 1894.97,330.783 1897.01,294.305 1899.06,362.277 1901.1,281.173 1903.14,399.576 1905.19,309.888 1907.23,294.71 1909.28,394.602 1911.32,313.507 1913.37,192.937 1915.41,303.461 1917.46,315.205 1919.5,170.35 1921.55,246.936 1923.59,205.634 1925.64,279.071 1927.68,361.337 1929.73,307.018 1931.77,352.447 1933.82,358.489 1935.86,339.25 1937.91,375.127 1939.95,340.163 1942,327.205 1944.04,347.918 1946.09,366.63 1948.13,293.418 1950.18,483.907 1952.22,406.934 1954.26,346.286 1956.31,512.979 1958.35,423.567 1960.4,390.57 1962.44,378.711 1964.49,373.519 1966.53,341.141 1968.58,342.737 1970.62,452.441 1972.67,365.558 1974.71,421.591 1976.76,378.207 1978.8,297.286 1980.85,412.84 1982.89,396.622 1984.94,398.491 1986.98,365.509 1989.03,450.866 1991.07,533.906 1993.12,383.54 1995.16,437.085 1997.21,489.265 1999.25,378.569 2001.3,362.286 2003.34,428.914 2005.38,334.269 2007.43,467.596 2009.47,511.655 2011.52,390.33 2013.56,458.518 2015.61,472.719 2017.65,430.562 2019.7,371.375 2021.74,411.471 2023.79,404.135 2025.83,360.066 2027.88,385.601 2029.92,459.7 2031.97,393.495 2034.01,559.173 2036.06,573.314 2038.1,525.998 2040.15,571.875 2042.19,562.236 2044.24,554.072 2046.28,426.027 2048.33,385.418 2050.37,594.692 2052.42,549.984 2054.46,456.37 2056.51,570.214 2058.55,458.907 2060.59,535.606 2062.64,459.334 2064.68,478.956 2066.73,513.248 2068.77,512.38 2070.82,479.591 2072.86,495.536 2074.91,492.902 2076.95,480.691 2079,576.398 2081.04,557.523 2083.09,554.051 2085.13,639.543 2087.18,586.159 2089.22,662.028 2091.27,649.105 2093.31,577.475 2095.36,711.248 2097.4,606.352 2099.45,683.191 2101.49,698.566 2103.54,553.378 2105.58,643.892 2107.63,645.255 2109.67,635.201 2111.71,571.153 2113.76,640.279 2115.8,571.831 2117.85,646.5 2119.89,672.992 2121.94,702.632 2123.98,663.216 2126.03,638.828 2128.07,746.711 2130.12,696.912 2132.16,739.502 2134.21,681.21 2136.25,745.035 2138.3,743.305 2140.34,613.936 2142.39,673.235 2144.43,668.559 2146.48,697.874 2148.52,608.107 2150.57,645.942 2152.61,769.48 2154.66,639.083 2156.7,687.232 2158.75,706.379 2160.79,753.351 2162.83,799.438 2164.88,713.462 2166.92,771.238 2168.97,780.886 2171.01,775.403 2173.06,801.974 2175.1,820.65 2177.15,818.577 2179.19,759.822 2181.24,781.191 2183.28,792.539 2185.33,770.766 2187.37,823.25 2189.42,817.294 2191.46,757.465 2193.51,963.633 2195.55,904.515 2197.6,711.623 2199.64,838.484 2201.69,738.25 2203.73,759.929 2205.78,904.705 2207.82,834.668 2209.87,940.805 2211.91,963.054 2213.95,870.273 2216,888.319 2218.04,908.486 2220.09,752.628 2222.13,852.657 2224.18,911.472 2226.22,909.558 2228.27,863.981 2230.31,824.704 2232.36,920.306 2234.4,875.899 2236.45,911.868 2238.49,947.661 2240.54,903.538 2242.58,894.039 2244.63,941.168 2246.67,856.436 2248.72,984.626 2250.76,938.092 2252.81,914.445 2254.85,1050.78 2256.9,943.354 2258.94,925.699 2260.99,1044.92 2263.03,965.495 2265.07,995.453 2267.12,1006.15 2269.16,970.927 2271.21,1039.46 2273.25,1048.2 2275.3,1081.27 2277.34,960.79 2279.39,1042.99 2281.43,990.006 2283.48,887.805 2285.52,977.995 2287.57,1009.15 2289.61,931.102 2291.66,980.669 "/>
<polyline clip-path="url(#clip052)" style="stroke:#e26f46; stroke-linecap:round; stroke-linejoin:round; stroke-width:4; stroke-opacity:1; fill:none" points="255.035,759.985 257.079,760.978 259.124,898.198 261.169,773.637 263.214,766.056 265.259,781.982 267.303,610.479 269.348,660.634 271.393,703.445 273.438,586.78 275.483,674.453 277.527,614.534 279.572,733.544 281.617,652.704 283.662,630.375 285.707,667.28 287.752,690.235 289.796,563.481 291.841,775.513 293.886,741.124 295.931,740.073 297.976,711.697 300.02,631.609 302.065,610.853 304.11,554.428 306.155,818.632 308.2,377.973 310.244,812.015 312.289,639.256 314.334,665.878 316.379,643.99 318.424,665.68 320.468,605.318 322.513,589.3 324.558,519.996 326.603,861.838 328.648,514.184 330.692,451.439 332.737,579.998 334.782,584.466 336.827,740.488 338.872,653.563 340.916,499.074 342.961,730.959 345.006,470.96 347.051,586.41 349.096,598.344 351.14,513.347 353.185,565.714 355.23,529.829 357.275,470.195 359.32,698.52 361.364,432.815 363.409,539.625 365.454,606.568 367.499,437.343 369.544,511.546 371.588,517.698 373.633,438.158 375.678,422.587 377.723,559.786 379.768,682.987 381.812,547.516 383.857,545.486 385.902,542.78 387.947,506.605 389.992,384.691 392.036,486.628 394.081,426.019 396.126,288.146 398.171,356.845 400.216,588.286 402.26,510.566 404.305,411.385 406.35,310.695 408.395,394.583 410.44,307.101 412.484,497.347 414.529,428.53 416.574,492.447 418.619,468.322 420.664,578.039 422.708,438.457 424.753,453.129 426.798,502.751 428.843,474.059 430.888,237.524 432.932,318.511 434.977,465.652 437.022,327.366 439.067,558.298 441.112,365.376 443.156,401.453 445.201,448.633 447.246,241.424 449.291,252.417 451.336,393.285 453.38,383.404 455.425,281.415 457.47,261.873 459.515,420.481 461.56,274.863 463.604,394.6 465.649,358.275 467.694,338.067 469.739,219.081 471.784,218.048 473.828,458.462 475.873,257.595 477.918,490.51 479.963,87.9763 482.008,423.313 484.052,338.973 486.097,282.456 488.142,402.097 490.187,345.356 492.232,164.418 494.276,362.399 496.321,345.478 498.366,284.263 500.411,492.796 502.456,261.744 504.5,213.491 506.545,381.939 508.59,358.253 510.635,353.585 512.68,240.235 514.724,280.896 516.769,336.626 518.814,222.351 520.859,348.462 522.904,252.585 524.949,352.263 526.993,358.318 529.038,225.717 531.083,172.414 533.128,326.711 535.173,405.089 537.217,337.684 539.262,136.149 541.307,282.546 543.352,325.272 545.397,334.89 547.441,363.938 549.486,340.346 551.531,347.637 553.576,389.384 555.621,273.661 557.665,311.958 559.71,410.412 561.755,321.776 563.8,208.857 565.845,145.851 567.889,394.546 569.934,444.714 571.979,319.821 574.024,288.244 576.069,195.116 578.113,389.384 580.158,389.921 582.203,314.578 584.248,350.651 586.293,178.208 588.337,278.463 590.382,193.356 592.427,492.152 594.472,463.912 596.517,519.036 598.561,236.286 600.606,374.975 602.651,151.917 604.696,200.279 606.741,442.209 608.785,261.909 610.83,218.646 612.875,329.063 614.92,366.943 616.965,228.158 619.009,309.705 621.054,316.887 623.099,481.846 625.144,358.086 627.189,423.513 629.233,220.466 631.278,360.931 633.323,419.607 635.368,311.184 637.413,188.419 639.457,339.082 641.502,556.384 643.547,292.522 645.592,360.694 647.637,491.703 649.681,346.132 651.726,530.927 653.771,337.405 655.816,336.349 657.861,335.126 659.905,415.641 661.95,234.158 663.995,469.922 666.04,212.489 668.085,114.481 670.129,190.298 672.174,407.131 674.219,461.283 676.264,437.088 678.309,295.686 680.353,484.88 682.398,298.48 684.443,519.511 686.488,347.576 688.533,446.892 690.577,238.655 692.622,350.142 694.667,466.982 696.712,328.918 698.757,432.133 700.801,446.962 702.846,516.389 704.891,566.898 706.936,544.067 708.981,460.913 711.025,469.811 713.07,482.193 715.115,592.169 717.16,557.43 719.205,439.804 721.249,386.835 723.294,427.499 725.339,479.755 727.384,329.778 729.429,648.754 731.473,370.562 733.518,413.726 735.563,314.224 737.608,528.97 739.653,531.283 741.697,495.508 743.742,463.483 745.787,406.271 747.832,578.586 749.877,391.534 751.922,534.089 753.966,528.109 756.011,437.477 758.056,598.317 760.101,578.894 762.146,619.725 764.19,492.695 766.235,409.205 768.28,538.486 770.325,540.936 772.37,540.466 774.414,683.143 776.459,511.877 778.504,568.009 780.549,413.657 782.594,495.535 784.638,555.25 786.683,602.414 788.728,581.616 790.773,457.454 792.818,473.088 794.862,457.743 796.907,647.016 798.952,634.766 800.997,677.634 803.042,593.906 805.086,647.158 807.131,614.116 809.176,683.002 811.221,648.854 813.266,646.85 815.31,679.767 817.355,656.493 819.4,693.695 821.445,529.964 823.49,636.613 825.534,573.963 827.579,594.955 829.624,673.061 831.669,889.518 833.714,612.61 835.758,593.192 837.803,652.906 839.848,497.092 841.893,590.668 843.938,703.625 845.982,730.749 848.027,672.303 850.072,518.558 852.117,604.698 854.162,836.938 856.206,871.467 858.251,687.139 860.296,653.447 862.341,806.942 864.386,696.249 866.43,768.058 868.475,770.979 870.52,597.01 872.565,785.627 874.61,858.615 876.654,744.896 878.699,702.456 880.744,850.978 882.789,838.017 884.834,775.149 886.878,954.519 888.923,823.108 890.968,805.752 893.013,792.78 895.058,854.633 897.102,589.522 899.147,715.266 901.192,836.506 903.237,829.705 905.282,758.734 907.326,926.855 909.371,752.511 911.416,813.494 913.461,782.435 915.506,764.561 917.55,753.281 919.595,805.914 921.64,712.342 923.685,714.785 925.73,838.706 927.774,922.898 929.819,847.466 931.864,999.218 933.909,955.811 935.954,1003.21 937.998,980.217 940.043,1079.58 942.088,1045.2 944.133,1023.34 946.178,955.371 948.222,917.687 950.267,652.34 952.312,969.273 954.357,1097.87 956.402,921.91 958.446,840.183 960.491,887.027 962.536,963.102 964.581,916.367 966.626,924.573 968.67,861.681 970.715,945.118 972.76,980.478 974.805,986.582 976.85,1036.51 978.894,1071.28 980.939,993.078 982.984,1031.11 985.029,1044.02 987.074,1054.62 989.119,901.275 991.163,882.467 993.208,1047.25 995.253,900.725 997.298,1026.32 999.343,1183.52 1001.39,1057.28 1003.43,1111.89 1005.48,1089.15 1007.52,913.154 1009.57,1069.68 1011.61,1098.79 1013.66,1081.26 1015.7,1059.49 1017.75,1036.33 1019.79,1044.1 1021.84,1047.21 1023.88,1074.57 1025.92,1138.33 1027.97,1187.03 1030.01,1119.24 1032.06,1075.65 1034.1,1032.28 1036.15,1152.5 1038.19,1120.67 1040.24,976.198 1042.28,1023.29 1044.33,862.685 1046.37,1176.01 1048.42,1023.21 1050.46,1027.54 1052.51,1315.73 1054.55,1293.26 1056.6,1144.86 1058.64,1167.06 1060.69,1250.72 1062.73,1149.91 1064.78,1147.5 1066.82,1082.4 1068.87,1138.74 1070.91,1178.93 1072.96,931.827 1075,1308.38 1077.04,1326.45 1079.09,1187.32 1081.13,1006.96 1083.18,1283.77 1085.22,1329.25 1087.27,1217.67 1089.31,1128.82 1091.36,1033.44 1093.4,1247.76 1095.45,1258.9 1097.49,1241.91 1099.54,1219.16 1101.58,1370.74 1103.63,1293.86 1105.67,1041.24 1107.72,1164.46 1109.76,1115.32 1111.81,1164.01 1113.85,1029.49 1115.9,1225.55 1117.94,1153.69 1119.99,1211.4 1122.03,1142.23 1124.08,1281.59 1126.12,1157.68 1128.17,1295.39 1130.21,1112.8 1132.25,1141.16 1134.3,1225.19 1136.34,1109.1 1138.39,1326.8 1140.43,1199.76 1142.48,1216.13 1144.52,1182.35 1146.57,1135.74 1148.61,1390.78 1150.66,1309.65 1152.7,1249.16 1154.75,1442.29 1156.79,1270.11 1158.84,1367.33 1160.88,1255.3 1162.93,1133.29 1164.97,1253.49 1167.02,1252.53 1169.06,1374.85 1171.11,1331.98 1173.15,1223.28 1175.2,1445.72 1177.24,1268.64 1179.29,1139.75 1181.33,1266.79 1183.37,1317.02 1185.42,1241.47 1187.46,1276.83 1189.51,1308.42 1191.55,1253.76 1193.6,1402.68 1195.64,1183.35 1197.69,959.288 1199.73,1347.33 1201.78,1390.71 1203.82,1338.4 1205.87,1293.25 1207.91,1282.26 1209.96,1334.11 1212,1191.68 1214.05,1306.73 1216.09,1327.53 1218.14,1301.06 1220.18,1271.68 1222.23,1348.77 1224.27,1361.38 1226.32,1316.27 1228.36,1165.05 1230.41,1233.4 1232.45,1240.52 1234.49,1274.49 1236.54,1099.02 1238.58,1074.29 1240.63,1431.03 1242.67,1234.71 1244.72,1150.51 1246.76,1111.73 1248.81,1109.25 1250.85,1436.17 1252.9,1277.97 1254.94,1278.52 1256.99,1208.46 1259.03,1244.78 1261.08,1250.41 1263.12,1194.16 1265.17,1196.71 1267.21,1249.65 1269.26,1272.9 1271.3,1265.8 1273.35,1174.12 1275.39,1256.64 1277.44,1134.97 1279.48,1193.32 1281.53,1361.62 1283.57,1311.72 1285.61,1279.86 1287.66,1244.16 1289.7,1080.17 1291.75,1136.95 1293.79,1173.59 1295.84,1121.88 1297.88,1361.77 1299.93,1356.27 1301.97,1131.54 1304.02,1171.94 1306.06,1086.01 1308.11,1281.37 1310.15,1049.53 1312.2,1211.93 1314.24,1206.23 1316.29,1121.89 1318.33,1270.55 1320.38,1181 1322.42,1133.12 1324.47,1118.57 1326.51,1420.13 1328.56,1182.47 1330.6,1224.93 1332.65,1202.87 1334.69,1047.11 1336.73,1184.07 1338.78,986.644 1340.82,1020.92 1342.87,1042.27 1344.91,1177.05 1346.96,1149.35 1349,1258.16 1351.05,1153.48 1353.09,1122.63 1355.14,1205.26 1357.18,1314.35 1359.23,1066.84 1361.27,1159.15 1363.32,1169.2 1365.36,1271.13 1367.41,1019.6 1369.45,1162.35 1371.5,1116.15 1373.54,1106.71 1375.59,1234.93 1377.63,1166.44 1379.68,1156.26 1381.72,1137.71 1383.77,1075.58 1385.81,892.964 1387.85,1137.26 1389.9,1128.39 1391.94,958.875 1393.99,1257.44 1396.03,1132.54 1398.08,1084.95 1400.12,969.989 1402.17,966.454 1404.21,1029.46 1406.26,1093.82 1408.3,1276.85 1410.35,1108.03 1412.39,933.778 1414.44,993.871 1416.48,1079.41 1418.53,1071.85 1420.57,864.957 1422.62,1112.64 1424.66,1059.34 1426.71,1054.15 1428.75,988.181 1430.8,991.979 1432.84,995.124 1434.89,943.711 1436.93,1016.67 1438.97,922.664 1441.02,1080.33 1443.06,939.151 1445.11,902.449 1447.15,1008.67 1449.2,1074.16 1451.24,1039.79 1453.29,1016 1455.33,851.46 1457.38,1267.16 1459.42,931.222 1461.47,860.454 1463.51,874.744 1465.56,852.435 1467.6,945.067 1469.65,960.263 1471.69,1078.63 1473.74,963.751 1475.78,858.657 1477.83,915.369 1479.87,947.356 1481.92,851.318 1483.96,645.172 1486.01,959.837 1488.05,938.337 1490.09,912.786 1492.14,839.827 1494.18,917.333 1496.23,817.125 1498.27,778.21 1500.32,948.253 1502.36,952.779 1504.41,968.336 1506.45,793.808 1508.5,715.268 1510.54,980.185 1512.59,992.584 1514.63,824.525 1516.68,860.245 1518.72,742.324 1520.77,725.428 1522.81,742.215 1524.86,810.873 1526.9,590.447 1528.95,841.647 1530.99,717.044 1533.04,714.569 1535.08,895.415 1537.13,658.637 1539.17,746.154 1541.21,737.527 1543.26,714.684 1545.3,859.502 1547.35,759.613 1549.39,979.466 1551.44,644.915 1553.48,691.945 1555.53,718.667 1557.57,805.315 1559.62,737.254 1561.66,711.903 1563.71,717.166 1565.75,682.719 1567.8,724.61 1569.84,757.514 1571.89,690.805 1573.93,617.959 1575.98,612.297 1578.02,593.325 1580.07,776.396 1582.11,830.232 1584.16,490.092 1586.2,550.033 1588.25,597.228 1590.29,623.951 1592.34,695.838 1594.38,689.73 1596.42,522.183 1598.47,658.641 1600.51,675.927 1602.56,557.276 1604.6,604.296 1606.65,581.979 1608.69,523.363 1610.74,635.639 1612.78,655.396 1614.83,448.543 1616.87,551.196 1618.92,505.423 1620.96,487.963 1623.01,550.59 1625.05,626.861 1627.1,482.399 1629.14,450.26 1631.19,337.387 1633.23,639.738 1635.28,602.378 1637.32,689.046 1639.37,553.014 1641.41,662.938 1643.46,573.504 1645.5,587.608 1647.54,596.243 1649.59,550.011 1651.63,622.609 1653.68,429.459 1655.72,415.485 1657.77,603.738 1659.81,467.46 1661.86,539.466 1663.9,456.391 1665.95,377.117 1667.99,342.183 1670.04,531.69 1672.08,505.606 1674.13,403.58 1676.17,586.267 1678.22,448.934 1680.26,453.529 1682.31,425.09 1684.35,544.105 1686.4,361.533 1688.44,475.926 1690.49,458.937 1692.53,633.461 1694.58,431.278 1696.62,504.173 1698.66,468.921 1700.71,155.956 1702.75,617.38 1704.8,375.123 1706.84,489.835 1708.89,448.619 1710.93,312.979 1712.98,348.673 1715.02,361.351 1717.07,259.063 1719.11,309.159 1721.16,358.03 1723.2,210.4 1725.25,400.437 1727.29,337.241 1729.34,354.473 1731.38,295.168 1733.43,516.396 1735.47,386.241 1737.52,413.203 1739.56,432.699 1741.61,292.769 1743.65,382.597 1745.7,278.282 1747.74,396.097 1749.78,394.966 1751.83,358.984 1753.87,252.185 1755.92,512.594 1757.96,154.959 1760.01,363.057 1762.05,389.661 1764.1,364.245 1766.14,234.214 1768.19,261.838 1770.23,321.745 1772.28,259.424 1774.32,362.3 1776.37,413.397 1778.41,282.905 1780.46,369.496 1782.5,373.872 1784.55,418.553 1786.59,224.235 1788.64,391.683 1790.68,328.856 1792.73,198.126 1794.77,281.77 1796.82,291.502 1798.86,364.698 1800.9,374.615 1802.95,214.14 1804.99,322.244 1807.04,411.194 1809.08,271.339 1811.13,366.163 1813.17,307.573 1815.22,270.503 1817.26,260.635 1819.31,382.637 1821.35,236.155 1823.4,355.092 1825.44,245.441 1827.49,214.078 1829.53,266.531 1831.58,302.633 1833.62,118.875 1835.67,320.076 1837.71,309.267 1839.76,270.4 1841.8,325.601 1843.85,210.202 1845.89,316.997 1847.94,315.433 1849.98,243.94 1852.02,258.705 1854.07,156.155 1856.11,143.221 1858.16,263.834 1860.2,343.921 1862.25,297.771 1864.29,169.865 1866.34,195.755 1868.38,389.696 1870.43,294.068 1872.47,220.363 1874.52,247.31 1876.56,127.127 1878.61,115.447 1880.65,309.039 1882.7,243.746 1884.74,365.115 1886.79,402.876 1888.83,356.987 1890.88,283.371 1892.92,332.538 1894.97,340.27 1897.01,292.875 1899.06,419.185 1901.1,215.524 1903.14,510.547 1905.19,283.455 1907.23,213.756 1909.28,267.15 1911.32,455.591 1913.37,164.372 1915.41,179.376 1917.46,200.432 1919.5,187.412 1921.55,395.654 1923.59,292.173 1925.64,324.762 1927.68,367.962 1929.73,336.442 1931.77,383.442 1933.82,376.433 1935.86,315.241 1937.91,348.017 1939.95,312.044 1942,327.446 1944.04,382.841 1946.09,505.498 1948.13,212.174 1950.18,557.976 1952.22,483.159 1954.26,400.757 1956.31,439.321 1958.35,355.457 1960.4,319.644 1962.44,289.41 1964.49,438.566 1966.53,460.404 1968.58,373.312 1970.62,448.993 1972.67,228.051 1974.71,424.795 1976.76,427.708 1978.8,326.947 1980.85,358.376 1982.89,408.094 1984.94,564.113 1986.98,394.437 1989.03,396.736 1991.07,586.899 1993.12,412.852 1995.16,351.587 1997.21,367.992 1999.25,350.099 2001.3,375.744 2003.34,597.655 2005.38,344.562 2007.43,459.549 2009.47,523.379 2011.52,438.364 2013.56,389.777 2015.61,402.907 2017.65,454.28 2019.7,336.873 2021.74,366.371 2023.79,381.563 2025.83,403.016 2027.88,430.741 2029.92,641.16 2031.97,413.188 2034.01,651.993 2036.06,643.367 2038.1,622.26 2040.15,382.842 2042.19,319.657 2044.24,548.473 2046.28,641.328 2048.33,407.112 2050.37,574.168 2052.42,549.136 2054.46,449.585 2056.51,552.758 2058.55,347.469 2060.59,611.369 2062.64,460.882 2064.68,563.187 2066.73,418.62 2068.77,523.695 2070.82,416.59 2072.86,576.001 2074.91,543.44 2076.95,512.294 2079,593.522 2081.04,637.555 2083.09,608.772 2085.13,709.748 2087.18,513.542 2089.22,661.825 2091.27,687.202 2093.31,631.146 2095.36,794.321 2097.4,500.101 2099.45,607.863 2101.49,711.707 2103.54,632.936 2105.58,633.314 2107.63,544.086 2109.67,616.047 2111.71,508.696 2113.76,788.13 2115.8,622.457 2117.85,727.695 2119.89,547.03 2121.94,767.105 2123.98,700.573 2126.03,680.746 2128.07,739.2 2130.12,718.003 2132.16,830.133 2134.21,588.976 2136.25,660.594 2138.3,728.758 2140.34,641.286 2142.39,629.806 2144.43,584.905 2146.48,827.874 2148.52,656.691 2150.57,569.086 2152.61,727.824 2154.66,704.436 2156.7,847.248 2158.75,710.826 2160.79,727.696 2162.83,786.301 2164.88,722.873 2166.92,813.358 2168.97,836.724 2171.01,839.848 2173.06,756.572 2175.1,754.509 2177.15,824.797 2179.19,786.822 2181.24,781.605 2183.28,739.488 2185.33,722.845 2187.37,945.538 2189.42,1073.52 2191.46,713.141 2193.51,810.045 2195.55,784.586 2197.6,630.267 2199.64,879.049 2201.69,806.547 2203.73,867.738 2205.78,1031 2207.82,899.781 2209.87,956.352 2211.91,906.54 2213.95,742.06 2216,713.082 2218.04,1019.66 2220.09,881.826 2222.13,922.888 2224.18,760.451 2226.22,897.106 2228.27,875.209 2230.31,870.497 2232.36,985.828 2234.4,909.288 2236.45,902.049 2238.49,905.288 2240.54,892.014 2242.58,865.172 2244.63,1024.23 2246.67,831.792 2248.72,1096.07 2250.76,940.157 2252.81,873.612 2254.85,1030.61 2256.9,1037.71 2258.94,934.239 2260.99,1039.09 2263.03,892.117 2265.07,1019.65 2267.12,1063.26 2269.16,1073.71 2271.21,1051.96 2273.25,992.529 2275.3,1091.73 2277.34,809.034 2279.39,1007.4 2281.43,1000.96 2283.48,926.944 2285.52,887.024 2287.57,1065.35 2289.61,1014.64 2291.66,1055.96 "/>
<path clip-path="url(#clip050)" d="M1731.51 1438.47 L2280.8 1438.47 L2280.8 1282.95 L1731.51 1282.95  Z" fill="#ffffff" fill-rule="evenodd" fill-opacity="1"/>
<polyline clip-path="url(#clip050)" style="stroke:#000000; stroke-linecap:round; stroke-linejoin:round; stroke-width:4; stroke-opacity:1; fill:none" points="1731.51,1438.47 2280.8,1438.47 2280.8,1282.95 1731.51,1282.95 1731.51,1438.47 "/>
<polyline clip-path="url(#clip050)" style="stroke:#009af9; stroke-linecap:round; stroke-linejoin:round; stroke-width:4; stroke-opacity:1; fill:none" points="1755.5,1334.79 1899.42,1334.79 "/>
<path clip-path="url(#clip050)" d="M1935.31 1329.13 Q1931.88 1329.13 1929.89 1331.82 Q1927.9 1334.48 1927.9 1339.13 Q1927.9 1343.79 1929.87 1346.47 Q1931.86 1349.13 1935.31 1349.13 Q1938.71 1349.13 1940.7 1346.45 Q1942.69 1343.76 1942.69 1339.13 Q1942.69 1334.53 1940.7 1331.84 Q1938.71 1329.13 1935.31 1329.13 M1935.31 1325.52 Q1940.86 1325.52 1944.03 1329.13 Q1947.2 1332.75 1947.2 1339.13 Q1947.2 1345.5 1944.03 1349.13 Q1940.86 1352.75 1935.31 1352.75 Q1929.73 1352.75 1926.56 1349.13 Q1923.41 1345.5 1923.41 1339.13 Q1923.41 1332.75 1926.56 1329.13 Q1929.73 1325.52 1935.31 1325.52 Z" fill="#000000" fill-rule="nonzero" fill-opacity="1" /><path clip-path="url(#clip050)" d="M1975.81 1336.43 L1975.81 1352.07 L1971.56 1352.07 L1971.56 1336.57 Q1971.56 1332.88 1970.12 1331.06 Q1968.68 1329.23 1965.81 1329.23 Q1962.37 1329.23 1960.37 1331.43 Q1958.38 1333.63 1958.38 1337.42 L1958.38 1352.07 L1954.1 1352.07 L1954.1 1326.15 L1958.38 1326.15 L1958.38 1330.18 Q1959.91 1327.84 1961.97 1326.68 Q1964.06 1325.52 1966.76 1325.52 Q1971.23 1325.52 1973.52 1328.3 Q1975.81 1331.06 1975.81 1336.43 Z" fill="#000000" fill-rule="nonzero" fill-opacity="1" /><path clip-path="url(#clip050)" d="M2006.49 1338.05 L2006.49 1340.13 L1986.9 1340.13 Q1987.18 1344.53 1989.54 1346.84 Q1991.93 1349.13 1996.16 1349.13 Q1998.62 1349.13 2000.91 1348.53 Q2003.22 1347.93 2005.49 1346.73 L2005.49 1350.75 Q2003.2 1351.73 2000.79 1352.24 Q1998.38 1352.75 1995.91 1352.75 Q1989.7 1352.75 1986.07 1349.13 Q1982.46 1345.52 1982.46 1339.37 Q1982.46 1333 1985.88 1329.27 Q1989.33 1325.52 1995.17 1325.52 Q2000.4 1325.52 2003.43 1328.9 Q2006.49 1332.26 2006.49 1338.05 M2002.23 1336.8 Q2002.18 1333.3 2000.26 1331.22 Q1998.36 1329.13 1995.21 1329.13 Q1991.65 1329.13 1989.49 1331.15 Q1987.37 1333.16 1987.04 1336.82 L2002.23 1336.8 Z" fill="#000000" fill-rule="nonzero" fill-opacity="1" /><path clip-path="url(#clip050)" d="M2030 1326.91 L2030 1330.94 Q2028.2 1330.01 2026.25 1329.55 Q2024.31 1329.09 2022.23 1329.09 Q2019.05 1329.09 2017.46 1330.06 Q2015.88 1331.03 2015.88 1332.98 Q2015.88 1334.46 2017.02 1335.32 Q2018.15 1336.15 2021.58 1336.91 L2023.04 1337.24 Q2027.57 1338.21 2029.47 1339.99 Q2031.39 1341.75 2031.39 1344.92 Q2031.39 1348.53 2028.52 1350.64 Q2025.68 1352.75 2020.68 1352.75 Q2018.59 1352.75 2016.32 1352.33 Q2014.08 1351.94 2011.58 1351.13 L2011.58 1346.73 Q2013.94 1347.95 2016.23 1348.58 Q2018.52 1349.18 2020.77 1349.18 Q2023.78 1349.18 2025.4 1348.16 Q2027.02 1347.12 2027.02 1345.25 Q2027.02 1343.51 2025.84 1342.58 Q2024.68 1341.66 2020.72 1340.8 L2019.24 1340.45 Q2015.28 1339.62 2013.52 1337.91 Q2011.76 1336.17 2011.76 1333.16 Q2011.76 1329.51 2014.36 1327.51 Q2016.95 1325.52 2021.72 1325.52 Q2024.08 1325.52 2026.16 1325.87 Q2028.24 1326.22 2030 1326.91 Z" fill="#000000" fill-rule="nonzero" fill-opacity="1" /><path clip-path="url(#clip050)" d="M2042.39 1318.79 L2042.39 1326.15 L2051.16 1326.15 L2051.16 1329.46 L2042.39 1329.46 L2042.39 1343.53 Q2042.39 1346.7 2043.24 1347.61 Q2044.12 1348.51 2046.79 1348.51 L2051.16 1348.51 L2051.16 1352.07 L2046.79 1352.07 Q2041.86 1352.07 2039.98 1350.25 Q2038.11 1348.39 2038.11 1343.53 L2038.11 1329.46 L2034.98 1329.46 L2034.98 1326.15 L2038.11 1326.15 L2038.11 1318.79 L2042.39 1318.79 Z" fill="#000000" fill-rule="nonzero" fill-opacity="1" /><path clip-path="url(#clip050)" d="M2078.94 1338.05 L2078.94 1340.13 L2059.36 1340.13 Q2059.63 1344.53 2061.99 1346.84 Q2064.38 1349.13 2068.61 1349.13 Q2071.07 1349.13 2073.36 1348.53 Q2075.68 1347.93 2077.94 1346.73 L2077.94 1350.75 Q2075.65 1351.73 2073.24 1352.24 Q2070.84 1352.75 2068.36 1352.75 Q2062.16 1352.75 2058.52 1349.13 Q2054.91 1345.52 2054.91 1339.37 Q2054.91 1333 2058.34 1329.27 Q2061.79 1325.52 2067.62 1325.52 Q2072.85 1325.52 2075.88 1328.9 Q2078.94 1332.26 2078.94 1338.05 M2074.68 1336.8 Q2074.63 1333.3 2072.71 1331.22 Q2070.81 1329.13 2067.67 1329.13 Q2064.1 1329.13 2061.95 1331.15 Q2059.82 1333.16 2059.49 1336.82 L2074.68 1336.8 Z" fill="#000000" fill-rule="nonzero" fill-opacity="1" /><path clip-path="url(#clip050)" d="M2090.05 1348.19 L2090.05 1361.94 L2085.77 1361.94 L2085.77 1326.15 L2090.05 1326.15 L2090.05 1330.08 Q2091.39 1327.77 2093.43 1326.66 Q2095.49 1325.52 2098.34 1325.52 Q2103.06 1325.52 2106 1329.27 Q2108.96 1333.02 2108.96 1339.13 Q2108.96 1345.25 2106 1349 Q2103.06 1352.75 2098.34 1352.75 Q2095.49 1352.75 2093.43 1351.63 Q2091.39 1350.5 2090.05 1348.19 M2104.54 1339.13 Q2104.54 1334.44 2102.6 1331.77 Q2100.67 1329.09 2097.3 1329.09 Q2093.92 1329.09 2091.97 1331.77 Q2090.05 1334.44 2090.05 1339.13 Q2090.05 1343.83 2091.97 1346.52 Q2093.92 1349.18 2097.3 1349.18 Q2100.67 1349.18 2102.6 1346.52 Q2104.54 1343.83 2104.54 1339.13 Z" fill="#000000" fill-rule="nonzero" fill-opacity="1" /><path clip-path="url(#clip050)" d="M2135.21 1348.19 L2135.21 1361.94 L2130.93 1361.94 L2130.93 1326.15 L2135.21 1326.15 L2135.21 1330.08 Q2136.55 1327.77 2138.59 1326.66 Q2140.65 1325.52 2143.5 1325.52 Q2148.22 1325.52 2151.16 1329.27 Q2154.12 1333.02 2154.12 1339.13 Q2154.12 1345.25 2151.16 1349 Q2148.22 1352.75 2143.5 1352.75 Q2140.65 1352.75 2138.59 1351.63 Q2136.55 1350.5 2135.21 1348.19 M2149.7 1339.13 Q2149.7 1334.44 2147.76 1331.77 Q2145.84 1329.09 2142.46 1329.09 Q2139.08 1329.09 2137.13 1331.77 Q2135.21 1334.44 2135.21 1339.13 Q2135.21 1343.83 2137.13 1346.52 Q2139.08 1349.18 2142.46 1349.18 Q2145.84 1349.18 2147.76 1346.52 Q2149.7 1343.83 2149.7 1339.13 Z" fill="#000000" fill-rule="nonzero" fill-opacity="1" /><path clip-path="url(#clip050)" d="M2176.21 1330.13 Q2175.49 1329.71 2174.63 1329.53 Q2173.8 1329.32 2172.78 1329.32 Q2169.17 1329.32 2167.23 1331.68 Q2165.3 1334.02 2165.3 1338.42 L2165.3 1352.07 L2161.02 1352.07 L2161.02 1326.15 L2165.3 1326.15 L2165.3 1330.18 Q2166.65 1327.82 2168.8 1326.68 Q2170.95 1325.52 2174.03 1325.52 Q2174.47 1325.52 2175 1325.59 Q2175.54 1325.64 2176.18 1325.76 L2176.21 1330.13 Z" fill="#000000" fill-rule="nonzero" fill-opacity="1" /><path clip-path="url(#clip050)" d="M2201.81 1338.05 L2201.81 1340.13 L2182.23 1340.13 Q2182.5 1344.53 2184.86 1346.84 Q2187.25 1349.13 2191.48 1349.13 Q2193.94 1349.13 2196.23 1348.53 Q2198.54 1347.93 2200.81 1346.73 L2200.81 1350.75 Q2198.52 1351.73 2196.11 1352.24 Q2193.71 1352.75 2191.23 1352.75 Q2185.03 1352.75 2181.39 1349.13 Q2177.78 1345.52 2177.78 1339.37 Q2177.78 1333 2181.21 1329.27 Q2184.66 1325.52 2190.49 1325.52 Q2195.72 1325.52 2198.75 1328.9 Q2201.81 1332.26 2201.81 1338.05 M2197.55 1336.8 Q2197.5 1333.3 2195.58 1331.22 Q2193.68 1329.13 2190.54 1329.13 Q2186.97 1329.13 2184.82 1331.15 Q2182.69 1333.16 2182.36 1336.82 L2197.55 1336.8 Z" fill="#000000" fill-rule="nonzero" fill-opacity="1" /><path clip-path="url(#clip050)" d="M2225.86 1330.08 L2225.86 1316.06 L2230.12 1316.06 L2230.12 1352.07 L2225.86 1352.07 L2225.86 1348.19 Q2224.52 1350.5 2222.46 1351.63 Q2220.42 1352.75 2217.55 1352.75 Q2212.85 1352.75 2209.89 1349 Q2206.95 1345.25 2206.95 1339.13 Q2206.95 1333.02 2209.89 1329.27 Q2212.85 1325.52 2217.55 1325.52 Q2220.42 1325.52 2222.46 1326.66 Q2224.52 1327.77 2225.86 1330.08 M2211.35 1339.13 Q2211.35 1343.83 2213.27 1346.52 Q2215.21 1349.18 2218.59 1349.18 Q2221.97 1349.18 2223.92 1346.52 Q2225.86 1343.83 2225.86 1339.13 Q2225.86 1334.44 2223.92 1331.77 Q2221.97 1329.09 2218.59 1329.09 Q2215.21 1329.09 2213.27 1331.77 Q2211.35 1334.44 2211.35 1339.13 Z" fill="#000000" fill-rule="nonzero" fill-opacity="1" /><path clip-path="url(#clip050)" d="M2255.42 1326.91 L2255.42 1330.94 Q2253.61 1330.01 2251.67 1329.55 Q2249.73 1329.09 2247.64 1329.09 Q2244.47 1329.09 2242.87 1330.06 Q2241.3 1331.03 2241.3 1332.98 Q2241.3 1334.46 2242.43 1335.32 Q2243.57 1336.15 2246.99 1336.91 L2248.45 1337.24 Q2252.99 1338.21 2254.89 1339.99 Q2256.81 1341.75 2256.81 1344.92 Q2256.81 1348.53 2253.94 1350.64 Q2251.09 1352.75 2246.09 1352.75 Q2244.01 1352.75 2241.74 1352.33 Q2239.49 1351.94 2236.99 1351.13 L2236.99 1346.73 Q2239.35 1347.95 2241.65 1348.58 Q2243.94 1349.18 2246.18 1349.18 Q2249.19 1349.18 2250.81 1348.16 Q2252.43 1347.12 2252.43 1345.25 Q2252.43 1343.51 2251.25 1342.58 Q2250.1 1341.66 2246.14 1340.8 L2244.66 1340.45 Q2240.7 1339.62 2238.94 1337.91 Q2237.18 1336.17 2237.18 1333.16 Q2237.18 1329.51 2239.77 1327.51 Q2242.36 1325.52 2247.13 1325.52 Q2249.49 1325.52 2251.58 1325.87 Q2253.66 1326.22 2255.42 1326.91 Z" fill="#000000" fill-rule="nonzero" fill-opacity="1" /><polyline clip-path="url(#clip050)" style="stroke:#e26f46; stroke-linecap:round; stroke-linejoin:round; stroke-width:4; stroke-opacity:1; fill:none" points="1755.5,1386.63 1899.42,1386.63 "/>
<path clip-path="url(#clip050)" d="M1923.41 1367.9 L1927.67 1367.9 L1927.67 1403.91 L1923.41 1403.91 L1923.41 1367.9 Z" fill="#000000" fill-rule="nonzero" fill-opacity="1" /><path clip-path="url(#clip050)" d="M1948.36 1390.88 Q1943.2 1390.88 1941.21 1392.06 Q1939.22 1393.24 1939.22 1396.09 Q1939.22 1398.36 1940.7 1399.7 Q1942.2 1401.02 1944.77 1401.02 Q1948.31 1401.02 1950.44 1398.52 Q1952.6 1396 1952.6 1391.83 L1952.6 1390.88 L1948.36 1390.88 M1956.86 1389.12 L1956.86 1403.91 L1952.6 1403.91 L1952.6 1399.98 Q1951.14 1402.34 1948.96 1403.47 Q1946.79 1404.59 1943.64 1404.59 Q1939.66 1404.59 1937.3 1402.36 Q1934.96 1400.12 1934.96 1396.37 Q1934.96 1391.99 1937.87 1389.77 Q1940.81 1387.55 1946.62 1387.55 L1952.6 1387.55 L1952.6 1387.13 Q1952.6 1384.19 1950.65 1382.6 Q1948.73 1380.97 1945.24 1380.97 Q1943.01 1380.97 1940.91 1381.51 Q1938.8 1382.04 1936.86 1383.1 L1936.86 1379.17 Q1939.19 1378.27 1941.39 1377.83 Q1943.59 1377.36 1945.68 1377.36 Q1951.3 1377.36 1954.08 1380.28 Q1956.86 1383.2 1956.86 1389.12 Z" fill="#000000" fill-rule="nonzero" fill-opacity="1" /><path clip-path="url(#clip050)" d="M1984.24 1390.97 Q1984.24 1386.28 1982.3 1383.61 Q1980.37 1380.93 1977 1380.93 Q1973.62 1380.93 1971.67 1383.61 Q1969.75 1386.28 1969.75 1390.97 Q1969.75 1395.67 1971.67 1398.36 Q1973.62 1401.02 1977 1401.02 Q1980.37 1401.02 1982.3 1398.36 Q1984.24 1395.67 1984.24 1390.97 M1969.75 1381.92 Q1971.09 1379.61 1973.13 1378.5 Q1975.19 1377.36 1978.04 1377.36 Q1982.76 1377.36 1985.7 1381.11 Q1988.66 1384.86 1988.66 1390.97 Q1988.66 1397.09 1985.7 1400.84 Q1982.76 1404.59 1978.04 1404.59 Q1975.19 1404.59 1973.13 1403.47 Q1971.09 1402.34 1969.75 1400.03 L1969.75 1403.91 L1965.47 1403.91 L1965.47 1367.9 L1969.75 1367.9 L1969.75 1381.92 Z" fill="#000000" fill-rule="nonzero" fill-opacity="1" /><path clip-path="url(#clip050)" d="M2017.9 1389.89 L2017.9 1391.97 L1998.31 1391.97 Q1998.59 1396.37 2000.95 1398.68 Q2003.34 1400.97 2007.57 1400.97 Q2010.03 1400.97 2012.32 1400.37 Q2014.63 1399.77 2016.9 1398.57 L2016.9 1402.59 Q2014.61 1403.57 2012.2 1404.08 Q2009.8 1404.59 2007.32 1404.59 Q2001.12 1404.59 1997.48 1400.97 Q1993.87 1397.36 1993.87 1391.21 Q1993.87 1384.84 1997.3 1381.11 Q2000.74 1377.36 2006.58 1377.36 Q2011.81 1377.36 2014.84 1380.74 Q2017.9 1384.1 2017.9 1389.89 M2013.64 1388.64 Q2013.59 1385.14 2011.67 1383.06 Q2009.77 1380.97 2006.62 1380.97 Q2003.06 1380.97 2000.91 1382.99 Q1998.78 1385 1998.45 1388.66 L2013.64 1388.64 Z" fill="#000000" fill-rule="nonzero" fill-opacity="1" /><path clip-path="url(#clip050)" d="M2024.89 1367.9 L2029.15 1367.9 L2029.15 1403.91 L2024.89 1403.91 L2024.89 1367.9 Z" fill="#000000" fill-rule="nonzero" fill-opacity="1" /><path clip-path="url(#clip050)" d="M2054.59 1378.75 L2054.59 1382.78 Q2052.78 1381.85 2050.84 1381.39 Q2048.89 1380.93 2046.81 1380.93 Q2043.64 1380.93 2042.04 1381.9 Q2040.47 1382.87 2040.47 1384.82 Q2040.47 1386.3 2041.6 1387.16 Q2042.74 1387.99 2046.16 1388.75 L2047.62 1389.08 Q2052.16 1390.05 2054.05 1391.83 Q2055.98 1393.59 2055.98 1396.76 Q2055.98 1400.37 2053.11 1402.48 Q2050.26 1404.59 2045.26 1404.59 Q2043.18 1404.59 2040.91 1404.17 Q2038.66 1403.78 2036.16 1402.97 L2036.16 1398.57 Q2038.52 1399.79 2040.81 1400.42 Q2043.11 1401.02 2045.35 1401.02 Q2048.36 1401.02 2049.98 1400 Q2051.6 1398.96 2051.6 1397.09 Q2051.6 1395.35 2050.42 1394.42 Q2049.26 1393.5 2045.3 1392.64 L2043.82 1392.29 Q2039.87 1391.46 2038.11 1389.75 Q2036.35 1388.01 2036.35 1385 Q2036.35 1381.35 2038.94 1379.35 Q2041.53 1377.36 2046.3 1377.36 Q2048.66 1377.36 2050.74 1377.71 Q2052.83 1378.06 2054.59 1378.75 Z" fill="#000000" fill-rule="nonzero" fill-opacity="1" /></svg>
