<?xml version="1.0" encoding="utf-8"?>
<svg xmlns="http://www.w3.org/2000/svg" xmlns:xlink="http://www.w3.org/1999/xlink" width="800" height="300" viewBox="0 0 3200 1200">
<defs>
  <clipPath id="clip250">
    <rect x="0" y="0" width="3200" height="1200"/>
  </clipPath>
</defs>
<path clip-path="url(#clip250)" d="M0 1200 L3200 1200 L3200 0 L0 0  Z" fill="#ffffff" fill-rule="evenodd" fill-opacity="1"/>
<defs>
  <clipPath id="clip251">
    <rect x="640" y="0" width="2241" height="1200"/>
  </clipPath>
</defs>
<path clip-path="url(#clip250)" d="M164.598 1105.57 L730.586 1105.57 L730.586 97.0121 L164.598 97.0121  Z" fill="#ffffff" fill-rule="evenodd" fill-opacity="1"/>
<defs>
  <clipPath id="clip252">
    <rect x="164" y="97" width="567" height="1010"/>
  </clipPath>
</defs>
<polyline clip-path="url(#clip252)" style="stroke:#000000; stroke-linecap:round; stroke-linejoin:round; stroke-width:2; stroke-opacity:0.1; fill:none" points="234.012,1105.57 234.012,97.0121 "/>
<polyline clip-path="url(#clip252)" style="stroke:#000000; stroke-linecap:round; stroke-linejoin:round; stroke-width:2; stroke-opacity:0.1; fill:none" points="340.802,1105.57 340.802,97.0121 "/>
<polyline clip-path="url(#clip252)" style="stroke:#000000; stroke-linecap:round; stroke-linejoin:round; stroke-width:2; stroke-opacity:0.1; fill:none" points="447.592,1105.57 447.592,97.0121 "/>
<polyline clip-path="url(#clip252)" style="stroke:#000000; stroke-linecap:round; stroke-linejoin:round; stroke-width:2; stroke-opacity:0.1; fill:none" points="554.382,1105.57 554.382,97.0121 "/>
<polyline clip-path="url(#clip252)" style="stroke:#000000; stroke-linecap:round; stroke-linejoin:round; stroke-width:2; stroke-opacity:0.1; fill:none" points="661.172,1105.57 661.172,97.0121 "/>
<polyline clip-path="url(#clip252)" style="stroke:#000000; stroke-linecap:round; stroke-linejoin:round; stroke-width:2; stroke-opacity:0.1; fill:none" points="164.598,921.711 730.586,921.711 "/>
<polyline clip-path="url(#clip252)" style="stroke:#000000; stroke-linecap:round; stroke-linejoin:round; stroke-width:2; stroke-opacity:0.1; fill:none" points="164.598,722.672 730.586,722.672 "/>
<polyline clip-path="url(#clip252)" style="stroke:#000000; stroke-linecap:round; stroke-linejoin:round; stroke-width:2; stroke-opacity:0.1; fill:none" points="164.598,523.634 730.586,523.634 "/>
<polyline clip-path="url(#clip252)" style="stroke:#000000; stroke-linecap:round; stroke-linejoin:round; stroke-width:2; stroke-opacity:0.1; fill:none" points="164.598,324.595 730.586,324.595 "/>
<polyline clip-path="url(#clip252)" style="stroke:#000000; stroke-linecap:round; stroke-linejoin:round; stroke-width:2; stroke-opacity:0.1; fill:none" points="164.598,125.556 730.586,125.556 "/>
<polyline clip-path="url(#clip250)" style="stroke:#000000; stroke-linecap:round; stroke-linejoin:round; stroke-width:4; stroke-opacity:1; fill:none" points="164.598,1105.57 730.586,1105.57 "/>
<polyline clip-path="url(#clip250)" style="stroke:#000000; stroke-linecap:round; stroke-linejoin:round; stroke-width:4; stroke-opacity:1; fill:none" points="234.012,1105.57 234.012,1086.67 "/>
<polyline clip-path="url(#clip250)" style="stroke:#000000; stroke-linecap:round; stroke-linejoin:round; stroke-width:4; stroke-opacity:1; fill:none" points="340.802,1105.57 340.802,1086.67 "/>
<polyline clip-path="url(#clip250)" style="stroke:#000000; stroke-linecap:round; stroke-linejoin:round; stroke-width:4; stroke-opacity:1; fill:none" points="447.592,1105.57 447.592,1086.67 "/>
<polyline clip-path="url(#clip250)" style="stroke:#000000; stroke-linecap:round; stroke-linejoin:round; stroke-width:4; stroke-opacity:1; fill:none" points="554.382,1105.57 554.382,1086.67 "/>
<polyline clip-path="url(#clip250)" style="stroke:#000000; stroke-linecap:round; stroke-linejoin:round; stroke-width:4; stroke-opacity:1; fill:none" points="661.172,1105.57 661.172,1086.67 "/>
<path clip-path="url(#clip250)" d="M203.954 1157.54 L233.63 1157.54 L233.63 1161.47 L203.954 1161.47 L203.954 1157.54 Z" fill="#000000" fill-rule="nonzero" fill-opacity="1" /><path clip-path="url(#clip250)" d="M247.75 1170.43 L264.07 1170.43 L264.07 1174.37 L242.125 1174.37 L242.125 1170.43 Q244.787 1167.68 249.371 1163.05 Q253.977 1158.4 255.158 1157.05 Q257.403 1154.53 258.283 1152.79 Q259.185 1151.03 259.185 1149.34 Q259.185 1146.59 257.241 1144.85 Q255.32 1143.12 252.218 1143.12 Q250.019 1143.12 247.565 1143.88 Q245.134 1144.65 242.357 1146.2 L242.357 1141.47 Q245.181 1140.34 247.634 1139.76 Q250.088 1139.18 252.125 1139.18 Q257.495 1139.18 260.69 1141.87 Q263.884 1144.55 263.884 1149.04 Q263.884 1151.17 263.074 1153.09 Q262.287 1154.99 260.181 1157.59 Q259.602 1158.26 256.5 1161.47 Q253.398 1164.67 247.75 1170.43 Z" fill="#000000" fill-rule="nonzero" fill-opacity="1" /><path clip-path="url(#clip250)" d="M310.559 1157.54 L340.235 1157.54 L340.235 1161.47 L310.559 1161.47 L310.559 1157.54 Z" fill="#000000" fill-rule="nonzero" fill-opacity="1" /><path clip-path="url(#clip250)" d="M351.138 1170.43 L358.776 1170.43 L358.776 1144.07 L350.466 1145.73 L350.466 1141.47 L358.73 1139.81 L363.406 1139.81 L363.406 1170.43 L371.045 1170.43 L371.045 1174.37 L351.138 1174.37 L351.138 1170.43 Z" fill="#000000" fill-rule="nonzero" fill-opacity="1" /><path clip-path="url(#clip250)" d="M447.592 1142.89 Q443.981 1142.89 442.152 1146.45 Q440.347 1149.99 440.347 1157.12 Q440.347 1164.23 442.152 1167.79 Q443.981 1171.34 447.592 1171.34 Q451.226 1171.34 453.032 1167.79 Q454.861 1164.23 454.861 1157.12 Q454.861 1149.99 453.032 1146.45 Q451.226 1142.89 447.592 1142.89 M447.592 1139.18 Q453.402 1139.18 456.458 1143.79 Q459.536 1148.37 459.536 1157.12 Q459.536 1165.85 456.458 1170.46 Q453.402 1175.04 447.592 1175.04 Q441.782 1175.04 438.703 1170.46 Q435.648 1165.85 435.648 1157.12 Q435.648 1148.37 438.703 1143.79 Q441.782 1139.18 447.592 1139.18 Z" fill="#000000" fill-rule="nonzero" fill-opacity="1" /><path clip-path="url(#clip250)" d="M544.764 1170.43 L552.403 1170.43 L552.403 1144.07 L544.093 1145.73 L544.093 1141.47 L552.357 1139.81 L557.033 1139.81 L557.033 1170.43 L564.671 1170.43 L564.671 1174.37 L544.764 1174.37 L544.764 1170.43 Z" fill="#000000" fill-rule="nonzero" fill-opacity="1" /><path clip-path="url(#clip250)" d="M655.825 1170.43 L672.144 1170.43 L672.144 1174.37 L650.2 1174.37 L650.2 1170.43 Q652.862 1167.68 657.445 1163.05 Q662.052 1158.4 663.232 1157.05 Q665.478 1154.53 666.357 1152.79 Q667.26 1151.03 667.26 1149.34 Q667.26 1146.59 665.316 1144.85 Q663.395 1143.12 660.293 1143.12 Q658.094 1143.12 655.64 1143.88 Q653.209 1144.65 650.432 1146.2 L650.432 1141.47 Q653.256 1140.34 655.709 1139.76 Q658.163 1139.18 660.2 1139.18 Q665.57 1139.18 668.765 1141.87 Q671.959 1144.55 671.959 1149.04 Q671.959 1151.17 671.149 1153.09 Q670.362 1154.99 668.256 1157.59 Q667.677 1158.26 664.575 1161.47 Q661.473 1164.67 655.825 1170.43 Z" fill="#000000" fill-rule="nonzero" fill-opacity="1" /><polyline clip-path="url(#clip250)" style="stroke:#000000; stroke-linecap:round; stroke-linejoin:round; stroke-width:4; stroke-opacity:1; fill:none" points="164.598,1105.57 164.598,97.0121 "/>
<polyline clip-path="url(#clip250)" style="stroke:#000000; stroke-linecap:round; stroke-linejoin:round; stroke-width:4; stroke-opacity:1; fill:none" points="164.598,921.711 183.496,921.711 "/>
<polyline clip-path="url(#clip250)" style="stroke:#000000; stroke-linecap:round; stroke-linejoin:round; stroke-width:4; stroke-opacity:1; fill:none" points="164.598,722.672 183.496,722.672 "/>
<polyline clip-path="url(#clip250)" style="stroke:#000000; stroke-linecap:round; stroke-linejoin:round; stroke-width:4; stroke-opacity:1; fill:none" points="164.598,523.634 183.496,523.634 "/>
<polyline clip-path="url(#clip250)" style="stroke:#000000; stroke-linecap:round; stroke-linejoin:round; stroke-width:4; stroke-opacity:1; fill:none" points="164.598,324.595 183.496,324.595 "/>
<polyline clip-path="url(#clip250)" style="stroke:#000000; stroke-linecap:round; stroke-linejoin:round; stroke-width:4; stroke-opacity:1; fill:none" points="164.598,125.556 183.496,125.556 "/>
<path clip-path="url(#clip250)" d="M61.0198 907.51 Q57.4087 907.51 55.58 911.074 Q53.7745 914.616 53.7745 921.746 Q53.7745 928.852 55.58 932.417 Q57.4087 935.959 61.0198 935.959 Q64.6541 935.959 66.4596 932.417 Q68.2883 928.852 68.2883 921.746 Q68.2883 914.616 66.4596 911.074 Q64.6541 907.51 61.0198 907.51 M61.0198 903.806 Q66.83 903.806 69.8855 908.412 Q72.9642 912.996 72.9642 921.746 Q72.9642 930.472 69.8855 935.079 Q66.83 939.662 61.0198 939.662 Q55.2097 939.662 52.131 935.079 Q49.0754 930.472 49.0754 921.746 Q49.0754 912.996 52.131 908.412 Q55.2097 903.806 61.0198 903.806 Z" fill="#000000" fill-rule="nonzero" fill-opacity="1" /><path clip-path="url(#clip250)" d="M81.1818 933.111 L86.066 933.111 L86.066 938.991 L81.1818 938.991 L81.1818 933.111 Z" fill="#000000" fill-rule="nonzero" fill-opacity="1" /><path clip-path="url(#clip250)" d="M100.279 935.056 L116.598 935.056 L116.598 938.991 L94.6539 938.991 L94.6539 935.056 Q97.3159 932.301 101.899 927.672 Q106.506 923.019 107.686 921.676 Q109.932 919.153 110.811 917.417 Q111.714 915.658 111.714 913.968 Q111.714 911.213 109.77 909.477 Q107.848 907.741 104.746 907.741 Q102.547 907.741 100.094 908.505 Q97.6632 909.269 94.8854 910.82 L94.8854 906.098 Q97.7094 904.963 100.163 904.385 Q102.617 903.806 104.654 903.806 Q110.024 903.806 113.219 906.491 Q116.413 909.176 116.413 913.667 Q116.413 915.797 115.603 917.718 Q114.816 919.616 112.709 922.209 Q112.131 922.88 109.029 926.097 Q105.927 929.292 100.279 935.056 Z" fill="#000000" fill-rule="nonzero" fill-opacity="1" /><path clip-path="url(#clip250)" d="M58.9365 708.471 Q55.3254 708.471 53.4967 712.036 Q51.6912 715.577 51.6912 722.707 Q51.6912 729.813 53.4967 733.378 Q55.3254 736.92 58.9365 736.92 Q62.5707 736.92 64.3763 733.378 Q66.205 729.813 66.205 722.707 Q66.205 715.577 64.3763 712.036 Q62.5707 708.471 58.9365 708.471 M58.9365 704.767 Q64.7467 704.767 67.8022 709.374 Q70.8809 713.957 70.8809 722.707 Q70.8809 731.434 67.8022 736.04 Q64.7467 740.624 58.9365 740.624 Q53.1264 740.624 50.0477 736.04 Q46.9921 731.434 46.9921 722.707 Q46.9921 713.957 50.0477 709.374 Q53.1264 704.767 58.9365 704.767 Z" fill="#000000" fill-rule="nonzero" fill-opacity="1" /><path clip-path="url(#clip250)" d="M79.0984 734.073 L83.9827 734.073 L83.9827 739.952 L79.0984 739.952 L79.0984 734.073 Z" fill="#000000" fill-rule="nonzero" fill-opacity="1" /><path clip-path="url(#clip250)" d="M107.015 709.466 L95.2095 727.915 L107.015 727.915 L107.015 709.466 M105.788 705.392 L111.668 705.392 L111.668 727.915 L116.598 727.915 L116.598 731.804 L111.668 731.804 L111.668 739.952 L107.015 739.952 L107.015 731.804 L91.4132 731.804 L91.4132 727.29 L105.788 705.392 Z" fill="#000000" fill-rule="nonzero" fill-opacity="1" /><path clip-path="url(#clip250)" d="M59.2606 509.432 Q55.6495 509.432 53.8208 512.997 Q52.0152 516.539 52.0152 523.668 Q52.0152 530.775 53.8208 534.339 Q55.6495 537.881 59.2606 537.881 Q62.8948 537.881 64.7004 534.339 Q66.5291 530.775 66.5291 523.668 Q66.5291 516.539 64.7004 512.997 Q62.8948 509.432 59.2606 509.432 M59.2606 505.729 Q65.0707 505.729 68.1263 510.335 Q71.205 514.918 71.205 523.668 Q71.205 532.395 68.1263 537.002 Q65.0707 541.585 59.2606 541.585 Q53.4504 541.585 50.3717 537.002 Q47.3162 532.395 47.3162 523.668 Q47.3162 514.918 50.3717 510.335 Q53.4504 505.729 59.2606 505.729 Z" fill="#000000" fill-rule="nonzero" fill-opacity="1" /><path clip-path="url(#clip250)" d="M79.4225 535.034 L84.3067 535.034 L84.3067 540.914 L79.4225 540.914 L79.4225 535.034 Z" fill="#000000" fill-rule="nonzero" fill-opacity="1" /><path clip-path="url(#clip250)" d="M105.071 521.77 Q101.922 521.77 100.071 523.923 Q98.2419 526.076 98.2419 529.826 Q98.2419 533.552 100.071 535.728 Q101.922 537.881 105.071 537.881 Q108.219 537.881 110.047 535.728 Q111.899 533.552 111.899 529.826 Q111.899 526.076 110.047 523.923 Q108.219 521.77 105.071 521.77 M114.353 507.117 L114.353 511.377 Q112.594 510.543 110.788 510.104 Q109.006 509.664 107.246 509.664 Q102.617 509.664 100.163 512.789 Q97.7326 515.914 97.3854 522.233 Q98.7511 520.219 100.811 519.154 Q102.871 518.066 105.348 518.066 Q110.557 518.066 113.566 521.238 Q116.598 524.386 116.598 529.826 Q116.598 535.15 113.45 538.367 Q110.302 541.585 105.071 541.585 Q99.0752 541.585 95.9039 537.002 Q92.7326 532.395 92.7326 523.668 Q92.7326 515.474 96.6215 510.613 Q100.51 505.729 107.061 505.729 Q108.82 505.729 110.603 506.076 Q112.408 506.423 114.353 507.117 Z" fill="#000000" fill-rule="nonzero" fill-opacity="1" /><path clip-path="url(#clip250)" d="M59.5152 310.394 Q55.9041 310.394 54.0754 313.958 Q52.2699 317.5 52.2699 324.63 Q52.2699 331.736 54.0754 335.301 Q55.9041 338.842 59.5152 338.842 Q63.1494 338.842 64.955 335.301 Q66.7837 331.736 66.7837 324.63 Q66.7837 317.5 64.955 313.958 Q63.1494 310.394 59.5152 310.394 M59.5152 306.69 Q65.3254 306.69 68.3809 311.296 Q71.4596 315.88 71.4596 324.63 Q71.4596 333.356 68.3809 337.963 Q65.3254 342.546 59.5152 342.546 Q53.7051 342.546 50.6264 337.963 Q47.5708 333.356 47.5708 324.63 Q47.5708 315.88 50.6264 311.296 Q53.7051 306.69 59.5152 306.69 Z" fill="#000000" fill-rule="nonzero" fill-opacity="1" /><path clip-path="url(#clip250)" d="M79.6771 335.995 L84.5614 335.995 L84.5614 341.875 L79.6771 341.875 L79.6771 335.995 Z" fill="#000000" fill-rule="nonzero" fill-opacity="1" /><path clip-path="url(#clip250)" d="M104.746 325.463 Q101.413 325.463 99.4918 327.245 Q97.5937 329.028 97.5937 332.153 Q97.5937 335.278 99.4918 337.06 Q101.413 338.842 104.746 338.842 Q108.08 338.842 110.001 337.06 Q111.922 335.255 111.922 332.153 Q111.922 329.028 110.001 327.245 Q108.103 325.463 104.746 325.463 M100.071 323.472 Q97.0613 322.731 95.3715 320.671 Q93.7048 318.611 93.7048 315.648 Q93.7048 311.505 96.6446 309.097 Q99.6076 306.69 104.746 306.69 Q109.908 306.69 112.848 309.097 Q115.788 311.505 115.788 315.648 Q115.788 318.611 114.098 320.671 Q112.432 322.731 109.445 323.472 Q112.825 324.259 114.7 326.551 Q116.598 328.843 116.598 332.153 Q116.598 337.176 113.52 339.861 Q110.464 342.546 104.746 342.546 Q99.0289 342.546 95.9502 339.861 Q92.8947 337.176 92.8947 332.153 Q92.8947 328.843 94.7928 326.551 Q96.6909 324.259 100.071 323.472 M98.3576 316.088 Q98.3576 318.773 100.024 320.278 Q101.714 321.782 104.746 321.782 Q107.756 321.782 109.445 320.278 Q111.158 318.773 111.158 316.088 Q111.158 313.403 109.445 311.898 Q107.756 310.394 104.746 310.394 Q101.714 310.394 100.024 311.898 Q98.3576 313.403 98.3576 316.088 Z" fill="#000000" fill-rule="nonzero" fill-opacity="1" /><path clip-path="url(#clip250)" d="M50.2328 138.901 L57.8717 138.901 L57.8717 112.535 L49.5616 114.202 L49.5616 109.943 L57.8254 108.276 L62.5013 108.276 L62.5013 138.901 L70.1402 138.901 L70.1402 142.836 L50.2328 142.836 L50.2328 138.901 Z" fill="#000000" fill-rule="nonzero" fill-opacity="1" /><path clip-path="url(#clip250)" d="M79.5845 136.957 L84.4688 136.957 L84.4688 142.836 L79.5845 142.836 L79.5845 136.957 Z" fill="#000000" fill-rule="nonzero" fill-opacity="1" /><path clip-path="url(#clip250)" d="M104.654 111.355 Q101.043 111.355 99.2141 114.92 Q97.4085 118.461 97.4085 125.591 Q97.4085 132.697 99.2141 136.262 Q101.043 139.804 104.654 139.804 Q108.288 139.804 110.094 136.262 Q111.922 132.697 111.922 125.591 Q111.922 118.461 110.094 114.92 Q108.288 111.355 104.654 111.355 M104.654 107.651 Q110.464 107.651 113.52 112.258 Q116.598 116.841 116.598 125.591 Q116.598 134.318 113.52 138.924 Q110.464 143.507 104.654 143.507 Q98.8437 143.507 95.765 138.924 Q92.7095 134.318 92.7095 125.591 Q92.7095 116.841 95.765 112.258 Q98.8437 107.651 104.654 107.651 Z" fill="#000000" fill-rule="nonzero" fill-opacity="1" /><path clip-path="url(#clip250)" d="M307.856 63.9476 L307.856 47.7034 L294.488 47.7034 L294.488 40.9789 L315.958 40.9789 L315.958 66.9452 Q311.218 70.3075 305.507 72.0494 Q299.795 73.7508 293.313 73.7508 Q279.135 73.7508 271.114 65.4869 Q263.134 57.1826 263.134 42.3968 Q263.134 27.5705 271.114 19.3066 Q279.135 11.0023 293.313 11.0023 Q299.228 11.0023 304.534 12.4606 Q309.882 13.9189 314.378 16.7545 L314.378 25.464 Q309.841 21.6156 304.737 19.6712 Q299.633 17.7268 294.002 17.7268 Q282.903 17.7268 277.312 23.9246 Q271.763 30.1225 271.763 42.3968 Q271.763 54.6305 277.312 60.8284 Q282.903 67.0263 294.002 67.0263 Q298.336 67.0263 301.739 66.2971 Q305.142 65.5274 307.856 63.9476 Z" fill="#000000" fill-rule="nonzero" fill-opacity="1" /><path clip-path="url(#clip250)" d="M351.201 49.7694 Q342.167 49.7694 338.684 51.8354 Q335.2 53.9013 335.2 58.8839 Q335.2 62.8538 337.792 65.2034 Q340.425 67.5124 344.922 67.5124 Q351.12 67.5124 354.847 63.1374 Q358.614 58.7219 358.614 51.4303 L358.614 49.7694 L351.201 49.7694 M366.068 46.6907 L366.068 72.576 L358.614 72.576 L358.614 65.6895 Q356.062 69.8214 352.254 71.8063 Q348.446 73.7508 342.937 73.7508 Q335.969 73.7508 331.837 69.8619 Q327.746 65.9325 327.746 59.3701 Q327.746 51.7138 332.85 47.825 Q337.995 43.9361 348.163 43.9361 L358.614 43.9361 L358.614 43.2069 Q358.614 38.0623 355.211 35.2672 Q351.849 32.4315 345.732 32.4315 Q341.843 32.4315 338.157 33.3632 Q334.471 34.295 331.068 36.1584 L331.068 29.2718 Q335.159 27.692 339.008 26.9223 Q342.856 26.1121 346.502 26.1121 Q356.345 26.1121 361.207 31.2163 Q366.068 36.3204 366.068 46.6907 Z" fill="#000000" fill-rule="nonzero" fill-opacity="1" /><path clip-path="url(#clip250)" d="M380.651 54.671 L380.651 27.2059 L388.105 27.2059 L388.105 54.3874 Q388.105 60.8284 390.616 64.0691 Q393.128 67.2693 398.151 67.2693 Q404.187 67.2693 407.67 63.421 Q411.195 59.5726 411.195 52.9291 L411.195 27.2059 L418.648 27.2059 L418.648 72.576 L411.195 72.576 L411.195 65.6084 Q408.481 69.7404 404.875 71.7658 Q401.31 73.7508 396.571 73.7508 Q388.753 73.7508 384.702 68.8897 Q380.651 64.0286 380.651 54.671 M399.407 26.1121 L399.407 26.1121 Z" fill="#000000" fill-rule="nonzero" fill-opacity="1" /><path clip-path="url(#clip250)" d="M462.925 28.5427 L462.925 35.5912 Q459.765 33.9709 456.362 33.1607 Q452.96 32.3505 449.314 32.3505 Q443.764 32.3505 440.969 34.0519 Q438.214 35.7533 438.214 39.156 Q438.214 41.7486 440.199 43.2475 Q442.184 44.7058 448.179 46.0426 L450.732 46.6097 Q458.671 48.3111 461.993 51.4303 Q465.355 54.509 465.355 60.0587 Q465.355 66.3781 460.332 70.0644 Q455.35 73.7508 446.6 73.7508 Q442.954 73.7508 438.984 73.0216 Q435.055 72.3329 430.68 70.9151 L430.68 63.2184 Q434.811 65.3654 438.822 66.4591 Q442.832 67.5124 446.762 67.5124 Q452.028 67.5124 454.863 65.73 Q457.699 63.9071 457.699 60.6258 Q457.699 57.5877 455.633 55.9673 Q453.608 54.3469 446.681 52.8481 L444.088 52.2405 Q437.161 50.7821 434.082 47.7845 Q431.004 44.7463 431.004 39.4801 Q431.004 33.0797 435.541 29.5959 Q440.078 26.1121 448.422 26.1121 Q452.554 26.1121 456.2 26.7198 Q459.846 27.3274 462.925 28.5427 Z" fill="#000000" fill-rule="nonzero" fill-opacity="1" /><path clip-path="url(#clip250)" d="M506.148 28.5427 L506.148 35.5912 Q502.988 33.9709 499.585 33.1607 Q496.183 32.3505 492.537 32.3505 Q486.987 32.3505 484.192 34.0519 Q481.437 35.7533 481.437 39.156 Q481.437 41.7486 483.422 43.2475 Q485.407 44.7058 491.403 46.0426 L493.955 46.6097 Q501.894 48.3111 505.216 51.4303 Q508.578 54.509 508.578 60.0587 Q508.578 66.3781 503.555 70.0644 Q498.573 73.7508 489.823 73.7508 Q486.177 73.7508 482.207 73.0216 Q478.278 72.3329 473.903 70.9151 L473.903 63.2184 Q478.035 65.3654 482.045 66.4591 Q486.055 67.5124 489.985 67.5124 Q495.251 67.5124 498.087 65.73 Q500.922 63.9071 500.922 60.6258 Q500.922 57.5877 498.856 55.9673 Q496.831 54.3469 489.904 52.8481 L487.311 52.2405 Q480.384 50.7821 477.305 47.7845 Q474.227 44.7463 474.227 39.4801 Q474.227 33.0797 478.764 29.5959 Q483.301 26.1121 491.646 26.1121 Q495.778 26.1121 499.423 26.7198 Q503.069 27.3274 506.148 28.5427 Z" fill="#000000" fill-rule="nonzero" fill-opacity="1" /><path clip-path="url(#clip250)" d="M520.448 27.2059 L527.901 27.2059 L527.901 72.576 L520.448 72.576 L520.448 27.2059 M520.448 9.54393 L527.901 9.54393 L527.901 18.9825 L520.448 18.9825 L520.448 9.54393 Z" fill="#000000" fill-rule="nonzero" fill-opacity="1" /><path clip-path="url(#clip250)" d="M564.116 49.7694 Q555.083 49.7694 551.599 51.8354 Q548.115 53.9013 548.115 58.8839 Q548.115 62.8538 550.708 65.2034 Q553.341 67.5124 557.837 67.5124 Q564.035 67.5124 567.762 63.1374 Q571.529 58.7219 571.529 51.4303 L571.529 49.7694 L564.116 49.7694 M578.983 46.6907 L578.983 72.576 L571.529 72.576 L571.529 65.6895 Q568.977 69.8214 565.17 71.8063 Q561.362 73.7508 555.852 73.7508 Q548.885 73.7508 544.753 69.8619 Q540.662 65.9325 540.662 59.3701 Q540.662 51.7138 545.766 47.825 Q550.91 43.9361 561.078 43.9361 L571.529 43.9361 L571.529 43.2069 Q571.529 38.0623 568.127 35.2672 Q564.764 32.4315 558.648 32.4315 Q554.759 32.4315 551.072 33.3632 Q547.386 34.295 543.983 36.1584 L543.983 29.2718 Q548.075 27.692 551.923 26.9223 Q555.771 26.1121 559.417 26.1121 Q569.261 26.1121 574.122 31.2163 Q578.983 36.3204 578.983 46.6907 Z" fill="#000000" fill-rule="nonzero" fill-opacity="1" /><path clip-path="url(#clip250)" d="M632.05 45.1919 L632.05 72.576 L624.596 72.576 L624.596 45.4349 Q624.596 38.994 622.085 35.7938 Q619.573 32.5936 614.55 32.5936 Q608.514 32.5936 605.03 36.4419 Q601.547 40.2903 601.547 46.9338 L601.547 72.576 L594.053 72.576 L594.053 27.2059 L601.547 27.2059 L601.547 34.2544 Q604.22 30.163 607.826 28.1376 Q611.471 26.1121 616.211 26.1121 Q624.029 26.1121 628.04 30.9732 Q632.05 35.7938 632.05 45.1919 Z" fill="#000000" fill-rule="nonzero" fill-opacity="1" /><polyline clip-path="url(#clip252)" style="stroke:#009af9; stroke-linecap:round; stroke-linejoin:round; stroke-width:4; stroke-opacity:1; fill:none" points="180.617,1077.02 191.296,1064.88 201.975,1050.09 212.654,1032.26 223.333,1011.03 234.012,986.065 244.691,957.066 255.37,923.802 266.049,886.137 276.728,844.049 287.407,797.658 298.086,747.242 308.765,693.257 319.444,636.337 330.123,577.3 340.802,517.134 351.481,456.979 362.16,398.091 372.839,341.807 383.518,289.494 394.197,242.494 404.876,202.07 415.555,169.347 426.234,145.262 436.913,130.52 447.592,125.556 458.271,130.52 468.95,145.262 479.629,169.347 490.308,202.07 500.987,242.494 511.666,289.494 522.345,341.807 533.024,398.091 543.703,456.979 554.382,517.134 565.061,577.3 575.74,636.337 586.419,693.257 597.098,747.242 607.777,797.658 618.456,844.049 629.135,886.137 639.814,923.802 650.493,957.066 661.172,986.065 671.851,1011.03 682.53,1032.26 693.209,1050.09 703.888,1064.88 714.567,1077.02 "/>
<path clip-path="url(#clip250)" d="M602.691 234.311 L711.72 234.311 L711.72 130.631 L602.691 130.631  Z" fill="#ffffff" fill-rule="evenodd" fill-opacity="1"/>
<polyline clip-path="url(#clip250)" style="stroke:#000000; stroke-linecap:round; stroke-linejoin:round; stroke-width:4; stroke-opacity:1; fill:none" points="602.691,234.311 711.72,234.311 711.72,130.631 602.691,130.631 602.691,234.311 "/>
<polyline clip-path="url(#clip250)" style="stroke:#009af9; stroke-linecap:round; stroke-linejoin:round; stroke-width:4; stroke-opacity:1; fill:none" points="608.979,182.471 646.712,182.471 "/>
<path clip-path="url(#clip250)" d="M666.843 202.158 Q665.038 206.788 663.325 208.2 Q661.612 209.612 658.741 209.612 L655.339 209.612 L655.339 206.047 L657.839 206.047 Q659.598 206.047 660.57 205.214 Q661.542 204.38 662.723 201.278 L663.487 199.334 L653.001 173.825 L657.514 173.825 L665.616 194.103 L673.718 173.825 L678.232 173.825 L666.843 202.158 Z" fill="#000000" fill-rule="nonzero" fill-opacity="1" /><path clip-path="url(#clip250)" d="M685.524 195.815 L693.162 195.815 L693.162 169.45 L684.852 171.117 L684.852 166.857 L693.116 165.191 L697.792 165.191 L697.792 195.815 L705.431 195.815 L705.431 199.751 L685.524 199.751 L685.524 195.815 Z" fill="#000000" fill-rule="nonzero" fill-opacity="1" /><path clip-path="url(#clip250)" d="M972.104 1105.57 L1538.09 1105.57 L1538.09 97.0121 L972.104 97.0121  Z" fill="#ffffff" fill-rule="evenodd" fill-opacity="1"/>
<defs>
  <clipPath id="clip253">
    <rect x="972" y="97" width="567" height="1010"/>
  </clipPath>
</defs>
<polyline clip-path="url(#clip253)" style="stroke:#000000; stroke-linecap:round; stroke-linejoin:round; stroke-width:2; stroke-opacity:0.1; fill:none" points="1041.52,1105.57 1041.52,97.0121 "/>
<polyline clip-path="url(#clip253)" style="stroke:#000000; stroke-linecap:round; stroke-linejoin:round; stroke-width:2; stroke-opacity:0.1; fill:none" points="1148.31,1105.57 1148.31,97.0121 "/>
<polyline clip-path="url(#clip253)" style="stroke:#000000; stroke-linecap:round; stroke-linejoin:round; stroke-width:2; stroke-opacity:0.1; fill:none" points="1255.1,1105.57 1255.1,97.0121 "/>
<polyline clip-path="url(#clip253)" style="stroke:#000000; stroke-linecap:round; stroke-linejoin:round; stroke-width:2; stroke-opacity:0.1; fill:none" points="1361.89,1105.57 1361.89,97.0121 "/>
<polyline clip-path="url(#clip253)" style="stroke:#000000; stroke-linecap:round; stroke-linejoin:round; stroke-width:2; stroke-opacity:0.1; fill:none" points="1468.68,1105.57 1468.68,97.0121 "/>
<polyline clip-path="url(#clip253)" style="stroke:#000000; stroke-linecap:round; stroke-linejoin:round; stroke-width:2; stroke-opacity:0.1; fill:none" points="972.104,1077.02 1538.09,1077.02 "/>
<polyline clip-path="url(#clip253)" style="stroke:#000000; stroke-linecap:round; stroke-linejoin:round; stroke-width:2; stroke-opacity:0.1; fill:none" points="972.104,839.157 1538.09,839.157 "/>
<polyline clip-path="url(#clip253)" style="stroke:#000000; stroke-linecap:round; stroke-linejoin:round; stroke-width:2; stroke-opacity:0.1; fill:none" points="972.104,601.29 1538.09,601.29 "/>
<polyline clip-path="url(#clip253)" style="stroke:#000000; stroke-linecap:round; stroke-linejoin:round; stroke-width:2; stroke-opacity:0.1; fill:none" points="972.104,363.423 1538.09,363.423 "/>
<polyline clip-path="url(#clip253)" style="stroke:#000000; stroke-linecap:round; stroke-linejoin:round; stroke-width:2; stroke-opacity:0.1; fill:none" points="972.104,125.556 1538.09,125.556 "/>
<polyline clip-path="url(#clip250)" style="stroke:#000000; stroke-linecap:round; stroke-linejoin:round; stroke-width:4; stroke-opacity:1; fill:none" points="972.104,1105.57 1538.09,1105.57 "/>
<polyline clip-path="url(#clip250)" style="stroke:#000000; stroke-linecap:round; stroke-linejoin:round; stroke-width:4; stroke-opacity:1; fill:none" points="1041.52,1105.57 1041.52,1086.67 "/>
<polyline clip-path="url(#clip250)" style="stroke:#000000; stroke-linecap:round; stroke-linejoin:round; stroke-width:4; stroke-opacity:1; fill:none" points="1148.31,1105.57 1148.31,1086.67 "/>
<polyline clip-path="url(#clip250)" style="stroke:#000000; stroke-linecap:round; stroke-linejoin:round; stroke-width:4; stroke-opacity:1; fill:none" points="1255.1,1105.57 1255.1,1086.67 "/>
<polyline clip-path="url(#clip250)" style="stroke:#000000; stroke-linecap:round; stroke-linejoin:round; stroke-width:4; stroke-opacity:1; fill:none" points="1361.89,1105.57 1361.89,1086.67 "/>
<polyline clip-path="url(#clip250)" style="stroke:#000000; stroke-linecap:round; stroke-linejoin:round; stroke-width:4; stroke-opacity:1; fill:none" points="1468.68,1105.57 1468.68,1086.67 "/>
<path clip-path="url(#clip250)" d="M1011.46 1157.54 L1041.14 1157.54 L1041.14 1161.47 L1011.46 1161.47 L1011.46 1157.54 Z" fill="#000000" fill-rule="nonzero" fill-opacity="1" /><path clip-path="url(#clip250)" d="M1055.26 1170.43 L1071.58 1170.43 L1071.58 1174.37 L1049.63 1174.37 L1049.63 1170.43 Q1052.29 1167.68 1056.88 1163.05 Q1061.48 1158.4 1062.66 1157.05 Q1064.91 1154.53 1065.79 1152.79 Q1066.69 1151.03 1066.69 1149.34 Q1066.69 1146.59 1064.75 1144.85 Q1062.83 1143.12 1059.72 1143.12 Q1057.52 1143.12 1055.07 1143.88 Q1052.64 1144.65 1049.86 1146.2 L1049.86 1141.47 Q1052.69 1140.34 1055.14 1139.76 Q1057.59 1139.18 1059.63 1139.18 Q1065 1139.18 1068.2 1141.87 Q1071.39 1144.55 1071.39 1149.04 Q1071.39 1151.17 1070.58 1153.09 Q1069.79 1154.99 1067.69 1157.59 Q1067.11 1158.26 1064.01 1161.47 Q1060.9 1164.67 1055.26 1170.43 Z" fill="#000000" fill-rule="nonzero" fill-opacity="1" /><path clip-path="url(#clip250)" d="M1118.06 1157.54 L1147.74 1157.54 L1147.74 1161.47 L1118.06 1161.47 L1118.06 1157.54 Z" fill="#000000" fill-rule="nonzero" fill-opacity="1" /><path clip-path="url(#clip250)" d="M1158.64 1170.43 L1166.28 1170.43 L1166.28 1144.07 L1157.97 1145.73 L1157.97 1141.47 L1166.24 1139.81 L1170.91 1139.81 L1170.91 1170.43 L1178.55 1170.43 L1178.55 1174.37 L1158.64 1174.37 L1158.64 1170.43 Z" fill="#000000" fill-rule="nonzero" fill-opacity="1" /><path clip-path="url(#clip250)" d="M1255.1 1142.89 Q1251.49 1142.89 1249.66 1146.45 Q1247.85 1149.99 1247.85 1157.12 Q1247.85 1164.23 1249.66 1167.79 Q1251.49 1171.34 1255.1 1171.34 Q1258.73 1171.34 1260.54 1167.79 Q1262.37 1164.23 1262.37 1157.12 Q1262.37 1149.99 1260.54 1146.45 Q1258.73 1142.89 1255.1 1142.89 M1255.1 1139.18 Q1260.91 1139.18 1263.96 1143.79 Q1267.04 1148.37 1267.04 1157.12 Q1267.04 1165.85 1263.96 1170.46 Q1260.91 1175.04 1255.1 1175.04 Q1249.29 1175.04 1246.21 1170.46 Q1243.15 1165.85 1243.15 1157.12 Q1243.15 1148.37 1246.21 1143.79 Q1249.29 1139.18 1255.1 1139.18 Z" fill="#000000" fill-rule="nonzero" fill-opacity="1" /><path clip-path="url(#clip250)" d="M1352.27 1170.43 L1359.91 1170.43 L1359.91 1144.07 L1351.6 1145.73 L1351.6 1141.47 L1359.86 1139.81 L1364.54 1139.81 L1364.54 1170.43 L1372.18 1170.43 L1372.18 1174.37 L1352.27 1174.37 L1352.27 1170.43 Z" fill="#000000" fill-rule="nonzero" fill-opacity="1" /><path clip-path="url(#clip250)" d="M1463.33 1170.43 L1479.65 1170.43 L1479.65 1174.37 L1457.71 1174.37 L1457.71 1170.43 Q1460.37 1167.68 1464.95 1163.05 Q1469.56 1158.4 1470.74 1157.05 Q1472.98 1154.53 1473.86 1152.79 Q1474.77 1151.03 1474.77 1149.34 Q1474.77 1146.59 1472.82 1144.85 Q1470.9 1143.12 1467.8 1143.12 Q1465.6 1143.12 1463.15 1143.88 Q1460.72 1144.65 1457.94 1146.2 L1457.94 1141.47 Q1460.76 1140.34 1463.22 1139.76 Q1465.67 1139.18 1467.71 1139.18 Q1473.08 1139.18 1476.27 1141.87 Q1479.47 1144.55 1479.47 1149.04 Q1479.47 1151.17 1478.65 1153.09 Q1477.87 1154.99 1475.76 1157.59 Q1475.18 1158.26 1472.08 1161.47 Q1468.98 1164.67 1463.33 1170.43 Z" fill="#000000" fill-rule="nonzero" fill-opacity="1" /><polyline clip-path="url(#clip250)" style="stroke:#000000; stroke-linecap:round; stroke-linejoin:round; stroke-width:4; stroke-opacity:1; fill:none" points="972.104,1105.57 972.104,97.0121 "/>
<polyline clip-path="url(#clip250)" style="stroke:#000000; stroke-linecap:round; stroke-linejoin:round; stroke-width:4; stroke-opacity:1; fill:none" points="972.104,1077.02 991.002,1077.02 "/>
<polyline clip-path="url(#clip250)" style="stroke:#000000; stroke-linecap:round; stroke-linejoin:round; stroke-width:4; stroke-opacity:1; fill:none" points="972.104,839.157 991.002,839.157 "/>
<polyline clip-path="url(#clip250)" style="stroke:#000000; stroke-linecap:round; stroke-linejoin:round; stroke-width:4; stroke-opacity:1; fill:none" points="972.104,601.29 991.002,601.29 "/>
<polyline clip-path="url(#clip250)" style="stroke:#000000; stroke-linecap:round; stroke-linejoin:round; stroke-width:4; stroke-opacity:1; fill:none" points="972.104,363.423 991.002,363.423 "/>
<polyline clip-path="url(#clip250)" style="stroke:#000000; stroke-linecap:round; stroke-linejoin:round; stroke-width:4; stroke-opacity:1; fill:none" points="972.104,125.556 991.002,125.556 "/>
<path clip-path="url(#clip250)" d="M836.766 1062.82 Q833.155 1062.82 831.327 1066.39 Q829.521 1069.93 829.521 1077.06 Q829.521 1084.17 831.327 1087.73 Q833.155 1091.27 836.766 1091.27 Q840.401 1091.27 842.206 1087.73 Q844.035 1084.17 844.035 1077.06 Q844.035 1069.93 842.206 1066.39 Q840.401 1062.82 836.766 1062.82 M836.766 1059.12 Q842.577 1059.12 845.632 1063.73 Q848.711 1068.31 848.711 1077.06 Q848.711 1085.79 845.632 1090.39 Q842.577 1094.98 836.766 1094.98 Q830.956 1094.98 827.878 1090.39 Q824.822 1085.79 824.822 1077.06 Q824.822 1068.31 827.878 1063.73 Q830.956 1059.12 836.766 1059.12 Z" fill="#000000" fill-rule="nonzero" fill-opacity="1" /><path clip-path="url(#clip250)" d="M856.928 1088.42 L861.813 1088.42 L861.813 1094.3 L856.928 1094.3 L856.928 1088.42 Z" fill="#000000" fill-rule="nonzero" fill-opacity="1" /><path clip-path="url(#clip250)" d="M881.998 1062.82 Q878.387 1062.82 876.558 1066.39 Q874.752 1069.93 874.752 1077.06 Q874.752 1084.17 876.558 1087.73 Q878.387 1091.27 881.998 1091.27 Q885.632 1091.27 887.438 1087.73 Q889.266 1084.17 889.266 1077.06 Q889.266 1069.93 887.438 1066.39 Q885.632 1062.82 881.998 1062.82 M881.998 1059.12 Q887.808 1059.12 890.863 1063.73 Q893.942 1068.31 893.942 1077.06 Q893.942 1085.79 890.863 1090.39 Q887.808 1094.98 881.998 1094.98 Q876.188 1094.98 873.109 1090.39 Q870.053 1085.79 870.053 1077.06 Q870.053 1068.31 873.109 1063.73 Q876.188 1059.12 881.998 1059.12 Z" fill="#000000" fill-rule="nonzero" fill-opacity="1" /><path clip-path="url(#clip250)" d="M912.16 1062.82 Q908.549 1062.82 906.72 1066.39 Q904.914 1069.93 904.914 1077.06 Q904.914 1084.17 906.72 1087.73 Q908.549 1091.27 912.16 1091.27 Q915.794 1091.27 917.599 1087.73 Q919.428 1084.17 919.428 1077.06 Q919.428 1069.93 917.599 1066.39 Q915.794 1062.82 912.16 1062.82 M912.16 1059.12 Q917.97 1059.12 921.025 1063.73 Q924.104 1068.31 924.104 1077.06 Q924.104 1085.79 921.025 1090.39 Q917.97 1094.98 912.16 1094.98 Q906.349 1094.98 903.271 1090.39 Q900.215 1085.79 900.215 1077.06 Q900.215 1068.31 903.271 1063.73 Q906.349 1059.12 912.16 1059.12 Z" fill="#000000" fill-rule="nonzero" fill-opacity="1" /><path clip-path="url(#clip250)" d="M837.762 824.956 Q834.151 824.956 832.322 828.52 Q830.517 832.062 830.517 839.192 Q830.517 846.298 832.322 849.863 Q834.151 853.405 837.762 853.405 Q841.396 853.405 843.202 849.863 Q845.03 846.298 845.03 839.192 Q845.03 832.062 843.202 828.52 Q841.396 824.956 837.762 824.956 M837.762 821.252 Q843.572 821.252 846.628 825.858 Q849.706 830.442 849.706 839.192 Q849.706 847.918 846.628 852.525 Q843.572 857.108 837.762 857.108 Q831.952 857.108 828.873 852.525 Q825.817 847.918 825.817 839.192 Q825.817 830.442 828.873 825.858 Q831.952 821.252 837.762 821.252 Z" fill="#000000" fill-rule="nonzero" fill-opacity="1" /><path clip-path="url(#clip250)" d="M857.924 850.557 L862.808 850.557 L862.808 856.437 L857.924 856.437 L857.924 850.557 Z" fill="#000000" fill-rule="nonzero" fill-opacity="1" /><path clip-path="url(#clip250)" d="M877.021 852.502 L893.34 852.502 L893.34 856.437 L871.396 856.437 L871.396 852.502 Q874.058 849.747 878.641 845.118 Q883.248 840.465 884.428 839.122 Q886.674 836.599 887.553 834.863 Q888.456 833.104 888.456 831.414 Q888.456 828.659 886.512 826.923 Q884.59 825.187 881.488 825.187 Q879.289 825.187 876.836 825.951 Q874.405 826.715 871.627 828.266 L871.627 823.544 Q874.451 822.409 876.905 821.831 Q879.359 821.252 881.396 821.252 Q886.766 821.252 889.961 823.937 Q893.155 826.622 893.155 831.113 Q893.155 833.243 892.345 835.164 Q891.558 837.062 889.451 839.655 Q888.873 840.326 885.771 843.543 Q882.669 846.738 877.021 852.502 Z" fill="#000000" fill-rule="nonzero" fill-opacity="1" /><path clip-path="url(#clip250)" d="M903.201 821.877 L921.558 821.877 L921.558 825.812 L907.484 825.812 L907.484 834.284 Q908.502 833.937 909.521 833.775 Q910.539 833.59 911.558 833.59 Q917.345 833.59 920.724 836.761 Q924.104 839.932 924.104 845.349 Q924.104 850.928 920.632 854.03 Q917.16 857.108 910.84 857.108 Q908.664 857.108 906.396 856.738 Q904.15 856.367 901.743 855.627 L901.743 850.928 Q903.826 852.062 906.049 852.617 Q908.271 853.173 910.748 853.173 Q914.752 853.173 917.09 851.067 Q919.428 848.96 919.428 845.349 Q919.428 841.738 917.09 839.631 Q914.752 837.525 910.748 837.525 Q908.873 837.525 906.998 837.942 Q905.146 838.358 903.201 839.238 L903.201 821.877 Z" fill="#000000" fill-rule="nonzero" fill-opacity="1" /><path clip-path="url(#clip250)" d="M836.766 587.089 Q833.155 587.089 831.327 590.653 Q829.521 594.195 829.521 601.325 Q829.521 608.431 831.327 611.996 Q833.155 615.538 836.766 615.538 Q840.401 615.538 842.206 611.996 Q844.035 608.431 844.035 601.325 Q844.035 594.195 842.206 590.653 Q840.401 587.089 836.766 587.089 M836.766 583.385 Q842.577 583.385 845.632 587.991 Q848.711 592.575 848.711 601.325 Q848.711 610.052 845.632 614.658 Q842.577 619.241 836.766 619.241 Q830.956 619.241 827.878 614.658 Q824.822 610.052 824.822 601.325 Q824.822 592.575 827.878 587.991 Q830.956 583.385 836.766 583.385 Z" fill="#000000" fill-rule="nonzero" fill-opacity="1" /><path clip-path="url(#clip250)" d="M856.928 612.69 L861.813 612.69 L861.813 618.57 L856.928 618.57 L856.928 612.69 Z" fill="#000000" fill-rule="nonzero" fill-opacity="1" /><path clip-path="url(#clip250)" d="M872.044 584.01 L890.4 584.01 L890.4 587.945 L876.326 587.945 L876.326 596.417 Q877.345 596.07 878.363 595.908 Q879.382 595.723 880.401 595.723 Q886.188 595.723 889.567 598.894 Q892.947 602.065 892.947 607.482 Q892.947 613.061 889.475 616.163 Q886.002 619.241 879.683 619.241 Q877.507 619.241 875.239 618.871 Q872.993 618.501 870.586 617.76 L870.586 613.061 Q872.669 614.195 874.891 614.751 Q877.113 615.306 879.59 615.306 Q883.595 615.306 885.933 613.2 Q888.271 611.093 888.271 607.482 Q888.271 603.871 885.933 601.765 Q883.595 599.658 879.59 599.658 Q877.715 599.658 875.84 600.075 Q873.989 600.491 872.044 601.371 L872.044 584.01 Z" fill="#000000" fill-rule="nonzero" fill-opacity="1" /><path clip-path="url(#clip250)" d="M912.16 587.089 Q908.549 587.089 906.72 590.653 Q904.914 594.195 904.914 601.325 Q904.914 608.431 906.72 611.996 Q908.549 615.538 912.16 615.538 Q915.794 615.538 917.599 611.996 Q919.428 608.431 919.428 601.325 Q919.428 594.195 917.599 590.653 Q915.794 587.089 912.16 587.089 M912.16 583.385 Q917.97 583.385 921.025 587.991 Q924.104 592.575 924.104 601.325 Q924.104 610.052 921.025 614.658 Q917.97 619.241 912.16 619.241 Q906.349 619.241 903.271 614.658 Q900.215 610.052 900.215 601.325 Q900.215 592.575 903.271 587.991 Q906.349 583.385 912.16 583.385 Z" fill="#000000" fill-rule="nonzero" fill-opacity="1" /><path clip-path="url(#clip250)" d="M837.762 349.222 Q834.151 349.222 832.322 352.787 Q830.517 356.328 830.517 363.458 Q830.517 370.564 832.322 374.129 Q834.151 377.671 837.762 377.671 Q841.396 377.671 843.202 374.129 Q845.03 370.564 845.03 363.458 Q845.03 356.328 843.202 352.787 Q841.396 349.222 837.762 349.222 M837.762 345.518 Q843.572 345.518 846.628 350.125 Q849.706 354.708 849.706 363.458 Q849.706 372.185 846.628 376.791 Q843.572 381.374 837.762 381.374 Q831.952 381.374 828.873 376.791 Q825.817 372.185 825.817 363.458 Q825.817 354.708 828.873 350.125 Q831.952 345.518 837.762 345.518 Z" fill="#000000" fill-rule="nonzero" fill-opacity="1" /><path clip-path="url(#clip250)" d="M857.924 374.823 L862.808 374.823 L862.808 380.703 L857.924 380.703 L857.924 374.823 Z" fill="#000000" fill-rule="nonzero" fill-opacity="1" /><path clip-path="url(#clip250)" d="M871.813 346.143 L894.035 346.143 L894.035 348.134 L881.488 380.703 L876.604 380.703 L888.41 350.078 L871.813 350.078 L871.813 346.143 Z" fill="#000000" fill-rule="nonzero" fill-opacity="1" /><path clip-path="url(#clip250)" d="M903.201 346.143 L921.558 346.143 L921.558 350.078 L907.484 350.078 L907.484 358.55 Q908.502 358.203 909.521 358.041 Q910.539 357.856 911.558 357.856 Q917.345 357.856 920.724 361.027 Q924.104 364.199 924.104 369.615 Q924.104 375.194 920.632 378.296 Q917.16 381.374 910.84 381.374 Q908.664 381.374 906.396 381.004 Q904.15 380.634 901.743 379.893 L901.743 375.194 Q903.826 376.328 906.049 376.884 Q908.271 377.439 910.748 377.439 Q914.752 377.439 917.09 375.333 Q919.428 373.226 919.428 369.615 Q919.428 366.004 917.09 363.898 Q914.752 361.791 910.748 361.791 Q908.873 361.791 906.998 362.208 Q905.146 362.624 903.201 363.504 L903.201 346.143 Z" fill="#000000" fill-rule="nonzero" fill-opacity="1" /><path clip-path="url(#clip250)" d="M827.577 138.901 L835.216 138.901 L835.216 112.535 L826.905 114.202 L826.905 109.943 L835.169 108.276 L839.845 108.276 L839.845 138.901 L847.484 138.901 L847.484 142.836 L827.577 142.836 L827.577 138.901 Z" fill="#000000" fill-rule="nonzero" fill-opacity="1" /><path clip-path="url(#clip250)" d="M856.928 136.957 L861.813 136.957 L861.813 142.836 L856.928 142.836 L856.928 136.957 Z" fill="#000000" fill-rule="nonzero" fill-opacity="1" /><path clip-path="url(#clip250)" d="M881.998 111.355 Q878.387 111.355 876.558 114.92 Q874.752 118.461 874.752 125.591 Q874.752 132.697 876.558 136.262 Q878.387 139.804 881.998 139.804 Q885.632 139.804 887.438 136.262 Q889.266 132.697 889.266 125.591 Q889.266 118.461 887.438 114.92 Q885.632 111.355 881.998 111.355 M881.998 107.651 Q887.808 107.651 890.863 112.258 Q893.942 116.841 893.942 125.591 Q893.942 134.318 890.863 138.924 Q887.808 143.507 881.998 143.507 Q876.188 143.507 873.109 138.924 Q870.053 134.318 870.053 125.591 Q870.053 116.841 873.109 112.258 Q876.188 107.651 881.998 107.651 Z" fill="#000000" fill-rule="nonzero" fill-opacity="1" /><path clip-path="url(#clip250)" d="M912.16 111.355 Q908.549 111.355 906.72 114.92 Q904.914 118.461 904.914 125.591 Q904.914 132.697 906.72 136.262 Q908.549 139.804 912.16 139.804 Q915.794 139.804 917.599 136.262 Q919.428 132.697 919.428 125.591 Q919.428 118.461 917.599 114.92 Q915.794 111.355 912.16 111.355 M912.16 107.651 Q917.97 107.651 921.025 112.258 Q924.104 116.841 924.104 125.591 Q924.104 134.318 921.025 138.924 Q917.97 143.507 912.16 143.507 Q906.349 143.507 903.271 138.924 Q900.215 134.318 900.215 125.591 Q900.215 116.841 903.271 112.258 Q906.349 107.651 912.16 107.651 Z" fill="#000000" fill-rule="nonzero" fill-opacity="1" /><path clip-path="url(#clip250)" d="M1125.69 43.6931 L1125.69 65.8515 L1138.82 65.8515 Q1145.42 65.8515 1148.58 63.1374 Q1151.78 60.3828 1151.78 54.752 Q1151.78 49.0808 1148.58 46.4072 Q1145.42 43.6931 1138.82 43.6931 L1125.69 43.6931 M1125.69 18.8205 L1125.69 37.0496 L1137.8 37.0496 Q1143.8 37.0496 1146.72 34.8216 Q1149.67 32.5531 1149.67 27.935 Q1149.67 23.3575 1146.72 21.089 Q1143.8 18.8205 1137.8 18.8205 L1125.69 18.8205 M1117.51 12.096 L1138.41 12.096 Q1147.77 12.096 1152.83 15.9849 Q1157.9 19.8737 1157.9 27.0438 Q1157.9 32.5936 1155.3 35.8748 Q1152.71 39.156 1147.69 39.9662 Q1153.72 41.2625 1157.05 45.3944 Q1160.41 49.4858 1160.41 55.6432 Q1160.41 63.745 1154.9 68.1605 Q1149.39 72.576 1139.22 72.576 L1117.51 72.576 L1117.51 12.096 Z" fill="#000000" fill-rule="nonzero" fill-opacity="1" /><path clip-path="url(#clip250)" d="M1191.68 32.4315 Q1185.69 32.4315 1182.2 37.1306 Q1178.72 41.7891 1178.72 49.9314 Q1178.72 58.0738 1182.16 62.7728 Q1185.65 67.4314 1191.68 67.4314 Q1197.64 67.4314 1201.12 62.7323 Q1204.6 58.0333 1204.6 49.9314 Q1204.6 41.8701 1201.12 37.1711 Q1197.64 32.4315 1191.68 32.4315 M1191.68 26.1121 Q1201.4 26.1121 1206.95 32.4315 Q1212.5 38.7509 1212.5 49.9314 Q1212.5 61.0714 1206.95 67.4314 Q1201.4 73.7508 1191.68 73.7508 Q1181.92 73.7508 1176.37 67.4314 Q1170.86 61.0714 1170.86 49.9314 Q1170.86 38.7509 1176.37 32.4315 Q1181.92 26.1121 1191.68 26.1121 Z" fill="#000000" fill-rule="nonzero" fill-opacity="1" /><path clip-path="url(#clip250)" d="M1260.02 27.2059 L1243.61 49.2833 L1260.87 72.576 L1252.08 72.576 L1238.87 54.752 L1225.67 72.576 L1216.88 72.576 L1234.5 48.8377 L1218.38 27.2059 L1227.17 27.2059 L1239.2 43.369 L1251.23 27.2059 L1260.02 27.2059 Z" fill="#000000" fill-rule="nonzero" fill-opacity="1" /><path clip-path="url(#clip250)" d="M1302.59 28.9478 L1302.59 35.9153 Q1299.43 34.1734 1296.23 33.3227 Q1293.08 32.4315 1289.83 32.4315 Q1282.58 32.4315 1278.57 37.0496 Q1274.56 41.6271 1274.56 49.9314 Q1274.56 58.2358 1278.57 62.8538 Q1282.58 67.4314 1289.83 67.4314 Q1293.08 67.4314 1296.23 66.5807 Q1299.43 65.6895 1302.59 63.9476 L1302.59 70.8341 Q1299.48 72.2924 1296.11 73.0216 Q1292.79 73.7508 1289.02 73.7508 Q1278.78 73.7508 1272.74 67.3098 Q1266.7 60.8689 1266.7 49.9314 Q1266.7 38.832 1272.78 32.472 Q1278.9 26.1121 1289.51 26.1121 Q1292.95 26.1121 1296.23 26.8413 Q1299.52 27.5299 1302.59 28.9478 Z" fill="#000000" fill-rule="nonzero" fill-opacity="1" /><path clip-path="url(#clip250)" d="M1336.18 49.7694 Q1327.14 49.7694 1323.66 51.8354 Q1320.18 53.9013 1320.18 58.8839 Q1320.18 62.8538 1322.77 65.2034 Q1325.4 67.5124 1329.9 67.5124 Q1336.1 67.5124 1339.82 63.1374 Q1343.59 58.7219 1343.59 51.4303 L1343.59 49.7694 L1336.18 49.7694 M1351.04 46.6907 L1351.04 72.576 L1343.59 72.576 L1343.59 65.6895 Q1341.04 69.8214 1337.23 71.8063 Q1333.42 73.7508 1327.91 73.7508 Q1320.95 73.7508 1316.81 69.8619 Q1312.72 65.9325 1312.72 59.3701 Q1312.72 51.7138 1317.83 47.825 Q1322.97 43.9361 1333.14 43.9361 L1343.59 43.9361 L1343.59 43.2069 Q1343.59 38.0623 1340.19 35.2672 Q1336.82 32.4315 1330.71 32.4315 Q1326.82 32.4315 1323.13 33.3632 Q1319.45 34.295 1316.04 36.1584 L1316.04 29.2718 Q1320.14 27.692 1323.98 26.9223 Q1327.83 26.1121 1331.48 26.1121 Q1341.32 26.1121 1346.18 31.2163 Q1351.04 36.3204 1351.04 46.6907 Z" fill="#000000" fill-rule="nonzero" fill-opacity="1" /><path clip-path="url(#clip250)" d="M1392.69 34.1734 Q1391.43 33.4443 1389.93 33.1202 Q1388.47 32.7556 1386.69 32.7556 Q1380.37 32.7556 1376.97 36.8875 Q1373.61 40.9789 1373.61 48.6757 L1373.61 72.576 L1366.11 72.576 L1366.11 27.2059 L1373.61 27.2059 L1373.61 34.2544 Q1375.96 30.1225 1379.72 28.1376 Q1383.49 26.1121 1388.88 26.1121 Q1389.65 26.1121 1390.58 26.2337 Q1391.51 26.3147 1392.65 26.5172 L1392.69 34.1734 Z" fill="#000000" fill-rule="nonzero" fill-opacity="1" /><polyline clip-path="url(#clip253)" style="stroke:#009af9; stroke-linecap:round; stroke-linejoin:round; stroke-width:4; stroke-opacity:1; fill:none" points="988.122,1077.02 998.802,1077.02 1009.48,1077.02 1020.16,1077.02 1030.84,1077.02 1041.52,1077.02 1052.2,1077.02 1062.88,1077.02 1073.55,1077.02 1084.23,1077.02 1094.91,1077.02 1105.59,1077.02 1116.27,1077.02 1126.95,1077.02 1137.63,1077.02 1148.31,1077.02 1158.99,125.556 1169.67,125.556 1180.34,125.556 1191.02,125.556 1201.7,125.556 1212.38,125.556 1223.06,125.556 1233.74,125.556 1244.42,125.556 1255.1,125.556 1265.78,125.556 1276.46,125.556 1287.13,125.556 1297.81,125.556 1308.49,125.556 1319.17,125.556 1329.85,125.556 1340.53,125.556 1351.21,125.556 1361.89,1077.02 1372.57,1077.02 1383.25,1077.02 1393.92,1077.02 1404.6,1077.02 1415.28,1077.02 1425.96,1077.02 1436.64,1077.02 1447.32,1077.02 1458,1077.02 1468.68,1077.02 1479.36,1077.02 1490.04,1077.02 1500.72,1077.02 1511.39,1077.02 1522.07,1077.02 "/>
<path clip-path="url(#clip250)" d="M1410.2 234.311 L1519.23 234.311 L1519.23 130.631 L1410.2 130.631  Z" fill="#ffffff" fill-rule="evenodd" fill-opacity="1"/>
<polyline clip-path="url(#clip250)" style="stroke:#000000; stroke-linecap:round; stroke-linejoin:round; stroke-width:4; stroke-opacity:1; fill:none" points="1410.2,234.311 1519.23,234.311 1519.23,130.631 1410.2,130.631 1410.2,234.311 "/>
<polyline clip-path="url(#clip250)" style="stroke:#009af9; stroke-linecap:round; stroke-linejoin:round; stroke-width:4; stroke-opacity:1; fill:none" points="1416.49,182.471 1454.22,182.471 "/>
<path clip-path="url(#clip250)" d="M1474.35 202.158 Q1472.54 206.788 1470.83 208.2 Q1469.12 209.612 1466.25 209.612 L1462.84 209.612 L1462.84 206.047 L1465.34 206.047 Q1467.1 206.047 1468.08 205.214 Q1469.05 204.38 1470.23 201.278 L1470.99 199.334 L1460.51 173.825 L1465.02 173.825 L1473.12 194.103 L1481.22 173.825 L1485.74 173.825 L1474.35 202.158 Z" fill="#000000" fill-rule="nonzero" fill-opacity="1" /><path clip-path="url(#clip250)" d="M1493.03 195.815 L1500.67 195.815 L1500.67 169.45 L1492.36 171.117 L1492.36 166.857 L1500.62 165.191 L1505.3 165.191 L1505.3 195.815 L1512.94 195.815 L1512.94 199.751 L1493.03 199.751 L1493.03 195.815 Z" fill="#000000" fill-rule="nonzero" fill-opacity="1" /><path clip-path="url(#clip250)" d="M1779.26 1105.57 L2345.25 1105.57 L2345.25 97.0121 L1779.26 97.0121  Z" fill="#ffffff" fill-rule="evenodd" fill-opacity="1"/>
<defs>
  <clipPath id="clip254">
    <rect x="1779" y="97" width="567" height="1010"/>
  </clipPath>
</defs>
<polyline clip-path="url(#clip254)" style="stroke:#000000; stroke-linecap:round; stroke-linejoin:round; stroke-width:2; stroke-opacity:0.1; fill:none" points="1848.68,1105.57 1848.68,97.0121 "/>
<polyline clip-path="url(#clip254)" style="stroke:#000000; stroke-linecap:round; stroke-linejoin:round; stroke-width:2; stroke-opacity:0.1; fill:none" points="1955.47,1105.57 1955.47,97.0121 "/>
<polyline clip-path="url(#clip254)" style="stroke:#000000; stroke-linecap:round; stroke-linejoin:round; stroke-width:2; stroke-opacity:0.1; fill:none" points="2062.26,1105.57 2062.26,97.0121 "/>
<polyline clip-path="url(#clip254)" style="stroke:#000000; stroke-linecap:round; stroke-linejoin:round; stroke-width:2; stroke-opacity:0.1; fill:none" points="2169.05,1105.57 2169.05,97.0121 "/>
<polyline clip-path="url(#clip254)" style="stroke:#000000; stroke-linecap:round; stroke-linejoin:round; stroke-width:2; stroke-opacity:0.1; fill:none" points="2275.84,1105.57 2275.84,97.0121 "/>
<polyline clip-path="url(#clip254)" style="stroke:#000000; stroke-linecap:round; stroke-linejoin:round; stroke-width:2; stroke-opacity:0.1; fill:none" points="1779.26,1077.02 2345.25,1077.02 "/>
<polyline clip-path="url(#clip254)" style="stroke:#000000; stroke-linecap:round; stroke-linejoin:round; stroke-width:2; stroke-opacity:0.1; fill:none" points="1779.26,839.157 2345.25,839.157 "/>
<polyline clip-path="url(#clip254)" style="stroke:#000000; stroke-linecap:round; stroke-linejoin:round; stroke-width:2; stroke-opacity:0.1; fill:none" points="1779.26,601.29 2345.25,601.29 "/>
<polyline clip-path="url(#clip254)" style="stroke:#000000; stroke-linecap:round; stroke-linejoin:round; stroke-width:2; stroke-opacity:0.1; fill:none" points="1779.26,363.423 2345.25,363.423 "/>
<polyline clip-path="url(#clip254)" style="stroke:#000000; stroke-linecap:round; stroke-linejoin:round; stroke-width:2; stroke-opacity:0.1; fill:none" points="1779.26,125.556 2345.25,125.556 "/>
<polyline clip-path="url(#clip250)" style="stroke:#000000; stroke-linecap:round; stroke-linejoin:round; stroke-width:4; stroke-opacity:1; fill:none" points="1779.26,1105.57 2345.25,1105.57 "/>
<polyline clip-path="url(#clip250)" style="stroke:#000000; stroke-linecap:round; stroke-linejoin:round; stroke-width:4; stroke-opacity:1; fill:none" points="1848.68,1105.57 1848.68,1086.67 "/>
<polyline clip-path="url(#clip250)" style="stroke:#000000; stroke-linecap:round; stroke-linejoin:round; stroke-width:4; stroke-opacity:1; fill:none" points="1955.47,1105.57 1955.47,1086.67 "/>
<polyline clip-path="url(#clip250)" style="stroke:#000000; stroke-linecap:round; stroke-linejoin:round; stroke-width:4; stroke-opacity:1; fill:none" points="2062.26,1105.57 2062.26,1086.67 "/>
<polyline clip-path="url(#clip250)" style="stroke:#000000; stroke-linecap:round; stroke-linejoin:round; stroke-width:4; stroke-opacity:1; fill:none" points="2169.05,1105.57 2169.05,1086.67 "/>
<polyline clip-path="url(#clip250)" style="stroke:#000000; stroke-linecap:round; stroke-linejoin:round; stroke-width:4; stroke-opacity:1; fill:none" points="2275.84,1105.57 2275.84,1086.67 "/>
<path clip-path="url(#clip250)" d="M1818.62 1157.54 L1848.29 1157.54 L1848.29 1161.47 L1818.62 1161.47 L1818.62 1157.54 Z" fill="#000000" fill-rule="nonzero" fill-opacity="1" /><path clip-path="url(#clip250)" d="M1862.41 1170.43 L1878.73 1170.43 L1878.73 1174.37 L1856.79 1174.37 L1856.79 1170.43 Q1859.45 1167.68 1864.03 1163.05 Q1868.64 1158.4 1869.82 1157.05 Q1872.07 1154.53 1872.95 1152.79 Q1873.85 1151.03 1873.85 1149.34 Q1873.85 1146.59 1871.91 1144.85 Q1869.98 1143.12 1866.88 1143.12 Q1864.68 1143.12 1862.23 1143.88 Q1859.8 1144.65 1857.02 1146.2 L1857.02 1141.47 Q1859.85 1140.34 1862.3 1139.76 Q1864.75 1139.18 1866.79 1139.18 Q1872.16 1139.18 1875.35 1141.87 Q1878.55 1144.55 1878.55 1149.04 Q1878.55 1151.17 1877.74 1153.09 Q1876.95 1154.99 1874.84 1157.59 Q1874.27 1158.26 1871.16 1161.47 Q1868.06 1164.67 1862.41 1170.43 Z" fill="#000000" fill-rule="nonzero" fill-opacity="1" /><path clip-path="url(#clip250)" d="M1925.22 1157.54 L1954.9 1157.54 L1954.9 1161.47 L1925.22 1161.47 L1925.22 1157.54 Z" fill="#000000" fill-rule="nonzero" fill-opacity="1" /><path clip-path="url(#clip250)" d="M1965.8 1170.43 L1973.44 1170.43 L1973.44 1144.07 L1965.13 1145.73 L1965.13 1141.47 L1973.39 1139.81 L1978.07 1139.81 L1978.07 1170.43 L1985.71 1170.43 L1985.71 1174.37 L1965.8 1174.37 L1965.8 1170.43 Z" fill="#000000" fill-rule="nonzero" fill-opacity="1" /><path clip-path="url(#clip250)" d="M2062.26 1142.89 Q2058.65 1142.89 2056.82 1146.45 Q2055.01 1149.99 2055.01 1157.12 Q2055.01 1164.23 2056.82 1167.79 Q2058.65 1171.34 2062.26 1171.34 Q2065.89 1171.34 2067.7 1167.79 Q2069.52 1164.23 2069.52 1157.12 Q2069.52 1149.99 2067.7 1146.45 Q2065.89 1142.89 2062.26 1142.89 M2062.26 1139.18 Q2068.07 1139.18 2071.12 1143.79 Q2074.2 1148.37 2074.2 1157.12 Q2074.2 1165.85 2071.12 1170.46 Q2068.07 1175.04 2062.26 1175.04 Q2056.45 1175.04 2053.37 1170.46 Q2050.31 1165.85 2050.31 1157.12 Q2050.31 1148.37 2053.37 1143.79 Q2056.45 1139.18 2062.26 1139.18 Z" fill="#000000" fill-rule="nonzero" fill-opacity="1" /><path clip-path="url(#clip250)" d="M2159.43 1170.43 L2167.07 1170.43 L2167.07 1144.07 L2158.76 1145.73 L2158.76 1141.47 L2167.02 1139.81 L2171.7 1139.81 L2171.7 1170.43 L2179.34 1170.43 L2179.34 1174.37 L2159.43 1174.37 L2159.43 1170.43 Z" fill="#000000" fill-rule="nonzero" fill-opacity="1" /><path clip-path="url(#clip250)" d="M2270.49 1170.43 L2286.81 1170.43 L2286.81 1174.37 L2264.86 1174.37 L2264.86 1170.43 Q2267.53 1167.68 2272.11 1163.05 Q2276.72 1158.4 2277.9 1157.05 Q2280.14 1154.53 2281.02 1152.79 Q2281.92 1151.03 2281.92 1149.34 Q2281.92 1146.59 2279.98 1144.85 Q2278.06 1143.12 2274.96 1143.12 Q2272.76 1143.12 2270.3 1143.88 Q2267.87 1144.65 2265.1 1146.2 L2265.1 1141.47 Q2267.92 1140.34 2270.37 1139.76 Q2272.83 1139.18 2274.86 1139.18 Q2280.23 1139.18 2283.43 1141.87 Q2286.62 1144.55 2286.62 1149.04 Q2286.62 1151.17 2285.81 1153.09 Q2285.03 1154.99 2282.92 1157.59 Q2282.34 1158.26 2279.24 1161.47 Q2276.14 1164.67 2270.49 1170.43 Z" fill="#000000" fill-rule="nonzero" fill-opacity="1" /><polyline clip-path="url(#clip250)" style="stroke:#000000; stroke-linecap:round; stroke-linejoin:round; stroke-width:4; stroke-opacity:1; fill:none" points="1779.26,1105.57 1779.26,97.0121 "/>
<polyline clip-path="url(#clip250)" style="stroke:#000000; stroke-linecap:round; stroke-linejoin:round; stroke-width:4; stroke-opacity:1; fill:none" points="1779.26,1077.02 1798.16,1077.02 "/>
<polyline clip-path="url(#clip250)" style="stroke:#000000; stroke-linecap:round; stroke-linejoin:round; stroke-width:4; stroke-opacity:1; fill:none" points="1779.26,839.157 1798.16,839.157 "/>
<polyline clip-path="url(#clip250)" style="stroke:#000000; stroke-linecap:round; stroke-linejoin:round; stroke-width:4; stroke-opacity:1; fill:none" points="1779.26,601.29 1798.16,601.29 "/>
<polyline clip-path="url(#clip250)" style="stroke:#000000; stroke-linecap:round; stroke-linejoin:round; stroke-width:4; stroke-opacity:1; fill:none" points="1779.26,363.423 1798.16,363.423 "/>
<polyline clip-path="url(#clip250)" style="stroke:#000000; stroke-linecap:round; stroke-linejoin:round; stroke-width:4; stroke-opacity:1; fill:none" points="1779.26,125.556 1798.16,125.556 "/>
<path clip-path="url(#clip250)" d="M1634.74 1090.37 L1642.37 1090.37 L1642.37 1064 L1634.06 1065.67 L1634.06 1061.41 L1642.33 1059.74 L1647 1059.74 L1647 1090.37 L1654.64 1090.37 L1654.64 1094.3 L1634.74 1094.3 L1634.74 1090.37 Z" fill="#000000" fill-rule="nonzero" fill-opacity="1" /><path clip-path="url(#clip250)" d="M1664.09 1088.42 L1668.97 1088.42 L1668.97 1094.3 L1664.09 1094.3 L1664.09 1088.42 Z" fill="#000000" fill-rule="nonzero" fill-opacity="1" /><path clip-path="url(#clip250)" d="M1689.16 1062.82 Q1685.55 1062.82 1683.72 1066.39 Q1681.91 1069.93 1681.91 1077.06 Q1681.91 1084.17 1683.72 1087.73 Q1685.55 1091.27 1689.16 1091.27 Q1692.79 1091.27 1694.6 1087.73 Q1696.42 1084.17 1696.42 1077.06 Q1696.42 1069.93 1694.6 1066.39 Q1692.79 1062.82 1689.16 1062.82 M1689.16 1059.12 Q1694.97 1059.12 1698.02 1063.73 Q1701.1 1068.31 1701.1 1077.06 Q1701.1 1085.79 1698.02 1090.39 Q1694.97 1094.98 1689.16 1094.98 Q1683.35 1094.98 1680.27 1090.39 Q1677.21 1085.79 1677.21 1077.06 Q1677.21 1068.31 1680.27 1063.73 Q1683.35 1059.12 1689.16 1059.12 Z" fill="#000000" fill-rule="nonzero" fill-opacity="1" /><path clip-path="url(#clip250)" d="M1719.32 1062.82 Q1715.71 1062.82 1713.88 1066.39 Q1712.07 1069.93 1712.07 1077.06 Q1712.07 1084.17 1713.88 1087.73 Q1715.71 1091.27 1719.32 1091.27 Q1722.95 1091.27 1724.76 1087.73 Q1726.59 1084.17 1726.59 1077.06 Q1726.59 1069.93 1724.76 1066.39 Q1722.95 1062.82 1719.32 1062.82 M1719.32 1059.12 Q1725.13 1059.12 1728.18 1063.73 Q1731.26 1068.31 1731.26 1077.06 Q1731.26 1085.79 1728.18 1090.39 Q1725.13 1094.98 1719.32 1094.98 Q1713.51 1094.98 1710.43 1090.39 Q1707.37 1085.79 1707.37 1077.06 Q1707.37 1068.31 1710.43 1063.73 Q1713.51 1059.12 1719.32 1059.12 Z" fill="#000000" fill-rule="nonzero" fill-opacity="1" /><path clip-path="url(#clip250)" d="M1635.73 852.502 L1643.37 852.502 L1643.37 826.136 L1635.06 827.803 L1635.06 823.544 L1643.32 821.877 L1648 821.877 L1648 852.502 L1655.64 852.502 L1655.64 856.437 L1635.73 856.437 L1635.73 852.502 Z" fill="#000000" fill-rule="nonzero" fill-opacity="1" /><path clip-path="url(#clip250)" d="M1665.08 850.557 L1669.97 850.557 L1669.97 856.437 L1665.08 856.437 L1665.08 850.557 Z" fill="#000000" fill-rule="nonzero" fill-opacity="1" /><path clip-path="url(#clip250)" d="M1684.18 852.502 L1700.5 852.502 L1700.5 856.437 L1678.55 856.437 L1678.55 852.502 Q1681.22 849.747 1685.8 845.118 Q1690.41 840.465 1691.59 839.122 Q1693.83 836.599 1694.71 834.863 Q1695.61 833.104 1695.61 831.414 Q1695.61 828.659 1693.67 826.923 Q1691.75 825.187 1688.65 825.187 Q1686.45 825.187 1683.99 825.951 Q1681.56 826.715 1678.79 828.266 L1678.79 823.544 Q1681.61 822.409 1684.06 821.831 Q1686.52 821.252 1688.55 821.252 Q1693.92 821.252 1697.12 823.937 Q1700.31 826.622 1700.31 831.113 Q1700.31 833.243 1699.5 835.164 Q1698.72 837.062 1696.61 839.655 Q1696.03 840.326 1692.93 843.543 Q1689.83 846.738 1684.18 852.502 Z" fill="#000000" fill-rule="nonzero" fill-opacity="1" /><path clip-path="url(#clip250)" d="M1710.36 821.877 L1728.72 821.877 L1728.72 825.812 L1714.64 825.812 L1714.64 834.284 Q1715.66 833.937 1716.68 833.775 Q1717.7 833.59 1718.72 833.59 Q1724.5 833.59 1727.88 836.761 Q1731.26 839.932 1731.26 845.349 Q1731.26 850.928 1727.79 854.03 Q1724.32 857.108 1718 857.108 Q1715.82 857.108 1713.55 856.738 Q1711.31 856.367 1708.9 855.627 L1708.9 850.928 Q1710.98 852.062 1713.21 852.617 Q1715.43 853.173 1717.91 853.173 Q1721.91 853.173 1724.25 851.067 Q1726.59 848.96 1726.59 845.349 Q1726.59 841.738 1724.25 839.631 Q1721.91 837.525 1717.91 837.525 Q1716.03 837.525 1714.16 837.942 Q1712.3 838.358 1710.36 839.238 L1710.36 821.877 Z" fill="#000000" fill-rule="nonzero" fill-opacity="1" /><path clip-path="url(#clip250)" d="M1634.74 614.635 L1642.37 614.635 L1642.37 588.269 L1634.06 589.936 L1634.06 585.677 L1642.33 584.01 L1647 584.01 L1647 614.635 L1654.64 614.635 L1654.64 618.57 L1634.74 618.57 L1634.74 614.635 Z" fill="#000000" fill-rule="nonzero" fill-opacity="1" /><path clip-path="url(#clip250)" d="M1664.09 612.69 L1668.97 612.69 L1668.97 618.57 L1664.09 618.57 L1664.09 612.69 Z" fill="#000000" fill-rule="nonzero" fill-opacity="1" /><path clip-path="url(#clip250)" d="M1679.2 584.01 L1697.56 584.01 L1697.56 587.945 L1683.48 587.945 L1683.48 596.417 Q1684.5 596.07 1685.52 595.908 Q1686.54 595.723 1687.56 595.723 Q1693.35 595.723 1696.73 598.894 Q1700.11 602.065 1700.11 607.482 Q1700.11 613.061 1696.63 616.163 Q1693.16 619.241 1686.84 619.241 Q1684.67 619.241 1682.4 618.871 Q1680.15 618.501 1677.74 617.76 L1677.74 613.061 Q1679.83 614.195 1682.05 614.751 Q1684.27 615.306 1686.75 615.306 Q1690.75 615.306 1693.09 613.2 Q1695.43 611.093 1695.43 607.482 Q1695.43 603.871 1693.09 601.765 Q1690.75 599.658 1686.75 599.658 Q1684.87 599.658 1683 600.075 Q1681.15 600.491 1679.2 601.371 L1679.2 584.01 Z" fill="#000000" fill-rule="nonzero" fill-opacity="1" /><path clip-path="url(#clip250)" d="M1719.32 587.089 Q1715.71 587.089 1713.88 590.653 Q1712.07 594.195 1712.07 601.325 Q1712.07 608.431 1713.88 611.996 Q1715.71 615.538 1719.32 615.538 Q1722.95 615.538 1724.76 611.996 Q1726.59 608.431 1726.59 601.325 Q1726.59 594.195 1724.76 590.653 Q1722.95 587.089 1719.32 587.089 M1719.32 583.385 Q1725.13 583.385 1728.18 587.991 Q1731.26 592.575 1731.26 601.325 Q1731.26 610.052 1728.18 614.658 Q1725.13 619.241 1719.32 619.241 Q1713.51 619.241 1710.43 614.658 Q1707.37 610.052 1707.37 601.325 Q1707.37 592.575 1710.43 587.991 Q1713.51 583.385 1719.32 583.385 Z" fill="#000000" fill-rule="nonzero" fill-opacity="1" /><path clip-path="url(#clip250)" d="M1635.73 376.768 L1643.37 376.768 L1643.37 350.402 L1635.06 352.069 L1635.06 347.81 L1643.32 346.143 L1648 346.143 L1648 376.768 L1655.64 376.768 L1655.64 380.703 L1635.73 380.703 L1635.73 376.768 Z" fill="#000000" fill-rule="nonzero" fill-opacity="1" /><path clip-path="url(#clip250)" d="M1665.08 374.823 L1669.97 374.823 L1669.97 380.703 L1665.08 380.703 L1665.08 374.823 Z" fill="#000000" fill-rule="nonzero" fill-opacity="1" /><path clip-path="url(#clip250)" d="M1678.97 346.143 L1701.19 346.143 L1701.19 348.134 L1688.65 380.703 L1683.76 380.703 L1695.57 350.078 L1678.97 350.078 L1678.97 346.143 Z" fill="#000000" fill-rule="nonzero" fill-opacity="1" /><path clip-path="url(#clip250)" d="M1710.36 346.143 L1728.72 346.143 L1728.72 350.078 L1714.64 350.078 L1714.64 358.55 Q1715.66 358.203 1716.68 358.041 Q1717.7 357.856 1718.72 357.856 Q1724.5 357.856 1727.88 361.027 Q1731.26 364.199 1731.26 369.615 Q1731.26 375.194 1727.79 378.296 Q1724.32 381.374 1718 381.374 Q1715.82 381.374 1713.55 381.004 Q1711.31 380.634 1708.9 379.893 L1708.9 375.194 Q1710.98 376.328 1713.21 376.884 Q1715.43 377.439 1717.91 377.439 Q1721.91 377.439 1724.25 375.333 Q1726.59 373.226 1726.59 369.615 Q1726.59 366.004 1724.25 363.898 Q1721.91 361.791 1717.91 361.791 Q1716.03 361.791 1714.16 362.208 Q1712.3 362.624 1710.36 363.504 L1710.36 346.143 Z" fill="#000000" fill-rule="nonzero" fill-opacity="1" /><path clip-path="url(#clip250)" d="M1637.95 138.901 L1654.27 138.901 L1654.27 142.836 L1632.33 142.836 L1632.33 138.901 Q1634.99 136.146 1639.57 131.517 Q1644.18 126.864 1645.36 125.521 Q1647.61 122.998 1648.49 121.262 Q1649.39 119.503 1649.39 117.813 Q1649.39 115.059 1647.44 113.322 Q1645.52 111.586 1642.42 111.586 Q1640.22 111.586 1637.77 112.35 Q1635.34 113.114 1632.56 114.665 L1632.56 109.943 Q1635.38 108.809 1637.84 108.23 Q1640.29 107.651 1642.33 107.651 Q1647.7 107.651 1650.89 110.336 Q1654.09 113.022 1654.09 117.512 Q1654.09 119.642 1653.28 121.563 Q1652.49 123.461 1650.38 126.054 Q1649.8 126.725 1646.7 129.943 Q1643.6 133.137 1637.95 138.901 Z" fill="#000000" fill-rule="nonzero" fill-opacity="1" /><path clip-path="url(#clip250)" d="M1664.09 136.957 L1668.97 136.957 L1668.97 142.836 L1664.09 142.836 L1664.09 136.957 Z" fill="#000000" fill-rule="nonzero" fill-opacity="1" /><path clip-path="url(#clip250)" d="M1689.16 111.355 Q1685.55 111.355 1683.72 114.92 Q1681.91 118.461 1681.91 125.591 Q1681.91 132.697 1683.72 136.262 Q1685.55 139.804 1689.16 139.804 Q1692.79 139.804 1694.6 136.262 Q1696.42 132.697 1696.42 125.591 Q1696.42 118.461 1694.6 114.92 Q1692.79 111.355 1689.16 111.355 M1689.16 107.651 Q1694.97 107.651 1698.02 112.258 Q1701.1 116.841 1701.1 125.591 Q1701.1 134.318 1698.02 138.924 Q1694.97 143.507 1689.16 143.507 Q1683.35 143.507 1680.27 138.924 Q1677.21 134.318 1677.21 125.591 Q1677.21 116.841 1680.27 112.258 Q1683.35 107.651 1689.16 107.651 Z" fill="#000000" fill-rule="nonzero" fill-opacity="1" /><path clip-path="url(#clip250)" d="M1719.32 111.355 Q1715.71 111.355 1713.88 114.92 Q1712.07 118.461 1712.07 125.591 Q1712.07 132.697 1713.88 136.262 Q1715.71 139.804 1719.32 139.804 Q1722.95 139.804 1724.76 136.262 Q1726.59 132.697 1726.59 125.591 Q1726.59 118.461 1724.76 114.92 Q1722.95 111.355 1719.32 111.355 M1719.32 107.651 Q1725.13 107.651 1728.18 112.258 Q1731.26 116.841 1731.26 125.591 Q1731.26 134.318 1728.18 138.924 Q1725.13 143.507 1719.32 143.507 Q1713.51 143.507 1710.43 138.924 Q1707.37 134.318 1707.37 125.591 Q1707.37 116.841 1710.43 112.258 Q1713.51 107.651 1719.32 107.651 Z" fill="#000000" fill-rule="nonzero" fill-opacity="1" /><path clip-path="url(#clip250)" d="M1927.87 16.7545 L1927.87 25.383 Q1923.74 21.5346 1919.04 19.6307 Q1914.38 17.7268 1909.11 17.7268 Q1898.74 17.7268 1893.23 24.0867 Q1887.72 30.4061 1887.72 42.3968 Q1887.72 54.3469 1893.23 60.7069 Q1898.74 67.0263 1909.11 67.0263 Q1914.38 67.0263 1919.04 65.1223 Q1923.74 63.2184 1927.87 59.3701 L1927.87 67.9175 Q1923.57 70.8341 1918.75 72.2924 Q1913.97 73.7508 1908.63 73.7508 Q1894.89 73.7508 1886.99 65.3654 Q1879.09 56.9395 1879.09 42.3968 Q1879.09 27.8135 1886.99 19.4281 Q1894.89 11.0023 1908.63 11.0023 Q1914.05 11.0023 1918.83 12.4606 Q1923.65 13.8784 1927.87 16.7545 Z" fill="#000000" fill-rule="nonzero" fill-opacity="1" /><path clip-path="url(#clip250)" d="M1957.76 32.4315 Q1951.77 32.4315 1948.28 37.1306 Q1944.8 41.7891 1944.8 49.9314 Q1944.8 58.0738 1948.24 62.7728 Q1951.73 67.4314 1957.76 67.4314 Q1963.72 67.4314 1967.2 62.7323 Q1970.69 58.0333 1970.69 49.9314 Q1970.69 41.8701 1967.2 37.1711 Q1963.72 32.4315 1957.76 32.4315 M1957.76 26.1121 Q1967.49 26.1121 1973.04 32.4315 Q1978.58 38.7509 1978.58 49.9314 Q1978.58 61.0714 1973.04 67.4314 Q1967.49 73.7508 1957.76 73.7508 Q1948 73.7508 1942.45 67.4314 Q1936.94 61.0714 1936.94 49.9314 Q1936.94 38.7509 1942.45 32.4315 Q1948 26.1121 1957.76 26.1121 Z" fill="#000000" fill-rule="nonzero" fill-opacity="1" /><path clip-path="url(#clip250)" d="M2028.65 45.1919 L2028.65 72.576 L2021.2 72.576 L2021.2 45.4349 Q2021.2 38.994 2018.69 35.7938 Q2016.18 32.5936 2011.15 32.5936 Q2005.12 32.5936 2001.63 36.4419 Q1998.15 40.2903 1998.15 46.9338 L1998.15 72.576 L1990.66 72.576 L1990.66 27.2059 L1998.15 27.2059 L1998.15 34.2544 Q2000.82 30.163 2004.43 28.1376 Q2008.08 26.1121 2012.82 26.1121 Q2020.63 26.1121 2024.64 30.9732 Q2028.65 35.7938 2028.65 45.1919 Z" fill="#000000" fill-rule="nonzero" fill-opacity="1" /><path clip-path="url(#clip250)" d="M2072.44 28.5427 L2072.44 35.5912 Q2069.28 33.9709 2065.88 33.1607 Q2062.48 32.3505 2058.83 32.3505 Q2053.28 32.3505 2050.49 34.0519 Q2047.73 35.7533 2047.73 39.156 Q2047.73 41.7486 2049.72 43.2475 Q2051.7 44.7058 2057.7 46.0426 L2060.25 46.6097 Q2068.19 48.3111 2071.51 51.4303 Q2074.87 54.509 2074.87 60.0587 Q2074.87 66.3781 2069.85 70.0644 Q2064.87 73.7508 2056.12 73.7508 Q2052.47 73.7508 2048.5 73.0216 Q2044.57 72.3329 2040.2 70.9151 L2040.2 63.2184 Q2044.33 65.3654 2048.34 66.4591 Q2052.35 67.5124 2056.28 67.5124 Q2061.55 67.5124 2064.38 65.73 Q2067.22 63.9071 2067.22 60.6258 Q2067.22 57.5877 2065.15 55.9673 Q2063.13 54.3469 2056.2 52.8481 L2053.61 52.2405 Q2046.68 50.7821 2043.6 47.7845 Q2040.52 44.7463 2040.52 39.4801 Q2040.52 33.0797 2045.06 29.5959 Q2049.6 26.1121 2057.94 26.1121 Q2062.07 26.1121 2065.72 26.7198 Q2069.37 27.3274 2072.44 28.5427 Z" fill="#000000" fill-rule="nonzero" fill-opacity="1" /><path clip-path="url(#clip250)" d="M2094.12 14.324 L2094.12 27.2059 L2109.47 27.2059 L2109.47 32.9987 L2094.12 32.9987 L2094.12 57.6282 Q2094.12 63.1779 2095.62 64.7578 Q2097.15 66.3376 2101.81 66.3376 L2109.47 66.3376 L2109.47 72.576 L2101.81 72.576 Q2093.18 72.576 2089.9 69.3758 Q2086.62 66.1351 2086.62 57.6282 L2086.62 32.9987 L2081.15 32.9987 L2081.15 27.2059 L2086.62 27.2059 L2086.62 14.324 L2094.12 14.324 Z" fill="#000000" fill-rule="nonzero" fill-opacity="1" /><path clip-path="url(#clip250)" d="M2139.89 49.7694 Q2130.86 49.7694 2127.37 51.8354 Q2123.89 53.9013 2123.89 58.8839 Q2123.89 62.8538 2126.48 65.2034 Q2129.12 67.5124 2133.61 67.5124 Q2139.81 67.5124 2143.54 63.1374 Q2147.31 58.7219 2147.31 51.4303 L2147.31 49.7694 L2139.89 49.7694 M2154.76 46.6907 L2154.76 72.576 L2147.31 72.576 L2147.31 65.6895 Q2144.75 69.8214 2140.95 71.8063 Q2137.14 73.7508 2131.63 73.7508 Q2124.66 73.7508 2120.53 69.8619 Q2116.44 65.9325 2116.44 59.3701 Q2116.44 51.7138 2121.54 47.825 Q2126.69 43.9361 2136.85 43.9361 L2147.31 43.9361 L2147.31 43.2069 Q2147.31 38.0623 2143.9 35.2672 Q2140.54 32.4315 2134.42 32.4315 Q2130.53 32.4315 2126.85 33.3632 Q2123.16 34.295 2119.76 36.1584 L2119.76 29.2718 Q2123.85 27.692 2127.7 26.9223 Q2131.55 26.1121 2135.19 26.1121 Q2145.04 26.1121 2149.9 31.2163 Q2154.76 36.3204 2154.76 46.6907 Z" fill="#000000" fill-rule="nonzero" fill-opacity="1" /><path clip-path="url(#clip250)" d="M2207.83 45.1919 L2207.83 72.576 L2200.37 72.576 L2200.37 45.4349 Q2200.37 38.994 2197.86 35.7938 Q2195.35 32.5936 2190.33 32.5936 Q2184.29 32.5936 2180.81 36.4419 Q2177.32 40.2903 2177.32 46.9338 L2177.32 72.576 L2169.83 72.576 L2169.83 27.2059 L2177.32 27.2059 L2177.32 34.2544 Q2180 30.163 2183.6 28.1376 Q2187.25 26.1121 2191.99 26.1121 Q2199.8 26.1121 2203.82 30.9732 Q2207.83 35.7938 2207.83 45.1919 Z" fill="#000000" fill-rule="nonzero" fill-opacity="1" /><path clip-path="url(#clip250)" d="M2230.07 14.324 L2230.07 27.2059 L2245.42 27.2059 L2245.42 32.9987 L2230.07 32.9987 L2230.07 57.6282 Q2230.07 63.1779 2231.56 64.7578 Q2233.1 66.3376 2237.76 66.3376 L2245.42 66.3376 L2245.42 72.576 L2237.76 72.576 Q2229.13 72.576 2225.85 69.3758 Q2222.57 66.1351 2222.57 57.6282 L2222.57 32.9987 L2217.1 32.9987 L2217.1 27.2059 L2222.57 27.2059 L2222.57 14.324 L2230.07 14.324 Z" fill="#000000" fill-rule="nonzero" fill-opacity="1" /><polyline clip-path="url(#clip254)" style="stroke:#009af9; stroke-linecap:round; stroke-linejoin:round; stroke-width:4; stroke-opacity:1; fill:none" points="1795.28,1077.02 1805.96,1077.02 1816.64,1077.02 1827.32,1077.02 1838,1077.02 1848.68,1077.02 1859.36,1077.02 1870.03,1077.02 1880.71,1077.02 1891.39,1077.02 1902.07,1077.02 1912.75,1077.02 1923.43,1077.02 1934.11,1077.02 1944.79,1077.02 1955.47,1077.02 1966.15,1077.02 1976.82,1077.02 1987.5,1077.02 1998.18,1077.02 2008.86,1077.02 2019.54,1077.02 2030.22,1077.02 2040.9,1077.02 2051.58,1077.02 2062.26,1077.02 2072.94,1077.02 2083.61,1077.02 2094.29,1077.02 2104.97,1077.02 2115.65,1077.02 2126.33,1077.02 2137.01,1077.02 2147.69,1077.02 2158.37,1077.02 2169.05,1077.02 2179.73,1077.02 2190.4,1077.02 2201.08,1077.02 2211.76,1077.02 2222.44,1077.02 2233.12,1077.02 2243.8,1077.02 2254.48,1077.02 2265.16,1077.02 2275.84,1077.02 2286.52,1077.02 2297.19,1077.02 2307.87,1077.02 2318.55,1077.02 2329.23,1077.02 "/>
<path clip-path="url(#clip250)" d="M2217.35 234.311 L2326.38 234.311 L2326.38 130.631 L2217.35 130.631  Z" fill="#ffffff" fill-rule="evenodd" fill-opacity="1"/>
<polyline clip-path="url(#clip250)" style="stroke:#000000; stroke-linecap:round; stroke-linejoin:round; stroke-width:4; stroke-opacity:1; fill:none" points="2217.35,234.311 2326.38,234.311 2326.38,130.631 2217.35,130.631 2217.35,234.311 "/>
<polyline clip-path="url(#clip250)" style="stroke:#009af9; stroke-linecap:round; stroke-linejoin:round; stroke-width:4; stroke-opacity:1; fill:none" points="2223.64,182.471 2261.38,182.471 "/>
<path clip-path="url(#clip250)" d="M2281.51 202.158 Q2279.7 206.788 2277.99 208.2 Q2276.28 209.612 2273.41 209.612 L2270 209.612 L2270 206.047 L2272.5 206.047 Q2274.26 206.047 2275.23 205.214 Q2276.21 204.38 2277.39 201.278 L2278.15 199.334 L2267.66 173.825 L2272.18 173.825 L2280.28 194.103 L2288.38 173.825 L2292.9 173.825 L2281.51 202.158 Z" fill="#000000" fill-rule="nonzero" fill-opacity="1" /><path clip-path="url(#clip250)" d="M2300.19 195.815 L2307.83 195.815 L2307.83 169.45 L2299.52 171.117 L2299.52 166.857 L2307.78 165.191 L2312.46 165.191 L2312.46 195.815 L2320.1 195.815 L2320.1 199.751 L2300.19 199.751 L2300.19 195.815 Z" fill="#000000" fill-rule="nonzero" fill-opacity="1" /><path clip-path="url(#clip250)" d="M2586.77 1105.57 L3152.76 1105.57 L3152.76 97.0121 L2586.77 97.0121  Z" fill="#ffffff" fill-rule="evenodd" fill-opacity="1"/>
<defs>
  <clipPath id="clip255">
    <rect x="2586" y="97" width="567" height="1010"/>
  </clipPath>
</defs>
<polyline clip-path="url(#clip255)" style="stroke:#000000; stroke-linecap:round; stroke-linejoin:round; stroke-width:2; stroke-opacity:0.1; fill:none" points="2656.18,1105.57 2656.18,97.0121 "/>
<polyline clip-path="url(#clip255)" style="stroke:#000000; stroke-linecap:round; stroke-linejoin:round; stroke-width:2; stroke-opacity:0.1; fill:none" points="2762.97,1105.57 2762.97,97.0121 "/>
<polyline clip-path="url(#clip255)" style="stroke:#000000; stroke-linecap:round; stroke-linejoin:round; stroke-width:2; stroke-opacity:0.1; fill:none" points="2869.76,1105.57 2869.76,97.0121 "/>
<polyline clip-path="url(#clip255)" style="stroke:#000000; stroke-linecap:round; stroke-linejoin:round; stroke-width:2; stroke-opacity:0.1; fill:none" points="2976.55,1105.57 2976.55,97.0121 "/>
<polyline clip-path="url(#clip255)" style="stroke:#000000; stroke-linecap:round; stroke-linejoin:round; stroke-width:2; stroke-opacity:0.1; fill:none" points="3083.34,1105.57 3083.34,97.0121 "/>
<polyline clip-path="url(#clip255)" style="stroke:#000000; stroke-linecap:round; stroke-linejoin:round; stroke-width:2; stroke-opacity:0.1; fill:none" points="2586.77,1077.02 3152.76,1077.02 "/>
<polyline clip-path="url(#clip255)" style="stroke:#000000; stroke-linecap:round; stroke-linejoin:round; stroke-width:2; stroke-opacity:0.1; fill:none" points="2586.77,839.157 3152.76,839.157 "/>
<polyline clip-path="url(#clip255)" style="stroke:#000000; stroke-linecap:round; stroke-linejoin:round; stroke-width:2; stroke-opacity:0.1; fill:none" points="2586.77,601.29 3152.76,601.29 "/>
<polyline clip-path="url(#clip255)" style="stroke:#000000; stroke-linecap:round; stroke-linejoin:round; stroke-width:2; stroke-opacity:0.1; fill:none" points="2586.77,363.423 3152.76,363.423 "/>
<polyline clip-path="url(#clip255)" style="stroke:#000000; stroke-linecap:round; stroke-linejoin:round; stroke-width:2; stroke-opacity:0.1; fill:none" points="2586.77,125.556 3152.76,125.556 "/>
<polyline clip-path="url(#clip250)" style="stroke:#000000; stroke-linecap:round; stroke-linejoin:round; stroke-width:4; stroke-opacity:1; fill:none" points="2586.77,1105.57 3152.76,1105.57 "/>
<polyline clip-path="url(#clip250)" style="stroke:#000000; stroke-linecap:round; stroke-linejoin:round; stroke-width:4; stroke-opacity:1; fill:none" points="2656.18,1105.57 2656.18,1086.67 "/>
<polyline clip-path="url(#clip250)" style="stroke:#000000; stroke-linecap:round; stroke-linejoin:round; stroke-width:4; stroke-opacity:1; fill:none" points="2762.97,1105.57 2762.97,1086.67 "/>
<polyline clip-path="url(#clip250)" style="stroke:#000000; stroke-linecap:round; stroke-linejoin:round; stroke-width:4; stroke-opacity:1; fill:none" points="2869.76,1105.57 2869.76,1086.67 "/>
<polyline clip-path="url(#clip250)" style="stroke:#000000; stroke-linecap:round; stroke-linejoin:round; stroke-width:4; stroke-opacity:1; fill:none" points="2976.55,1105.57 2976.55,1086.67 "/>
<polyline clip-path="url(#clip250)" style="stroke:#000000; stroke-linecap:round; stroke-linejoin:round; stroke-width:4; stroke-opacity:1; fill:none" points="3083.34,1105.57 3083.34,1086.67 "/>
<path clip-path="url(#clip250)" d="M2626.12 1157.54 L2655.8 1157.54 L2655.8 1161.47 L2626.12 1161.47 L2626.12 1157.54 Z" fill="#000000" fill-rule="nonzero" fill-opacity="1" /><path clip-path="url(#clip250)" d="M2669.92 1170.43 L2686.24 1170.43 L2686.24 1174.37 L2664.3 1174.37 L2664.3 1170.43 Q2666.96 1167.68 2671.54 1163.05 Q2676.15 1158.4 2677.33 1157.05 Q2679.57 1154.53 2680.45 1152.79 Q2681.36 1151.03 2681.36 1149.34 Q2681.36 1146.59 2679.41 1144.85 Q2677.49 1143.12 2674.39 1143.12 Q2672.19 1143.12 2669.74 1143.88 Q2667.3 1144.65 2664.53 1146.2 L2664.53 1141.47 Q2667.35 1140.34 2669.8 1139.76 Q2672.26 1139.18 2674.3 1139.18 Q2679.67 1139.18 2682.86 1141.87 Q2686.05 1144.55 2686.05 1149.04 Q2686.05 1151.17 2685.24 1153.09 Q2684.46 1154.99 2682.35 1157.59 Q2681.77 1158.26 2678.67 1161.47 Q2675.57 1164.67 2669.92 1170.43 Z" fill="#000000" fill-rule="nonzero" fill-opacity="1" /><path clip-path="url(#clip250)" d="M2732.73 1157.54 L2762.4 1157.54 L2762.4 1161.47 L2732.73 1161.47 L2732.73 1157.54 Z" fill="#000000" fill-rule="nonzero" fill-opacity="1" /><path clip-path="url(#clip250)" d="M2773.31 1170.43 L2780.95 1170.43 L2780.95 1144.07 L2772.64 1145.73 L2772.64 1141.47 L2780.9 1139.81 L2785.58 1139.81 L2785.58 1170.43 L2793.21 1170.43 L2793.21 1174.37 L2773.31 1174.37 L2773.31 1170.43 Z" fill="#000000" fill-rule="nonzero" fill-opacity="1" /><path clip-path="url(#clip250)" d="M2869.76 1142.89 Q2866.15 1142.89 2864.32 1146.45 Q2862.52 1149.99 2862.52 1157.12 Q2862.52 1164.23 2864.32 1167.79 Q2866.15 1171.34 2869.76 1171.34 Q2873.4 1171.34 2875.2 1167.79 Q2877.03 1164.23 2877.03 1157.12 Q2877.03 1149.99 2875.2 1146.45 Q2873.4 1142.89 2869.76 1142.89 M2869.76 1139.18 Q2875.57 1139.18 2878.63 1143.79 Q2881.71 1148.37 2881.71 1157.12 Q2881.71 1165.85 2878.63 1170.46 Q2875.57 1175.04 2869.76 1175.04 Q2863.95 1175.04 2860.87 1170.46 Q2857.82 1165.85 2857.82 1157.12 Q2857.82 1148.37 2860.87 1143.79 Q2863.95 1139.18 2869.76 1139.18 Z" fill="#000000" fill-rule="nonzero" fill-opacity="1" /><path clip-path="url(#clip250)" d="M2966.93 1170.43 L2974.57 1170.43 L2974.57 1144.07 L2966.26 1145.73 L2966.26 1141.47 L2974.53 1139.81 L2979.2 1139.81 L2979.2 1170.43 L2986.84 1170.43 L2986.84 1174.37 L2966.93 1174.37 L2966.93 1170.43 Z" fill="#000000" fill-rule="nonzero" fill-opacity="1" /><path clip-path="url(#clip250)" d="M3078 1170.43 L3094.31 1170.43 L3094.31 1174.37 L3072.37 1174.37 L3072.37 1170.43 Q3075.03 1167.68 3079.62 1163.05 Q3084.22 1158.4 3085.4 1157.05 Q3087.65 1154.53 3088.53 1152.79 Q3089.43 1151.03 3089.43 1149.34 Q3089.43 1146.59 3087.49 1144.85 Q3085.56 1143.12 3082.46 1143.12 Q3080.26 1143.12 3077.81 1143.88 Q3075.38 1144.65 3072.6 1146.2 L3072.6 1141.47 Q3075.43 1140.34 3077.88 1139.76 Q3080.33 1139.18 3082.37 1139.18 Q3087.74 1139.18 3090.93 1141.87 Q3094.13 1144.55 3094.13 1149.04 Q3094.13 1151.17 3093.32 1153.09 Q3092.53 1154.99 3090.43 1157.59 Q3089.85 1158.26 3086.75 1161.47 Q3083.64 1164.67 3078 1170.43 Z" fill="#000000" fill-rule="nonzero" fill-opacity="1" /><polyline clip-path="url(#clip250)" style="stroke:#000000; stroke-linecap:round; stroke-linejoin:round; stroke-width:4; stroke-opacity:1; fill:none" points="2586.77,1105.57 2586.77,97.0121 "/>
<polyline clip-path="url(#clip250)" style="stroke:#000000; stroke-linecap:round; stroke-linejoin:round; stroke-width:4; stroke-opacity:1; fill:none" points="2586.77,1077.02 2605.67,1077.02 "/>
<polyline clip-path="url(#clip250)" style="stroke:#000000; stroke-linecap:round; stroke-linejoin:round; stroke-width:4; stroke-opacity:1; fill:none" points="2586.77,839.157 2605.67,839.157 "/>
<polyline clip-path="url(#clip250)" style="stroke:#000000; stroke-linecap:round; stroke-linejoin:round; stroke-width:4; stroke-opacity:1; fill:none" points="2586.77,601.29 2605.67,601.29 "/>
<polyline clip-path="url(#clip250)" style="stroke:#000000; stroke-linecap:round; stroke-linejoin:round; stroke-width:4; stroke-opacity:1; fill:none" points="2586.77,363.423 2605.67,363.423 "/>
<polyline clip-path="url(#clip250)" style="stroke:#000000; stroke-linecap:round; stroke-linejoin:round; stroke-width:4; stroke-opacity:1; fill:none" points="2586.77,125.556 2605.67,125.556 "/>
<path clip-path="url(#clip250)" d="M2451.43 1062.82 Q2447.82 1062.82 2445.99 1066.39 Q2444.19 1069.93 2444.19 1077.06 Q2444.19 1084.17 2445.99 1087.73 Q2447.82 1091.27 2451.43 1091.27 Q2455.06 1091.27 2456.87 1087.73 Q2458.7 1084.17 2458.7 1077.06 Q2458.7 1069.93 2456.87 1066.39 Q2455.06 1062.82 2451.43 1062.82 M2451.43 1059.12 Q2457.24 1059.12 2460.3 1063.73 Q2463.38 1068.31 2463.38 1077.06 Q2463.38 1085.79 2460.3 1090.39 Q2457.24 1094.98 2451.43 1094.98 Q2445.62 1094.98 2442.54 1090.39 Q2439.49 1085.79 2439.49 1077.06 Q2439.49 1068.31 2442.54 1063.73 Q2445.62 1059.12 2451.43 1059.12 Z" fill="#000000" fill-rule="nonzero" fill-opacity="1" /><path clip-path="url(#clip250)" d="M2471.59 1088.42 L2476.48 1088.42 L2476.48 1094.3 L2471.59 1094.3 L2471.59 1088.42 Z" fill="#000000" fill-rule="nonzero" fill-opacity="1" /><path clip-path="url(#clip250)" d="M2496.66 1062.82 Q2493.05 1062.82 2491.22 1066.39 Q2489.42 1069.93 2489.42 1077.06 Q2489.42 1084.17 2491.22 1087.73 Q2493.05 1091.27 2496.66 1091.27 Q2500.3 1091.27 2502.1 1087.73 Q2503.93 1084.17 2503.93 1077.06 Q2503.93 1069.93 2502.1 1066.39 Q2500.3 1062.82 2496.66 1062.82 M2496.66 1059.12 Q2502.47 1059.12 2505.53 1063.73 Q2508.61 1068.31 2508.61 1077.06 Q2508.61 1085.79 2505.53 1090.39 Q2502.47 1094.98 2496.66 1094.98 Q2490.85 1094.98 2487.77 1090.39 Q2484.72 1085.79 2484.72 1077.06 Q2484.72 1068.31 2487.77 1063.73 Q2490.85 1059.12 2496.66 1059.12 Z" fill="#000000" fill-rule="nonzero" fill-opacity="1" /><path clip-path="url(#clip250)" d="M2526.82 1062.82 Q2523.21 1062.82 2521.38 1066.39 Q2519.58 1069.93 2519.58 1077.06 Q2519.58 1084.17 2521.38 1087.73 Q2523.21 1091.27 2526.82 1091.27 Q2530.46 1091.27 2532.26 1087.73 Q2534.09 1084.17 2534.09 1077.06 Q2534.09 1069.93 2532.26 1066.39 Q2530.46 1062.82 2526.82 1062.82 M2526.82 1059.12 Q2532.63 1059.12 2535.69 1063.73 Q2538.77 1068.31 2538.77 1077.06 Q2538.77 1085.79 2535.69 1090.39 Q2532.63 1094.98 2526.82 1094.98 Q2521.01 1094.98 2517.94 1090.39 Q2514.88 1085.79 2514.88 1077.06 Q2514.88 1068.31 2517.94 1063.73 Q2521.01 1059.12 2526.82 1059.12 Z" fill="#000000" fill-rule="nonzero" fill-opacity="1" /><path clip-path="url(#clip250)" d="M2452.43 824.956 Q2448.82 824.956 2446.99 828.52 Q2445.18 832.062 2445.18 839.192 Q2445.18 846.298 2446.99 849.863 Q2448.82 853.405 2452.43 853.405 Q2456.06 853.405 2457.87 849.863 Q2459.69 846.298 2459.69 839.192 Q2459.69 832.062 2457.87 828.52 Q2456.06 824.956 2452.43 824.956 M2452.43 821.252 Q2458.24 821.252 2461.29 825.858 Q2464.37 830.442 2464.37 839.192 Q2464.37 847.918 2461.29 852.525 Q2458.24 857.108 2452.43 857.108 Q2446.62 857.108 2443.54 852.525 Q2440.48 847.918 2440.48 839.192 Q2440.48 830.442 2443.54 825.858 Q2446.62 821.252 2452.43 821.252 Z" fill="#000000" fill-rule="nonzero" fill-opacity="1" /><path clip-path="url(#clip250)" d="M2472.59 850.557 L2477.47 850.557 L2477.47 856.437 L2472.59 856.437 L2472.59 850.557 Z" fill="#000000" fill-rule="nonzero" fill-opacity="1" /><path clip-path="url(#clip250)" d="M2491.69 852.502 L2508 852.502 L2508 856.437 L2486.06 856.437 L2486.06 852.502 Q2488.72 849.747 2493.31 845.118 Q2497.91 840.465 2499.09 839.122 Q2501.34 836.599 2502.22 834.863 Q2503.12 833.104 2503.12 831.414 Q2503.12 828.659 2501.18 826.923 Q2499.25 825.187 2496.15 825.187 Q2493.95 825.187 2491.5 825.951 Q2489.07 826.715 2486.29 828.266 L2486.29 823.544 Q2489.12 822.409 2491.57 821.831 Q2494.02 821.252 2496.06 821.252 Q2501.43 821.252 2504.62 823.937 Q2507.82 826.622 2507.82 831.113 Q2507.82 833.243 2507.01 835.164 Q2506.22 837.062 2504.12 839.655 Q2503.54 840.326 2500.44 843.543 Q2497.33 846.738 2491.69 852.502 Z" fill="#000000" fill-rule="nonzero" fill-opacity="1" /><path clip-path="url(#clip250)" d="M2517.87 821.877 L2536.22 821.877 L2536.22 825.812 L2522.15 825.812 L2522.15 834.284 Q2523.17 833.937 2524.18 833.775 Q2525.2 833.59 2526.22 833.59 Q2532.01 833.59 2535.39 836.761 Q2538.77 839.932 2538.77 845.349 Q2538.77 850.928 2535.3 854.03 Q2531.82 857.108 2525.5 857.108 Q2523.33 857.108 2521.06 856.738 Q2518.81 856.367 2516.41 855.627 L2516.41 850.928 Q2518.49 852.062 2520.71 852.617 Q2522.94 853.173 2525.41 853.173 Q2529.42 853.173 2531.75 851.067 Q2534.09 848.96 2534.09 845.349 Q2534.09 841.738 2531.75 839.631 Q2529.42 837.525 2525.41 837.525 Q2523.54 837.525 2521.66 837.942 Q2519.81 838.358 2517.87 839.238 L2517.87 821.877 Z" fill="#000000" fill-rule="nonzero" fill-opacity="1" /><path clip-path="url(#clip250)" d="M2451.43 587.089 Q2447.82 587.089 2445.99 590.653 Q2444.19 594.195 2444.19 601.325 Q2444.19 608.431 2445.99 611.996 Q2447.82 615.538 2451.43 615.538 Q2455.06 615.538 2456.87 611.996 Q2458.7 608.431 2458.7 601.325 Q2458.7 594.195 2456.87 590.653 Q2455.06 587.089 2451.43 587.089 M2451.43 583.385 Q2457.24 583.385 2460.3 587.991 Q2463.38 592.575 2463.38 601.325 Q2463.38 610.052 2460.3 614.658 Q2457.24 619.241 2451.43 619.241 Q2445.62 619.241 2442.54 614.658 Q2439.49 610.052 2439.49 601.325 Q2439.49 592.575 2442.54 587.991 Q2445.62 583.385 2451.43 583.385 Z" fill="#000000" fill-rule="nonzero" fill-opacity="1" /><path clip-path="url(#clip250)" d="M2471.59 612.69 L2476.48 612.69 L2476.48 618.57 L2471.59 618.57 L2471.59 612.69 Z" fill="#000000" fill-rule="nonzero" fill-opacity="1" /><path clip-path="url(#clip250)" d="M2486.71 584.01 L2505.06 584.01 L2505.06 587.945 L2490.99 587.945 L2490.99 596.417 Q2492.01 596.07 2493.03 595.908 Q2494.05 595.723 2495.06 595.723 Q2500.85 595.723 2504.23 598.894 Q2507.61 602.065 2507.61 607.482 Q2507.61 613.061 2504.14 616.163 Q2500.67 619.241 2494.35 619.241 Q2492.17 619.241 2489.9 618.871 Q2487.66 618.501 2485.25 617.76 L2485.25 613.061 Q2487.33 614.195 2489.56 614.751 Q2491.78 615.306 2494.25 615.306 Q2498.26 615.306 2500.6 613.2 Q2502.94 611.093 2502.94 607.482 Q2502.94 603.871 2500.6 601.765 Q2498.26 599.658 2494.25 599.658 Q2492.38 599.658 2490.5 600.075 Q2488.65 600.491 2486.71 601.371 L2486.71 584.01 Z" fill="#000000" fill-rule="nonzero" fill-opacity="1" /><path clip-path="url(#clip250)" d="M2526.82 587.089 Q2523.21 587.089 2521.38 590.653 Q2519.58 594.195 2519.58 601.325 Q2519.58 608.431 2521.38 611.996 Q2523.21 615.538 2526.82 615.538 Q2530.46 615.538 2532.26 611.996 Q2534.09 608.431 2534.09 601.325 Q2534.09 594.195 2532.26 590.653 Q2530.46 587.089 2526.82 587.089 M2526.82 583.385 Q2532.63 583.385 2535.69 587.991 Q2538.77 592.575 2538.77 601.325 Q2538.77 610.052 2535.69 614.658 Q2532.63 619.241 2526.82 619.241 Q2521.01 619.241 2517.94 614.658 Q2514.88 610.052 2514.88 601.325 Q2514.88 592.575 2517.94 587.991 Q2521.01 583.385 2526.82 583.385 Z" fill="#000000" fill-rule="nonzero" fill-opacity="1" /><path clip-path="url(#clip250)" d="M2452.43 349.222 Q2448.82 349.222 2446.99 352.787 Q2445.18 356.328 2445.18 363.458 Q2445.18 370.564 2446.99 374.129 Q2448.82 377.671 2452.43 377.671 Q2456.06 377.671 2457.87 374.129 Q2459.69 370.564 2459.69 363.458 Q2459.69 356.328 2457.87 352.787 Q2456.06 349.222 2452.43 349.222 M2452.43 345.518 Q2458.24 345.518 2461.29 350.125 Q2464.37 354.708 2464.37 363.458 Q2464.37 372.185 2461.29 376.791 Q2458.24 381.374 2452.43 381.374 Q2446.62 381.374 2443.54 376.791 Q2440.48 372.185 2440.48 363.458 Q2440.48 354.708 2443.54 350.125 Q2446.62 345.518 2452.43 345.518 Z" fill="#000000" fill-rule="nonzero" fill-opacity="1" /><path clip-path="url(#clip250)" d="M2472.59 374.823 L2477.47 374.823 L2477.47 380.703 L2472.59 380.703 L2472.59 374.823 Z" fill="#000000" fill-rule="nonzero" fill-opacity="1" /><path clip-path="url(#clip250)" d="M2486.48 346.143 L2508.7 346.143 L2508.7 348.134 L2496.15 380.703 L2491.27 380.703 L2503.07 350.078 L2486.48 350.078 L2486.48 346.143 Z" fill="#000000" fill-rule="nonzero" fill-opacity="1" /><path clip-path="url(#clip250)" d="M2517.87 346.143 L2536.22 346.143 L2536.22 350.078 L2522.15 350.078 L2522.15 358.55 Q2523.17 358.203 2524.18 358.041 Q2525.2 357.856 2526.22 357.856 Q2532.01 357.856 2535.39 361.027 Q2538.77 364.199 2538.77 369.615 Q2538.77 375.194 2535.3 378.296 Q2531.82 381.374 2525.5 381.374 Q2523.33 381.374 2521.06 381.004 Q2518.81 380.634 2516.41 379.893 L2516.41 375.194 Q2518.49 376.328 2520.71 376.884 Q2522.94 377.439 2525.41 377.439 Q2529.42 377.439 2531.75 375.333 Q2534.09 373.226 2534.09 369.615 Q2534.09 366.004 2531.75 363.898 Q2529.42 361.791 2525.41 361.791 Q2523.54 361.791 2521.66 362.208 Q2519.81 362.624 2517.87 363.504 L2517.87 346.143 Z" fill="#000000" fill-rule="nonzero" fill-opacity="1" /><path clip-path="url(#clip250)" d="M2442.24 138.901 L2449.88 138.901 L2449.88 112.535 L2441.57 114.202 L2441.57 109.943 L2449.83 108.276 L2454.51 108.276 L2454.51 138.901 L2462.15 138.901 L2462.15 142.836 L2442.24 142.836 L2442.24 138.901 Z" fill="#000000" fill-rule="nonzero" fill-opacity="1" /><path clip-path="url(#clip250)" d="M2471.59 136.957 L2476.48 136.957 L2476.48 142.836 L2471.59 142.836 L2471.59 136.957 Z" fill="#000000" fill-rule="nonzero" fill-opacity="1" /><path clip-path="url(#clip250)" d="M2496.66 111.355 Q2493.05 111.355 2491.22 114.92 Q2489.42 118.461 2489.42 125.591 Q2489.42 132.697 2491.22 136.262 Q2493.05 139.804 2496.66 139.804 Q2500.3 139.804 2502.1 136.262 Q2503.93 132.697 2503.93 125.591 Q2503.93 118.461 2502.1 114.92 Q2500.3 111.355 2496.66 111.355 M2496.66 107.651 Q2502.47 107.651 2505.53 112.258 Q2508.61 116.841 2508.61 125.591 Q2508.61 134.318 2505.53 138.924 Q2502.47 143.507 2496.66 143.507 Q2490.85 143.507 2487.77 138.924 Q2484.72 134.318 2484.72 125.591 Q2484.72 116.841 2487.77 112.258 Q2490.85 107.651 2496.66 107.651 Z" fill="#000000" fill-rule="nonzero" fill-opacity="1" /><path clip-path="url(#clip250)" d="M2526.82 111.355 Q2523.21 111.355 2521.38 114.92 Q2519.58 118.461 2519.58 125.591 Q2519.58 132.697 2521.38 136.262 Q2523.21 139.804 2526.82 139.804 Q2530.46 139.804 2532.26 136.262 Q2534.09 132.697 2534.09 125.591 Q2534.09 118.461 2532.26 114.92 Q2530.46 111.355 2526.82 111.355 M2526.82 107.651 Q2532.63 107.651 2535.69 112.258 Q2538.77 116.841 2538.77 125.591 Q2538.77 134.318 2535.69 138.924 Q2532.63 143.507 2526.82 143.507 Q2521.01 143.507 2517.94 138.924 Q2514.88 134.318 2514.88 125.591 Q2514.88 116.841 2517.94 112.258 Q2521.01 107.651 2526.82 107.651 Z" fill="#000000" fill-rule="nonzero" fill-opacity="1" /><path clip-path="url(#clip250)" d="M2612.21 12.096 L2650.45 12.096 L2650.45 18.9825 L2620.39 18.9825 L2620.39 36.8875 L2649.19 36.8875 L2649.19 43.7741 L2620.39 43.7741 L2620.39 65.6895 L2651.18 65.6895 L2651.18 72.576 L2612.21 72.576 L2612.21 12.096 Z" fill="#000000" fill-rule="nonzero" fill-opacity="1" /><path clip-path="url(#clip250)" d="M2671.51 65.7705 L2671.51 89.8329 L2664.02 89.8329 L2664.02 27.2059 L2671.51 27.2059 L2671.51 34.0924 Q2673.86 30.0415 2677.43 28.0971 Q2681.03 26.1121 2686.01 26.1121 Q2694.28 26.1121 2699.42 32.6746 Q2704.61 39.2371 2704.61 49.9314 Q2704.61 60.6258 2699.42 67.1883 Q2694.28 73.7508 2686.01 73.7508 Q2681.03 73.7508 2677.43 71.8063 Q2673.86 69.8214 2671.51 65.7705 M2696.87 49.9314 Q2696.87 41.7081 2693.47 37.0496 Q2690.1 32.3505 2684.19 32.3505 Q2678.28 32.3505 2674.87 37.0496 Q2671.51 41.7081 2671.51 49.9314 Q2671.51 58.1548 2674.87 62.8538 Q2678.28 67.5124 2684.19 67.5124 Q2690.1 67.5124 2693.47 62.8538 Q2696.87 58.1548 2696.87 49.9314 Z" fill="#000000" fill-rule="nonzero" fill-opacity="1" /><path clip-path="url(#clip250)" d="M2737.58 49.7694 Q2728.55 49.7694 2725.06 51.8354 Q2721.58 53.9013 2721.58 58.8839 Q2721.58 62.8538 2724.17 65.2034 Q2726.81 67.5124 2731.3 67.5124 Q2737.5 67.5124 2741.23 63.1374 Q2744.99 58.7219 2744.99 51.4303 L2744.99 49.7694 L2737.58 49.7694 M2752.45 46.6907 L2752.45 72.576 L2744.99 72.576 L2744.99 65.6895 Q2742.44 69.8214 2738.63 71.8063 Q2734.83 73.7508 2729.32 73.7508 Q2722.35 73.7508 2718.22 69.8619 Q2714.13 65.9325 2714.13 59.3701 Q2714.13 51.7138 2719.23 47.825 Q2724.38 43.9361 2734.54 43.9361 L2744.99 43.9361 L2744.99 43.2069 Q2744.99 38.0623 2741.59 35.2672 Q2738.23 32.4315 2732.11 32.4315 Q2728.22 32.4315 2724.54 33.3632 Q2720.85 34.295 2717.45 36.1584 L2717.45 29.2718 Q2721.54 27.692 2725.39 26.9223 Q2729.24 26.1121 2732.88 26.1121 Q2742.73 26.1121 2747.59 31.2163 Q2752.45 36.3204 2752.45 46.6907 Z" fill="#000000" fill-rule="nonzero" fill-opacity="1" /><path clip-path="url(#clip250)" d="M2805.51 45.1919 L2805.51 72.576 L2798.06 72.576 L2798.06 45.4349 Q2798.06 38.994 2795.55 35.7938 Q2793.04 32.5936 2788.01 32.5936 Q2781.98 32.5936 2778.5 36.4419 Q2775.01 40.2903 2775.01 46.9338 L2775.01 72.576 L2767.52 72.576 L2767.52 27.2059 L2775.01 27.2059 L2775.01 34.2544 Q2777.69 30.163 2781.29 28.1376 Q2784.94 26.1121 2789.68 26.1121 Q2797.49 26.1121 2801.5 30.9732 Q2805.51 35.7938 2805.51 45.1919 Z" fill="#000000" fill-rule="nonzero" fill-opacity="1" /><path clip-path="url(#clip250)" d="M2859.19 48.0275 L2859.19 51.6733 L2824.92 51.6733 Q2825.4 59.3701 2829.54 63.421 Q2833.71 67.4314 2841.12 67.4314 Q2845.42 67.4314 2849.43 66.3781 Q2853.48 65.3249 2857.45 63.2184 L2857.45 70.267 Q2853.44 71.9684 2849.22 72.8596 Q2845.01 73.7508 2840.68 73.7508 Q2829.82 73.7508 2823.46 67.4314 Q2817.14 61.1119 2817.14 50.3365 Q2817.14 39.1965 2823.14 32.6746 Q2829.17 26.1121 2839.38 26.1121 Q2848.54 26.1121 2853.84 32.0264 Q2859.19 37.9003 2859.19 48.0275 M2851.74 45.84 Q2851.65 39.7232 2848.29 36.0774 Q2844.97 32.4315 2839.46 32.4315 Q2833.22 32.4315 2829.46 35.9558 Q2825.73 39.4801 2825.16 45.8805 L2851.74 45.84 Z" fill="#000000" fill-rule="nonzero" fill-opacity="1" /><path clip-path="url(#clip250)" d="M2904.07 28.9478 L2904.07 35.9153 Q2900.91 34.1734 2897.71 33.3227 Q2894.55 32.4315 2891.31 32.4315 Q2884.06 32.4315 2880.05 37.0496 Q2876.04 41.6271 2876.04 49.9314 Q2876.04 58.2358 2880.05 62.8538 Q2884.06 67.4314 2891.31 67.4314 Q2894.55 67.4314 2897.71 66.5807 Q2900.91 65.6895 2904.07 63.9476 L2904.07 70.8341 Q2900.95 72.2924 2897.59 73.0216 Q2894.27 73.7508 2890.5 73.7508 Q2880.25 73.7508 2874.22 67.3098 Q2868.18 60.8689 2868.18 49.9314 Q2868.18 38.832 2874.26 32.472 Q2880.38 26.1121 2890.99 26.1121 Q2894.43 26.1121 2897.71 26.8413 Q2900.99 27.5299 2904.07 28.9478 Z" fill="#000000" fill-rule="nonzero" fill-opacity="1" /><path clip-path="url(#clip250)" d="M2954.75 45.1919 L2954.75 72.576 L2947.3 72.576 L2947.3 45.4349 Q2947.3 38.994 2944.78 35.7938 Q2942.27 32.5936 2937.25 32.5936 Q2931.21 32.5936 2927.73 36.4419 Q2924.25 40.2903 2924.25 46.9338 L2924.25 72.576 L2916.75 72.576 L2916.75 9.54393 L2924.25 9.54393 L2924.25 34.2544 Q2926.92 30.163 2930.53 28.1376 Q2934.17 26.1121 2938.91 26.1121 Q2946.73 26.1121 2950.74 30.9732 Q2954.75 35.7938 2954.75 45.1919 Z" fill="#000000" fill-rule="nonzero" fill-opacity="1" /><path clip-path="url(#clip250)" d="M2969.62 27.2059 L2977.07 27.2059 L2977.07 72.576 L2969.62 72.576 L2969.62 27.2059 M2969.62 9.54393 L2977.07 9.54393 L2977.07 18.9825 L2969.62 18.9825 L2969.62 9.54393 Z" fill="#000000" fill-rule="nonzero" fill-opacity="1" /><path clip-path="url(#clip250)" d="M2992.38 9.54393 L2999.88 9.54393 L2999.88 46.7717 L3022.12 27.2059 L3031.64 27.2059 L3007.57 48.4326 L3032.65 72.576 L3022.93 72.576 L2999.88 50.4176 L2999.88 72.576 L2992.38 72.576 L2992.38 9.54393 Z" fill="#000000" fill-rule="nonzero" fill-opacity="1" /><path clip-path="url(#clip250)" d="M3055.33 32.4315 Q3049.34 32.4315 3045.85 37.1306 Q3042.37 41.7891 3042.37 49.9314 Q3042.37 58.0738 3045.81 62.7728 Q3049.3 67.4314 3055.33 67.4314 Q3061.29 67.4314 3064.77 62.7323 Q3068.26 58.0333 3068.26 49.9314 Q3068.26 41.8701 3064.77 37.1711 Q3061.29 32.4315 3055.33 32.4315 M3055.33 26.1121 Q3065.06 26.1121 3070.61 32.4315 Q3076.16 38.7509 3076.16 49.9314 Q3076.16 61.0714 3070.61 67.4314 Q3065.06 73.7508 3055.33 73.7508 Q3045.57 73.7508 3040.02 67.4314 Q3034.51 61.0714 3034.51 49.9314 Q3034.51 38.7509 3040.02 32.4315 Q3045.57 26.1121 3055.33 26.1121 Z" fill="#000000" fill-rule="nonzero" fill-opacity="1" /><path clip-path="url(#clip250)" d="M3083.16 27.2059 L3091.06 27.2059 L3105.24 65.2844 L3119.42 27.2059 L3127.32 27.2059 L3110.3 72.576 L3100.18 72.576 L3083.16 27.2059 Z" fill="#000000" fill-rule="nonzero" fill-opacity="1" /><polyline clip-path="url(#clip255)" style="stroke:#009af9; stroke-linecap:round; stroke-linejoin:round; stroke-width:4; stroke-opacity:1; fill:none" points="2602.79,1077.02 2613.47,1077.02 2624.14,1077.02 2634.82,1077.02 2645.5,1077.02 2656.18,1077.02 2666.86,1077.02 2677.54,1077.02 2688.22,1077.02 2698.9,1077.02 2709.58,1077.02 2720.26,1077.02 2730.93,1077.02 2741.61,1077.02 2752.29,1077.02 2762.97,1077.02 2773.65,981.877 2784.33,886.73 2795.01,791.584 2805.69,696.437 2816.37,601.29 2827.05,506.143 2837.73,410.996 2848.4,315.85 2859.08,220.703 2869.76,125.556 2880.44,220.703 2891.12,315.85 2901.8,410.996 2912.48,506.143 2923.16,601.29 2933.84,696.437 2944.52,791.584 2955.19,886.73 2965.87,981.877 2976.55,1077.02 2987.23,1077.02 2997.91,1077.02 3008.59,1077.02 3019.27,1077.02 3029.95,1077.02 3040.63,1077.02 3051.31,1077.02 3061.98,1077.02 3072.66,1077.02 3083.34,1077.02 3094.02,1077.02 3104.7,1077.02 3115.38,1077.02 3126.06,1077.02 3136.74,1077.02 "/>
<path clip-path="url(#clip250)" d="M3024.86 234.311 L3133.89 234.311 L3133.89 130.631 L3024.86 130.631  Z" fill="#ffffff" fill-rule="evenodd" fill-opacity="1"/>
<polyline clip-path="url(#clip250)" style="stroke:#000000; stroke-linecap:round; stroke-linejoin:round; stroke-width:4; stroke-opacity:1; fill:none" points="3024.86,234.311 3133.89,234.311 3133.89,130.631 3024.86,130.631 3024.86,234.311 "/>
<polyline clip-path="url(#clip250)" style="stroke:#009af9; stroke-linecap:round; stroke-linejoin:round; stroke-width:4; stroke-opacity:1; fill:none" points="3031.15,182.471 3068.88,182.471 "/>
<path clip-path="url(#clip250)" d="M3089.01 202.158 Q3087.21 206.788 3085.49 208.2 Q3083.78 209.612 3080.91 209.612 L3077.51 209.612 L3077.51 206.047 L3080.01 206.047 Q3081.77 206.047 3082.74 205.214 Q3083.71 204.38 3084.89 201.278 L3085.66 199.334 L3075.17 173.825 L3079.68 173.825 L3087.79 194.103 L3095.89 173.825 L3100.4 173.825 L3089.01 202.158 Z" fill="#000000" fill-rule="nonzero" fill-opacity="1" /><path clip-path="url(#clip250)" d="M3107.69 195.815 L3115.33 195.815 L3115.33 169.45 L3107.02 171.117 L3107.02 166.857 L3115.29 165.191 L3119.96 165.191 L3119.96 195.815 L3127.6 195.815 L3127.6 199.751 L3107.69 199.751 L3107.69 195.815 Z" fill="#000000" fill-rule="nonzero" fill-opacity="1" /></svg>
