<?xml version="1.0" encoding="utf-8"?>
<svg xmlns="http://www.w3.org/2000/svg" xmlns:xlink="http://www.w3.org/1999/xlink" width="600" height="400" viewBox="0 0 2400 1600">
<defs>
  <clipPath id="clip370">
    <rect x="0" y="0" width="2400" height="1600"/>
  </clipPath>
</defs>
<path clip-path="url(#clip370)" d="M0 1600 L2400 1600 L2400 0 L0 0  Z" fill="#ffffff" fill-rule="evenodd" fill-opacity="1"/>
<defs>
  <clipPath id="clip371">
    <rect x="480" y="0" width="1681" height="1600"/>
  </clipPath>
</defs>
<path clip-path="url(#clip370)" d="M156.598 1423.18 L2352.76 1423.18 L2352.76 47.2441 L156.598 47.2441  Z" fill="#ffffff" fill-rule="evenodd" fill-opacity="1"/>
<defs>
  <clipPath id="clip372">
    <rect x="156" y="47" width="2197" height="1377"/>
  </clipPath>
</defs>
<polyline clip-path="url(#clip372)" style="stroke:#000000; stroke-linecap:round; stroke-linejoin:round; stroke-width:2; stroke-opacity:0.1; fill:none" points="448.959,1423.18 448.959,47.2441 "/>
<polyline clip-path="url(#clip372)" style="stroke:#000000; stroke-linecap:round; stroke-linejoin:round; stroke-width:2; stroke-opacity:0.1; fill:none" points="909.369,1423.18 909.369,47.2441 "/>
<polyline clip-path="url(#clip372)" style="stroke:#000000; stroke-linecap:round; stroke-linejoin:round; stroke-width:2; stroke-opacity:0.1; fill:none" points="1369.78,1423.18 1369.78,47.2441 "/>
<polyline clip-path="url(#clip372)" style="stroke:#000000; stroke-linecap:round; stroke-linejoin:round; stroke-width:2; stroke-opacity:0.1; fill:none" points="1830.19,1423.18 1830.19,47.2441 "/>
<polyline clip-path="url(#clip372)" style="stroke:#000000; stroke-linecap:round; stroke-linejoin:round; stroke-width:2; stroke-opacity:0.1; fill:none" points="2290.6,1423.18 2290.6,47.2441 "/>
<polyline clip-path="url(#clip372)" style="stroke:#000000; stroke-linecap:round; stroke-linejoin:round; stroke-width:2; stroke-opacity:0.1; fill:none" points="156.598,1405.05 2352.76,1405.05 "/>
<polyline clip-path="url(#clip372)" style="stroke:#000000; stroke-linecap:round; stroke-linejoin:round; stroke-width:2; stroke-opacity:0.1; fill:none" points="156.598,1200.1 2352.76,1200.1 "/>
<polyline clip-path="url(#clip372)" style="stroke:#000000; stroke-linecap:round; stroke-linejoin:round; stroke-width:2; stroke-opacity:0.1; fill:none" points="156.598,995.151 2352.76,995.151 "/>
<polyline clip-path="url(#clip372)" style="stroke:#000000; stroke-linecap:round; stroke-linejoin:round; stroke-width:2; stroke-opacity:0.1; fill:none" points="156.598,790.201 2352.76,790.201 "/>
<polyline clip-path="url(#clip372)" style="stroke:#000000; stroke-linecap:round; stroke-linejoin:round; stroke-width:2; stroke-opacity:0.1; fill:none" points="156.598,585.25 2352.76,585.25 "/>
<polyline clip-path="url(#clip372)" style="stroke:#000000; stroke-linecap:round; stroke-linejoin:round; stroke-width:2; stroke-opacity:0.1; fill:none" points="156.598,380.3 2352.76,380.3 "/>
<polyline clip-path="url(#clip372)" style="stroke:#000000; stroke-linecap:round; stroke-linejoin:round; stroke-width:2; stroke-opacity:0.1; fill:none" points="156.598,175.349 2352.76,175.349 "/>
<polyline clip-path="url(#clip370)" style="stroke:#000000; stroke-linecap:round; stroke-linejoin:round; stroke-width:4; stroke-opacity:1; fill:none" points="156.598,1423.18 2352.76,1423.18 "/>
<polyline clip-path="url(#clip370)" style="stroke:#000000; stroke-linecap:round; stroke-linejoin:round; stroke-width:4; stroke-opacity:1; fill:none" points="448.959,1423.18 448.959,1404.28 "/>
<polyline clip-path="url(#clip370)" style="stroke:#000000; stroke-linecap:round; stroke-linejoin:round; stroke-width:4; stroke-opacity:1; fill:none" points="909.369,1423.18 909.369,1404.28 "/>
<polyline clip-path="url(#clip370)" style="stroke:#000000; stroke-linecap:round; stroke-linejoin:round; stroke-width:4; stroke-opacity:1; fill:none" points="1369.78,1423.18 1369.78,1404.28 "/>
<polyline clip-path="url(#clip370)" style="stroke:#000000; stroke-linecap:round; stroke-linejoin:round; stroke-width:4; stroke-opacity:1; fill:none" points="1830.19,1423.18 1830.19,1404.28 "/>
<polyline clip-path="url(#clip370)" style="stroke:#000000; stroke-linecap:round; stroke-linejoin:round; stroke-width:4; stroke-opacity:1; fill:none" points="2290.6,1423.18 2290.6,1404.28 "/>
<path clip-path="url(#clip370)" d="M443.612 1481.64 L459.931 1481.64 L459.931 1485.58 L437.987 1485.58 L437.987 1481.64 Q440.649 1478.89 445.232 1474.26 Q449.838 1469.61 451.019 1468.27 Q453.264 1465.74 454.144 1464.01 Q455.047 1462.25 455.047 1460.56 Q455.047 1457.8 453.102 1456.07 Q451.181 1454.33 448.079 1454.33 Q445.88 1454.33 443.426 1455.09 Q440.996 1455.86 438.218 1457.41 L438.218 1452.69 Q441.042 1451.55 443.496 1450.97 Q445.95 1450.39 447.987 1450.39 Q453.357 1450.39 456.551 1453.08 Q459.746 1455.77 459.746 1460.26 Q459.746 1462.39 458.936 1464.31 Q458.149 1466.2 456.042 1468.8 Q455.463 1469.47 452.362 1472.69 Q449.26 1475.88 443.612 1481.64 Z" fill="#000000" fill-rule="nonzero" fill-opacity="1" /><path clip-path="url(#clip370)" d="M912.379 1455.09 L900.573 1473.54 L912.379 1473.54 L912.379 1455.09 M911.152 1451.02 L917.031 1451.02 L917.031 1473.54 L921.962 1473.54 L921.962 1477.43 L917.031 1477.43 L917.031 1485.58 L912.379 1485.58 L912.379 1477.43 L896.777 1477.43 L896.777 1472.92 L911.152 1451.02 Z" fill="#000000" fill-rule="nonzero" fill-opacity="1" /><path clip-path="url(#clip370)" d="M1370.18 1466.44 Q1367.04 1466.44 1365.18 1468.59 Q1363.36 1470.74 1363.36 1474.49 Q1363.36 1478.22 1365.18 1480.39 Q1367.04 1482.55 1370.18 1482.55 Q1373.33 1482.55 1375.16 1480.39 Q1377.01 1478.22 1377.01 1474.49 Q1377.01 1470.74 1375.16 1468.59 Q1373.33 1466.44 1370.18 1466.44 M1379.47 1451.78 L1379.47 1456.04 Q1377.71 1455.21 1375.9 1454.77 Q1374.12 1454.33 1372.36 1454.33 Q1367.73 1454.33 1365.28 1457.45 Q1362.85 1460.58 1362.5 1466.9 Q1363.87 1464.89 1365.93 1463.82 Q1367.99 1462.73 1370.46 1462.73 Q1375.67 1462.73 1378.68 1465.9 Q1381.71 1469.05 1381.71 1474.49 Q1381.71 1479.82 1378.56 1483.03 Q1375.42 1486.25 1370.18 1486.25 Q1364.19 1486.25 1361.02 1481.67 Q1357.85 1477.06 1357.85 1468.33 Q1357.85 1460.14 1361.74 1455.28 Q1365.62 1450.39 1372.18 1450.39 Q1373.93 1450.39 1375.72 1450.74 Q1377.52 1451.09 1379.47 1451.78 Z" fill="#000000" fill-rule="nonzero" fill-opacity="1" /><path clip-path="url(#clip370)" d="M1830.19 1469.17 Q1826.86 1469.17 1824.94 1470.95 Q1823.04 1472.73 1823.04 1475.86 Q1823.04 1478.98 1824.94 1480.77 Q1826.86 1482.55 1830.19 1482.55 Q1833.52 1482.55 1835.44 1480.77 Q1837.37 1478.96 1837.37 1475.86 Q1837.37 1472.73 1835.44 1470.95 Q1833.55 1469.17 1830.19 1469.17 M1825.51 1467.18 Q1822.5 1466.44 1820.82 1464.38 Q1819.15 1462.32 1819.15 1459.35 Q1819.15 1455.21 1822.09 1452.8 Q1825.05 1450.39 1830.19 1450.39 Q1835.35 1450.39 1838.29 1452.8 Q1841.23 1455.21 1841.23 1459.35 Q1841.23 1462.32 1839.54 1464.38 Q1837.88 1466.44 1834.89 1467.18 Q1838.27 1467.96 1840.14 1470.26 Q1842.04 1472.55 1842.04 1475.86 Q1842.04 1480.88 1838.96 1483.57 Q1835.91 1486.25 1830.19 1486.25 Q1824.47 1486.25 1821.39 1483.57 Q1818.34 1480.88 1818.34 1475.86 Q1818.34 1472.55 1820.24 1470.26 Q1822.13 1467.96 1825.51 1467.18 M1823.8 1459.79 Q1823.8 1462.48 1825.47 1463.98 Q1827.16 1465.49 1830.19 1465.49 Q1833.2 1465.49 1834.89 1463.98 Q1836.6 1462.48 1836.6 1459.79 Q1836.6 1457.11 1834.89 1455.6 Q1833.2 1454.1 1830.19 1454.1 Q1827.16 1454.1 1825.47 1455.6 Q1823.8 1457.11 1823.8 1459.79 Z" fill="#000000" fill-rule="nonzero" fill-opacity="1" /><path clip-path="url(#clip370)" d="M2265.29 1481.64 L2272.93 1481.64 L2272.93 1455.28 L2264.62 1456.95 L2264.62 1452.69 L2272.88 1451.02 L2277.56 1451.02 L2277.56 1481.64 L2285.2 1481.64 L2285.2 1485.58 L2265.29 1485.58 L2265.29 1481.64 Z" fill="#000000" fill-rule="nonzero" fill-opacity="1" /><path clip-path="url(#clip370)" d="M2304.64 1454.1 Q2301.03 1454.1 2299.2 1457.66 Q2297.39 1461.2 2297.39 1468.33 Q2297.39 1475.44 2299.2 1479.01 Q2301.03 1482.55 2304.64 1482.55 Q2308.27 1482.55 2310.08 1479.01 Q2311.91 1475.44 2311.91 1468.33 Q2311.91 1461.2 2310.08 1457.66 Q2308.27 1454.1 2304.64 1454.1 M2304.64 1450.39 Q2310.45 1450.39 2313.51 1455 Q2316.58 1459.58 2316.58 1468.33 Q2316.58 1477.06 2313.51 1481.67 Q2310.45 1486.25 2304.64 1486.25 Q2298.83 1486.25 2295.75 1481.67 Q2292.7 1477.06 2292.7 1468.33 Q2292.7 1459.58 2295.75 1455 Q2298.83 1450.39 2304.64 1450.39 Z" fill="#000000" fill-rule="nonzero" fill-opacity="1" /><path clip-path="url(#clip370)" d="M1174.87 1548.76 L1174.87 1551.62 L1147.94 1551.62 Q1148.32 1557.67 1151.57 1560.85 Q1154.85 1564 1160.67 1564 Q1164.05 1564 1167.2 1563.17 Q1170.38 1562.35 1173.5 1560.69 L1173.5 1566.23 Q1170.35 1567.57 1167.04 1568.27 Q1163.73 1568.97 1160.32 1568.97 Q1151.79 1568.97 1146.79 1564 Q1141.83 1559.04 1141.83 1550.57 Q1141.83 1541.82 1146.54 1536.69 Q1151.28 1531.54 1159.3 1531.54 Q1166.5 1531.54 1170.67 1536.18 Q1174.87 1540.8 1174.87 1548.76 M1169.01 1547.04 Q1168.95 1542.23 1166.31 1539.37 Q1163.7 1536.5 1159.37 1536.5 Q1154.46 1536.5 1151.5 1539.27 Q1148.58 1542.04 1148.13 1547.07 L1169.01 1547.04 Z" fill="#000000" fill-rule="nonzero" fill-opacity="1" /><path clip-path="url(#clip370)" d="M1190.14 1562.7 L1190.14 1581.6 L1184.26 1581.6 L1184.26 1532.4 L1190.14 1532.4 L1190.14 1537.81 Q1191.99 1534.62 1194.79 1533.1 Q1197.62 1531.54 1201.54 1531.54 Q1208.03 1531.54 1212.07 1536.69 Q1216.15 1541.85 1216.15 1550.25 Q1216.15 1558.65 1212.07 1563.81 Q1208.03 1568.97 1201.54 1568.97 Q1197.62 1568.97 1194.79 1567.44 Q1191.99 1565.88 1190.14 1562.7 M1210.07 1550.25 Q1210.07 1543.79 1207.4 1540.13 Q1204.75 1536.44 1200.11 1536.44 Q1195.46 1536.44 1192.79 1540.13 Q1190.14 1543.79 1190.14 1550.25 Q1190.14 1556.71 1192.79 1560.4 Q1195.46 1564.07 1200.11 1564.07 Q1204.75 1564.07 1207.4 1560.4 Q1210.07 1556.71 1210.07 1550.25 Z" fill="#000000" fill-rule="nonzero" fill-opacity="1" /><path clip-path="url(#clip370)" d="M1239.67 1536.5 Q1234.96 1536.5 1232.22 1540.19 Q1229.48 1543.85 1229.48 1550.25 Q1229.48 1556.65 1232.19 1560.34 Q1234.93 1564 1239.67 1564 Q1244.35 1564 1247.09 1560.31 Q1249.82 1556.62 1249.82 1550.25 Q1249.82 1543.92 1247.09 1540.23 Q1244.35 1536.5 1239.67 1536.5 M1239.67 1531.54 Q1247.31 1531.54 1251.67 1536.5 Q1256.03 1541.47 1256.03 1550.25 Q1256.03 1559 1251.67 1564 Q1247.31 1568.97 1239.67 1568.97 Q1232 1568.97 1227.64 1564 Q1223.31 1559 1223.31 1550.25 Q1223.31 1541.47 1227.64 1536.5 Q1232 1531.54 1239.67 1531.54 Z" fill="#000000" fill-rule="nonzero" fill-opacity="1" /><path clip-path="url(#clip370)" d="M1291.39 1533.76 L1291.39 1539.24 Q1288.91 1537.87 1286.39 1537.2 Q1283.91 1536.5 1281.37 1536.5 Q1275.67 1536.5 1272.52 1540.13 Q1269.37 1543.73 1269.37 1550.25 Q1269.37 1556.78 1272.52 1560.4 Q1275.67 1564 1281.37 1564 Q1283.91 1564 1286.39 1563.33 Q1288.91 1562.63 1291.39 1561.26 L1291.39 1566.68 Q1288.94 1567.82 1286.3 1568.39 Q1283.69 1568.97 1280.73 1568.97 Q1272.68 1568.97 1267.93 1563.91 Q1263.19 1558.85 1263.19 1550.25 Q1263.19 1541.53 1267.97 1536.53 Q1272.77 1531.54 1281.11 1531.54 Q1283.82 1531.54 1286.39 1532.11 Q1288.97 1532.65 1291.39 1533.76 Z" fill="#000000" fill-rule="nonzero" fill-opacity="1" /><path clip-path="url(#clip370)" d="M1331.21 1546.53 L1331.21 1568.04 L1325.35 1568.04 L1325.35 1546.72 Q1325.35 1541.66 1323.38 1539.14 Q1321.41 1536.63 1317.46 1536.63 Q1312.72 1536.63 1309.98 1539.65 Q1307.24 1542.68 1307.24 1547.9 L1307.24 1568.04 L1301.35 1568.04 L1301.35 1518.52 L1307.24 1518.52 L1307.24 1537.93 Q1309.34 1534.72 1312.18 1533.13 Q1315.04 1531.54 1318.76 1531.54 Q1324.91 1531.54 1328.06 1535.36 Q1331.21 1539.14 1331.21 1546.53 Z" fill="#000000" fill-rule="nonzero" fill-opacity="1" /><path clip-path="url(#clip370)" d="M1365.62 1533.45 L1365.62 1538.98 Q1363.13 1537.71 1360.46 1537.07 Q1357.79 1536.44 1354.92 1536.44 Q1350.56 1536.44 1348.36 1537.77 Q1346.2 1539.11 1346.2 1541.79 Q1346.2 1543.82 1347.76 1545 Q1349.32 1546.15 1354.03 1547.2 L1356.04 1547.64 Q1362.27 1548.98 1364.88 1551.43 Q1367.53 1553.85 1367.53 1558.21 Q1367.53 1563.17 1363.58 1566.07 Q1359.66 1568.97 1352.79 1568.97 Q1349.92 1568.97 1346.8 1568.39 Q1343.72 1567.85 1340.28 1566.74 L1340.28 1560.69 Q1343.53 1562.38 1346.68 1563.24 Q1349.83 1564.07 1352.92 1564.07 Q1357.05 1564.07 1359.28 1562.66 Q1361.51 1561.23 1361.51 1558.65 Q1361.51 1556.27 1359.89 1554.99 Q1358.29 1553.72 1352.85 1552.54 L1350.82 1552.07 Q1345.37 1550.92 1342.95 1548.56 Q1340.53 1546.18 1340.53 1542.04 Q1340.53 1537.01 1344.1 1534.27 Q1347.66 1531.54 1354.22 1531.54 Q1357.47 1531.54 1360.33 1532.01 Q1363.2 1532.49 1365.62 1533.45 Z" fill="#000000" fill-rule="nonzero" fill-opacity="1" /><polyline clip-path="url(#clip370)" style="stroke:#000000; stroke-linecap:round; stroke-linejoin:round; stroke-width:4; stroke-opacity:1; fill:none" points="156.598,1423.18 156.598,47.2441 "/>
<polyline clip-path="url(#clip370)" style="stroke:#000000; stroke-linecap:round; stroke-linejoin:round; stroke-width:4; stroke-opacity:1; fill:none" points="156.598,1405.05 175.496,1405.05 "/>
<polyline clip-path="url(#clip370)" style="stroke:#000000; stroke-linecap:round; stroke-linejoin:round; stroke-width:4; stroke-opacity:1; fill:none" points="156.598,1200.1 175.496,1200.1 "/>
<polyline clip-path="url(#clip370)" style="stroke:#000000; stroke-linecap:round; stroke-linejoin:round; stroke-width:4; stroke-opacity:1; fill:none" points="156.598,995.151 175.496,995.151 "/>
<polyline clip-path="url(#clip370)" style="stroke:#000000; stroke-linecap:round; stroke-linejoin:round; stroke-width:4; stroke-opacity:1; fill:none" points="156.598,790.201 175.496,790.201 "/>
<polyline clip-path="url(#clip370)" style="stroke:#000000; stroke-linecap:round; stroke-linejoin:round; stroke-width:4; stroke-opacity:1; fill:none" points="156.598,585.25 175.496,585.25 "/>
<polyline clip-path="url(#clip370)" style="stroke:#000000; stroke-linecap:round; stroke-linejoin:round; stroke-width:4; stroke-opacity:1; fill:none" points="156.598,380.3 175.496,380.3 "/>
<polyline clip-path="url(#clip370)" style="stroke:#000000; stroke-linecap:round; stroke-linejoin:round; stroke-width:4; stroke-opacity:1; fill:none" points="156.598,175.349 175.496,175.349 "/>
<path clip-path="url(#clip370)" d="M65.0198 1390.85 Q61.4087 1390.85 59.58 1394.42 Q57.7745 1397.96 57.7745 1405.09 Q57.7745 1412.19 59.58 1415.76 Q61.4087 1419.3 65.0198 1419.3 Q68.6541 1419.3 70.4596 1415.76 Q72.2883 1412.19 72.2883 1405.09 Q72.2883 1397.96 70.4596 1394.42 Q68.6541 1390.85 65.0198 1390.85 M65.0198 1387.15 Q70.83 1387.15 73.8855 1391.75 Q76.9642 1396.34 76.9642 1405.09 Q76.9642 1413.81 73.8855 1418.42 Q70.83 1423 65.0198 1423 Q59.2097 1423 56.131 1418.42 Q53.0754 1413.81 53.0754 1405.09 Q53.0754 1396.34 56.131 1391.75 Q59.2097 1387.15 65.0198 1387.15 Z" fill="#000000" fill-rule="nonzero" fill-opacity="1" /><path clip-path="url(#clip370)" d="M85.1818 1416.45 L90.066 1416.45 L90.066 1422.33 L85.1818 1422.33 L85.1818 1416.45 Z" fill="#000000" fill-rule="nonzero" fill-opacity="1" /><path clip-path="url(#clip370)" d="M104.279 1418.4 L120.598 1418.4 L120.598 1422.33 L98.6539 1422.33 L98.6539 1418.4 Q101.316 1415.64 105.899 1411.01 Q110.506 1406.36 111.686 1405.02 Q113.932 1402.49 114.811 1400.76 Q115.714 1399 115.714 1397.31 Q115.714 1394.55 113.77 1392.82 Q111.848 1391.08 108.746 1391.08 Q106.547 1391.08 104.094 1391.85 Q101.663 1392.61 98.8854 1394.16 L98.8854 1389.44 Q101.709 1388.3 104.163 1387.73 Q106.617 1387.15 108.654 1387.15 Q114.024 1387.15 117.219 1389.83 Q120.413 1392.52 120.413 1397.01 Q120.413 1399.14 119.603 1401.06 Q118.816 1402.96 116.709 1405.55 Q116.131 1406.22 113.029 1409.44 Q109.927 1412.63 104.279 1418.4 Z" fill="#000000" fill-rule="nonzero" fill-opacity="1" /><path clip-path="url(#clip370)" d="M62.9365 1185.9 Q59.3254 1185.9 57.4967 1189.47 Q55.6912 1193.01 55.6912 1200.14 Q55.6912 1207.24 57.4967 1210.81 Q59.3254 1214.35 62.9365 1214.35 Q66.5707 1214.35 68.3763 1210.81 Q70.205 1207.24 70.205 1200.14 Q70.205 1193.01 68.3763 1189.47 Q66.5707 1185.9 62.9365 1185.9 M62.9365 1182.2 Q68.7467 1182.2 71.8022 1186.8 Q74.8809 1191.39 74.8809 1200.14 Q74.8809 1208.86 71.8022 1213.47 Q68.7467 1218.05 62.9365 1218.05 Q57.1264 1218.05 54.0477 1213.47 Q50.9921 1208.86 50.9921 1200.14 Q50.9921 1191.39 54.0477 1186.8 Q57.1264 1182.2 62.9365 1182.2 Z" fill="#000000" fill-rule="nonzero" fill-opacity="1" /><path clip-path="url(#clip370)" d="M83.0984 1211.5 L87.9827 1211.5 L87.9827 1217.38 L83.0984 1217.38 L83.0984 1211.5 Z" fill="#000000" fill-rule="nonzero" fill-opacity="1" /><path clip-path="url(#clip370)" d="M111.015 1186.9 L99.2095 1205.35 L111.015 1205.35 L111.015 1186.9 M109.788 1182.82 L115.668 1182.82 L115.668 1205.35 L120.598 1205.35 L120.598 1209.23 L115.668 1209.23 L115.668 1217.38 L111.015 1217.38 L111.015 1209.23 L95.4132 1209.23 L95.4132 1204.72 L109.788 1182.82 Z" fill="#000000" fill-rule="nonzero" fill-opacity="1" /><path clip-path="url(#clip370)" d="M63.2606 980.95 Q59.6495 980.95 57.8208 984.515 Q56.0152 988.057 56.0152 995.186 Q56.0152 1002.29 57.8208 1005.86 Q59.6495 1009.4 63.2606 1009.4 Q66.8948 1009.4 68.7004 1005.86 Q70.5291 1002.29 70.5291 995.186 Q70.5291 988.057 68.7004 984.515 Q66.8948 980.95 63.2606 980.95 M63.2606 977.246 Q69.0707 977.246 72.1263 981.853 Q75.205 986.436 75.205 995.186 Q75.205 1003.91 72.1263 1008.52 Q69.0707 1013.1 63.2606 1013.1 Q57.4504 1013.1 54.3717 1008.52 Q51.3162 1003.91 51.3162 995.186 Q51.3162 986.436 54.3717 981.853 Q57.4504 977.246 63.2606 977.246 Z" fill="#000000" fill-rule="nonzero" fill-opacity="1" /><path clip-path="url(#clip370)" d="M83.4225 1006.55 L88.3067 1006.55 L88.3067 1012.43 L83.4225 1012.43 L83.4225 1006.55 Z" fill="#000000" fill-rule="nonzero" fill-opacity="1" /><path clip-path="url(#clip370)" d="M109.071 993.288 Q105.922 993.288 104.071 995.441 Q102.242 997.594 102.242 1001.34 Q102.242 1005.07 104.071 1007.25 Q105.922 1009.4 109.071 1009.4 Q112.219 1009.4 114.047 1007.25 Q115.899 1005.07 115.899 1001.34 Q115.899 997.594 114.047 995.441 Q112.219 993.288 109.071 993.288 M118.353 978.635 L118.353 982.895 Q116.594 982.061 114.788 981.621 Q113.006 981.182 111.246 981.182 Q106.617 981.182 104.163 984.307 Q101.733 987.432 101.385 993.751 Q102.751 991.737 104.811 990.672 Q106.871 989.584 109.348 989.584 Q114.557 989.584 117.566 992.756 Q120.598 995.904 120.598 1001.34 Q120.598 1006.67 117.45 1009.89 Q114.302 1013.1 109.071 1013.1 Q103.075 1013.1 99.9039 1008.52 Q96.7326 1003.91 96.7326 995.186 Q96.7326 986.992 100.621 982.131 Q104.51 977.246 111.061 977.246 Q112.82 977.246 114.603 977.594 Q116.408 977.941 118.353 978.635 Z" fill="#000000" fill-rule="nonzero" fill-opacity="1" /><path clip-path="url(#clip370)" d="M63.5152 776 Q59.9041 776 58.0754 779.564 Q56.2699 783.106 56.2699 790.236 Q56.2699 797.342 58.0754 800.907 Q59.9041 804.449 63.5152 804.449 Q67.1494 804.449 68.955 800.907 Q70.7837 797.342 70.7837 790.236 Q70.7837 783.106 68.955 779.564 Q67.1494 776 63.5152 776 M63.5152 772.296 Q69.3254 772.296 72.3809 776.902 Q75.4596 781.486 75.4596 790.236 Q75.4596 798.962 72.3809 803.569 Q69.3254 808.152 63.5152 808.152 Q57.7051 808.152 54.6264 803.569 Q51.5708 798.962 51.5708 790.236 Q51.5708 781.486 54.6264 776.902 Q57.7051 772.296 63.5152 772.296 Z" fill="#000000" fill-rule="nonzero" fill-opacity="1" /><path clip-path="url(#clip370)" d="M83.6771 801.601 L88.5614 801.601 L88.5614 807.481 L83.6771 807.481 L83.6771 801.601 Z" fill="#000000" fill-rule="nonzero" fill-opacity="1" /><path clip-path="url(#clip370)" d="M108.746 791.069 Q105.413 791.069 103.492 792.851 Q101.594 794.634 101.594 797.759 Q101.594 800.884 103.492 802.666 Q105.413 804.449 108.746 804.449 Q112.08 804.449 114.001 802.666 Q115.922 800.861 115.922 797.759 Q115.922 794.634 114.001 792.851 Q112.103 791.069 108.746 791.069 M104.071 789.078 Q101.061 788.337 99.3715 786.277 Q97.7048 784.217 97.7048 781.254 Q97.7048 777.111 100.645 774.703 Q103.608 772.296 108.746 772.296 Q113.908 772.296 116.848 774.703 Q119.788 777.111 119.788 781.254 Q119.788 784.217 118.098 786.277 Q116.432 788.337 113.445 789.078 Q116.825 789.865 118.7 792.157 Q120.598 794.449 120.598 797.759 Q120.598 802.782 117.52 805.467 Q114.464 808.152 108.746 808.152 Q103.029 808.152 99.9502 805.467 Q96.8947 802.782 96.8947 797.759 Q96.8947 794.449 98.7928 792.157 Q100.691 789.865 104.071 789.078 M102.358 781.694 Q102.358 784.379 104.024 785.884 Q105.714 787.388 108.746 787.388 Q111.756 787.388 113.445 785.884 Q115.158 784.379 115.158 781.694 Q115.158 779.009 113.445 777.504 Q111.756 776 108.746 776 Q105.714 776 104.024 777.504 Q102.358 779.009 102.358 781.694 Z" fill="#000000" fill-rule="nonzero" fill-opacity="1" /><path clip-path="url(#clip370)" d="M54.2328 598.595 L61.8717 598.595 L61.8717 572.23 L53.5616 573.896 L53.5616 569.637 L61.8254 567.97 L66.5013 567.97 L66.5013 598.595 L74.1402 598.595 L74.1402 602.53 L54.2328 602.53 L54.2328 598.595 Z" fill="#000000" fill-rule="nonzero" fill-opacity="1" /><path clip-path="url(#clip370)" d="M83.5845 596.651 L88.4688 596.651 L88.4688 602.53 L83.5845 602.53 L83.5845 596.651 Z" fill="#000000" fill-rule="nonzero" fill-opacity="1" /><path clip-path="url(#clip370)" d="M108.654 571.049 Q105.043 571.049 103.214 574.614 Q101.409 578.156 101.409 585.285 Q101.409 592.392 103.214 595.956 Q105.043 599.498 108.654 599.498 Q112.288 599.498 114.094 595.956 Q115.922 592.392 115.922 585.285 Q115.922 578.156 114.094 574.614 Q112.288 571.049 108.654 571.049 M108.654 567.345 Q114.464 567.345 117.52 571.952 Q120.598 576.535 120.598 585.285 Q120.598 594.012 117.52 598.618 Q114.464 603.202 108.654 603.202 Q102.844 603.202 99.765 598.618 Q96.7095 594.012 96.7095 585.285 Q96.7095 576.535 99.765 571.952 Q102.844 567.345 108.654 567.345 Z" fill="#000000" fill-rule="nonzero" fill-opacity="1" /><path clip-path="url(#clip370)" d="M55.8301 393.645 L63.4689 393.645 L63.4689 367.279 L55.1588 368.946 L55.1588 364.686 L63.4226 363.02 L68.0985 363.02 L68.0985 393.645 L75.7374 393.645 L75.7374 397.58 L55.8301 397.58 L55.8301 393.645 Z" fill="#000000" fill-rule="nonzero" fill-opacity="1" /><path clip-path="url(#clip370)" d="M85.1818 391.7 L90.066 391.7 L90.066 397.58 L85.1818 397.58 L85.1818 391.7 Z" fill="#000000" fill-rule="nonzero" fill-opacity="1" /><path clip-path="url(#clip370)" d="M104.279 393.645 L120.598 393.645 L120.598 397.58 L98.6539 397.58 L98.6539 393.645 Q101.316 390.89 105.899 386.26 Q110.506 381.608 111.686 380.265 Q113.932 377.742 114.811 376.006 Q115.714 374.247 115.714 372.557 Q115.714 369.802 113.77 368.066 Q111.848 366.33 108.746 366.33 Q106.547 366.33 104.094 367.094 Q101.663 367.858 98.8854 369.409 L98.8854 364.686 Q101.709 363.552 104.163 362.974 Q106.617 362.395 108.654 362.395 Q114.024 362.395 117.219 365.08 Q120.413 367.765 120.413 372.256 Q120.413 374.386 119.603 376.307 Q118.816 378.205 116.709 380.798 Q116.131 381.469 113.029 384.686 Q109.927 387.881 104.279 393.645 Z" fill="#000000" fill-rule="nonzero" fill-opacity="1" /><path clip-path="url(#clip370)" d="M53.7467 188.694 L61.3856 188.694 L61.3856 162.329 L53.0754 163.995 L53.0754 159.736 L61.3393 158.069 L66.0152 158.069 L66.0152 188.694 L73.654 188.694 L73.654 192.629 L53.7467 192.629 L53.7467 188.694 Z" fill="#000000" fill-rule="nonzero" fill-opacity="1" /><path clip-path="url(#clip370)" d="M83.0984 186.75 L87.9827 186.75 L87.9827 192.629 L83.0984 192.629 L83.0984 186.75 Z" fill="#000000" fill-rule="nonzero" fill-opacity="1" /><path clip-path="url(#clip370)" d="M111.015 162.143 L99.2095 180.592 L111.015 180.592 L111.015 162.143 M109.788 158.069 L115.668 158.069 L115.668 180.592 L120.598 180.592 L120.598 184.481 L115.668 184.481 L115.668 192.629 L111.015 192.629 L111.015 184.481 L95.4132 184.481 L95.4132 179.967 L109.788 158.069 Z" fill="#000000" fill-rule="nonzero" fill-opacity="1" /><polyline clip-path="url(#clip372)" style="stroke:#009af9; stroke-linecap:round; stroke-linejoin:round; stroke-width:4; stroke-opacity:1; fill:none" points="218.754,86.1857 448.959,1108.87 679.164,1223.37 909.369,1269.73 1139.57,1299.29 1369.78,1322.23 1599.98,1341.2 1830.19,1357.42 2060.4,1371.89 2290.6,1384.24 "/>
<polyline clip-path="url(#clip372)" style="stroke:#e26f46; stroke-linecap:round; stroke-linejoin:round; stroke-width:4; stroke-opacity:1; fill:none" points="218.754,907.338 448.959,1113.18 679.164,1176.26 909.369,1195.86 1139.57,1238.73 1369.78,1260.06 1599.98,1274.85 1830.19,1281.07 2060.4,1297.47 2290.6,1307.4 "/>
<polyline clip-path="url(#clip372)" style="stroke:#3da44d; stroke-linecap:round; stroke-linejoin:round; stroke-width:4; stroke-opacity:1; fill:none" points="218.754,848.33 448.959,764.116 679.164,741.618 909.369,735.335 1139.57,719.932 1369.78,712.838 1599.98,706.96 1830.19,704.832 2060.4,698.853 2290.6,695.103 "/>
<path clip-path="url(#clip370)" d="M1837.9 300.469 L2279.55 300.469 L2279.55 93.1086 L1837.9 93.1086  Z" fill="#ffffff" fill-rule="evenodd" fill-opacity="1"/>
<polyline clip-path="url(#clip370)" style="stroke:#000000; stroke-linecap:round; stroke-linejoin:round; stroke-width:4; stroke-opacity:1; fill:none" points="1837.9,300.469 2279.55,300.469 2279.55,93.1086 1837.9,93.1086 1837.9,300.469 "/>
<polyline clip-path="url(#clip370)" style="stroke:#009af9; stroke-linecap:round; stroke-linejoin:round; stroke-width:4; stroke-opacity:1; fill:none" points="1862.3,144.949 2008.71,144.949 "/>
<path clip-path="url(#clip370)" d="M2040.52 128.942 L2040.52 136.303 L2049.29 136.303 L2049.29 139.613 L2040.52 139.613 L2040.52 153.687 Q2040.52 156.858 2041.38 157.761 Q2042.26 158.664 2044.92 158.664 L2049.29 158.664 L2049.29 162.229 L2044.92 162.229 Q2039.99 162.229 2038.11 160.4 Q2036.24 158.548 2036.24 153.687 L2036.24 139.613 L2033.11 139.613 L2033.11 136.303 L2036.24 136.303 L2036.24 128.942 L2040.52 128.942 Z" fill="#000000" fill-rule="nonzero" fill-opacity="1" /><path clip-path="url(#clip370)" d="M2069.92 140.284 Q2069.2 139.868 2068.34 139.682 Q2067.51 139.474 2066.49 139.474 Q2062.88 139.474 2060.94 141.835 Q2059.02 144.173 2059.02 148.571 L2059.02 162.229 L2054.73 162.229 L2054.73 136.303 L2059.02 136.303 L2059.02 140.331 Q2060.36 137.969 2062.51 136.835 Q2064.66 135.678 2067.74 135.678 Q2068.18 135.678 2068.71 135.747 Q2069.25 135.794 2069.9 135.909 L2069.92 140.284 Z" fill="#000000" fill-rule="nonzero" fill-opacity="1" /><path clip-path="url(#clip370)" d="M2086.17 149.196 Q2081.01 149.196 2079.02 150.377 Q2077.02 151.557 2077.02 154.405 Q2077.02 156.673 2078.51 158.016 Q2080.01 159.335 2082.58 159.335 Q2086.12 159.335 2088.25 156.835 Q2090.4 154.312 2090.4 150.145 L2090.4 149.196 L2086.17 149.196 M2094.66 147.437 L2094.66 162.229 L2090.4 162.229 L2090.4 158.293 Q2088.95 160.655 2086.77 161.789 Q2084.59 162.9 2081.45 162.9 Q2077.46 162.9 2075.1 160.678 Q2072.77 158.432 2072.77 154.682 Q2072.77 150.307 2075.68 148.085 Q2078.62 145.863 2084.43 145.863 L2090.4 145.863 L2090.4 145.446 Q2090.4 142.507 2088.46 140.909 Q2086.54 139.289 2083.04 139.289 Q2080.82 139.289 2078.71 139.821 Q2076.61 140.354 2074.66 141.419 L2074.66 137.483 Q2077 136.581 2079.2 136.141 Q2081.4 135.678 2083.48 135.678 Q2089.11 135.678 2091.89 138.594 Q2094.66 141.511 2094.66 147.437 Z" fill="#000000" fill-rule="nonzero" fill-opacity="1" /><path clip-path="url(#clip370)" d="M2103.44 136.303 L2107.7 136.303 L2107.7 162.229 L2103.44 162.229 L2103.44 136.303 M2103.44 126.21 L2107.7 126.21 L2107.7 131.604 L2103.44 131.604 L2103.44 126.21 Z" fill="#000000" fill-rule="nonzero" fill-opacity="1" /><path clip-path="url(#clip370)" d="M2138.16 146.581 L2138.16 162.229 L2133.9 162.229 L2133.9 146.719 Q2133.9 143.039 2132.46 141.21 Q2131.03 139.382 2128.16 139.382 Q2124.71 139.382 2122.72 141.581 Q2120.73 143.78 2120.73 147.576 L2120.73 162.229 L2116.45 162.229 L2116.45 136.303 L2120.73 136.303 L2120.73 140.331 Q2122.26 137.993 2124.32 136.835 Q2126.4 135.678 2129.11 135.678 Q2133.58 135.678 2135.87 138.456 Q2138.16 141.21 2138.16 146.581 Z" fill="#000000" fill-rule="nonzero" fill-opacity="1" /><path clip-path="url(#clip370)" d="M2166.35 170.099 L2166.35 173.409 L2141.72 173.409 L2141.72 170.099 L2166.35 170.099 Z" fill="#000000" fill-rule="nonzero" fill-opacity="1" /><path clip-path="url(#clip370)" d="M2170.36 126.21 L2174.62 126.21 L2174.62 162.229 L2170.36 162.229 L2170.36 126.21 Z" fill="#000000" fill-rule="nonzero" fill-opacity="1" /><path clip-path="url(#clip370)" d="M2193.58 139.289 Q2190.15 139.289 2188.16 141.974 Q2186.17 144.636 2186.17 149.289 Q2186.17 153.942 2188.14 156.627 Q2190.13 159.289 2193.58 159.289 Q2196.98 159.289 2198.97 156.604 Q2200.96 153.918 2200.96 149.289 Q2200.96 144.682 2198.97 141.997 Q2196.98 139.289 2193.58 139.289 M2193.58 135.678 Q2199.13 135.678 2202.3 139.289 Q2205.47 142.9 2205.47 149.289 Q2205.47 155.655 2202.3 159.289 Q2199.13 162.9 2193.58 162.9 Q2188 162.9 2184.83 159.289 Q2181.68 155.655 2181.68 149.289 Q2181.68 142.9 2184.83 139.289 Q2188 135.678 2193.58 135.678 Z" fill="#000000" fill-rule="nonzero" fill-opacity="1" /><path clip-path="url(#clip370)" d="M2229.06 137.067 L2229.06 141.094 Q2227.26 140.169 2225.31 139.706 Q2223.37 139.243 2221.28 139.243 Q2218.11 139.243 2216.51 140.215 Q2214.94 141.187 2214.94 143.131 Q2214.94 144.613 2216.08 145.469 Q2217.21 146.303 2220.64 147.067 L2222.09 147.391 Q2226.63 148.363 2228.53 150.145 Q2230.45 151.905 2230.45 155.076 Q2230.45 158.687 2227.58 160.793 Q2224.73 162.9 2219.73 162.9 Q2217.65 162.9 2215.38 162.483 Q2213.14 162.09 2210.64 161.28 L2210.64 156.881 Q2213 158.108 2215.29 158.733 Q2217.58 159.335 2219.83 159.335 Q2222.83 159.335 2224.45 158.317 Q2226.07 157.275 2226.07 155.4 Q2226.07 153.664 2224.89 152.738 Q2223.74 151.812 2219.78 150.956 L2218.3 150.608 Q2214.34 149.775 2212.58 148.062 Q2210.82 146.326 2210.82 143.317 Q2210.82 139.659 2213.41 137.669 Q2216.01 135.678 2220.77 135.678 Q2223.14 135.678 2225.22 136.025 Q2227.3 136.372 2229.06 137.067 Z" fill="#000000" fill-rule="nonzero" fill-opacity="1" /><path clip-path="url(#clip370)" d="M2253.76 137.067 L2253.76 141.094 Q2251.95 140.169 2250.01 139.706 Q2248.07 139.243 2245.98 139.243 Q2242.81 139.243 2241.21 140.215 Q2239.64 141.187 2239.64 143.131 Q2239.64 144.613 2240.77 145.469 Q2241.91 146.303 2245.33 147.067 L2246.79 147.391 Q2251.33 148.363 2253.23 150.145 Q2255.15 151.905 2255.15 155.076 Q2255.15 158.687 2252.28 160.793 Q2249.43 162.9 2244.43 162.9 Q2242.35 162.9 2240.08 162.483 Q2237.83 162.09 2235.33 161.28 L2235.33 156.881 Q2237.7 158.108 2239.99 158.733 Q2242.28 159.335 2244.52 159.335 Q2247.53 159.335 2249.15 158.317 Q2250.77 157.275 2250.77 155.4 Q2250.77 153.664 2249.59 152.738 Q2248.44 151.812 2244.48 150.956 L2243 150.608 Q2239.04 149.775 2237.28 148.062 Q2235.52 146.326 2235.52 143.317 Q2235.52 139.659 2238.11 137.669 Q2240.7 135.678 2245.47 135.678 Q2247.83 135.678 2249.92 136.025 Q2252 136.372 2253.76 137.067 Z" fill="#000000" fill-rule="nonzero" fill-opacity="1" /><polyline clip-path="url(#clip370)" style="stroke:#e26f46; stroke-linecap:round; stroke-linejoin:round; stroke-width:4; stroke-opacity:1; fill:none" points="1862.3,196.789 2008.71,196.789 "/>
<path clip-path="url(#clip370)" d="M2033.11 188.143 L2037.63 188.143 L2045.73 209.902 L2053.83 188.143 L2058.34 188.143 L2048.62 214.069 L2042.84 214.069 L2033.11 188.143 Z" fill="#000000" fill-rule="nonzero" fill-opacity="1" /><path clip-path="url(#clip370)" d="M2076.01 201.036 Q2070.84 201.036 2068.85 202.217 Q2066.86 203.397 2066.86 206.245 Q2066.86 208.513 2068.34 209.856 Q2069.85 211.175 2072.42 211.175 Q2075.96 211.175 2078.09 208.675 Q2080.24 206.152 2080.24 201.985 L2080.24 201.036 L2076.01 201.036 M2084.5 199.277 L2084.5 214.069 L2080.24 214.069 L2080.24 210.133 Q2078.78 212.495 2076.61 213.629 Q2074.43 214.74 2071.28 214.74 Q2067.3 214.74 2064.94 212.518 Q2062.6 210.272 2062.6 206.522 Q2062.6 202.147 2065.52 199.925 Q2068.46 197.703 2074.27 197.703 L2080.24 197.703 L2080.24 197.286 Q2080.24 194.347 2078.3 192.749 Q2076.38 191.129 2072.88 191.129 Q2070.66 191.129 2068.55 191.661 Q2066.45 192.194 2064.5 193.259 L2064.5 189.323 Q2066.84 188.421 2069.04 187.981 Q2071.24 187.518 2073.32 187.518 Q2078.95 187.518 2081.72 190.434 Q2084.5 193.351 2084.5 199.277 Z" fill="#000000" fill-rule="nonzero" fill-opacity="1" /><path clip-path="url(#clip370)" d="M2093.27 178.05 L2097.53 178.05 L2097.53 214.069 L2093.27 214.069 L2093.27 178.05 Z" fill="#000000" fill-rule="nonzero" fill-opacity="1" /><path clip-path="url(#clip370)" d="M2126.14 221.939 L2126.14 225.249 L2101.52 225.249 L2101.52 221.939 L2126.14 221.939 Z" fill="#000000" fill-rule="nonzero" fill-opacity="1" /><path clip-path="url(#clip370)" d="M2130.15 178.05 L2134.41 178.05 L2134.41 214.069 L2130.15 214.069 L2130.15 178.05 Z" fill="#000000" fill-rule="nonzero" fill-opacity="1" /><path clip-path="url(#clip370)" d="M2153.37 191.129 Q2149.94 191.129 2147.95 193.814 Q2145.96 196.476 2145.96 201.129 Q2145.96 205.782 2147.93 208.467 Q2149.92 211.129 2153.37 211.129 Q2156.77 211.129 2158.76 208.444 Q2160.75 205.758 2160.75 201.129 Q2160.75 196.522 2158.76 193.837 Q2156.77 191.129 2153.37 191.129 M2153.37 187.518 Q2158.92 187.518 2162.09 191.129 Q2165.27 194.74 2165.27 201.129 Q2165.27 207.495 2162.09 211.129 Q2158.92 214.74 2153.37 214.74 Q2147.79 214.74 2144.62 211.129 Q2141.47 207.495 2141.47 201.129 Q2141.47 194.74 2144.62 191.129 Q2147.79 187.518 2153.37 187.518 Z" fill="#000000" fill-rule="nonzero" fill-opacity="1" /><path clip-path="url(#clip370)" d="M2188.85 188.907 L2188.85 192.934 Q2187.05 192.009 2185.1 191.546 Q2183.16 191.083 2181.08 191.083 Q2177.9 191.083 2176.31 192.055 Q2174.73 193.027 2174.73 194.971 Q2174.73 196.453 2175.87 197.309 Q2177 198.143 2180.43 198.907 L2181.89 199.231 Q2186.42 200.203 2188.32 201.985 Q2190.24 203.745 2190.24 206.916 Q2190.24 210.527 2187.37 212.633 Q2184.52 214.74 2179.52 214.74 Q2177.44 214.74 2175.17 214.323 Q2172.93 213.93 2170.43 213.12 L2170.43 208.721 Q2172.79 209.948 2175.08 210.573 Q2177.37 211.175 2179.62 211.175 Q2182.63 211.175 2184.25 210.157 Q2185.87 209.115 2185.87 207.24 Q2185.87 205.504 2184.69 204.578 Q2183.53 203.652 2179.57 202.796 L2178.09 202.448 Q2174.13 201.615 2172.37 199.902 Q2170.61 198.166 2170.61 195.157 Q2170.61 191.499 2173.2 189.509 Q2175.8 187.518 2180.57 187.518 Q2182.93 187.518 2185.01 187.865 Q2187.09 188.212 2188.85 188.907 Z" fill="#000000" fill-rule="nonzero" fill-opacity="1" /><path clip-path="url(#clip370)" d="M2213.55 188.907 L2213.55 192.934 Q2211.75 192.009 2209.8 191.546 Q2207.86 191.083 2205.77 191.083 Q2202.6 191.083 2201.01 192.055 Q2199.43 193.027 2199.43 194.971 Q2199.43 196.453 2200.57 197.309 Q2201.7 198.143 2205.13 198.907 L2206.58 199.231 Q2211.12 200.203 2213.02 201.985 Q2214.94 203.745 2214.94 206.916 Q2214.94 210.527 2212.07 212.633 Q2209.22 214.74 2204.22 214.74 Q2202.14 214.74 2199.87 214.323 Q2197.63 213.93 2195.13 213.12 L2195.13 208.721 Q2197.49 209.948 2199.78 210.573 Q2202.07 211.175 2204.32 211.175 Q2207.33 211.175 2208.95 210.157 Q2210.57 209.115 2210.57 207.24 Q2210.57 205.504 2209.39 204.578 Q2208.23 203.652 2204.27 202.796 L2202.79 202.448 Q2198.83 201.615 2197.07 199.902 Q2195.31 198.166 2195.31 195.157 Q2195.31 191.499 2197.9 189.509 Q2200.5 187.518 2205.26 187.518 Q2207.63 187.518 2209.71 187.865 Q2211.79 188.212 2213.55 188.907 Z" fill="#000000" fill-rule="nonzero" fill-opacity="1" /><polyline clip-path="url(#clip370)" style="stroke:#3da44d; stroke-linecap:round; stroke-linejoin:round; stroke-width:4; stroke-opacity:1; fill:none" points="1862.3,248.629 2008.71,248.629 "/>
<path clip-path="url(#clip370)" d="M2033.11 239.983 L2037.63 239.983 L2045.73 261.742 L2053.83 239.983 L2058.34 239.983 L2048.62 265.909 L2042.84 265.909 L2033.11 239.983 Z" fill="#000000" fill-rule="nonzero" fill-opacity="1" /><path clip-path="url(#clip370)" d="M2076.01 252.876 Q2070.84 252.876 2068.85 254.057 Q2066.86 255.237 2066.86 258.085 Q2066.86 260.353 2068.34 261.696 Q2069.85 263.015 2072.42 263.015 Q2075.96 263.015 2078.09 260.515 Q2080.24 257.992 2080.24 253.825 L2080.24 252.876 L2076.01 252.876 M2084.5 251.117 L2084.5 265.909 L2080.24 265.909 L2080.24 261.973 Q2078.78 264.335 2076.61 265.469 Q2074.43 266.58 2071.28 266.58 Q2067.3 266.58 2064.94 264.358 Q2062.6 262.112 2062.6 258.362 Q2062.6 253.987 2065.52 251.765 Q2068.46 249.543 2074.27 249.543 L2080.24 249.543 L2080.24 249.126 Q2080.24 246.187 2078.3 244.589 Q2076.38 242.969 2072.88 242.969 Q2070.66 242.969 2068.55 243.501 Q2066.45 244.034 2064.5 245.099 L2064.5 241.163 Q2066.84 240.261 2069.04 239.821 Q2071.24 239.358 2073.32 239.358 Q2078.95 239.358 2081.72 242.274 Q2084.5 245.191 2084.5 251.117 Z" fill="#000000" fill-rule="nonzero" fill-opacity="1" /><path clip-path="url(#clip370)" d="M2093.27 229.89 L2097.53 229.89 L2097.53 265.909 L2093.27 265.909 L2093.27 229.89 Z" fill="#000000" fill-rule="nonzero" fill-opacity="1" /><path clip-path="url(#clip370)" d="M2126.14 273.779 L2126.14 277.089 L2101.52 277.089 L2101.52 273.779 L2126.14 273.779 Z" fill="#000000" fill-rule="nonzero" fill-opacity="1" /><path clip-path="url(#clip370)" d="M2141.93 252.876 Q2136.77 252.876 2134.78 254.057 Q2132.79 255.237 2132.79 258.085 Q2132.79 260.353 2134.27 261.696 Q2135.77 263.015 2138.34 263.015 Q2141.89 263.015 2144.02 260.515 Q2146.17 257.992 2146.17 253.825 L2146.17 252.876 L2141.93 252.876 M2150.43 251.117 L2150.43 265.909 L2146.17 265.909 L2146.17 261.973 Q2144.71 264.335 2142.53 265.469 Q2140.36 266.58 2137.21 266.58 Q2133.23 266.58 2130.87 264.358 Q2128.53 262.112 2128.53 258.362 Q2128.53 253.987 2131.45 251.765 Q2134.39 249.543 2140.2 249.543 L2146.17 249.543 L2146.17 249.126 Q2146.17 246.187 2144.22 244.589 Q2142.3 242.969 2138.81 242.969 Q2136.58 242.969 2134.48 243.501 Q2132.37 244.034 2130.43 245.099 L2130.43 241.163 Q2132.77 240.261 2134.96 239.821 Q2137.16 239.358 2139.25 239.358 Q2144.87 239.358 2147.65 242.274 Q2150.43 245.191 2150.43 251.117 Z" fill="#000000" fill-rule="nonzero" fill-opacity="1" /><path clip-path="url(#clip370)" d="M2177.86 240.978 L2177.86 244.96 Q2176.05 243.964 2174.22 243.478 Q2172.42 242.969 2170.57 242.969 Q2166.42 242.969 2164.13 245.608 Q2161.84 248.224 2161.84 252.969 Q2161.84 257.714 2164.13 260.353 Q2166.42 262.969 2170.57 262.969 Q2172.42 262.969 2174.22 262.483 Q2176.05 261.973 2177.86 260.978 L2177.86 264.913 Q2176.08 265.747 2174.15 266.163 Q2172.26 266.58 2170.1 266.58 Q2164.25 266.58 2160.8 262.899 Q2157.35 259.219 2157.35 252.969 Q2157.35 246.626 2160.82 242.992 Q2164.32 239.358 2170.38 239.358 Q2172.35 239.358 2174.22 239.775 Q2176.1 240.168 2177.86 240.978 Z" fill="#000000" fill-rule="nonzero" fill-opacity="1" /><path clip-path="url(#clip370)" d="M2203.92 240.978 L2203.92 244.96 Q2202.12 243.964 2200.29 243.478 Q2198.48 242.969 2196.63 242.969 Q2192.49 242.969 2190.2 245.608 Q2187.9 248.224 2187.9 252.969 Q2187.9 257.714 2190.2 260.353 Q2192.49 262.969 2196.63 262.969 Q2198.48 262.969 2200.29 262.483 Q2202.12 261.973 2203.92 260.978 L2203.92 264.913 Q2202.14 265.747 2200.22 266.163 Q2198.32 266.58 2196.17 266.58 Q2190.31 266.58 2186.86 262.899 Q2183.41 259.219 2183.41 252.969 Q2183.41 246.626 2186.89 242.992 Q2190.38 239.358 2196.45 239.358 Q2198.41 239.358 2200.29 239.775 Q2202.16 240.168 2203.92 240.978 Z" fill="#000000" fill-rule="nonzero" fill-opacity="1" /></svg>
