<?xml version="1.0" encoding="utf-8"?>
<svg xmlns="http://www.w3.org/2000/svg" xmlns:xlink="http://www.w3.org/1999/xlink" width="600" height="400" viewBox="0 0 2400 1600">
<defs>
  <clipPath id="clip330">
    <rect x="0" y="0" width="2400" height="1600"/>
  </clipPath>
</defs>
<path clip-path="url(#clip330)" d="M0 1600 L2400 1600 L2400 0 L0 0  Z" fill="#ffffff" fill-rule="evenodd" fill-opacity="1"/>
<defs>
  <clipPath id="clip331">
    <rect x="480" y="0" width="1681" height="1600"/>
  </clipPath>
</defs>
<path clip-path="url(#clip330)" d="M193.936 1423.18 L2352.76 1423.18 L2352.76 47.2441 L193.936 47.2441  Z" fill="#ffffff" fill-rule="evenodd" fill-opacity="1"/>
<defs>
  <clipPath id="clip332">
    <rect x="193" y="47" width="2160" height="1377"/>
  </clipPath>
</defs>
<polyline clip-path="url(#clip332)" style="stroke:#000000; stroke-linecap:round; stroke-linejoin:round; stroke-width:2; stroke-opacity:0.1; fill:none" points="220.516,1423.18 220.516,47.2441 "/>
<polyline clip-path="url(#clip332)" style="stroke:#000000; stroke-linecap:round; stroke-linejoin:round; stroke-width:2; stroke-opacity:0.1; fill:none" points="565.706,1423.18 565.706,47.2441 "/>
<polyline clip-path="url(#clip332)" style="stroke:#000000; stroke-linecap:round; stroke-linejoin:round; stroke-width:2; stroke-opacity:0.1; fill:none" points="910.896,1423.18 910.896,47.2441 "/>
<polyline clip-path="url(#clip332)" style="stroke:#000000; stroke-linecap:round; stroke-linejoin:round; stroke-width:2; stroke-opacity:0.1; fill:none" points="1256.09,1423.18 1256.09,47.2441 "/>
<polyline clip-path="url(#clip332)" style="stroke:#000000; stroke-linecap:round; stroke-linejoin:round; stroke-width:2; stroke-opacity:0.1; fill:none" points="1601.28,1423.18 1601.28,47.2441 "/>
<polyline clip-path="url(#clip332)" style="stroke:#000000; stroke-linecap:round; stroke-linejoin:round; stroke-width:2; stroke-opacity:0.1; fill:none" points="1946.47,1423.18 1946.47,47.2441 "/>
<polyline clip-path="url(#clip332)" style="stroke:#000000; stroke-linecap:round; stroke-linejoin:round; stroke-width:2; stroke-opacity:0.1; fill:none" points="2291.66,1423.18 2291.66,47.2441 "/>
<polyline clip-path="url(#clip332)" style="stroke:#000000; stroke-linecap:round; stroke-linejoin:round; stroke-width:2; stroke-opacity:0.1; fill:none" points="193.936,1384.24 2352.76,1384.24 "/>
<polyline clip-path="url(#clip332)" style="stroke:#000000; stroke-linecap:round; stroke-linejoin:round; stroke-width:2; stroke-opacity:0.1; fill:none" points="193.936,1059.66 2352.76,1059.66 "/>
<polyline clip-path="url(#clip332)" style="stroke:#000000; stroke-linecap:round; stroke-linejoin:round; stroke-width:2; stroke-opacity:0.1; fill:none" points="193.936,735.074 2352.76,735.074 "/>
<polyline clip-path="url(#clip332)" style="stroke:#000000; stroke-linecap:round; stroke-linejoin:round; stroke-width:2; stroke-opacity:0.1; fill:none" points="193.936,410.491 2352.76,410.491 "/>
<polyline clip-path="url(#clip332)" style="stroke:#000000; stroke-linecap:round; stroke-linejoin:round; stroke-width:2; stroke-opacity:0.1; fill:none" points="193.936,85.9089 2352.76,85.9089 "/>
<polyline clip-path="url(#clip330)" style="stroke:#000000; stroke-linecap:round; stroke-linejoin:round; stroke-width:4; stroke-opacity:1; fill:none" points="193.936,1423.18 2352.76,1423.18 "/>
<polyline clip-path="url(#clip330)" style="stroke:#000000; stroke-linecap:round; stroke-linejoin:round; stroke-width:4; stroke-opacity:1; fill:none" points="220.516,1423.18 220.516,1404.28 "/>
<polyline clip-path="url(#clip330)" style="stroke:#000000; stroke-linecap:round; stroke-linejoin:round; stroke-width:4; stroke-opacity:1; fill:none" points="565.706,1423.18 565.706,1404.28 "/>
<polyline clip-path="url(#clip330)" style="stroke:#000000; stroke-linecap:round; stroke-linejoin:round; stroke-width:4; stroke-opacity:1; fill:none" points="910.896,1423.18 910.896,1404.28 "/>
<polyline clip-path="url(#clip330)" style="stroke:#000000; stroke-linecap:round; stroke-linejoin:round; stroke-width:4; stroke-opacity:1; fill:none" points="1256.09,1423.18 1256.09,1404.28 "/>
<polyline clip-path="url(#clip330)" style="stroke:#000000; stroke-linecap:round; stroke-linejoin:round; stroke-width:4; stroke-opacity:1; fill:none" points="1601.28,1423.18 1601.28,1404.28 "/>
<polyline clip-path="url(#clip330)" style="stroke:#000000; stroke-linecap:round; stroke-linejoin:round; stroke-width:4; stroke-opacity:1; fill:none" points="1946.47,1423.18 1946.47,1404.28 "/>
<polyline clip-path="url(#clip330)" style="stroke:#000000; stroke-linecap:round; stroke-linejoin:round; stroke-width:4; stroke-opacity:1; fill:none" points="2291.66,1423.18 2291.66,1404.28 "/>
<path clip-path="url(#clip330)" d="M220.516 1454.1 Q216.905 1454.1 215.076 1457.66 Q213.27 1461.2 213.27 1468.33 Q213.27 1475.44 215.076 1479.01 Q216.905 1482.55 220.516 1482.55 Q224.15 1482.55 225.955 1479.01 Q227.784 1475.44 227.784 1468.33 Q227.784 1461.2 225.955 1457.66 Q224.15 1454.1 220.516 1454.1 M220.516 1450.39 Q226.326 1450.39 229.381 1455 Q232.46 1459.58 232.46 1468.33 Q232.46 1477.06 229.381 1481.67 Q226.326 1486.25 220.516 1486.25 Q214.705 1486.25 211.627 1481.67 Q208.571 1477.06 208.571 1468.33 Q208.571 1459.58 211.627 1455 Q214.705 1450.39 220.516 1450.39 Z" fill="#000000" fill-rule="nonzero" fill-opacity="1" /><path clip-path="url(#clip330)" d="M540.394 1481.64 L548.032 1481.64 L548.032 1455.28 L539.722 1456.95 L539.722 1452.69 L547.986 1451.02 L552.662 1451.02 L552.662 1481.64 L560.301 1481.64 L560.301 1485.58 L540.394 1485.58 L540.394 1481.64 Z" fill="#000000" fill-rule="nonzero" fill-opacity="1" /><path clip-path="url(#clip330)" d="M579.745 1454.1 Q576.134 1454.1 574.305 1457.66 Q572.5 1461.2 572.5 1468.33 Q572.5 1475.44 574.305 1479.01 Q576.134 1482.55 579.745 1482.55 Q583.379 1482.55 585.185 1479.01 Q587.014 1475.44 587.014 1468.33 Q587.014 1461.2 585.185 1457.66 Q583.379 1454.1 579.745 1454.1 M579.745 1450.39 Q585.555 1450.39 588.611 1455 Q591.69 1459.58 591.69 1468.33 Q591.69 1477.06 588.611 1481.67 Q585.555 1486.25 579.745 1486.25 Q573.935 1486.25 570.856 1481.67 Q567.801 1477.06 567.801 1468.33 Q567.801 1459.58 570.856 1455 Q573.935 1450.39 579.745 1450.39 Z" fill="#000000" fill-rule="nonzero" fill-opacity="1" /><path clip-path="url(#clip330)" d="M889.669 1481.64 L905.989 1481.64 L905.989 1485.58 L884.044 1485.58 L884.044 1481.64 Q886.706 1478.89 891.29 1474.26 Q895.896 1469.61 897.077 1468.27 Q899.322 1465.74 900.202 1464.01 Q901.105 1462.25 901.105 1460.56 Q901.105 1457.8 899.16 1456.07 Q897.239 1454.33 894.137 1454.33 Q891.938 1454.33 889.484 1455.09 Q887.054 1455.86 884.276 1457.41 L884.276 1452.69 Q887.1 1451.55 889.554 1450.97 Q892.007 1450.39 894.044 1450.39 Q899.415 1450.39 902.609 1453.08 Q905.804 1455.77 905.804 1460.26 Q905.804 1462.39 904.993 1464.31 Q904.206 1466.2 902.1 1468.8 Q901.521 1469.47 898.419 1472.69 Q895.318 1475.88 889.669 1481.64 Z" fill="#000000" fill-rule="nonzero" fill-opacity="1" /><path clip-path="url(#clip330)" d="M925.804 1454.1 Q922.192 1454.1 920.364 1457.66 Q918.558 1461.2 918.558 1468.33 Q918.558 1475.44 920.364 1479.01 Q922.192 1482.55 925.804 1482.55 Q929.438 1482.55 931.243 1479.01 Q933.072 1475.44 933.072 1468.33 Q933.072 1461.2 931.243 1457.66 Q929.438 1454.1 925.804 1454.1 M925.804 1450.39 Q931.614 1450.39 934.669 1455 Q937.748 1459.58 937.748 1468.33 Q937.748 1477.06 934.669 1481.67 Q931.614 1486.25 925.804 1486.25 Q919.993 1486.25 916.915 1481.67 Q913.859 1477.06 913.859 1468.33 Q913.859 1459.58 916.915 1455 Q919.993 1450.39 925.804 1450.39 Z" fill="#000000" fill-rule="nonzero" fill-opacity="1" /><path clip-path="url(#clip330)" d="M1244.93 1466.95 Q1248.29 1467.66 1250.16 1469.93 Q1252.06 1472.2 1252.06 1475.53 Q1252.06 1480.65 1248.54 1483.45 Q1245.02 1486.25 1238.54 1486.25 Q1236.36 1486.25 1234.05 1485.81 Q1231.76 1485.39 1229.3 1484.54 L1229.3 1480.02 Q1231.25 1481.16 1233.56 1481.74 Q1235.88 1482.32 1238.4 1482.32 Q1242.8 1482.32 1245.09 1480.58 Q1247.41 1478.84 1247.41 1475.53 Q1247.41 1472.48 1245.25 1470.77 Q1243.12 1469.03 1239.3 1469.03 L1235.28 1469.03 L1235.28 1465.19 L1239.49 1465.19 Q1242.94 1465.19 1244.77 1463.82 Q1246.6 1462.43 1246.6 1459.84 Q1246.6 1457.18 1244.7 1455.77 Q1242.82 1454.33 1239.3 1454.33 Q1237.38 1454.33 1235.18 1454.75 Q1232.98 1455.16 1230.35 1456.04 L1230.35 1451.88 Q1233.01 1451.14 1235.32 1450.77 Q1237.66 1450.39 1239.72 1450.39 Q1245.04 1450.39 1248.15 1452.83 Q1251.25 1455.23 1251.25 1459.35 Q1251.25 1462.22 1249.6 1464.21 Q1247.96 1466.18 1244.93 1466.95 Z" fill="#000000" fill-rule="nonzero" fill-opacity="1" /><path clip-path="url(#clip330)" d="M1270.92 1454.1 Q1267.31 1454.1 1265.48 1457.66 Q1263.68 1461.2 1263.68 1468.33 Q1263.68 1475.44 1265.48 1479.01 Q1267.31 1482.55 1270.92 1482.55 Q1274.56 1482.55 1276.36 1479.01 Q1278.19 1475.44 1278.19 1468.33 Q1278.19 1461.2 1276.36 1457.66 Q1274.56 1454.1 1270.92 1454.1 M1270.92 1450.39 Q1276.73 1450.39 1279.79 1455 Q1282.87 1459.58 1282.87 1468.33 Q1282.87 1477.06 1279.79 1481.67 Q1276.73 1486.25 1270.92 1486.25 Q1265.11 1486.25 1262.04 1481.67 Q1258.98 1477.06 1258.98 1468.33 Q1258.98 1459.58 1262.04 1455 Q1265.11 1450.39 1270.92 1450.39 Z" fill="#000000" fill-rule="nonzero" fill-opacity="1" /><path clip-path="url(#clip330)" d="M1589.45 1455.09 L1577.64 1473.54 L1589.45 1473.54 L1589.45 1455.09 M1588.22 1451.02 L1594.1 1451.02 L1594.1 1473.54 L1599.03 1473.54 L1599.03 1477.43 L1594.1 1477.43 L1594.1 1485.58 L1589.45 1485.58 L1589.45 1477.43 L1573.85 1477.43 L1573.85 1472.92 L1588.22 1451.02 Z" fill="#000000" fill-rule="nonzero" fill-opacity="1" /><path clip-path="url(#clip330)" d="M1616.76 1454.1 Q1613.15 1454.1 1611.32 1457.66 Q1609.52 1461.2 1609.52 1468.33 Q1609.52 1475.44 1611.32 1479.01 Q1613.15 1482.55 1616.76 1482.55 Q1620.4 1482.55 1622.2 1479.01 Q1624.03 1475.44 1624.03 1468.33 Q1624.03 1461.2 1622.2 1457.66 Q1620.4 1454.1 1616.76 1454.1 M1616.76 1450.39 Q1622.57 1450.39 1625.63 1455 Q1628.71 1459.58 1628.71 1468.33 Q1628.71 1477.06 1625.63 1481.67 Q1622.57 1486.25 1616.76 1486.25 Q1610.95 1486.25 1607.87 1481.67 Q1604.82 1477.06 1604.82 1468.33 Q1604.82 1459.58 1607.87 1455 Q1610.95 1450.39 1616.76 1450.39 Z" fill="#000000" fill-rule="nonzero" fill-opacity="1" /><path clip-path="url(#clip330)" d="M1921.17 1451.02 L1939.52 1451.02 L1939.52 1454.96 L1925.45 1454.96 L1925.45 1463.43 Q1926.47 1463.08 1927.49 1462.92 Q1928.5 1462.73 1929.52 1462.73 Q1935.31 1462.73 1938.69 1465.9 Q1942.07 1469.08 1942.07 1474.49 Q1942.07 1480.07 1938.6 1483.17 Q1935.12 1486.25 1928.81 1486.25 Q1926.63 1486.25 1924.36 1485.88 Q1922.12 1485.51 1919.71 1484.77 L1919.71 1480.07 Q1921.79 1481.2 1924.01 1481.76 Q1926.24 1482.32 1928.71 1482.32 Q1932.72 1482.32 1935.05 1480.21 Q1937.39 1478.1 1937.39 1474.49 Q1937.39 1470.88 1935.05 1468.77 Q1932.72 1466.67 1928.71 1466.67 Q1926.84 1466.67 1924.96 1467.08 Q1923.11 1467.5 1921.17 1468.38 L1921.17 1451.02 Z" fill="#000000" fill-rule="nonzero" fill-opacity="1" /><path clip-path="url(#clip330)" d="M1961.28 1454.1 Q1957.67 1454.1 1955.84 1457.66 Q1954.04 1461.2 1954.04 1468.33 Q1954.04 1475.44 1955.84 1479.01 Q1957.67 1482.55 1961.28 1482.55 Q1964.92 1482.55 1966.72 1479.01 Q1968.55 1475.44 1968.55 1468.33 Q1968.55 1461.2 1966.72 1457.66 Q1964.92 1454.1 1961.28 1454.1 M1961.28 1450.39 Q1967.09 1450.39 1970.15 1455 Q1973.23 1459.58 1973.23 1468.33 Q1973.23 1477.06 1970.15 1481.67 Q1967.09 1486.25 1961.28 1486.25 Q1955.47 1486.25 1952.39 1481.67 Q1949.34 1477.06 1949.34 1468.33 Q1949.34 1459.58 1952.39 1455 Q1955.47 1450.39 1961.28 1450.39 Z" fill="#000000" fill-rule="nonzero" fill-opacity="1" /><path clip-path="url(#clip330)" d="M2277.06 1466.44 Q2273.91 1466.44 2272.06 1468.59 Q2270.23 1470.74 2270.23 1474.49 Q2270.23 1478.22 2272.06 1480.39 Q2273.91 1482.55 2277.06 1482.55 Q2280.21 1482.55 2282.04 1480.39 Q2283.89 1478.22 2283.89 1474.49 Q2283.89 1470.74 2282.04 1468.59 Q2280.21 1466.44 2277.06 1466.44 M2286.34 1451.78 L2286.34 1456.04 Q2284.59 1455.21 2282.78 1454.77 Q2281 1454.33 2279.24 1454.33 Q2274.61 1454.33 2272.16 1457.45 Q2269.72 1460.58 2269.38 1466.9 Q2270.74 1464.89 2272.8 1463.82 Q2274.86 1462.73 2277.34 1462.73 Q2282.55 1462.73 2285.56 1465.9 Q2288.59 1469.05 2288.59 1474.49 Q2288.59 1479.82 2285.44 1483.03 Q2282.29 1486.25 2277.06 1486.25 Q2271.07 1486.25 2267.9 1481.67 Q2264.72 1477.06 2264.72 1468.33 Q2264.72 1460.14 2268.61 1455.28 Q2272.5 1450.39 2279.05 1450.39 Q2280.81 1450.39 2282.59 1450.74 Q2284.4 1451.09 2286.34 1451.78 Z" fill="#000000" fill-rule="nonzero" fill-opacity="1" /><path clip-path="url(#clip330)" d="M2306.65 1454.1 Q2303.03 1454.1 2301.21 1457.66 Q2299.4 1461.2 2299.4 1468.33 Q2299.4 1475.44 2301.21 1479.01 Q2303.03 1482.55 2306.65 1482.55 Q2310.28 1482.55 2312.09 1479.01 Q2313.91 1475.44 2313.91 1468.33 Q2313.91 1461.2 2312.09 1457.66 Q2310.28 1454.1 2306.65 1454.1 M2306.65 1450.39 Q2312.46 1450.39 2315.51 1455 Q2318.59 1459.58 2318.59 1468.33 Q2318.59 1477.06 2315.51 1481.67 Q2312.46 1486.25 2306.65 1486.25 Q2300.84 1486.25 2297.76 1481.67 Q2294.7 1477.06 2294.7 1468.33 Q2294.7 1459.58 2297.76 1455 Q2300.84 1450.39 2306.65 1450.39 Z" fill="#000000" fill-rule="nonzero" fill-opacity="1" /><path clip-path="url(#clip330)" d="M1096.81 1545.76 Q1098.88 1546.46 1100.82 1548.76 Q1102.79 1551.05 1104.77 1555.06 L1111.29 1568.04 L1104.38 1568.04 L1098.3 1555.85 Q1095.95 1551.08 1093.72 1549.52 Q1091.53 1547.96 1087.71 1547.96 L1080.7 1547.96 L1080.7 1568.04 L1074.27 1568.04 L1074.27 1520.52 L1088.79 1520.52 Q1096.94 1520.52 1100.95 1523.93 Q1104.96 1527.34 1104.96 1534.21 Q1104.96 1538.7 1102.86 1541.66 Q1100.79 1544.62 1096.81 1545.76 M1080.7 1525.81 L1080.7 1542.68 L1088.79 1542.68 Q1093.44 1542.68 1095.79 1540.54 Q1098.18 1538.38 1098.18 1534.21 Q1098.18 1530.04 1095.79 1527.94 Q1093.44 1525.81 1088.79 1525.81 L1080.7 1525.81 Z" fill="#000000" fill-rule="nonzero" fill-opacity="1" /><path clip-path="url(#clip330)" d="M1130.2 1536.5 Q1125.49 1536.5 1122.75 1540.19 Q1120.01 1543.85 1120.01 1550.25 Q1120.01 1556.65 1122.72 1560.34 Q1125.45 1564 1130.2 1564 Q1134.88 1564 1137.61 1560.31 Q1140.35 1556.62 1140.35 1550.25 Q1140.35 1543.92 1137.61 1540.23 Q1134.88 1536.5 1130.2 1536.5 M1130.2 1531.54 Q1137.84 1531.54 1142.2 1536.5 Q1146.56 1541.47 1146.56 1550.25 Q1146.56 1559 1142.2 1564 Q1137.84 1568.97 1130.2 1568.97 Q1122.53 1568.97 1118.17 1564 Q1113.84 1559 1113.84 1550.25 Q1113.84 1541.47 1118.17 1536.5 Q1122.53 1531.54 1130.2 1531.54 Z" fill="#000000" fill-rule="nonzero" fill-opacity="1" /><path clip-path="url(#clip330)" d="M1152.86 1532.4 L1158.72 1532.4 L1166.04 1560.21 L1173.32 1532.4 L1180.23 1532.4 L1187.55 1560.21 L1194.84 1532.4 L1200.7 1532.4 L1191.37 1568.04 L1184.46 1568.04 L1176.79 1538.83 L1169.09 1568.04 L1162.18 1568.04 L1152.86 1532.4 Z" fill="#000000" fill-rule="nonzero" fill-opacity="1" /><path clip-path="url(#clip330)" d="M1236.98 1525.81 L1236.98 1543.66 L1245.07 1543.66 Q1249.55 1543.66 1252 1541.34 Q1254.46 1539.02 1254.46 1534.72 Q1254.46 1530.45 1252 1528.13 Q1249.55 1525.81 1245.07 1525.81 L1236.98 1525.81 M1230.55 1520.52 L1245.07 1520.52 Q1253.06 1520.52 1257.13 1524.15 Q1261.24 1527.75 1261.24 1534.72 Q1261.24 1541.75 1257.13 1545.35 Q1253.06 1548.95 1245.07 1548.95 L1236.98 1548.95 L1236.98 1568.04 L1230.55 1568.04 L1230.55 1520.52 Z" fill="#000000" fill-rule="nonzero" fill-opacity="1" /><path clip-path="url(#clip330)" d="M1281.1 1536.5 Q1276.39 1536.5 1273.65 1540.19 Q1270.91 1543.85 1270.91 1550.25 Q1270.91 1556.65 1273.62 1560.34 Q1276.35 1564 1281.1 1564 Q1285.77 1564 1288.51 1560.31 Q1291.25 1556.62 1291.25 1550.25 Q1291.25 1543.92 1288.51 1540.23 Q1285.77 1536.5 1281.1 1536.5 M1281.1 1531.54 Q1288.74 1531.54 1293.1 1536.5 Q1297.46 1541.47 1297.46 1550.25 Q1297.46 1559 1293.1 1564 Q1288.74 1568.97 1281.1 1568.97 Q1273.43 1568.97 1269.07 1564 Q1264.74 1559 1264.74 1550.25 Q1264.74 1541.47 1269.07 1536.5 Q1273.43 1531.54 1281.1 1531.54 Z" fill="#000000" fill-rule="nonzero" fill-opacity="1" /><path clip-path="url(#clip330)" d="M1329.89 1533.45 L1329.89 1538.98 Q1327.41 1537.71 1324.73 1537.07 Q1322.06 1536.44 1319.19 1536.44 Q1314.83 1536.44 1312.64 1537.77 Q1310.47 1539.11 1310.47 1541.79 Q1310.47 1543.82 1312.03 1545 Q1313.59 1546.15 1318.3 1547.2 L1320.31 1547.64 Q1326.55 1548.98 1329.16 1551.43 Q1331.8 1553.85 1331.8 1558.21 Q1331.8 1563.17 1327.85 1566.07 Q1323.94 1568.97 1317.06 1568.97 Q1314.2 1568.97 1311.08 1568.39 Q1307.99 1567.85 1304.55 1566.74 L1304.55 1560.69 Q1307.8 1562.38 1310.95 1563.24 Q1314.1 1564.07 1317.19 1564.07 Q1321.33 1564.07 1323.56 1562.66 Q1325.78 1561.23 1325.78 1558.65 Q1325.78 1556.27 1324.16 1554.99 Q1322.57 1553.72 1317.13 1552.54 L1315.09 1552.07 Q1309.65 1550.92 1307.23 1548.56 Q1304.81 1546.18 1304.81 1542.04 Q1304.81 1537.01 1308.37 1534.27 Q1311.94 1531.54 1318.49 1531.54 Q1321.74 1531.54 1324.61 1532.01 Q1327.47 1532.49 1329.89 1533.45 Z" fill="#000000" fill-rule="nonzero" fill-opacity="1" /><path clip-path="url(#clip330)" d="M1341.12 1532.4 L1346.98 1532.4 L1346.98 1568.04 L1341.12 1568.04 L1341.12 1532.4 M1341.12 1518.52 L1346.98 1518.52 L1346.98 1525.93 L1341.12 1525.93 L1341.12 1518.52 Z" fill="#000000" fill-rule="nonzero" fill-opacity="1" /><path clip-path="url(#clip330)" d="M1365.03 1522.27 L1365.03 1532.4 L1377.09 1532.4 L1377.09 1536.95 L1365.03 1536.95 L1365.03 1556.3 Q1365.03 1560.66 1366.21 1561.9 Q1367.42 1563.14 1371.08 1563.14 L1377.09 1563.14 L1377.09 1568.04 L1371.08 1568.04 Q1364.3 1568.04 1361.72 1565.53 Q1359.14 1562.98 1359.14 1556.3 L1359.14 1536.95 L1354.84 1536.95 L1354.84 1532.4 L1359.14 1532.4 L1359.14 1522.27 L1365.03 1522.27 Z" fill="#000000" fill-rule="nonzero" fill-opacity="1" /><path clip-path="url(#clip330)" d="M1384.79 1532.4 L1390.65 1532.4 L1390.65 1568.04 L1384.79 1568.04 L1384.79 1532.4 M1384.79 1518.52 L1390.65 1518.52 L1390.65 1525.93 L1384.79 1525.93 L1384.79 1518.52 Z" fill="#000000" fill-rule="nonzero" fill-opacity="1" /><path clip-path="url(#clip330)" d="M1416.72 1536.5 Q1412.01 1536.5 1409.27 1540.19 Q1406.53 1543.85 1406.53 1550.25 Q1406.53 1556.65 1409.24 1560.34 Q1411.98 1564 1416.72 1564 Q1421.4 1564 1424.13 1560.31 Q1426.87 1556.62 1426.87 1550.25 Q1426.87 1543.92 1424.13 1540.23 Q1421.4 1536.5 1416.72 1536.5 M1416.72 1531.54 Q1424.36 1531.54 1428.72 1536.5 Q1433.08 1541.47 1433.08 1550.25 Q1433.08 1559 1428.72 1564 Q1424.36 1568.97 1416.72 1568.97 Q1409.05 1568.97 1404.69 1564 Q1400.36 1559 1400.36 1550.25 Q1400.36 1541.47 1404.69 1536.5 Q1409.05 1531.54 1416.72 1531.54 Z" fill="#000000" fill-rule="nonzero" fill-opacity="1" /><path clip-path="url(#clip330)" d="M1472.42 1546.53 L1472.42 1568.04 L1466.56 1568.04 L1466.56 1546.72 Q1466.56 1541.66 1464.59 1539.14 Q1462.61 1536.63 1458.67 1536.63 Q1453.93 1536.63 1451.19 1539.65 Q1448.45 1542.68 1448.45 1547.9 L1448.45 1568.04 L1442.56 1568.04 L1442.56 1532.4 L1448.45 1532.4 L1448.45 1537.93 Q1450.55 1534.72 1453.38 1533.13 Q1456.25 1531.54 1459.97 1531.54 Q1466.12 1531.54 1469.27 1535.36 Q1472.42 1539.14 1472.42 1546.53 Z" fill="#000000" fill-rule="nonzero" fill-opacity="1" /><polyline clip-path="url(#clip330)" style="stroke:#000000; stroke-linecap:round; stroke-linejoin:round; stroke-width:4; stroke-opacity:1; fill:none" points="193.936,1423.18 193.936,47.2441 "/>
<polyline clip-path="url(#clip330)" style="stroke:#000000; stroke-linecap:round; stroke-linejoin:round; stroke-width:4; stroke-opacity:1; fill:none" points="193.936,1384.24 212.834,1384.24 "/>
<polyline clip-path="url(#clip330)" style="stroke:#000000; stroke-linecap:round; stroke-linejoin:round; stroke-width:4; stroke-opacity:1; fill:none" points="193.936,1059.66 212.834,1059.66 "/>
<polyline clip-path="url(#clip330)" style="stroke:#000000; stroke-linecap:round; stroke-linejoin:round; stroke-width:4; stroke-opacity:1; fill:none" points="193.936,735.074 212.834,735.074 "/>
<polyline clip-path="url(#clip330)" style="stroke:#000000; stroke-linecap:round; stroke-linejoin:round; stroke-width:4; stroke-opacity:1; fill:none" points="193.936,410.491 212.834,410.491 "/>
<polyline clip-path="url(#clip330)" style="stroke:#000000; stroke-linecap:round; stroke-linejoin:round; stroke-width:4; stroke-opacity:1; fill:none" points="193.936,85.9089 212.834,85.9089 "/>
<path clip-path="url(#clip330)" d="M50.9921 1384.69 L80.6679 1384.69 L80.6679 1388.62 L50.9921 1388.62 L50.9921 1384.69 Z" fill="#000000" fill-rule="nonzero" fill-opacity="1" /><path clip-path="url(#clip330)" d="M91.5706 1397.58 L99.2095 1397.58 L99.2095 1371.22 L90.8993 1372.88 L90.8993 1368.62 L99.1632 1366.96 L103.839 1366.96 L103.839 1397.58 L111.478 1397.58 L111.478 1401.52 L91.5706 1401.52 L91.5706 1397.58 Z" fill="#000000" fill-rule="nonzero" fill-opacity="1" /><path clip-path="url(#clip330)" d="M120.922 1395.64 L125.807 1395.64 L125.807 1401.52 L120.922 1401.52 L120.922 1395.64 Z" fill="#000000" fill-rule="nonzero" fill-opacity="1" /><path clip-path="url(#clip330)" d="M145.992 1370.04 Q142.381 1370.04 140.552 1373.6 Q138.746 1377.14 138.746 1384.27 Q138.746 1391.38 140.552 1394.94 Q142.381 1398.49 145.992 1398.49 Q149.626 1398.49 151.431 1394.94 Q153.26 1391.38 153.26 1384.27 Q153.26 1377.14 151.431 1373.6 Q149.626 1370.04 145.992 1370.04 M145.992 1366.33 Q151.802 1366.33 154.857 1370.94 Q157.936 1375.52 157.936 1384.27 Q157.936 1393 154.857 1397.61 Q151.802 1402.19 145.992 1402.19 Q140.181 1402.19 137.103 1397.61 Q134.047 1393 134.047 1384.27 Q134.047 1375.52 137.103 1370.94 Q140.181 1366.33 145.992 1366.33 Z" fill="#000000" fill-rule="nonzero" fill-opacity="1" /><path clip-path="url(#clip330)" d="M51.9875 1060.11 L81.6633 1060.11 L81.6633 1064.04 L51.9875 1064.04 L51.9875 1060.11 Z" fill="#000000" fill-rule="nonzero" fill-opacity="1" /><path clip-path="url(#clip330)" d="M101.756 1045.45 Q98.1447 1045.45 96.316 1049.02 Q94.5104 1052.56 94.5104 1059.69 Q94.5104 1066.8 96.316 1070.36 Q98.1447 1073.9 101.756 1073.9 Q105.39 1073.9 107.196 1070.36 Q109.024 1066.8 109.024 1059.69 Q109.024 1052.56 107.196 1049.02 Q105.39 1045.45 101.756 1045.45 M101.756 1041.75 Q107.566 1041.75 110.621 1046.36 Q113.7 1050.94 113.7 1059.69 Q113.7 1068.42 110.621 1073.02 Q107.566 1077.61 101.756 1077.61 Q95.9456 1077.61 92.8669 1073.02 Q89.8114 1068.42 89.8114 1059.69 Q89.8114 1050.94 92.8669 1046.36 Q95.9456 1041.75 101.756 1041.75 Z" fill="#000000" fill-rule="nonzero" fill-opacity="1" /><path clip-path="url(#clip330)" d="M121.918 1071.06 L126.802 1071.06 L126.802 1076.94 L121.918 1076.94 L121.918 1071.06 Z" fill="#000000" fill-rule="nonzero" fill-opacity="1" /><path clip-path="url(#clip330)" d="M137.033 1042.38 L155.39 1042.38 L155.39 1046.31 L141.316 1046.31 L141.316 1054.78 Q142.334 1054.44 143.353 1054.27 Q144.371 1054.09 145.39 1054.09 Q151.177 1054.09 154.556 1057.26 Q157.936 1060.43 157.936 1065.85 Q157.936 1071.43 154.464 1074.53 Q150.992 1077.61 144.672 1077.61 Q142.496 1077.61 140.228 1077.24 Q137.982 1076.87 135.575 1076.13 L135.575 1071.43 Q137.658 1072.56 139.881 1073.12 Q142.103 1073.67 144.58 1073.67 Q148.584 1073.67 150.922 1071.57 Q153.26 1069.46 153.26 1065.85 Q153.26 1062.24 150.922 1060.13 Q148.584 1058.02 144.58 1058.02 Q142.705 1058.02 140.83 1058.44 Q138.978 1058.86 137.033 1059.74 L137.033 1042.38 Z" fill="#000000" fill-rule="nonzero" fill-opacity="1" /><path clip-path="url(#clip330)" d="M100.76 720.872 Q97.1493 720.872 95.3206 724.437 Q93.515 727.979 93.515 735.108 Q93.515 742.215 95.3206 745.78 Q97.1493 749.321 100.76 749.321 Q104.395 749.321 106.2 745.78 Q108.029 742.215 108.029 735.108 Q108.029 727.979 106.2 724.437 Q104.395 720.872 100.76 720.872 M100.76 717.169 Q106.571 717.169 109.626 721.775 Q112.705 726.358 112.705 735.108 Q112.705 743.835 109.626 748.442 Q106.571 753.025 100.76 753.025 Q94.9502 753.025 91.8715 748.442 Q88.816 743.835 88.816 735.108 Q88.816 726.358 91.8715 721.775 Q94.9502 717.169 100.76 717.169 Z" fill="#000000" fill-rule="nonzero" fill-opacity="1" /><path clip-path="url(#clip330)" d="M120.922 746.474 L125.807 746.474 L125.807 752.354 L120.922 752.354 L120.922 746.474 Z" fill="#000000" fill-rule="nonzero" fill-opacity="1" /><path clip-path="url(#clip330)" d="M145.992 720.872 Q142.381 720.872 140.552 724.437 Q138.746 727.979 138.746 735.108 Q138.746 742.215 140.552 745.78 Q142.381 749.321 145.992 749.321 Q149.626 749.321 151.431 745.78 Q153.26 742.215 153.26 735.108 Q153.26 727.979 151.431 724.437 Q149.626 720.872 145.992 720.872 M145.992 717.169 Q151.802 717.169 154.857 721.775 Q157.936 726.358 157.936 735.108 Q157.936 743.835 154.857 748.442 Q151.802 753.025 145.992 753.025 Q140.181 753.025 137.103 748.442 Q134.047 743.835 134.047 735.108 Q134.047 726.358 137.103 721.775 Q140.181 717.169 145.992 717.169 Z" fill="#000000" fill-rule="nonzero" fill-opacity="1" /><path clip-path="url(#clip330)" d="M101.756 396.29 Q98.1447 396.29 96.316 399.855 Q94.5104 403.396 94.5104 410.526 Q94.5104 417.632 96.316 421.197 Q98.1447 424.739 101.756 424.739 Q105.39 424.739 107.196 421.197 Q109.024 417.632 109.024 410.526 Q109.024 403.396 107.196 399.855 Q105.39 396.29 101.756 396.29 M101.756 392.586 Q107.566 392.586 110.621 397.193 Q113.7 401.776 113.7 410.526 Q113.7 419.253 110.621 423.859 Q107.566 428.443 101.756 428.443 Q95.9456 428.443 92.8669 423.859 Q89.8114 419.253 89.8114 410.526 Q89.8114 401.776 92.8669 397.193 Q95.9456 392.586 101.756 392.586 Z" fill="#000000" fill-rule="nonzero" fill-opacity="1" /><path clip-path="url(#clip330)" d="M121.918 421.892 L126.802 421.892 L126.802 427.771 L121.918 427.771 L121.918 421.892 Z" fill="#000000" fill-rule="nonzero" fill-opacity="1" /><path clip-path="url(#clip330)" d="M137.033 393.211 L155.39 393.211 L155.39 397.146 L141.316 397.146 L141.316 405.619 Q142.334 405.271 143.353 405.109 Q144.371 404.924 145.39 404.924 Q151.177 404.924 154.556 408.095 Q157.936 411.267 157.936 416.683 Q157.936 422.262 154.464 425.364 Q150.992 428.443 144.672 428.443 Q142.496 428.443 140.228 428.072 Q137.982 427.702 135.575 426.961 L135.575 422.262 Q137.658 423.396 139.881 423.952 Q142.103 424.507 144.58 424.507 Q148.584 424.507 150.922 422.401 Q153.26 420.294 153.26 416.683 Q153.26 413.072 150.922 410.966 Q148.584 408.859 144.58 408.859 Q142.705 408.859 140.83 409.276 Q138.978 409.693 137.033 410.572 L137.033 393.211 Z" fill="#000000" fill-rule="nonzero" fill-opacity="1" /><path clip-path="url(#clip330)" d="M91.5706 99.2537 L99.2095 99.2537 L99.2095 72.8881 L90.8993 74.5548 L90.8993 70.2955 L99.1632 68.6289 L103.839 68.6289 L103.839 99.2537 L111.478 99.2537 L111.478 103.189 L91.5706 103.189 L91.5706 99.2537 Z" fill="#000000" fill-rule="nonzero" fill-opacity="1" /><path clip-path="url(#clip330)" d="M120.922 97.3093 L125.807 97.3093 L125.807 103.189 L120.922 103.189 L120.922 97.3093 Z" fill="#000000" fill-rule="nonzero" fill-opacity="1" /><path clip-path="url(#clip330)" d="M145.992 71.7076 Q142.381 71.7076 140.552 75.2724 Q138.746 78.814 138.746 85.9436 Q138.746 93.05 140.552 96.6148 Q142.381 100.156 145.992 100.156 Q149.626 100.156 151.431 96.6148 Q153.26 93.05 153.26 85.9436 Q153.26 78.814 151.431 75.2724 Q149.626 71.7076 145.992 71.7076 M145.992 68.0039 Q151.802 68.0039 154.857 72.6103 Q157.936 77.1936 157.936 85.9436 Q157.936 94.6704 154.857 99.2769 Q151.802 103.86 145.992 103.86 Q140.181 103.86 137.103 99.2769 Q134.047 94.6704 134.047 85.9436 Q134.047 77.1936 137.103 72.6103 Q140.181 68.0039 145.992 68.0039 Z" fill="#000000" fill-rule="nonzero" fill-opacity="1" /><polyline clip-path="url(#clip332)" style="stroke:#009af9; stroke-linecap:round; stroke-linejoin:round; stroke-width:4; stroke-opacity:1; fill:none" points="255.035,118.098 289.554,211.471 324.073,356.77 358.592,539.586 393.111,741.787 427.63,943.323 462.149,1124.21 496.668,1266.5 531.187,1356.09 565.706,1384.1 600.225,1347.74 634.744,1250.63 669.263,1102.38 703.782,917.716 738.301,714.935 772.82,514.151 807.339,335.276 841.858,196.049 876.377,110.276 910.896,86.4643 945.415,126.975 979.934,227.79 1014.45,378.912 1048.97,565.355 1083.49,768.629 1118.01,968.574 1152.53,1145.36 1187.05,1281.47 1221.57,1363.38 1256.09,1382.99 1290.61,1338.34 1325.12,1233.87 1359.64,1079.93 1394.16,891.796 1428.68,688.117 1463.2,489.094 1497.72,314.466 1532.24,181.548 1566.76,103.524 1601.28,88.1297 1635.8,136.893 1670.31,244.977 1704.83,401.664 1739.35,591.415 1773.87,795.412 1808.39,993.426 1842.91,1165.82 1877.43,1295.5 1911.95,1369.59 1946.47,1380.77 1980.99,1327.91 2015.51,1216.26 2050.02,1056.89 2084.54,865.608 2119.06,661.379 2153.58,464.459 2188.1,294.375 2222.62,167.995 2257.14,97.8521 2291.66,90.9021 "/>
<polyline clip-path="url(#clip332)" style="stroke:#e26f46; stroke-linecap:round; stroke-linejoin:round; stroke-width:4; stroke-opacity:1; fill:none" points="255.035,620.241 289.554,509.031 324.073,404.95 358.592,311.281 393.111,230.978 427.63,166.574 462.149,120.1 496.668,93.0221 531.187,86.1943 565.706,99.8318 600.225,133.505 634.744,186.151 669.263,256.109 703.782,341.174 738.301,438.663 772.82,545.5 807.339,658.316 841.858,773.553 876.377,887.577 910.896,996.79 945.415,1097.75 979.934,1187.27 1014.45,1262.53 1048.97,1321.15 1083.49,1361.29 1118.01,1381.68 1152.53,1381.67 1187.05,1361.27 1221.57,1321.12 1256.09,1262.49 1290.61,1187.22 1325.12,1097.69 1359.64,996.729 1394.16,887.512 1428.68,773.486 1463.2,658.25 1497.72,545.436 1532.24,438.603 1566.76,341.121 1601.28,256.064 1635.8,186.115 1670.31,133.479 1704.83,99.8181 1739.35,86.1923 1773.87,93.032 1808.39,120.121 1842.91,166.606 1877.43,231.02 1911.95,311.331 1946.47,405.007 1980.99,509.094 2015.51,620.307 2050.02,735.14 2084.54,849.971 2119.06,961.179 2153.58,1065.25 2188.1,1158.92 2222.62,1239.21 2257.14,1303.61 2291.66,1350.07 "/>
<polyline clip-path="url(#clip332)" style="stroke:#3da44d; stroke-linecap:round; stroke-linejoin:round; stroke-width:4; stroke-opacity:1; fill:none" points="255.035,96.146 289.554,126.535 324.073,176.116 358.592,243.327 393.111,326.048 427.63,421.669 462.149,527.174 496.668,639.237 531.187,754.322 565.706,868.8 600.225,979.06 634.744,1081.63 669.263,1173.26 703.782,1251.08 738.301,1312.62 772.82,1355.94 807.339,1379.68 841.858,1383.1 876.377,1366.07 910.896,1329.14 945.415,1273.48 979.934,1200.83 1014.45,1113.5 1048.97,1014.23 1083.49,906.155 1118.01,792.684 1152.53,677.397 1187.05,563.928 1221.57,455.857 1256.09,356.593 1290.61,269.266 1325.12,196.63 1359.64,140.977 1394.16,104.061 1428.68,87.0464 1463.2,90.4707 1497.72,114.225 1532.24,157.561 1566.76,219.112 1601.28,296.936 1635.8,388.578 1670.31,491.149 1704.83,601.413 1739.35,715.892 1773.87,830.977 1808.39,943.036 1842.91,1048.54 1877.43,1144.15 1911.95,1226.86 1946.47,1294.06 1980.99,1343.64 2015.51,1374.01 2050.02,1384.24 2084.54,1373.99 2119.06,1343.59 2153.58,1294 2188.1,1226.78 2222.62,1144.05 2257.14,1048.42 2291.66,942.91 "/>
<polyline clip-path="url(#clip332)" style="stroke:#c271d2; stroke-linecap:round; stroke-linejoin:round; stroke-width:4; stroke-opacity:1; fill:none" points="255.035,670.265 289.554,606.104 324.073,543.232 358.592,482.277 393.111,423.847 427.63,368.528 462.149,316.87 496.668,269.391 531.187,226.565 565.706,188.82 600.225,156.533 634.744,130.027 669.263,109.566 703.782,95.3544 738.301,87.535 772.82,86.1857 807.339,91.3198 841.858,102.886 876.377,120.769 910.896,144.79 945.415,174.709 979.934,210.226 1014.45,250.988 1048.97,296.587 1083.49,346.567 1118.01,400.428 1152.53,457.634 1187.05,517.611 1221.57,579.761 1256.09,643.463 1290.61,708.081 1325.12,772.968 1359.64,837.477 1394.16,900.962 1428.68,962.79 1463.2,1022.34 1497.72,1079.02 1532.24,1132.27 1566.76,1181.55 1601.28,1226.36 1635.8,1266.27 1670.31,1300.87 1704.83,1329.82 1739.35,1352.82 1773.87,1369.65 1808.39,1380.14 1842.91,1384.19 1877.43,1381.75 1911.95,1372.85 1946.47,1357.57 1980.99,1336.08 2015.51,1308.58 2050.02,1275.35 2084.54,1236.72 2119.06,1193.09 2153.58,1144.87 2188.1,1092.56 2222.62,1036.68 2257.14,977.781 2291.66,916.46 "/>
<polyline clip-path="url(#clip332)" style="stroke:#ac8d18; stroke-linecap:round; stroke-linejoin:round; stroke-width:4; stroke-opacity:1; fill:none" points="255.035,89.152 289.554,98.8489 324.073,114.903 358.592,137.153 393.111,165.378 427.63,199.295 462.149,238.565 496.668,282.796 531.187,331.546 565.706,384.328 600.225,440.615 634.744,499.844 669.263,561.423 703.782,624.737 738.301,689.153 772.82,754.029 807.339,818.715 841.858,882.565 876.377,944.942 910.896,1005.22 945.415,1062.8 979.934,1117.11 1014.45,1167.6 1048.97,1213.76 1083.49,1255.15 1118.01,1291.34 1152.53,1321.97 1187.05,1346.73 1221.57,1365.39 1256.09,1377.74 1290.61,1383.68 1325.12,1383.13 1359.64,1376.11 1394.16,1362.68 1428.68,1342.99 1463.2,1317.22 1497.72,1285.63 1532.24,1248.54 1566.76,1206.32 1601.28,1159.4 1635.8,1108.23 1670.31,1053.33 1704.83,995.258 1739.35,934.583 1773.87,871.915 1808.39,807.879 1842.91,743.116 1877.43,678.272 1911.95,613.996 1946.47,550.93 1980.99,489.704 2015.51,430.929 2050.02,375.193 2084.54,323.053 2119.06,275.03 2153.58,231.604 2188.1,193.207 2222.62,160.226 2257.14,132.987 2291.66,111.765 "/>
<path clip-path="url(#clip330)" d="M265.897 1377.32 L619.648 1377.32 L619.648 1066.28 L265.897 1066.28  Z" fill="#ffffff" fill-rule="evenodd" fill-opacity="1"/>
<polyline clip-path="url(#clip330)" style="stroke:#000000; stroke-linecap:round; stroke-linejoin:round; stroke-width:4; stroke-opacity:1; fill:none" points="265.897,1377.32 619.648,1377.32 619.648,1066.28 265.897,1066.28 265.897,1377.32 "/>
<polyline clip-path="url(#clip330)" style="stroke:#009af9; stroke-linecap:round; stroke-linejoin:round; stroke-width:4; stroke-opacity:1; fill:none" points="289.884,1118.12 433.805,1118.12 "/>
<path clip-path="url(#clip330)" d="M478.301 1110.46 L478.301 1114.45 Q476.495 1113.45 474.667 1112.96 Q472.861 1112.46 471.009 1112.46 Q466.866 1112.46 464.574 1115.09 Q462.282 1117.71 462.282 1122.46 Q462.282 1127.2 464.574 1129.84 Q466.866 1132.46 471.009 1132.46 Q472.861 1132.46 474.667 1131.97 Q476.495 1131.46 478.301 1130.46 L478.301 1134.4 Q476.519 1135.23 474.597 1135.65 Q472.699 1136.07 470.546 1136.07 Q464.69 1136.07 461.241 1132.39 Q457.792 1128.71 457.792 1122.46 Q457.792 1116.11 461.264 1112.48 Q464.759 1108.84 470.824 1108.84 Q472.792 1108.84 474.667 1109.26 Q476.542 1109.65 478.301 1110.46 Z" fill="#000000" fill-rule="nonzero" fill-opacity="1" /><path clip-path="url(#clip330)" d="M495.755 1112.46 Q492.329 1112.46 490.338 1115.14 Q488.347 1117.8 488.347 1122.46 Q488.347 1127.11 490.315 1129.79 Q492.305 1132.46 495.755 1132.46 Q499.157 1132.46 501.148 1129.77 Q503.139 1127.09 503.139 1122.46 Q503.139 1117.85 501.148 1115.16 Q499.157 1112.46 495.755 1112.46 M495.755 1108.84 Q501.31 1108.84 504.481 1112.46 Q507.653 1116.07 507.653 1122.46 Q507.653 1128.82 504.481 1132.46 Q501.31 1136.07 495.755 1136.07 Q490.176 1136.07 487.005 1132.46 Q483.856 1128.82 483.856 1122.46 Q483.856 1116.07 487.005 1112.46 Q490.176 1108.84 495.755 1108.84 Z" fill="#000000" fill-rule="nonzero" fill-opacity="1" /><path clip-path="url(#clip330)" d="M514.713 1099.38 L518.972 1099.38 L518.972 1135.4 L514.713 1135.4 L514.713 1099.38 Z" fill="#000000" fill-rule="nonzero" fill-opacity="1" /><path clip-path="url(#clip330)" d="M554.134 1116.25 Q550.986 1116.25 549.134 1118.4 Q547.305 1120.56 547.305 1124.31 Q547.305 1128.03 549.134 1130.21 Q550.986 1132.36 554.134 1132.36 Q557.282 1132.36 559.111 1130.21 Q560.963 1128.03 560.963 1124.31 Q560.963 1120.56 559.111 1118.4 Q557.282 1116.25 554.134 1116.25 M563.416 1101.6 L563.416 1105.86 Q561.657 1105.03 559.851 1104.59 Q558.069 1104.15 556.31 1104.15 Q551.68 1104.15 549.226 1107.27 Q546.796 1110.4 546.449 1116.71 Q547.814 1114.7 549.875 1113.64 Q551.935 1112.55 554.412 1112.55 Q559.62 1112.55 562.629 1115.72 Q565.662 1118.87 565.662 1124.31 Q565.662 1129.63 562.513 1132.85 Q559.365 1136.07 554.134 1136.07 Q548.139 1136.07 544.967 1131.48 Q541.796 1126.88 541.796 1118.15 Q541.796 1109.96 545.685 1105.09 Q549.574 1100.21 556.125 1100.21 Q557.884 1100.21 559.666 1100.56 Q561.472 1100.9 563.416 1101.6 Z" fill="#000000" fill-rule="nonzero" fill-opacity="1" /><polyline clip-path="url(#clip330)" style="stroke:#e26f46; stroke-linecap:round; stroke-linejoin:round; stroke-width:4; stroke-opacity:1; fill:none" points="289.884,1169.96 433.805,1169.96 "/>
<path clip-path="url(#clip330)" d="M478.301 1162.3 L478.301 1166.29 Q476.495 1165.29 474.667 1164.8 Q472.861 1164.3 471.009 1164.3 Q466.866 1164.3 464.574 1166.93 Q462.282 1169.55 462.282 1174.3 Q462.282 1179.04 464.574 1181.68 Q466.866 1184.3 471.009 1184.3 Q472.861 1184.3 474.667 1183.81 Q476.495 1183.3 478.301 1182.3 L478.301 1186.24 Q476.519 1187.07 474.597 1187.49 Q472.699 1187.91 470.546 1187.91 Q464.69 1187.91 461.241 1184.23 Q457.792 1180.55 457.792 1174.3 Q457.792 1167.95 461.264 1164.32 Q464.759 1160.68 470.824 1160.68 Q472.792 1160.68 474.667 1161.1 Q476.542 1161.49 478.301 1162.3 Z" fill="#000000" fill-rule="nonzero" fill-opacity="1" /><path clip-path="url(#clip330)" d="M495.755 1164.3 Q492.329 1164.3 490.338 1166.98 Q488.347 1169.64 488.347 1174.3 Q488.347 1178.95 490.315 1181.63 Q492.305 1184.3 495.755 1184.3 Q499.157 1184.3 501.148 1181.61 Q503.139 1178.93 503.139 1174.3 Q503.139 1169.69 501.148 1167 Q499.157 1164.3 495.755 1164.3 M495.755 1160.68 Q501.31 1160.68 504.481 1164.3 Q507.653 1167.91 507.653 1174.3 Q507.653 1180.66 504.481 1184.3 Q501.31 1187.91 495.755 1187.91 Q490.176 1187.91 487.005 1184.3 Q483.856 1180.66 483.856 1174.3 Q483.856 1167.91 487.005 1164.3 Q490.176 1160.68 495.755 1160.68 Z" fill="#000000" fill-rule="nonzero" fill-opacity="1" /><path clip-path="url(#clip330)" d="M514.713 1151.22 L518.972 1151.22 L518.972 1187.24 L514.713 1187.24 L514.713 1151.22 Z" fill="#000000" fill-rule="nonzero" fill-opacity="1" /><path clip-path="url(#clip330)" d="M542.375 1152.68 L564.597 1152.68 L564.597 1154.67 L552.051 1187.24 L547.166 1187.24 L558.972 1156.61 L542.375 1156.61 L542.375 1152.68 Z" fill="#000000" fill-rule="nonzero" fill-opacity="1" /><polyline clip-path="url(#clip330)" style="stroke:#3da44d; stroke-linecap:round; stroke-linejoin:round; stroke-width:4; stroke-opacity:1; fill:none" points="289.884,1221.8 433.805,1221.8 "/>
<path clip-path="url(#clip330)" d="M478.301 1214.14 L478.301 1218.13 Q476.495 1217.13 474.667 1216.64 Q472.861 1216.14 471.009 1216.14 Q466.866 1216.14 464.574 1218.77 Q462.282 1221.39 462.282 1226.14 Q462.282 1230.88 464.574 1233.52 Q466.866 1236.14 471.009 1236.14 Q472.861 1236.14 474.667 1235.65 Q476.495 1235.14 478.301 1234.14 L478.301 1238.08 Q476.519 1238.91 474.597 1239.33 Q472.699 1239.75 470.546 1239.75 Q464.69 1239.75 461.241 1236.07 Q457.792 1232.39 457.792 1226.14 Q457.792 1219.79 461.264 1216.16 Q464.759 1212.52 470.824 1212.52 Q472.792 1212.52 474.667 1212.94 Q476.542 1213.33 478.301 1214.14 Z" fill="#000000" fill-rule="nonzero" fill-opacity="1" /><path clip-path="url(#clip330)" d="M495.755 1216.14 Q492.329 1216.14 490.338 1218.82 Q488.347 1221.48 488.347 1226.14 Q488.347 1230.79 490.315 1233.47 Q492.305 1236.14 495.755 1236.14 Q499.157 1236.14 501.148 1233.45 Q503.139 1230.77 503.139 1226.14 Q503.139 1221.53 501.148 1218.84 Q499.157 1216.14 495.755 1216.14 M495.755 1212.52 Q501.31 1212.52 504.481 1216.14 Q507.653 1219.75 507.653 1226.14 Q507.653 1232.5 504.481 1236.14 Q501.31 1239.75 495.755 1239.75 Q490.176 1239.75 487.005 1236.14 Q483.856 1232.5 483.856 1226.14 Q483.856 1219.75 487.005 1216.14 Q490.176 1212.52 495.755 1212.52 Z" fill="#000000" fill-rule="nonzero" fill-opacity="1" /><path clip-path="url(#clip330)" d="M514.713 1203.06 L518.972 1203.06 L518.972 1239.08 L514.713 1239.08 L514.713 1203.06 Z" fill="#000000" fill-rule="nonzero" fill-opacity="1" /><path clip-path="url(#clip330)" d="M553.555 1222.66 Q550.222 1222.66 548.301 1224.45 Q546.402 1226.23 546.402 1229.35 Q546.402 1232.48 548.301 1234.26 Q550.222 1236.04 553.555 1236.04 Q556.888 1236.04 558.81 1234.26 Q560.731 1232.45 560.731 1229.35 Q560.731 1226.23 558.81 1224.45 Q556.912 1222.66 553.555 1222.66 M548.879 1220.67 Q545.87 1219.93 544.18 1217.87 Q542.514 1215.81 542.514 1212.85 Q542.514 1208.71 545.453 1206.3 Q548.416 1203.89 553.555 1203.89 Q558.717 1203.89 561.657 1206.3 Q564.597 1208.71 564.597 1212.85 Q564.597 1215.81 562.907 1217.87 Q561.24 1219.93 558.254 1220.67 Q561.634 1221.46 563.509 1223.75 Q565.407 1226.04 565.407 1229.35 Q565.407 1234.38 562.328 1237.06 Q559.273 1239.75 553.555 1239.75 Q547.838 1239.75 544.759 1237.06 Q541.703 1234.38 541.703 1229.35 Q541.703 1226.04 543.601 1223.75 Q545.5 1221.46 548.879 1220.67 M547.166 1213.29 Q547.166 1215.97 548.833 1217.48 Q550.523 1218.98 553.555 1218.98 Q556.564 1218.98 558.254 1217.48 Q559.967 1215.97 559.967 1213.29 Q559.967 1210.6 558.254 1209.1 Q556.564 1207.59 553.555 1207.59 Q550.523 1207.59 548.833 1209.1 Q547.166 1210.6 547.166 1213.29 Z" fill="#000000" fill-rule="nonzero" fill-opacity="1" /><polyline clip-path="url(#clip330)" style="stroke:#c271d2; stroke-linecap:round; stroke-linejoin:round; stroke-width:4; stroke-opacity:1; fill:none" points="289.884,1273.64 433.805,1273.64 "/>
<path clip-path="url(#clip330)" d="M478.301 1265.98 L478.301 1269.97 Q476.495 1268.97 474.667 1268.48 Q472.861 1267.98 471.009 1267.98 Q466.866 1267.98 464.574 1270.61 Q462.282 1273.23 462.282 1277.98 Q462.282 1282.72 464.574 1285.36 Q466.866 1287.98 471.009 1287.98 Q472.861 1287.98 474.667 1287.49 Q476.495 1286.98 478.301 1285.98 L478.301 1289.92 Q476.519 1290.75 474.597 1291.17 Q472.699 1291.59 470.546 1291.59 Q464.69 1291.59 461.241 1287.91 Q457.792 1284.23 457.792 1277.98 Q457.792 1271.63 461.264 1268 Q464.759 1264.36 470.824 1264.36 Q472.792 1264.36 474.667 1264.78 Q476.542 1265.17 478.301 1265.98 Z" fill="#000000" fill-rule="nonzero" fill-opacity="1" /><path clip-path="url(#clip330)" d="M495.755 1267.98 Q492.329 1267.98 490.338 1270.66 Q488.347 1273.32 488.347 1277.98 Q488.347 1282.63 490.315 1285.31 Q492.305 1287.98 495.755 1287.98 Q499.157 1287.98 501.148 1285.29 Q503.139 1282.61 503.139 1277.98 Q503.139 1273.37 501.148 1270.68 Q499.157 1267.98 495.755 1267.98 M495.755 1264.36 Q501.31 1264.36 504.481 1267.98 Q507.653 1271.59 507.653 1277.98 Q507.653 1284.34 504.481 1287.98 Q501.31 1291.59 495.755 1291.59 Q490.176 1291.59 487.005 1287.98 Q483.856 1284.34 483.856 1277.98 Q483.856 1271.59 487.005 1267.98 Q490.176 1264.36 495.755 1264.36 Z" fill="#000000" fill-rule="nonzero" fill-opacity="1" /><path clip-path="url(#clip330)" d="M514.713 1254.9 L518.972 1254.9 L518.972 1290.92 L514.713 1290.92 L514.713 1254.9 Z" fill="#000000" fill-rule="nonzero" fill-opacity="1" /><path clip-path="url(#clip330)" d="M543.694 1290.2 L543.694 1285.94 Q545.453 1286.77 547.259 1287.21 Q549.064 1287.65 550.801 1287.65 Q555.43 1287.65 557.861 1284.55 Q560.314 1281.42 560.662 1275.08 Q559.319 1277.07 557.259 1278.14 Q555.199 1279.2 552.699 1279.2 Q547.514 1279.2 544.481 1276.08 Q541.472 1272.93 541.472 1267.49 Q541.472 1262.17 544.62 1258.95 Q547.768 1255.73 553 1255.73 Q558.995 1255.73 562.143 1260.34 Q565.314 1264.92 565.314 1273.67 Q565.314 1281.84 561.425 1286.73 Q557.56 1291.59 551.009 1291.59 Q549.25 1291.59 547.444 1291.24 Q545.639 1290.89 543.694 1290.2 M553 1275.55 Q556.148 1275.55 557.976 1273.39 Q559.828 1271.24 559.828 1267.49 Q559.828 1263.76 557.976 1261.61 Q556.148 1259.43 553 1259.43 Q549.851 1259.43 548 1261.61 Q546.171 1263.76 546.171 1267.49 Q546.171 1271.24 548 1273.39 Q549.851 1275.55 553 1275.55 Z" fill="#000000" fill-rule="nonzero" fill-opacity="1" /><polyline clip-path="url(#clip330)" style="stroke:#ac8d18; stroke-linecap:round; stroke-linejoin:round; stroke-width:4; stroke-opacity:1; fill:none" points="289.884,1325.48 433.805,1325.48 "/>
<path clip-path="url(#clip330)" d="M478.301 1317.82 L478.301 1321.81 Q476.495 1320.81 474.667 1320.32 Q472.861 1319.82 471.009 1319.82 Q466.866 1319.82 464.574 1322.45 Q462.282 1325.07 462.282 1329.82 Q462.282 1334.56 464.574 1337.2 Q466.866 1339.82 471.009 1339.82 Q472.861 1339.82 474.667 1339.33 Q476.495 1338.82 478.301 1337.82 L478.301 1341.76 Q476.519 1342.59 474.597 1343.01 Q472.699 1343.43 470.546 1343.43 Q464.69 1343.43 461.241 1339.75 Q457.792 1336.07 457.792 1329.82 Q457.792 1323.47 461.264 1319.84 Q464.759 1316.2 470.824 1316.2 Q472.792 1316.2 474.667 1316.62 Q476.542 1317.01 478.301 1317.82 Z" fill="#000000" fill-rule="nonzero" fill-opacity="1" /><path clip-path="url(#clip330)" d="M495.755 1319.82 Q492.329 1319.82 490.338 1322.5 Q488.347 1325.16 488.347 1329.82 Q488.347 1334.47 490.315 1337.15 Q492.305 1339.82 495.755 1339.82 Q499.157 1339.82 501.148 1337.13 Q503.139 1334.45 503.139 1329.82 Q503.139 1325.21 501.148 1322.52 Q499.157 1319.82 495.755 1319.82 M495.755 1316.2 Q501.31 1316.2 504.481 1319.82 Q507.653 1323.43 507.653 1329.82 Q507.653 1336.18 504.481 1339.82 Q501.31 1343.43 495.755 1343.43 Q490.176 1343.43 487.005 1339.82 Q483.856 1336.18 483.856 1329.82 Q483.856 1323.43 487.005 1319.82 Q490.176 1316.2 495.755 1316.2 Z" fill="#000000" fill-rule="nonzero" fill-opacity="1" /><path clip-path="url(#clip330)" d="M514.713 1306.74 L518.972 1306.74 L518.972 1342.76 L514.713 1342.76 L514.713 1306.74 Z" fill="#000000" fill-rule="nonzero" fill-opacity="1" /><path clip-path="url(#clip330)" d="M544.365 1338.82 L552.004 1338.82 L552.004 1312.45 L543.694 1314.12 L543.694 1309.86 L551.958 1308.2 L556.634 1308.2 L556.634 1338.82 L564.273 1338.82 L564.273 1342.76 L544.365 1342.76 L544.365 1338.82 Z" fill="#000000" fill-rule="nonzero" fill-opacity="1" /><path clip-path="url(#clip330)" d="M583.717 1311.27 Q580.106 1311.27 578.277 1314.84 Q576.472 1318.38 576.472 1325.51 Q576.472 1332.62 578.277 1336.18 Q580.106 1339.72 583.717 1339.72 Q587.351 1339.72 589.157 1336.18 Q590.985 1332.62 590.985 1325.51 Q590.985 1318.38 589.157 1314.84 Q587.351 1311.27 583.717 1311.27 M583.717 1307.57 Q589.527 1307.57 592.583 1312.18 Q595.661 1316.76 595.661 1325.51 Q595.661 1334.24 592.583 1338.84 Q589.527 1343.43 583.717 1343.43 Q577.907 1343.43 574.828 1338.84 Q571.773 1334.24 571.773 1325.51 Q571.773 1316.76 574.828 1312.18 Q577.907 1307.57 583.717 1307.57 Z" fill="#000000" fill-rule="nonzero" fill-opacity="1" /></svg>
