<?xml version="1.0" encoding="utf-8"?>
<svg xmlns="http://www.w3.org/2000/svg" xmlns:xlink="http://www.w3.org/1999/xlink" width="400" height="300" viewBox="0 0 1600 1200">
<defs>
  <clipPath id="clip340">
    <rect x="0" y="0" width="1600" height="1200"/>
  </clipPath>
</defs>
<path clip-path="url(#clip340)" d="M0 1200 L1600 1200 L1600 0 L0 0  Z" fill="#ffffff" fill-rule="evenodd" fill-opacity="1"/>
<defs>
  <clipPath id="clip341">
    <rect x="320" y="0" width="1121" height="1121"/>
  </clipPath>
</defs>
<path clip-path="url(#clip340)" d="M104.177 1086.13 L1552.76 1086.13 L1552.76 47.2441 L104.177 47.2441  Z" fill="#ffffff" fill-rule="evenodd" fill-opacity="1"/>
<defs>
  <clipPath id="clip342">
    <rect x="104" y="47" width="1450" height="1040"/>
  </clipPath>
</defs>
<polyline clip-path="url(#clip342)" style="stroke:#000000; stroke-linecap:round; stroke-linejoin:round; stroke-width:2; stroke-opacity:0.1; fill:none" points="315.998,1086.13 315.998,47.2441 "/>
<polyline clip-path="url(#clip342)" style="stroke:#000000; stroke-linecap:round; stroke-linejoin:round; stroke-width:2; stroke-opacity:0.1; fill:none" points="572.232,1086.13 572.232,47.2441 "/>
<polyline clip-path="url(#clip342)" style="stroke:#000000; stroke-linecap:round; stroke-linejoin:round; stroke-width:2; stroke-opacity:0.1; fill:none" points="828.467,1086.13 828.467,47.2441 "/>
<polyline clip-path="url(#clip342)" style="stroke:#000000; stroke-linecap:round; stroke-linejoin:round; stroke-width:2; stroke-opacity:0.1; fill:none" points="1084.7,1086.13 1084.7,47.2441 "/>
<polyline clip-path="url(#clip342)" style="stroke:#000000; stroke-linecap:round; stroke-linejoin:round; stroke-width:2; stroke-opacity:0.1; fill:none" points="1340.94,1086.13 1340.94,47.2441 "/>
<polyline clip-path="url(#clip342)" style="stroke:#000000; stroke-linecap:round; stroke-linejoin:round; stroke-width:2; stroke-opacity:0.1; fill:none" points="104.177,1056.73 1552.76,1056.73 "/>
<polyline clip-path="url(#clip342)" style="stroke:#000000; stroke-linecap:round; stroke-linejoin:round; stroke-width:2; stroke-opacity:0.1; fill:none" points="104.177,811.706 1552.76,811.706 "/>
<polyline clip-path="url(#clip342)" style="stroke:#000000; stroke-linecap:round; stroke-linejoin:round; stroke-width:2; stroke-opacity:0.1; fill:none" points="104.177,566.686 1552.76,566.686 "/>
<polyline clip-path="url(#clip342)" style="stroke:#000000; stroke-linecap:round; stroke-linejoin:round; stroke-width:2; stroke-opacity:0.1; fill:none" points="104.177,321.666 1552.76,321.666 "/>
<polyline clip-path="url(#clip342)" style="stroke:#000000; stroke-linecap:round; stroke-linejoin:round; stroke-width:2; stroke-opacity:0.1; fill:none" points="104.177,76.6465 1552.76,76.6465 "/>
<polyline clip-path="url(#clip340)" style="stroke:#000000; stroke-linecap:round; stroke-linejoin:round; stroke-width:4; stroke-opacity:1; fill:none" points="104.177,1086.13 1552.76,1086.13 "/>
<polyline clip-path="url(#clip340)" style="stroke:#000000; stroke-linecap:round; stroke-linejoin:round; stroke-width:4; stroke-opacity:1; fill:none" points="315.998,1086.13 315.998,1067.23 "/>
<polyline clip-path="url(#clip340)" style="stroke:#000000; stroke-linecap:round; stroke-linejoin:round; stroke-width:4; stroke-opacity:1; fill:none" points="572.232,1086.13 572.232,1067.23 "/>
<polyline clip-path="url(#clip340)" style="stroke:#000000; stroke-linecap:round; stroke-linejoin:round; stroke-width:4; stroke-opacity:1; fill:none" points="828.467,1086.13 828.467,1067.23 "/>
<polyline clip-path="url(#clip340)" style="stroke:#000000; stroke-linecap:round; stroke-linejoin:round; stroke-width:4; stroke-opacity:1; fill:none" points="1084.7,1086.13 1084.7,1067.23 "/>
<polyline clip-path="url(#clip340)" style="stroke:#000000; stroke-linecap:round; stroke-linejoin:round; stroke-width:4; stroke-opacity:1; fill:none" points="1340.94,1086.13 1340.94,1067.23 "/>
<path clip-path="url(#clip340)" d="M285.06 1125.3 L314.736 1125.3 L314.736 1129.23 L285.06 1129.23 L285.06 1125.3 Z" fill="#000000" fill-rule="nonzero" fill-opacity="1" /><path clip-path="url(#clip340)" d="M335.407 1122.98 Q332.259 1122.98 330.407 1125.14 Q328.579 1127.29 328.579 1131.04 Q328.579 1134.77 330.407 1136.94 Q332.259 1139.1 335.407 1139.1 Q338.555 1139.1 340.384 1136.94 Q342.236 1134.77 342.236 1131.04 Q342.236 1127.29 340.384 1125.14 Q338.555 1122.98 335.407 1122.98 M344.69 1108.33 L344.69 1112.59 Q342.93 1111.76 341.125 1111.32 Q339.342 1110.88 337.583 1110.88 Q332.954 1110.88 330.5 1114 Q328.069 1117.13 327.722 1123.45 Q329.088 1121.43 331.148 1120.37 Q333.208 1119.28 335.685 1119.28 Q340.893 1119.28 343.903 1122.45 Q346.935 1125.6 346.935 1131.04 Q346.935 1136.36 343.787 1139.58 Q340.639 1142.8 335.407 1142.8 Q329.412 1142.8 326.241 1138.22 Q323.069 1133.61 323.069 1124.88 Q323.069 1116.69 326.958 1111.83 Q330.847 1106.94 337.398 1106.94 Q339.157 1106.94 340.94 1107.29 Q342.745 1107.64 344.69 1108.33 Z" fill="#000000" fill-rule="nonzero" fill-opacity="1" /><path clip-path="url(#clip340)" d="M541.7 1125.3 L571.376 1125.3 L571.376 1129.23 L541.7 1129.23 L541.7 1125.3 Z" fill="#000000" fill-rule="nonzero" fill-opacity="1" /><path clip-path="url(#clip340)" d="M595.635 1123.49 Q598.991 1124.21 600.866 1126.48 Q602.764 1128.75 602.764 1132.08 Q602.764 1137.2 599.246 1140 Q595.727 1142.8 589.246 1142.8 Q587.07 1142.8 584.755 1142.36 Q582.464 1141.94 580.01 1141.09 L580.01 1136.57 Q581.954 1137.71 584.269 1138.29 Q586.584 1138.86 589.107 1138.86 Q593.505 1138.86 595.797 1137.13 Q598.112 1135.39 598.112 1132.08 Q598.112 1129.03 595.959 1127.31 Q593.829 1125.58 590.01 1125.58 L585.982 1125.58 L585.982 1121.73 L590.195 1121.73 Q593.644 1121.73 595.473 1120.37 Q597.301 1118.98 597.301 1116.39 Q597.301 1113.73 595.403 1112.31 Q593.528 1110.88 590.01 1110.88 Q588.088 1110.88 585.889 1111.29 Q583.69 1111.71 581.051 1112.59 L581.051 1108.42 Q583.714 1107.68 586.028 1107.31 Q588.366 1106.94 590.426 1106.94 Q595.75 1106.94 598.852 1109.37 Q601.954 1111.78 601.954 1115.9 Q601.954 1118.77 600.311 1120.76 Q598.667 1122.73 595.635 1123.49 Z" fill="#000000" fill-rule="nonzero" fill-opacity="1" /><path clip-path="url(#clip340)" d="M828.467 1110.65 Q824.855 1110.65 823.027 1114.21 Q821.221 1117.75 821.221 1124.88 Q821.221 1131.99 823.027 1135.55 Q824.855 1139.1 828.467 1139.1 Q832.101 1139.1 833.906 1135.55 Q835.735 1131.99 835.735 1124.88 Q835.735 1117.75 833.906 1114.21 Q832.101 1110.65 828.467 1110.65 M828.467 1106.94 Q834.277 1106.94 837.332 1111.55 Q840.411 1116.13 840.411 1124.88 Q840.411 1133.61 837.332 1138.22 Q834.277 1142.8 828.467 1142.8 Q822.656 1142.8 819.578 1138.22 Q816.522 1133.61 816.522 1124.88 Q816.522 1116.13 819.578 1111.55 Q822.656 1106.94 828.467 1106.94 Z" fill="#000000" fill-rule="nonzero" fill-opacity="1" /><path clip-path="url(#clip340)" d="M1088.95 1123.49 Q1092.31 1124.21 1094.18 1126.48 Q1096.08 1128.75 1096.08 1132.08 Q1096.08 1137.2 1092.56 1140 Q1089.04 1142.8 1082.56 1142.8 Q1080.38 1142.8 1078.07 1142.36 Q1075.78 1141.94 1073.32 1141.09 L1073.32 1136.57 Q1075.27 1137.71 1077.58 1138.29 Q1079.9 1138.86 1082.42 1138.86 Q1086.82 1138.86 1089.11 1137.13 Q1091.43 1135.39 1091.43 1132.08 Q1091.43 1129.03 1089.27 1127.31 Q1087.14 1125.58 1083.32 1125.58 L1079.3 1125.58 L1079.3 1121.73 L1083.51 1121.73 Q1086.96 1121.73 1088.79 1120.37 Q1090.62 1118.98 1090.62 1116.39 Q1090.62 1113.73 1088.72 1112.31 Q1086.84 1110.88 1083.32 1110.88 Q1081.4 1110.88 1079.2 1111.29 Q1077 1111.71 1074.37 1112.59 L1074.37 1108.42 Q1077.03 1107.68 1079.34 1107.31 Q1081.68 1106.94 1083.74 1106.94 Q1089.06 1106.94 1092.17 1109.37 Q1095.27 1111.78 1095.27 1115.9 Q1095.27 1118.77 1093.62 1120.76 Q1091.98 1122.73 1088.95 1123.49 Z" fill="#000000" fill-rule="nonzero" fill-opacity="1" /><path clip-path="url(#clip340)" d="M1341.34 1122.98 Q1338.19 1122.98 1336.34 1125.14 Q1334.51 1127.29 1334.51 1131.04 Q1334.51 1134.77 1336.34 1136.94 Q1338.19 1139.1 1341.34 1139.1 Q1344.49 1139.1 1346.32 1136.94 Q1348.17 1134.77 1348.17 1131.04 Q1348.17 1127.29 1346.32 1125.14 Q1344.49 1122.98 1341.34 1122.98 M1350.62 1108.33 L1350.62 1112.59 Q1348.86 1111.76 1347.06 1111.32 Q1345.28 1110.88 1343.52 1110.88 Q1338.89 1110.88 1336.43 1114 Q1334 1117.13 1333.66 1123.45 Q1335.02 1121.43 1337.08 1120.37 Q1339.14 1119.28 1341.62 1119.28 Q1346.83 1119.28 1349.84 1122.45 Q1352.87 1125.6 1352.87 1131.04 Q1352.87 1136.36 1349.72 1139.58 Q1346.57 1142.8 1341.34 1142.8 Q1335.35 1142.8 1332.17 1138.22 Q1329 1133.61 1329 1124.88 Q1329 1116.69 1332.89 1111.83 Q1336.78 1106.94 1343.33 1106.94 Q1345.09 1106.94 1346.87 1107.29 Q1348.68 1107.64 1350.62 1108.33 Z" fill="#000000" fill-rule="nonzero" fill-opacity="1" /><polyline clip-path="url(#clip340)" style="stroke:#000000; stroke-linecap:round; stroke-linejoin:round; stroke-width:4; stroke-opacity:1; fill:none" points="104.177,1086.13 104.177,47.2441 "/>
<polyline clip-path="url(#clip340)" style="stroke:#000000; stroke-linecap:round; stroke-linejoin:round; stroke-width:4; stroke-opacity:1; fill:none" points="104.177,1056.73 123.075,1056.73 "/>
<polyline clip-path="url(#clip340)" style="stroke:#000000; stroke-linecap:round; stroke-linejoin:round; stroke-width:4; stroke-opacity:1; fill:none" points="104.177,811.706 123.075,811.706 "/>
<polyline clip-path="url(#clip340)" style="stroke:#000000; stroke-linecap:round; stroke-linejoin:round; stroke-width:4; stroke-opacity:1; fill:none" points="104.177,566.686 123.075,566.686 "/>
<polyline clip-path="url(#clip340)" style="stroke:#000000; stroke-linecap:round; stroke-linejoin:round; stroke-width:4; stroke-opacity:1; fill:none" points="104.177,321.666 123.075,321.666 "/>
<polyline clip-path="url(#clip340)" style="stroke:#000000; stroke-linecap:round; stroke-linejoin:round; stroke-width:4; stroke-opacity:1; fill:none" points="104.177,76.6465 123.075,76.6465 "/>
<path clip-path="url(#clip340)" d="M68.2328 1042.52 Q64.6217 1042.52 62.793 1046.09 Q60.9875 1049.63 60.9875 1056.76 Q60.9875 1063.87 62.793 1067.43 Q64.6217 1070.97 68.2328 1070.97 Q71.867 1070.97 73.6726 1067.43 Q75.5013 1063.87 75.5013 1056.76 Q75.5013 1049.63 73.6726 1046.09 Q71.867 1042.52 68.2328 1042.52 M68.2328 1038.82 Q74.0429 1038.82 77.0985 1043.43 Q80.1772 1048.01 80.1772 1056.76 Q80.1772 1065.49 77.0985 1070.09 Q74.0429 1074.68 68.2328 1074.68 Q62.4226 1074.68 59.344 1070.09 Q56.2884 1065.49 56.2884 1056.76 Q56.2884 1048.01 59.344 1043.43 Q62.4226 1038.82 68.2328 1038.82 Z" fill="#000000" fill-rule="nonzero" fill-opacity="1" /><path clip-path="url(#clip340)" d="M63.8578 825.051 L80.1772 825.051 L80.1772 828.986 L58.2328 828.986 L58.2328 825.051 Q60.8949 822.296 65.4782 817.666 Q70.0846 813.014 71.2652 811.671 Q73.5105 809.148 74.3902 807.412 Q75.2929 805.653 75.2929 803.963 Q75.2929 801.208 73.3485 799.472 Q71.4272 797.736 68.3254 797.736 Q66.1263 797.736 63.6726 798.5 Q61.2421 799.264 58.4643 800.815 L58.4643 796.092 Q61.2884 794.958 63.7421 794.379 Q66.1958 793.801 68.2328 793.801 Q73.6031 793.801 76.7976 796.486 Q79.992 799.171 79.992 803.662 Q79.992 805.791 79.1818 807.713 Q78.3948 809.611 76.2883 812.203 Q75.7096 812.875 72.6078 816.092 Q69.5059 819.287 63.8578 825.051 Z" fill="#000000" fill-rule="nonzero" fill-opacity="1" /><path clip-path="url(#clip340)" d="M70.5939 553.48 L58.7884 571.929 L70.5939 571.929 L70.5939 553.48 M69.367 549.406 L75.2466 549.406 L75.2466 571.929 L80.1772 571.929 L80.1772 575.818 L75.2466 575.818 L75.2466 583.966 L70.5939 583.966 L70.5939 575.818 L54.9921 575.818 L54.9921 571.304 L69.367 549.406 Z" fill="#000000" fill-rule="nonzero" fill-opacity="1" /><path clip-path="url(#clip340)" d="M68.6495 319.803 Q65.5013 319.803 63.6495 321.956 Q61.8208 324.108 61.8208 327.858 Q61.8208 331.585 63.6495 333.761 Q65.5013 335.914 68.6495 335.914 Q71.7976 335.914 73.6263 333.761 Q75.4781 331.585 75.4781 327.858 Q75.4781 324.108 73.6263 321.956 Q71.7976 319.803 68.6495 319.803 M77.9318 305.15 L77.9318 309.409 Q76.1726 308.576 74.367 308.136 Q72.5846 307.696 70.8254 307.696 Q66.1958 307.696 63.7421 310.821 Q61.3115 313.946 60.9643 320.266 Q62.33 318.252 64.3902 317.187 Q66.4504 316.099 68.9272 316.099 Q74.1355 316.099 77.1448 319.27 Q80.1772 322.419 80.1772 327.858 Q80.1772 333.182 77.029 336.4 Q73.8809 339.618 68.6495 339.618 Q62.6541 339.618 59.4828 335.034 Q56.3116 330.428 56.3116 321.701 Q56.3116 313.507 60.2004 308.645 Q64.0893 303.761 70.6402 303.761 Q72.3994 303.761 74.1818 304.108 Q75.9874 304.456 77.9318 305.15 Z" fill="#000000" fill-rule="nonzero" fill-opacity="1" /><path clip-path="url(#clip340)" d="M68.3254 77.5145 Q64.9921 77.5145 63.0708 79.2969 Q61.1726 81.0793 61.1726 84.2043 Q61.1726 87.3293 63.0708 89.1117 Q64.9921 90.8941 68.3254 90.8941 Q71.6587 90.8941 73.58 89.1117 Q75.5013 87.3061 75.5013 84.2043 Q75.5013 81.0793 73.58 79.2969 Q71.6819 77.5145 68.3254 77.5145 M63.6495 75.5238 Q60.6402 74.783 58.9504 72.7229 Q57.2838 70.6627 57.2838 67.6998 Q57.2838 63.5563 60.2236 61.1489 Q63.1865 58.7415 68.3254 58.7415 Q73.4874 58.7415 76.4272 61.1489 Q79.367 63.5563 79.367 67.6998 Q79.367 70.6627 77.6772 72.7229 Q76.0105 74.783 73.0244 75.5238 Q76.404 76.3108 78.279 78.6025 Q80.1772 80.8941 80.1772 84.2043 Q80.1772 89.2274 77.0985 91.9126 Q74.0429 94.5978 68.3254 94.5978 Q62.6078 94.5978 59.5291 91.9126 Q56.4736 89.2274 56.4736 84.2043 Q56.4736 80.8941 58.3717 78.6025 Q60.2699 76.3108 63.6495 75.5238 M61.9365 68.1396 Q61.9365 70.8247 63.6032 72.3294 Q65.293 73.834 68.3254 73.834 Q71.3346 73.834 73.0244 72.3294 Q74.7374 70.8247 74.7374 68.1396 Q74.7374 65.4544 73.0244 63.9498 Q71.3346 62.4452 68.3254 62.4452 Q65.293 62.4452 63.6032 63.9498 Q61.9365 65.4544 61.9365 68.1396 Z" fill="#000000" fill-rule="nonzero" fill-opacity="1" /><polyline clip-path="url(#clip342)" style="stroke:#009af9; stroke-linecap:round; stroke-linejoin:round; stroke-width:4; stroke-opacity:1; fill:none" points="145.175,1056.73 146.029,1056.73 146.883,1056.73 147.737,1056.73 148.591,1056.73 149.445,1056.73 150.299,1056.73 151.153,1056.73 152.008,1056.73 152.862,1056.73 153.716,1056.73 154.57,1056.73 155.424,1056.73 156.278,1056.73 157.132,1056.73 157.986,1056.73 158.841,1056.73 159.695,1056.73 160.549,1056.73 161.403,1056.73 162.257,1056.73 163.111,1056.73 163.965,1056.73 164.819,1056.73 165.673,1056.73 166.528,1056.73 167.382,1056.73 168.236,1056.73 169.09,1056.73 169.944,1056.73 170.798,1056.73 171.652,1056.73 172.506,1056.73 173.36,1056.73 174.215,1056.73 175.069,1056.73 175.923,1056.73 176.777,1056.73 177.631,1056.73 178.485,1056.73 179.339,1056.73 180.193,1056.73 181.048,1056.73 181.902,1056.73 182.756,1056.73 183.61,1056.73 184.464,1056.73 185.318,1056.73 186.172,1056.73 187.026,1056.73 187.88,1056.73 188.735,1056.73 189.589,1056.73 190.443,1056.73 191.297,1056.73 192.151,1056.73 193.005,1056.73 193.859,1056.73 194.713,1056.73 195.567,1056.73 196.422,1056.73 197.276,1056.73 198.13,1056.73 198.984,1056.73 199.838,1056.73 200.692,1056.73 201.546,1056.73 202.4,1056.73 203.254,1056.73 204.109,1056.73 204.963,1056.73 205.817,1056.73 206.671,1056.73 207.525,1056.73 208.379,1056.73 209.233,1056.73 210.087,1056.73 210.942,1056.73 211.796,1056.73 212.65,1056.73 213.504,1056.73 214.358,1056.73 215.212,1056.73 216.066,1056.73 216.92,1056.73 217.774,1056.73 218.629,1056.73 219.483,1056.73 220.337,1056.73 221.191,1056.73 222.045,1056.73 222.899,1056.73 223.753,1056.73 224.607,1056.73 225.461,1056.73 226.316,1056.73 227.17,1056.73 228.024,1056.73 228.878,1056.73 229.732,1056.73 230.586,1056.73 231.44,1056.73 232.294,1056.73 233.149,1056.73 234.003,1056.73 234.857,1056.73 235.711,1056.73 236.565,1056.73 237.419,1056.73 238.273,1056.73 239.127,1056.73 239.981,1056.73 240.836,1056.73 241.69,1056.73 242.544,1056.73 243.398,1056.73 244.252,1056.73 245.106,1056.73 245.96,1056.73 246.814,1056.73 247.668,1056.73 248.523,1056.73 249.377,1056.73 250.231,1056.73 251.085,1056.73 251.939,1056.73 252.793,1056.73 253.647,1056.73 254.501,1056.73 255.355,1056.73 256.21,1056.73 257.064,1056.73 257.918,1056.73 258.772,1056.73 259.626,1056.73 260.48,1056.73 261.334,1056.73 262.188,1056.73 263.043,1056.73 263.897,1056.73 264.751,1056.73 265.605,1056.73 266.459,1056.73 267.313,1056.73 268.167,1056.73 269.021,1056.73 269.875,1056.73 270.73,1056.73 271.584,1056.73 272.438,1056.73 273.292,1056.73 274.146,1056.73 275,1056.73 275.854,1056.73 276.708,1056.73 277.562,1056.73 278.417,1056.73 279.271,1056.73 280.125,1056.73 280.979,1056.73 281.833,1056.73 282.687,1056.73 283.541,1056.73 284.395,1056.73 285.25,1056.73 286.104,1056.73 286.958,1056.73 287.812,1056.73 288.666,1056.73 289.52,1056.73 290.374,1056.73 291.228,1056.73 292.082,1056.73 292.937,1056.73 293.791,1056.73 294.645,1056.73 295.499,1056.73 296.353,1056.73 297.207,1056.73 298.061,1056.73 298.915,1056.73 299.769,1056.73 300.624,1056.73 301.478,1056.73 302.332,1056.73 303.186,1056.73 304.04,1056.73 304.894,1056.73 305.748,1056.73 306.602,1056.73 307.457,1056.73 308.311,1056.73 309.165,1056.73 310.019,1056.73 310.873,1056.73 311.727,1056.73 312.581,1056.73 313.435,1056.73 314.289,1056.73 315.144,1056.73 315.998,1056.73 316.852,1056.73 317.706,1056.73 318.56,1056.73 319.414,1056.73 320.268,1056.73 321.122,1056.73 321.976,1056.73 322.831,1056.73 323.685,1056.73 324.539,1056.73 325.393,1056.73 326.247,1056.73 327.101,1056.73 327.955,1056.73 328.809,1056.73 329.663,1056.73 330.518,1056.73 331.372,1056.73 332.226,1056.73 333.08,1056.73 333.934,1056.73 334.788,1056.73 335.642,1056.73 336.496,1056.73 337.351,1056.73 338.205,1056.73 339.059,1056.73 339.913,1056.73 340.767,1056.73 341.621,1056.73 342.475,1056.73 343.329,1056.73 344.183,1056.73 345.038,1056.73 345.892,1056.73 346.746,1056.73 347.6,1056.73 348.454,1056.73 349.308,1056.73 350.162,1056.73 351.016,1056.73 351.87,1056.73 352.725,1056.73 353.579,1056.73 354.433,1056.73 355.287,1056.73 356.141,1056.73 356.995,1056.73 357.849,1056.73 358.703,1056.73 359.558,1056.73 360.412,1056.73 361.266,1056.73 362.12,1056.73 362.974,1056.73 363.828,1056.73 364.682,1056.73 365.536,1056.73 366.39,1056.73 367.245,1056.73 368.099,1056.73 368.953,1056.73 369.807,1056.73 370.661,1056.73 371.515,1056.73 372.369,1056.73 373.223,1056.73 374.077,1056.73 374.932,1056.73 375.786,1056.73 376.64,1056.73 377.494,1056.73 378.348,1056.73 379.202,1056.73 380.056,1056.73 380.91,1056.73 381.764,1056.73 382.619,1056.73 383.473,1056.73 384.327,1056.73 385.181,1056.73 386.035,1056.73 386.889,1056.73 387.743,1056.73 388.597,1056.73 389.452,1056.73 390.306,1056.73 391.16,1056.73 392.014,1056.73 392.868,1056.73 393.722,1056.73 394.576,1056.73 395.43,1056.73 396.284,1056.73 397.139,1056.73 397.993,1056.73 398.847,1056.73 399.701,1056.73 400.555,1056.73 401.409,1056.73 402.263,1056.73 403.117,1056.73 403.971,1056.73 404.826,1056.73 405.68,1056.73 406.534,1056.73 407.388,1056.73 408.242,1056.73 409.096,1056.73 409.95,1056.73 410.804,1056.73 411.659,1056.73 412.513,1056.73 413.367,1056.73 414.221,1056.73 415.075,1056.73 415.929,1056.73 416.783,1056.73 417.637,1056.73 418.491,1056.73 419.346,1056.73 420.2,1056.73 421.054,1056.73 421.908,1056.73 422.762,1056.73 423.616,1056.73 424.47,1056.73 425.324,1056.73 426.178,1056.73 427.033,1056.73 427.887,1056.73 428.741,1056.73 429.595,1056.73 430.449,1056.73 431.303,1056.73 432.157,1056.73 433.011,1056.73 433.865,1056.73 434.72,1056.73 435.574,1056.73 436.428,1056.73 437.282,1056.73 438.136,1056.73 438.99,1056.73 439.844,1056.73 440.698,1056.73 441.553,1056.73 442.407,1056.73 443.261,1056.73 444.115,1056.73 444.969,1056.73 445.823,1056.73 446.677,1056.73 447.531,1056.73 448.385,1056.73 449.24,1056.73 450.094,1056.73 450.948,1056.73 451.802,1056.73 452.656,1056.73 453.51,1056.73 454.364,1056.73 455.218,1056.73 456.072,1056.73 456.927,1056.73 457.781,1056.73 458.635,1056.73 459.489,1056.73 460.343,1056.73 461.197,1056.73 462.051,1056.73 462.905,1056.73 463.76,1056.73 464.614,1056.73 465.468,1056.73 466.322,1056.73 467.176,1056.73 468.03,1056.73 468.884,1056.73 469.738,1056.73 470.592,1056.73 471.447,1056.73 472.301,1056.73 473.155,1056.73 474.009,1056.73 474.863,1056.73 475.717,1056.73 476.571,1056.73 477.425,1056.73 478.279,1056.73 479.134,1056.73 479.988,1056.73 480.842,1056.73 481.696,1056.73 482.55,1056.73 483.404,1056.73 484.258,1056.73 485.112,1056.73 485.966,1056.73 486.821,1056.73 487.675,1056.73 488.529,1056.73 489.383,1056.73 490.237,1056.73 491.091,1056.73 491.945,1056.73 492.799,1056.73 493.654,1056.73 494.508,1056.73 495.362,1056.73 496.216,1056.73 497.07,1056.73 497.924,1056.73 498.778,1056.73 499.632,1056.73 500.486,1056.73 501.341,1056.73 502.195,1056.73 503.049,1056.73 503.903,1056.73 504.757,1056.73 505.611,1056.73 506.465,1056.73 507.319,1056.73 508.173,1056.73 509.028,1056.73 509.882,1056.73 510.736,1056.73 511.59,1056.73 512.444,1056.73 513.298,1056.73 514.152,1056.73 515.006,1056.73 515.861,1056.73 516.715,1056.73 517.569,1056.73 518.423,1056.73 519.277,1056.73 520.131,1056.73 520.985,1056.73 521.839,1056.73 522.693,1056.73 523.548,1056.73 524.402,1056.73 525.256,1056.73 526.11,1056.73 526.964,1056.73 527.818,1056.73 528.672,1056.73 529.526,1056.73 530.38,1056.73 531.235,1056.73 532.089,1056.73 532.943,1056.73 533.797,1056.73 534.651,1056.73 535.505,1056.73 536.359,1056.73 537.213,1056.73 538.068,1056.73 538.922,1056.73 539.776,1056.73 540.63,1056.73 541.484,1056.73 542.338,1056.73 543.192,1056.73 544.046,1056.73 544.9,1056.73 545.755,1056.73 546.609,1056.73 547.463,1056.73 548.317,1056.73 549.171,1056.73 550.025,1056.73 550.879,1056.73 551.733,1056.73 552.587,1056.73 553.442,1056.73 554.296,1056.73 555.15,1056.73 556.004,1056.73 556.858,1056.73 557.712,1056.73 558.566,1056.73 559.42,1056.73 560.274,1056.73 561.129,1056.73 561.983,1056.73 562.837,1056.73 563.691,1056.73 564.545,1056.73 565.399,1056.73 566.253,1056.73 567.107,1056.73 567.962,1056.73 568.816,1056.73 569.67,1056.73 570.524,1056.73 571.378,1056.73 572.232,1056.73 573.086,1056.73 573.94,1056.73 574.794,1056.73 575.649,1056.73 576.503,1056.73 577.357,1056.73 578.211,1056.73 579.065,1056.73 579.919,1056.73 580.773,1056.73 581.627,1056.73 582.481,1056.73 583.336,1056.73 584.19,1056.73 585.044,1056.73 585.898,1056.73 586.752,1056.73 587.606,1056.73 588.46,1056.73 589.314,1056.73 590.169,1056.73 591.023,1056.73 591.877,1056.73 592.731,1056.73 593.585,1056.73 594.439,1056.73 595.293,1056.73 596.147,1056.73 597.001,1056.73 597.856,1056.73 598.71,1056.73 599.564,1056.73 600.418,1056.73 601.272,1056.73 602.126,1056.73 602.98,1056.73 603.834,1056.73 604.688,1056.73 605.543,1056.73 606.397,1056.73 607.251,1056.73 608.105,1056.73 608.959,1056.73 609.813,1056.73 610.667,1056.73 611.521,1056.73 612.375,1056.73 613.23,1056.73 614.084,1056.73 614.938,1056.73 615.792,1056.73 616.646,1056.73 617.5,1056.73 618.354,1056.73 619.208,1056.73 620.063,1056.73 620.917,1056.73 621.771,1056.73 622.625,1056.73 623.479,1056.73 624.333,1056.73 625.187,1056.73 626.041,1056.73 626.895,1056.73 627.75,1056.73 628.604,1056.73 629.458,1056.73 630.312,1056.73 631.166,1056.73 632.02,1056.73 632.874,1056.73 633.728,1056.73 634.582,1056.73 635.437,1056.73 636.291,1056.73 637.145,1056.73 637.999,1056.73 638.853,1056.73 639.707,1056.73 640.561,1056.73 641.415,1056.73 642.27,1056.73 643.124,1056.73 643.978,1056.73 644.832,1056.73 645.686,1056.73 646.54,1056.73 647.394,1056.73 648.248,1056.73 649.102,1056.73 649.957,1056.73 650.811,1056.73 651.665,1056.73 652.519,1056.73 653.373,1056.73 654.227,1056.73 655.081,1056.73 655.935,1056.73 656.789,1056.73 657.644,1056.73 658.498,1056.73 659.352,1056.73 660.206,1056.73 661.06,1056.73 661.914,1056.73 662.768,1056.73 663.622,1056.73 664.476,1056.73 665.331,1056.73 666.185,1056.73 667.039,1056.73 667.893,1056.73 668.747,1056.73 669.601,1056.73 670.455,1056.73 671.309,1056.73 672.164,1056.73 673.018,1056.73 673.872,1056.73 674.726,1056.73 675.58,1056.73 676.434,1056.73 677.288,1056.73 678.142,1056.73 678.996,1056.73 679.851,1056.73 680.705,1056.73 681.559,1056.73 682.413,1056.73 683.267,1056.73 684.121,1056.73 684.975,1056.73 685.829,1056.73 686.683,1056.73 687.538,1056.73 688.392,1056.73 689.246,1056.73 690.1,1056.73 690.954,1056.73 691.808,1056.73 692.662,1056.73 693.516,1056.73 694.371,1056.73 695.225,1056.73 696.079,1056.73 696.933,1056.73 697.787,1056.73 698.641,1056.73 699.495,1056.73 700.349,1056.73 701.203,1056.73 702.058,1056.73 702.912,1056.73 703.766,1056.73 704.62,1056.73 705.474,1056.73 706.328,1056.73 707.182,1056.73 708.036,1056.73 708.89,1056.73 709.745,1056.73 710.599,1056.73 711.453,1056.73 712.307,1056.73 713.161,1056.73 714.015,1056.73 714.869,1056.73 715.723,1056.73 716.577,1056.73 717.432,1056.73 718.286,1056.73 719.14,1056.73 719.994,1056.73 720.848,1056.73 721.702,1056.73 722.556,1056.73 723.41,1056.73 724.265,1056.73 725.119,1056.73 725.973,1056.73 726.827,1056.73 727.681,1056.73 728.535,1056.73 729.389,1056.73 730.243,1056.73 731.097,1056.73 731.952,1056.73 732.806,1056.73 733.66,1056.73 734.514,1056.73 735.368,1056.73 736.222,1056.73 737.076,1056.73 737.93,1056.73 738.784,1056.73 739.639,1056.73 740.493,1056.73 741.347,1056.73 742.201,1056.73 743.055,1056.73 743.909,1056.73 744.763,1056.73 745.617,1056.73 746.472,1056.73 747.326,1056.73 748.18,1056.73 749.034,1056.73 749.888,1056.73 750.742,1056.73 751.596,1056.73 752.45,1056.73 753.304,1056.73 754.159,1056.73 755.013,1056.73 755.867,1056.73 756.721,1056.73 757.575,1056.73 758.429,1056.73 759.283,1056.73 760.137,1056.73 760.991,1056.73 761.846,1056.73 762.7,1056.73 763.554,1056.73 764.408,1056.73 765.262,1056.73 766.116,1056.73 766.97,1056.73 767.824,1056.73 768.679,1056.73 769.533,1056.73 770.387,1056.73 771.241,1056.73 772.095,1056.73 772.949,1056.73 773.803,1056.73 774.657,1056.73 775.511,1056.73 776.366,1056.73 777.22,1056.73 778.074,1056.73 778.928,1056.73 779.782,1056.73 780.636,1056.73 781.49,1056.73 782.344,1056.73 783.198,1056.73 784.053,1056.73 784.907,1056.73 785.761,1056.73 786.615,1056.73 787.469,1056.73 788.323,1056.73 789.177,1056.73 790.031,1056.73 790.885,1056.73 791.74,1056.73 792.594,1056.73 793.448,1056.73 794.302,1056.73 795.156,1056.73 796.01,1056.73 796.864,1056.73 797.718,1056.73 798.573,1056.73 799.427,1056.73 800.281,1056.73 801.135,1056.73 801.989,1056.73 802.843,1056.73 803.697,1056.73 804.551,1056.73 805.405,1056.73 806.26,1056.73 807.114,1056.73 807.968,1056.73 808.822,1056.73 809.676,1056.73 810.53,1056.73 811.384,1056.73 812.238,1056.73 813.092,1056.73 813.947,1056.73 814.801,1056.73 815.655,1056.73 816.509,1056.73 817.363,1056.73 818.217,1056.73 819.071,1056.73 819.925,1056.73 820.78,1056.73 821.634,1056.73 822.488,1056.73 823.342,1056.73 824.196,1056.73 825.05,1056.73 825.904,1056.73 826.758,1056.73 827.612,1056.73 828.467,1056.73 829.321,1055.5 830.175,1054.28 831.029,1053.05 831.883,1051.83 832.737,1050.6 833.591,1049.37 834.445,1048.15 835.299,1046.92 836.154,1045.7 837.008,1044.47 837.862,1043.25 838.716,1042.02 839.57,1040.8 840.424,1039.57 841.278,1038.35 842.132,1037.12 842.986,1035.9 843.841,1034.67 844.695,1033.45 845.549,1032.22 846.403,1031 847.257,1029.77 848.111,1028.55 848.965,1027.32 849.819,1026.1 850.674,1024.87 851.528,1023.65 852.382,1022.42 853.236,1021.2 854.09,1019.97 854.944,1018.75 855.798,1017.52 856.652,1016.3 857.506,1015.07 858.361,1013.85 859.215,1012.62 860.069,1011.4 860.923,1010.17 861.777,1008.95 862.631,1007.72 863.485,1006.5 864.339,1005.27 865.193,1004.05 866.048,1002.82 866.902,1001.6 867.756,1000.37 868.61,999.146 869.464,997.921 870.318,996.696 871.172,995.471 872.026,994.245 872.881,993.02 873.735,991.795 874.589,990.57 875.443,989.345 876.297,988.12 877.151,986.895 878.005,985.67 878.859,984.445 879.713,983.22 880.568,981.994 881.422,980.769 882.276,979.544 883.13,978.319 883.984,977.094 884.838,975.869 885.692,974.644 886.546,973.419 887.4,972.194 888.255,970.969 889.109,969.743 889.963,968.518 890.817,967.293 891.671,966.068 892.525,964.843 893.379,963.618 894.233,962.393 895.087,961.168 895.942,959.943 896.796,958.718 897.65,957.493 898.504,956.267 899.358,955.042 900.212,953.817 901.066,952.592 901.92,951.367 902.775,950.142 903.629,948.917 904.483,947.692 905.337,946.467 906.191,945.242 907.045,944.016 907.899,942.791 908.753,941.566 909.607,940.341 910.462,939.116 911.316,937.891 912.17,936.666 913.024,935.441 913.878,934.216 914.732,932.991 915.586,931.765 916.44,930.54 917.294,929.315 918.149,928.09 919.003,926.865 919.857,925.64 920.711,924.415 921.565,923.19 922.419,921.965 923.273,920.74 924.127,919.514 924.982,918.289 925.836,917.064 926.69,915.839 927.544,914.614 928.398,913.389 929.252,912.164 930.106,910.939 930.96,909.714 931.814,908.489 932.669,907.263 933.523,906.038 934.377,904.813 935.231,903.588 936.085,902.363 936.939,901.138 937.793,899.913 938.647,898.688 939.501,897.463 940.356,896.238 941.21,895.012 942.064,893.787 942.918,892.562 943.772,891.337 944.626,890.112 945.48,888.887 946.334,887.662 947.189,886.437 948.043,885.212 948.897,883.987 949.751,882.761 950.605,881.536 951.459,880.311 952.313,879.086 953.167,877.861 954.021,876.636 954.876,875.411 955.73,874.186 956.584,872.961 957.438,871.736 958.292,870.51 959.146,869.285 960,868.06 960.854,866.835 961.708,865.61 962.563,864.385 963.417,863.16 964.271,861.935 965.125,860.71 965.979,859.485 966.833,858.259 967.687,857.034 968.541,855.809 969.395,854.584 970.25,853.359 971.104,852.134 971.958,850.909 972.812,849.684 973.666,848.459 974.52,847.234 975.374,846.009 976.228,844.783 977.083,843.558 977.937,842.333 978.791,841.108 979.645,839.883 980.499,838.658 981.353,837.433 982.207,836.208 983.061,834.983 983.915,833.758 984.77,832.532 985.624,831.307 986.478,830.082 987.332,828.857 988.186,827.632 989.04,826.407 989.894,825.182 990.748,823.957 991.602,822.732 992.457,821.507 993.311,820.281 994.165,819.056 995.019,817.831 995.873,816.606 996.727,815.381 997.581,814.156 998.435,812.931 999.29,811.706 1000.14,810.481 1001,809.256 1001.85,808.03 1002.71,806.805 1003.56,805.58 1004.41,804.355 1005.27,803.13 1006.12,801.905 1006.98,800.68 1007.83,799.455 1008.68,798.23 1009.54,797.005 1010.39,795.779 1011.25,794.554 1012.1,793.329 1012.96,792.104 1013.81,790.879 1014.66,789.654 1015.52,788.429 1016.37,787.204 1017.23,785.979 1018.08,784.754 1018.93,783.528 1019.79,782.303 1020.64,781.078 1021.5,779.853 1022.35,778.628 1023.2,777.403 1024.06,776.178 1024.91,774.953 1025.77,773.728 1026.62,772.503 1027.48,771.277 1028.33,770.052 1029.18,768.827 1030.04,767.602 1030.89,766.377 1031.75,765.152 1032.6,763.927 1033.45,762.702 1034.31,761.477 1035.16,760.252 1036.02,759.026 1036.87,757.801 1037.72,756.576 1038.58,755.351 1039.43,754.126 1040.29,752.901 1041.14,751.676 1042,750.451 1042.85,749.226 1043.7,748.001 1044.56,746.776 1045.41,745.55 1046.27,744.325 1047.12,743.1 1047.97,741.875 1048.83,740.65 1049.68,739.425 1050.54,738.2 1051.39,736.975 1052.24,735.75 1053.1,734.525 1053.95,733.299 1054.81,732.074 1055.66,730.849 1056.52,729.624 1057.37,728.399 1058.22,727.174 1059.08,725.949 1059.93,724.724 1060.79,723.499 1061.64,722.274 1062.49,721.048 1063.35,719.823 1064.2,718.598 1065.06,717.373 1065.91,716.148 1066.76,714.923 1067.62,713.698 1068.47,712.473 1069.33,711.248 1070.18,710.023 1071.04,708.797 1071.89,707.572 1072.74,706.347 1073.6,705.122 1074.45,703.897 1075.31,702.672 1076.16,701.447 1077.01,700.222 1077.87,698.997 1078.72,697.772 1079.58,696.546 1080.43,695.321 1081.28,694.096 1082.14,692.871 1082.99,691.646 1083.85,690.421 1084.7,689.196 1085.56,687.971 1086.41,686.746 1087.26,685.521 1088.12,684.295 1088.97,683.07 1089.83,681.845 1090.68,680.62 1091.53,679.395 1092.39,678.17 1093.24,676.945 1094.1,675.72 1094.95,674.495 1095.8,673.27 1096.66,672.044 1097.51,670.819 1098.37,669.594 1099.22,668.369 1100.08,667.144 1100.93,665.919 1101.78,664.694 1102.64,663.469 1103.49,662.244 1104.35,661.019 1105.2,659.793 1106.05,658.568 1106.91,657.343 1107.76,656.118 1108.62,654.893 1109.47,653.668 1110.32,652.443 1111.18,651.218 1112.03,649.993 1112.89,648.768 1113.74,647.543 1114.6,646.317 1115.45,645.092 1116.3,643.867 1117.16,642.642 1118.01,641.417 1118.87,640.192 1119.72,638.967 1120.57,637.742 1121.43,636.517 1122.28,635.292 1123.14,634.066 1123.99,632.841 1124.84,631.616 1125.7,630.391 1126.55,629.166 1127.41,627.941 1128.26,626.716 1129.11,625.491 1129.97,624.266 1130.82,623.041 1131.68,621.815 1132.53,620.59 1133.39,619.365 1134.24,618.14 1135.09,616.915 1135.95,615.69 1136.8,614.465 1137.66,613.24 1138.51,612.015 1139.36,610.79 1140.22,609.564 1141.07,608.339 1141.93,607.114 1142.78,605.889 1143.63,604.664 1144.49,603.439 1145.34,602.214 1146.2,600.989 1147.05,599.764 1147.91,598.539 1148.76,597.313 1149.61,596.088 1150.47,594.863 1151.32,593.638 1152.18,592.413 1153.03,591.188 1153.88,589.963 1154.74,588.738 1155.59,587.513 1156.45,586.288 1157.3,585.062 1158.15,583.837 1159.01,582.612 1159.86,581.387 1160.72,580.162 1161.57,578.937 1162.43,577.712 1163.28,576.487 1164.13,575.262 1164.99,574.037 1165.84,572.811 1166.7,571.586 1167.55,570.361 1168.4,569.136 1169.26,567.911 1170.11,566.686 1170.97,565.461 1171.82,564.236 1172.67,563.011 1173.53,561.786 1174.38,560.56 1175.24,559.335 1176.09,558.11 1176.95,556.885 1177.8,555.66 1178.65,554.435 1179.51,553.21 1180.36,551.985 1181.22,550.76 1182.07,549.535 1182.92,548.31 1183.78,547.084 1184.63,545.859 1185.49,544.634 1186.34,543.409 1187.19,542.184 1188.05,540.959 1188.9,539.734 1189.76,538.509 1190.61,537.284 1191.47,536.059 1192.32,534.833 1193.17,533.608 1194.03,532.383 1194.88,531.158 1195.74,529.933 1196.59,528.708 1197.44,527.483 1198.3,526.258 1199.15,525.033 1200.01,523.808 1200.86,522.582 1201.71,521.357 1202.57,520.132 1203.42,518.907 1204.28,517.682 1205.13,516.457 1205.99,515.232 1206.84,514.007 1207.69,512.782 1208.55,511.557 1209.4,510.331 1210.26,509.106 1211.11,507.881 1211.96,506.656 1212.82,505.431 1213.67,504.206 1214.53,502.981 1215.38,501.756 1216.23,500.531 1217.09,499.306 1217.94,498.08 1218.8,496.855 1219.65,495.63 1220.51,494.405 1221.36,493.18 1222.21,491.955 1223.07,490.73 1223.92,489.505 1224.78,488.28 1225.63,487.055 1226.48,485.829 1227.34,484.604 1228.19,483.379 1229.05,482.154 1229.9,480.929 1230.75,479.704 1231.61,478.479 1232.46,477.254 1233.32,476.029 1234.17,474.804 1235.03,473.578 1235.88,472.353 1236.73,471.128 1237.59,469.903 1238.44,468.678 1239.3,467.453 1240.15,466.228 1241,465.003 1241.86,463.778 1242.71,462.553 1243.57,461.327 1244.42,460.102 1245.27,458.877 1246.13,457.652 1246.98,456.427 1247.84,455.202 1248.69,453.977 1249.55,452.752 1250.4,451.527 1251.25,450.302 1252.11,449.076 1252.96,447.851 1253.82,446.626 1254.67,445.401 1255.52,444.176 1256.38,442.951 1257.23,441.726 1258.09,440.501 1258.94,439.276 1259.79,438.051 1260.65,436.826 1261.5,435.6 1262.36,434.375 1263.21,433.15 1264.07,431.925 1264.92,430.7 1265.77,429.475 1266.63,428.25 1267.48,427.025 1268.34,425.8 1269.19,424.575 1270.04,423.349 1270.9,422.124 1271.75,420.899 1272.61,419.674 1273.46,418.449 1274.31,417.224 1275.17,415.999 1276.02,414.774 1276.88,413.549 1277.73,412.324 1278.59,411.098 1279.44,409.873 1280.29,408.648 1281.15,407.423 1282,406.198 1282.86,404.973 1283.71,403.748 1284.56,402.523 1285.42,401.298 1286.27,400.073 1287.13,398.847 1287.98,397.622 1288.83,396.397 1289.69,395.172 1290.54,393.947 1291.4,392.722 1292.25,391.497 1293.11,390.272 1293.96,389.047 1294.81,387.822 1295.67,386.596 1296.52,385.371 1297.38,384.146 1298.23,382.921 1299.08,381.696 1299.94,380.471 1300.79,379.246 1301.65,378.021 1302.5,376.796 1303.35,375.571 1304.21,374.345 1305.06,373.12 1305.92,371.895 1306.77,370.67 1307.62,369.445 1308.48,368.22 1309.33,366.995 1310.19,365.77 1311.04,364.545 1311.9,363.32 1312.75,362.094 1313.6,360.869 1314.46,359.644 1315.31,358.419 1316.17,357.194 1317.02,355.969 1317.87,354.744 1318.73,353.519 1319.58,352.294 1320.44,351.069 1321.29,349.843 1322.14,348.618 1323,347.393 1323.85,346.168 1324.71,344.943 1325.56,343.718 1326.42,342.493 1327.27,341.268 1328.12,340.043 1328.98,338.818 1329.83,337.593 1330.69,336.367 1331.54,335.142 1332.39,333.917 1333.25,332.692 1334.1,331.467 1334.96,330.242 1335.81,329.017 1336.66,327.792 1337.52,326.567 1338.37,325.342 1339.23,324.116 1340.08,322.891 1340.94,321.666 1341.79,320.441 1342.64,319.216 1343.5,317.991 1344.35,316.766 1345.21,315.541 1346.06,314.316 1346.91,313.091 1347.77,311.865 1348.62,310.64 1349.48,309.415 1350.33,308.19 1351.18,306.965 1352.04,305.74 1352.89,304.515 1353.75,303.29 1354.6,302.065 1355.46,300.84 1356.31,299.614 1357.16,298.389 1358.02,297.164 1358.87,295.939 1359.73,294.714 1360.58,293.489 1361.43,292.264 1362.29,291.039 1363.14,289.814 1364,288.589 1364.85,287.363 1365.7,286.138 1366.56,284.913 1367.41,283.688 1368.27,282.463 1369.12,281.238 1369.98,280.013 1370.83,278.788 1371.68,277.563 1372.54,276.338 1373.39,275.112 1374.25,273.887 1375.1,272.662 1375.95,271.437 1376.81,270.212 1377.66,268.987 1378.52,267.762 1379.37,266.537 1380.22,265.312 1381.08,264.087 1381.93,262.861 1382.79,261.636 1383.64,260.411 1384.5,259.186 1385.35,257.961 1386.2,256.736 1387.06,255.511 1387.91,254.286 1388.77,253.061 1389.62,251.836 1390.47,250.61 1391.33,249.385 1392.18,248.16 1393.04,246.935 1393.89,245.71 1394.74,244.485 1395.6,243.26 1396.45,242.035 1397.31,240.81 1398.16,239.585 1399.02,238.36 1399.87,237.134 1400.72,235.909 1401.58,234.684 1402.43,233.459 1403.29,232.234 1404.14,231.009 1404.99,229.784 1405.85,228.559 1406.7,227.334 1407.56,226.109 1408.41,224.883 1409.26,223.658 1410.12,222.433 1410.97,221.208 1411.83,219.983 1412.68,218.758 1413.54,217.533 1414.39,216.308 1415.24,215.083 1416.1,213.858 1416.95,212.632 1417.81,211.407 1418.66,210.182 1419.51,208.957 1420.37,207.732 1421.22,206.507 1422.08,205.282 1422.93,204.057 1423.78,202.832 1424.64,201.607 1425.49,200.381 1426.35,199.156 1427.2,197.931 1428.06,196.706 1428.91,195.481 1429.76,194.256 1430.62,193.031 1431.47,191.806 1432.33,190.581 1433.18,189.356 1434.03,188.13 1434.89,186.905 1435.74,185.68 1436.6,184.455 1437.45,183.23 1438.3,182.005 1439.16,180.78 1440.01,179.555 1440.87,178.33 1441.72,177.105 1442.58,175.879 1443.43,174.654 1444.28,173.429 1445.14,172.204 1445.99,170.979 1446.85,169.754 1447.7,168.529 1448.55,167.304 1449.41,166.079 1450.26,164.854 1451.12,163.628 1451.97,162.403 1452.82,161.178 1453.68,159.953 1454.53,158.728 1455.39,157.503 1456.24,156.278 1457.1,155.053 1457.95,153.828 1458.8,152.603 1459.66,151.377 1460.51,150.152 1461.37,148.927 1462.22,147.702 1463.07,146.477 1463.93,145.252 1464.78,144.027 1465.64,142.802 1466.49,141.577 1467.34,140.352 1468.2,139.127 1469.05,137.901 1469.91,136.676 1470.76,135.451 1471.61,134.226 1472.47,133.001 1473.32,131.776 1474.18,130.551 1475.03,129.326 1475.89,128.101 1476.74,126.876 1477.59,125.65 1478.45,124.425 1479.3,123.2 1480.16,121.975 1481.01,120.75 1481.86,119.525 1482.72,118.3 1483.57,117.075 1484.43,115.85 1485.28,114.625 1486.13,113.399 1486.99,112.174 1487.84,110.949 1488.7,109.724 1489.55,108.499 1490.41,107.274 1491.26,106.049 1492.11,104.824 1492.97,103.599 1493.82,102.374 1494.68,101.148 1495.53,99.9233 1496.38,98.6982 1497.24,97.4731 1498.09,96.248 1498.95,95.0229 1499.8,93.7978 1500.65,92.5727 1501.51,91.3477 1502.36,90.1226 1503.22,88.8975 1504.07,87.6724 1504.93,86.4473 1505.78,85.2222 1506.63,83.9971 1507.49,82.772 1508.34,81.5469 1509.2,80.3218 1510.05,79.0967 1510.9,77.8716 1511.76,76.6465 "/>
</svg>
