<?xml version="1.0" encoding="utf-8"?>
<svg xmlns="http://www.w3.org/2000/svg" xmlns:xlink="http://www.w3.org/1999/xlink" width="400" height="300" viewBox="0 0 1600 1200">
<defs>
  <clipPath id="clip250">
    <rect x="0" y="0" width="1600" height="1200"/>
  </clipPath>
</defs>
<path clip-path="url(#clip250)" d="M0 1200 L1600 1200 L1600 0 L0 0  Z" fill="#ffffff" fill-rule="evenodd" fill-opacity="1"/>
<defs>
  <clipPath id="clip251">
    <rect x="320" y="0" width="1121" height="1121"/>
  </clipPath>
</defs>
<path clip-path="url(#clip250)" d="M178.274 1086.13 L1552.76 1086.13 L1552.76 47.2441 L178.274 47.2441  Z" fill="#ffffff" fill-rule="evenodd" fill-opacity="1"/>
<defs>
  <clipPath id="clip252">
    <rect x="178" y="47" width="1375" height="1040"/>
  </clipPath>
</defs>
<polyline clip-path="url(#clip252)" style="stroke:#000000; stroke-linecap:round; stroke-linejoin:round; stroke-width:2; stroke-opacity:0.1; fill:none" points="379.26,1086.13 379.26,47.2441 "/>
<polyline clip-path="url(#clip252)" style="stroke:#000000; stroke-linecap:round; stroke-linejoin:round; stroke-width:2; stroke-opacity:0.1; fill:none" points="622.387,1086.13 622.387,47.2441 "/>
<polyline clip-path="url(#clip252)" style="stroke:#000000; stroke-linecap:round; stroke-linejoin:round; stroke-width:2; stroke-opacity:0.1; fill:none" points="865.515,1086.13 865.515,47.2441 "/>
<polyline clip-path="url(#clip252)" style="stroke:#000000; stroke-linecap:round; stroke-linejoin:round; stroke-width:2; stroke-opacity:0.1; fill:none" points="1108.64,1086.13 1108.64,47.2441 "/>
<polyline clip-path="url(#clip252)" style="stroke:#000000; stroke-linecap:round; stroke-linejoin:round; stroke-width:2; stroke-opacity:0.1; fill:none" points="1351.77,1086.13 1351.77,47.2441 "/>
<polyline clip-path="url(#clip252)" style="stroke:#000000; stroke-linecap:round; stroke-linejoin:round; stroke-width:2; stroke-opacity:0.1; fill:none" points="178.274,1057.05 1552.76,1057.05 "/>
<polyline clip-path="url(#clip252)" style="stroke:#000000; stroke-linecap:round; stroke-linejoin:round; stroke-width:2; stroke-opacity:0.1; fill:none" points="178.274,811.87 1552.76,811.87 "/>
<polyline clip-path="url(#clip252)" style="stroke:#000000; stroke-linecap:round; stroke-linejoin:round; stroke-width:2; stroke-opacity:0.1; fill:none" points="178.274,566.686 1552.76,566.686 "/>
<polyline clip-path="url(#clip252)" style="stroke:#000000; stroke-linecap:round; stroke-linejoin:round; stroke-width:2; stroke-opacity:0.1; fill:none" points="178.274,321.502 1552.76,321.502 "/>
<polyline clip-path="url(#clip252)" style="stroke:#000000; stroke-linecap:round; stroke-linejoin:round; stroke-width:2; stroke-opacity:0.1; fill:none" points="178.274,76.3176 1552.76,76.3176 "/>
<polyline clip-path="url(#clip250)" style="stroke:#000000; stroke-linecap:round; stroke-linejoin:round; stroke-width:4; stroke-opacity:1; fill:none" points="178.274,1086.13 1552.76,1086.13 "/>
<polyline clip-path="url(#clip250)" style="stroke:#000000; stroke-linecap:round; stroke-linejoin:round; stroke-width:4; stroke-opacity:1; fill:none" points="379.26,1086.13 379.26,1067.23 "/>
<polyline clip-path="url(#clip250)" style="stroke:#000000; stroke-linecap:round; stroke-linejoin:round; stroke-width:4; stroke-opacity:1; fill:none" points="622.387,1086.13 622.387,1067.23 "/>
<polyline clip-path="url(#clip250)" style="stroke:#000000; stroke-linecap:round; stroke-linejoin:round; stroke-width:4; stroke-opacity:1; fill:none" points="865.515,1086.13 865.515,1067.23 "/>
<polyline clip-path="url(#clip250)" style="stroke:#000000; stroke-linecap:round; stroke-linejoin:round; stroke-width:4; stroke-opacity:1; fill:none" points="1108.64,1086.13 1108.64,1067.23 "/>
<polyline clip-path="url(#clip250)" style="stroke:#000000; stroke-linecap:round; stroke-linejoin:round; stroke-width:4; stroke-opacity:1; fill:none" points="1351.77,1086.13 1351.77,1067.23 "/>
<path clip-path="url(#clip250)" d="M348.322 1125.3 L377.998 1125.3 L377.998 1129.23 L348.322 1129.23 L348.322 1125.3 Z" fill="#000000" fill-rule="nonzero" fill-opacity="1" /><path clip-path="url(#clip250)" d="M398.669 1122.98 Q395.521 1122.98 393.669 1125.14 Q391.841 1127.29 391.841 1131.04 Q391.841 1134.77 393.669 1136.94 Q395.521 1139.1 398.669 1139.1 Q401.817 1139.1 403.646 1136.94 Q405.498 1134.77 405.498 1131.04 Q405.498 1127.29 403.646 1125.14 Q401.817 1122.98 398.669 1122.98 M407.952 1108.33 L407.952 1112.59 Q406.192 1111.76 404.387 1111.32 Q402.604 1110.88 400.845 1110.88 Q396.215 1110.88 393.762 1114 Q391.331 1117.13 390.984 1123.45 Q392.35 1121.43 394.41 1120.37 Q396.47 1119.28 398.947 1119.28 Q404.155 1119.28 407.165 1122.45 Q410.197 1125.6 410.197 1131.04 Q410.197 1136.36 407.049 1139.58 Q403.901 1142.8 398.669 1142.8 Q392.674 1142.8 389.503 1138.22 Q386.331 1133.61 386.331 1124.88 Q386.331 1116.69 390.22 1111.83 Q394.109 1106.94 400.66 1106.94 Q402.419 1106.94 404.202 1107.29 Q406.007 1107.64 407.952 1108.33 Z" fill="#000000" fill-rule="nonzero" fill-opacity="1" /><path clip-path="url(#clip250)" d="M591.855 1125.3 L621.531 1125.3 L621.531 1129.23 L591.855 1129.23 L591.855 1125.3 Z" fill="#000000" fill-rule="nonzero" fill-opacity="1" /><path clip-path="url(#clip250)" d="M645.79 1123.49 Q649.146 1124.21 651.021 1126.48 Q652.92 1128.75 652.92 1132.08 Q652.92 1137.2 649.401 1140 Q645.883 1142.8 639.401 1142.8 Q637.225 1142.8 634.91 1142.36 Q632.619 1141.94 630.165 1141.09 L630.165 1136.57 Q632.109 1137.71 634.424 1138.29 Q636.739 1138.86 639.262 1138.86 Q643.66 1138.86 645.952 1137.13 Q648.267 1135.39 648.267 1132.08 Q648.267 1129.03 646.114 1127.31 Q643.984 1125.58 640.165 1125.58 L636.137 1125.58 L636.137 1121.73 L640.35 1121.73 Q643.799 1121.73 645.628 1120.37 Q647.457 1118.98 647.457 1116.39 Q647.457 1113.73 645.558 1112.31 Q643.683 1110.88 640.165 1110.88 Q638.244 1110.88 636.045 1111.29 Q633.846 1111.71 631.207 1112.59 L631.207 1108.42 Q633.869 1107.68 636.183 1107.31 Q638.521 1106.94 640.582 1106.94 Q645.906 1106.94 649.007 1109.37 Q652.109 1111.78 652.109 1115.9 Q652.109 1118.77 650.466 1120.76 Q648.822 1122.73 645.79 1123.49 Z" fill="#000000" fill-rule="nonzero" fill-opacity="1" /><path clip-path="url(#clip250)" d="M865.515 1110.65 Q861.904 1110.65 860.075 1114.21 Q858.27 1117.75 858.27 1124.88 Q858.27 1131.99 860.075 1135.55 Q861.904 1139.1 865.515 1139.1 Q869.149 1139.1 870.955 1135.55 Q872.783 1131.99 872.783 1124.88 Q872.783 1117.75 870.955 1114.21 Q869.149 1110.65 865.515 1110.65 M865.515 1106.94 Q871.325 1106.94 874.381 1111.55 Q877.459 1116.13 877.459 1124.88 Q877.459 1133.61 874.381 1138.22 Q871.325 1142.8 865.515 1142.8 Q859.705 1142.8 856.626 1138.22 Q853.571 1133.61 853.571 1124.88 Q853.571 1116.13 856.626 1111.55 Q859.705 1106.94 865.515 1106.94 Z" fill="#000000" fill-rule="nonzero" fill-opacity="1" /><path clip-path="url(#clip250)" d="M1112.89 1123.49 Q1116.25 1124.21 1118.12 1126.48 Q1120.02 1128.75 1120.02 1132.08 Q1120.02 1137.2 1116.5 1140 Q1112.98 1142.8 1106.5 1142.8 Q1104.33 1142.8 1102.01 1142.36 Q1099.72 1141.94 1097.27 1141.09 L1097.27 1136.57 Q1099.21 1137.71 1101.52 1138.29 Q1103.84 1138.86 1106.36 1138.86 Q1110.76 1138.86 1113.05 1137.13 Q1115.37 1135.39 1115.37 1132.08 Q1115.37 1129.03 1113.21 1127.31 Q1111.08 1125.58 1107.27 1125.58 L1103.24 1125.58 L1103.24 1121.73 L1107.45 1121.73 Q1110.9 1121.73 1112.73 1120.37 Q1114.56 1118.98 1114.56 1116.39 Q1114.56 1113.73 1112.66 1112.31 Q1110.78 1110.88 1107.27 1110.88 Q1105.34 1110.88 1103.14 1111.29 Q1100.95 1111.71 1098.31 1112.59 L1098.31 1108.42 Q1100.97 1107.68 1103.28 1107.31 Q1105.62 1106.94 1107.68 1106.94 Q1113.01 1106.94 1116.11 1109.37 Q1119.21 1111.78 1119.21 1115.9 Q1119.21 1118.77 1117.57 1120.76 Q1115.92 1122.73 1112.89 1123.49 Z" fill="#000000" fill-rule="nonzero" fill-opacity="1" /><path clip-path="url(#clip250)" d="M1352.18 1122.98 Q1349.03 1122.98 1347.18 1125.14 Q1345.35 1127.29 1345.35 1131.04 Q1345.35 1134.77 1347.18 1136.94 Q1349.03 1139.1 1352.18 1139.1 Q1355.32 1139.1 1357.15 1136.94 Q1359 1134.77 1359 1131.04 Q1359 1127.29 1357.15 1125.14 Q1355.32 1122.98 1352.18 1122.98 M1361.46 1108.33 L1361.46 1112.59 Q1359.7 1111.76 1357.89 1111.32 Q1356.11 1110.88 1354.35 1110.88 Q1349.72 1110.88 1347.27 1114 Q1344.84 1117.13 1344.49 1123.45 Q1345.86 1121.43 1347.92 1120.37 Q1349.98 1119.28 1352.45 1119.28 Q1357.66 1119.28 1360.67 1122.45 Q1363.7 1125.6 1363.7 1131.04 Q1363.7 1136.36 1360.56 1139.58 Q1357.41 1142.8 1352.18 1142.8 Q1346.18 1142.8 1343.01 1138.22 Q1339.84 1133.61 1339.84 1124.88 Q1339.84 1116.69 1343.73 1111.83 Q1347.62 1106.94 1354.17 1106.94 Q1355.93 1106.94 1357.71 1107.29 Q1359.51 1107.64 1361.46 1108.33 Z" fill="#000000" fill-rule="nonzero" fill-opacity="1" /><polyline clip-path="url(#clip250)" style="stroke:#000000; stroke-linecap:round; stroke-linejoin:round; stroke-width:4; stroke-opacity:1; fill:none" points="178.274,1086.13 178.274,47.2441 "/>
<polyline clip-path="url(#clip250)" style="stroke:#000000; stroke-linecap:round; stroke-linejoin:round; stroke-width:4; stroke-opacity:1; fill:none" points="178.274,1057.05 197.172,1057.05 "/>
<polyline clip-path="url(#clip250)" style="stroke:#000000; stroke-linecap:round; stroke-linejoin:round; stroke-width:4; stroke-opacity:1; fill:none" points="178.274,811.87 197.172,811.87 "/>
<polyline clip-path="url(#clip250)" style="stroke:#000000; stroke-linecap:round; stroke-linejoin:round; stroke-width:4; stroke-opacity:1; fill:none" points="178.274,566.686 197.172,566.686 "/>
<polyline clip-path="url(#clip250)" style="stroke:#000000; stroke-linecap:round; stroke-linejoin:round; stroke-width:4; stroke-opacity:1; fill:none" points="178.274,321.502 197.172,321.502 "/>
<polyline clip-path="url(#clip250)" style="stroke:#000000; stroke-linecap:round; stroke-linejoin:round; stroke-width:4; stroke-opacity:1; fill:none" points="178.274,76.3176 197.172,76.3176 "/>
<path clip-path="url(#clip250)" d="M66.9365 1042.85 Q63.3254 1042.85 61.4967 1046.42 Q59.6912 1049.96 59.6912 1057.09 Q59.6912 1064.2 61.4967 1067.76 Q63.3254 1071.3 66.9365 1071.3 Q70.5707 1071.3 72.3763 1067.76 Q74.205 1064.2 74.205 1057.09 Q74.205 1049.96 72.3763 1046.42 Q70.5707 1042.85 66.9365 1042.85 M66.9365 1039.15 Q72.7467 1039.15 75.8022 1043.76 Q78.8809 1048.34 78.8809 1057.09 Q78.8809 1065.82 75.8022 1070.42 Q72.7467 1075.01 66.9365 1075.01 Q61.1264 1075.01 58.0477 1070.42 Q54.9921 1065.82 54.9921 1057.09 Q54.9921 1048.34 58.0477 1043.76 Q61.1264 1039.15 66.9365 1039.15 Z" fill="#000000" fill-rule="nonzero" fill-opacity="1" /><path clip-path="url(#clip250)" d="M87.0984 1068.45 L91.9827 1068.45 L91.9827 1074.33 L87.0984 1074.33 L87.0984 1068.45 Z" fill="#000000" fill-rule="nonzero" fill-opacity="1" /><path clip-path="url(#clip250)" d="M112.168 1042.85 Q108.557 1042.85 106.728 1046.42 Q104.922 1049.96 104.922 1057.09 Q104.922 1064.2 106.728 1067.76 Q108.557 1071.3 112.168 1071.3 Q115.802 1071.3 117.608 1067.76 Q119.436 1064.2 119.436 1057.09 Q119.436 1049.96 117.608 1046.42 Q115.802 1042.85 112.168 1042.85 M112.168 1039.15 Q117.978 1039.15 121.033 1043.76 Q124.112 1048.34 124.112 1057.09 Q124.112 1065.82 121.033 1070.42 Q117.978 1075.01 112.168 1075.01 Q106.358 1075.01 103.279 1070.42 Q100.223 1065.82 100.223 1057.09 Q100.223 1048.34 103.279 1043.76 Q106.358 1039.15 112.168 1039.15 Z" fill="#000000" fill-rule="nonzero" fill-opacity="1" /><path clip-path="url(#clip250)" d="M142.33 1042.85 Q138.719 1042.85 136.89 1046.42 Q135.084 1049.96 135.084 1057.09 Q135.084 1064.2 136.89 1067.76 Q138.719 1071.3 142.33 1071.3 Q145.964 1071.3 147.769 1067.76 Q149.598 1064.2 149.598 1057.09 Q149.598 1049.96 147.769 1046.42 Q145.964 1042.85 142.33 1042.85 M142.33 1039.15 Q148.14 1039.15 151.195 1043.76 Q154.274 1048.34 154.274 1057.09 Q154.274 1065.82 151.195 1070.42 Q148.14 1075.01 142.33 1075.01 Q136.519 1075.01 133.441 1070.42 Q130.385 1065.82 130.385 1057.09 Q130.385 1048.34 133.441 1043.76 Q136.519 1039.15 142.33 1039.15 Z" fill="#000000" fill-rule="nonzero" fill-opacity="1" /><path clip-path="url(#clip250)" d="M67.9319 797.669 Q64.3208 797.669 62.4921 801.234 Q60.6865 804.775 60.6865 811.905 Q60.6865 819.011 62.4921 822.576 Q64.3208 826.118 67.9319 826.118 Q71.5661 826.118 73.3717 822.576 Q75.2004 819.011 75.2004 811.905 Q75.2004 804.775 73.3717 801.234 Q71.5661 797.669 67.9319 797.669 M67.9319 793.965 Q73.742 793.965 76.7976 798.572 Q79.8763 803.155 79.8763 811.905 Q79.8763 820.632 76.7976 825.238 Q73.742 829.821 67.9319 829.821 Q62.1217 829.821 59.043 825.238 Q55.9875 820.632 55.9875 811.905 Q55.9875 803.155 59.043 798.572 Q62.1217 793.965 67.9319 793.965 Z" fill="#000000" fill-rule="nonzero" fill-opacity="1" /><path clip-path="url(#clip250)" d="M88.0938 823.271 L92.978 823.271 L92.978 829.15 L88.0938 829.15 L88.0938 823.271 Z" fill="#000000" fill-rule="nonzero" fill-opacity="1" /><path clip-path="url(#clip250)" d="M107.191 825.215 L123.51 825.215 L123.51 829.15 L101.566 829.15 L101.566 825.215 Q104.228 822.46 108.811 817.831 Q113.418 813.178 114.598 811.835 Q116.844 809.312 117.723 807.576 Q118.626 805.817 118.626 804.127 Q118.626 801.373 116.682 799.636 Q114.76 797.9 111.658 797.9 Q109.459 797.9 107.006 798.664 Q104.575 799.428 101.797 800.979 L101.797 796.257 Q104.621 795.123 107.075 794.544 Q109.529 793.965 111.566 793.965 Q116.936 793.965 120.131 796.65 Q123.325 799.336 123.325 803.826 Q123.325 805.956 122.515 807.877 Q121.728 809.775 119.621 812.368 Q119.043 813.039 115.941 816.257 Q112.839 819.451 107.191 825.215 Z" fill="#000000" fill-rule="nonzero" fill-opacity="1" /><path clip-path="url(#clip250)" d="M133.371 794.59 L151.728 794.59 L151.728 798.525 L137.654 798.525 L137.654 806.998 Q138.672 806.65 139.691 806.488 Q140.709 806.303 141.728 806.303 Q147.515 806.303 150.894 809.474 Q154.274 812.646 154.274 818.062 Q154.274 823.641 150.802 826.743 Q147.33 829.821 141.01 829.821 Q138.834 829.821 136.566 829.451 Q134.32 829.081 131.913 828.34 L131.913 823.641 Q133.996 824.775 136.219 825.331 Q138.441 825.886 140.918 825.886 Q144.922 825.886 147.26 823.78 Q149.598 821.673 149.598 818.062 Q149.598 814.451 147.26 812.345 Q144.922 810.238 140.918 810.238 Q139.043 810.238 137.168 810.655 Q135.316 811.072 133.371 811.951 L133.371 794.59 Z" fill="#000000" fill-rule="nonzero" fill-opacity="1" /><path clip-path="url(#clip250)" d="M66.9365 552.485 Q63.3254 552.485 61.4967 556.049 Q59.6912 559.591 59.6912 566.721 Q59.6912 573.827 61.4967 577.392 Q63.3254 580.934 66.9365 580.934 Q70.5707 580.934 72.3763 577.392 Q74.205 573.827 74.205 566.721 Q74.205 559.591 72.3763 556.049 Q70.5707 552.485 66.9365 552.485 M66.9365 548.781 Q72.7467 548.781 75.8022 553.387 Q78.8809 557.971 78.8809 566.721 Q78.8809 575.448 75.8022 580.054 Q72.7467 584.637 66.9365 584.637 Q61.1264 584.637 58.0477 580.054 Q54.9921 575.448 54.9921 566.721 Q54.9921 557.971 58.0477 553.387 Q61.1264 548.781 66.9365 548.781 Z" fill="#000000" fill-rule="nonzero" fill-opacity="1" /><path clip-path="url(#clip250)" d="M87.0984 578.086 L91.9827 578.086 L91.9827 583.966 L87.0984 583.966 L87.0984 578.086 Z" fill="#000000" fill-rule="nonzero" fill-opacity="1" /><path clip-path="url(#clip250)" d="M102.214 549.406 L120.57 549.406 L120.57 553.341 L106.496 553.341 L106.496 561.813 Q107.515 561.466 108.534 561.304 Q109.552 561.119 110.571 561.119 Q116.358 561.119 119.737 564.29 Q123.117 567.461 123.117 572.878 Q123.117 578.457 119.645 581.559 Q116.172 584.637 109.853 584.637 Q107.677 584.637 105.409 584.267 Q103.163 583.897 100.756 583.156 L100.756 578.457 Q102.839 579.591 105.061 580.147 Q107.284 580.702 109.76 580.702 Q113.765 580.702 116.103 578.596 Q118.441 576.489 118.441 572.878 Q118.441 569.267 116.103 567.161 Q113.765 565.054 109.76 565.054 Q107.885 565.054 106.01 565.471 Q104.159 565.887 102.214 566.767 L102.214 549.406 Z" fill="#000000" fill-rule="nonzero" fill-opacity="1" /><path clip-path="url(#clip250)" d="M142.33 552.485 Q138.719 552.485 136.89 556.049 Q135.084 559.591 135.084 566.721 Q135.084 573.827 136.89 577.392 Q138.719 580.934 142.33 580.934 Q145.964 580.934 147.769 577.392 Q149.598 573.827 149.598 566.721 Q149.598 559.591 147.769 556.049 Q145.964 552.485 142.33 552.485 M142.33 548.781 Q148.14 548.781 151.195 553.387 Q154.274 557.971 154.274 566.721 Q154.274 575.448 151.195 580.054 Q148.14 584.637 142.33 584.637 Q136.519 584.637 133.441 580.054 Q130.385 575.448 130.385 566.721 Q130.385 557.971 133.441 553.387 Q136.519 548.781 142.33 548.781 Z" fill="#000000" fill-rule="nonzero" fill-opacity="1" /><path clip-path="url(#clip250)" d="M67.9319 307.3 Q64.3208 307.3 62.4921 310.865 Q60.6865 314.407 60.6865 321.537 Q60.6865 328.643 62.4921 332.208 Q64.3208 335.749 67.9319 335.749 Q71.5661 335.749 73.3717 332.208 Q75.2004 328.643 75.2004 321.537 Q75.2004 314.407 73.3717 310.865 Q71.5661 307.3 67.9319 307.3 M67.9319 303.597 Q73.742 303.597 76.7976 308.203 Q79.8763 312.787 79.8763 321.537 Q79.8763 330.263 76.7976 334.87 Q73.742 339.453 67.9319 339.453 Q62.1217 339.453 59.043 334.87 Q55.9875 330.263 55.9875 321.537 Q55.9875 312.787 59.043 308.203 Q62.1217 303.597 67.9319 303.597 Z" fill="#000000" fill-rule="nonzero" fill-opacity="1" /><path clip-path="url(#clip250)" d="M88.0938 332.902 L92.978 332.902 L92.978 338.782 L88.0938 338.782 L88.0938 332.902 Z" fill="#000000" fill-rule="nonzero" fill-opacity="1" /><path clip-path="url(#clip250)" d="M101.983 304.222 L124.205 304.222 L124.205 306.213 L111.658 338.782 L106.774 338.782 L118.58 308.157 L101.983 308.157 L101.983 304.222 Z" fill="#000000" fill-rule="nonzero" fill-opacity="1" /><path clip-path="url(#clip250)" d="M133.371 304.222 L151.728 304.222 L151.728 308.157 L137.654 308.157 L137.654 316.629 Q138.672 316.282 139.691 316.12 Q140.709 315.935 141.728 315.935 Q147.515 315.935 150.894 319.106 Q154.274 322.277 154.274 327.694 Q154.274 333.273 150.802 336.374 Q147.33 339.453 141.01 339.453 Q138.834 339.453 136.566 339.083 Q134.32 338.712 131.913 337.972 L131.913 333.273 Q133.996 334.407 136.219 334.962 Q138.441 335.518 140.918 335.518 Q144.922 335.518 147.26 333.411 Q149.598 331.305 149.598 327.694 Q149.598 324.083 147.26 321.976 Q144.922 319.87 140.918 319.87 Q139.043 319.87 137.168 320.287 Q135.316 320.703 133.371 321.583 L133.371 304.222 Z" fill="#000000" fill-rule="nonzero" fill-opacity="1" /><path clip-path="url(#clip250)" d="M57.7467 89.6624 L65.3856 89.6624 L65.3856 63.2968 L57.0754 64.9635 L57.0754 60.7042 L65.3393 59.0376 L70.0152 59.0376 L70.0152 89.6624 L77.654 89.6624 L77.654 93.5976 L57.7467 93.5976 L57.7467 89.6624 Z" fill="#000000" fill-rule="nonzero" fill-opacity="1" /><path clip-path="url(#clip250)" d="M87.0984 87.718 L91.9827 87.718 L91.9827 93.5976 L87.0984 93.5976 L87.0984 87.718 Z" fill="#000000" fill-rule="nonzero" fill-opacity="1" /><path clip-path="url(#clip250)" d="M112.168 62.1163 Q108.557 62.1163 106.728 65.6811 Q104.922 69.2227 104.922 76.3523 Q104.922 83.4587 106.728 87.0235 Q108.557 90.5652 112.168 90.5652 Q115.802 90.5652 117.608 87.0235 Q119.436 83.4587 119.436 76.3523 Q119.436 69.2227 117.608 65.6811 Q115.802 62.1163 112.168 62.1163 M112.168 58.4126 Q117.978 58.4126 121.033 63.019 Q124.112 67.6023 124.112 76.3523 Q124.112 85.0791 121.033 89.6856 Q117.978 94.2689 112.168 94.2689 Q106.358 94.2689 103.279 89.6856 Q100.223 85.0791 100.223 76.3523 Q100.223 67.6023 103.279 63.019 Q106.358 58.4126 112.168 58.4126 Z" fill="#000000" fill-rule="nonzero" fill-opacity="1" /><path clip-path="url(#clip250)" d="M142.33 62.1163 Q138.719 62.1163 136.89 65.6811 Q135.084 69.2227 135.084 76.3523 Q135.084 83.4587 136.89 87.0235 Q138.719 90.5652 142.33 90.5652 Q145.964 90.5652 147.769 87.0235 Q149.598 83.4587 149.598 76.3523 Q149.598 69.2227 147.769 65.6811 Q145.964 62.1163 142.33 62.1163 M142.33 58.4126 Q148.14 58.4126 151.195 63.019 Q154.274 67.6023 154.274 76.3523 Q154.274 85.0791 151.195 89.6856 Q148.14 94.2689 142.33 94.2689 Q136.519 94.2689 133.441 89.6856 Q130.385 85.0791 130.385 76.3523 Q130.385 67.6023 133.441 63.019 Q136.519 58.4126 142.33 58.4126 Z" fill="#000000" fill-rule="nonzero" fill-opacity="1" /><polyline clip-path="url(#clip252)" style="stroke:#009af9; stroke-linecap:round; stroke-linejoin:round; stroke-width:4; stroke-opacity:1; fill:none" points="217.174,1056.73 217.985,1056.72 218.795,1056.72 219.606,1056.72 220.416,1056.71 221.227,1056.71 222.037,1056.71 222.847,1056.7 223.658,1056.7 224.468,1056.69 225.279,1056.69 226.089,1056.69 226.9,1056.68 227.71,1056.68 228.52,1056.68 229.331,1056.67 230.141,1056.67 230.952,1056.66 231.762,1056.66 232.573,1056.66 233.383,1056.65 234.193,1056.65 235.004,1056.64 235.814,1056.64 236.625,1056.64 237.435,1056.63 238.245,1056.63 239.056,1056.62 239.866,1056.62 240.677,1056.61 241.487,1056.61 242.298,1056.61 243.108,1056.6 243.918,1056.6 244.729,1056.59 245.539,1056.59 246.35,1056.58 247.16,1056.58 247.971,1056.57 248.781,1056.57 249.591,1056.56 250.402,1056.56 251.212,1056.55 252.023,1056.55 252.833,1056.54 253.644,1056.54 254.454,1056.53 255.264,1056.53 256.075,1056.52 256.885,1056.52 257.696,1056.51 258.506,1056.51 259.317,1056.5 260.127,1056.5 260.937,1056.49 261.748,1056.48 262.558,1056.48 263.369,1056.47 264.179,1056.47 264.99,1056.46 265.8,1056.46 266.61,1056.45 267.421,1056.44 268.231,1056.44 269.042,1056.43 269.852,1056.42 270.663,1056.42 271.473,1056.41 272.283,1056.41 273.094,1056.4 273.904,1056.39 274.715,1056.39 275.525,1056.38 276.336,1056.37 277.146,1056.37 277.956,1056.36 278.767,1056.35 279.577,1056.34 280.388,1056.34 281.198,1056.33 282.008,1056.32 282.819,1056.32 283.629,1056.31 284.44,1056.3 285.25,1056.29 286.061,1056.29 286.871,1056.28 287.681,1056.27 288.492,1056.26 289.302,1056.25 290.113,1056.25 290.923,1056.24 291.734,1056.23 292.544,1056.22 293.354,1056.21 294.165,1056.2 294.975,1056.2 295.786,1056.19 296.596,1056.18 297.407,1056.17 298.217,1056.16 299.027,1056.15 299.838,1056.14 300.648,1056.13 301.459,1056.12 302.269,1056.12 303.08,1056.11 303.89,1056.1 304.7,1056.09 305.511,1056.08 306.321,1056.07 307.132,1056.06 307.942,1056.05 308.753,1056.04 309.563,1056.03 310.373,1056.02 311.184,1056.01 311.994,1056 312.805,1055.98 313.615,1055.97 314.426,1055.96 315.236,1055.95 316.046,1055.94 316.857,1055.93 317.667,1055.92 318.478,1055.91 319.288,1055.9 320.098,1055.88 320.909,1055.87 321.719,1055.86 322.53,1055.85 323.34,1055.84 324.151,1055.82 324.961,1055.81 325.771,1055.8 326.582,1055.79 327.392,1055.77 328.203,1055.76 329.013,1055.75 329.824,1055.74 330.634,1055.72 331.444,1055.71 332.255,1055.7 333.065,1055.68 333.876,1055.67 334.686,1055.65 335.497,1055.64 336.307,1055.63 337.117,1055.61 337.928,1055.6 338.738,1055.58 339.549,1055.57 340.359,1055.55 341.17,1055.54 341.98,1055.52 342.79,1055.51 343.601,1055.49 344.411,1055.48 345.222,1055.46 346.032,1055.44 346.843,1055.43 347.653,1055.41 348.463,1055.39 349.274,1055.38 350.084,1055.36 350.895,1055.34 351.705,1055.33 352.516,1055.31 353.326,1055.29 354.136,1055.27 354.947,1055.26 355.757,1055.24 356.568,1055.22 357.378,1055.2 358.188,1055.18 358.999,1055.16 359.809,1055.15 360.62,1055.13 361.43,1055.11 362.241,1055.09 363.051,1055.07 363.861,1055.05 364.672,1055.03 365.482,1055.01 366.293,1054.99 367.103,1054.97 367.914,1054.95 368.724,1054.92 369.534,1054.9 370.345,1054.88 371.155,1054.86 371.966,1054.84 372.776,1054.82 373.587,1054.79 374.397,1054.77 375.207,1054.75 376.018,1054.72 376.828,1054.7 377.639,1054.68 378.449,1054.65 379.26,1054.63 380.07,1054.61 380.88,1054.58 381.691,1054.56 382.501,1054.53 383.312,1054.51 384.122,1054.48 384.933,1054.45 385.743,1054.43 386.553,1054.4 387.364,1054.38 388.174,1054.35 388.985,1054.32 389.795,1054.29 390.606,1054.27 391.416,1054.24 392.226,1054.21 393.037,1054.18 393.847,1054.15 394.658,1054.12 395.468,1054.09 396.279,1054.06 397.089,1054.03 397.899,1054 398.71,1053.97 399.52,1053.94 400.331,1053.91 401.141,1053.88 401.951,1053.85 402.762,1053.82 403.572,1053.78 404.383,1053.75 405.193,1053.72 406.004,1053.68 406.814,1053.65 407.624,1053.62 408.435,1053.58 409.245,1053.55 410.056,1053.51 410.866,1053.48 411.677,1053.44 412.487,1053.4 413.297,1053.37 414.108,1053.33 414.918,1053.29 415.729,1053.26 416.539,1053.22 417.35,1053.18 418.16,1053.14 418.97,1053.1 419.781,1053.06 420.591,1053.02 421.402,1052.98 422.212,1052.94 423.023,1052.9 423.833,1052.86 424.643,1052.82 425.454,1052.77 426.264,1052.73 427.075,1052.69 427.885,1052.64 428.696,1052.6 429.506,1052.56 430.316,1052.51 431.127,1052.47 431.937,1052.42 432.748,1052.37 433.558,1052.33 434.369,1052.28 435.179,1052.23 435.989,1052.18 436.8,1052.13 437.61,1052.09 438.421,1052.04 439.231,1051.99 440.041,1051.93 440.852,1051.88 441.662,1051.83 442.473,1051.78 443.283,1051.73 444.094,1051.67 444.904,1051.62 445.714,1051.57 446.525,1051.51 447.335,1051.46 448.146,1051.4 448.956,1051.34 449.767,1051.29 450.577,1051.23 451.387,1051.17 452.198,1051.11 453.008,1051.05 453.819,1050.99 454.629,1050.93 455.44,1050.87 456.25,1050.81 457.06,1050.75 457.871,1050.68 458.681,1050.62 459.492,1050.56 460.302,1050.49 461.113,1050.42 461.923,1050.36 462.733,1050.29 463.544,1050.22 464.354,1050.16 465.165,1050.09 465.975,1050.02 466.786,1049.95 467.596,1049.88 468.406,1049.81 469.217,1049.73 470.027,1049.66 470.838,1049.59 471.648,1049.51 472.459,1049.44 473.269,1049.36 474.079,1049.28 474.89,1049.21 475.7,1049.13 476.511,1049.05 477.321,1048.97 478.131,1048.89 478.942,1048.81 479.752,1048.73 480.563,1048.64 481.373,1048.56 482.184,1048.47 482.994,1048.39 483.804,1048.3 484.615,1048.21 485.425,1048.13 486.236,1048.04 487.046,1047.95 487.857,1047.86 488.667,1047.77 489.477,1047.67 490.288,1047.58 491.098,1047.49 491.909,1047.39 492.719,1047.29 493.53,1047.2 494.34,1047.1 495.15,1047 495.961,1046.9 496.771,1046.8 497.582,1046.7 498.392,1046.59 499.203,1046.49 500.013,1046.39 500.823,1046.28 501.634,1046.17 502.444,1046.06 503.255,1045.95 504.065,1045.84 504.876,1045.73 505.686,1045.62 506.496,1045.51 507.307,1045.39 508.117,1045.28 508.928,1045.16 509.738,1045.04 510.549,1044.92 511.359,1044.8 512.169,1044.68 512.98,1044.56 513.79,1044.43 514.601,1044.31 515.411,1044.18 516.221,1044.05 517.032,1043.93 517.842,1043.8 518.653,1043.66 519.463,1043.53 520.274,1043.4 521.084,1043.26 521.894,1043.13 522.705,1042.99 523.515,1042.85 524.326,1042.71 525.136,1042.56 525.947,1042.42 526.757,1042.28 527.567,1042.13 528.378,1041.98 529.188,1041.83 529.999,1041.68 530.809,1041.53 531.62,1041.38 532.43,1041.22 533.24,1041.07 534.051,1040.91 534.861,1040.75 535.672,1040.59 536.482,1040.42 537.293,1040.26 538.103,1040.09 538.913,1039.93 539.724,1039.76 540.534,1039.59 541.345,1039.41 542.155,1039.24 542.966,1039.06 543.776,1038.89 544.586,1038.71 545.397,1038.53 546.207,1038.34 547.018,1038.16 547.828,1037.97 548.639,1037.79 549.449,1037.6 550.259,1037.4 551.07,1037.21 551.88,1037.02 552.691,1036.82 553.501,1036.62 554.312,1036.42 555.122,1036.22 555.932,1036.01 556.743,1035.8 557.553,1035.59 558.364,1035.38 559.174,1035.17 559.984,1034.96 560.795,1034.74 561.605,1034.52 562.416,1034.3 563.226,1034.08 564.037,1033.85 564.847,1033.62 565.657,1033.39 566.468,1033.16 567.278,1032.93 568.089,1032.69 568.899,1032.45 569.71,1032.21 570.52,1031.97 571.33,1031.72 572.141,1031.47 572.951,1031.22 573.762,1030.97 574.572,1030.71 575.383,1030.46 576.193,1030.2 577.003,1029.93 577.814,1029.67 578.624,1029.4 579.435,1029.13 580.245,1028.86 581.056,1028.58 581.866,1028.31 582.676,1028.03 583.487,1027.74 584.297,1027.46 585.108,1027.17 585.918,1026.88 586.729,1026.58 587.539,1026.29 588.349,1025.99 589.16,1025.69 589.97,1025.38 590.781,1025.07 591.591,1024.76 592.402,1024.45 593.212,1024.13 594.022,1023.81 594.833,1023.49 595.643,1023.16 596.454,1022.84 597.264,1022.5 598.074,1022.17 598.885,1021.83 599.695,1021.49 600.506,1021.14 601.316,1020.8 602.127,1020.45 602.937,1020.09 603.747,1019.74 604.558,1019.37 605.368,1019.01 606.179,1018.64 606.989,1018.27 607.8,1017.9 608.61,1017.52 609.42,1017.14 610.231,1016.75 611.041,1016.37 611.852,1015.97 612.662,1015.58 613.473,1015.18 614.283,1014.78 615.093,1014.37 615.904,1013.96 616.714,1013.55 617.525,1013.13 618.335,1012.71 619.146,1012.28 619.956,1011.85 620.766,1011.42 621.577,1010.98 622.387,1010.54 623.198,1010.1 624.008,1009.65 624.819,1009.19 625.629,1008.74 626.439,1008.28 627.25,1007.81 628.06,1007.34 628.871,1006.87 629.681,1006.39 630.492,1005.91 631.302,1005.42 632.112,1004.93 632.923,1004.43 633.733,1003.93 634.544,1003.43 635.354,1002.92 636.164,1002.4 636.975,1001.89 637.785,1001.36 638.596,1000.83 639.406,1000.3 640.217,999.765 641.027,999.223 641.837,998.677 642.648,998.125 643.458,997.569 644.269,997.008 645.079,996.441 645.89,995.87 646.7,995.294 647.51,994.713 648.321,994.127 649.131,993.535 649.942,992.938 650.752,992.337 651.563,991.729 652.373,991.117 653.183,990.499 653.994,989.876 654.804,989.248 655.615,988.614 656.425,987.974 657.236,987.33 658.046,986.679 658.856,986.023 659.667,985.361 660.477,984.694 661.288,984.021 662.098,983.342 662.909,982.657 663.719,981.967 664.529,981.271 665.34,980.568 666.15,979.86 666.961,979.146 667.771,978.426 668.582,977.7 669.392,976.967 670.202,976.229 671.013,975.484 671.823,974.733 672.634,973.976 673.444,973.212 674.254,972.442 675.065,971.666 675.875,970.883 676.686,970.094 677.496,969.298 678.307,968.496 679.117,967.687 679.927,966.871 680.738,966.049 681.548,965.22 682.359,964.384 683.169,963.542 683.98,962.692 684.79,961.836 685.6,960.973 686.411,960.103 687.221,959.225 688.032,958.341 688.842,957.45 689.653,956.551 690.463,955.646 691.273,954.733 692.084,953.813 692.894,952.885 693.705,951.951 694.515,951.009 695.326,950.059 696.136,949.102 696.946,948.138 697.757,947.166 698.567,946.186 699.378,945.199 700.188,944.204 700.999,943.202 701.809,942.191 702.619,941.173 703.43,940.148 704.24,939.114 705.051,938.073 705.861,937.023 706.672,935.966 707.482,934.9 708.292,933.827 709.103,932.745 709.913,931.656 710.724,930.558 711.534,929.452 712.345,928.338 713.155,927.216 713.965,926.085 714.776,924.946 715.586,923.799 716.397,922.643 717.207,921.479 718.017,920.306 718.828,919.125 719.638,917.936 720.449,916.738 721.259,915.531 722.07,914.316 722.88,913.092 723.69,911.859 724.501,910.618 725.311,909.368 726.122,908.109 726.932,906.841 727.743,905.565 728.553,904.279 729.363,902.985 730.174,901.682 730.984,900.37 731.795,899.049 732.605,897.719 733.416,896.38 734.226,895.032 735.036,893.675 735.847,892.309 736.657,890.933 737.468,889.549 738.278,888.155 739.089,886.753 739.899,885.341 740.709,883.92 741.52,882.489 742.33,881.05 743.141,879.601 743.951,878.143 744.762,876.676 745.572,875.199 746.382,873.713 747.193,872.218 748.003,870.713 748.814,869.199 749.624,867.675 750.435,866.143 751.245,864.6 752.055,863.049 752.866,861.488 753.676,859.917 754.487,858.338 755.297,856.748 756.107,855.15 756.918,853.542 757.728,851.924 758.539,850.297 759.349,848.661 760.16,847.015 760.97,845.36 761.78,843.695 762.591,842.021 763.401,840.337 764.212,838.644 765.022,836.942 765.833,835.23 766.643,833.509 767.453,831.778 768.264,830.038 769.074,828.289 769.885,826.53 770.695,824.762 771.506,822.985 772.316,821.198 773.126,819.402 773.937,817.597 774.747,815.782 775.558,813.958 776.368,812.125 777.179,810.283 777.989,808.432 778.799,806.571 779.61,804.702 780.42,802.823 781.231,800.935 782.041,799.038 782.852,797.132 783.662,795.217 784.472,793.294 785.283,791.361 786.093,789.419 786.904,787.469 787.714,785.51 788.525,783.542 789.335,781.565 790.145,779.58 790.956,777.586 791.766,775.583 792.577,773.572 793.387,771.552 794.197,769.524 795.008,767.488 795.818,765.443 796.629,763.39 797.439,761.328 798.25,759.258 799.06,757.181 799.87,755.095 800.681,753.001 801.491,750.899 802.302,748.789 803.112,746.672 803.923,744.546 804.733,742.413 805.543,740.272 806.354,738.124 807.164,735.968 807.975,733.805 808.785,731.634 809.596,729.456 810.406,727.271 811.216,725.078 812.027,722.879 812.837,720.672 813.648,718.458 814.458,716.238 815.269,714.011 816.079,711.777 816.889,709.536 817.7,707.289 818.51,705.036 819.321,702.776 820.131,700.51 820.942,698.238 821.752,695.959 822.562,693.675 823.373,691.384 824.183,689.088 824.994,686.786 825.804,684.479 826.615,682.166 827.425,679.847 828.235,677.523 829.046,675.194 829.856,672.86 830.667,670.52 831.477,668.176 832.288,665.827 833.098,663.473 833.908,661.114 834.719,658.751 835.529,656.383 836.34,654.011 837.15,651.635 837.96,649.255 838.771,646.87 839.581,644.482 840.392,642.09 841.202,639.695 842.013,637.295 842.823,634.893 843.633,632.486 844.444,630.077 845.254,627.665 846.065,625.249 846.875,622.831 847.686,620.41 848.496,617.986 849.306,615.56 850.117,613.131 850.927,610.7 851.738,608.267 852.548,605.832 853.359,603.395 854.169,600.956 854.979,598.515 855.79,596.073 856.6,593.629 857.411,591.184 858.221,588.738 859.032,586.29 859.842,583.842 860.652,581.393 861.463,578.943 862.273,576.492 863.084,574.041 863.894,571.59 864.705,569.138 865.515,566.686 866.325,564.234 867.136,561.782 867.946,559.331 868.757,556.88 869.567,554.429 870.378,551.979 871.188,549.53 871.998,547.082 872.809,544.634 873.619,542.188 874.43,539.743 875.24,537.299 876.05,534.857 876.861,532.416 877.671,529.977 878.482,527.54 879.292,525.105 880.103,522.672 880.913,520.241 881.723,517.812 882.534,515.386 883.344,512.962 884.155,510.541 884.965,508.123 885.776,505.707 886.586,503.295 887.396,500.886 888.207,498.479 889.017,496.077 889.828,493.677 890.638,491.282 891.449,488.89 892.259,486.502 893.069,484.117 893.88,481.737 894.69,479.361 895.501,476.989 896.311,474.621 897.122,472.258 897.932,469.899 898.742,467.545 899.553,465.196 900.363,462.852 901.174,460.512 901.984,458.178 902.795,455.849 903.605,453.525 904.415,451.206 905.226,448.893 906.036,446.586 906.847,444.284 907.657,441.987 908.468,439.697 909.278,437.413 910.088,435.134 910.899,432.862 911.709,430.596 912.52,428.336 913.33,426.083 914.14,423.835 914.951,421.595 915.761,419.361 916.572,417.134 917.382,414.914 918.193,412.7 919.003,410.493 919.813,408.294 920.624,406.101 921.434,403.916 922.245,401.738 923.055,399.567 923.866,397.404 924.676,395.248 925.486,393.1 926.297,390.959 927.107,388.826 927.918,386.7 928.728,384.583 929.539,382.473 930.349,380.371 931.159,378.277 931.97,376.191 932.78,374.113 933.591,372.044 934.401,369.982 935.212,367.929 936.022,365.884 936.832,363.848 937.643,361.82 938.453,359.8 939.264,357.789 940.074,355.786 940.885,353.792 941.695,351.807 942.505,349.83 943.316,347.862 944.126,345.903 944.937,343.953 945.747,342.011 946.558,340.078 947.368,338.155 948.178,336.24 948.989,334.334 949.799,332.437 950.61,330.549 951.42,328.67 952.23,326.801 953.041,324.94 953.851,323.089 954.662,321.247 955.472,319.414 956.283,317.59 957.093,315.775 957.903,313.97 958.714,312.174 959.524,310.387 960.335,308.61 961.145,306.842 961.956,305.083 962.766,303.334 963.576,301.594 964.387,299.863 965.197,298.142 966.008,296.43 966.818,294.728 967.629,293.035 968.439,291.351 969.249,289.677 970.06,288.012 970.87,286.357 971.681,284.711 972.491,283.075 973.302,281.448 974.112,279.83 974.922,278.222 975.733,276.624 976.543,275.034 977.354,273.455 978.164,271.884 978.975,270.323 979.785,268.772 980.595,267.229 981.406,265.697 982.216,264.173 983.027,262.659 983.837,261.154 984.648,259.659 985.458,258.173 986.268,256.696 987.079,255.229 987.889,253.771 988.7,252.322 989.51,250.883 990.321,249.452 991.131,248.031 991.941,246.619 992.752,245.217 993.562,243.823 994.373,242.439 995.183,241.063 995.993,239.697 996.804,238.34 997.614,236.992 998.425,235.653 999.235,234.323 1000.05,233.002 1000.86,231.69 1001.67,230.387 1002.48,229.093 1003.29,227.807 1004.1,226.531 1004.91,225.263 1005.72,224.004 1006.53,222.754 1007.34,221.513 1008.15,220.28 1008.96,219.056 1009.77,217.841 1010.58,216.634 1011.39,215.436 1012.2,214.247 1013.01,213.066 1013.82,211.893 1014.63,210.729 1015.44,209.573 1016.25,208.426 1017.06,207.287 1017.87,206.156 1018.69,205.034 1019.5,203.92 1020.31,202.814 1021.12,201.716 1021.93,200.627 1022.74,199.545 1023.55,198.472 1024.36,197.406 1025.17,196.349 1025.98,195.299 1026.79,194.258 1027.6,193.224 1028.41,192.198 1029.22,191.18 1030.03,190.17 1030.84,189.168 1031.65,188.173 1032.46,187.186 1033.27,186.206 1034.08,185.234 1034.89,184.27 1035.7,183.313 1036.51,182.363 1037.33,181.421 1038.14,180.487 1038.95,179.559 1039.76,178.639 1040.57,177.726 1041.38,176.821 1042.19,175.922 1043,175.031 1043.81,174.147 1044.62,173.269 1045.43,172.399 1046.24,171.536 1047.05,170.68 1047.86,169.83 1048.67,168.988 1049.48,168.152 1050.29,167.323 1051.1,166.501 1051.91,165.685 1052.72,164.876 1053.53,164.074 1054.34,163.278 1055.15,162.489 1055.96,161.706 1056.78,160.93 1057.59,160.16 1058.4,159.396 1059.21,158.639 1060.02,157.888 1060.83,157.143 1061.64,156.405 1062.45,155.672 1063.26,154.946 1064.07,154.226 1064.88,153.512 1065.69,152.804 1066.5,152.101 1067.31,151.405 1068.12,150.714 1068.93,150.03 1069.74,149.351 1070.55,148.678 1071.36,148.011 1072.17,147.349 1072.98,146.693 1073.79,146.042 1074.6,145.397 1075.42,144.758 1076.23,144.124 1077.04,143.496 1077.85,142.873 1078.66,142.255 1079.47,141.643 1080.28,141.035 1081.09,140.434 1081.9,139.837 1082.71,139.245 1083.52,138.659 1084.33,138.078 1085.14,137.502 1085.95,136.931 1086.76,136.364 1087.57,135.803 1088.38,135.247 1089.19,134.695 1090,134.149 1090.81,133.607 1091.62,133.07 1092.43,132.538 1093.24,132.01 1094.05,131.487 1094.87,130.969 1095.68,130.455 1096.49,129.946 1097.3,129.441 1098.11,128.941 1098.92,128.445 1099.73,127.953 1100.54,127.466 1101.35,126.984 1102.16,126.506 1102.97,126.031 1103.78,125.562 1104.59,125.096 1105.4,124.635 1106.21,124.177 1107.02,123.724 1107.83,123.275 1108.64,122.83 1109.45,122.389 1110.26,121.952 1111.07,121.519 1111.88,121.089 1112.69,120.664 1113.51,120.243 1114.32,119.825 1115.13,119.411 1115.94,119.001 1116.75,118.594 1117.56,118.192 1118.37,117.793 1119.18,117.397 1119.99,117.006 1120.8,116.617 1121.61,116.233 1122.42,115.851 1123.23,115.474 1124.04,115.1 1124.85,114.729 1125.66,114.361 1126.47,113.997 1127.28,113.637 1128.09,113.279 1128.9,112.925 1129.71,112.575 1130.52,112.227 1131.33,111.883 1132.14,111.542 1132.96,111.204 1133.77,110.869 1134.58,110.537 1135.39,110.208 1136.2,109.882 1137.01,109.56 1137.82,109.24 1138.63,108.923 1139.44,108.61 1140.25,108.299 1141.06,107.991 1141.87,107.686 1142.68,107.384 1143.49,107.084 1144.3,106.788 1145.11,106.494 1145.92,106.203 1146.73,105.914 1147.54,105.629 1148.35,105.346 1149.16,105.065 1149.97,104.787 1150.78,104.512 1151.6,104.24 1152.41,103.97 1153.22,103.702 1154.03,103.437 1154.84,103.175 1155.65,102.915 1156.46,102.657 1157.27,102.402 1158.08,102.15 1158.89,101.899 1159.7,101.651 1160.51,101.406 1161.32,101.162 1162.13,100.921 1162.94,100.683 1163.75,100.446 1164.56,100.212 1165.37,99.9798 1166.18,99.75 1166.99,99.5224 1167.8,99.2969 1168.61,99.0736 1169.42,98.8523 1170.23,98.6332 1171.05,98.4162 1171.86,98.2012 1172.67,97.9883 1173.48,97.7773 1174.29,97.5684 1175.1,97.3615 1175.91,97.1566 1176.72,96.9536 1177.53,96.7525 1178.34,96.5534 1179.15,96.3562 1179.96,96.1608 1180.77,95.9673 1181.58,95.7757 1182.39,95.5859 1183.2,95.3979 1184.01,95.2117 1184.82,95.0273 1185.63,94.8446 1186.44,94.6637 1187.25,94.4846 1188.06,94.3071 1188.87,94.1314 1189.69,93.9573 1190.5,93.7849 1191.31,93.6142 1192.12,93.4451 1192.93,93.2776 1193.74,93.1117 1194.55,92.9475 1195.36,92.7848 1196.17,92.6237 1196.98,92.4641 1197.79,92.306 1198.6,92.1495 1199.41,91.9945 1200.22,91.841 1201.03,91.6889 1201.84,91.5384 1202.65,91.3893 1203.46,91.2416 1204.27,91.0953 1205.08,90.9505 1205.89,90.807 1206.7,90.6649 1207.51,90.5243 1208.33,90.3849 1209.14,90.2469 1209.95,90.1103 1210.76,89.975 1211.57,89.8409 1212.38,89.7082 1213.19,89.5768 1214,89.4466 1214.81,89.3177 1215.62,89.1901 1216.43,89.0636 1217.24,88.9384 1218.05,88.8145 1218.86,88.6917 1219.67,88.5701 1220.48,88.4497 1221.29,88.3305 1222.1,88.2124 1222.91,88.0954 1223.72,87.9796 1224.53,87.865 1225.34,87.7514 1226.15,87.639 1226.96,87.5276 1227.78,87.4173 1228.59,87.3081 1229.4,87.2 1230.21,87.0929 1231.02,86.9868 1231.83,86.8818 1232.64,86.7778 1233.45,86.6748 1234.26,86.5729 1235.07,86.4719 1235.88,86.3719 1236.69,86.2728 1237.5,86.1748 1238.31,86.0777 1239.12,85.9815 1239.93,85.8863 1240.74,85.792 1241.55,85.6986 1242.36,85.6062 1243.17,85.5146 1243.98,85.424 1244.79,85.3342 1245.6,85.2453 1246.42,85.1572 1247.23,85.0701 1248.04,84.9838 1248.85,84.8983 1249.66,84.8136 1250.47,84.7298 1251.28,84.6468 1252.09,84.5647 1252.9,84.4833 1253.71,84.4027 1254.52,84.3229 1255.33,84.2439 1256.14,84.1657 1256.95,84.0882 1257.76,84.0115 1258.57,83.9355 1259.38,83.8603 1260.19,83.7858 1261,83.7121 1261.81,83.639 1262.62,83.5667 1263.43,83.4951 1264.24,83.4242 1265.05,83.354 1265.87,83.2845 1266.68,83.2157 1267.49,83.1475 1268.3,83.08 1269.11,83.0132 1269.92,82.947 1270.73,82.8815 1271.54,82.8166 1272.35,82.7524 1273.16,82.6888 1273.97,82.6258 1274.78,82.5634 1275.59,82.5017 1276.4,82.4405 1277.21,82.38 1278.02,82.32 1278.83,82.2606 1279.64,82.2019 1280.45,82.1437 1281.26,82.086 1282.07,82.029 1282.88,81.9725 1283.69,81.9165 1284.51,81.8611 1285.32,81.8063 1286.13,81.752 1286.94,81.6982 1287.75,81.6449 1288.56,81.5922 1289.37,81.54 1290.18,81.4883 1290.99,81.4371 1291.8,81.3865 1292.61,81.3363 1293.42,81.2866 1294.23,81.2374 1295.04,81.1887 1295.85,81.1405 1296.66,81.0927 1297.47,81.0454 1298.28,80.9986 1299.09,80.9523 1299.9,80.9064 1300.71,80.8609 1301.52,80.8159 1302.33,80.7714 1303.14,80.7272 1303.96,80.6836 1304.77,80.6403 1305.58,80.5975 1306.39,80.5551 1307.2,80.5131 1308.01,80.4715 1308.82,80.4304 1309.63,80.3896 1310.44,80.3493 1311.25,80.3093 1312.06,80.2698 1312.87,80.2306 1313.68,80.1918 1314.49,80.1534 1315.3,80.1154 1316.11,80.0777 1316.92,80.0405 1317.73,80.0036 1318.54,79.967 1319.35,79.9308 1320.16,79.895 1320.97,79.8596 1321.78,79.8244 1322.6,79.7897 1323.41,79.7552 1324.22,79.7212 1325.03,79.6874 1325.84,79.654 1326.65,79.6209 1327.46,79.5881 1328.27,79.5557 1329.08,79.5236 1329.89,79.4918 1330.7,79.4603 1331.51,79.4291 1332.32,79.3983 1333.13,79.3677 1333.94,79.3375 1334.75,79.3075 1335.56,79.2778 1336.37,79.2485 1337.18,79.2194 1337.99,79.1906 1338.8,79.1621 1339.61,79.1339 1340.42,79.1059 1341.23,79.0783 1342.05,79.0509 1342.86,79.0238 1343.67,78.9969 1344.48,78.9703 1345.29,78.944 1346.1,78.9179 1346.91,78.8921 1347.72,78.8666 1348.53,78.8413 1349.34,78.8162 1350.15,78.7914 1350.96,78.7669 1351.77,78.7426 1352.58,78.7185 1353.39,78.6947 1354.2,78.6711 1355.01,78.6477 1355.82,78.6246 1356.63,78.6017 1357.44,78.579 1358.25,78.5566 1359.06,78.5343 1359.87,78.5123 1360.69,78.4905 1361.5,78.469 1362.31,78.4476 1363.12,78.4264 1363.93,78.4055 1364.74,78.3848 1365.55,78.3642 1366.36,78.3439 1367.17,78.3238 1367.98,78.3039 1368.79,78.2842 1369.6,78.2646 1370.41,78.2453 1371.22,78.2261 1372.03,78.2072 1372.84,78.1884 1373.65,78.1698 1374.46,78.1515 1375.27,78.1332 1376.08,78.1152 1376.89,78.0974 1377.7,78.0797 1378.51,78.0622 1379.32,78.0448 1380.14,78.0277 1380.95,78.0107 1381.76,77.9939 1382.57,77.9772 1383.38,77.9607 1384.19,77.9444 1385,77.9283 1385.81,77.9123 1386.62,77.8964 1387.43,77.8807 1388.24,77.8652 1389.05,77.8498 1389.86,77.8346 1390.67,77.8195 1391.48,77.8046 1392.29,77.7898 1393.1,77.7752 1393.91,77.7607 1394.72,77.7464 1395.53,77.7322 1396.34,77.7181 1397.15,77.7042 1397.96,77.6904 1398.78,77.6768 1399.59,77.6633 1400.4,77.6499 1401.21,77.6367 1402.02,77.6236 1402.83,77.6106 1403.64,77.5978 1404.45,77.585 1405.26,77.5724 1406.07,77.56 1406.88,77.5476 1407.69,77.5354 1408.5,77.5233 1409.31,77.5113 1410.12,77.4994 1410.93,77.4877 1411.74,77.4761 1412.55,77.4646 1413.36,77.4532 1414.17,77.4419 1414.98,77.4307 1415.79,77.4196 1416.6,77.4087 1417.41,77.3978 1418.23,77.3871 1419.04,77.3765 1419.85,77.3659 1420.66,77.3555 1421.47,77.3452 1422.28,77.335 1423.09,77.3249 1423.9,77.3149 1424.71,77.305 1425.52,77.2951 1426.33,77.2854 1427.14,77.2758 1427.95,77.2663 1428.76,77.2568 1429.57,77.2475 1430.38,77.2383 1431.19,77.2291 1432,77.22 1432.81,77.2111 1433.62,77.2022 1434.43,77.1934 1435.24,77.1847 1436.05,77.1761 1436.87,77.1675 1437.68,77.1591 1438.49,77.1507 1439.3,77.1424 1440.11,77.1342 1440.92,77.1261 1441.73,77.1181 1442.54,77.1101 1443.35,77.1022 1444.16,77.0944 1444.97,77.0867 1445.78,77.0791 1446.59,77.0715 1447.4,77.064 1448.21,77.0566 1449.02,77.0492 1449.83,77.042 1450.64,77.0348 1451.45,77.0276 1452.26,77.0206 1453.07,77.0136 1453.88,77.0067 1454.69,76.9998 1455.5,76.993 1456.32,76.9863 1457.13,76.9797 1457.94,76.9731 1458.75,76.9666 1459.56,76.9601 1460.37,76.9537 1461.18,76.9474 1461.99,76.9411 1462.8,76.9349 1463.61,76.9288 1464.42,76.9227 1465.23,76.9167 1466.04,76.9107 1466.85,76.9048 1467.66,76.899 1468.47,76.8932 1469.28,76.8875 1470.09,76.8818 1470.9,76.8762 1471.71,76.8707 1472.52,76.8652 1473.33,76.8597 1474.14,76.8543 1474.96,76.849 1475.77,76.8437 1476.58,76.8385 1477.39,76.8333 1478.2,76.8282 1479.01,76.8231 1479.82,76.818 1480.63,76.8131 1481.44,76.8081 1482.25,76.8033 1483.06,76.7984 1483.87,76.7936 1484.68,76.7889 1485.49,76.7842 1486.3,76.7796 1487.11,76.775 1487.92,76.7704 1488.73,76.7659 1489.54,76.7615 1490.35,76.7571 1491.16,76.7527 1491.97,76.7484 1492.78,76.7441 1493.59,76.7398 1494.41,76.7356 1495.22,76.7315 1496.03,76.7274 1496.84,76.7233 1497.65,76.7193 1498.46,76.7153 1499.27,76.7113 1500.08,76.7074 1500.89,76.7035 1501.7,76.6997 1502.51,76.6959 1503.32,76.6921 1504.13,76.6884 1504.94,76.6847 1505.75,76.681 1506.56,76.6774 1507.37,76.6738 1508.18,76.6703 1508.99,76.6668 1509.8,76.6633 1510.61,76.6599 1511.42,76.6565 1512.23,76.6531 1513.05,76.6498 1513.86,76.6465 "/>
</svg>
