<?xml version="1.0" encoding="utf-8"?>
<svg xmlns="http://www.w3.org/2000/svg" xmlns:xlink="http://www.w3.org/1999/xlink" width="400" height="300" viewBox="0 0 1600 1200">
<defs>
  <clipPath id="clip520">
    <rect x="0" y="0" width="1600" height="1200"/>
  </clipPath>
</defs>
<path clip-path="url(#clip520)" d="M0 1200 L1600 1200 L1600 0 L0 0  Z" fill="#ffffff" fill-rule="evenodd" fill-opacity="1"/>
<defs>
  <clipPath id="clip521">
    <rect x="320" y="0" width="1121" height="1121"/>
  </clipPath>
</defs>
<path clip-path="url(#clip520)" d="M178.274 1086.13 L1552.76 1086.13 L1552.76 47.2441 L178.274 47.2441  Z" fill="#ffffff" fill-rule="evenodd" fill-opacity="1"/>
<defs>
  <clipPath id="clip522">
    <rect x="178" y="47" width="1375" height="1040"/>
  </clipPath>
</defs>
<polyline clip-path="url(#clip522)" style="stroke:#000000; stroke-linecap:round; stroke-linejoin:round; stroke-width:2; stroke-opacity:0.1; fill:none" points="379.26,1086.13 379.26,47.2441 "/>
<polyline clip-path="url(#clip522)" style="stroke:#000000; stroke-linecap:round; stroke-linejoin:round; stroke-width:2; stroke-opacity:0.1; fill:none" points="622.387,1086.13 622.387,47.2441 "/>
<polyline clip-path="url(#clip522)" style="stroke:#000000; stroke-linecap:round; stroke-linejoin:round; stroke-width:2; stroke-opacity:0.1; fill:none" points="865.515,1086.13 865.515,47.2441 "/>
<polyline clip-path="url(#clip522)" style="stroke:#000000; stroke-linecap:round; stroke-linejoin:round; stroke-width:2; stroke-opacity:0.1; fill:none" points="1108.64,1086.13 1108.64,47.2441 "/>
<polyline clip-path="url(#clip522)" style="stroke:#000000; stroke-linecap:round; stroke-linejoin:round; stroke-width:2; stroke-opacity:0.1; fill:none" points="1351.77,1086.13 1351.77,47.2441 "/>
<polyline clip-path="url(#clip522)" style="stroke:#000000; stroke-linecap:round; stroke-linejoin:round; stroke-width:2; stroke-opacity:0.1; fill:none" points="178.274,1058.04 1552.76,1058.04 "/>
<polyline clip-path="url(#clip522)" style="stroke:#000000; stroke-linecap:round; stroke-linejoin:round; stroke-width:2; stroke-opacity:0.1; fill:none" points="178.274,861.762 1552.76,861.762 "/>
<polyline clip-path="url(#clip522)" style="stroke:#000000; stroke-linecap:round; stroke-linejoin:round; stroke-width:2; stroke-opacity:0.1; fill:none" points="178.274,665.483 1552.76,665.483 "/>
<polyline clip-path="url(#clip522)" style="stroke:#000000; stroke-linecap:round; stroke-linejoin:round; stroke-width:2; stroke-opacity:0.1; fill:none" points="178.274,469.204 1552.76,469.204 "/>
<polyline clip-path="url(#clip522)" style="stroke:#000000; stroke-linecap:round; stroke-linejoin:round; stroke-width:2; stroke-opacity:0.1; fill:none" points="178.274,272.925 1552.76,272.925 "/>
<polyline clip-path="url(#clip522)" style="stroke:#000000; stroke-linecap:round; stroke-linejoin:round; stroke-width:2; stroke-opacity:0.1; fill:none" points="178.274,76.6465 1552.76,76.6465 "/>
<polyline clip-path="url(#clip520)" style="stroke:#000000; stroke-linecap:round; stroke-linejoin:round; stroke-width:4; stroke-opacity:1; fill:none" points="178.274,1086.13 1552.76,1086.13 "/>
<polyline clip-path="url(#clip520)" style="stroke:#000000; stroke-linecap:round; stroke-linejoin:round; stroke-width:4; stroke-opacity:1; fill:none" points="379.26,1086.13 379.26,1067.23 "/>
<polyline clip-path="url(#clip520)" style="stroke:#000000; stroke-linecap:round; stroke-linejoin:round; stroke-width:4; stroke-opacity:1; fill:none" points="622.387,1086.13 622.387,1067.23 "/>
<polyline clip-path="url(#clip520)" style="stroke:#000000; stroke-linecap:round; stroke-linejoin:round; stroke-width:4; stroke-opacity:1; fill:none" points="865.515,1086.13 865.515,1067.23 "/>
<polyline clip-path="url(#clip520)" style="stroke:#000000; stroke-linecap:round; stroke-linejoin:round; stroke-width:4; stroke-opacity:1; fill:none" points="1108.64,1086.13 1108.64,1067.23 "/>
<polyline clip-path="url(#clip520)" style="stroke:#000000; stroke-linecap:round; stroke-linejoin:round; stroke-width:4; stroke-opacity:1; fill:none" points="1351.77,1086.13 1351.77,1067.23 "/>
<path clip-path="url(#clip520)" d="M348.322 1125.3 L377.998 1125.3 L377.998 1129.23 L348.322 1129.23 L348.322 1125.3 Z" fill="#000000" fill-rule="nonzero" fill-opacity="1" /><path clip-path="url(#clip520)" d="M398.669 1122.98 Q395.521 1122.98 393.669 1125.14 Q391.841 1127.29 391.841 1131.04 Q391.841 1134.77 393.669 1136.94 Q395.521 1139.1 398.669 1139.1 Q401.817 1139.1 403.646 1136.94 Q405.498 1134.77 405.498 1131.04 Q405.498 1127.29 403.646 1125.14 Q401.817 1122.98 398.669 1122.98 M407.952 1108.33 L407.952 1112.59 Q406.192 1111.76 404.387 1111.32 Q402.604 1110.88 400.845 1110.88 Q396.215 1110.88 393.762 1114 Q391.331 1117.13 390.984 1123.45 Q392.35 1121.43 394.41 1120.37 Q396.47 1119.28 398.947 1119.28 Q404.155 1119.28 407.165 1122.45 Q410.197 1125.6 410.197 1131.04 Q410.197 1136.36 407.049 1139.58 Q403.901 1142.8 398.669 1142.8 Q392.674 1142.8 389.503 1138.22 Q386.331 1133.61 386.331 1124.88 Q386.331 1116.69 390.22 1111.83 Q394.109 1106.94 400.66 1106.94 Q402.419 1106.94 404.202 1107.29 Q406.007 1107.64 407.952 1108.33 Z" fill="#000000" fill-rule="nonzero" fill-opacity="1" /><path clip-path="url(#clip520)" d="M591.855 1125.3 L621.531 1125.3 L621.531 1129.23 L591.855 1129.23 L591.855 1125.3 Z" fill="#000000" fill-rule="nonzero" fill-opacity="1" /><path clip-path="url(#clip520)" d="M645.79 1123.49 Q649.146 1124.21 651.021 1126.48 Q652.92 1128.75 652.92 1132.08 Q652.92 1137.2 649.401 1140 Q645.883 1142.8 639.401 1142.8 Q637.225 1142.8 634.91 1142.36 Q632.619 1141.94 630.165 1141.09 L630.165 1136.57 Q632.109 1137.71 634.424 1138.29 Q636.739 1138.86 639.262 1138.86 Q643.66 1138.86 645.952 1137.13 Q648.267 1135.39 648.267 1132.08 Q648.267 1129.03 646.114 1127.31 Q643.984 1125.58 640.165 1125.58 L636.137 1125.58 L636.137 1121.73 L640.35 1121.73 Q643.799 1121.73 645.628 1120.37 Q647.457 1118.98 647.457 1116.39 Q647.457 1113.73 645.558 1112.31 Q643.683 1110.88 640.165 1110.88 Q638.244 1110.88 636.045 1111.29 Q633.846 1111.71 631.207 1112.59 L631.207 1108.42 Q633.869 1107.68 636.183 1107.31 Q638.521 1106.94 640.582 1106.94 Q645.906 1106.94 649.007 1109.37 Q652.109 1111.78 652.109 1115.9 Q652.109 1118.77 650.466 1120.76 Q648.822 1122.73 645.79 1123.49 Z" fill="#000000" fill-rule="nonzero" fill-opacity="1" /><path clip-path="url(#clip520)" d="M865.515 1110.65 Q861.904 1110.65 860.075 1114.21 Q858.27 1117.75 858.27 1124.88 Q858.27 1131.99 860.075 1135.55 Q861.904 1139.1 865.515 1139.1 Q869.149 1139.1 870.955 1135.55 Q872.783 1131.99 872.783 1124.88 Q872.783 1117.75 870.955 1114.21 Q869.149 1110.65 865.515 1110.65 M865.515 1106.94 Q871.325 1106.94 874.381 1111.55 Q877.459 1116.13 877.459 1124.88 Q877.459 1133.61 874.381 1138.22 Q871.325 1142.8 865.515 1142.8 Q859.705 1142.8 856.626 1138.22 Q853.571 1133.61 853.571 1124.88 Q853.571 1116.13 856.626 1111.55 Q859.705 1106.94 865.515 1106.94 Z" fill="#000000" fill-rule="nonzero" fill-opacity="1" /><path clip-path="url(#clip520)" d="M1112.89 1123.49 Q1116.25 1124.21 1118.12 1126.48 Q1120.02 1128.75 1120.02 1132.08 Q1120.02 1137.2 1116.5 1140 Q1112.98 1142.8 1106.5 1142.8 Q1104.33 1142.8 1102.01 1142.36 Q1099.72 1141.94 1097.27 1141.09 L1097.27 1136.57 Q1099.21 1137.71 1101.52 1138.29 Q1103.84 1138.86 1106.36 1138.86 Q1110.76 1138.86 1113.05 1137.13 Q1115.37 1135.39 1115.37 1132.08 Q1115.37 1129.03 1113.21 1127.31 Q1111.08 1125.58 1107.27 1125.58 L1103.24 1125.58 L1103.24 1121.73 L1107.45 1121.73 Q1110.9 1121.73 1112.73 1120.37 Q1114.56 1118.98 1114.56 1116.39 Q1114.56 1113.73 1112.66 1112.31 Q1110.78 1110.88 1107.27 1110.88 Q1105.34 1110.88 1103.14 1111.29 Q1100.95 1111.71 1098.31 1112.59 L1098.31 1108.42 Q1100.97 1107.68 1103.28 1107.31 Q1105.62 1106.94 1107.68 1106.94 Q1113.01 1106.94 1116.11 1109.37 Q1119.21 1111.78 1119.21 1115.9 Q1119.21 1118.77 1117.57 1120.76 Q1115.92 1122.73 1112.89 1123.49 Z" fill="#000000" fill-rule="nonzero" fill-opacity="1" /><path clip-path="url(#clip520)" d="M1352.18 1122.98 Q1349.03 1122.98 1347.18 1125.14 Q1345.35 1127.29 1345.35 1131.04 Q1345.35 1134.77 1347.18 1136.94 Q1349.03 1139.1 1352.18 1139.1 Q1355.32 1139.1 1357.15 1136.94 Q1359 1134.77 1359 1131.04 Q1359 1127.29 1357.15 1125.14 Q1355.32 1122.98 1352.18 1122.98 M1361.46 1108.33 L1361.46 1112.59 Q1359.7 1111.76 1357.89 1111.32 Q1356.11 1110.88 1354.35 1110.88 Q1349.72 1110.88 1347.27 1114 Q1344.84 1117.13 1344.49 1123.45 Q1345.86 1121.43 1347.92 1120.37 Q1349.98 1119.28 1352.45 1119.28 Q1357.66 1119.28 1360.67 1122.45 Q1363.7 1125.6 1363.7 1131.04 Q1363.7 1136.36 1360.56 1139.58 Q1357.41 1142.8 1352.18 1142.8 Q1346.18 1142.8 1343.01 1138.22 Q1339.84 1133.61 1339.84 1124.88 Q1339.84 1116.69 1343.73 1111.83 Q1347.62 1106.94 1354.17 1106.94 Q1355.93 1106.94 1357.71 1107.29 Q1359.51 1107.64 1361.46 1108.33 Z" fill="#000000" fill-rule="nonzero" fill-opacity="1" /><polyline clip-path="url(#clip520)" style="stroke:#000000; stroke-linecap:round; stroke-linejoin:round; stroke-width:4; stroke-opacity:1; fill:none" points="178.274,1086.13 178.274,47.2441 "/>
<polyline clip-path="url(#clip520)" style="stroke:#000000; stroke-linecap:round; stroke-linejoin:round; stroke-width:4; stroke-opacity:1; fill:none" points="178.274,1058.04 197.172,1058.04 "/>
<polyline clip-path="url(#clip520)" style="stroke:#000000; stroke-linecap:round; stroke-linejoin:round; stroke-width:4; stroke-opacity:1; fill:none" points="178.274,861.762 197.172,861.762 "/>
<polyline clip-path="url(#clip520)" style="stroke:#000000; stroke-linecap:round; stroke-linejoin:round; stroke-width:4; stroke-opacity:1; fill:none" points="178.274,665.483 197.172,665.483 "/>
<polyline clip-path="url(#clip520)" style="stroke:#000000; stroke-linecap:round; stroke-linejoin:round; stroke-width:4; stroke-opacity:1; fill:none" points="178.274,469.204 197.172,469.204 "/>
<polyline clip-path="url(#clip520)" style="stroke:#000000; stroke-linecap:round; stroke-linejoin:round; stroke-width:4; stroke-opacity:1; fill:none" points="178.274,272.925 197.172,272.925 "/>
<polyline clip-path="url(#clip520)" style="stroke:#000000; stroke-linecap:round; stroke-linejoin:round; stroke-width:4; stroke-opacity:1; fill:none" points="178.274,76.6465 197.172,76.6465 "/>
<path clip-path="url(#clip520)" d="M66.9365 1043.84 Q63.3254 1043.84 61.4967 1047.4 Q59.6912 1050.95 59.6912 1058.08 Q59.6912 1065.18 61.4967 1068.75 Q63.3254 1072.29 66.9365 1072.29 Q70.5707 1072.29 72.3763 1068.75 Q74.205 1065.18 74.205 1058.08 Q74.205 1050.95 72.3763 1047.4 Q70.5707 1043.84 66.9365 1043.84 M66.9365 1040.14 Q72.7467 1040.14 75.8022 1044.74 Q78.8809 1049.33 78.8809 1058.08 Q78.8809 1066.8 75.8022 1071.41 Q72.7467 1075.99 66.9365 1075.99 Q61.1264 1075.99 58.0477 1071.41 Q54.9921 1066.8 54.9921 1058.08 Q54.9921 1049.33 58.0477 1044.74 Q61.1264 1040.14 66.9365 1040.14 Z" fill="#000000" fill-rule="nonzero" fill-opacity="1" /><path clip-path="url(#clip520)" d="M87.0984 1069.44 L91.9827 1069.44 L91.9827 1075.32 L87.0984 1075.32 L87.0984 1069.44 Z" fill="#000000" fill-rule="nonzero" fill-opacity="1" /><path clip-path="url(#clip520)" d="M112.168 1043.84 Q108.557 1043.84 106.728 1047.4 Q104.922 1050.95 104.922 1058.08 Q104.922 1065.18 106.728 1068.75 Q108.557 1072.29 112.168 1072.29 Q115.802 1072.29 117.608 1068.75 Q119.436 1065.18 119.436 1058.08 Q119.436 1050.95 117.608 1047.4 Q115.802 1043.84 112.168 1043.84 M112.168 1040.14 Q117.978 1040.14 121.033 1044.74 Q124.112 1049.33 124.112 1058.08 Q124.112 1066.8 121.033 1071.41 Q117.978 1075.99 112.168 1075.99 Q106.358 1075.99 103.279 1071.41 Q100.223 1066.8 100.223 1058.08 Q100.223 1049.33 103.279 1044.74 Q106.358 1040.14 112.168 1040.14 Z" fill="#000000" fill-rule="nonzero" fill-opacity="1" /><path clip-path="url(#clip520)" d="M142.33 1043.84 Q138.719 1043.84 136.89 1047.4 Q135.084 1050.95 135.084 1058.08 Q135.084 1065.18 136.89 1068.75 Q138.719 1072.29 142.33 1072.29 Q145.964 1072.29 147.769 1068.75 Q149.598 1065.18 149.598 1058.08 Q149.598 1050.95 147.769 1047.4 Q145.964 1043.84 142.33 1043.84 M142.33 1040.14 Q148.14 1040.14 151.195 1044.74 Q154.274 1049.33 154.274 1058.08 Q154.274 1066.8 151.195 1071.41 Q148.14 1075.99 142.33 1075.99 Q136.519 1075.99 133.441 1071.41 Q130.385 1066.8 130.385 1058.08 Q130.385 1049.33 133.441 1044.74 Q136.519 1040.14 142.33 1040.14 Z" fill="#000000" fill-rule="nonzero" fill-opacity="1" /><path clip-path="url(#clip520)" d="M67.9319 847.561 Q64.3208 847.561 62.4921 851.126 Q60.6865 854.668 60.6865 861.797 Q60.6865 868.904 62.4921 872.468 Q64.3208 876.01 67.9319 876.01 Q71.5661 876.01 73.3717 872.468 Q75.2004 868.904 75.2004 861.797 Q75.2004 854.668 73.3717 851.126 Q71.5661 847.561 67.9319 847.561 M67.9319 843.858 Q73.742 843.858 76.7976 848.464 Q79.8763 853.047 79.8763 861.797 Q79.8763 870.524 76.7976 875.13 Q73.742 879.714 67.9319 879.714 Q62.1217 879.714 59.043 875.13 Q55.9875 870.524 55.9875 861.797 Q55.9875 853.047 59.043 848.464 Q62.1217 843.858 67.9319 843.858 Z" fill="#000000" fill-rule="nonzero" fill-opacity="1" /><path clip-path="url(#clip520)" d="M88.0938 873.163 L92.978 873.163 L92.978 879.042 L88.0938 879.042 L88.0938 873.163 Z" fill="#000000" fill-rule="nonzero" fill-opacity="1" /><path clip-path="url(#clip520)" d="M113.163 847.561 Q109.552 847.561 107.723 851.126 Q105.918 854.668 105.918 861.797 Q105.918 868.904 107.723 872.468 Q109.552 876.01 113.163 876.01 Q116.797 876.01 118.603 872.468 Q120.432 868.904 120.432 861.797 Q120.432 854.668 118.603 851.126 Q116.797 847.561 113.163 847.561 M113.163 843.858 Q118.973 843.858 122.029 848.464 Q125.107 853.047 125.107 861.797 Q125.107 870.524 122.029 875.13 Q118.973 879.714 113.163 879.714 Q107.353 879.714 104.274 875.13 Q101.219 870.524 101.219 861.797 Q101.219 853.047 104.274 848.464 Q107.353 843.858 113.163 843.858 Z" fill="#000000" fill-rule="nonzero" fill-opacity="1" /><path clip-path="url(#clip520)" d="M133.371 844.482 L151.728 844.482 L151.728 848.418 L137.654 848.418 L137.654 856.89 Q138.672 856.543 139.691 856.381 Q140.709 856.195 141.728 856.195 Q147.515 856.195 150.894 859.367 Q154.274 862.538 154.274 867.955 Q154.274 873.533 150.802 876.635 Q147.33 879.714 141.01 879.714 Q138.834 879.714 136.566 879.343 Q134.32 878.973 131.913 878.232 L131.913 873.533 Q133.996 874.668 136.219 875.223 Q138.441 875.779 140.918 875.779 Q144.922 875.779 147.26 873.672 Q149.598 871.566 149.598 867.955 Q149.598 864.344 147.26 862.237 Q144.922 860.131 140.918 860.131 Q139.043 860.131 137.168 860.547 Q135.316 860.964 133.371 861.844 L133.371 844.482 Z" fill="#000000" fill-rule="nonzero" fill-opacity="1" /><path clip-path="url(#clip520)" d="M66.9365 651.282 Q63.3254 651.282 61.4967 654.847 Q59.6912 658.389 59.6912 665.518 Q59.6912 672.625 61.4967 676.189 Q63.3254 679.731 66.9365 679.731 Q70.5707 679.731 72.3763 676.189 Q74.205 672.625 74.205 665.518 Q74.205 658.389 72.3763 654.847 Q70.5707 651.282 66.9365 651.282 M66.9365 647.578 Q72.7467 647.578 75.8022 652.185 Q78.8809 656.768 78.8809 665.518 Q78.8809 674.245 75.8022 678.851 Q72.7467 683.435 66.9365 683.435 Q61.1264 683.435 58.0477 678.851 Q54.9921 674.245 54.9921 665.518 Q54.9921 656.768 58.0477 652.185 Q61.1264 647.578 66.9365 647.578 Z" fill="#000000" fill-rule="nonzero" fill-opacity="1" /><path clip-path="url(#clip520)" d="M87.0984 676.884 L91.9827 676.884 L91.9827 682.763 L87.0984 682.763 L87.0984 676.884 Z" fill="#000000" fill-rule="nonzero" fill-opacity="1" /><path clip-path="url(#clip520)" d="M102.978 678.828 L110.617 678.828 L110.617 652.463 L102.307 654.129 L102.307 649.87 L110.571 648.203 L115.246 648.203 L115.246 678.828 L122.885 678.828 L122.885 682.763 L102.978 682.763 L102.978 678.828 Z" fill="#000000" fill-rule="nonzero" fill-opacity="1" /><path clip-path="url(#clip520)" d="M142.33 651.282 Q138.719 651.282 136.89 654.847 Q135.084 658.389 135.084 665.518 Q135.084 672.625 136.89 676.189 Q138.719 679.731 142.33 679.731 Q145.964 679.731 147.769 676.189 Q149.598 672.625 149.598 665.518 Q149.598 658.389 147.769 654.847 Q145.964 651.282 142.33 651.282 M142.33 647.578 Q148.14 647.578 151.195 652.185 Q154.274 656.768 154.274 665.518 Q154.274 674.245 151.195 678.851 Q148.14 683.435 142.33 683.435 Q136.519 683.435 133.441 678.851 Q130.385 674.245 130.385 665.518 Q130.385 656.768 133.441 652.185 Q136.519 647.578 142.33 647.578 Z" fill="#000000" fill-rule="nonzero" fill-opacity="1" /><path clip-path="url(#clip520)" d="M67.9319 455.003 Q64.3208 455.003 62.4921 458.568 Q60.6865 462.11 60.6865 469.239 Q60.6865 476.346 62.4921 479.91 Q64.3208 483.452 67.9319 483.452 Q71.5661 483.452 73.3717 479.91 Q75.2004 476.346 75.2004 469.239 Q75.2004 462.11 73.3717 458.568 Q71.5661 455.003 67.9319 455.003 M67.9319 451.299 Q73.742 451.299 76.7976 455.906 Q79.8763 460.489 79.8763 469.239 Q79.8763 477.966 76.7976 482.572 Q73.742 487.156 67.9319 487.156 Q62.1217 487.156 59.043 482.572 Q55.9875 477.966 55.9875 469.239 Q55.9875 460.489 59.043 455.906 Q62.1217 451.299 67.9319 451.299 Z" fill="#000000" fill-rule="nonzero" fill-opacity="1" /><path clip-path="url(#clip520)" d="M88.0938 480.605 L92.978 480.605 L92.978 486.484 L88.0938 486.484 L88.0938 480.605 Z" fill="#000000" fill-rule="nonzero" fill-opacity="1" /><path clip-path="url(#clip520)" d="M103.973 482.549 L111.612 482.549 L111.612 456.184 L103.302 457.85 L103.302 453.591 L111.566 451.924 L116.242 451.924 L116.242 482.549 L123.881 482.549 L123.881 486.484 L103.973 486.484 L103.973 482.549 Z" fill="#000000" fill-rule="nonzero" fill-opacity="1" /><path clip-path="url(#clip520)" d="M133.371 451.924 L151.728 451.924 L151.728 455.86 L137.654 455.86 L137.654 464.332 Q138.672 463.985 139.691 463.823 Q140.709 463.637 141.728 463.637 Q147.515 463.637 150.894 466.809 Q154.274 469.98 154.274 475.397 Q154.274 480.975 150.802 484.077 Q147.33 487.156 141.01 487.156 Q138.834 487.156 136.566 486.785 Q134.32 486.415 131.913 485.674 L131.913 480.975 Q133.996 482.11 136.219 482.665 Q138.441 483.221 140.918 483.221 Q144.922 483.221 147.26 481.114 Q149.598 479.008 149.598 475.397 Q149.598 471.785 147.26 469.679 Q144.922 467.573 140.918 467.573 Q139.043 467.573 137.168 467.989 Q135.316 468.406 133.371 469.285 L133.371 451.924 Z" fill="#000000" fill-rule="nonzero" fill-opacity="1" /><path clip-path="url(#clip520)" d="M66.9365 258.724 Q63.3254 258.724 61.4967 262.289 Q59.6912 265.831 59.6912 272.96 Q59.6912 280.067 61.4967 283.631 Q63.3254 287.173 66.9365 287.173 Q70.5707 287.173 72.3763 283.631 Q74.205 280.067 74.205 272.96 Q74.205 265.831 72.3763 262.289 Q70.5707 258.724 66.9365 258.724 M66.9365 255.02 Q72.7467 255.02 75.8022 259.627 Q78.8809 264.21 78.8809 272.96 Q78.8809 281.687 75.8022 286.293 Q72.7467 290.877 66.9365 290.877 Q61.1264 290.877 58.0477 286.293 Q54.9921 281.687 54.9921 272.96 Q54.9921 264.21 58.0477 259.627 Q61.1264 255.02 66.9365 255.02 Z" fill="#000000" fill-rule="nonzero" fill-opacity="1" /><path clip-path="url(#clip520)" d="M87.0984 284.326 L91.9827 284.326 L91.9827 290.205 L87.0984 290.205 L87.0984 284.326 Z" fill="#000000" fill-rule="nonzero" fill-opacity="1" /><path clip-path="url(#clip520)" d="M106.196 286.27 L122.515 286.27 L122.515 290.205 L100.571 290.205 L100.571 286.27 Q103.233 283.516 107.816 278.886 Q112.422 274.233 113.603 272.891 Q115.848 270.368 116.728 268.632 Q117.631 266.872 117.631 265.182 Q117.631 262.428 115.686 260.692 Q113.765 258.956 110.663 258.956 Q108.464 258.956 106.01 259.72 Q103.58 260.483 100.802 262.034 L100.802 257.312 Q103.626 256.178 106.08 255.599 Q108.534 255.02 110.571 255.02 Q115.941 255.02 119.135 257.706 Q122.33 260.391 122.33 264.882 Q122.33 267.011 121.52 268.932 Q120.733 270.831 118.626 273.423 Q118.047 274.094 114.946 277.312 Q111.844 280.506 106.196 286.27 Z" fill="#000000" fill-rule="nonzero" fill-opacity="1" /><path clip-path="url(#clip520)" d="M142.33 258.724 Q138.719 258.724 136.89 262.289 Q135.084 265.831 135.084 272.96 Q135.084 280.067 136.89 283.631 Q138.719 287.173 142.33 287.173 Q145.964 287.173 147.769 283.631 Q149.598 280.067 149.598 272.96 Q149.598 265.831 147.769 262.289 Q145.964 258.724 142.33 258.724 M142.33 255.02 Q148.14 255.02 151.195 259.627 Q154.274 264.21 154.274 272.96 Q154.274 281.687 151.195 286.293 Q148.14 290.877 142.33 290.877 Q136.519 290.877 133.441 286.293 Q130.385 281.687 130.385 272.96 Q130.385 264.21 133.441 259.627 Q136.519 255.02 142.33 255.02 Z" fill="#000000" fill-rule="nonzero" fill-opacity="1" /><path clip-path="url(#clip520)" d="M67.9319 62.4452 Q64.3208 62.4452 62.4921 66.0099 Q60.6865 69.5516 60.6865 76.6812 Q60.6865 83.7876 62.4921 87.3524 Q64.3208 90.8941 67.9319 90.8941 Q71.5661 90.8941 73.3717 87.3524 Q75.2004 83.7876 75.2004 76.6812 Q75.2004 69.5516 73.3717 66.0099 Q71.5661 62.4452 67.9319 62.4452 M67.9319 58.7415 Q73.742 58.7415 76.7976 63.3479 Q79.8763 67.9312 79.8763 76.6812 Q79.8763 85.408 76.7976 90.0144 Q73.742 94.5978 67.9319 94.5978 Q62.1217 94.5978 59.043 90.0144 Q55.9875 85.408 55.9875 76.6812 Q55.9875 67.9312 59.043 63.3479 Q62.1217 58.7415 67.9319 58.7415 Z" fill="#000000" fill-rule="nonzero" fill-opacity="1" /><path clip-path="url(#clip520)" d="M88.0938 88.0469 L92.978 88.0469 L92.978 93.9265 L88.0938 93.9265 L88.0938 88.0469 Z" fill="#000000" fill-rule="nonzero" fill-opacity="1" /><path clip-path="url(#clip520)" d="M107.191 89.9913 L123.51 89.9913 L123.51 93.9265 L101.566 93.9265 L101.566 89.9913 Q104.228 87.2367 108.811 82.6071 Q113.418 77.9543 114.598 76.6117 Q116.844 74.0886 117.723 72.3525 Q118.626 70.5933 118.626 68.9035 Q118.626 66.1488 116.682 64.4127 Q114.76 62.6766 111.658 62.6766 Q109.459 62.6766 107.006 63.4405 Q104.575 64.2044 101.797 65.7553 L101.797 61.0331 Q104.621 59.8989 107.075 59.3202 Q109.529 58.7415 111.566 58.7415 Q116.936 58.7415 120.131 61.4266 Q123.325 64.1118 123.325 68.6025 Q123.325 70.7321 122.515 72.6534 Q121.728 74.5516 119.621 77.1441 Q119.043 77.8154 115.941 81.033 Q112.839 84.2274 107.191 89.9913 Z" fill="#000000" fill-rule="nonzero" fill-opacity="1" /><path clip-path="url(#clip520)" d="M133.371 59.3665 L151.728 59.3665 L151.728 63.3016 L137.654 63.3016 L137.654 71.7738 Q138.672 71.4266 139.691 71.2646 Q140.709 71.0794 141.728 71.0794 Q147.515 71.0794 150.894 74.2506 Q154.274 77.4219 154.274 82.8386 Q154.274 88.4172 150.802 91.5191 Q147.33 94.5978 141.01 94.5978 Q138.834 94.5978 136.566 94.2274 Q134.32 93.857 131.913 93.1163 L131.913 88.4172 Q133.996 89.5515 136.219 90.107 Q138.441 90.6626 140.918 90.6626 Q144.922 90.6626 147.26 88.5561 Q149.598 86.4497 149.598 82.8386 Q149.598 79.2275 147.26 77.121 Q144.922 75.0145 140.918 75.0145 Q139.043 75.0145 137.168 75.4312 Q135.316 75.8479 133.371 76.7275 L133.371 59.3665 Z" fill="#000000" fill-rule="nonzero" fill-opacity="1" /><polyline clip-path="url(#clip522)" style="stroke:#009af9; stroke-linecap:round; stroke-linejoin:round; stroke-width:4; stroke-opacity:1; fill:none" points="217.174,1056.73 217.985,1056.71 218.795,1056.7 219.606,1056.69 220.416,1056.67 221.227,1056.66 222.037,1056.64 222.847,1056.63 223.658,1056.62 224.468,1056.6 225.279,1056.59 226.089,1056.57 226.9,1056.56 227.71,1056.54 228.52,1056.53 229.331,1056.51 230.141,1056.5 230.952,1056.48 231.762,1056.47 232.573,1056.45 233.383,1056.43 234.193,1056.42 235.004,1056.4 235.814,1056.39 236.625,1056.37 237.435,1056.35 238.245,1056.34 239.056,1056.32 239.866,1056.3 240.677,1056.28 241.487,1056.27 242.298,1056.25 243.108,1056.23 243.918,1056.21 244.729,1056.19 245.539,1056.17 246.35,1056.16 247.16,1056.14 247.971,1056.12 248.781,1056.1 249.591,1056.08 250.402,1056.06 251.212,1056.04 252.023,1056.02 252.833,1056 253.644,1055.98 254.454,1055.96 255.264,1055.94 256.075,1055.92 256.885,1055.89 257.696,1055.87 258.506,1055.85 259.317,1055.83 260.127,1055.81 260.937,1055.78 261.748,1055.76 262.558,1055.74 263.369,1055.72 264.179,1055.69 264.99,1055.67 265.8,1055.64 266.61,1055.62 267.421,1055.6 268.231,1055.57 269.042,1055.55 269.852,1055.52 270.663,1055.5 271.473,1055.47 272.283,1055.45 273.094,1055.42 273.904,1055.39 274.715,1055.37 275.525,1055.34 276.336,1055.31 277.146,1055.29 277.956,1055.26 278.767,1055.23 279.577,1055.2 280.388,1055.17 281.198,1055.14 282.008,1055.12 282.819,1055.09 283.629,1055.06 284.44,1055.03 285.25,1055 286.061,1054.97 286.871,1054.93 287.681,1054.9 288.492,1054.87 289.302,1054.84 290.113,1054.81 290.923,1054.78 291.734,1054.74 292.544,1054.71 293.354,1054.68 294.165,1054.64 294.975,1054.61 295.786,1054.57 296.596,1054.54 297.407,1054.5 298.217,1054.47 299.027,1054.43 299.838,1054.4 300.648,1054.36 301.459,1054.32 302.269,1054.29 303.08,1054.25 303.89,1054.21 304.7,1054.17 305.511,1054.13 306.321,1054.09 307.132,1054.05 307.942,1054.01 308.753,1053.97 309.563,1053.93 310.373,1053.89 311.184,1053.85 311.994,1053.81 312.805,1053.77 313.615,1053.72 314.426,1053.68 315.236,1053.64 316.046,1053.59 316.857,1053.55 317.667,1053.5 318.478,1053.46 319.288,1053.41 320.098,1053.36 320.909,1053.32 321.719,1053.27 322.53,1053.22 323.34,1053.17 324.151,1053.12 324.961,1053.07 325.771,1053.03 326.582,1052.97 327.392,1052.92 328.203,1052.87 329.013,1052.82 329.824,1052.77 330.634,1052.72 331.444,1052.66 332.255,1052.61 333.065,1052.55 333.876,1052.5 334.686,1052.44 335.497,1052.39 336.307,1052.33 337.117,1052.27 337.928,1052.22 338.738,1052.16 339.549,1052.1 340.359,1052.04 341.17,1051.98 341.98,1051.92 342.79,1051.86 343.601,1051.79 344.411,1051.73 345.222,1051.67 346.032,1051.61 346.843,1051.54 347.653,1051.48 348.463,1051.41 349.274,1051.34 350.084,1051.28 350.895,1051.21 351.705,1051.14 352.516,1051.07 353.326,1051 354.136,1050.93 354.947,1050.86 355.757,1050.79 356.568,1050.71 357.378,1050.64 358.188,1050.57 358.999,1050.49 359.809,1050.42 360.62,1050.34 361.43,1050.26 362.241,1050.19 363.051,1050.11 363.861,1050.03 364.672,1049.95 365.482,1049.87 366.293,1049.78 367.103,1049.7 367.914,1049.62 368.724,1049.53 369.534,1049.45 370.345,1049.36 371.155,1049.28 371.966,1049.19 372.776,1049.1 373.587,1049.01 374.397,1048.92 375.207,1048.83 376.018,1048.74 376.828,1048.64 377.639,1048.55 378.449,1048.45 379.26,1048.36 380.07,1048.26 380.88,1048.16 381.691,1048.07 382.501,1047.97 383.312,1047.87 384.122,1047.76 384.933,1047.66 385.743,1047.56 386.553,1047.45 387.364,1047.35 388.174,1047.24 388.985,1047.13 389.795,1047.02 390.606,1046.91 391.416,1046.8 392.226,1046.69 393.037,1046.58 393.847,1046.46 394.658,1046.35 395.468,1046.23 396.279,1046.11 397.089,1045.99 397.899,1045.87 398.71,1045.75 399.52,1045.63 400.331,1045.5 401.141,1045.38 401.951,1045.25 402.762,1045.12 403.572,1044.99 404.383,1044.86 405.193,1044.73 406.004,1044.6 406.814,1044.47 407.624,1044.33 408.435,1044.19 409.245,1044.05 410.056,1043.92 410.866,1043.77 411.677,1043.63 412.487,1043.49 413.297,1043.34 414.108,1043.2 414.918,1043.05 415.729,1042.9 416.539,1042.75 417.35,1042.6 418.16,1042.44 418.97,1042.29 419.781,1042.13 420.591,1041.97 421.402,1041.81 422.212,1041.65 423.023,1041.48 423.833,1041.32 424.643,1041.15 425.454,1040.99 426.264,1040.82 427.075,1040.64 427.885,1040.47 428.696,1040.3 429.506,1040.12 430.316,1039.94 431.127,1039.76 431.937,1039.58 432.748,1039.39 433.558,1039.21 434.369,1039.02 435.179,1038.83 435.989,1038.64 436.8,1038.45 437.61,1038.25 438.421,1038.06 439.231,1037.86 440.041,1037.66 440.852,1037.45 441.662,1037.25 442.473,1037.04 443.283,1036.83 444.094,1036.62 444.904,1036.41 445.714,1036.19 446.525,1035.98 447.335,1035.76 448.146,1035.54 448.956,1035.31 449.767,1035.09 450.577,1034.86 451.387,1034.63 452.198,1034.4 453.008,1034.16 453.819,1033.93 454.629,1033.69 455.44,1033.44 456.25,1033.2 457.06,1032.95 457.871,1032.71 458.681,1032.45 459.492,1032.2 460.302,1031.94 461.113,1031.69 461.923,1031.42 462.733,1031.16 463.544,1030.89 464.354,1030.62 465.165,1030.35 465.975,1030.08 466.786,1029.8 467.596,1029.52 468.406,1029.24 469.217,1028.95 470.027,1028.67 470.838,1028.38 471.648,1028.08 472.459,1027.79 473.269,1027.49 474.079,1027.18 474.89,1026.88 475.7,1026.57 476.511,1026.26 477.321,1025.95 478.131,1025.63 478.942,1025.31 479.752,1024.99 480.563,1024.66 481.373,1024.33 482.184,1024 482.994,1023.66 483.804,1023.32 484.615,1022.98 485.425,1022.63 486.236,1022.28 487.046,1021.93 487.857,1021.57 488.667,1021.21 489.477,1020.85 490.288,1020.48 491.098,1020.11 491.909,1019.74 492.719,1019.36 493.53,1018.98 494.34,1018.6 495.15,1018.21 495.961,1017.82 496.771,1017.42 497.582,1017.02 498.392,1016.62 499.203,1016.21 500.013,1015.8 500.823,1015.39 501.634,1014.97 502.444,1014.54 503.255,1014.12 504.065,1013.68 504.876,1013.25 505.686,1012.81 506.496,1012.37 507.307,1011.92 508.117,1011.46 508.928,1011.01 509.738,1010.55 510.549,1010.08 511.359,1009.61 512.169,1009.14 512.98,1008.66 513.79,1008.17 514.601,1007.69 515.411,1007.19 516.221,1006.7 517.032,1006.19 517.842,1005.69 518.653,1005.17 519.463,1004.66 520.274,1004.14 521.084,1003.61 521.894,1003.08 522.705,1002.54 523.515,1002 524.326,1001.45 525.136,1000.9 525.947,1000.34 526.757,999.782 527.567,999.214 528.378,998.641 529.188,998.063 529.999,997.479 530.809,996.89 531.62,996.295 532.43,995.694 533.24,995.088 534.051,994.476 534.861,993.859 535.672,993.235 536.482,992.606 537.293,991.971 538.103,991.33 538.913,990.683 539.724,990.03 540.534,989.37 541.345,988.705 542.155,988.034 542.966,987.356 543.776,986.672 544.586,985.981 545.397,985.284 546.207,984.581 547.018,983.871 547.828,983.155 548.639,982.432 549.449,981.702 550.259,980.966 551.07,980.222 551.88,979.472 552.691,978.715 553.501,977.951 554.312,977.18 555.122,976.402 555.932,975.617 556.743,974.824 557.553,974.024 558.364,973.217 559.174,972.403 559.984,971.581 560.795,970.752 561.605,969.915 562.416,969.07 563.226,968.218 564.037,967.358 564.847,966.49 565.657,965.614 566.468,964.73 567.278,963.839 568.089,962.939 568.899,962.031 569.71,961.115 570.52,960.191 571.33,959.258 572.141,958.317 572.951,957.368 573.762,956.41 574.572,955.443 575.383,954.468 576.193,953.484 577.003,952.491 577.814,951.49 578.624,950.479 579.435,949.46 580.245,948.431 581.056,947.394 581.866,946.347 582.676,945.291 583.487,944.225 584.297,943.15 585.108,942.066 585.918,940.972 586.729,939.869 587.539,938.756 588.349,937.633 589.16,936.5 589.97,935.357 590.781,934.205 591.591,933.042 592.402,931.869 593.212,930.687 594.022,929.493 594.833,928.29 595.643,927.076 596.454,925.852 597.264,924.617 598.074,923.371 598.885,922.115 599.695,920.848 600.506,919.57 601.316,918.281 602.127,916.981 602.937,915.67 603.747,914.348 604.558,913.015 605.368,911.671 606.179,910.315 606.989,908.948 607.8,907.569 608.61,906.179 609.42,904.776 610.231,903.363 611.041,901.937 611.852,900.5 612.662,899.05 613.473,897.589 614.283,896.115 615.093,894.629 615.904,893.131 616.714,891.621 617.525,890.098 618.335,888.563 619.146,887.015 619.956,885.455 620.766,883.882 621.577,882.296 622.387,880.697 623.198,879.085 624.008,877.46 624.819,875.823 625.629,874.172 626.439,872.508 627.25,870.83 628.06,869.139 628.871,867.435 629.681,865.717 630.492,863.986 631.302,862.241 632.112,860.482 632.923,858.71 633.733,856.924 634.544,855.123 635.354,853.309 636.164,851.481 636.975,849.638 637.785,847.782 638.596,845.911 639.406,844.025 640.217,842.126 641.027,840.211 641.837,838.283 642.648,836.339 643.458,834.382 644.269,832.409 645.079,830.421 645.89,828.419 646.7,826.402 647.51,824.37 648.321,822.323 649.131,820.26 649.942,818.183 650.752,816.09 651.563,813.983 652.373,811.86 653.183,809.721 653.994,807.567 654.804,805.398 655.615,803.213 656.425,801.013 657.236,798.797 658.046,796.565 658.856,794.318 659.667,792.054 660.477,789.776 661.288,787.481 662.098,785.17 662.909,782.844 663.719,780.501 664.529,778.143 665.34,775.768 666.15,773.378 666.961,770.971 667.771,768.549 668.582,766.11 669.392,763.655 670.202,761.184 671.013,758.696 671.823,756.193 672.634,753.673 673.444,751.137 674.254,748.584 675.065,746.015 675.875,743.43 676.686,740.829 677.496,738.211 678.307,735.577 679.117,732.927 679.927,730.26 680.738,727.577 681.548,724.877 682.359,722.161 683.169,719.429 683.98,716.68 684.79,713.916 685.6,711.134 686.411,708.337 687.221,705.523 688.032,702.693 688.842,699.847 689.653,696.984 690.463,694.106 691.273,691.211 692.084,688.3 692.894,685.373 693.705,682.43 694.515,679.471 695.326,676.496 696.136,673.505 696.946,670.498 697.757,667.476 698.567,664.437 699.378,661.383 700.188,658.314 700.999,655.229 701.809,652.128 702.619,649.012 703.43,645.881 704.24,642.734 705.051,639.572 705.861,636.396 706.672,633.204 707.482,629.997 708.292,626.775 709.103,623.539 709.913,620.288 710.724,617.023 711.534,613.743 712.345,610.449 713.155,607.141 713.965,603.819 714.776,600.483 715.586,597.133 716.397,593.77 717.207,590.393 718.017,587.003 718.828,583.6 719.638,580.183 720.449,576.754 721.259,573.312 722.07,569.857 722.88,566.39 723.69,562.911 724.501,559.42 725.311,555.917 726.122,552.402 726.932,548.876 727.743,545.338 728.553,541.79 729.363,538.23 730.174,534.66 730.984,531.079 731.795,527.488 732.605,523.887 733.416,520.276 734.226,516.656 735.036,513.026 735.847,509.388 736.657,505.74 737.468,502.084 738.278,498.419 739.089,494.746 739.899,491.066 740.709,487.378 741.52,483.682 742.33,479.98 743.141,476.271 743.951,472.555 744.762,468.833 745.572,465.106 746.382,461.373 747.193,457.634 748.003,453.891 748.814,450.143 749.624,446.391 750.435,442.634 751.245,438.874 752.055,435.111 752.866,431.345 753.676,427.576 754.487,423.805 755.297,420.032 756.107,416.257 756.918,412.481 757.728,408.705 758.539,404.927 759.349,401.15 760.16,397.373 760.97,393.596 761.78,389.821 762.591,386.047 763.401,382.275 764.212,378.505 765.022,374.737 765.833,370.973 766.643,367.212 767.453,363.455 768.264,359.703 769.074,355.955 769.885,352.212 770.695,348.474 771.506,344.743 772.316,341.018 773.126,337.3 773.937,333.59 774.747,329.887 775.558,326.192 776.368,322.506 777.179,318.829 777.989,315.162 778.799,311.505 779.61,307.858 780.42,304.222 781.231,300.598 782.041,296.986 782.852,293.386 783.662,289.799 784.472,286.226 785.283,282.666 786.093,279.121 786.904,275.59 787.714,272.075 788.525,268.576 789.335,265.093 790.145,261.626 790.956,258.177 791.766,254.746 792.577,251.334 793.387,247.94 794.197,244.565 795.008,241.21 795.818,237.875 796.629,234.561 797.439,231.269 798.25,227.998 799.06,224.75 799.87,221.524 800.681,218.322 801.491,215.143 802.302,211.989 803.112,208.86 803.923,205.756 804.733,202.677 805.543,199.625 806.354,196.6 807.164,193.602 807.975,190.632 808.785,187.69 809.596,184.777 810.406,181.893 811.216,179.038 812.027,176.214 812.837,173.421 813.648,170.659 814.458,167.928 815.269,165.23 816.079,162.564 816.889,159.931 817.7,157.331 818.51,154.766 819.321,152.234 820.131,149.738 820.942,147.277 821.752,144.852 822.562,142.462 823.373,140.11 824.183,137.794 824.994,135.516 825.804,133.275 826.615,131.073 827.425,128.909 828.235,126.785 829.046,124.7 829.856,122.654 830.667,120.649 831.477,118.685 832.288,116.761 833.098,114.879 833.908,113.038 834.719,111.239 835.529,109.483 836.34,107.769 837.15,106.099 837.96,104.471 838.771,102.887 839.581,101.348 840.392,99.8519 841.202,98.4008 842.013,96.9945 842.823,95.6332 843.633,94.3173 844.444,93.047 845.254,91.8224 846.065,90.644 846.875,89.5118 847.686,88.4262 848.496,87.3873 849.306,86.3954 850.117,85.4505 850.927,84.553 851.738,83.703 852.548,82.9007 853.359,82.1462 854.169,81.4396 854.979,80.7812 855.79,80.171 856.6,79.6092 857.411,79.0959 858.221,78.6311 859.032,78.215 859.842,77.8477 860.652,77.5292 861.463,77.2596 862.273,77.0389 863.084,76.8672 863.894,76.7446 864.705,76.671 865.515,76.6465 866.325,76.671 867.136,76.7446 867.946,76.8672 868.757,77.0389 869.567,77.2596 870.378,77.5292 871.188,77.8477 871.998,78.215 872.809,78.6311 873.619,79.0959 874.43,79.6092 875.24,80.171 876.05,80.7812 876.861,81.4396 877.671,82.1462 878.482,82.9007 879.292,83.703 880.103,84.553 880.913,85.4505 881.723,86.3954 882.534,87.3873 883.344,88.4262 884.155,89.5118 884.965,90.644 885.776,91.8224 886.586,93.047 887.396,94.3173 888.207,95.6332 889.017,96.9945 889.828,98.4008 890.638,99.8519 891.449,101.348 892.259,102.887 893.069,104.471 893.88,106.099 894.69,107.769 895.501,109.483 896.311,111.239 897.122,113.038 897.932,114.879 898.742,116.761 899.553,118.685 900.363,120.649 901.174,122.654 901.984,124.7 902.795,126.785 903.605,128.909 904.415,131.073 905.226,133.275 906.036,135.516 906.847,137.794 907.657,140.11 908.468,142.462 909.278,144.852 910.088,147.277 910.899,149.738 911.709,152.234 912.52,154.766 913.33,157.331 914.14,159.931 914.951,162.564 915.761,165.23 916.572,167.928 917.382,170.659 918.193,173.421 919.003,176.214 919.813,179.038 920.624,181.893 921.434,184.777 922.245,187.69 923.055,190.632 923.866,193.602 924.676,196.6 925.486,199.625 926.297,202.677 927.107,205.756 927.918,208.86 928.728,211.989 929.539,215.143 930.349,218.322 931.159,221.524 931.97,224.75 932.78,227.998 933.591,231.269 934.401,234.561 935.212,237.875 936.022,241.21 936.832,244.565 937.643,247.94 938.453,251.334 939.264,254.746 940.074,258.177 940.885,261.626 941.695,265.093 942.505,268.576 943.316,272.075 944.126,275.59 944.937,279.121 945.747,282.666 946.558,286.226 947.368,289.799 948.178,293.386 948.989,296.986 949.799,300.598 950.61,304.222 951.42,307.858 952.23,311.505 953.041,315.162 953.851,318.829 954.662,322.506 955.472,326.192 956.283,329.887 957.093,333.59 957.903,337.3 958.714,341.018 959.524,344.743 960.335,348.474 961.145,352.212 961.956,355.955 962.766,359.703 963.576,363.455 964.387,367.212 965.197,370.973 966.008,374.737 966.818,378.505 967.629,382.275 968.439,386.047 969.249,389.821 970.06,393.596 970.87,397.373 971.681,401.15 972.491,404.927 973.302,408.705 974.112,412.481 974.922,416.257 975.733,420.032 976.543,423.805 977.354,427.576 978.164,431.345 978.975,435.111 979.785,438.874 980.595,442.634 981.406,446.391 982.216,450.143 983.027,453.891 983.837,457.634 984.648,461.373 985.458,465.106 986.268,468.833 987.079,472.555 987.889,476.271 988.7,479.98 989.51,483.682 990.321,487.378 991.131,491.066 991.941,494.746 992.752,498.419 993.562,502.084 994.373,505.74 995.183,509.388 995.993,513.026 996.804,516.656 997.614,520.276 998.425,523.887 999.235,527.488 1000.05,531.079 1000.86,534.66 1001.67,538.23 1002.48,541.79 1003.29,545.338 1004.1,548.876 1004.91,552.402 1005.72,555.917 1006.53,559.42 1007.34,562.911 1008.15,566.39 1008.96,569.857 1009.77,573.312 1010.58,576.754 1011.39,580.183 1012.2,583.6 1013.01,587.003 1013.82,590.393 1014.63,593.77 1015.44,597.133 1016.25,600.483 1017.06,603.819 1017.87,607.141 1018.69,610.449 1019.5,613.743 1020.31,617.023 1021.12,620.288 1021.93,623.539 1022.74,626.775 1023.55,629.997 1024.36,633.204 1025.17,636.396 1025.98,639.572 1026.79,642.734 1027.6,645.881 1028.41,649.012 1029.22,652.128 1030.03,655.229 1030.84,658.314 1031.65,661.383 1032.46,664.437 1033.27,667.476 1034.08,670.498 1034.89,673.505 1035.7,676.496 1036.51,679.471 1037.33,682.43 1038.14,685.373 1038.95,688.3 1039.76,691.211 1040.57,694.106 1041.38,696.984 1042.19,699.847 1043,702.693 1043.81,705.523 1044.62,708.337 1045.43,711.134 1046.24,713.916 1047.05,716.68 1047.86,719.429 1048.67,722.161 1049.48,724.877 1050.29,727.577 1051.1,730.26 1051.91,732.927 1052.72,735.577 1053.53,738.211 1054.34,740.829 1055.15,743.43 1055.96,746.015 1056.78,748.584 1057.59,751.137 1058.4,753.673 1059.21,756.193 1060.02,758.696 1060.83,761.184 1061.64,763.655 1062.45,766.11 1063.26,768.549 1064.07,770.971 1064.88,773.378 1065.69,775.768 1066.5,778.143 1067.31,780.501 1068.12,782.844 1068.93,785.17 1069.74,787.481 1070.55,789.776 1071.36,792.054 1072.17,794.318 1072.98,796.565 1073.79,798.797 1074.6,801.013 1075.42,803.213 1076.23,805.398 1077.04,807.567 1077.85,809.721 1078.66,811.86 1079.47,813.983 1080.28,816.09 1081.09,818.183 1081.9,820.26 1082.71,822.323 1083.52,824.37 1084.33,826.402 1085.14,828.419 1085.95,830.421 1086.76,832.409 1087.57,834.382 1088.38,836.339 1089.19,838.283 1090,840.211 1090.81,842.126 1091.62,844.025 1092.43,845.911 1093.24,847.782 1094.05,849.638 1094.87,851.481 1095.68,853.309 1096.49,855.123 1097.3,856.924 1098.11,858.71 1098.92,860.482 1099.73,862.241 1100.54,863.986 1101.35,865.717 1102.16,867.435 1102.97,869.139 1103.78,870.83 1104.59,872.508 1105.4,874.172 1106.21,875.823 1107.02,877.46 1107.83,879.085 1108.64,880.697 1109.45,882.296 1110.26,883.882 1111.07,885.455 1111.88,887.015 1112.69,888.563 1113.51,890.098 1114.32,891.621 1115.13,893.131 1115.94,894.629 1116.75,896.115 1117.56,897.589 1118.37,899.05 1119.18,900.5 1119.99,901.937 1120.8,903.363 1121.61,904.776 1122.42,906.179 1123.23,907.569 1124.04,908.948 1124.85,910.315 1125.66,911.671 1126.47,913.015 1127.28,914.348 1128.09,915.67 1128.9,916.981 1129.71,918.281 1130.52,919.57 1131.33,920.848 1132.14,922.115 1132.96,923.371 1133.77,924.617 1134.58,925.852 1135.39,927.076 1136.2,928.29 1137.01,929.493 1137.82,930.687 1138.63,931.869 1139.44,933.042 1140.25,934.205 1141.06,935.357 1141.87,936.5 1142.68,937.633 1143.49,938.756 1144.3,939.869 1145.11,940.972 1145.92,942.066 1146.73,943.15 1147.54,944.225 1148.35,945.291 1149.16,946.347 1149.97,947.394 1150.78,948.431 1151.6,949.46 1152.41,950.479 1153.22,951.49 1154.03,952.491 1154.84,953.484 1155.65,954.468 1156.46,955.443 1157.27,956.41 1158.08,957.368 1158.89,958.317 1159.7,959.258 1160.51,960.191 1161.32,961.115 1162.13,962.031 1162.94,962.939 1163.75,963.839 1164.56,964.73 1165.37,965.614 1166.18,966.49 1166.99,967.358 1167.8,968.218 1168.61,969.07 1169.42,969.915 1170.23,970.752 1171.05,971.581 1171.86,972.403 1172.67,973.217 1173.48,974.024 1174.29,974.824 1175.1,975.617 1175.91,976.402 1176.72,977.18 1177.53,977.951 1178.34,978.715 1179.15,979.472 1179.96,980.222 1180.77,980.966 1181.58,981.702 1182.39,982.432 1183.2,983.155 1184.01,983.871 1184.82,984.581 1185.63,985.284 1186.44,985.981 1187.25,986.672 1188.06,987.356 1188.87,988.034 1189.69,988.705 1190.5,989.37 1191.31,990.03 1192.12,990.683 1192.93,991.33 1193.74,991.971 1194.55,992.606 1195.36,993.235 1196.17,993.859 1196.98,994.476 1197.79,995.088 1198.6,995.694 1199.41,996.295 1200.22,996.89 1201.03,997.479 1201.84,998.063 1202.65,998.641 1203.46,999.214 1204.27,999.782 1205.08,1000.34 1205.89,1000.9 1206.7,1001.45 1207.51,1002 1208.33,1002.54 1209.14,1003.08 1209.95,1003.61 1210.76,1004.14 1211.57,1004.66 1212.38,1005.17 1213.19,1005.69 1214,1006.19 1214.81,1006.7 1215.62,1007.19 1216.43,1007.69 1217.24,1008.17 1218.05,1008.66 1218.86,1009.14 1219.67,1009.61 1220.48,1010.08 1221.29,1010.55 1222.1,1011.01 1222.91,1011.46 1223.72,1011.92 1224.53,1012.37 1225.34,1012.81 1226.15,1013.25 1226.96,1013.68 1227.78,1014.12 1228.59,1014.54 1229.4,1014.97 1230.21,1015.39 1231.02,1015.8 1231.83,1016.21 1232.64,1016.62 1233.45,1017.02 1234.26,1017.42 1235.07,1017.82 1235.88,1018.21 1236.69,1018.6 1237.5,1018.98 1238.31,1019.36 1239.12,1019.74 1239.93,1020.11 1240.74,1020.48 1241.55,1020.85 1242.36,1021.21 1243.17,1021.57 1243.98,1021.93 1244.79,1022.28 1245.6,1022.63 1246.42,1022.98 1247.23,1023.32 1248.04,1023.66 1248.85,1024 1249.66,1024.33 1250.47,1024.66 1251.28,1024.99 1252.09,1025.31 1252.9,1025.63 1253.71,1025.95 1254.52,1026.26 1255.33,1026.57 1256.14,1026.88 1256.95,1027.18 1257.76,1027.49 1258.57,1027.79 1259.38,1028.08 1260.19,1028.38 1261,1028.67 1261.81,1028.95 1262.62,1029.24 1263.43,1029.52 1264.24,1029.8 1265.05,1030.08 1265.87,1030.35 1266.68,1030.62 1267.49,1030.89 1268.3,1031.16 1269.11,1031.42 1269.92,1031.69 1270.73,1031.94 1271.54,1032.2 1272.35,1032.45 1273.16,1032.71 1273.97,1032.95 1274.78,1033.2 1275.59,1033.44 1276.4,1033.69 1277.21,1033.93 1278.02,1034.16 1278.83,1034.4 1279.64,1034.63 1280.45,1034.86 1281.26,1035.09 1282.07,1035.31 1282.88,1035.54 1283.69,1035.76 1284.51,1035.98 1285.32,1036.19 1286.13,1036.41 1286.94,1036.62 1287.75,1036.83 1288.56,1037.04 1289.37,1037.25 1290.18,1037.45 1290.99,1037.66 1291.8,1037.86 1292.61,1038.06 1293.42,1038.25 1294.23,1038.45 1295.04,1038.64 1295.85,1038.83 1296.66,1039.02 1297.47,1039.21 1298.28,1039.39 1299.09,1039.58 1299.9,1039.76 1300.71,1039.94 1301.52,1040.12 1302.33,1040.3 1303.14,1040.47 1303.96,1040.64 1304.77,1040.82 1305.58,1040.99 1306.39,1041.15 1307.2,1041.32 1308.01,1041.48 1308.82,1041.65 1309.63,1041.81 1310.44,1041.97 1311.25,1042.13 1312.06,1042.29 1312.87,1042.44 1313.68,1042.6 1314.49,1042.75 1315.3,1042.9 1316.11,1043.05 1316.92,1043.2 1317.73,1043.34 1318.54,1043.49 1319.35,1043.63 1320.16,1043.77 1320.97,1043.92 1321.78,1044.05 1322.6,1044.19 1323.41,1044.33 1324.22,1044.47 1325.03,1044.6 1325.84,1044.73 1326.65,1044.86 1327.46,1044.99 1328.27,1045.12 1329.08,1045.25 1329.89,1045.38 1330.7,1045.5 1331.51,1045.63 1332.32,1045.75 1333.13,1045.87 1333.94,1045.99 1334.75,1046.11 1335.56,1046.23 1336.37,1046.35 1337.18,1046.46 1337.99,1046.58 1338.8,1046.69 1339.61,1046.8 1340.42,1046.91 1341.23,1047.02 1342.05,1047.13 1342.86,1047.24 1343.67,1047.35 1344.48,1047.45 1345.29,1047.56 1346.1,1047.66 1346.91,1047.76 1347.72,1047.87 1348.53,1047.97 1349.34,1048.07 1350.15,1048.16 1350.96,1048.26 1351.77,1048.36 1352.58,1048.45 1353.39,1048.55 1354.2,1048.64 1355.01,1048.74 1355.82,1048.83 1356.63,1048.92 1357.44,1049.01 1358.25,1049.1 1359.06,1049.19 1359.87,1049.28 1360.69,1049.36 1361.5,1049.45 1362.31,1049.53 1363.12,1049.62 1363.93,1049.7 1364.74,1049.78 1365.55,1049.87 1366.36,1049.95 1367.17,1050.03 1367.98,1050.11 1368.79,1050.19 1369.6,1050.26 1370.41,1050.34 1371.22,1050.42 1372.03,1050.49 1372.84,1050.57 1373.65,1050.64 1374.46,1050.71 1375.27,1050.79 1376.08,1050.86 1376.89,1050.93 1377.7,1051 1378.51,1051.07 1379.32,1051.14 1380.14,1051.21 1380.95,1051.28 1381.76,1051.34 1382.57,1051.41 1383.38,1051.48 1384.19,1051.54 1385,1051.61 1385.81,1051.67 1386.62,1051.73 1387.43,1051.79 1388.24,1051.86 1389.05,1051.92 1389.86,1051.98 1390.67,1052.04 1391.48,1052.1 1392.29,1052.16 1393.1,1052.22 1393.91,1052.27 1394.72,1052.33 1395.53,1052.39 1396.34,1052.44 1397.15,1052.5 1397.96,1052.55 1398.78,1052.61 1399.59,1052.66 1400.4,1052.72 1401.21,1052.77 1402.02,1052.82 1402.83,1052.87 1403.64,1052.92 1404.45,1052.97 1405.26,1053.03 1406.07,1053.07 1406.88,1053.12 1407.69,1053.17 1408.5,1053.22 1409.31,1053.27 1410.12,1053.32 1410.93,1053.36 1411.74,1053.41 1412.55,1053.46 1413.36,1053.5 1414.17,1053.55 1414.98,1053.59 1415.79,1053.64 1416.6,1053.68 1417.41,1053.72 1418.23,1053.77 1419.04,1053.81 1419.85,1053.85 1420.66,1053.89 1421.47,1053.93 1422.28,1053.97 1423.09,1054.01 1423.9,1054.05 1424.71,1054.09 1425.52,1054.13 1426.33,1054.17 1427.14,1054.21 1427.95,1054.25 1428.76,1054.29 1429.57,1054.32 1430.38,1054.36 1431.19,1054.4 1432,1054.43 1432.81,1054.47 1433.62,1054.5 1434.43,1054.54 1435.24,1054.57 1436.05,1054.61 1436.87,1054.64 1437.68,1054.68 1438.49,1054.71 1439.3,1054.74 1440.11,1054.78 1440.92,1054.81 1441.73,1054.84 1442.54,1054.87 1443.35,1054.9 1444.16,1054.93 1444.97,1054.97 1445.78,1055 1446.59,1055.03 1447.4,1055.06 1448.21,1055.09 1449.02,1055.12 1449.83,1055.14 1450.64,1055.17 1451.45,1055.2 1452.26,1055.23 1453.07,1055.26 1453.88,1055.29 1454.69,1055.31 1455.5,1055.34 1456.32,1055.37 1457.13,1055.39 1457.94,1055.42 1458.75,1055.45 1459.56,1055.47 1460.37,1055.5 1461.18,1055.52 1461.99,1055.55 1462.8,1055.57 1463.61,1055.6 1464.42,1055.62 1465.23,1055.64 1466.04,1055.67 1466.85,1055.69 1467.66,1055.72 1468.47,1055.74 1469.28,1055.76 1470.09,1055.78 1470.9,1055.81 1471.71,1055.83 1472.52,1055.85 1473.33,1055.87 1474.14,1055.89 1474.96,1055.92 1475.77,1055.94 1476.58,1055.96 1477.39,1055.98 1478.2,1056 1479.01,1056.02 1479.82,1056.04 1480.63,1056.06 1481.44,1056.08 1482.25,1056.1 1483.06,1056.12 1483.87,1056.14 1484.68,1056.16 1485.49,1056.17 1486.3,1056.19 1487.11,1056.21 1487.92,1056.23 1488.73,1056.25 1489.54,1056.27 1490.35,1056.28 1491.16,1056.3 1491.97,1056.32 1492.78,1056.34 1493.59,1056.35 1494.41,1056.37 1495.22,1056.39 1496.03,1056.4 1496.84,1056.42 1497.65,1056.43 1498.46,1056.45 1499.27,1056.47 1500.08,1056.48 1500.89,1056.5 1501.7,1056.51 1502.51,1056.53 1503.32,1056.54 1504.13,1056.56 1504.94,1056.57 1505.75,1056.59 1506.56,1056.6 1507.37,1056.62 1508.18,1056.63 1508.99,1056.64 1509.8,1056.66 1510.61,1056.67 1511.42,1056.69 1512.23,1056.7 1513.05,1056.71 1513.86,1056.73 "/>
</svg>
