<?xml version="1.0" encoding="utf-8"?>
<svg xmlns="http://www.w3.org/2000/svg" xmlns:xlink="http://www.w3.org/1999/xlink" width="400" height="300" viewBox="0 0 1600 1200">
<defs>
  <clipPath id="clip610">
    <rect x="0" y="0" width="1600" height="1200"/>
  </clipPath>
</defs>
<path clip-path="url(#clip610)" d="M0 1200 L1600 1200 L1600 0 L0 0  Z" fill="#ffffff" fill-rule="evenodd" fill-opacity="1"/>
<defs>
  <clipPath id="clip611">
    <rect x="320" y="0" width="1121" height="1121"/>
  </clipPath>
</defs>
<path clip-path="url(#clip610)" d="M185.936 1086.13 L1552.76 1086.13 L1552.76 47.2441 L185.936 47.2441  Z" fill="#ffffff" fill-rule="evenodd" fill-opacity="1"/>
<defs>
  <clipPath id="clip612">
    <rect x="185" y="47" width="1368" height="1040"/>
  </clipPath>
</defs>
<polyline clip-path="url(#clip612)" style="stroke:#000000; stroke-linecap:round; stroke-linejoin:round; stroke-width:2; stroke-opacity:0.1; fill:none" points="385.801,1086.13 385.801,47.2441 "/>
<polyline clip-path="url(#clip612)" style="stroke:#000000; stroke-linecap:round; stroke-linejoin:round; stroke-width:2; stroke-opacity:0.1; fill:none" points="627.574,1086.13 627.574,47.2441 "/>
<polyline clip-path="url(#clip612)" style="stroke:#000000; stroke-linecap:round; stroke-linejoin:round; stroke-width:2; stroke-opacity:0.1; fill:none" points="869.346,1086.13 869.346,47.2441 "/>
<polyline clip-path="url(#clip612)" style="stroke:#000000; stroke-linecap:round; stroke-linejoin:round; stroke-width:2; stroke-opacity:0.1; fill:none" points="1111.12,1086.13 1111.12,47.2441 "/>
<polyline clip-path="url(#clip612)" style="stroke:#000000; stroke-linecap:round; stroke-linejoin:round; stroke-width:2; stroke-opacity:0.1; fill:none" points="1352.89,1086.13 1352.89,47.2441 "/>
<polyline clip-path="url(#clip612)" style="stroke:#000000; stroke-linecap:round; stroke-linejoin:round; stroke-width:2; stroke-opacity:0.1; fill:none" points="185.936,1056.73 1552.76,1056.73 "/>
<polyline clip-path="url(#clip612)" style="stroke:#000000; stroke-linecap:round; stroke-linejoin:round; stroke-width:2; stroke-opacity:0.1; fill:none" points="185.936,811.706 1552.76,811.706 "/>
<polyline clip-path="url(#clip612)" style="stroke:#000000; stroke-linecap:round; stroke-linejoin:round; stroke-width:2; stroke-opacity:0.1; fill:none" points="185.936,566.686 1552.76,566.686 "/>
<polyline clip-path="url(#clip612)" style="stroke:#000000; stroke-linecap:round; stroke-linejoin:round; stroke-width:2; stroke-opacity:0.1; fill:none" points="185.936,321.666 1552.76,321.666 "/>
<polyline clip-path="url(#clip612)" style="stroke:#000000; stroke-linecap:round; stroke-linejoin:round; stroke-width:2; stroke-opacity:0.1; fill:none" points="185.936,76.6464 1552.76,76.6464 "/>
<polyline clip-path="url(#clip610)" style="stroke:#000000; stroke-linecap:round; stroke-linejoin:round; stroke-width:4; stroke-opacity:1; fill:none" points="185.936,1086.13 1552.76,1086.13 "/>
<polyline clip-path="url(#clip610)" style="stroke:#000000; stroke-linecap:round; stroke-linejoin:round; stroke-width:4; stroke-opacity:1; fill:none" points="385.801,1086.13 385.801,1067.23 "/>
<polyline clip-path="url(#clip610)" style="stroke:#000000; stroke-linecap:round; stroke-linejoin:round; stroke-width:4; stroke-opacity:1; fill:none" points="627.574,1086.13 627.574,1067.23 "/>
<polyline clip-path="url(#clip610)" style="stroke:#000000; stroke-linecap:round; stroke-linejoin:round; stroke-width:4; stroke-opacity:1; fill:none" points="869.346,1086.13 869.346,1067.23 "/>
<polyline clip-path="url(#clip610)" style="stroke:#000000; stroke-linecap:round; stroke-linejoin:round; stroke-width:4; stroke-opacity:1; fill:none" points="1111.12,1086.13 1111.12,1067.23 "/>
<polyline clip-path="url(#clip610)" style="stroke:#000000; stroke-linecap:round; stroke-linejoin:round; stroke-width:4; stroke-opacity:1; fill:none" points="1352.89,1086.13 1352.89,1067.23 "/>
<path clip-path="url(#clip610)" d="M354.864 1125.3 L384.54 1125.3 L384.54 1129.23 L354.864 1129.23 L354.864 1125.3 Z" fill="#000000" fill-rule="nonzero" fill-opacity="1" /><path clip-path="url(#clip610)" d="M405.211 1122.98 Q402.063 1122.98 400.211 1125.14 Q398.382 1127.29 398.382 1131.04 Q398.382 1134.77 400.211 1136.94 Q402.063 1139.1 405.211 1139.1 Q408.359 1139.1 410.188 1136.94 Q412.039 1134.77 412.039 1131.04 Q412.039 1127.29 410.188 1125.14 Q408.359 1122.98 405.211 1122.98 M414.493 1108.33 L414.493 1112.59 Q412.734 1111.76 410.928 1111.32 Q409.146 1110.88 407.387 1110.88 Q402.757 1110.88 400.303 1114 Q397.873 1117.13 397.526 1123.45 Q398.891 1121.43 400.952 1120.37 Q403.012 1119.28 405.489 1119.28 Q410.697 1119.28 413.706 1122.45 Q416.739 1125.6 416.739 1131.04 Q416.739 1136.36 413.59 1139.58 Q410.442 1142.8 405.211 1142.8 Q399.215 1142.8 396.044 1138.22 Q392.873 1133.61 392.873 1124.88 Q392.873 1116.69 396.762 1111.83 Q400.651 1106.94 407.202 1106.94 Q408.961 1106.94 410.743 1107.29 Q412.549 1107.64 414.493 1108.33 Z" fill="#000000" fill-rule="nonzero" fill-opacity="1" /><path clip-path="url(#clip610)" d="M597.041 1125.3 L626.717 1125.3 L626.717 1129.23 L597.041 1129.23 L597.041 1125.3 Z" fill="#000000" fill-rule="nonzero" fill-opacity="1" /><path clip-path="url(#clip610)" d="M650.976 1123.49 Q654.333 1124.21 656.208 1126.48 Q658.106 1128.75 658.106 1132.08 Q658.106 1137.2 654.587 1140 Q651.069 1142.8 644.587 1142.8 Q642.411 1142.8 640.097 1142.36 Q637.805 1141.94 635.351 1141.09 L635.351 1136.57 Q637.296 1137.71 639.611 1138.29 Q641.925 1138.86 644.448 1138.86 Q648.847 1138.86 651.138 1137.13 Q653.453 1135.39 653.453 1132.08 Q653.453 1129.03 651.3 1127.31 Q649.171 1125.58 645.351 1125.58 L641.323 1125.58 L641.323 1121.73 L645.536 1121.73 Q648.985 1121.73 650.814 1120.37 Q652.643 1118.98 652.643 1116.39 Q652.643 1113.73 650.745 1112.31 Q648.87 1110.88 645.351 1110.88 Q643.43 1110.88 641.231 1111.29 Q639.032 1111.71 636.393 1112.59 L636.393 1108.42 Q639.055 1107.68 641.37 1107.31 Q643.708 1106.94 645.768 1106.94 Q651.092 1106.94 654.194 1109.37 Q657.296 1111.78 657.296 1115.9 Q657.296 1118.77 655.652 1120.76 Q654.009 1122.73 650.976 1123.49 Z" fill="#000000" fill-rule="nonzero" fill-opacity="1" /><path clip-path="url(#clip610)" d="M869.346 1110.65 Q865.735 1110.65 863.906 1114.21 Q862.101 1117.75 862.101 1124.88 Q862.101 1131.99 863.906 1135.55 Q865.735 1139.1 869.346 1139.1 Q872.98 1139.1 874.786 1135.55 Q876.614 1131.99 876.614 1124.88 Q876.614 1117.75 874.786 1114.21 Q872.98 1110.65 869.346 1110.65 M869.346 1106.94 Q875.156 1106.94 878.212 1111.55 Q881.29 1116.13 881.29 1124.88 Q881.29 1133.61 878.212 1138.22 Q875.156 1142.8 869.346 1142.8 Q863.536 1142.8 860.457 1138.22 Q857.402 1133.61 857.402 1124.88 Q857.402 1116.13 860.457 1111.55 Q863.536 1106.94 869.346 1106.94 Z" fill="#000000" fill-rule="nonzero" fill-opacity="1" /><path clip-path="url(#clip610)" d="M1115.37 1123.49 Q1118.72 1124.21 1120.6 1126.48 Q1122.5 1128.75 1122.5 1132.08 Q1122.5 1137.2 1118.98 1140 Q1115.46 1142.8 1108.98 1142.8 Q1106.8 1142.8 1104.49 1142.36 Q1102.19 1141.94 1099.74 1141.09 L1099.74 1136.57 Q1101.69 1137.71 1104 1138.29 Q1106.32 1138.86 1108.84 1138.86 Q1113.24 1138.86 1115.53 1137.13 Q1117.84 1135.39 1117.84 1132.08 Q1117.84 1129.03 1115.69 1127.31 Q1113.56 1125.58 1109.74 1125.58 L1105.71 1125.58 L1105.71 1121.73 L1109.93 1121.73 Q1113.38 1121.73 1115.2 1120.37 Q1117.03 1118.98 1117.03 1116.39 Q1117.03 1113.73 1115.13 1112.31 Q1113.26 1110.88 1109.74 1110.88 Q1107.82 1110.88 1105.62 1111.29 Q1103.42 1111.71 1100.78 1112.59 L1100.78 1108.42 Q1103.44 1107.68 1105.76 1107.31 Q1108.1 1106.94 1110.16 1106.94 Q1115.48 1106.94 1118.58 1109.37 Q1121.69 1111.78 1121.69 1115.9 Q1121.69 1118.77 1120.04 1120.76 Q1118.4 1122.73 1115.37 1123.49 Z" fill="#000000" fill-rule="nonzero" fill-opacity="1" /><path clip-path="url(#clip610)" d="M1353.3 1122.98 Q1350.15 1122.98 1348.3 1125.14 Q1346.47 1127.29 1346.47 1131.04 Q1346.47 1134.77 1348.3 1136.94 Q1350.15 1139.1 1353.3 1139.1 Q1356.44 1139.1 1358.27 1136.94 Q1360.12 1134.77 1360.12 1131.04 Q1360.12 1127.29 1358.27 1125.14 Q1356.44 1122.98 1353.3 1122.98 M1362.58 1108.33 L1362.58 1112.59 Q1360.82 1111.76 1359.01 1111.32 Q1357.23 1110.88 1355.47 1110.88 Q1350.84 1110.88 1348.39 1114 Q1345.96 1117.13 1345.61 1123.45 Q1346.98 1121.43 1349.04 1120.37 Q1351.1 1119.28 1353.57 1119.28 Q1358.78 1119.28 1361.79 1122.45 Q1364.82 1125.6 1364.82 1131.04 Q1364.82 1136.36 1361.68 1139.58 Q1358.53 1142.8 1353.3 1142.8 Q1347.3 1142.8 1344.13 1138.22 Q1340.96 1133.61 1340.96 1124.88 Q1340.96 1116.69 1344.85 1111.83 Q1348.74 1106.94 1355.29 1106.94 Q1357.05 1106.94 1358.83 1107.29 Q1360.63 1107.64 1362.58 1108.33 Z" fill="#000000" fill-rule="nonzero" fill-opacity="1" /><polyline clip-path="url(#clip610)" style="stroke:#000000; stroke-linecap:round; stroke-linejoin:round; stroke-width:4; stroke-opacity:1; fill:none" points="185.936,1086.13 185.936,47.2441 "/>
<polyline clip-path="url(#clip610)" style="stroke:#000000; stroke-linecap:round; stroke-linejoin:round; stroke-width:4; stroke-opacity:1; fill:none" points="185.936,1056.73 204.834,1056.73 "/>
<polyline clip-path="url(#clip610)" style="stroke:#000000; stroke-linecap:round; stroke-linejoin:round; stroke-width:4; stroke-opacity:1; fill:none" points="185.936,811.706 204.834,811.706 "/>
<polyline clip-path="url(#clip610)" style="stroke:#000000; stroke-linecap:round; stroke-linejoin:round; stroke-width:4; stroke-opacity:1; fill:none" points="185.936,566.686 204.834,566.686 "/>
<polyline clip-path="url(#clip610)" style="stroke:#000000; stroke-linecap:round; stroke-linejoin:round; stroke-width:4; stroke-opacity:1; fill:none" points="185.936,321.666 204.834,321.666 "/>
<polyline clip-path="url(#clip610)" style="stroke:#000000; stroke-linecap:round; stroke-linejoin:round; stroke-width:4; stroke-opacity:1; fill:none" points="185.936,76.6464 204.834,76.6464 "/>
<path clip-path="url(#clip610)" d="M54.9921 1057.18 L84.6679 1057.18 L84.6679 1061.11 L54.9921 1061.11 L54.9921 1057.18 Z" fill="#000000" fill-rule="nonzero" fill-opacity="1" /><path clip-path="url(#clip610)" d="M95.5706 1070.07 L103.209 1070.07 L103.209 1043.7 L94.8993 1045.37 L94.8993 1041.11 L103.163 1039.45 L107.839 1039.45 L107.839 1070.07 L115.478 1070.07 L115.478 1074.01 L95.5706 1074.01 L95.5706 1070.07 Z" fill="#000000" fill-rule="nonzero" fill-opacity="1" /><path clip-path="url(#clip610)" d="M124.922 1068.13 L129.807 1068.13 L129.807 1074.01 L124.922 1074.01 L124.922 1068.13 Z" fill="#000000" fill-rule="nonzero" fill-opacity="1" /><path clip-path="url(#clip610)" d="M149.992 1042.52 Q146.381 1042.52 144.552 1046.09 Q142.746 1049.63 142.746 1056.76 Q142.746 1063.87 144.552 1067.43 Q146.381 1070.97 149.992 1070.97 Q153.626 1070.97 155.431 1067.43 Q157.26 1063.87 157.26 1056.76 Q157.26 1049.63 155.431 1046.09 Q153.626 1042.52 149.992 1042.52 M149.992 1038.82 Q155.802 1038.82 158.857 1043.43 Q161.936 1048.01 161.936 1056.76 Q161.936 1065.49 158.857 1070.09 Q155.802 1074.68 149.992 1074.68 Q144.181 1074.68 141.103 1070.09 Q138.047 1065.49 138.047 1056.76 Q138.047 1048.01 141.103 1043.43 Q144.181 1038.82 149.992 1038.82 Z" fill="#000000" fill-rule="nonzero" fill-opacity="1" /><path clip-path="url(#clip610)" d="M55.9875 812.157 L85.6633 812.157 L85.6633 816.092 L55.9875 816.092 L55.9875 812.157 Z" fill="#000000" fill-rule="nonzero" fill-opacity="1" /><path clip-path="url(#clip610)" d="M105.756 797.504 Q102.145 797.504 100.316 801.069 Q98.5104 804.611 98.5104 811.741 Q98.5104 818.847 100.316 822.412 Q102.145 825.953 105.756 825.953 Q109.39 825.953 111.196 822.412 Q113.024 818.847 113.024 811.741 Q113.024 804.611 111.196 801.069 Q109.39 797.504 105.756 797.504 M105.756 793.801 Q111.566 793.801 114.621 798.407 Q117.7 802.991 117.7 811.741 Q117.7 820.467 114.621 825.074 Q111.566 829.657 105.756 829.657 Q99.9456 829.657 96.8669 825.074 Q93.8114 820.467 93.8114 811.741 Q93.8114 802.991 96.8669 798.407 Q99.9456 793.801 105.756 793.801 Z" fill="#000000" fill-rule="nonzero" fill-opacity="1" /><path clip-path="url(#clip610)" d="M125.918 823.106 L130.802 823.106 L130.802 828.986 L125.918 828.986 L125.918 823.106 Z" fill="#000000" fill-rule="nonzero" fill-opacity="1" /><path clip-path="url(#clip610)" d="M141.033 794.426 L159.39 794.426 L159.39 798.361 L145.316 798.361 L145.316 806.833 Q146.334 806.486 147.353 806.324 Q148.371 806.139 149.39 806.139 Q155.177 806.139 158.556 809.31 Q161.936 812.481 161.936 817.898 Q161.936 823.477 158.464 826.578 Q154.992 829.657 148.672 829.657 Q146.496 829.657 144.228 829.287 Q141.982 828.916 139.575 828.176 L139.575 823.477 Q141.658 824.611 143.881 825.166 Q146.103 825.722 148.58 825.722 Q152.584 825.722 154.922 823.615 Q157.26 821.509 157.26 817.898 Q157.26 814.287 154.922 812.18 Q152.584 810.074 148.58 810.074 Q146.705 810.074 144.83 810.491 Q142.978 810.907 141.033 811.787 L141.033 794.426 Z" fill="#000000" fill-rule="nonzero" fill-opacity="1" /><path clip-path="url(#clip610)" d="M104.76 552.485 Q101.149 552.485 99.3206 556.049 Q97.515 559.591 97.515 566.721 Q97.515 573.827 99.3206 577.392 Q101.149 580.934 104.76 580.934 Q108.395 580.934 110.2 577.392 Q112.029 573.827 112.029 566.721 Q112.029 559.591 110.2 556.049 Q108.395 552.485 104.76 552.485 M104.76 548.781 Q110.571 548.781 113.626 553.387 Q116.705 557.971 116.705 566.721 Q116.705 575.448 113.626 580.054 Q110.571 584.637 104.76 584.637 Q98.9502 584.637 95.8715 580.054 Q92.816 575.448 92.816 566.721 Q92.816 557.971 95.8715 553.387 Q98.9502 548.781 104.76 548.781 Z" fill="#000000" fill-rule="nonzero" fill-opacity="1" /><path clip-path="url(#clip610)" d="M124.922 578.086 L129.807 578.086 L129.807 583.966 L124.922 583.966 L124.922 578.086 Z" fill="#000000" fill-rule="nonzero" fill-opacity="1" /><path clip-path="url(#clip610)" d="M149.992 552.485 Q146.381 552.485 144.552 556.049 Q142.746 559.591 142.746 566.721 Q142.746 573.827 144.552 577.392 Q146.381 580.934 149.992 580.934 Q153.626 580.934 155.431 577.392 Q157.26 573.827 157.26 566.721 Q157.26 559.591 155.431 556.049 Q153.626 552.485 149.992 552.485 M149.992 548.781 Q155.802 548.781 158.857 553.387 Q161.936 557.971 161.936 566.721 Q161.936 575.448 158.857 580.054 Q155.802 584.637 149.992 584.637 Q144.181 584.637 141.103 580.054 Q138.047 575.448 138.047 566.721 Q138.047 557.971 141.103 553.387 Q144.181 548.781 149.992 548.781 Z" fill="#000000" fill-rule="nonzero" fill-opacity="1" /><path clip-path="url(#clip610)" d="M105.756 307.465 Q102.145 307.465 100.316 311.03 Q98.5104 314.571 98.5104 321.701 Q98.5104 328.807 100.316 332.372 Q102.145 335.914 105.756 335.914 Q109.39 335.914 111.196 332.372 Q113.024 328.807 113.024 321.701 Q113.024 314.571 111.196 311.03 Q109.39 307.465 105.756 307.465 M105.756 303.761 Q111.566 303.761 114.621 308.368 Q117.7 312.951 117.7 321.701 Q117.7 330.428 114.621 335.034 Q111.566 339.617 105.756 339.617 Q99.9456 339.617 96.8669 335.034 Q93.8114 330.428 93.8114 321.701 Q93.8114 312.951 96.8669 308.368 Q99.9456 303.761 105.756 303.761 Z" fill="#000000" fill-rule="nonzero" fill-opacity="1" /><path clip-path="url(#clip610)" d="M125.918 333.067 L130.802 333.067 L130.802 338.946 L125.918 338.946 L125.918 333.067 Z" fill="#000000" fill-rule="nonzero" fill-opacity="1" /><path clip-path="url(#clip610)" d="M141.033 304.386 L159.39 304.386 L159.39 308.321 L145.316 308.321 L145.316 316.794 Q146.334 316.446 147.353 316.284 Q148.371 316.099 149.39 316.099 Q155.177 316.099 158.556 319.27 Q161.936 322.442 161.936 327.858 Q161.936 333.437 158.464 336.539 Q154.992 339.617 148.672 339.617 Q146.496 339.617 144.228 339.247 Q141.982 338.877 139.575 338.136 L139.575 333.437 Q141.658 334.571 143.881 335.127 Q146.103 335.682 148.58 335.682 Q152.584 335.682 154.922 333.576 Q157.26 331.469 157.26 327.858 Q157.26 324.247 154.922 322.141 Q152.584 320.034 148.58 320.034 Q146.705 320.034 144.83 320.451 Q142.978 320.868 141.033 321.747 L141.033 304.386 Z" fill="#000000" fill-rule="nonzero" fill-opacity="1" /><path clip-path="url(#clip610)" d="M95.5706 89.9912 L103.209 89.9912 L103.209 63.6256 L94.8993 65.2922 L94.8993 61.033 L103.163 59.3664 L107.839 59.3664 L107.839 89.9912 L115.478 89.9912 L115.478 93.9264 L95.5706 93.9264 L95.5706 89.9912 Z" fill="#000000" fill-rule="nonzero" fill-opacity="1" /><path clip-path="url(#clip610)" d="M124.922 88.0468 L129.807 88.0468 L129.807 93.9264 L124.922 93.9264 L124.922 88.0468 Z" fill="#000000" fill-rule="nonzero" fill-opacity="1" /><path clip-path="url(#clip610)" d="M149.992 62.445 Q146.381 62.445 144.552 66.0098 Q142.746 69.5515 142.746 76.6811 Q142.746 83.7875 144.552 87.3523 Q146.381 90.894 149.992 90.894 Q153.626 90.894 155.431 87.3523 Q157.26 83.7875 157.26 76.6811 Q157.26 69.5515 155.431 66.0098 Q153.626 62.445 149.992 62.445 M149.992 58.7414 Q155.802 58.7414 158.857 63.3478 Q161.936 67.9311 161.936 76.6811 Q161.936 85.4079 158.857 90.0143 Q155.802 94.5976 149.992 94.5976 Q144.181 94.5976 141.103 90.0143 Q138.047 85.4079 138.047 76.6811 Q138.047 67.9311 141.103 63.3478 Q144.181 58.7414 149.992 58.7414 Z" fill="#000000" fill-rule="nonzero" fill-opacity="1" /><polyline clip-path="url(#clip612)" style="stroke:#009af9; stroke-linecap:round; stroke-linejoin:round; stroke-width:4; stroke-opacity:1; fill:none" points="224.62,1056.73 225.425,1056.73 226.231,1056.73 227.037,1056.73 227.843,1056.73 228.649,1056.73 229.455,1056.73 230.261,1056.73 231.067,1056.73 231.873,1056.73 232.679,1056.73 233.485,1056.73 234.29,1056.73 235.096,1056.73 235.902,1056.73 236.708,1056.73 237.514,1056.73 238.32,1056.73 239.126,1056.73 239.932,1056.73 240.738,1056.73 241.544,1056.73 242.35,1056.73 243.155,1056.73 243.961,1056.73 244.767,1056.73 245.573,1056.73 246.379,1056.73 247.185,1056.73 247.991,1056.73 248.797,1056.73 249.603,1056.73 250.409,1056.73 251.215,1056.73 252.02,1056.73 252.826,1056.73 253.632,1056.73 254.438,1056.73 255.244,1056.73 256.05,1056.73 256.856,1056.73 257.662,1056.73 258.468,1056.73 259.274,1056.73 260.08,1056.73 260.885,1056.73 261.691,1056.73 262.497,1056.73 263.303,1056.73 264.109,1056.73 264.915,1056.73 265.721,1056.73 266.527,1056.73 267.333,1056.73 268.139,1056.73 268.945,1056.73 269.75,1056.73 270.556,1056.73 271.362,1056.73 272.168,1056.73 272.974,1056.73 273.78,1056.73 274.586,1056.73 275.392,1056.73 276.198,1056.73 277.004,1056.73 277.81,1056.73 278.615,1056.73 279.421,1056.73 280.227,1056.73 281.033,1056.73 281.839,1056.73 282.645,1056.73 283.451,1056.73 284.257,1056.73 285.063,1056.73 285.869,1056.73 286.674,1056.73 287.48,1056.73 288.286,1056.73 289.092,1056.73 289.898,1056.73 290.704,1056.73 291.51,1056.73 292.316,1056.73 293.122,1056.73 293.928,1056.72 294.734,1056.72 295.539,1056.72 296.345,1056.72 297.151,1056.72 297.957,1056.72 298.763,1056.72 299.569,1056.72 300.375,1056.72 301.181,1056.72 301.987,1056.72 302.793,1056.72 303.599,1056.72 304.404,1056.72 305.21,1056.72 306.016,1056.72 306.822,1056.72 307.628,1056.72 308.434,1056.72 309.24,1056.72 310.046,1056.72 310.852,1056.72 311.658,1056.72 312.464,1056.72 313.269,1056.72 314.075,1056.72 314.881,1056.72 315.687,1056.72 316.493,1056.72 317.299,1056.72 318.105,1056.72 318.911,1056.72 319.717,1056.72 320.523,1056.72 321.329,1056.72 322.134,1056.72 322.94,1056.72 323.746,1056.72 324.552,1056.72 325.358,1056.72 326.164,1056.72 326.97,1056.72 327.776,1056.72 328.582,1056.72 329.388,1056.72 330.194,1056.72 330.999,1056.72 331.805,1056.72 332.611,1056.72 333.417,1056.72 334.223,1056.72 335.029,1056.72 335.835,1056.72 336.641,1056.72 337.447,1056.72 338.253,1056.72 339.059,1056.72 339.864,1056.72 340.67,1056.72 341.476,1056.72 342.282,1056.72 343.088,1056.72 343.894,1056.72 344.7,1056.72 345.506,1056.72 346.312,1056.72 347.118,1056.72 347.923,1056.72 348.729,1056.72 349.535,1056.72 350.341,1056.72 351.147,1056.72 351.953,1056.72 352.759,1056.72 353.565,1056.72 354.371,1056.72 355.177,1056.72 355.983,1056.72 356.788,1056.72 357.594,1056.72 358.4,1056.72 359.206,1056.72 360.012,1056.72 360.818,1056.72 361.624,1056.72 362.43,1056.72 363.236,1056.72 364.042,1056.72 364.848,1056.72 365.653,1056.72 366.459,1056.72 367.265,1056.72 368.071,1056.72 368.877,1056.72 369.683,1056.72 370.489,1056.72 371.295,1056.72 372.101,1056.72 372.907,1056.72 373.713,1056.72 374.518,1056.72 375.324,1056.72 376.13,1056.72 376.936,1056.72 377.742,1056.72 378.548,1056.72 379.354,1056.72 380.16,1056.72 380.966,1056.72 381.772,1056.72 382.578,1056.72 383.383,1056.72 384.189,1056.72 384.995,1056.72 385.801,1056.72 386.607,1056.72 387.413,1056.72 388.219,1056.72 389.025,1056.72 389.831,1056.72 390.637,1056.72 391.443,1056.72 392.248,1056.72 393.054,1056.72 393.86,1056.72 394.666,1056.72 395.472,1056.72 396.278,1056.72 397.084,1056.72 397.89,1056.72 398.696,1056.72 399.502,1056.72 400.308,1056.72 401.113,1056.72 401.919,1056.72 402.725,1056.72 403.531,1056.72 404.337,1056.72 405.143,1056.72 405.949,1056.72 406.755,1056.72 407.561,1056.72 408.367,1056.72 409.173,1056.71 409.978,1056.71 410.784,1056.71 411.59,1056.71 412.396,1056.71 413.202,1056.71 414.008,1056.71 414.814,1056.71 415.62,1056.71 416.426,1056.71 417.232,1056.71 418.037,1056.71 418.843,1056.71 419.649,1056.71 420.455,1056.71 421.261,1056.71 422.067,1056.71 422.873,1056.71 423.679,1056.71 424.485,1056.71 425.291,1056.71 426.097,1056.71 426.902,1056.71 427.708,1056.71 428.514,1056.71 429.32,1056.71 430.126,1056.71 430.932,1056.71 431.738,1056.71 432.544,1056.71 433.35,1056.71 434.156,1056.71 434.962,1056.71 435.767,1056.7 436.573,1056.7 437.379,1056.7 438.185,1056.7 438.991,1056.7 439.797,1056.7 440.603,1056.7 441.409,1056.7 442.215,1056.7 443.021,1056.7 443.827,1056.7 444.632,1056.7 445.438,1056.7 446.244,1056.7 447.05,1056.7 447.856,1056.7 448.662,1056.7 449.468,1056.7 450.274,1056.7 451.08,1056.7 451.886,1056.69 452.692,1056.69 453.497,1056.69 454.303,1056.69 455.109,1056.69 455.915,1056.69 456.721,1056.69 457.527,1056.69 458.333,1056.69 459.139,1056.69 459.945,1056.69 460.751,1056.69 461.557,1056.69 462.362,1056.69 463.168,1056.68 463.974,1056.68 464.78,1056.68 465.586,1056.68 466.392,1056.68 467.198,1056.68 468.004,1056.68 468.81,1056.68 469.616,1056.68 470.422,1056.68 471.227,1056.68 472.033,1056.67 472.839,1056.67 473.645,1056.67 474.451,1056.67 475.257,1056.67 476.063,1056.67 476.869,1056.67 477.675,1056.67 478.481,1056.67 479.286,1056.66 480.092,1056.66 480.898,1056.66 481.704,1056.66 482.51,1056.66 483.316,1056.66 484.122,1056.66 484.928,1056.66 485.734,1056.65 486.54,1056.65 487.346,1056.65 488.151,1056.65 488.957,1056.65 489.763,1056.65 490.569,1056.64 491.375,1056.64 492.181,1056.64 492.987,1056.64 493.793,1056.64 494.599,1056.64 495.405,1056.63 496.211,1056.63 497.016,1056.63 497.822,1056.63 498.628,1056.63 499.434,1056.62 500.24,1056.62 501.046,1056.62 501.852,1056.62 502.658,1056.62 503.464,1056.61 504.27,1056.61 505.076,1056.61 505.881,1056.61 506.687,1056.6 507.493,1056.6 508.299,1056.6 509.105,1056.6 509.911,1056.59 510.717,1056.59 511.523,1056.59 512.329,1056.59 513.135,1056.58 513.941,1056.58 514.746,1056.58 515.552,1056.57 516.358,1056.57 517.164,1056.57 517.97,1056.57 518.776,1056.56 519.582,1056.56 520.388,1056.56 521.194,1056.55 522,1056.55 522.806,1056.55 523.611,1056.54 524.417,1056.54 525.223,1056.53 526.029,1056.53 526.835,1056.53 527.641,1056.52 528.447,1056.52 529.253,1056.51 530.059,1056.51 530.865,1056.51 531.671,1056.5 532.476,1056.5 533.282,1056.49 534.088,1056.49 534.894,1056.48 535.7,1056.48 536.506,1056.47 537.312,1056.47 538.118,1056.46 538.924,1056.46 539.73,1056.45 540.536,1056.45 541.341,1056.44 542.147,1056.43 542.953,1056.43 543.759,1056.42 544.565,1056.42 545.371,1056.41 546.177,1056.4 546.983,1056.4 547.789,1056.39 548.595,1056.38 549.4,1056.38 550.206,1056.37 551.012,1056.36 551.818,1056.36 552.624,1056.35 553.43,1056.34 554.236,1056.33 555.042,1056.32 555.848,1056.32 556.654,1056.31 557.46,1056.3 558.265,1056.29 559.071,1056.28 559.877,1056.27 560.683,1056.26 561.489,1056.25 562.295,1056.25 563.101,1056.24 563.907,1056.23 564.713,1056.22 565.519,1056.21 566.325,1056.19 567.13,1056.18 567.936,1056.17 568.742,1056.16 569.548,1056.15 570.354,1056.14 571.16,1056.13 571.966,1056.11 572.772,1056.1 573.578,1056.09 574.384,1056.08 575.19,1056.06 575.995,1056.05 576.801,1056.04 577.607,1056.02 578.413,1056.01 579.219,1055.99 580.025,1055.98 580.831,1055.96 581.637,1055.95 582.443,1055.93 583.249,1055.92 584.055,1055.9 584.86,1055.88 585.666,1055.87 586.472,1055.85 587.278,1055.83 588.084,1055.81 588.89,1055.8 589.696,1055.78 590.502,1055.76 591.308,1055.74 592.114,1055.72 592.92,1055.7 593.725,1055.68 594.531,1055.66 595.337,1055.64 596.143,1055.61 596.949,1055.59 597.755,1055.57 598.561,1055.54 599.367,1055.52 600.173,1055.5 600.979,1055.47 601.785,1055.45 602.59,1055.42 603.396,1055.39 604.202,1055.37 605.008,1055.34 605.814,1055.31 606.62,1055.28 607.426,1055.25 608.232,1055.22 609.038,1055.19 609.844,1055.16 610.649,1055.13 611.455,1055.1 612.261,1055.07 613.067,1055.03 613.873,1055 614.679,1054.96 615.485,1054.93 616.291,1054.89 617.097,1054.86 617.903,1054.82 618.709,1054.78 619.514,1054.74 620.32,1054.7 621.126,1054.66 621.932,1054.62 622.738,1054.58 623.544,1054.53 624.35,1054.49 625.156,1054.44 625.962,1054.4 626.768,1054.35 627.574,1054.3 628.379,1054.25 629.185,1054.2 629.991,1054.15 630.797,1054.1 631.603,1054.05 632.409,1053.99 633.215,1053.94 634.021,1053.88 634.827,1053.83 635.633,1053.77 636.439,1053.71 637.244,1053.65 638.05,1053.58 638.856,1053.52 639.662,1053.46 640.468,1053.39 641.274,1053.32 642.08,1053.26 642.886,1053.19 643.692,1053.11 644.498,1053.04 645.304,1052.97 646.109,1052.89 646.915,1052.82 647.721,1052.74 648.527,1052.66 649.333,1052.57 650.139,1052.49 650.945,1052.41 651.751,1052.32 652.557,1052.23 653.363,1052.14 654.169,1052.05 654.974,1051.95 655.78,1051.86 656.586,1051.76 657.392,1051.66 658.198,1051.56 659.004,1051.45 659.81,1051.35 660.616,1051.24 661.422,1051.13 662.228,1051.02 663.034,1050.9 663.839,1050.79 664.645,1050.67 665.451,1050.55 666.257,1050.42 667.063,1050.3 667.869,1050.17 668.675,1050.03 669.481,1049.9 670.287,1049.76 671.093,1049.62 671.899,1049.48 672.704,1049.34 673.51,1049.19 674.316,1049.04 675.122,1048.88 675.928,1048.73 676.734,1048.57 677.54,1048.4 678.346,1048.24 679.152,1048.07 679.958,1047.89 680.763,1047.72 681.569,1047.53 682.375,1047.35 683.181,1047.16 683.987,1046.97 684.793,1046.78 685.599,1046.58 686.405,1046.38 687.211,1046.17 688.017,1045.96 688.823,1045.74 689.628,1045.52 690.434,1045.3 691.24,1045.07 692.046,1044.84 692.852,1044.6 693.658,1044.36 694.464,1044.11 695.27,1043.86 696.076,1043.61 696.882,1043.34 697.688,1043.08 698.493,1042.81 699.299,1042.53 700.105,1042.25 700.911,1041.96 701.717,1041.66 702.523,1041.36 703.329,1041.06 704.135,1040.75 704.941,1040.43 705.747,1040.11 706.553,1039.78 707.358,1039.44 708.164,1039.1 708.97,1038.75 709.776,1038.39 710.582,1038.03 711.388,1037.66 712.194,1037.28 713,1036.9 713.806,1036.5 714.612,1036.1 715.418,1035.7 716.223,1035.28 717.029,1034.86 717.835,1034.42 718.641,1033.98 719.447,1033.54 720.253,1033.08 721.059,1032.61 721.865,1032.14 722.671,1031.65 723.477,1031.16 724.283,1030.66 725.088,1030.15 725.894,1029.62 726.7,1029.09 727.506,1028.55 728.312,1028 729.118,1027.43 729.924,1026.86 730.73,1026.28 731.536,1025.68 732.342,1025.07 733.148,1024.46 733.953,1023.83 734.759,1023.18 735.565,1022.53 736.371,1021.86 737.177,1021.18 737.983,1020.49 738.789,1019.79 739.595,1019.07 740.401,1018.34 741.207,1017.6 742.012,1016.84 742.818,1016.06 743.624,1015.28 744.43,1014.48 745.236,1013.66 746.042,1012.83 746.848,1011.98 747.654,1011.12 748.46,1010.24 749.266,1009.35 750.072,1008.44 750.877,1007.51 751.683,1006.57 752.489,1005.61 753.295,1004.63 754.101,1003.64 754.907,1002.62 755.713,1001.59 756.519,1000.54 757.325,999.475 758.131,998.387 758.937,997.28 759.742,996.153 760.548,995.007 761.354,993.84 762.16,992.653 762.966,991.444 763.772,990.215 764.578,988.964 765.384,987.692 766.19,986.398 766.996,985.081 767.802,983.741 768.607,982.379 769.413,980.993 770.219,979.583 771.025,978.15 771.831,976.692 772.637,975.21 773.443,973.703 774.249,972.17 775.055,970.612 775.861,969.028 776.667,967.418 777.472,965.781 778.278,964.118 779.084,962.427 779.89,960.708 780.696,958.962 781.502,957.188 782.308,955.385 783.114,953.553 783.92,951.692 784.726,949.802 785.532,947.882 786.337,945.932 787.143,943.951 787.949,941.94 788.755,939.897 789.561,937.824 790.367,935.718 791.173,933.581 791.979,931.411 792.785,929.209 793.591,926.974 794.397,924.706 795.202,922.404 796.008,920.069 796.814,917.7 797.62,915.297 798.426,912.859 799.232,910.387 800.038,907.88 800.844,905.337 801.65,902.76 802.456,900.146 803.261,897.497 804.067,894.812 804.873,892.09 805.679,889.333 806.485,886.538 807.291,883.707 808.097,880.839 808.903,877.934 809.709,874.992 810.515,872.013 811.321,868.996 812.126,865.942 812.932,862.85 813.738,859.721 814.544,856.554 815.35,853.349 816.156,850.107 816.962,846.827 817.768,843.509 818.574,840.154 819.38,836.761 820.186,833.33 820.991,829.862 821.797,826.356 822.603,822.813 823.409,819.232 824.215,815.615 825.021,811.961 825.827,808.27 826.633,804.542 827.439,800.778 828.245,796.978 829.051,793.142 829.856,789.27 830.662,785.363 831.468,781.421 832.274,777.444 833.08,773.433 833.886,769.388 834.692,765.309 835.498,761.198 836.304,757.053 837.11,752.876 837.916,748.667 838.721,744.427 839.527,740.156 840.333,735.855 841.139,731.523 841.945,727.163 842.751,722.774 843.557,718.357 844.363,713.912 845.169,709.441 845.975,704.943 846.781,700.42 847.586,695.873 848.392,691.301 849.198,686.706 850.004,682.088 850.81,677.449 851.616,672.788 852.422,668.108 853.228,663.408 854.034,658.689 854.84,653.953 855.646,649.199 856.451,644.43 857.257,639.646 858.063,634.847 858.869,630.035 859.675,625.21 860.481,620.374 861.287,615.527 862.093,610.671 862.899,605.806 863.705,600.933 864.511,596.053 865.316,591.168 866.122,586.277 866.928,581.383 867.734,576.485 868.54,571.586 869.346,566.686 870.152,561.786 870.958,556.886 871.764,551.989 872.57,547.095 873.375,542.204 874.181,537.319 874.987,532.439 875.793,527.566 876.599,522.701 877.405,517.845 878.211,512.998 879.017,508.162 879.823,503.337 880.629,498.525 881.435,493.726 882.24,488.942 883.046,484.173 883.852,479.419 884.658,474.683 885.464,469.964 886.27,465.264 887.076,460.584 887.882,455.923 888.688,451.284 889.494,446.666 890.3,442.071 891.105,437.499 891.911,432.952 892.717,428.429 893.523,423.931 894.329,419.46 895.135,415.015 895.941,410.598 896.747,406.209 897.553,401.849 898.359,397.517 899.165,393.216 899.97,388.945 900.776,384.705 901.582,380.496 902.388,376.319 903.194,372.174 904,368.062 904.806,363.984 905.612,359.939 906.418,355.928 907.224,351.951 908.03,348.009 908.835,344.102 909.641,340.23 910.447,336.394 911.253,332.594 912.059,328.83 912.865,325.102 913.671,321.411 914.477,317.757 915.283,314.14 916.089,310.559 916.895,307.016 917.7,303.51 918.506,300.042 919.312,296.611 920.118,293.218 920.924,289.863 921.73,286.545 922.536,283.265 923.342,280.023 924.148,276.818 924.954,273.651 925.76,270.522 926.565,267.43 927.371,264.376 928.177,261.359 928.983,258.38 929.789,255.438 930.595,252.533 931.401,249.665 932.207,246.834 933.013,244.039 933.819,241.282 934.624,238.56 935.43,235.875 936.236,233.226 937.042,230.612 937.848,228.035 938.654,225.492 939.46,222.985 940.266,220.513 941.072,218.075 941.878,215.672 942.684,213.303 943.489,210.967 944.295,208.666 945.101,206.398 945.907,204.163 946.713,201.961 947.519,199.791 948.325,197.654 949.131,195.548 949.937,193.475 950.743,191.432 951.549,189.421 952.354,187.44 953.16,185.49 953.966,183.57 954.772,181.68 955.578,179.819 956.384,177.987 957.19,176.184 957.996,174.41 958.802,172.664 959.608,170.945 960.414,169.254 961.219,167.591 962.025,165.954 962.831,164.344 963.637,162.76 964.443,161.202 965.249,159.669 966.055,158.162 966.861,156.68 967.667,155.222 968.473,153.789 969.279,152.379 970.084,150.993 970.89,149.631 971.696,148.291 972.502,146.974 973.308,145.68 974.114,144.407 974.92,143.157 975.726,141.928 976.532,140.719 977.338,139.532 978.144,138.365 978.949,137.219 979.755,136.092 980.561,134.985 981.367,133.897 982.173,132.829 982.979,131.779 983.785,130.747 984.591,129.734 985.397,128.739 986.203,127.761 987.009,126.801 987.814,125.857 988.62,124.931 989.426,124.021 990.232,123.127 991.038,122.25 991.844,121.388 992.65,120.542 993.456,119.711 994.262,118.895 995.068,118.094 995.874,117.307 996.679,116.535 997.485,115.776 998.291,115.032 999.097,114.301 999.903,113.583 1000.71,112.879 1001.51,112.188 1002.32,111.509 1003.13,110.843 1003.93,110.189 1004.74,109.547 1005.54,108.917 1006.35,108.298 1007.16,107.692 1007.96,107.096 1008.77,106.511 1009.57,105.938 1010.38,105.375 1011.19,104.822 1011.99,104.28 1012.8,103.748 1013.6,103.226 1014.41,102.714 1015.22,102.211 1016.02,101.718 1016.83,101.234 1017.63,100.759 1018.44,100.293 1019.24,99.8356 1020.05,99.3871 1020.86,98.947 1021.66,98.5153 1022.47,98.0917 1023.27,97.6762 1024.08,97.2685 1024.89,96.8686 1025.69,96.4763 1026.5,96.0914 1027.3,95.7139 1028.11,95.3435 1028.92,94.9802 1029.72,94.6238 1030.53,94.2743 1031.33,93.9314 1032.14,93.595 1032.95,93.2651 1033.75,92.9415 1034.56,92.6241 1035.36,92.3128 1036.17,92.0074 1036.97,91.7079 1037.78,91.4142 1038.59,91.1261 1039.39,90.8435 1040.2,90.5664 1041,90.2946 1041.81,90.028 1042.62,89.7666 1043.42,89.5102 1044.23,89.2588 1045.03,89.0122 1045.84,88.7703 1046.65,88.5332 1047.45,88.3006 1048.26,88.0725 1049.06,87.8489 1049.87,87.6295 1050.68,87.4144 1051.48,87.2035 1052.29,86.9967 1053.09,86.7938 1053.9,86.5949 1054.7,86.3999 1055.51,86.2087 1056.32,86.0211 1057.12,85.8372 1057.93,85.6569 1058.73,85.4801 1059.54,85.3067 1060.35,85.1367 1061.15,84.97 1061.96,84.8066 1062.76,84.6463 1063.57,84.4892 1064.38,84.3351 1065.18,84.184 1065.99,84.0359 1066.79,83.8907 1067.6,83.7482 1068.41,83.6086 1069.21,83.4717 1070.02,83.3375 1070.82,83.2059 1071.63,83.0768 1072.43,82.9503 1073.24,82.8263 1074.05,82.7047 1074.85,82.5854 1075.66,82.4685 1076.46,82.3539 1077.27,82.2416 1078.08,82.1314 1078.88,82.0234 1079.69,81.9175 1080.49,81.8136 1081.3,81.7118 1082.11,81.6121 1082.91,81.5142 1083.72,81.4183 1084.52,81.3243 1085.33,81.2321 1086.14,81.1417 1086.94,81.0531 1087.75,80.9662 1088.55,80.881 1089.36,80.7975 1090.16,80.7157 1090.97,80.6354 1091.78,80.5567 1092.58,80.4796 1093.39,80.404 1094.19,80.3299 1095,80.2572 1095.81,80.186 1096.61,80.1161 1097.42,80.0477 1098.22,79.9805 1099.03,79.9147 1099.84,79.8502 1100.64,79.787 1101.45,79.725 1102.25,79.6642 1103.06,79.6046 1103.87,79.5462 1104.67,79.489 1105.48,79.4329 1106.28,79.3778 1107.09,79.3239 1107.89,79.271 1108.7,79.2192 1109.51,79.1684 1110.31,79.1186 1111.12,79.0697 1111.92,79.0219 1112.73,78.9749 1113.54,78.9289 1114.34,78.8838 1115.15,78.8396 1115.95,78.7963 1116.76,78.7538 1117.57,78.7122 1118.37,78.6713 1119.18,78.6313 1119.98,78.5921 1120.79,78.5536 1121.6,78.516 1122.4,78.479 1123.21,78.4428 1124.01,78.4073 1124.82,78.3725 1125.62,78.3383 1126.43,78.3049 1127.24,78.2721 1128.04,78.24 1128.85,78.2085 1129.65,78.1776 1130.46,78.1473 1131.27,78.1176 1132.07,78.0885 1132.88,78.06 1133.68,78.0321 1134.49,78.0047 1135.3,77.9778 1136.1,77.9515 1136.91,77.9257 1137.71,77.9004 1138.52,77.8756 1139.33,77.8513 1140.13,77.8274 1140.94,77.8041 1141.74,77.7812 1142.55,77.7587 1143.35,77.7367 1144.16,77.7152 1144.97,77.694 1145.77,77.6733 1146.58,77.653 1147.38,77.6331 1148.19,77.6136 1149,77.5944 1149.8,77.5757 1150.61,77.5573 1151.41,77.5393 1152.22,77.5216 1153.03,77.5043 1153.83,77.4873 1154.64,77.4707 1155.44,77.4544 1156.25,77.4384 1157.06,77.4227 1157.86,77.4073 1158.67,77.3923 1159.47,77.3775 1160.28,77.3631 1161.08,77.3489 1161.89,77.335 1162.7,77.3213 1163.5,77.308 1164.31,77.2949 1165.11,77.2821 1165.92,77.2695 1166.73,77.2572 1167.53,77.2451 1168.34,77.2332 1169.14,77.2216 1169.95,77.2102 1170.76,77.1991 1171.56,77.1881 1172.37,77.1774 1173.17,77.1669 1173.98,77.1566 1174.79,77.1465 1175.59,77.1366 1176.4,77.1269 1177.2,77.1174 1178.01,77.1081 1178.81,77.0989 1179.62,77.09 1180.43,77.0812 1181.23,77.0726 1182.04,77.0641 1182.84,77.0559 1183.65,77.0478 1184.46,77.0398 1185.26,77.032 1186.07,77.0244 1186.87,77.0169 1187.68,77.0096 1188.49,77.0024 1189.29,76.9953 1190.1,76.9884 1190.9,76.9817 1191.71,76.975 1192.52,76.9685 1193.32,76.9621 1194.13,76.9559 1194.93,76.9498 1195.74,76.9438 1196.54,76.9379 1197.35,76.9321 1198.16,76.9264 1198.96,76.9209 1199.77,76.9155 1200.57,76.9101 1201.38,76.9049 1202.19,76.8998 1202.99,76.8948 1203.8,76.8899 1204.6,76.885 1205.41,76.8803 1206.22,76.8757 1207.02,76.8711 1207.83,76.8667 1208.63,76.8623 1209.44,76.8581 1210.25,76.8539 1211.05,76.8498 1211.86,76.8457 1212.66,76.8418 1213.47,76.8379 1214.27,76.8341 1215.08,76.8304 1215.89,76.8268 1216.69,76.8232 1217.5,76.8197 1218.3,76.8163 1219.11,76.8129 1219.92,76.8096 1220.72,76.8064 1221.53,76.8032 1222.33,76.8001 1223.14,76.797 1223.95,76.7941 1224.75,76.7911 1225.56,76.7883 1226.36,76.7855 1227.17,76.7827 1227.97,76.78 1228.78,76.7774 1229.59,76.7748 1230.39,76.7722 1231.2,76.7697 1232,76.7673 1232.81,76.7649 1233.62,76.7626 1234.42,76.7602 1235.23,76.758 1236.03,76.7558 1236.84,76.7536 1237.65,76.7515 1238.45,76.7494 1239.26,76.7474 1240.06,76.7454 1240.87,76.7434 1241.68,76.7415 1242.48,76.7396 1243.29,76.7378 1244.09,76.736 1244.9,76.7342 1245.7,76.7324 1246.51,76.7307 1247.32,76.7291 1248.12,76.7274 1248.93,76.7258 1249.73,76.7242 1250.54,76.7227 1251.35,76.7212 1252.15,76.7197 1252.96,76.7183 1253.76,76.7168 1254.57,76.7154 1255.38,76.7141 1256.18,76.7127 1256.99,76.7114 1257.79,76.7101 1258.6,76.7089 1259.41,76.7076 1260.21,76.7064 1261.02,76.7052 1261.82,76.7041 1262.63,76.7029 1263.43,76.7018 1264.24,76.7007 1265.05,76.6996 1265.85,76.6986 1266.66,76.6975 1267.46,76.6965 1268.27,76.6955 1269.08,76.6946 1269.88,76.6936 1270.69,76.6927 1271.49,76.6917 1272.3,76.6908 1273.11,76.69 1273.91,76.6891 1274.72,76.6883 1275.52,76.6874 1276.33,76.6866 1277.14,76.6858 1277.94,76.685 1278.75,76.6843 1279.55,76.6835 1280.36,76.6828 1281.16,76.6821 1281.97,76.6814 1282.78,76.6807 1283.58,76.68 1284.39,76.6793 1285.19,76.6787 1286,76.678 1286.81,76.6774 1287.61,76.6768 1288.42,76.6762 1289.22,76.6756 1290.03,76.675 1290.84,76.6744 1291.64,76.6739 1292.45,76.6733 1293.25,76.6728 1294.06,76.6723 1294.87,76.6718 1295.67,76.6713 1296.48,76.6708 1297.28,76.6703 1298.09,76.6698 1298.89,76.6694 1299.7,76.6689 1300.51,76.6685 1301.31,76.668 1302.12,76.6676 1302.92,76.6672 1303.73,76.6668 1304.54,76.6663 1305.34,76.666 1306.15,76.6656 1306.95,76.6652 1307.76,76.6648 1308.57,76.6644 1309.37,76.6641 1310.18,76.6637 1310.98,76.6634 1311.79,76.6631 1312.6,76.6627 1313.4,76.6624 1314.21,76.6621 1315.01,76.6618 1315.82,76.6615 1316.62,76.6612 1317.43,76.6609 1318.24,76.6606 1319.04,76.6603 1319.85,76.66 1320.65,76.6598 1321.46,76.6595 1322.27,76.6592 1323.07,76.659 1323.88,76.6587 1324.68,76.6585 1325.49,76.6582 1326.3,76.658 1327.1,76.6578 1327.91,76.6575 1328.71,76.6573 1329.52,76.6571 1330.33,76.6569 1331.13,76.6567 1331.94,76.6565 1332.74,76.6563 1333.55,76.6561 1334.35,76.6559 1335.16,76.6557 1335.97,76.6555 1336.77,76.6553 1337.58,76.6552 1338.38,76.655 1339.19,76.6548 1340,76.6546 1340.8,76.6545 1341.61,76.6543 1342.41,76.6542 1343.22,76.654 1344.03,76.6539 1344.83,76.6537 1345.64,76.6536 1346.44,76.6534 1347.25,76.6533 1348.06,76.6531 1348.86,76.653 1349.67,76.6529 1350.47,76.6527 1351.28,76.6526 1352.08,76.6525 1352.89,76.6524 1353.7,76.6523 1354.5,76.6521 1355.31,76.652 1356.11,76.6519 1356.92,76.6518 1357.73,76.6517 1358.53,76.6516 1359.34,76.6515 1360.14,76.6514 1360.95,76.6513 1361.76,76.6512 1362.56,76.6511 1363.37,76.651 1364.17,76.6509 1364.98,76.6508 1365.79,76.6507 1366.59,76.6506 1367.4,76.6506 1368.2,76.6505 1369.01,76.6504 1369.81,76.6503 1370.62,76.6502 1371.43,76.6502 1372.23,76.6501 1373.04,76.65 1373.84,76.6499 1374.65,76.6499 1375.46,76.6498 1376.26,76.6497 1377.07,76.6497 1377.87,76.6496 1378.68,76.6495 1379.49,76.6495 1380.29,76.6494 1381.1,76.6493 1381.9,76.6493 1382.71,76.6492 1383.52,76.6492 1384.32,76.6491 1385.13,76.6491 1385.93,76.649 1386.74,76.649 1387.54,76.6489 1388.35,76.6489 1389.16,76.6488 1389.96,76.6488 1390.77,76.6487 1391.57,76.6487 1392.38,76.6486 1393.19,76.6486 1393.99,76.6485 1394.8,76.6485 1395.6,76.6484 1396.41,76.6484 1397.22,76.6484 1398.02,76.6483 1398.83,76.6483 1399.63,76.6482 1400.44,76.6482 1401.25,76.6482 1402.05,76.6481 1402.86,76.6481 1403.66,76.6481 1404.47,76.648 1405.27,76.648 1406.08,76.648 1406.89,76.6479 1407.69,76.6479 1408.5,76.6479 1409.3,76.6478 1410.11,76.6478 1410.92,76.6478 1411.72,76.6478 1412.53,76.6477 1413.33,76.6477 1414.14,76.6477 1414.95,76.6476 1415.75,76.6476 1416.56,76.6476 1417.36,76.6476 1418.17,76.6475 1418.98,76.6475 1419.78,76.6475 1420.59,76.6475 1421.39,76.6475 1422.2,76.6474 1423,76.6474 1423.81,76.6474 1424.62,76.6474 1425.42,76.6474 1426.23,76.6473 1427.03,76.6473 1427.84,76.6473 1428.65,76.6473 1429.45,76.6473 1430.26,76.6472 1431.06,76.6472 1431.87,76.6472 1432.68,76.6472 1433.48,76.6472 1434.29,76.6472 1435.09,76.6471 1435.9,76.6471 1436.71,76.6471 1437.51,76.6471 1438.32,76.6471 1439.12,76.6471 1439.93,76.647 1440.73,76.647 1441.54,76.647 1442.35,76.647 1443.15,76.647 1443.96,76.647 1444.76,76.647 1445.57,76.647 1446.38,76.6469 1447.18,76.6469 1447.99,76.6469 1448.79,76.6469 1449.6,76.6469 1450.41,76.6469 1451.21,76.6469 1452.02,76.6469 1452.82,76.6469 1453.63,76.6468 1454.44,76.6468 1455.24,76.6468 1456.05,76.6468 1456.85,76.6468 1457.66,76.6468 1458.46,76.6468 1459.27,76.6468 1460.08,76.6468 1460.88,76.6468 1461.69,76.6468 1462.49,76.6468 1463.3,76.6467 1464.11,76.6467 1464.91,76.6467 1465.72,76.6467 1466.52,76.6467 1467.33,76.6467 1468.14,76.6467 1468.94,76.6467 1469.75,76.6467 1470.55,76.6467 1471.36,76.6467 1472.17,76.6467 1472.97,76.6467 1473.78,76.6467 1474.58,76.6466 1475.39,76.6466 1476.19,76.6466 1477,76.6466 1477.81,76.6466 1478.61,76.6466 1479.42,76.6466 1480.22,76.6466 1481.03,76.6466 1481.84,76.6466 1482.64,76.6466 1483.45,76.6466 1484.25,76.6466 1485.06,76.6466 1485.87,76.6466 1486.67,76.6466 1487.48,76.6466 1488.28,76.6466 1489.09,76.6466 1489.9,76.6466 1490.7,76.6466 1491.51,76.6465 1492.31,76.6465 1493.12,76.6465 1493.92,76.6465 1494.73,76.6465 1495.54,76.6465 1496.34,76.6465 1497.15,76.6465 1497.95,76.6465 1498.76,76.6465 1499.57,76.6465 1500.37,76.6465 1501.18,76.6465 1501.98,76.6465 1502.79,76.6465 1503.6,76.6465 1504.4,76.6465 1505.21,76.6465 1506.01,76.6465 1506.82,76.6465 1507.63,76.6465 1508.43,76.6465 1509.24,76.6465 1510.04,76.6465 1510.85,76.6465 1511.65,76.6465 1512.46,76.6465 1513.27,76.6465 1514.07,76.6465 "/>
</svg>
