<?xml version="1.0" encoding="utf-8"?>
<svg xmlns="http://www.w3.org/2000/svg" xmlns:xlink="http://www.w3.org/1999/xlink" width="400" height="300" viewBox="0 0 1600 1200">
<defs>
  <clipPath id="clip700">
    <rect x="0" y="0" width="1600" height="1200"/>
  </clipPath>
</defs>
<path clip-path="url(#clip700)" d="M0 1200 L1600 1200 L1600 0 L0 0  Z" fill="#ffffff" fill-rule="evenodd" fill-opacity="1"/>
<defs>
  <clipPath id="clip701">
    <rect x="320" y="0" width="1121" height="1121"/>
  </clipPath>
</defs>
<path clip-path="url(#clip700)" d="M178.274 1086.13 L1552.76 1086.13 L1552.76 47.2441 L178.274 47.2441  Z" fill="#ffffff" fill-rule="evenodd" fill-opacity="1"/>
<defs>
  <clipPath id="clip702">
    <rect x="178" y="47" width="1375" height="1040"/>
  </clipPath>
</defs>
<polyline clip-path="url(#clip702)" style="stroke:#000000; stroke-linecap:round; stroke-linejoin:round; stroke-width:2; stroke-opacity:0.1; fill:none" points="379.26,1086.13 379.26,47.2441 "/>
<polyline clip-path="url(#clip702)" style="stroke:#000000; stroke-linecap:round; stroke-linejoin:round; stroke-width:2; stroke-opacity:0.1; fill:none" points="622.387,1086.13 622.387,47.2441 "/>
<polyline clip-path="url(#clip702)" style="stroke:#000000; stroke-linecap:round; stroke-linejoin:round; stroke-width:2; stroke-opacity:0.1; fill:none" points="865.515,1086.13 865.515,47.2441 "/>
<polyline clip-path="url(#clip702)" style="stroke:#000000; stroke-linecap:round; stroke-linejoin:round; stroke-width:2; stroke-opacity:0.1; fill:none" points="1108.64,1086.13 1108.64,47.2441 "/>
<polyline clip-path="url(#clip702)" style="stroke:#000000; stroke-linecap:round; stroke-linejoin:round; stroke-width:2; stroke-opacity:0.1; fill:none" points="1351.77,1086.13 1351.77,47.2441 "/>
<polyline clip-path="url(#clip702)" style="stroke:#000000; stroke-linecap:round; stroke-linejoin:round; stroke-width:2; stroke-opacity:0.1; fill:none" points="178.274,1056.73 1552.76,1056.73 "/>
<polyline clip-path="url(#clip702)" style="stroke:#000000; stroke-linecap:round; stroke-linejoin:round; stroke-width:2; stroke-opacity:0.1; fill:none" points="178.274,811.706 1552.76,811.706 "/>
<polyline clip-path="url(#clip702)" style="stroke:#000000; stroke-linecap:round; stroke-linejoin:round; stroke-width:2; stroke-opacity:0.1; fill:none" points="178.274,566.686 1552.76,566.686 "/>
<polyline clip-path="url(#clip702)" style="stroke:#000000; stroke-linecap:round; stroke-linejoin:round; stroke-width:2; stroke-opacity:0.1; fill:none" points="178.274,321.666 1552.76,321.666 "/>
<polyline clip-path="url(#clip702)" style="stroke:#000000; stroke-linecap:round; stroke-linejoin:round; stroke-width:2; stroke-opacity:0.1; fill:none" points="178.274,76.6465 1552.76,76.6465 "/>
<polyline clip-path="url(#clip700)" style="stroke:#000000; stroke-linecap:round; stroke-linejoin:round; stroke-width:4; stroke-opacity:1; fill:none" points="178.274,1086.13 1552.76,1086.13 "/>
<polyline clip-path="url(#clip700)" style="stroke:#000000; stroke-linecap:round; stroke-linejoin:round; stroke-width:4; stroke-opacity:1; fill:none" points="379.26,1086.13 379.26,1067.23 "/>
<polyline clip-path="url(#clip700)" style="stroke:#000000; stroke-linecap:round; stroke-linejoin:round; stroke-width:4; stroke-opacity:1; fill:none" points="622.387,1086.13 622.387,1067.23 "/>
<polyline clip-path="url(#clip700)" style="stroke:#000000; stroke-linecap:round; stroke-linejoin:round; stroke-width:4; stroke-opacity:1; fill:none" points="865.515,1086.13 865.515,1067.23 "/>
<polyline clip-path="url(#clip700)" style="stroke:#000000; stroke-linecap:round; stroke-linejoin:round; stroke-width:4; stroke-opacity:1; fill:none" points="1108.64,1086.13 1108.64,1067.23 "/>
<polyline clip-path="url(#clip700)" style="stroke:#000000; stroke-linecap:round; stroke-linejoin:round; stroke-width:4; stroke-opacity:1; fill:none" points="1351.77,1086.13 1351.77,1067.23 "/>
<path clip-path="url(#clip700)" d="M348.322 1125.3 L377.998 1125.3 L377.998 1129.23 L348.322 1129.23 L348.322 1125.3 Z" fill="#000000" fill-rule="nonzero" fill-opacity="1" /><path clip-path="url(#clip700)" d="M398.669 1122.98 Q395.521 1122.98 393.669 1125.14 Q391.841 1127.29 391.841 1131.04 Q391.841 1134.77 393.669 1136.94 Q395.521 1139.1 398.669 1139.1 Q401.817 1139.1 403.646 1136.94 Q405.498 1134.77 405.498 1131.04 Q405.498 1127.29 403.646 1125.14 Q401.817 1122.98 398.669 1122.98 M407.952 1108.33 L407.952 1112.59 Q406.192 1111.76 404.387 1111.32 Q402.604 1110.88 400.845 1110.88 Q396.215 1110.88 393.762 1114 Q391.331 1117.13 390.984 1123.45 Q392.35 1121.43 394.41 1120.37 Q396.47 1119.28 398.947 1119.28 Q404.155 1119.28 407.165 1122.45 Q410.197 1125.6 410.197 1131.04 Q410.197 1136.36 407.049 1139.58 Q403.901 1142.8 398.669 1142.8 Q392.674 1142.8 389.503 1138.22 Q386.331 1133.61 386.331 1124.88 Q386.331 1116.69 390.22 1111.83 Q394.109 1106.94 400.66 1106.94 Q402.419 1106.94 404.202 1107.29 Q406.007 1107.64 407.952 1108.33 Z" fill="#000000" fill-rule="nonzero" fill-opacity="1" /><path clip-path="url(#clip700)" d="M591.855 1125.3 L621.531 1125.3 L621.531 1129.23 L591.855 1129.23 L591.855 1125.3 Z" fill="#000000" fill-rule="nonzero" fill-opacity="1" /><path clip-path="url(#clip700)" d="M645.79 1123.49 Q649.146 1124.21 651.021 1126.48 Q652.92 1128.75 652.92 1132.08 Q652.92 1137.2 649.401 1140 Q645.883 1142.8 639.401 1142.8 Q637.225 1142.8 634.91 1142.36 Q632.619 1141.94 630.165 1141.09 L630.165 1136.57 Q632.109 1137.71 634.424 1138.29 Q636.739 1138.86 639.262 1138.86 Q643.66 1138.86 645.952 1137.13 Q648.267 1135.39 648.267 1132.08 Q648.267 1129.03 646.114 1127.31 Q643.984 1125.58 640.165 1125.58 L636.137 1125.58 L636.137 1121.73 L640.35 1121.73 Q643.799 1121.73 645.628 1120.37 Q647.457 1118.98 647.457 1116.39 Q647.457 1113.73 645.558 1112.31 Q643.683 1110.88 640.165 1110.88 Q638.244 1110.88 636.045 1111.29 Q633.846 1111.71 631.207 1112.59 L631.207 1108.42 Q633.869 1107.68 636.183 1107.31 Q638.521 1106.94 640.582 1106.94 Q645.906 1106.94 649.007 1109.37 Q652.109 1111.78 652.109 1115.9 Q652.109 1118.77 650.466 1120.76 Q648.822 1122.73 645.79 1123.49 Z" fill="#000000" fill-rule="nonzero" fill-opacity="1" /><path clip-path="url(#clip700)" d="M865.515 1110.65 Q861.904 1110.65 860.075 1114.21 Q858.27 1117.75 858.27 1124.88 Q858.27 1131.99 860.075 1135.55 Q861.904 1139.1 865.515 1139.1 Q869.149 1139.1 870.955 1135.55 Q872.783 1131.99 872.783 1124.88 Q872.783 1117.75 870.955 1114.21 Q869.149 1110.65 865.515 1110.65 M865.515 1106.94 Q871.325 1106.94 874.381 1111.55 Q877.459 1116.13 877.459 1124.88 Q877.459 1133.61 874.381 1138.22 Q871.325 1142.8 865.515 1142.8 Q859.705 1142.8 856.626 1138.22 Q853.571 1133.61 853.571 1124.88 Q853.571 1116.13 856.626 1111.55 Q859.705 1106.94 865.515 1106.94 Z" fill="#000000" fill-rule="nonzero" fill-opacity="1" /><path clip-path="url(#clip700)" d="M1112.89 1123.49 Q1116.25 1124.21 1118.12 1126.48 Q1120.02 1128.75 1120.02 1132.08 Q1120.02 1137.2 1116.5 1140 Q1112.98 1142.8 1106.5 1142.8 Q1104.33 1142.8 1102.01 1142.36 Q1099.72 1141.94 1097.27 1141.09 L1097.27 1136.57 Q1099.21 1137.71 1101.52 1138.29 Q1103.84 1138.86 1106.36 1138.86 Q1110.76 1138.86 1113.05 1137.13 Q1115.37 1135.39 1115.37 1132.08 Q1115.37 1129.03 1113.21 1127.31 Q1111.08 1125.58 1107.27 1125.58 L1103.24 1125.58 L1103.24 1121.73 L1107.45 1121.73 Q1110.9 1121.73 1112.73 1120.37 Q1114.56 1118.98 1114.56 1116.39 Q1114.56 1113.73 1112.66 1112.31 Q1110.78 1110.88 1107.27 1110.88 Q1105.34 1110.88 1103.14 1111.29 Q1100.95 1111.71 1098.31 1112.59 L1098.31 1108.42 Q1100.97 1107.68 1103.28 1107.31 Q1105.62 1106.94 1107.68 1106.94 Q1113.01 1106.94 1116.11 1109.37 Q1119.21 1111.78 1119.21 1115.9 Q1119.21 1118.77 1117.57 1120.76 Q1115.92 1122.73 1112.89 1123.49 Z" fill="#000000" fill-rule="nonzero" fill-opacity="1" /><path clip-path="url(#clip700)" d="M1352.18 1122.98 Q1349.03 1122.98 1347.18 1125.14 Q1345.35 1127.29 1345.35 1131.04 Q1345.35 1134.77 1347.18 1136.94 Q1349.03 1139.1 1352.18 1139.1 Q1355.32 1139.1 1357.15 1136.94 Q1359 1134.77 1359 1131.04 Q1359 1127.29 1357.15 1125.14 Q1355.32 1122.98 1352.18 1122.98 M1361.46 1108.33 L1361.46 1112.59 Q1359.7 1111.76 1357.89 1111.32 Q1356.11 1110.88 1354.35 1110.88 Q1349.72 1110.88 1347.27 1114 Q1344.84 1117.13 1344.49 1123.45 Q1345.86 1121.43 1347.92 1120.37 Q1349.98 1119.28 1352.45 1119.28 Q1357.66 1119.28 1360.67 1122.45 Q1363.7 1125.6 1363.7 1131.04 Q1363.7 1136.36 1360.56 1139.58 Q1357.41 1142.8 1352.18 1142.8 Q1346.18 1142.8 1343.01 1138.22 Q1339.84 1133.61 1339.84 1124.88 Q1339.84 1116.69 1343.73 1111.83 Q1347.62 1106.94 1354.17 1106.94 Q1355.93 1106.94 1357.71 1107.29 Q1359.51 1107.64 1361.46 1108.33 Z" fill="#000000" fill-rule="nonzero" fill-opacity="1" /><polyline clip-path="url(#clip700)" style="stroke:#000000; stroke-linecap:round; stroke-linejoin:round; stroke-width:4; stroke-opacity:1; fill:none" points="178.274,1086.13 178.274,47.2441 "/>
<polyline clip-path="url(#clip700)" style="stroke:#000000; stroke-linecap:round; stroke-linejoin:round; stroke-width:4; stroke-opacity:1; fill:none" points="178.274,1056.73 197.172,1056.73 "/>
<polyline clip-path="url(#clip700)" style="stroke:#000000; stroke-linecap:round; stroke-linejoin:round; stroke-width:4; stroke-opacity:1; fill:none" points="178.274,811.706 197.172,811.706 "/>
<polyline clip-path="url(#clip700)" style="stroke:#000000; stroke-linecap:round; stroke-linejoin:round; stroke-width:4; stroke-opacity:1; fill:none" points="178.274,566.686 197.172,566.686 "/>
<polyline clip-path="url(#clip700)" style="stroke:#000000; stroke-linecap:round; stroke-linejoin:round; stroke-width:4; stroke-opacity:1; fill:none" points="178.274,321.666 197.172,321.666 "/>
<polyline clip-path="url(#clip700)" style="stroke:#000000; stroke-linecap:round; stroke-linejoin:round; stroke-width:4; stroke-opacity:1; fill:none" points="178.274,76.6465 197.172,76.6465 "/>
<path clip-path="url(#clip700)" d="M66.9365 1042.52 Q63.3254 1042.52 61.4967 1046.09 Q59.6912 1049.63 59.6912 1056.76 Q59.6912 1063.87 61.4967 1067.43 Q63.3254 1070.97 66.9365 1070.97 Q70.5707 1070.97 72.3763 1067.43 Q74.205 1063.87 74.205 1056.76 Q74.205 1049.63 72.3763 1046.09 Q70.5707 1042.52 66.9365 1042.52 M66.9365 1038.82 Q72.7467 1038.82 75.8022 1043.43 Q78.8809 1048.01 78.8809 1056.76 Q78.8809 1065.49 75.8022 1070.09 Q72.7467 1074.68 66.9365 1074.68 Q61.1264 1074.68 58.0477 1070.09 Q54.9921 1065.49 54.9921 1056.76 Q54.9921 1048.01 58.0477 1043.43 Q61.1264 1038.82 66.9365 1038.82 Z" fill="#000000" fill-rule="nonzero" fill-opacity="1" /><path clip-path="url(#clip700)" d="M87.0984 1068.13 L91.9827 1068.13 L91.9827 1074.01 L87.0984 1074.01 L87.0984 1068.13 Z" fill="#000000" fill-rule="nonzero" fill-opacity="1" /><path clip-path="url(#clip700)" d="M112.168 1042.52 Q108.557 1042.52 106.728 1046.09 Q104.922 1049.63 104.922 1056.76 Q104.922 1063.87 106.728 1067.43 Q108.557 1070.97 112.168 1070.97 Q115.802 1070.97 117.608 1067.43 Q119.436 1063.87 119.436 1056.76 Q119.436 1049.63 117.608 1046.09 Q115.802 1042.52 112.168 1042.52 M112.168 1038.82 Q117.978 1038.82 121.033 1043.43 Q124.112 1048.01 124.112 1056.76 Q124.112 1065.49 121.033 1070.09 Q117.978 1074.68 112.168 1074.68 Q106.358 1074.68 103.279 1070.09 Q100.223 1065.49 100.223 1056.76 Q100.223 1048.01 103.279 1043.43 Q106.358 1038.82 112.168 1038.82 Z" fill="#000000" fill-rule="nonzero" fill-opacity="1" /><path clip-path="url(#clip700)" d="M142.33 1042.52 Q138.719 1042.52 136.89 1046.09 Q135.084 1049.63 135.084 1056.76 Q135.084 1063.87 136.89 1067.43 Q138.719 1070.97 142.33 1070.97 Q145.964 1070.97 147.769 1067.43 Q149.598 1063.87 149.598 1056.76 Q149.598 1049.63 147.769 1046.09 Q145.964 1042.52 142.33 1042.52 M142.33 1038.82 Q148.14 1038.82 151.195 1043.43 Q154.274 1048.01 154.274 1056.76 Q154.274 1065.49 151.195 1070.09 Q148.14 1074.68 142.33 1074.68 Q136.519 1074.68 133.441 1070.09 Q130.385 1065.49 130.385 1056.76 Q130.385 1048.01 133.441 1043.43 Q136.519 1038.82 142.33 1038.82 Z" fill="#000000" fill-rule="nonzero" fill-opacity="1" /><path clip-path="url(#clip700)" d="M67.9319 797.505 Q64.3208 797.505 62.4921 801.07 Q60.6865 804.611 60.6865 811.741 Q60.6865 818.847 62.4921 822.412 Q64.3208 825.954 67.9319 825.954 Q71.5661 825.954 73.3717 822.412 Q75.2004 818.847 75.2004 811.741 Q75.2004 804.611 73.3717 801.07 Q71.5661 797.505 67.9319 797.505 M67.9319 793.801 Q73.742 793.801 76.7976 798.408 Q79.8763 802.991 79.8763 811.741 Q79.8763 820.468 76.7976 825.074 Q73.742 829.657 67.9319 829.657 Q62.1217 829.657 59.043 825.074 Q55.9875 820.468 55.9875 811.741 Q55.9875 802.991 59.043 798.408 Q62.1217 793.801 67.9319 793.801 Z" fill="#000000" fill-rule="nonzero" fill-opacity="1" /><path clip-path="url(#clip700)" d="M88.0938 823.106 L92.978 823.106 L92.978 828.986 L88.0938 828.986 L88.0938 823.106 Z" fill="#000000" fill-rule="nonzero" fill-opacity="1" /><path clip-path="url(#clip700)" d="M107.191 825.051 L123.51 825.051 L123.51 828.986 L101.566 828.986 L101.566 825.051 Q104.228 822.296 108.811 817.667 Q113.418 813.014 114.598 811.671 Q116.844 809.148 117.723 807.412 Q118.626 805.653 118.626 803.963 Q118.626 801.208 116.682 799.472 Q114.76 797.736 111.658 797.736 Q109.459 797.736 107.006 798.5 Q104.575 799.264 101.797 800.815 L101.797 796.093 Q104.621 794.958 107.075 794.38 Q109.529 793.801 111.566 793.801 Q116.936 793.801 120.131 796.486 Q123.325 799.171 123.325 803.662 Q123.325 805.792 122.515 807.713 Q121.728 809.611 119.621 812.204 Q119.043 812.875 115.941 816.093 Q112.839 819.287 107.191 825.051 Z" fill="#000000" fill-rule="nonzero" fill-opacity="1" /><path clip-path="url(#clip700)" d="M133.371 794.426 L151.728 794.426 L151.728 798.361 L137.654 798.361 L137.654 806.833 Q138.672 806.486 139.691 806.324 Q140.709 806.139 141.728 806.139 Q147.515 806.139 150.894 809.31 Q154.274 812.482 154.274 817.898 Q154.274 823.477 150.802 826.579 Q147.33 829.657 141.01 829.657 Q138.834 829.657 136.566 829.287 Q134.32 828.917 131.913 828.176 L131.913 823.477 Q133.996 824.611 136.219 825.167 Q138.441 825.722 140.918 825.722 Q144.922 825.722 147.26 823.616 Q149.598 821.509 149.598 817.898 Q149.598 814.287 147.26 812.181 Q144.922 810.074 140.918 810.074 Q139.043 810.074 137.168 810.491 Q135.316 810.907 133.371 811.787 L133.371 794.426 Z" fill="#000000" fill-rule="nonzero" fill-opacity="1" /><path clip-path="url(#clip700)" d="M66.9365 552.485 Q63.3254 552.485 61.4967 556.05 Q59.6912 559.591 59.6912 566.721 Q59.6912 573.827 61.4967 577.392 Q63.3254 580.934 66.9365 580.934 Q70.5707 580.934 72.3763 577.392 Q74.205 573.827 74.205 566.721 Q74.205 559.591 72.3763 556.05 Q70.5707 552.485 66.9365 552.485 M66.9365 548.781 Q72.7467 548.781 75.8022 553.388 Q78.8809 557.971 78.8809 566.721 Q78.8809 575.448 75.8022 580.054 Q72.7467 584.637 66.9365 584.637 Q61.1264 584.637 58.0477 580.054 Q54.9921 575.448 54.9921 566.721 Q54.9921 557.971 58.0477 553.388 Q61.1264 548.781 66.9365 548.781 Z" fill="#000000" fill-rule="nonzero" fill-opacity="1" /><path clip-path="url(#clip700)" d="M87.0984 578.087 L91.9827 578.087 L91.9827 583.966 L87.0984 583.966 L87.0984 578.087 Z" fill="#000000" fill-rule="nonzero" fill-opacity="1" /><path clip-path="url(#clip700)" d="M102.214 549.406 L120.57 549.406 L120.57 553.341 L106.496 553.341 L106.496 561.814 Q107.515 561.466 108.534 561.304 Q109.552 561.119 110.571 561.119 Q116.358 561.119 119.737 564.29 Q123.117 567.462 123.117 572.878 Q123.117 578.457 119.645 581.559 Q116.172 584.637 109.853 584.637 Q107.677 584.637 105.409 584.267 Q103.163 583.897 100.756 583.156 L100.756 578.457 Q102.839 579.591 105.061 580.147 Q107.284 580.702 109.76 580.702 Q113.765 580.702 116.103 578.596 Q118.441 576.489 118.441 572.878 Q118.441 569.267 116.103 567.161 Q113.765 565.054 109.76 565.054 Q107.885 565.054 106.01 565.471 Q104.159 565.888 102.214 566.767 L102.214 549.406 Z" fill="#000000" fill-rule="nonzero" fill-opacity="1" /><path clip-path="url(#clip700)" d="M142.33 552.485 Q138.719 552.485 136.89 556.05 Q135.084 559.591 135.084 566.721 Q135.084 573.827 136.89 577.392 Q138.719 580.934 142.33 580.934 Q145.964 580.934 147.769 577.392 Q149.598 573.827 149.598 566.721 Q149.598 559.591 147.769 556.05 Q145.964 552.485 142.33 552.485 M142.33 548.781 Q148.14 548.781 151.195 553.388 Q154.274 557.971 154.274 566.721 Q154.274 575.448 151.195 580.054 Q148.14 584.637 142.33 584.637 Q136.519 584.637 133.441 580.054 Q130.385 575.448 130.385 566.721 Q130.385 557.971 133.441 553.388 Q136.519 548.781 142.33 548.781 Z" fill="#000000" fill-rule="nonzero" fill-opacity="1" /><path clip-path="url(#clip700)" d="M67.9319 307.465 Q64.3208 307.465 62.4921 311.03 Q60.6865 314.571 60.6865 321.701 Q60.6865 328.808 62.4921 332.372 Q64.3208 335.914 67.9319 335.914 Q71.5661 335.914 73.3717 332.372 Q75.2004 328.808 75.2004 321.701 Q75.2004 314.571 73.3717 311.03 Q71.5661 307.465 67.9319 307.465 M67.9319 303.761 Q73.742 303.761 76.7976 308.368 Q79.8763 312.951 79.8763 321.701 Q79.8763 330.428 76.7976 335.034 Q73.742 339.618 67.9319 339.618 Q62.1217 339.618 59.043 335.034 Q55.9875 330.428 55.9875 321.701 Q55.9875 312.951 59.043 308.368 Q62.1217 303.761 67.9319 303.761 Z" fill="#000000" fill-rule="nonzero" fill-opacity="1" /><path clip-path="url(#clip700)" d="M88.0938 333.067 L92.978 333.067 L92.978 338.946 L88.0938 338.946 L88.0938 333.067 Z" fill="#000000" fill-rule="nonzero" fill-opacity="1" /><path clip-path="url(#clip700)" d="M101.983 304.386 L124.205 304.386 L124.205 306.377 L111.658 338.946 L106.774 338.946 L118.58 308.321 L101.983 308.321 L101.983 304.386 Z" fill="#000000" fill-rule="nonzero" fill-opacity="1" /><path clip-path="url(#clip700)" d="M133.371 304.386 L151.728 304.386 L151.728 308.321 L137.654 308.321 L137.654 316.794 Q138.672 316.446 139.691 316.284 Q140.709 316.099 141.728 316.099 Q147.515 316.099 150.894 319.271 Q154.274 322.442 154.274 327.858 Q154.274 333.437 150.802 336.539 Q147.33 339.618 141.01 339.618 Q138.834 339.618 136.566 339.247 Q134.32 338.877 131.913 338.136 L131.913 333.437 Q133.996 334.571 136.219 335.127 Q138.441 335.682 140.918 335.682 Q144.922 335.682 147.26 333.576 Q149.598 331.47 149.598 327.858 Q149.598 324.247 147.26 322.141 Q144.922 320.034 140.918 320.034 Q139.043 320.034 137.168 320.451 Q135.316 320.868 133.371 321.747 L133.371 304.386 Z" fill="#000000" fill-rule="nonzero" fill-opacity="1" /><path clip-path="url(#clip700)" d="M57.7467 89.9913 L65.3856 89.9913 L65.3856 63.6257 L57.0754 65.2924 L57.0754 61.0331 L65.3393 59.3665 L70.0152 59.3665 L70.0152 89.9913 L77.654 89.9913 L77.654 93.9265 L57.7467 93.9265 L57.7467 89.9913 Z" fill="#000000" fill-rule="nonzero" fill-opacity="1" /><path clip-path="url(#clip700)" d="M87.0984 88.0469 L91.9827 88.0469 L91.9827 93.9265 L87.0984 93.9265 L87.0984 88.0469 Z" fill="#000000" fill-rule="nonzero" fill-opacity="1" /><path clip-path="url(#clip700)" d="M112.168 62.4452 Q108.557 62.4452 106.728 66.0099 Q104.922 69.5516 104.922 76.6812 Q104.922 83.7876 106.728 87.3524 Q108.557 90.8941 112.168 90.8941 Q115.802 90.8941 117.608 87.3524 Q119.436 83.7876 119.436 76.6812 Q119.436 69.5516 117.608 66.0099 Q115.802 62.4452 112.168 62.4452 M112.168 58.7415 Q117.978 58.7415 121.033 63.3479 Q124.112 67.9312 124.112 76.6812 Q124.112 85.408 121.033 90.0144 Q117.978 94.5978 112.168 94.5978 Q106.358 94.5978 103.279 90.0144 Q100.223 85.408 100.223 76.6812 Q100.223 67.9312 103.279 63.3479 Q106.358 58.7415 112.168 58.7415 Z" fill="#000000" fill-rule="nonzero" fill-opacity="1" /><path clip-path="url(#clip700)" d="M142.33 62.4452 Q138.719 62.4452 136.89 66.0099 Q135.084 69.5516 135.084 76.6812 Q135.084 83.7876 136.89 87.3524 Q138.719 90.8941 142.33 90.8941 Q145.964 90.8941 147.769 87.3524 Q149.598 83.7876 149.598 76.6812 Q149.598 69.5516 147.769 66.0099 Q145.964 62.4452 142.33 62.4452 M142.33 58.7415 Q148.14 58.7415 151.195 63.3479 Q154.274 67.9312 154.274 76.6812 Q154.274 85.408 151.195 90.0144 Q148.14 94.5978 142.33 94.5978 Q136.519 94.5978 133.441 90.0144 Q130.385 85.408 130.385 76.6812 Q130.385 67.9312 133.441 63.3479 Q136.519 58.7415 142.33 58.7415 Z" fill="#000000" fill-rule="nonzero" fill-opacity="1" /><polyline clip-path="url(#clip702)" style="stroke:#009af9; stroke-linecap:round; stroke-linejoin:round; stroke-width:4; stroke-opacity:1; fill:none" points="217.174,1056.73 217.985,1056.73 218.795,1056.73 219.606,1056.73 220.416,1056.73 221.227,1056.73 222.037,1056.73 222.847,1056.73 223.658,1056.73 224.468,1056.73 225.279,1056.73 226.089,1056.73 226.9,1056.73 227.71,1056.73 228.52,1056.73 229.331,1056.73 230.141,1056.73 230.952,1056.73 231.762,1056.73 232.573,1056.73 233.383,1056.73 234.193,1056.73 235.004,1056.73 235.814,1056.73 236.625,1056.73 237.435,1056.73 238.245,1056.73 239.056,1056.73 239.866,1056.73 240.677,1056.73 241.487,1056.73 242.298,1056.73 243.108,1056.73 243.918,1056.73 244.729,1056.73 245.539,1056.73 246.35,1056.73 247.16,1056.73 247.971,1056.73 248.781,1056.72 249.591,1056.72 250.402,1056.72 251.212,1056.72 252.023,1056.72 252.833,1056.72 253.644,1056.72 254.454,1056.72 255.264,1056.72 256.075,1056.72 256.885,1056.72 257.696,1056.72 258.506,1056.72 259.317,1056.72 260.127,1056.72 260.937,1056.72 261.748,1056.72 262.558,1056.72 263.369,1056.72 264.179,1056.72 264.99,1056.72 265.8,1056.72 266.61,1056.72 267.421,1056.72 268.231,1056.72 269.042,1056.72 269.852,1056.72 270.663,1056.72 271.473,1056.72 272.283,1056.72 273.094,1056.72 273.904,1056.72 274.715,1056.72 275.525,1056.72 276.336,1056.72 277.146,1056.72 277.956,1056.72 278.767,1056.72 279.577,1056.72 280.388,1056.72 281.198,1056.72 282.008,1056.72 282.819,1056.72 283.629,1056.72 284.44,1056.72 285.25,1056.72 286.061,1056.72 286.871,1056.72 287.681,1056.72 288.492,1056.72 289.302,1056.72 290.113,1056.72 290.923,1056.72 291.734,1056.72 292.544,1056.72 293.354,1056.72 294.165,1056.72 294.975,1056.72 295.786,1056.72 296.596,1056.72 297.407,1056.72 298.217,1056.72 299.027,1056.72 299.838,1056.72 300.648,1056.72 301.459,1056.72 302.269,1056.72 303.08,1056.72 303.89,1056.72 304.7,1056.72 305.511,1056.72 306.321,1056.72 307.132,1056.72 307.942,1056.72 308.753,1056.72 309.563,1056.72 310.373,1056.72 311.184,1056.72 311.994,1056.72 312.805,1056.72 313.615,1056.72 314.426,1056.72 315.236,1056.72 316.046,1056.72 316.857,1056.72 317.667,1056.72 318.478,1056.72 319.288,1056.72 320.098,1056.72 320.909,1056.72 321.719,1056.72 322.53,1056.72 323.34,1056.72 324.151,1056.72 324.961,1056.72 325.771,1056.72 326.582,1056.72 327.392,1056.72 328.203,1056.72 329.013,1056.72 329.824,1056.72 330.634,1056.72 331.444,1056.72 332.255,1056.72 333.065,1056.72 333.876,1056.72 334.686,1056.72 335.497,1056.72 336.307,1056.72 337.117,1056.72 337.928,1056.72 338.738,1056.72 339.549,1056.72 340.359,1056.72 341.17,1056.72 341.98,1056.72 342.79,1056.72 343.601,1056.72 344.411,1056.72 345.222,1056.72 346.032,1056.72 346.843,1056.72 347.653,1056.71 348.463,1056.71 349.274,1056.71 350.084,1056.71 350.895,1056.71 351.705,1056.71 352.516,1056.71 353.326,1056.71 354.136,1056.71 354.947,1056.71 355.757,1056.71 356.568,1056.71 357.378,1056.71 358.188,1056.71 358.999,1056.71 359.809,1056.71 360.62,1056.71 361.43,1056.71 362.241,1056.71 363.051,1056.71 363.861,1056.71 364.672,1056.71 365.482,1056.71 366.293,1056.71 367.103,1056.71 367.914,1056.71 368.724,1056.71 369.534,1056.71 370.345,1056.71 371.155,1056.71 371.966,1056.71 372.776,1056.71 373.587,1056.71 374.397,1056.7 375.207,1056.7 376.018,1056.7 376.828,1056.7 377.639,1056.7 378.449,1056.7 379.26,1056.7 380.07,1056.7 380.88,1056.7 381.691,1056.7 382.501,1056.7 383.312,1056.7 384.122,1056.7 384.933,1056.7 385.743,1056.7 386.553,1056.7 387.364,1056.7 388.174,1056.7 388.985,1056.7 389.795,1056.69 390.606,1056.69 391.416,1056.69 392.226,1056.69 393.037,1056.69 393.847,1056.69 394.658,1056.69 395.468,1056.69 396.279,1056.69 397.089,1056.69 397.899,1056.69 398.71,1056.69 399.52,1056.69 400.331,1056.69 401.141,1056.68 401.951,1056.68 402.762,1056.68 403.572,1056.68 404.383,1056.68 405.193,1056.68 406.004,1056.68 406.814,1056.68 407.624,1056.68 408.435,1056.68 409.245,1056.68 410.056,1056.67 410.866,1056.67 411.677,1056.67 412.487,1056.67 413.297,1056.67 414.108,1056.67 414.918,1056.67 415.729,1056.67 416.539,1056.67 417.35,1056.66 418.16,1056.66 418.97,1056.66 419.781,1056.66 420.591,1056.66 421.402,1056.66 422.212,1056.66 423.023,1056.66 423.833,1056.65 424.643,1056.65 425.454,1056.65 426.264,1056.65 427.075,1056.65 427.885,1056.65 428.696,1056.64 429.506,1056.64 430.316,1056.64 431.127,1056.64 431.937,1056.64 432.748,1056.64 433.558,1056.63 434.369,1056.63 435.179,1056.63 435.989,1056.63 436.8,1056.63 437.61,1056.62 438.421,1056.62 439.231,1056.62 440.041,1056.62 440.852,1056.62 441.662,1056.61 442.473,1056.61 443.283,1056.61 444.094,1056.61 444.904,1056.6 445.714,1056.6 446.525,1056.6 447.335,1056.6 448.146,1056.59 448.956,1056.59 449.767,1056.59 450.577,1056.59 451.387,1056.58 452.198,1056.58 453.008,1056.58 453.819,1056.57 454.629,1056.57 455.44,1056.57 456.25,1056.56 457.06,1056.56 457.871,1056.56 458.681,1056.55 459.492,1056.55 460.302,1056.55 461.113,1056.54 461.923,1056.54 462.733,1056.54 463.544,1056.53 464.354,1056.53 465.165,1056.53 465.975,1056.52 466.786,1056.52 467.596,1056.51 468.406,1056.51 469.217,1056.5 470.027,1056.5 470.838,1056.5 471.648,1056.49 472.459,1056.49 473.269,1056.48 474.079,1056.48 474.89,1056.47 475.7,1056.47 476.511,1056.46 477.321,1056.46 478.131,1056.45 478.942,1056.44 479.752,1056.44 480.563,1056.43 481.373,1056.43 482.184,1056.42 482.994,1056.41 483.804,1056.41 484.615,1056.4 485.425,1056.4 486.236,1056.39 487.046,1056.38 487.857,1056.37 488.667,1056.37 489.477,1056.36 490.288,1056.35 491.098,1056.35 491.909,1056.34 492.719,1056.33 493.53,1056.32 494.34,1056.31 495.15,1056.31 495.961,1056.3 496.771,1056.29 497.582,1056.28 498.392,1056.27 499.203,1056.26 500.013,1056.25 500.823,1056.24 501.634,1056.23 502.444,1056.22 503.255,1056.21 504.065,1056.2 504.876,1056.19 505.686,1056.18 506.496,1056.17 507.307,1056.16 508.117,1056.15 508.928,1056.14 509.738,1056.12 510.549,1056.11 511.359,1056.1 512.169,1056.09 512.98,1056.07 513.79,1056.06 514.601,1056.05 515.411,1056.03 516.221,1056.02 517.032,1056 517.842,1055.99 518.653,1055.98 519.463,1055.96 520.274,1055.94 521.084,1055.93 521.894,1055.91 522.705,1055.9 523.515,1055.88 524.326,1055.86 525.136,1055.84 525.947,1055.83 526.757,1055.81 527.567,1055.79 528.378,1055.77 529.188,1055.75 529.999,1055.73 530.809,1055.71 531.62,1055.69 532.43,1055.67 533.24,1055.65 534.051,1055.63 534.861,1055.61 535.672,1055.58 536.482,1055.56 537.293,1055.54 538.103,1055.51 538.913,1055.49 539.724,1055.46 540.534,1055.44 541.345,1055.41 542.155,1055.39 542.966,1055.36 543.776,1055.33 544.586,1055.3 545.397,1055.27 546.207,1055.24 547.018,1055.21 547.828,1055.18 548.639,1055.15 549.449,1055.12 550.259,1055.09 551.07,1055.06 551.88,1055.02 552.691,1054.99 553.501,1054.95 554.312,1054.92 555.122,1054.88 555.932,1054.84 556.743,1054.8 557.553,1054.77 558.364,1054.73 559.174,1054.69 559.984,1054.64 560.795,1054.6 561.605,1054.56 562.416,1054.52 563.226,1054.47 564.037,1054.43 564.847,1054.38 565.657,1054.33 566.468,1054.28 567.278,1054.24 568.089,1054.18 568.899,1054.13 569.71,1054.08 570.52,1054.03 571.33,1053.97 572.141,1053.92 572.951,1053.86 573.762,1053.8 574.572,1053.74 575.383,1053.68 576.193,1053.62 577.003,1053.56 577.814,1053.5 578.624,1053.43 579.435,1053.37 580.245,1053.3 581.056,1053.23 581.866,1053.16 582.676,1053.09 583.487,1053.01 584.297,1052.94 585.108,1052.86 585.918,1052.78 586.729,1052.7 587.539,1052.62 588.349,1052.54 589.16,1052.46 589.97,1052.37 590.781,1052.28 591.591,1052.19 592.402,1052.1 593.212,1052.01 594.022,1051.91 594.833,1051.82 595.643,1051.72 596.454,1051.62 597.264,1051.51 598.074,1051.41 598.885,1051.3 599.695,1051.19 600.506,1051.08 601.316,1050.97 602.127,1050.85 602.937,1050.73 603.747,1050.61 604.558,1050.49 605.368,1050.36 606.179,1050.23 606.989,1050.1 607.8,1049.97 608.61,1049.83 609.42,1049.69 610.231,1049.55 611.041,1049.41 611.852,1049.26 612.662,1049.11 613.473,1048.96 614.283,1048.8 615.093,1048.64 615.904,1048.48 616.714,1048.31 617.525,1048.15 618.335,1047.97 619.146,1047.8 619.956,1047.62 620.766,1047.43 621.577,1047.25 622.387,1047.06 623.198,1046.86 624.008,1046.66 624.819,1046.46 625.629,1046.26 626.439,1046.05 627.25,1045.83 628.06,1045.61 628.871,1045.39 629.681,1045.16 630.492,1044.93 631.302,1044.69 632.112,1044.45 632.923,1044.2 633.733,1043.95 634.544,1043.7 635.354,1043.43 636.164,1043.17 636.975,1042.9 637.785,1042.62 638.596,1042.34 639.406,1042.05 640.217,1041.75 641.027,1041.45 641.837,1041.15 642.648,1040.83 643.458,1040.52 644.269,1040.19 645.079,1039.86 645.89,1039.52 646.7,1039.18 647.51,1038.83 648.321,1038.47 649.131,1038.1 649.942,1037.73 650.752,1037.35 651.563,1036.96 652.373,1036.57 653.183,1036.17 653.994,1035.75 654.804,1035.34 655.615,1034.91 656.425,1034.47 657.236,1034.03 658.046,1033.58 658.856,1033.11 659.667,1032.64 660.477,1032.16 661.288,1031.67 662.098,1031.17 662.909,1030.66 663.719,1030.14 664.529,1029.61 665.34,1029.07 666.15,1028.52 666.961,1027.96 667.771,1027.39 668.582,1026.81 669.392,1026.21 670.202,1025.61 671.013,1024.99 671.823,1024.36 672.634,1023.71 673.444,1023.06 674.254,1022.39 675.065,1021.71 675.875,1021.02 676.686,1020.31 677.496,1019.59 678.307,1018.85 679.117,1018.1 679.927,1017.34 680.738,1016.56 681.548,1015.76 682.359,1014.95 683.169,1014.13 683.98,1013.29 684.79,1012.43 685.6,1011.55 686.411,1010.66 687.221,1009.76 688.032,1008.83 688.842,1007.89 689.653,1006.93 690.463,1005.95 691.273,1004.95 692.084,1003.93 692.894,1002.89 693.705,1001.84 694.515,1000.76 695.326,999.663 696.136,998.545 696.946,997.405 697.757,996.245 698.567,995.062 699.378,993.857 700.188,992.629 700.999,991.378 701.809,990.104 702.619,988.805 703.43,987.483 704.24,986.135 705.051,984.762 705.861,983.364 706.672,981.94 707.482,980.489 708.292,979.011 709.103,977.506 709.913,975.973 710.724,974.412 711.534,972.821 712.345,971.202 713.155,969.553 713.965,967.874 714.776,966.164 715.586,964.422 716.397,962.649 717.207,960.844 718.017,959.006 718.828,957.135 719.638,955.231 720.449,953.291 721.259,951.317 722.07,949.308 722.88,947.263 723.69,945.181 724.501,943.062 725.311,940.906 726.122,938.712 726.932,936.479 727.743,934.206 728.553,931.894 729.363,929.542 730.174,927.148 730.984,924.713 731.795,922.236 732.605,919.716 733.416,917.153 734.226,914.546 735.036,911.894 735.847,909.197 736.657,906.455 737.468,903.666 738.278,900.831 739.089,897.948 739.899,895.017 740.709,892.037 741.52,889.008 742.33,885.929 743.141,882.8 743.951,879.619 744.762,876.387 745.572,873.103 746.382,869.766 747.193,866.375 748.003,862.931 748.814,859.432 749.624,855.878 750.435,852.268 751.245,848.602 752.055,844.879 752.866,841.099 753.676,837.262 754.487,833.366 755.297,829.411 756.107,825.397 756.918,821.323 757.728,817.189 758.539,812.994 759.349,808.738 760.16,804.421 760.97,800.042 761.78,795.6 762.591,791.095 763.401,786.528 764.212,781.897 765.022,777.203 765.833,772.444 766.643,767.621 767.453,762.734 768.264,757.782 769.074,752.765 769.885,747.684 770.695,742.537 771.506,737.324 772.316,732.047 773.126,726.704 773.937,721.296 774.747,715.823 775.558,710.284 776.368,704.68 777.179,699.011 777.989,693.278 778.799,687.48 779.61,681.618 780.42,675.692 781.231,669.702 782.041,663.65 782.852,657.534 783.662,651.357 784.472,645.118 785.283,638.818 786.093,632.458 786.904,626.038 787.714,619.56 788.525,613.023 789.335,606.43 790.145,599.781 790.956,593.077 791.766,586.319 792.577,579.508 793.387,572.646 794.197,565.734 795.008,558.773 795.818,551.764 796.629,544.71 797.439,537.611 798.25,530.47 799.06,523.288 799.87,516.066 800.681,508.807 801.491,501.513 802.302,494.186 803.112,486.827 803.923,479.439 804.733,472.024 805.543,464.585 806.354,457.124 807.164,449.642 807.975,442.144 808.785,434.631 809.596,427.106 810.406,419.572 811.216,412.031 812.027,404.487 812.837,396.943 813.648,389.401 814.458,381.865 815.269,374.338 816.079,366.823 816.889,359.323 817.7,351.842 818.51,344.384 819.321,336.951 820.131,329.547 820.942,322.176 821.752,314.842 822.562,307.548 823.373,300.298 824.183,293.096 824.994,285.945 825.804,278.849 826.615,271.813 827.425,264.84 828.235,257.934 829.046,251.099 829.856,244.34 830.667,237.659 831.477,231.062 832.288,224.551 833.098,218.132 833.908,211.808 834.719,205.582 835.529,199.46 836.34,193.445 837.15,187.541 837.96,181.752 838.771,176.081 839.581,170.533 840.392,165.111 841.202,159.819 842.013,154.661 842.823,149.64 843.633,144.76 844.444,140.024 845.254,135.437 846.065,131 846.875,126.718 847.686,122.593 848.496,118.628 849.306,114.827 850.117,111.193 850.927,107.728 851.738,104.434 852.548,101.314 853.359,98.3716 854.169,95.6078 854.979,93.025 855.79,90.6252 856.6,88.4104 857.411,86.3823 858.221,84.5424 859.032,82.8923 859.842,81.4332 860.652,80.1663 861.463,79.0926 862.273,78.2129 863.084,77.528 863.894,77.0384 864.705,76.7445 865.515,76.6465 866.325,76.7445 867.136,77.0384 867.946,77.528 868.757,78.2129 869.567,79.0926 870.378,80.1663 871.188,81.4332 871.998,82.8923 872.809,84.5424 873.619,86.3823 874.43,88.4104 875.24,90.6252 876.05,93.025 876.861,95.6078 877.671,98.3716 878.482,101.314 879.292,104.434 880.103,107.728 880.913,111.193 881.723,114.827 882.534,118.628 883.344,122.593 884.155,126.718 884.965,131 885.776,135.437 886.586,140.024 887.396,144.76 888.207,149.64 889.017,154.661 889.828,159.819 890.638,165.111 891.449,170.533 892.259,176.081 893.069,181.752 893.88,187.541 894.69,193.445 895.501,199.46 896.311,205.582 897.122,211.808 897.932,218.132 898.742,224.551 899.553,231.062 900.363,237.659 901.174,244.34 901.984,251.099 902.795,257.934 903.605,264.84 904.415,271.813 905.226,278.849 906.036,285.945 906.847,293.096 907.657,300.298 908.468,307.548 909.278,314.842 910.088,322.176 910.899,329.547 911.709,336.951 912.52,344.384 913.33,351.842 914.14,359.323 914.951,366.823 915.761,374.338 916.572,381.865 917.382,389.401 918.193,396.943 919.003,404.487 919.813,412.031 920.624,419.572 921.434,427.106 922.245,434.631 923.055,442.144 923.866,449.642 924.676,457.124 925.486,464.585 926.297,472.024 927.107,479.439 927.918,486.827 928.728,494.186 929.539,501.513 930.349,508.807 931.159,516.066 931.97,523.288 932.78,530.47 933.591,537.611 934.401,544.71 935.212,551.764 936.022,558.773 936.832,565.734 937.643,572.646 938.453,579.508 939.264,586.319 940.074,593.077 940.885,599.781 941.695,606.43 942.505,613.023 943.316,619.56 944.126,626.038 944.937,632.458 945.747,638.818 946.558,645.118 947.368,651.357 948.178,657.534 948.989,663.65 949.799,669.702 950.61,675.692 951.42,681.618 952.23,687.48 953.041,693.278 953.851,699.011 954.662,704.68 955.472,710.284 956.283,715.823 957.093,721.296 957.903,726.704 958.714,732.047 959.524,737.324 960.335,742.537 961.145,747.684 961.956,752.765 962.766,757.782 963.576,762.734 964.387,767.621 965.197,772.444 966.008,777.203 966.818,781.897 967.629,786.528 968.439,791.095 969.249,795.6 970.06,800.042 970.87,804.421 971.681,808.738 972.491,812.994 973.302,817.189 974.112,821.323 974.922,825.397 975.733,829.411 976.543,833.366 977.354,837.262 978.164,841.099 978.975,844.879 979.785,848.602 980.595,852.268 981.406,855.878 982.216,859.432 983.027,862.931 983.837,866.375 984.648,869.766 985.458,873.103 986.268,876.387 987.079,879.619 987.889,882.8 988.7,885.929 989.51,889.008 990.321,892.037 991.131,895.017 991.941,897.948 992.752,900.831 993.562,903.666 994.373,906.455 995.183,909.197 995.993,911.894 996.804,914.546 997.614,917.153 998.425,919.716 999.235,922.236 1000.05,924.713 1000.86,927.148 1001.67,929.542 1002.48,931.894 1003.29,934.206 1004.1,936.479 1004.91,938.712 1005.72,940.906 1006.53,943.062 1007.34,945.181 1008.15,947.263 1008.96,949.308 1009.77,951.317 1010.58,953.291 1011.39,955.231 1012.2,957.135 1013.01,959.006 1013.82,960.844 1014.63,962.649 1015.44,964.422 1016.25,966.164 1017.06,967.874 1017.87,969.553 1018.69,971.202 1019.5,972.821 1020.31,974.412 1021.12,975.973 1021.93,977.506 1022.74,979.011 1023.55,980.489 1024.36,981.94 1025.17,983.364 1025.98,984.762 1026.79,986.135 1027.6,987.483 1028.41,988.805 1029.22,990.104 1030.03,991.378 1030.84,992.629 1031.65,993.857 1032.46,995.062 1033.27,996.245 1034.08,997.405 1034.89,998.545 1035.7,999.663 1036.51,1000.76 1037.33,1001.84 1038.14,1002.89 1038.95,1003.93 1039.76,1004.95 1040.57,1005.95 1041.38,1006.93 1042.19,1007.89 1043,1008.83 1043.81,1009.76 1044.62,1010.66 1045.43,1011.55 1046.24,1012.43 1047.05,1013.29 1047.86,1014.13 1048.67,1014.95 1049.48,1015.76 1050.29,1016.56 1051.1,1017.34 1051.91,1018.1 1052.72,1018.85 1053.53,1019.59 1054.34,1020.31 1055.15,1021.02 1055.96,1021.71 1056.78,1022.39 1057.59,1023.06 1058.4,1023.71 1059.21,1024.36 1060.02,1024.99 1060.83,1025.61 1061.64,1026.21 1062.45,1026.81 1063.26,1027.39 1064.07,1027.96 1064.88,1028.52 1065.69,1029.07 1066.5,1029.61 1067.31,1030.14 1068.12,1030.66 1068.93,1031.17 1069.74,1031.67 1070.55,1032.16 1071.36,1032.64 1072.17,1033.11 1072.98,1033.58 1073.79,1034.03 1074.6,1034.47 1075.42,1034.91 1076.23,1035.34 1077.04,1035.75 1077.85,1036.17 1078.66,1036.57 1079.47,1036.96 1080.28,1037.35 1081.09,1037.73 1081.9,1038.1 1082.71,1038.47 1083.52,1038.83 1084.33,1039.18 1085.14,1039.52 1085.95,1039.86 1086.76,1040.19 1087.57,1040.52 1088.38,1040.83 1089.19,1041.15 1090,1041.45 1090.81,1041.75 1091.62,1042.05 1092.43,1042.34 1093.24,1042.62 1094.05,1042.9 1094.87,1043.17 1095.68,1043.43 1096.49,1043.7 1097.3,1043.95 1098.11,1044.2 1098.92,1044.45 1099.73,1044.69 1100.54,1044.93 1101.35,1045.16 1102.16,1045.39 1102.97,1045.61 1103.78,1045.83 1104.59,1046.05 1105.4,1046.26 1106.21,1046.46 1107.02,1046.66 1107.83,1046.86 1108.64,1047.06 1109.45,1047.25 1110.26,1047.43 1111.07,1047.62 1111.88,1047.8 1112.69,1047.97 1113.51,1048.15 1114.32,1048.31 1115.13,1048.48 1115.94,1048.64 1116.75,1048.8 1117.56,1048.96 1118.37,1049.11 1119.18,1049.26 1119.99,1049.41 1120.8,1049.55 1121.61,1049.69 1122.42,1049.83 1123.23,1049.97 1124.04,1050.1 1124.85,1050.23 1125.66,1050.36 1126.47,1050.49 1127.28,1050.61 1128.09,1050.73 1128.9,1050.85 1129.71,1050.97 1130.52,1051.08 1131.33,1051.19 1132.14,1051.3 1132.96,1051.41 1133.77,1051.51 1134.58,1051.62 1135.39,1051.72 1136.2,1051.82 1137.01,1051.91 1137.82,1052.01 1138.63,1052.1 1139.44,1052.19 1140.25,1052.28 1141.06,1052.37 1141.87,1052.46 1142.68,1052.54 1143.49,1052.62 1144.3,1052.7 1145.11,1052.78 1145.92,1052.86 1146.73,1052.94 1147.54,1053.01 1148.35,1053.09 1149.16,1053.16 1149.97,1053.23 1150.78,1053.3 1151.6,1053.37 1152.41,1053.43 1153.22,1053.5 1154.03,1053.56 1154.84,1053.62 1155.65,1053.68 1156.46,1053.74 1157.27,1053.8 1158.08,1053.86 1158.89,1053.92 1159.7,1053.97 1160.51,1054.03 1161.32,1054.08 1162.13,1054.13 1162.94,1054.18 1163.75,1054.24 1164.56,1054.28 1165.37,1054.33 1166.18,1054.38 1166.99,1054.43 1167.8,1054.47 1168.61,1054.52 1169.42,1054.56 1170.23,1054.6 1171.05,1054.64 1171.86,1054.69 1172.67,1054.73 1173.48,1054.77 1174.29,1054.8 1175.1,1054.84 1175.91,1054.88 1176.72,1054.92 1177.53,1054.95 1178.34,1054.99 1179.15,1055.02 1179.96,1055.06 1180.77,1055.09 1181.58,1055.12 1182.39,1055.15 1183.2,1055.18 1184.01,1055.21 1184.82,1055.24 1185.63,1055.27 1186.44,1055.3 1187.25,1055.33 1188.06,1055.36 1188.87,1055.39 1189.69,1055.41 1190.5,1055.44 1191.31,1055.46 1192.12,1055.49 1192.93,1055.51 1193.74,1055.54 1194.55,1055.56 1195.36,1055.58 1196.17,1055.61 1196.98,1055.63 1197.79,1055.65 1198.6,1055.67 1199.41,1055.69 1200.22,1055.71 1201.03,1055.73 1201.84,1055.75 1202.65,1055.77 1203.46,1055.79 1204.27,1055.81 1205.08,1055.83 1205.89,1055.84 1206.7,1055.86 1207.51,1055.88 1208.33,1055.9 1209.14,1055.91 1209.95,1055.93 1210.76,1055.94 1211.57,1055.96 1212.38,1055.98 1213.19,1055.99 1214,1056 1214.81,1056.02 1215.62,1056.03 1216.43,1056.05 1217.24,1056.06 1218.05,1056.07 1218.86,1056.09 1219.67,1056.1 1220.48,1056.11 1221.29,1056.12 1222.1,1056.14 1222.91,1056.15 1223.72,1056.16 1224.53,1056.17 1225.34,1056.18 1226.15,1056.19 1226.96,1056.2 1227.78,1056.21 1228.59,1056.22 1229.4,1056.23 1230.21,1056.24 1231.02,1056.25 1231.83,1056.26 1232.64,1056.27 1233.45,1056.28 1234.26,1056.29 1235.07,1056.3 1235.88,1056.31 1236.69,1056.31 1237.5,1056.32 1238.31,1056.33 1239.12,1056.34 1239.93,1056.35 1240.74,1056.35 1241.55,1056.36 1242.36,1056.37 1243.17,1056.37 1243.98,1056.38 1244.79,1056.39 1245.6,1056.4 1246.42,1056.4 1247.23,1056.41 1248.04,1056.41 1248.85,1056.42 1249.66,1056.43 1250.47,1056.43 1251.28,1056.44 1252.09,1056.44 1252.9,1056.45 1253.71,1056.46 1254.52,1056.46 1255.33,1056.47 1256.14,1056.47 1256.95,1056.48 1257.76,1056.48 1258.57,1056.49 1259.38,1056.49 1260.19,1056.5 1261,1056.5 1261.81,1056.5 1262.62,1056.51 1263.43,1056.51 1264.24,1056.52 1265.05,1056.52 1265.87,1056.53 1266.68,1056.53 1267.49,1056.53 1268.3,1056.54 1269.11,1056.54 1269.92,1056.54 1270.73,1056.55 1271.54,1056.55 1272.35,1056.55 1273.16,1056.56 1273.97,1056.56 1274.78,1056.56 1275.59,1056.57 1276.4,1056.57 1277.21,1056.57 1278.02,1056.58 1278.83,1056.58 1279.64,1056.58 1280.45,1056.59 1281.26,1056.59 1282.07,1056.59 1282.88,1056.59 1283.69,1056.6 1284.51,1056.6 1285.32,1056.6 1286.13,1056.6 1286.94,1056.61 1287.75,1056.61 1288.56,1056.61 1289.37,1056.61 1290.18,1056.62 1290.99,1056.62 1291.8,1056.62 1292.61,1056.62 1293.42,1056.62 1294.23,1056.63 1295.04,1056.63 1295.85,1056.63 1296.66,1056.63 1297.47,1056.63 1298.28,1056.64 1299.09,1056.64 1299.9,1056.64 1300.71,1056.64 1301.52,1056.64 1302.33,1056.64 1303.14,1056.65 1303.96,1056.65 1304.77,1056.65 1305.58,1056.65 1306.39,1056.65 1307.2,1056.65 1308.01,1056.66 1308.82,1056.66 1309.63,1056.66 1310.44,1056.66 1311.25,1056.66 1312.06,1056.66 1312.87,1056.66 1313.68,1056.66 1314.49,1056.67 1315.3,1056.67 1316.11,1056.67 1316.92,1056.67 1317.73,1056.67 1318.54,1056.67 1319.35,1056.67 1320.16,1056.67 1320.97,1056.67 1321.78,1056.68 1322.6,1056.68 1323.41,1056.68 1324.22,1056.68 1325.03,1056.68 1325.84,1056.68 1326.65,1056.68 1327.46,1056.68 1328.27,1056.68 1329.08,1056.68 1329.89,1056.68 1330.7,1056.69 1331.51,1056.69 1332.32,1056.69 1333.13,1056.69 1333.94,1056.69 1334.75,1056.69 1335.56,1056.69 1336.37,1056.69 1337.18,1056.69 1337.99,1056.69 1338.8,1056.69 1339.61,1056.69 1340.42,1056.69 1341.23,1056.69 1342.05,1056.7 1342.86,1056.7 1343.67,1056.7 1344.48,1056.7 1345.29,1056.7 1346.1,1056.7 1346.91,1056.7 1347.72,1056.7 1348.53,1056.7 1349.34,1056.7 1350.15,1056.7 1350.96,1056.7 1351.77,1056.7 1352.58,1056.7 1353.39,1056.7 1354.2,1056.7 1355.01,1056.7 1355.82,1056.7 1356.63,1056.7 1357.44,1056.71 1358.25,1056.71 1359.06,1056.71 1359.87,1056.71 1360.69,1056.71 1361.5,1056.71 1362.31,1056.71 1363.12,1056.71 1363.93,1056.71 1364.74,1056.71 1365.55,1056.71 1366.36,1056.71 1367.17,1056.71 1367.98,1056.71 1368.79,1056.71 1369.6,1056.71 1370.41,1056.71 1371.22,1056.71 1372.03,1056.71 1372.84,1056.71 1373.65,1056.71 1374.46,1056.71 1375.27,1056.71 1376.08,1056.71 1376.89,1056.71 1377.7,1056.71 1378.51,1056.71 1379.32,1056.71 1380.14,1056.71 1380.95,1056.71 1381.76,1056.71 1382.57,1056.71 1383.38,1056.71 1384.19,1056.72 1385,1056.72 1385.81,1056.72 1386.62,1056.72 1387.43,1056.72 1388.24,1056.72 1389.05,1056.72 1389.86,1056.72 1390.67,1056.72 1391.48,1056.72 1392.29,1056.72 1393.1,1056.72 1393.91,1056.72 1394.72,1056.72 1395.53,1056.72 1396.34,1056.72 1397.15,1056.72 1397.96,1056.72 1398.78,1056.72 1399.59,1056.72 1400.4,1056.72 1401.21,1056.72 1402.02,1056.72 1402.83,1056.72 1403.64,1056.72 1404.45,1056.72 1405.26,1056.72 1406.07,1056.72 1406.88,1056.72 1407.69,1056.72 1408.5,1056.72 1409.31,1056.72 1410.12,1056.72 1410.93,1056.72 1411.74,1056.72 1412.55,1056.72 1413.36,1056.72 1414.17,1056.72 1414.98,1056.72 1415.79,1056.72 1416.6,1056.72 1417.41,1056.72 1418.23,1056.72 1419.04,1056.72 1419.85,1056.72 1420.66,1056.72 1421.47,1056.72 1422.28,1056.72 1423.09,1056.72 1423.9,1056.72 1424.71,1056.72 1425.52,1056.72 1426.33,1056.72 1427.14,1056.72 1427.95,1056.72 1428.76,1056.72 1429.57,1056.72 1430.38,1056.72 1431.19,1056.72 1432,1056.72 1432.81,1056.72 1433.62,1056.72 1434.43,1056.72 1435.24,1056.72 1436.05,1056.72 1436.87,1056.72 1437.68,1056.72 1438.49,1056.72 1439.3,1056.72 1440.11,1056.72 1440.92,1056.72 1441.73,1056.72 1442.54,1056.72 1443.35,1056.72 1444.16,1056.72 1444.97,1056.72 1445.78,1056.72 1446.59,1056.72 1447.4,1056.72 1448.21,1056.72 1449.02,1056.72 1449.83,1056.72 1450.64,1056.72 1451.45,1056.72 1452.26,1056.72 1453.07,1056.72 1453.88,1056.72 1454.69,1056.72 1455.5,1056.72 1456.32,1056.72 1457.13,1056.72 1457.94,1056.72 1458.75,1056.72 1459.56,1056.72 1460.37,1056.72 1461.18,1056.72 1461.99,1056.72 1462.8,1056.72 1463.61,1056.72 1464.42,1056.72 1465.23,1056.72 1466.04,1056.72 1466.85,1056.72 1467.66,1056.72 1468.47,1056.72 1469.28,1056.72 1470.09,1056.72 1470.9,1056.72 1471.71,1056.72 1472.52,1056.72 1473.33,1056.72 1474.14,1056.72 1474.96,1056.72 1475.77,1056.72 1476.58,1056.72 1477.39,1056.72 1478.2,1056.72 1479.01,1056.72 1479.82,1056.72 1480.63,1056.72 1481.44,1056.72 1482.25,1056.72 1483.06,1056.73 1483.87,1056.73 1484.68,1056.73 1485.49,1056.73 1486.3,1056.73 1487.11,1056.73 1487.92,1056.73 1488.73,1056.73 1489.54,1056.73 1490.35,1056.73 1491.16,1056.73 1491.97,1056.73 1492.78,1056.73 1493.59,1056.73 1494.41,1056.73 1495.22,1056.73 1496.03,1056.73 1496.84,1056.73 1497.65,1056.73 1498.46,1056.73 1499.27,1056.73 1500.08,1056.73 1500.89,1056.73 1501.7,1056.73 1502.51,1056.73 1503.32,1056.73 1504.13,1056.73 1504.94,1056.73 1505.75,1056.73 1506.56,1056.73 1507.37,1056.73 1508.18,1056.73 1508.99,1056.73 1509.8,1056.73 1510.61,1056.73 1511.42,1056.73 1512.23,1056.73 1513.05,1056.73 1513.86,1056.73 "/>
</svg>
