<?xml version="1.0" encoding="utf-8"?>
<svg xmlns="http://www.w3.org/2000/svg" xmlns:xlink="http://www.w3.org/1999/xlink" width="400" height="300" viewBox="0 0 1600 1200">
<defs>
  <clipPath id="clip430">
    <rect x="0" y="0" width="1600" height="1200"/>
  </clipPath>
</defs>
<path clip-path="url(#clip430)" d="M0 1200 L1600 1200 L1600 0 L0 0  Z" fill="#ffffff" fill-rule="evenodd" fill-opacity="1"/>
<defs>
  <clipPath id="clip431">
    <rect x="320" y="0" width="1121" height="1121"/>
  </clipPath>
</defs>
<path clip-path="url(#clip430)" d="M178.274 1086.13 L1552.76 1086.13 L1552.76 47.2441 L178.274 47.2441  Z" fill="#ffffff" fill-rule="evenodd" fill-opacity="1"/>
<defs>
  <clipPath id="clip432">
    <rect x="178" y="47" width="1375" height="1040"/>
  </clipPath>
</defs>
<polyline clip-path="url(#clip432)" style="stroke:#000000; stroke-linecap:round; stroke-linejoin:round; stroke-width:2; stroke-opacity:0.1; fill:none" points="379.26,1086.13 379.26,47.2441 "/>
<polyline clip-path="url(#clip432)" style="stroke:#000000; stroke-linecap:round; stroke-linejoin:round; stroke-width:2; stroke-opacity:0.1; fill:none" points="622.387,1086.13 622.387,47.2441 "/>
<polyline clip-path="url(#clip432)" style="stroke:#000000; stroke-linecap:round; stroke-linejoin:round; stroke-width:2; stroke-opacity:0.1; fill:none" points="865.515,1086.13 865.515,47.2441 "/>
<polyline clip-path="url(#clip432)" style="stroke:#000000; stroke-linecap:round; stroke-linejoin:round; stroke-width:2; stroke-opacity:0.1; fill:none" points="1108.64,1086.13 1108.64,47.2441 "/>
<polyline clip-path="url(#clip432)" style="stroke:#000000; stroke-linecap:round; stroke-linejoin:round; stroke-width:2; stroke-opacity:0.1; fill:none" points="1351.77,1086.13 1351.77,47.2441 "/>
<polyline clip-path="url(#clip432)" style="stroke:#000000; stroke-linecap:round; stroke-linejoin:round; stroke-width:2; stroke-opacity:0.1; fill:none" points="178.274,1056.73 1552.76,1056.73 "/>
<polyline clip-path="url(#clip432)" style="stroke:#000000; stroke-linecap:round; stroke-linejoin:round; stroke-width:2; stroke-opacity:0.1; fill:none" points="178.274,811.706 1552.76,811.706 "/>
<polyline clip-path="url(#clip432)" style="stroke:#000000; stroke-linecap:round; stroke-linejoin:round; stroke-width:2; stroke-opacity:0.1; fill:none" points="178.274,566.686 1552.76,566.686 "/>
<polyline clip-path="url(#clip432)" style="stroke:#000000; stroke-linecap:round; stroke-linejoin:round; stroke-width:2; stroke-opacity:0.1; fill:none" points="178.274,321.666 1552.76,321.666 "/>
<polyline clip-path="url(#clip432)" style="stroke:#000000; stroke-linecap:round; stroke-linejoin:round; stroke-width:2; stroke-opacity:0.1; fill:none" points="178.274,76.6465 1552.76,76.6465 "/>
<polyline clip-path="url(#clip430)" style="stroke:#000000; stroke-linecap:round; stroke-linejoin:round; stroke-width:4; stroke-opacity:1; fill:none" points="178.274,1086.13 1552.76,1086.13 "/>
<polyline clip-path="url(#clip430)" style="stroke:#000000; stroke-linecap:round; stroke-linejoin:round; stroke-width:4; stroke-opacity:1; fill:none" points="379.26,1086.13 379.26,1067.23 "/>
<polyline clip-path="url(#clip430)" style="stroke:#000000; stroke-linecap:round; stroke-linejoin:round; stroke-width:4; stroke-opacity:1; fill:none" points="622.387,1086.13 622.387,1067.23 "/>
<polyline clip-path="url(#clip430)" style="stroke:#000000; stroke-linecap:round; stroke-linejoin:round; stroke-width:4; stroke-opacity:1; fill:none" points="865.515,1086.13 865.515,1067.23 "/>
<polyline clip-path="url(#clip430)" style="stroke:#000000; stroke-linecap:round; stroke-linejoin:round; stroke-width:4; stroke-opacity:1; fill:none" points="1108.64,1086.13 1108.64,1067.23 "/>
<polyline clip-path="url(#clip430)" style="stroke:#000000; stroke-linecap:round; stroke-linejoin:round; stroke-width:4; stroke-opacity:1; fill:none" points="1351.77,1086.13 1351.77,1067.23 "/>
<path clip-path="url(#clip430)" d="M348.322 1125.3 L377.998 1125.3 L377.998 1129.23 L348.322 1129.23 L348.322 1125.3 Z" fill="#000000" fill-rule="nonzero" fill-opacity="1" /><path clip-path="url(#clip430)" d="M398.669 1122.98 Q395.521 1122.98 393.669 1125.14 Q391.841 1127.29 391.841 1131.04 Q391.841 1134.77 393.669 1136.94 Q395.521 1139.1 398.669 1139.1 Q401.817 1139.1 403.646 1136.94 Q405.498 1134.77 405.498 1131.04 Q405.498 1127.29 403.646 1125.14 Q401.817 1122.98 398.669 1122.98 M407.952 1108.33 L407.952 1112.59 Q406.192 1111.76 404.387 1111.32 Q402.604 1110.88 400.845 1110.88 Q396.215 1110.88 393.762 1114 Q391.331 1117.13 390.984 1123.45 Q392.35 1121.43 394.41 1120.37 Q396.47 1119.28 398.947 1119.28 Q404.155 1119.28 407.165 1122.45 Q410.197 1125.6 410.197 1131.04 Q410.197 1136.36 407.049 1139.58 Q403.901 1142.8 398.669 1142.8 Q392.674 1142.8 389.503 1138.22 Q386.331 1133.61 386.331 1124.88 Q386.331 1116.69 390.22 1111.83 Q394.109 1106.94 400.66 1106.94 Q402.419 1106.94 404.202 1107.29 Q406.007 1107.64 407.952 1108.33 Z" fill="#000000" fill-rule="nonzero" fill-opacity="1" /><path clip-path="url(#clip430)" d="M591.855 1125.3 L621.531 1125.3 L621.531 1129.23 L591.855 1129.23 L591.855 1125.3 Z" fill="#000000" fill-rule="nonzero" fill-opacity="1" /><path clip-path="url(#clip430)" d="M645.79 1123.49 Q649.146 1124.21 651.021 1126.48 Q652.92 1128.75 652.92 1132.08 Q652.92 1137.2 649.401 1140 Q645.883 1142.8 639.401 1142.8 Q637.225 1142.8 634.91 1142.36 Q632.619 1141.94 630.165 1141.09 L630.165 1136.57 Q632.109 1137.71 634.424 1138.29 Q636.739 1138.86 639.262 1138.86 Q643.66 1138.86 645.952 1137.13 Q648.267 1135.39 648.267 1132.08 Q648.267 1129.03 646.114 1127.31 Q643.984 1125.58 640.165 1125.58 L636.137 1125.58 L636.137 1121.73 L640.35 1121.73 Q643.799 1121.73 645.628 1120.37 Q647.457 1118.98 647.457 1116.39 Q647.457 1113.73 645.558 1112.31 Q643.683 1110.88 640.165 1110.88 Q638.244 1110.88 636.045 1111.29 Q633.846 1111.71 631.207 1112.59 L631.207 1108.42 Q633.869 1107.68 636.183 1107.31 Q638.521 1106.94 640.582 1106.94 Q645.906 1106.94 649.007 1109.37 Q652.109 1111.78 652.109 1115.9 Q652.109 1118.77 650.466 1120.76 Q648.822 1122.73 645.79 1123.49 Z" fill="#000000" fill-rule="nonzero" fill-opacity="1" /><path clip-path="url(#clip430)" d="M865.515 1110.65 Q861.904 1110.65 860.075 1114.21 Q858.27 1117.75 858.27 1124.88 Q858.27 1131.99 860.075 1135.55 Q861.904 1139.1 865.515 1139.1 Q869.149 1139.1 870.955 1135.55 Q872.783 1131.99 872.783 1124.88 Q872.783 1117.75 870.955 1114.21 Q869.149 1110.65 865.515 1110.65 M865.515 1106.94 Q871.325 1106.94 874.381 1111.55 Q877.459 1116.13 877.459 1124.88 Q877.459 1133.61 874.381 1138.22 Q871.325 1142.8 865.515 1142.8 Q859.705 1142.8 856.626 1138.22 Q853.571 1133.61 853.571 1124.88 Q853.571 1116.13 856.626 1111.55 Q859.705 1106.94 865.515 1106.94 Z" fill="#000000" fill-rule="nonzero" fill-opacity="1" /><path clip-path="url(#clip430)" d="M1112.89 1123.49 Q1116.25 1124.21 1118.12 1126.48 Q1120.02 1128.75 1120.02 1132.08 Q1120.02 1137.2 1116.5 1140 Q1112.98 1142.8 1106.5 1142.8 Q1104.33 1142.8 1102.01 1142.36 Q1099.72 1141.94 1097.27 1141.09 L1097.27 1136.57 Q1099.21 1137.71 1101.52 1138.29 Q1103.84 1138.86 1106.36 1138.86 Q1110.76 1138.86 1113.05 1137.13 Q1115.37 1135.39 1115.37 1132.08 Q1115.37 1129.03 1113.21 1127.31 Q1111.08 1125.58 1107.27 1125.58 L1103.24 1125.58 L1103.24 1121.73 L1107.45 1121.73 Q1110.9 1121.73 1112.73 1120.37 Q1114.56 1118.98 1114.56 1116.39 Q1114.56 1113.73 1112.66 1112.31 Q1110.78 1110.88 1107.27 1110.88 Q1105.34 1110.88 1103.14 1111.29 Q1100.95 1111.71 1098.31 1112.59 L1098.31 1108.42 Q1100.97 1107.68 1103.28 1107.31 Q1105.62 1106.94 1107.68 1106.94 Q1113.01 1106.94 1116.11 1109.37 Q1119.21 1111.78 1119.21 1115.9 Q1119.21 1118.77 1117.57 1120.76 Q1115.92 1122.73 1112.89 1123.49 Z" fill="#000000" fill-rule="nonzero" fill-opacity="1" /><path clip-path="url(#clip430)" d="M1352.18 1122.98 Q1349.03 1122.98 1347.18 1125.14 Q1345.35 1127.29 1345.35 1131.04 Q1345.35 1134.77 1347.18 1136.94 Q1349.03 1139.1 1352.18 1139.1 Q1355.32 1139.1 1357.15 1136.94 Q1359 1134.77 1359 1131.04 Q1359 1127.29 1357.15 1125.14 Q1355.32 1122.98 1352.18 1122.98 M1361.46 1108.33 L1361.46 1112.59 Q1359.7 1111.76 1357.89 1111.32 Q1356.11 1110.88 1354.35 1110.88 Q1349.72 1110.88 1347.27 1114 Q1344.84 1117.13 1344.49 1123.45 Q1345.86 1121.43 1347.92 1120.37 Q1349.98 1119.28 1352.45 1119.28 Q1357.66 1119.28 1360.67 1122.45 Q1363.7 1125.6 1363.7 1131.04 Q1363.7 1136.36 1360.56 1139.58 Q1357.41 1142.8 1352.18 1142.8 Q1346.18 1142.8 1343.01 1138.22 Q1339.84 1133.61 1339.84 1124.88 Q1339.84 1116.69 1343.73 1111.83 Q1347.62 1106.94 1354.17 1106.94 Q1355.93 1106.94 1357.71 1107.29 Q1359.51 1107.64 1361.46 1108.33 Z" fill="#000000" fill-rule="nonzero" fill-opacity="1" /><polyline clip-path="url(#clip430)" style="stroke:#000000; stroke-linecap:round; stroke-linejoin:round; stroke-width:4; stroke-opacity:1; fill:none" points="178.274,1086.13 178.274,47.2441 "/>
<polyline clip-path="url(#clip430)" style="stroke:#000000; stroke-linecap:round; stroke-linejoin:round; stroke-width:4; stroke-opacity:1; fill:none" points="178.274,1056.73 197.172,1056.73 "/>
<polyline clip-path="url(#clip430)" style="stroke:#000000; stroke-linecap:round; stroke-linejoin:round; stroke-width:4; stroke-opacity:1; fill:none" points="178.274,811.706 197.172,811.706 "/>
<polyline clip-path="url(#clip430)" style="stroke:#000000; stroke-linecap:round; stroke-linejoin:round; stroke-width:4; stroke-opacity:1; fill:none" points="178.274,566.686 197.172,566.686 "/>
<polyline clip-path="url(#clip430)" style="stroke:#000000; stroke-linecap:round; stroke-linejoin:round; stroke-width:4; stroke-opacity:1; fill:none" points="178.274,321.666 197.172,321.666 "/>
<polyline clip-path="url(#clip430)" style="stroke:#000000; stroke-linecap:round; stroke-linejoin:round; stroke-width:4; stroke-opacity:1; fill:none" points="178.274,76.6465 197.172,76.6465 "/>
<path clip-path="url(#clip430)" d="M66.9365 1042.52 Q63.3254 1042.52 61.4967 1046.09 Q59.6912 1049.63 59.6912 1056.76 Q59.6912 1063.87 61.4967 1067.43 Q63.3254 1070.97 66.9365 1070.97 Q70.5707 1070.97 72.3763 1067.43 Q74.205 1063.87 74.205 1056.76 Q74.205 1049.63 72.3763 1046.09 Q70.5707 1042.52 66.9365 1042.52 M66.9365 1038.82 Q72.7467 1038.82 75.8022 1043.43 Q78.8809 1048.01 78.8809 1056.76 Q78.8809 1065.49 75.8022 1070.09 Q72.7467 1074.68 66.9365 1074.68 Q61.1264 1074.68 58.0477 1070.09 Q54.9921 1065.49 54.9921 1056.76 Q54.9921 1048.01 58.0477 1043.43 Q61.1264 1038.82 66.9365 1038.82 Z" fill="#000000" fill-rule="nonzero" fill-opacity="1" /><path clip-path="url(#clip430)" d="M87.0984 1068.13 L91.9827 1068.13 L91.9827 1074.01 L87.0984 1074.01 L87.0984 1068.13 Z" fill="#000000" fill-rule="nonzero" fill-opacity="1" /><path clip-path="url(#clip430)" d="M112.168 1042.52 Q108.557 1042.52 106.728 1046.09 Q104.922 1049.63 104.922 1056.76 Q104.922 1063.87 106.728 1067.43 Q108.557 1070.97 112.168 1070.97 Q115.802 1070.97 117.608 1067.43 Q119.436 1063.87 119.436 1056.76 Q119.436 1049.63 117.608 1046.09 Q115.802 1042.52 112.168 1042.52 M112.168 1038.82 Q117.978 1038.82 121.033 1043.43 Q124.112 1048.01 124.112 1056.76 Q124.112 1065.49 121.033 1070.09 Q117.978 1074.68 112.168 1074.68 Q106.358 1074.68 103.279 1070.09 Q100.223 1065.49 100.223 1056.76 Q100.223 1048.01 103.279 1043.43 Q106.358 1038.82 112.168 1038.82 Z" fill="#000000" fill-rule="nonzero" fill-opacity="1" /><path clip-path="url(#clip430)" d="M142.33 1042.52 Q138.719 1042.52 136.89 1046.09 Q135.084 1049.63 135.084 1056.76 Q135.084 1063.87 136.89 1067.43 Q138.719 1070.97 142.33 1070.97 Q145.964 1070.97 147.769 1067.43 Q149.598 1063.87 149.598 1056.76 Q149.598 1049.63 147.769 1046.09 Q145.964 1042.52 142.33 1042.52 M142.33 1038.82 Q148.14 1038.82 151.195 1043.43 Q154.274 1048.01 154.274 1056.76 Q154.274 1065.49 151.195 1070.09 Q148.14 1074.68 142.33 1074.68 Q136.519 1074.68 133.441 1070.09 Q130.385 1065.49 130.385 1056.76 Q130.385 1048.01 133.441 1043.43 Q136.519 1038.82 142.33 1038.82 Z" fill="#000000" fill-rule="nonzero" fill-opacity="1" /><path clip-path="url(#clip430)" d="M67.9319 797.504 Q64.3208 797.504 62.4921 801.069 Q60.6865 804.611 60.6865 811.74 Q60.6865 818.847 62.4921 822.412 Q64.3208 825.953 67.9319 825.953 Q71.5661 825.953 73.3717 822.412 Q75.2004 818.847 75.2004 811.74 Q75.2004 804.611 73.3717 801.069 Q71.5661 797.504 67.9319 797.504 M67.9319 793.801 Q73.742 793.801 76.7976 798.407 Q79.8763 802.991 79.8763 811.74 Q79.8763 820.467 76.7976 825.074 Q73.742 829.657 67.9319 829.657 Q62.1217 829.657 59.043 825.074 Q55.9875 820.467 55.9875 811.74 Q55.9875 802.991 59.043 798.407 Q62.1217 793.801 67.9319 793.801 Z" fill="#000000" fill-rule="nonzero" fill-opacity="1" /><path clip-path="url(#clip430)" d="M88.0938 823.106 L92.978 823.106 L92.978 828.986 L88.0938 828.986 L88.0938 823.106 Z" fill="#000000" fill-rule="nonzero" fill-opacity="1" /><path clip-path="url(#clip430)" d="M107.191 825.051 L123.51 825.051 L123.51 828.986 L101.566 828.986 L101.566 825.051 Q104.228 822.296 108.811 817.666 Q113.418 813.014 114.598 811.671 Q116.844 809.148 117.723 807.412 Q118.626 805.653 118.626 803.963 Q118.626 801.208 116.682 799.472 Q114.76 797.736 111.658 797.736 Q109.459 797.736 107.006 798.5 Q104.575 799.264 101.797 800.815 L101.797 796.092 Q104.621 794.958 107.075 794.379 Q109.529 793.801 111.566 793.801 Q116.936 793.801 120.131 796.486 Q123.325 799.171 123.325 803.662 Q123.325 805.791 122.515 807.713 Q121.728 809.611 119.621 812.203 Q119.043 812.875 115.941 816.092 Q112.839 819.287 107.191 825.051 Z" fill="#000000" fill-rule="nonzero" fill-opacity="1" /><path clip-path="url(#clip430)" d="M133.371 794.426 L151.728 794.426 L151.728 798.361 L137.654 798.361 L137.654 806.833 Q138.672 806.486 139.691 806.324 Q140.709 806.139 141.728 806.139 Q147.515 806.139 150.894 809.31 Q154.274 812.481 154.274 817.898 Q154.274 823.477 150.802 826.578 Q147.33 829.657 141.01 829.657 Q138.834 829.657 136.566 829.287 Q134.32 828.916 131.913 828.176 L131.913 823.477 Q133.996 824.611 136.219 825.166 Q138.441 825.722 140.918 825.722 Q144.922 825.722 147.26 823.615 Q149.598 821.509 149.598 817.898 Q149.598 814.287 147.26 812.18 Q144.922 810.074 140.918 810.074 Q139.043 810.074 137.168 810.49 Q135.316 810.907 133.371 811.787 L133.371 794.426 Z" fill="#000000" fill-rule="nonzero" fill-opacity="1" /><path clip-path="url(#clip430)" d="M66.9365 552.485 Q63.3254 552.485 61.4967 556.049 Q59.6912 559.591 59.6912 566.721 Q59.6912 573.827 61.4967 577.392 Q63.3254 580.934 66.9365 580.934 Q70.5707 580.934 72.3763 577.392 Q74.205 573.827 74.205 566.721 Q74.205 559.591 72.3763 556.049 Q70.5707 552.485 66.9365 552.485 M66.9365 548.781 Q72.7467 548.781 75.8022 553.387 Q78.8809 557.971 78.8809 566.721 Q78.8809 575.448 75.8022 580.054 Q72.7467 584.637 66.9365 584.637 Q61.1264 584.637 58.0477 580.054 Q54.9921 575.448 54.9921 566.721 Q54.9921 557.971 58.0477 553.387 Q61.1264 548.781 66.9365 548.781 Z" fill="#000000" fill-rule="nonzero" fill-opacity="1" /><path clip-path="url(#clip430)" d="M87.0984 578.086 L91.9827 578.086 L91.9827 583.966 L87.0984 583.966 L87.0984 578.086 Z" fill="#000000" fill-rule="nonzero" fill-opacity="1" /><path clip-path="url(#clip430)" d="M102.214 549.406 L120.57 549.406 L120.57 553.341 L106.496 553.341 L106.496 561.813 Q107.515 561.466 108.534 561.304 Q109.552 561.119 110.571 561.119 Q116.358 561.119 119.737 564.29 Q123.117 567.461 123.117 572.878 Q123.117 578.457 119.645 581.559 Q116.172 584.637 109.853 584.637 Q107.677 584.637 105.409 584.267 Q103.163 583.897 100.756 583.156 L100.756 578.457 Q102.839 579.591 105.061 580.147 Q107.284 580.702 109.76 580.702 Q113.765 580.702 116.103 578.596 Q118.441 576.489 118.441 572.878 Q118.441 569.267 116.103 567.161 Q113.765 565.054 109.76 565.054 Q107.885 565.054 106.01 565.471 Q104.159 565.887 102.214 566.767 L102.214 549.406 Z" fill="#000000" fill-rule="nonzero" fill-opacity="1" /><path clip-path="url(#clip430)" d="M142.33 552.485 Q138.719 552.485 136.89 556.049 Q135.084 559.591 135.084 566.721 Q135.084 573.827 136.89 577.392 Q138.719 580.934 142.33 580.934 Q145.964 580.934 147.769 577.392 Q149.598 573.827 149.598 566.721 Q149.598 559.591 147.769 556.049 Q145.964 552.485 142.33 552.485 M142.33 548.781 Q148.14 548.781 151.195 553.387 Q154.274 557.971 154.274 566.721 Q154.274 575.448 151.195 580.054 Q148.14 584.637 142.33 584.637 Q136.519 584.637 133.441 580.054 Q130.385 575.448 130.385 566.721 Q130.385 557.971 133.441 553.387 Q136.519 548.781 142.33 548.781 Z" fill="#000000" fill-rule="nonzero" fill-opacity="1" /><path clip-path="url(#clip430)" d="M67.9319 307.465 Q64.3208 307.465 62.4921 311.03 Q60.6865 314.571 60.6865 321.701 Q60.6865 328.807 62.4921 332.372 Q64.3208 335.914 67.9319 335.914 Q71.5661 335.914 73.3717 332.372 Q75.2004 328.807 75.2004 321.701 Q75.2004 314.571 73.3717 311.03 Q71.5661 307.465 67.9319 307.465 M67.9319 303.761 Q73.742 303.761 76.7976 308.368 Q79.8763 312.951 79.8763 321.701 Q79.8763 330.428 76.7976 335.034 Q73.742 339.618 67.9319 339.618 Q62.1217 339.618 59.043 335.034 Q55.9875 330.428 55.9875 321.701 Q55.9875 312.951 59.043 308.368 Q62.1217 303.761 67.9319 303.761 Z" fill="#000000" fill-rule="nonzero" fill-opacity="1" /><path clip-path="url(#clip430)" d="M88.0938 333.067 L92.978 333.067 L92.978 338.946 L88.0938 338.946 L88.0938 333.067 Z" fill="#000000" fill-rule="nonzero" fill-opacity="1" /><path clip-path="url(#clip430)" d="M101.983 304.386 L124.205 304.386 L124.205 306.377 L111.658 338.946 L106.774 338.946 L118.58 308.321 L101.983 308.321 L101.983 304.386 Z" fill="#000000" fill-rule="nonzero" fill-opacity="1" /><path clip-path="url(#clip430)" d="M133.371 304.386 L151.728 304.386 L151.728 308.321 L137.654 308.321 L137.654 316.794 Q138.672 316.446 139.691 316.284 Q140.709 316.099 141.728 316.099 Q147.515 316.099 150.894 319.27 Q154.274 322.442 154.274 327.858 Q154.274 333.437 150.802 336.539 Q147.33 339.618 141.01 339.618 Q138.834 339.618 136.566 339.247 Q134.32 338.877 131.913 338.136 L131.913 333.437 Q133.996 334.571 136.219 335.127 Q138.441 335.682 140.918 335.682 Q144.922 335.682 147.26 333.576 Q149.598 331.469 149.598 327.858 Q149.598 324.247 147.26 322.141 Q144.922 320.034 140.918 320.034 Q139.043 320.034 137.168 320.451 Q135.316 320.868 133.371 321.747 L133.371 304.386 Z" fill="#000000" fill-rule="nonzero" fill-opacity="1" /><path clip-path="url(#clip430)" d="M57.7467 89.9913 L65.3856 89.9913 L65.3856 63.6257 L57.0754 65.2924 L57.0754 61.0331 L65.3393 59.3665 L70.0152 59.3665 L70.0152 89.9913 L77.654 89.9913 L77.654 93.9265 L57.7467 93.9265 L57.7467 89.9913 Z" fill="#000000" fill-rule="nonzero" fill-opacity="1" /><path clip-path="url(#clip430)" d="M87.0984 88.0469 L91.9827 88.0469 L91.9827 93.9265 L87.0984 93.9265 L87.0984 88.0469 Z" fill="#000000" fill-rule="nonzero" fill-opacity="1" /><path clip-path="url(#clip430)" d="M112.168 62.4452 Q108.557 62.4452 106.728 66.0099 Q104.922 69.5516 104.922 76.6812 Q104.922 83.7876 106.728 87.3524 Q108.557 90.8941 112.168 90.8941 Q115.802 90.8941 117.608 87.3524 Q119.436 83.7876 119.436 76.6812 Q119.436 69.5516 117.608 66.0099 Q115.802 62.4452 112.168 62.4452 M112.168 58.7415 Q117.978 58.7415 121.033 63.3479 Q124.112 67.9312 124.112 76.6812 Q124.112 85.408 121.033 90.0144 Q117.978 94.5978 112.168 94.5978 Q106.358 94.5978 103.279 90.0144 Q100.223 85.408 100.223 76.6812 Q100.223 67.9312 103.279 63.3479 Q106.358 58.7415 112.168 58.7415 Z" fill="#000000" fill-rule="nonzero" fill-opacity="1" /><path clip-path="url(#clip430)" d="M142.33 62.4452 Q138.719 62.4452 136.89 66.0099 Q135.084 69.5516 135.084 76.6812 Q135.084 83.7876 136.89 87.3524 Q138.719 90.8941 142.33 90.8941 Q145.964 90.8941 147.769 87.3524 Q149.598 83.7876 149.598 76.6812 Q149.598 69.5516 147.769 66.0099 Q145.964 62.4452 142.33 62.4452 M142.33 58.7415 Q148.14 58.7415 151.195 63.3479 Q154.274 67.9312 154.274 76.6812 Q154.274 85.408 151.195 90.0144 Q148.14 94.5978 142.33 94.5978 Q136.519 94.5978 133.441 90.0144 Q130.385 85.408 130.385 76.6812 Q130.385 67.9312 133.441 63.3479 Q136.519 58.7415 142.33 58.7415 Z" fill="#000000" fill-rule="nonzero" fill-opacity="1" /><polyline clip-path="url(#clip432)" style="stroke:#009af9; stroke-linecap:round; stroke-linejoin:round; stroke-width:4; stroke-opacity:1; fill:none" points="217.174,1056.73 217.985,1056.73 218.795,1056.73 219.606,1056.73 220.416,1056.73 221.227,1056.73 222.037,1056.73 222.847,1056.73 223.658,1056.73 224.468,1056.73 225.279,1056.73 226.089,1056.73 226.9,1056.73 227.71,1056.73 228.52,1056.73 229.331,1056.73 230.141,1056.73 230.952,1056.73 231.762,1056.73 232.573,1056.73 233.383,1056.73 234.193,1056.73 235.004,1056.73 235.814,1056.73 236.625,1056.73 237.435,1056.73 238.245,1056.73 239.056,1056.73 239.866,1056.73 240.677,1056.73 241.487,1056.73 242.298,1056.73 243.108,1056.73 243.918,1056.73 244.729,1056.73 245.539,1056.73 246.35,1056.73 247.16,1056.73 247.971,1056.73 248.781,1056.73 249.591,1056.73 250.402,1056.73 251.212,1056.73 252.023,1056.73 252.833,1056.73 253.644,1056.73 254.454,1056.73 255.264,1056.73 256.075,1056.73 256.885,1056.73 257.696,1056.73 258.506,1056.73 259.317,1056.73 260.127,1056.73 260.937,1056.73 261.748,1056.73 262.558,1056.73 263.369,1056.73 264.179,1056.73 264.99,1056.73 265.8,1056.73 266.61,1056.73 267.421,1056.73 268.231,1056.73 269.042,1056.73 269.852,1056.73 270.663,1056.73 271.473,1056.73 272.283,1056.73 273.094,1056.73 273.904,1056.73 274.715,1056.73 275.525,1056.73 276.336,1056.73 277.146,1056.73 277.956,1056.73 278.767,1056.73 279.577,1056.73 280.388,1056.73 281.198,1056.73 282.008,1056.73 282.819,1056.73 283.629,1056.73 284.44,1056.73 285.25,1056.73 286.061,1056.73 286.871,1056.73 287.681,1056.73 288.492,1056.73 289.302,1056.73 290.113,1056.73 290.923,1056.73 291.734,1056.73 292.544,1056.73 293.354,1056.73 294.165,1056.73 294.975,1056.73 295.786,1056.73 296.596,1056.73 297.407,1056.73 298.217,1056.73 299.027,1056.73 299.838,1056.73 300.648,1056.73 301.459,1056.73 302.269,1056.73 303.08,1056.73 303.89,1056.73 304.7,1056.73 305.511,1056.73 306.321,1056.73 307.132,1056.73 307.942,1056.73 308.753,1056.73 309.563,1056.73 310.373,1056.73 311.184,1056.73 311.994,1056.73 312.805,1056.73 313.615,1056.73 314.426,1056.73 315.236,1056.73 316.046,1056.73 316.857,1056.73 317.667,1056.73 318.478,1056.73 319.288,1056.73 320.098,1056.73 320.909,1056.73 321.719,1056.73 322.53,1056.73 323.34,1056.73 324.151,1056.73 324.961,1056.73 325.771,1056.73 326.582,1056.73 327.392,1056.73 328.203,1056.73 329.013,1056.73 329.824,1056.73 330.634,1056.73 331.444,1056.73 332.255,1056.73 333.065,1056.73 333.876,1056.73 334.686,1056.73 335.497,1056.73 336.307,1056.73 337.117,1056.73 337.928,1056.73 338.738,1056.73 339.549,1056.73 340.359,1056.73 341.17,1056.73 341.98,1056.73 342.79,1056.73 343.601,1056.73 344.411,1056.73 345.222,1056.73 346.032,1056.73 346.843,1056.73 347.653,1056.73 348.463,1056.73 349.274,1056.73 350.084,1056.73 350.895,1056.73 351.705,1056.73 352.516,1056.73 353.326,1056.73 354.136,1056.73 354.947,1056.73 355.757,1056.73 356.568,1056.73 357.378,1056.73 358.188,1056.73 358.999,1056.73 359.809,1056.73 360.62,1056.73 361.43,1056.73 362.241,1056.73 363.051,1056.73 363.861,1056.73 364.672,1056.73 365.482,1056.73 366.293,1056.73 367.103,1056.73 367.914,1056.73 368.724,1056.73 369.534,1056.73 370.345,1056.73 371.155,1056.73 371.966,1056.73 372.776,1056.73 373.587,1056.73 374.397,1056.73 375.207,1056.73 376.018,1056.73 376.828,1056.73 377.639,1056.73 378.449,1056.73 379.26,1056.73 380.07,1056.73 380.88,1056.73 381.691,1056.73 382.501,1056.73 383.312,1056.73 384.122,1056.73 384.933,1056.73 385.743,1056.73 386.553,1056.73 387.364,1056.73 388.174,1056.73 388.985,1056.73 389.795,1056.73 390.606,1056.73 391.416,1056.73 392.226,1056.73 393.037,1056.73 393.847,1056.73 394.658,1056.73 395.468,1056.73 396.279,1056.73 397.089,1056.73 397.899,1056.73 398.71,1056.73 399.52,1056.73 400.331,1056.73 401.141,1056.73 401.951,1056.73 402.762,1056.73 403.572,1056.73 404.383,1056.73 405.193,1056.73 406.004,1056.73 406.814,1056.73 407.624,1056.73 408.435,1056.73 409.245,1056.73 410.056,1056.73 410.866,1056.73 411.677,1056.73 412.487,1056.73 413.297,1056.73 414.108,1056.73 414.918,1056.73 415.729,1056.73 416.539,1056.73 417.35,1056.73 418.16,1056.73 418.97,1056.73 419.781,1056.73 420.591,1056.73 421.402,1056.73 422.212,1056.73 423.023,1056.73 423.833,1056.73 424.643,1056.73 425.454,1056.73 426.264,1056.73 427.075,1056.73 427.885,1056.73 428.696,1056.73 429.506,1056.73 430.316,1056.73 431.127,1056.73 431.937,1056.73 432.748,1056.73 433.558,1056.73 434.369,1056.73 435.179,1056.73 435.989,1056.73 436.8,1056.73 437.61,1056.73 438.421,1056.73 439.231,1056.73 440.041,1056.73 440.852,1056.73 441.662,1056.73 442.473,1056.73 443.283,1056.73 444.094,1056.73 444.904,1056.73 445.714,1056.73 446.525,1056.73 447.335,1056.73 448.146,1056.73 448.956,1056.73 449.767,1056.73 450.577,1056.73 451.387,1056.73 452.198,1056.73 453.008,1056.73 453.819,1056.73 454.629,1056.73 455.44,1056.73 456.25,1056.73 457.06,1056.73 457.871,1056.73 458.681,1056.73 459.492,1056.73 460.302,1056.73 461.113,1056.73 461.923,1056.73 462.733,1056.73 463.544,1056.73 464.354,1056.73 465.165,1056.73 465.975,1056.73 466.786,1056.73 467.596,1056.73 468.406,1056.73 469.217,1056.73 470.027,1056.73 470.838,1056.73 471.648,1056.73 472.459,1056.73 473.269,1056.73 474.079,1056.73 474.89,1056.73 475.7,1056.73 476.511,1056.73 477.321,1056.73 478.131,1056.73 478.942,1056.73 479.752,1056.73 480.563,1056.73 481.373,1056.73 482.184,1056.73 482.994,1056.73 483.804,1056.73 484.615,1056.73 485.425,1056.73 486.236,1056.73 487.046,1056.73 487.857,1056.73 488.667,1056.73 489.477,1056.73 490.288,1056.73 491.098,1056.73 491.909,1056.73 492.719,1056.73 493.53,1056.73 494.34,1056.73 495.15,1056.73 495.961,1056.73 496.771,1056.73 497.582,1056.73 498.392,1056.73 499.203,1056.73 500.013,1056.73 500.823,1056.73 501.634,1056.73 502.444,1056.73 503.255,1056.73 504.065,1056.73 504.876,1056.73 505.686,1056.73 506.496,1056.73 507.307,1056.73 508.117,1056.73 508.928,1056.73 509.738,1056.73 510.549,1056.73 511.359,1056.73 512.169,1056.73 512.98,1056.73 513.79,1056.73 514.601,1056.73 515.411,1056.73 516.221,1056.73 517.032,1056.73 517.842,1056.73 518.653,1056.73 519.463,1056.73 520.274,1056.73 521.084,1056.73 521.894,1056.73 522.705,1056.73 523.515,1056.73 524.326,1056.73 525.136,1056.73 525.947,1056.73 526.757,1056.73 527.567,1056.73 528.378,1056.73 529.188,1056.73 529.999,1056.73 530.809,1056.73 531.62,1056.73 532.43,1056.73 533.24,1056.73 534.051,1056.73 534.861,1056.73 535.672,1056.73 536.482,1056.73 537.293,1056.73 538.103,1056.73 538.913,1056.73 539.724,1056.73 540.534,1056.73 541.345,1056.73 542.155,1056.73 542.966,1056.73 543.776,1056.73 544.586,1056.73 545.397,1056.73 546.207,1056.73 547.018,1056.73 547.828,1056.73 548.639,1056.73 549.449,1056.73 550.259,1056.73 551.07,1056.73 551.88,1056.73 552.691,1056.73 553.501,1056.73 554.312,1056.73 555.122,1056.73 555.932,1056.73 556.743,1056.73 557.553,1056.73 558.364,1056.73 559.174,1056.73 559.984,1056.73 560.795,1056.73 561.605,1056.73 562.416,1056.73 563.226,1056.73 564.037,1056.73 564.847,1056.73 565.657,1056.73 566.468,1056.73 567.278,1056.73 568.089,1056.73 568.899,1056.73 569.71,1056.73 570.52,1056.73 571.33,1056.73 572.141,1056.73 572.951,1056.73 573.762,1056.73 574.572,1056.73 575.383,1056.73 576.193,1056.73 577.003,1056.73 577.814,1056.73 578.624,1056.73 579.435,1056.73 580.245,1056.73 581.056,1056.73 581.866,1056.73 582.676,1056.73 583.487,1056.73 584.297,1056.73 585.108,1056.73 585.918,1056.73 586.729,1056.73 587.539,1056.73 588.349,1056.73 589.16,1056.73 589.97,1056.73 590.781,1056.73 591.591,1056.73 592.402,1056.73 593.212,1056.73 594.022,1056.73 594.833,1056.73 595.643,1056.73 596.454,1056.73 597.264,1056.73 598.074,1056.73 598.885,1056.73 599.695,1056.73 600.506,1056.73 601.316,1056.73 602.127,1056.73 602.937,1056.73 603.747,1056.73 604.558,1056.73 605.368,1056.73 606.179,1056.73 606.989,1056.73 607.8,1056.73 608.61,1056.73 609.42,1056.73 610.231,1056.73 611.041,1056.73 611.852,1056.73 612.662,1056.73 613.473,1056.73 614.283,1056.73 615.093,1056.73 615.904,1056.73 616.714,1056.73 617.525,1056.73 618.335,1056.73 619.146,1056.73 619.956,1056.73 620.766,1056.73 621.577,1056.73 622.387,1056.73 623.198,1056.73 624.008,1056.73 624.819,1056.73 625.629,1056.73 626.439,1056.73 627.25,1056.73 628.06,1056.73 628.871,1056.73 629.681,1056.73 630.492,1056.73 631.302,1056.73 632.112,1056.73 632.923,1056.73 633.733,1056.73 634.544,1056.73 635.354,1056.73 636.164,1056.73 636.975,1056.73 637.785,1056.73 638.596,1056.73 639.406,1056.73 640.217,1056.73 641.027,1056.73 641.837,1056.73 642.648,1056.73 643.458,1056.73 644.269,1056.73 645.079,1056.73 645.89,1056.73 646.7,1056.73 647.51,1056.73 648.321,1056.73 649.131,1056.73 649.942,1056.73 650.752,1056.73 651.563,1056.73 652.373,1056.73 653.183,1056.73 653.994,1056.73 654.804,1056.73 655.615,1056.73 656.425,1056.73 657.236,1056.73 658.046,1056.73 658.856,1056.73 659.667,1056.73 660.477,1056.73 661.288,1056.73 662.098,1056.73 662.909,1056.73 663.719,1056.73 664.529,1056.73 665.34,1056.73 666.15,1056.73 666.961,1056.73 667.771,1056.73 668.582,1056.73 669.392,1056.73 670.202,1056.73 671.013,1056.73 671.823,1056.73 672.634,1056.73 673.444,1056.73 674.254,1056.73 675.065,1056.73 675.875,1056.73 676.686,1056.73 677.496,1056.73 678.307,1056.73 679.117,1056.73 679.927,1056.73 680.738,1056.73 681.548,1056.73 682.359,1056.73 683.169,1056.73 683.98,1056.73 684.79,1056.73 685.6,1056.73 686.411,1056.73 687.221,1056.73 688.032,1056.73 688.842,1056.73 689.653,1056.73 690.463,1056.73 691.273,1056.73 692.084,1056.73 692.894,1056.73 693.705,1056.73 694.515,1056.73 695.326,1056.73 696.136,1056.73 696.946,1056.73 697.757,1056.73 698.567,1056.73 699.378,1056.73 700.188,1056.73 700.999,1056.73 701.809,1056.73 702.619,1056.73 703.43,1056.73 704.24,1056.73 705.051,1056.73 705.861,1056.73 706.672,1056.73 707.482,1056.73 708.292,1056.73 709.103,1056.73 709.913,1056.73 710.724,1056.73 711.534,1056.73 712.345,1056.73 713.155,1056.73 713.965,1056.73 714.776,1056.73 715.586,1056.73 716.397,1056.73 717.207,1056.73 718.017,1056.73 718.828,1056.73 719.638,1056.73 720.449,1056.73 721.259,1056.73 722.07,1056.73 722.88,1056.73 723.69,1056.73 724.501,1056.73 725.311,1056.73 726.122,1056.73 726.932,1056.73 727.743,1056.73 728.553,1056.73 729.363,1056.73 730.174,1056.73 730.984,1056.73 731.795,1056.73 732.605,1056.73 733.416,1056.73 734.226,1056.73 735.036,1056.73 735.847,1056.73 736.657,1056.73 737.468,1056.73 738.278,1056.73 739.089,1056.73 739.899,1056.73 740.709,1056.73 741.52,1056.73 742.33,1056.73 743.141,1056.73 743.951,1056.73 744.762,1056.73 745.572,1056.73 746.382,1056.73 747.193,1056.73 748.003,1056.73 748.814,1056.73 749.624,1056.73 750.435,1056.73 751.245,1056.73 752.055,1056.73 752.866,1056.73 753.676,1056.73 754.487,1056.73 755.297,1056.73 756.107,1056.73 756.918,1056.73 757.728,1056.73 758.539,1056.73 759.349,1056.73 760.16,1056.73 760.97,1056.73 761.78,1056.73 762.591,1056.73 763.401,1056.73 764.212,1056.73 765.022,1056.73 765.833,1056.73 766.643,1056.73 767.453,1056.73 768.264,1056.73 769.074,1056.73 769.885,1056.73 770.695,1056.73 771.506,1056.73 772.316,1056.73 773.126,1056.73 773.937,1056.73 774.747,1056.73 775.558,1056.73 776.368,1056.73 777.179,1056.73 777.989,1056.73 778.799,1056.73 779.61,1056.73 780.42,1056.73 781.231,1056.73 782.041,1056.73 782.852,1056.73 783.662,1056.73 784.472,1056.73 785.283,1056.73 786.093,1056.73 786.904,1056.73 787.714,1056.73 788.525,1056.73 789.335,1056.73 790.145,1056.73 790.956,1056.73 791.766,1056.73 792.577,1056.73 793.387,1056.73 794.197,1056.73 795.008,1056.73 795.818,1056.73 796.629,1056.73 797.439,1056.73 798.25,1056.73 799.06,1056.73 799.87,1056.73 800.681,1056.73 801.491,1056.73 802.302,1056.73 803.112,1056.73 803.923,1056.73 804.733,1056.73 805.543,1056.73 806.354,1056.73 807.164,1056.73 807.975,1056.73 808.785,1056.73 809.596,1056.73 810.406,1056.73 811.216,1056.73 812.027,1056.73 812.837,1056.73 813.648,1056.73 814.458,1056.73 815.269,1056.73 816.079,1056.73 816.889,1056.73 817.7,1056.73 818.51,1056.73 819.321,1056.73 820.131,1056.73 820.942,1056.73 821.752,1056.73 822.562,1056.73 823.373,1056.73 824.183,1056.73 824.994,1056.73 825.804,1056.73 826.615,1056.73 827.425,1056.73 828.235,1056.73 829.046,1056.73 829.856,1056.73 830.667,1056.73 831.477,1056.73 832.288,1056.73 833.098,1056.73 833.908,1056.73 834.719,1056.73 835.529,1056.73 836.34,1056.73 837.15,1056.73 837.96,1056.73 838.771,1056.73 839.581,1056.73 840.392,1056.73 841.202,1056.73 842.013,1056.73 842.823,1056.73 843.633,1056.73 844.444,1056.73 845.254,1056.73 846.065,1056.73 846.875,1056.73 847.686,1056.73 848.496,1056.73 849.306,1056.73 850.117,1056.73 850.927,1056.73 851.738,1056.73 852.548,1056.73 853.359,1056.73 854.169,1056.73 854.979,1056.73 855.79,1056.73 856.6,1056.73 857.411,1056.73 858.221,1056.73 859.032,1056.73 859.842,1056.73 860.652,1056.73 861.463,1056.73 862.273,1056.73 863.084,1056.73 863.894,1056.73 864.705,1056.73 865.515,1056.73 866.325,76.6465 867.136,76.6465 867.946,76.6465 868.757,76.6465 869.567,76.6465 870.378,76.6465 871.188,76.6465 871.998,76.6465 872.809,76.6465 873.619,76.6465 874.43,76.6465 875.24,76.6465 876.05,76.6465 876.861,76.6465 877.671,76.6465 878.482,76.6465 879.292,76.6465 880.103,76.6465 880.913,76.6465 881.723,76.6465 882.534,76.6465 883.344,76.6465 884.155,76.6465 884.965,76.6465 885.776,76.6465 886.586,76.6465 887.396,76.6465 888.207,76.6465 889.017,76.6465 889.828,76.6465 890.638,76.6465 891.449,76.6465 892.259,76.6465 893.069,76.6465 893.88,76.6465 894.69,76.6465 895.501,76.6465 896.311,76.6465 897.122,76.6465 897.932,76.6465 898.742,76.6465 899.553,76.6465 900.363,76.6465 901.174,76.6465 901.984,76.6465 902.795,76.6465 903.605,76.6465 904.415,76.6465 905.226,76.6465 906.036,76.6465 906.847,76.6465 907.657,76.6465 908.468,76.6465 909.278,76.6465 910.088,76.6465 910.899,76.6465 911.709,76.6465 912.52,76.6465 913.33,76.6465 914.14,76.6465 914.951,76.6465 915.761,76.6465 916.572,76.6465 917.382,76.6465 918.193,76.6465 919.003,76.6465 919.813,76.6465 920.624,76.6465 921.434,76.6465 922.245,76.6465 923.055,76.6465 923.866,76.6465 924.676,76.6465 925.486,76.6465 926.297,76.6465 927.107,76.6465 927.918,76.6465 928.728,76.6465 929.539,76.6465 930.349,76.6465 931.159,76.6465 931.97,76.6465 932.78,76.6465 933.591,76.6465 934.401,76.6465 935.212,76.6465 936.022,76.6465 936.832,76.6465 937.643,76.6465 938.453,76.6465 939.264,76.6465 940.074,76.6465 940.885,76.6465 941.695,76.6465 942.505,76.6465 943.316,76.6465 944.126,76.6465 944.937,76.6465 945.747,76.6465 946.558,76.6465 947.368,76.6465 948.178,76.6465 948.989,76.6465 949.799,76.6465 950.61,76.6465 951.42,76.6465 952.23,76.6465 953.041,76.6465 953.851,76.6465 954.662,76.6465 955.472,76.6465 956.283,76.6465 957.093,76.6465 957.903,76.6465 958.714,76.6465 959.524,76.6465 960.335,76.6465 961.145,76.6465 961.956,76.6465 962.766,76.6465 963.576,76.6465 964.387,76.6465 965.197,76.6465 966.008,76.6465 966.818,76.6465 967.629,76.6465 968.439,76.6465 969.249,76.6465 970.06,76.6465 970.87,76.6465 971.681,76.6465 972.491,76.6465 973.302,76.6465 974.112,76.6465 974.922,76.6465 975.733,76.6465 976.543,76.6465 977.354,76.6465 978.164,76.6465 978.975,76.6465 979.785,76.6465 980.595,76.6465 981.406,76.6465 982.216,76.6465 983.027,76.6465 983.837,76.6465 984.648,76.6465 985.458,76.6465 986.268,76.6465 987.079,76.6465 987.889,76.6465 988.7,76.6465 989.51,76.6465 990.321,76.6465 991.131,76.6465 991.941,76.6465 992.752,76.6465 993.562,76.6465 994.373,76.6465 995.183,76.6465 995.993,76.6465 996.804,76.6465 997.614,76.6465 998.425,76.6465 999.235,76.6465 1000.05,76.6465 1000.86,76.6465 1001.67,76.6465 1002.48,76.6465 1003.29,76.6465 1004.1,76.6465 1004.91,76.6465 1005.72,76.6465 1006.53,76.6465 1007.34,76.6465 1008.15,76.6465 1008.96,76.6465 1009.77,76.6465 1010.58,76.6465 1011.39,76.6465 1012.2,76.6465 1013.01,76.6465 1013.82,76.6465 1014.63,76.6465 1015.44,76.6465 1016.25,76.6465 1017.06,76.6465 1017.87,76.6465 1018.69,76.6465 1019.5,76.6465 1020.31,76.6465 1021.12,76.6465 1021.93,76.6465 1022.74,76.6465 1023.55,76.6465 1024.36,76.6465 1025.17,76.6465 1025.98,76.6465 1026.79,76.6465 1027.6,76.6465 1028.41,76.6465 1029.22,76.6465 1030.03,76.6465 1030.84,76.6465 1031.65,76.6465 1032.46,76.6465 1033.27,76.6465 1034.08,76.6465 1034.89,76.6465 1035.7,76.6465 1036.51,76.6465 1037.33,76.6465 1038.14,76.6465 1038.95,76.6465 1039.76,76.6465 1040.57,76.6465 1041.38,76.6465 1042.19,76.6465 1043,76.6465 1043.81,76.6465 1044.62,76.6465 1045.43,76.6465 1046.24,76.6465 1047.05,76.6465 1047.86,76.6465 1048.67,76.6465 1049.48,76.6465 1050.29,76.6465 1051.1,76.6465 1051.91,76.6465 1052.72,76.6465 1053.53,76.6465 1054.34,76.6465 1055.15,76.6465 1055.96,76.6465 1056.78,76.6465 1057.59,76.6465 1058.4,76.6465 1059.21,76.6465 1060.02,76.6465 1060.83,76.6465 1061.64,76.6465 1062.45,76.6465 1063.26,76.6465 1064.07,76.6465 1064.88,76.6465 1065.69,76.6465 1066.5,76.6465 1067.31,76.6465 1068.12,76.6465 1068.93,76.6465 1069.74,76.6465 1070.55,76.6465 1071.36,76.6465 1072.17,76.6465 1072.98,76.6465 1073.79,76.6465 1074.6,76.6465 1075.42,76.6465 1076.23,76.6465 1077.04,76.6465 1077.85,76.6465 1078.66,76.6465 1079.47,76.6465 1080.28,76.6465 1081.09,76.6465 1081.9,76.6465 1082.71,76.6465 1083.52,76.6465 1084.33,76.6465 1085.14,76.6465 1085.95,76.6465 1086.76,76.6465 1087.57,76.6465 1088.38,76.6465 1089.19,76.6465 1090,76.6465 1090.81,76.6465 1091.62,76.6465 1092.43,76.6465 1093.24,76.6465 1094.05,76.6465 1094.87,76.6465 1095.68,76.6465 1096.49,76.6465 1097.3,76.6465 1098.11,76.6465 1098.92,76.6465 1099.73,76.6465 1100.54,76.6465 1101.35,76.6465 1102.16,76.6465 1102.97,76.6465 1103.78,76.6465 1104.59,76.6465 1105.4,76.6465 1106.21,76.6465 1107.02,76.6465 1107.83,76.6465 1108.64,76.6465 1109.45,76.6465 1110.26,76.6465 1111.07,76.6465 1111.88,76.6465 1112.69,76.6465 1113.51,76.6465 1114.32,76.6465 1115.13,76.6465 1115.94,76.6465 1116.75,76.6465 1117.56,76.6465 1118.37,76.6465 1119.18,76.6465 1119.99,76.6465 1120.8,76.6465 1121.61,76.6465 1122.42,76.6465 1123.23,76.6465 1124.04,76.6465 1124.85,76.6465 1125.66,76.6465 1126.47,76.6465 1127.28,76.6465 1128.09,76.6465 1128.9,76.6465 1129.71,76.6465 1130.52,76.6465 1131.33,76.6465 1132.14,76.6465 1132.96,76.6465 1133.77,76.6465 1134.58,76.6465 1135.39,76.6465 1136.2,76.6465 1137.01,76.6465 1137.82,76.6465 1138.63,76.6465 1139.44,76.6465 1140.25,76.6465 1141.06,76.6465 1141.87,76.6465 1142.68,76.6465 1143.49,76.6465 1144.3,76.6465 1145.11,76.6465 1145.92,76.6465 1146.73,76.6465 1147.54,76.6465 1148.35,76.6465 1149.16,76.6465 1149.97,76.6465 1150.78,76.6465 1151.6,76.6465 1152.41,76.6465 1153.22,76.6465 1154.03,76.6465 1154.84,76.6465 1155.65,76.6465 1156.46,76.6465 1157.27,76.6465 1158.08,76.6465 1158.89,76.6465 1159.7,76.6465 1160.51,76.6465 1161.32,76.6465 1162.13,76.6465 1162.94,76.6465 1163.75,76.6465 1164.56,76.6465 1165.37,76.6465 1166.18,76.6465 1166.99,76.6465 1167.8,76.6465 1168.61,76.6465 1169.42,76.6465 1170.23,76.6465 1171.05,76.6465 1171.86,76.6465 1172.67,76.6465 1173.48,76.6465 1174.29,76.6465 1175.1,76.6465 1175.91,76.6465 1176.72,76.6465 1177.53,76.6465 1178.34,76.6465 1179.15,76.6465 1179.96,76.6465 1180.77,76.6465 1181.58,76.6465 1182.39,76.6465 1183.2,76.6465 1184.01,76.6465 1184.82,76.6465 1185.63,76.6465 1186.44,76.6465 1187.25,76.6465 1188.06,76.6465 1188.87,76.6465 1189.69,76.6465 1190.5,76.6465 1191.31,76.6465 1192.12,76.6465 1192.93,76.6465 1193.74,76.6465 1194.55,76.6465 1195.36,76.6465 1196.17,76.6465 1196.98,76.6465 1197.79,76.6465 1198.6,76.6465 1199.41,76.6465 1200.22,76.6465 1201.03,76.6465 1201.84,76.6465 1202.65,76.6465 1203.46,76.6465 1204.27,76.6465 1205.08,76.6465 1205.89,76.6465 1206.7,76.6465 1207.51,76.6465 1208.33,76.6465 1209.14,76.6465 1209.95,76.6465 1210.76,76.6465 1211.57,76.6465 1212.38,76.6465 1213.19,76.6465 1214,76.6465 1214.81,76.6465 1215.62,76.6465 1216.43,76.6465 1217.24,76.6465 1218.05,76.6465 1218.86,76.6465 1219.67,76.6465 1220.48,76.6465 1221.29,76.6465 1222.1,76.6465 1222.91,76.6465 1223.72,76.6465 1224.53,76.6465 1225.34,76.6465 1226.15,76.6465 1226.96,76.6465 1227.78,76.6465 1228.59,76.6465 1229.4,76.6465 1230.21,76.6465 1231.02,76.6465 1231.83,76.6465 1232.64,76.6465 1233.45,76.6465 1234.26,76.6465 1235.07,76.6465 1235.88,76.6465 1236.69,76.6465 1237.5,76.6465 1238.31,76.6465 1239.12,76.6465 1239.93,76.6465 1240.74,76.6465 1241.55,76.6465 1242.36,76.6465 1243.17,76.6465 1243.98,76.6465 1244.79,76.6465 1245.6,76.6465 1246.42,76.6465 1247.23,76.6465 1248.04,76.6465 1248.85,76.6465 1249.66,76.6465 1250.47,76.6465 1251.28,76.6465 1252.09,76.6465 1252.9,76.6465 1253.71,76.6465 1254.52,76.6465 1255.33,76.6465 1256.14,76.6465 1256.95,76.6465 1257.76,76.6465 1258.57,76.6465 1259.38,76.6465 1260.19,76.6465 1261,76.6465 1261.81,76.6465 1262.62,76.6465 1263.43,76.6465 1264.24,76.6465 1265.05,76.6465 1265.87,76.6465 1266.68,76.6465 1267.49,76.6465 1268.3,76.6465 1269.11,76.6465 1269.92,76.6465 1270.73,76.6465 1271.54,76.6465 1272.35,76.6465 1273.16,76.6465 1273.97,76.6465 1274.78,76.6465 1275.59,76.6465 1276.4,76.6465 1277.21,76.6465 1278.02,76.6465 1278.83,76.6465 1279.64,76.6465 1280.45,76.6465 1281.26,76.6465 1282.07,76.6465 1282.88,76.6465 1283.69,76.6465 1284.51,76.6465 1285.32,76.6465 1286.13,76.6465 1286.94,76.6465 1287.75,76.6465 1288.56,76.6465 1289.37,76.6465 1290.18,76.6465 1290.99,76.6465 1291.8,76.6465 1292.61,76.6465 1293.42,76.6465 1294.23,76.6465 1295.04,76.6465 1295.85,76.6465 1296.66,76.6465 1297.47,76.6465 1298.28,76.6465 1299.09,76.6465 1299.9,76.6465 1300.71,76.6465 1301.52,76.6465 1302.33,76.6465 1303.14,76.6465 1303.96,76.6465 1304.77,76.6465 1305.58,76.6465 1306.39,76.6465 1307.2,76.6465 1308.01,76.6465 1308.82,76.6465 1309.63,76.6465 1310.44,76.6465 1311.25,76.6465 1312.06,76.6465 1312.87,76.6465 1313.68,76.6465 1314.49,76.6465 1315.3,76.6465 1316.11,76.6465 1316.92,76.6465 1317.73,76.6465 1318.54,76.6465 1319.35,76.6465 1320.16,76.6465 1320.97,76.6465 1321.78,76.6465 1322.6,76.6465 1323.41,76.6465 1324.22,76.6465 1325.03,76.6465 1325.84,76.6465 1326.65,76.6465 1327.46,76.6465 1328.27,76.6465 1329.08,76.6465 1329.89,76.6465 1330.7,76.6465 1331.51,76.6465 1332.32,76.6465 1333.13,76.6465 1333.94,76.6465 1334.75,76.6465 1335.56,76.6465 1336.37,76.6465 1337.18,76.6465 1337.99,76.6465 1338.8,76.6465 1339.61,76.6465 1340.42,76.6465 1341.23,76.6465 1342.05,76.6465 1342.86,76.6465 1343.67,76.6465 1344.48,76.6465 1345.29,76.6465 1346.1,76.6465 1346.91,76.6465 1347.72,76.6465 1348.53,76.6465 1349.34,76.6465 1350.15,76.6465 1350.96,76.6465 1351.77,76.6465 1352.58,76.6465 1353.39,76.6465 1354.2,76.6465 1355.01,76.6465 1355.82,76.6465 1356.63,76.6465 1357.44,76.6465 1358.25,76.6465 1359.06,76.6465 1359.87,76.6465 1360.69,76.6465 1361.5,76.6465 1362.31,76.6465 1363.12,76.6465 1363.93,76.6465 1364.74,76.6465 1365.55,76.6465 1366.36,76.6465 1367.17,76.6465 1367.98,76.6465 1368.79,76.6465 1369.6,76.6465 1370.41,76.6465 1371.22,76.6465 1372.03,76.6465 1372.84,76.6465 1373.65,76.6465 1374.46,76.6465 1375.27,76.6465 1376.08,76.6465 1376.89,76.6465 1377.7,76.6465 1378.51,76.6465 1379.32,76.6465 1380.14,76.6465 1380.95,76.6465 1381.76,76.6465 1382.57,76.6465 1383.38,76.6465 1384.19,76.6465 1385,76.6465 1385.81,76.6465 1386.62,76.6465 1387.43,76.6465 1388.24,76.6465 1389.05,76.6465 1389.86,76.6465 1390.67,76.6465 1391.48,76.6465 1392.29,76.6465 1393.1,76.6465 1393.91,76.6465 1394.72,76.6465 1395.53,76.6465 1396.34,76.6465 1397.15,76.6465 1397.96,76.6465 1398.78,76.6465 1399.59,76.6465 1400.4,76.6465 1401.21,76.6465 1402.02,76.6465 1402.83,76.6465 1403.64,76.6465 1404.45,76.6465 1405.26,76.6465 1406.07,76.6465 1406.88,76.6465 1407.69,76.6465 1408.5,76.6465 1409.31,76.6465 1410.12,76.6465 1410.93,76.6465 1411.74,76.6465 1412.55,76.6465 1413.36,76.6465 1414.17,76.6465 1414.98,76.6465 1415.79,76.6465 1416.6,76.6465 1417.41,76.6465 1418.23,76.6465 1419.04,76.6465 1419.85,76.6465 1420.66,76.6465 1421.47,76.6465 1422.28,76.6465 1423.09,76.6465 1423.9,76.6465 1424.71,76.6465 1425.52,76.6465 1426.33,76.6465 1427.14,76.6465 1427.95,76.6465 1428.76,76.6465 1429.57,76.6465 1430.38,76.6465 1431.19,76.6465 1432,76.6465 1432.81,76.6465 1433.62,76.6465 1434.43,76.6465 1435.24,76.6465 1436.05,76.6465 1436.87,76.6465 1437.68,76.6465 1438.49,76.6465 1439.3,76.6465 1440.11,76.6465 1440.92,76.6465 1441.73,76.6465 1442.54,76.6465 1443.35,76.6465 1444.16,76.6465 1444.97,76.6465 1445.78,76.6465 1446.59,76.6465 1447.4,76.6465 1448.21,76.6465 1449.02,76.6465 1449.83,76.6465 1450.64,76.6465 1451.45,76.6465 1452.26,76.6465 1453.07,76.6465 1453.88,76.6465 1454.69,76.6465 1455.5,76.6465 1456.32,76.6465 1457.13,76.6465 1457.94,76.6465 1458.75,76.6465 1459.56,76.6465 1460.37,76.6465 1461.18,76.6465 1461.99,76.6465 1462.8,76.6465 1463.61,76.6465 1464.42,76.6465 1465.23,76.6465 1466.04,76.6465 1466.85,76.6465 1467.66,76.6465 1468.47,76.6465 1469.28,76.6465 1470.09,76.6465 1470.9,76.6465 1471.71,76.6465 1472.52,76.6465 1473.33,76.6465 1474.14,76.6465 1474.96,76.6465 1475.77,76.6465 1476.58,76.6465 1477.39,76.6465 1478.2,76.6465 1479.01,76.6465 1479.82,76.6465 1480.63,76.6465 1481.44,76.6465 1482.25,76.6465 1483.06,76.6465 1483.87,76.6465 1484.68,76.6465 1485.49,76.6465 1486.3,76.6465 1487.11,76.6465 1487.92,76.6465 1488.73,76.6465 1489.54,76.6465 1490.35,76.6465 1491.16,76.6465 1491.97,76.6465 1492.78,76.6465 1493.59,76.6465 1494.41,76.6465 1495.22,76.6465 1496.03,76.6465 1496.84,76.6465 1497.65,76.6465 1498.46,76.6465 1499.27,76.6465 1500.08,76.6465 1500.89,76.6465 1501.7,76.6465 1502.51,76.6465 1503.32,76.6465 1504.13,76.6465 1504.94,76.6465 1505.75,76.6465 1506.56,76.6465 1507.37,76.6465 1508.18,76.6465 1508.99,76.6465 1509.8,76.6465 1510.61,76.6465 1511.42,76.6465 1512.23,76.6465 1513.05,76.6465 1513.86,76.6465 "/>
</svg>
