<?xml version="1.0" encoding="utf-8"?>
<svg xmlns="http://www.w3.org/2000/svg" xmlns:xlink="http://www.w3.org/1999/xlink" width="600" height="400" viewBox="0 0 2400 1600">
<defs>
  <clipPath id="clip920">
    <rect x="0" y="0" width="2400" height="1600"/>
  </clipPath>
</defs>
<path clip-path="url(#clip920)" d="M0 1600 L2400 1600 L2400 0 L0 0  Z" fill="#ffffff" fill-rule="evenodd" fill-opacity="1"/>
<defs>
  <clipPath id="clip921">
    <rect x="480" y="0" width="1681" height="1600"/>
  </clipPath>
</defs>
<path clip-path="url(#clip920)" d="M138.867 1423.18 L2352.76 1423.18 L2352.76 47.2441 L138.867 47.2441  Z" fill="#ffffff" fill-rule="evenodd" fill-opacity="1"/>
<defs>
  <clipPath id="clip922">
    <rect x="138" y="47" width="2215" height="1377"/>
  </clipPath>
</defs>
<polyline clip-path="url(#clip922)" style="stroke:#000000; stroke-linecap:round; stroke-linejoin:round; stroke-width:2; stroke-opacity:0.1; fill:none" points="180.427,1423.18 180.427,47.2441 "/>
<polyline clip-path="url(#clip922)" style="stroke:#000000; stroke-linecap:round; stroke-linejoin:round; stroke-width:2; stroke-opacity:0.1; fill:none" points="707.845,1423.18 707.845,47.2441 "/>
<polyline clip-path="url(#clip922)" style="stroke:#000000; stroke-linecap:round; stroke-linejoin:round; stroke-width:2; stroke-opacity:0.1; fill:none" points="1235.26,1423.18 1235.26,47.2441 "/>
<polyline clip-path="url(#clip922)" style="stroke:#000000; stroke-linecap:round; stroke-linejoin:round; stroke-width:2; stroke-opacity:0.1; fill:none" points="1762.68,1423.18 1762.68,47.2441 "/>
<polyline clip-path="url(#clip922)" style="stroke:#000000; stroke-linecap:round; stroke-linejoin:round; stroke-width:2; stroke-opacity:0.1; fill:none" points="2290.1,1423.18 2290.1,47.2441 "/>
<polyline clip-path="url(#clip922)" style="stroke:#000000; stroke-linecap:round; stroke-linejoin:round; stroke-width:2; stroke-opacity:0.1; fill:none" points="138.867,1190.07 2352.76,1190.07 "/>
<polyline clip-path="url(#clip922)" style="stroke:#000000; stroke-linecap:round; stroke-linejoin:round; stroke-width:2; stroke-opacity:0.1; fill:none" points="138.867,924.043 2352.76,924.043 "/>
<polyline clip-path="url(#clip922)" style="stroke:#000000; stroke-linecap:round; stroke-linejoin:round; stroke-width:2; stroke-opacity:0.1; fill:none" points="138.867,658.017 2352.76,658.017 "/>
<polyline clip-path="url(#clip922)" style="stroke:#000000; stroke-linecap:round; stroke-linejoin:round; stroke-width:2; stroke-opacity:0.1; fill:none" points="138.867,391.991 2352.76,391.991 "/>
<polyline clip-path="url(#clip922)" style="stroke:#000000; stroke-linecap:round; stroke-linejoin:round; stroke-width:2; stroke-opacity:0.1; fill:none" points="138.867,125.965 2352.76,125.965 "/>
<polyline clip-path="url(#clip920)" style="stroke:#000000; stroke-linecap:round; stroke-linejoin:round; stroke-width:4; stroke-opacity:1; fill:none" points="138.867,1423.18 2352.76,1423.18 "/>
<polyline clip-path="url(#clip920)" style="stroke:#000000; stroke-linecap:round; stroke-linejoin:round; stroke-width:4; stroke-opacity:1; fill:none" points="180.427,1423.18 180.427,1404.28 "/>
<polyline clip-path="url(#clip920)" style="stroke:#000000; stroke-linecap:round; stroke-linejoin:round; stroke-width:4; stroke-opacity:1; fill:none" points="707.845,1423.18 707.845,1404.28 "/>
<polyline clip-path="url(#clip920)" style="stroke:#000000; stroke-linecap:round; stroke-linejoin:round; stroke-width:4; stroke-opacity:1; fill:none" points="1235.26,1423.18 1235.26,1404.28 "/>
<polyline clip-path="url(#clip920)" style="stroke:#000000; stroke-linecap:round; stroke-linejoin:round; stroke-width:4; stroke-opacity:1; fill:none" points="1762.68,1423.18 1762.68,1404.28 "/>
<polyline clip-path="url(#clip920)" style="stroke:#000000; stroke-linecap:round; stroke-linejoin:round; stroke-width:4; stroke-opacity:1; fill:none" points="2290.1,1423.18 2290.1,1404.28 "/>
<path clip-path="url(#clip920)" d="M180.427 1454.1 Q176.816 1454.1 174.988 1457.66 Q173.182 1461.2 173.182 1468.33 Q173.182 1475.44 174.988 1479.01 Q176.816 1482.55 180.427 1482.55 Q184.062 1482.55 185.867 1479.01 Q187.696 1475.44 187.696 1468.33 Q187.696 1461.2 185.867 1457.66 Q184.062 1454.1 180.427 1454.1 M180.427 1450.39 Q186.238 1450.39 189.293 1455 Q192.372 1459.58 192.372 1468.33 Q192.372 1477.06 189.293 1481.67 Q186.238 1486.25 180.427 1486.25 Q174.617 1486.25 171.539 1481.67 Q168.483 1477.06 168.483 1468.33 Q168.483 1459.58 171.539 1455 Q174.617 1450.39 180.427 1450.39 Z" fill="#000000" fill-rule="nonzero" fill-opacity="1" /><path clip-path="url(#clip920)" d="M687.116 1481.64 L703.435 1481.64 L703.435 1485.58 L681.491 1485.58 L681.491 1481.64 Q684.153 1478.89 688.737 1474.26 Q693.343 1469.61 694.524 1468.27 Q696.769 1465.74 697.648 1464.01 Q698.551 1462.25 698.551 1460.56 Q698.551 1457.8 696.607 1456.07 Q694.686 1454.33 691.584 1454.33 Q689.385 1454.33 686.931 1455.09 Q684.5 1455.86 681.723 1457.41 L681.723 1452.69 Q684.547 1451.55 687 1450.97 Q689.454 1450.39 691.491 1450.39 Q696.861 1450.39 700.056 1453.08 Q703.25 1455.77 703.25 1460.26 Q703.25 1462.39 702.44 1464.31 Q701.653 1466.2 699.547 1468.8 Q698.968 1469.47 695.866 1472.69 Q692.764 1475.88 687.116 1481.64 Z" fill="#000000" fill-rule="nonzero" fill-opacity="1" /><path clip-path="url(#clip920)" d="M713.297 1451.02 L731.653 1451.02 L731.653 1454.96 L717.579 1454.96 L717.579 1463.43 Q718.597 1463.08 719.616 1462.92 Q720.634 1462.73 721.653 1462.73 Q727.44 1462.73 730.82 1465.9 Q734.199 1469.08 734.199 1474.49 Q734.199 1480.07 730.727 1483.17 Q727.255 1486.25 720.935 1486.25 Q718.759 1486.25 716.491 1485.88 Q714.246 1485.51 711.838 1484.77 L711.838 1480.07 Q713.922 1481.2 716.144 1481.76 Q718.366 1482.32 720.843 1482.32 Q724.847 1482.32 727.185 1480.21 Q729.523 1478.1 729.523 1474.49 Q729.523 1470.88 727.185 1468.77 Q724.847 1466.67 720.843 1466.67 Q718.968 1466.67 717.093 1467.08 Q715.241 1467.5 713.297 1468.38 L713.297 1451.02 Z" fill="#000000" fill-rule="nonzero" fill-opacity="1" /><path clip-path="url(#clip920)" d="M1209.96 1451.02 L1228.32 1451.02 L1228.32 1454.96 L1214.24 1454.96 L1214.24 1463.43 Q1215.26 1463.08 1216.28 1462.92 Q1217.3 1462.73 1218.32 1462.73 Q1224.11 1462.73 1227.49 1465.9 Q1230.86 1469.08 1230.86 1474.49 Q1230.86 1480.07 1227.39 1483.17 Q1223.92 1486.25 1217.6 1486.25 Q1215.43 1486.25 1213.16 1485.88 Q1210.91 1485.51 1208.5 1484.77 L1208.5 1480.07 Q1210.59 1481.2 1212.81 1481.76 Q1215.03 1482.32 1217.51 1482.32 Q1221.51 1482.32 1223.85 1480.21 Q1226.19 1478.1 1226.19 1474.49 Q1226.19 1470.88 1223.85 1468.77 Q1221.51 1466.67 1217.51 1466.67 Q1215.63 1466.67 1213.76 1467.08 Q1211.91 1467.5 1209.96 1468.38 L1209.96 1451.02 Z" fill="#000000" fill-rule="nonzero" fill-opacity="1" /><path clip-path="url(#clip920)" d="M1250.08 1454.1 Q1246.47 1454.1 1244.64 1457.66 Q1242.83 1461.2 1242.83 1468.33 Q1242.83 1475.44 1244.64 1479.01 Q1246.47 1482.55 1250.08 1482.55 Q1253.71 1482.55 1255.52 1479.01 Q1257.35 1475.44 1257.35 1468.33 Q1257.35 1461.2 1255.52 1457.66 Q1253.71 1454.1 1250.08 1454.1 M1250.08 1450.39 Q1255.89 1450.39 1258.94 1455 Q1262.02 1459.58 1262.02 1468.33 Q1262.02 1477.06 1258.94 1481.67 Q1255.89 1486.25 1250.08 1486.25 Q1244.27 1486.25 1241.19 1481.67 Q1238.13 1477.06 1238.13 1468.33 Q1238.13 1459.58 1241.19 1455 Q1244.27 1450.39 1250.08 1450.39 Z" fill="#000000" fill-rule="nonzero" fill-opacity="1" /><path clip-path="url(#clip920)" d="M1736.54 1451.02 L1758.76 1451.02 L1758.76 1453.01 L1746.21 1485.58 L1741.33 1485.58 L1753.13 1454.96 L1736.54 1454.96 L1736.54 1451.02 Z" fill="#000000" fill-rule="nonzero" fill-opacity="1" /><path clip-path="url(#clip920)" d="M1767.92 1451.02 L1786.28 1451.02 L1786.28 1454.96 L1772.21 1454.96 L1772.21 1463.43 Q1773.22 1463.08 1774.24 1462.92 Q1775.26 1462.73 1776.28 1462.73 Q1782.07 1462.73 1785.45 1465.9 Q1788.83 1469.08 1788.83 1474.49 Q1788.83 1480.07 1785.35 1483.17 Q1781.88 1486.25 1775.56 1486.25 Q1773.39 1486.25 1771.12 1485.88 Q1768.87 1485.51 1766.47 1484.77 L1766.47 1480.07 Q1768.55 1481.2 1770.77 1481.76 Q1772.99 1482.32 1775.47 1482.32 Q1779.47 1482.32 1781.81 1480.21 Q1784.15 1478.1 1784.15 1474.49 Q1784.15 1470.88 1781.81 1468.77 Q1779.47 1466.67 1775.47 1466.67 Q1773.6 1466.67 1771.72 1467.08 Q1769.87 1467.5 1767.92 1468.38 L1767.92 1451.02 Z" fill="#000000" fill-rule="nonzero" fill-opacity="1" /><path clip-path="url(#clip920)" d="M2249.71 1481.64 L2257.34 1481.64 L2257.34 1455.28 L2249.03 1456.95 L2249.03 1452.69 L2257.3 1451.02 L2261.97 1451.02 L2261.97 1481.64 L2269.61 1481.64 L2269.61 1485.58 L2249.71 1485.58 L2249.71 1481.64 Z" fill="#000000" fill-rule="nonzero" fill-opacity="1" /><path clip-path="url(#clip920)" d="M2289.06 1454.1 Q2285.45 1454.1 2283.62 1457.66 Q2281.81 1461.2 2281.81 1468.33 Q2281.81 1475.44 2283.62 1479.01 Q2285.45 1482.55 2289.06 1482.55 Q2292.69 1482.55 2294.5 1479.01 Q2296.33 1475.44 2296.33 1468.33 Q2296.33 1461.2 2294.5 1457.66 Q2292.69 1454.1 2289.06 1454.1 M2289.06 1450.39 Q2294.87 1450.39 2297.92 1455 Q2301 1459.58 2301 1468.33 Q2301 1477.06 2297.92 1481.67 Q2294.87 1486.25 2289.06 1486.25 Q2283.25 1486.25 2280.17 1481.67 Q2277.11 1477.06 2277.11 1468.33 Q2277.11 1459.58 2280.17 1455 Q2283.25 1450.39 2289.06 1450.39 Z" fill="#000000" fill-rule="nonzero" fill-opacity="1" /><path clip-path="url(#clip920)" d="M2319.22 1454.1 Q2315.61 1454.1 2313.78 1457.66 Q2311.97 1461.2 2311.97 1468.33 Q2311.97 1475.44 2313.78 1479.01 Q2315.61 1482.55 2319.22 1482.55 Q2322.85 1482.55 2324.66 1479.01 Q2326.49 1475.44 2326.49 1468.33 Q2326.49 1461.2 2324.66 1457.66 Q2322.85 1454.1 2319.22 1454.1 M2319.22 1450.39 Q2325.03 1450.39 2328.08 1455 Q2331.16 1459.58 2331.16 1468.33 Q2331.16 1477.06 2328.08 1481.67 Q2325.03 1486.25 2319.22 1486.25 Q2313.41 1486.25 2310.33 1481.67 Q2307.27 1477.06 2307.27 1468.33 Q2307.27 1459.58 2310.33 1455 Q2313.41 1450.39 2319.22 1450.39 Z" fill="#000000" fill-rule="nonzero" fill-opacity="1" /><path clip-path="url(#clip920)" d="M1166 1548.76 L1166 1551.62 L1139.07 1551.62 Q1139.46 1557.67 1142.7 1560.85 Q1145.98 1564 1151.81 1564 Q1155.18 1564 1158.33 1563.17 Q1161.51 1562.35 1164.63 1560.69 L1164.63 1566.23 Q1161.48 1567.57 1158.17 1568.27 Q1154.86 1568.97 1151.46 1568.97 Q1142.93 1568.97 1137.93 1564 Q1132.96 1559.04 1132.96 1550.57 Q1132.96 1541.82 1137.67 1536.69 Q1142.42 1531.54 1150.44 1531.54 Q1157.63 1531.54 1161.8 1536.18 Q1166 1540.8 1166 1548.76 M1160.14 1547.04 Q1160.08 1542.23 1157.44 1539.37 Q1154.83 1536.5 1150.5 1536.5 Q1145.6 1536.5 1142.64 1539.27 Q1139.71 1542.04 1139.27 1547.07 L1160.14 1547.04 Z" fill="#000000" fill-rule="nonzero" fill-opacity="1" /><path clip-path="url(#clip920)" d="M1181.28 1562.7 L1181.28 1581.6 L1175.39 1581.6 L1175.39 1532.4 L1181.28 1532.4 L1181.28 1537.81 Q1183.13 1534.62 1185.93 1533.1 Q1188.76 1531.54 1192.67 1531.54 Q1199.17 1531.54 1203.21 1536.69 Q1207.28 1541.85 1207.28 1550.25 Q1207.28 1558.65 1203.21 1563.81 Q1199.17 1568.97 1192.67 1568.97 Q1188.76 1568.97 1185.93 1567.44 Q1183.13 1565.88 1181.28 1562.7 M1201.2 1550.25 Q1201.2 1543.79 1198.53 1540.13 Q1195.89 1536.44 1191.24 1536.44 Q1186.59 1536.44 1183.92 1540.13 Q1181.28 1543.79 1181.28 1550.25 Q1181.28 1556.71 1183.92 1560.4 Q1186.59 1564.07 1191.24 1564.07 Q1195.89 1564.07 1198.53 1560.4 Q1201.2 1556.71 1201.2 1550.25 Z" fill="#000000" fill-rule="nonzero" fill-opacity="1" /><path clip-path="url(#clip920)" d="M1230.8 1536.5 Q1226.09 1536.5 1223.36 1540.19 Q1220.62 1543.85 1220.62 1550.25 Q1220.62 1556.65 1223.32 1560.34 Q1226.06 1564 1230.8 1564 Q1235.48 1564 1238.22 1560.31 Q1240.96 1556.62 1240.96 1550.25 Q1240.96 1543.92 1238.22 1540.23 Q1235.48 1536.5 1230.8 1536.5 M1230.8 1531.54 Q1238.44 1531.54 1242.8 1536.5 Q1247.16 1541.47 1247.16 1550.25 Q1247.16 1559 1242.8 1564 Q1238.44 1568.97 1230.8 1568.97 Q1223.13 1568.97 1218.77 1564 Q1214.44 1559 1214.44 1550.25 Q1214.44 1541.47 1218.77 1536.5 Q1223.13 1531.54 1230.8 1531.54 Z" fill="#000000" fill-rule="nonzero" fill-opacity="1" /><path clip-path="url(#clip920)" d="M1282.53 1533.76 L1282.53 1539.24 Q1280.04 1537.87 1277.53 1537.2 Q1275.05 1536.5 1272.5 1536.5 Q1266.8 1536.5 1263.65 1540.13 Q1260.5 1543.73 1260.5 1550.25 Q1260.5 1556.78 1263.65 1560.4 Q1266.8 1564 1272.5 1564 Q1275.05 1564 1277.53 1563.33 Q1280.04 1562.63 1282.53 1561.26 L1282.53 1566.68 Q1280.07 1567.82 1277.43 1568.39 Q1274.82 1568.97 1271.86 1568.97 Q1263.81 1568.97 1259.07 1563.91 Q1254.33 1558.85 1254.33 1550.25 Q1254.33 1541.53 1259.1 1536.53 Q1263.91 1531.54 1272.24 1531.54 Q1274.95 1531.54 1277.53 1532.11 Q1280.11 1532.65 1282.53 1533.76 Z" fill="#000000" fill-rule="nonzero" fill-opacity="1" /><path clip-path="url(#clip920)" d="M1322.34 1546.53 L1322.34 1568.04 L1316.49 1568.04 L1316.49 1546.72 Q1316.49 1541.66 1314.51 1539.14 Q1312.54 1536.63 1308.59 1536.63 Q1303.85 1536.63 1301.11 1539.65 Q1298.38 1542.68 1298.38 1547.9 L1298.38 1568.04 L1292.49 1568.04 L1292.49 1518.52 L1298.38 1518.52 L1298.38 1537.93 Q1300.48 1534.72 1303.31 1533.13 Q1306.17 1531.54 1309.9 1531.54 Q1316.04 1531.54 1319.19 1535.36 Q1322.34 1539.14 1322.34 1546.53 Z" fill="#000000" fill-rule="nonzero" fill-opacity="1" /><path clip-path="url(#clip920)" d="M1356.75 1533.45 L1356.75 1538.98 Q1354.27 1537.71 1351.59 1537.07 Q1348.92 1536.44 1346.06 1536.44 Q1341.69 1536.44 1339.5 1537.77 Q1337.33 1539.11 1337.33 1541.79 Q1337.33 1543.82 1338.89 1545 Q1340.45 1546.15 1345.16 1547.2 L1347.17 1547.64 Q1353.41 1548.98 1356.02 1551.43 Q1358.66 1553.85 1358.66 1558.21 Q1358.66 1563.17 1354.71 1566.07 Q1350.8 1568.97 1343.92 1568.97 Q1341.06 1568.97 1337.94 1568.39 Q1334.85 1567.85 1331.41 1566.74 L1331.41 1560.69 Q1334.66 1562.38 1337.81 1563.24 Q1340.96 1564.07 1344.05 1564.07 Q1348.19 1564.07 1350.42 1562.66 Q1352.64 1561.23 1352.64 1558.65 Q1352.64 1556.27 1351.02 1554.99 Q1349.43 1553.72 1343.99 1552.54 L1341.95 1552.07 Q1336.51 1550.92 1334.09 1548.56 Q1331.67 1546.18 1331.67 1542.04 Q1331.67 1537.01 1335.23 1534.27 Q1338.8 1531.54 1345.36 1531.54 Q1348.6 1531.54 1351.47 1532.01 Q1354.33 1532.49 1356.75 1533.45 Z" fill="#000000" fill-rule="nonzero" fill-opacity="1" /><polyline clip-path="url(#clip920)" style="stroke:#000000; stroke-linecap:round; stroke-linejoin:round; stroke-width:4; stroke-opacity:1; fill:none" points="138.867,1423.18 138.867,47.2441 "/>
<polyline clip-path="url(#clip920)" style="stroke:#000000; stroke-linecap:round; stroke-linejoin:round; stroke-width:4; stroke-opacity:1; fill:none" points="138.867,1190.07 157.764,1190.07 "/>
<polyline clip-path="url(#clip920)" style="stroke:#000000; stroke-linecap:round; stroke-linejoin:round; stroke-width:4; stroke-opacity:1; fill:none" points="138.867,924.043 157.764,924.043 "/>
<polyline clip-path="url(#clip920)" style="stroke:#000000; stroke-linecap:round; stroke-linejoin:round; stroke-width:4; stroke-opacity:1; fill:none" points="138.867,658.017 157.764,658.017 "/>
<polyline clip-path="url(#clip920)" style="stroke:#000000; stroke-linecap:round; stroke-linejoin:round; stroke-width:4; stroke-opacity:1; fill:none" points="138.867,391.991 157.764,391.991 "/>
<polyline clip-path="url(#clip920)" style="stroke:#000000; stroke-linecap:round; stroke-linejoin:round; stroke-width:4; stroke-opacity:1; fill:none" points="138.867,125.965 157.764,125.965 "/>
<path clip-path="url(#clip920)" d="M91.3391 1188.21 Q88.191 1188.21 86.3392 1190.36 Q84.5105 1192.51 84.5105 1196.26 Q84.5105 1199.99 86.3392 1202.16 Q88.191 1204.32 91.3391 1204.32 Q94.4873 1204.32 96.316 1202.16 Q98.1678 1199.99 98.1678 1196.26 Q98.1678 1192.51 96.316 1190.36 Q94.4873 1188.21 91.3391 1188.21 M100.621 1173.55 L100.621 1177.81 Q98.8622 1176.98 97.0567 1176.54 Q95.2743 1176.1 93.515 1176.1 Q88.8854 1176.1 86.4318 1179.22 Q84.0012 1182.35 83.654 1188.67 Q85.0197 1186.65 87.0799 1185.59 Q89.1401 1184.5 91.6169 1184.5 Q96.8252 1184.5 99.8345 1187.67 Q102.867 1190.82 102.867 1196.26 Q102.867 1201.58 99.7187 1204.8 Q96.5706 1208.02 91.3391 1208.02 Q85.3438 1208.02 82.1725 1203.44 Q79.0012 1198.83 79.0012 1190.1 Q79.0012 1181.91 82.8901 1177.05 Q86.779 1172.16 93.3299 1172.16 Q95.0891 1172.16 96.8715 1172.51 Q98.6771 1172.86 100.621 1173.55 Z" fill="#000000" fill-rule="nonzero" fill-opacity="1" /><path clip-path="url(#clip920)" d="M81.2466 940.605 L81.2466 936.346 Q83.0058 937.179 84.8114 937.619 Q86.6169 938.059 88.353 938.059 Q92.9826 938.059 95.4132 934.957 Q97.8669 931.832 98.2141 925.489 Q96.8715 927.48 94.8113 928.545 Q92.7512 929.61 90.2512 929.61 Q85.066 929.61 82.0336 926.485 Q79.0244 923.337 79.0244 917.897 Q79.0244 912.573 82.1725 909.355 Q85.3206 906.138 90.5521 906.138 Q96.5474 906.138 99.6956 910.744 Q102.867 915.328 102.867 924.077 Q102.867 932.249 98.978 937.133 Q95.1123 941.994 88.5614 941.994 Q86.8021 941.994 84.9966 941.647 Q83.191 941.3 81.2466 940.605 M90.5521 925.952 Q93.7002 925.952 95.5289 923.8 Q97.3808 921.647 97.3808 917.897 Q97.3808 914.17 95.5289 912.017 Q93.7002 909.841 90.5521 909.841 Q87.404 909.841 85.5521 912.017 Q83.7234 914.17 83.7234 917.897 Q83.7234 921.647 85.5521 923.8 Q87.404 925.952 90.5521 925.952 Z" fill="#000000" fill-rule="nonzero" fill-opacity="1" /><path clip-path="url(#clip920)" d="M53.168 671.362 L60.8069 671.362 L60.8069 644.996 L52.4967 646.663 L52.4967 642.404 L60.7606 640.737 L65.4365 640.737 L65.4365 671.362 L73.0753 671.362 L73.0753 675.297 L53.168 675.297 L53.168 671.362 Z" fill="#000000" fill-rule="nonzero" fill-opacity="1" /><path clip-path="url(#clip920)" d="M86.5475 671.362 L102.867 671.362 L102.867 675.297 L80.9225 675.297 L80.9225 671.362 Q83.5845 668.607 88.1679 663.978 Q92.7743 659.325 93.9549 657.982 Q96.2002 655.459 97.0798 653.723 Q97.9826 651.964 97.9826 650.274 Q97.9826 647.519 96.0382 645.783 Q94.1169 644.047 91.0151 644.047 Q88.816 644.047 86.3623 644.811 Q83.9318 645.575 81.154 647.126 L81.154 642.404 Q83.9781 641.269 86.4318 640.691 Q88.8854 640.112 90.9225 640.112 Q96.2928 640.112 99.4872 642.797 Q102.682 645.482 102.682 649.973 Q102.682 652.103 101.871 654.024 Q101.084 655.922 98.978 658.515 Q98.3993 659.186 95.2974 662.404 Q92.1956 665.598 86.5475 671.362 Z" fill="#000000" fill-rule="nonzero" fill-opacity="1" /><path clip-path="url(#clip920)" d="M52.5662 405.336 L60.205 405.336 L60.205 378.97 L51.8949 380.637 L51.8949 376.378 L60.1587 374.711 L64.8346 374.711 L64.8346 405.336 L72.4735 405.336 L72.4735 409.271 L52.5662 409.271 L52.5662 405.336 Z" fill="#000000" fill-rule="nonzero" fill-opacity="1" /><path clip-path="url(#clip920)" d="M81.9642 374.711 L100.321 374.711 L100.321 378.646 L86.2466 378.646 L86.2466 387.119 Q87.2651 386.771 88.2836 386.609 Q89.3021 386.424 90.3206 386.424 Q96.1076 386.424 99.4872 389.595 Q102.867 392.767 102.867 398.183 Q102.867 403.762 99.3946 406.864 Q95.9224 409.943 89.603 409.943 Q87.4271 409.943 85.1586 409.572 Q82.9133 409.202 80.5059 408.461 L80.5059 403.762 Q82.5892 404.896 84.8114 405.452 Q87.0336 406.007 89.5104 406.007 Q93.515 406.007 95.853 403.901 Q98.1909 401.794 98.1909 398.183 Q98.1909 394.572 95.853 392.466 Q93.515 390.359 89.5104 390.359 Q87.6354 390.359 85.7605 390.776 Q83.9086 391.193 81.9642 392.072 L81.9642 374.711 Z" fill="#000000" fill-rule="nonzero" fill-opacity="1" /><path clip-path="url(#clip920)" d="M51.6634 139.31 L59.3023 139.31 L59.3023 112.945 L50.9921 114.611 L50.9921 110.352 L59.256 108.685 L63.9319 108.685 L63.9319 139.31 L71.5707 139.31 L71.5707 143.245 L51.6634 143.245 L51.6634 139.31 Z" fill="#000000" fill-rule="nonzero" fill-opacity="1" /><path clip-path="url(#clip920)" d="M91.0151 126.834 Q87.6817 126.834 85.7605 128.616 Q83.8623 130.398 83.8623 133.523 Q83.8623 136.648 85.7605 138.431 Q87.6817 140.213 91.0151 140.213 Q94.3484 140.213 96.2697 138.431 Q98.1909 136.625 98.1909 133.523 Q98.1909 130.398 96.2697 128.616 Q94.3715 126.834 91.0151 126.834 M86.3392 124.843 Q83.3299 124.102 81.6401 122.042 Q79.9735 119.982 79.9735 117.019 Q79.9735 112.875 82.9133 110.468 Q85.8762 108.06 91.0151 108.06 Q96.1771 108.06 99.1169 110.468 Q102.057 112.875 102.057 117.019 Q102.057 119.982 100.367 122.042 Q98.7002 124.102 95.7141 124.843 Q99.0937 125.63 100.969 127.921 Q102.867 130.213 102.867 133.523 Q102.867 138.546 99.7882 141.232 Q96.7326 143.917 91.0151 143.917 Q85.2975 143.917 82.2188 141.232 Q79.1633 138.546 79.1633 133.523 Q79.1633 130.213 81.0614 127.921 Q82.9595 125.63 86.3392 124.843 M84.6262 117.459 Q84.6262 120.144 86.2929 121.648 Q87.9827 123.153 91.0151 123.153 Q94.0243 123.153 95.7141 121.648 Q97.4271 120.144 97.4271 117.459 Q97.4271 114.773 95.7141 113.269 Q94.0243 111.764 91.0151 111.764 Q87.9827 111.764 86.2929 113.269 Q84.6262 114.773 84.6262 117.459 Z" fill="#000000" fill-rule="nonzero" fill-opacity="1" /><polyline clip-path="url(#clip922)" style="stroke:#009af9; stroke-linecap:round; stroke-linejoin:round; stroke-width:4; stroke-opacity:1; fill:none" points="201.524,86.1857 222.621,250.224 243.718,396.093 264.814,561.144 285.911,683.737 307.008,750.524 328.104,801.063 349.201,834.296 370.298,870.251 391.395,897.538 412.491,924.724 433.588,954.151 454.685,976.772 475.781,1002.35 496.878,1020.83 517.975,1042.57 539.071,1058.87 560.168,1076.6 581.265,1094.52 602.362,1106.7 623.458,1120.46 644.555,1134.98 665.652,1143.47 686.748,1156.22 707.845,1166.59 728.942,1174.41 750.039,1183.23 771.135,1193.75 792.232,1198.36 813.329,1208 834.425,1214.79 855.522,1218.71 876.619,1226.84 897.716,1231.36 918.812,1237.92 939.909,1242.41 961.006,1247.07 982.102,1251.82 1003.2,1256.87 1024.3,1260.86 1045.39,1265.19 1066.49,1270.37 1087.59,1273.38 1108.68,1277.86 1129.78,1279.72 1150.88,1285.84 1171.97,1287.63 1193.07,1291.76 1214.17,1294.9 1235.26,1297.72 1256.36,1301.28 1277.46,1304.4 1298.55,1306.59 1319.65,1308.77 1340.75,1313.28 1361.84,1315.28 1382.94,1317.39 1404.04,1319.51 1425.13,1320.77 1446.23,1324.87 1467.33,1326.8 1488.42,1328.19 1509.52,1330.46 1530.62,1333.36 1551.71,1334.07 1572.81,1337.45 1593.91,1339.34 1615,1340.76 1636.1,1342.11 1657.2,1344.03 1678.29,1346.6 1699.39,1347.95 1720.49,1349.27 1741.58,1351.28 1762.68,1353.03 1783.78,1354.48 1804.87,1354.98 1825.97,1357.96 1847.07,1359.6 1868.16,1360.47 1889.26,1361.38 1910.36,1362.73 1931.45,1364.3 1952.55,1366.16 1973.65,1367.04 1994.74,1368.27 2015.84,1370.1 2036.94,1370.5 2058.03,1371.96 2079.13,1373.3 2100.23,1374.45 2121.32,1375.31 2142.42,1376.72 2163.52,1378.09 2184.62,1379.63 2205.71,1379.9 2226.81,1381.37 2247.91,1382.51 2269,1383.93 2290.1,1384.24 "/>
<polyline clip-path="url(#clip922)" style="stroke:#e26f46; stroke-linecap:round; stroke-linejoin:round; stroke-width:4; stroke-opacity:1; fill:none" points="201.524,237.889 222.621,345.67 243.718,504.092 264.814,656.417 285.911,747.932 307.008,807.538 328.104,827.366 349.201,845.982 370.298,874.558 391.395,897.994 412.491,910.676 433.588,934.177 454.685,953.902 475.781,981.243 496.878,989.064 517.975,1014.81 539.071,1021.67 560.168,1036.38 581.265,1048.18 602.362,1051.74 623.458,1067.84 644.555,1077.62 665.652,1077.65 686.748,1085.8 707.845,1095.77 728.942,1088.67 750.039,1093.82 771.135,1101.14 792.232,1104.4 813.329,1120.47 834.425,1119.99 855.522,1122.48 876.619,1129.76 897.716,1127.88 918.812,1128.12 939.909,1130.54 961.006,1140.17 982.102,1132.63 1003.2,1139.64 1024.3,1132.8 1045.39,1137.63 1066.49,1144.23 1087.59,1147.26 1108.68,1145.04 1129.78,1149.14 1150.88,1142.51 1171.97,1141.77 1193.07,1154.74 1214.17,1148.49 1235.26,1147.18 1256.36,1154.04 1277.46,1157.94 1298.55,1142.48 1319.65,1150.87 1340.75,1145.55 1361.84,1134.74 1382.94,1148.73 1404.04,1152.64 1425.13,1151.68 1446.23,1145.24 1467.33,1152.57 1488.42,1159.19 1509.52,1148.34 1530.62,1147.1 1551.71,1149.62 1572.81,1145.29 1593.91,1139.96 1615,1147.33 1636.1,1141.66 1657.2,1155.48 1678.29,1151.01 1699.39,1148.94 1720.49,1140.73 1741.58,1136 1762.68,1140.48 1783.78,1151.53 1804.87,1146.53 1825.97,1139.6 1847.07,1140.82 1868.16,1144.61 1889.26,1148.68 1910.36,1132.79 1931.45,1137.6 1952.55,1144.27 1973.65,1134.74 1994.74,1144.38 2015.84,1147.39 2036.94,1137.48 2058.03,1143.44 2079.13,1140.73 2100.23,1130.31 2121.32,1133.18 2142.42,1129.18 2163.52,1125.39 2184.62,1132.05 2205.71,1133.16 2226.81,1127.54 2247.91,1118.91 2269,1141.41 2290.1,1119.14 "/>
<path clip-path="url(#clip920)" d="M1855.88 248.629 L2278.96 248.629 L2278.96 93.1086 L1855.88 93.1086  Z" fill="#ffffff" fill-rule="evenodd" fill-opacity="1"/>
<polyline clip-path="url(#clip920)" style="stroke:#000000; stroke-linecap:round; stroke-linejoin:round; stroke-width:4; stroke-opacity:1; fill:none" points="1855.88,248.629 2278.96,248.629 2278.96,93.1086 1855.88,93.1086 1855.88,248.629 "/>
<polyline clip-path="url(#clip920)" style="stroke:#009af9; stroke-linecap:round; stroke-linejoin:round; stroke-width:4; stroke-opacity:1; fill:none" points="1880.48,144.949 2028.07,144.949 "/>
<path clip-path="url(#clip920)" d="M2060.08 128.942 L2060.08 136.303 L2068.85 136.303 L2068.85 139.613 L2060.08 139.613 L2060.08 153.687 Q2060.08 156.858 2060.94 157.761 Q2061.82 158.664 2064.48 158.664 L2068.85 158.664 L2068.85 162.229 L2064.48 162.229 Q2059.55 162.229 2057.67 160.4 Q2055.8 158.548 2055.8 153.687 L2055.8 139.613 L2052.67 139.613 L2052.67 136.303 L2055.8 136.303 L2055.8 128.942 L2060.08 128.942 Z" fill="#000000" fill-rule="nonzero" fill-opacity="1" /><path clip-path="url(#clip920)" d="M2089.48 140.284 Q2088.76 139.868 2087.9 139.682 Q2087.07 139.474 2086.05 139.474 Q2082.44 139.474 2080.5 141.835 Q2078.57 144.173 2078.57 148.571 L2078.57 162.229 L2074.29 162.229 L2074.29 136.303 L2078.57 136.303 L2078.57 140.331 Q2079.92 137.969 2082.07 136.835 Q2084.22 135.678 2087.3 135.678 Q2087.74 135.678 2088.27 135.747 Q2088.81 135.794 2089.45 135.909 L2089.48 140.284 Z" fill="#000000" fill-rule="nonzero" fill-opacity="1" /><path clip-path="url(#clip920)" d="M2105.73 149.196 Q2100.57 149.196 2098.57 150.377 Q2096.58 151.557 2096.58 154.405 Q2096.58 156.673 2098.07 158.016 Q2099.57 159.335 2102.14 159.335 Q2105.68 159.335 2107.81 156.835 Q2109.96 154.312 2109.96 150.145 L2109.96 149.196 L2105.73 149.196 M2114.22 147.437 L2114.22 162.229 L2109.96 162.229 L2109.96 158.293 Q2108.51 160.655 2106.33 161.789 Q2104.15 162.9 2101.01 162.9 Q2097.02 162.9 2094.66 160.678 Q2092.32 158.432 2092.32 154.682 Q2092.32 150.307 2095.24 148.085 Q2098.18 145.863 2103.99 145.863 L2109.96 145.863 L2109.96 145.446 Q2109.96 142.507 2108.02 140.909 Q2106.1 139.289 2102.6 139.289 Q2100.38 139.289 2098.27 139.821 Q2096.17 140.354 2094.22 141.419 L2094.22 137.483 Q2096.56 136.581 2098.76 136.141 Q2100.96 135.678 2103.04 135.678 Q2108.67 135.678 2111.44 138.594 Q2114.22 141.511 2114.22 147.437 Z" fill="#000000" fill-rule="nonzero" fill-opacity="1" /><path clip-path="url(#clip920)" d="M2123 136.303 L2127.26 136.303 L2127.26 162.229 L2123 162.229 L2123 136.303 M2123 126.21 L2127.26 126.21 L2127.26 131.604 L2123 131.604 L2123 126.21 Z" fill="#000000" fill-rule="nonzero" fill-opacity="1" /><path clip-path="url(#clip920)" d="M2157.72 146.581 L2157.72 162.229 L2153.46 162.229 L2153.46 146.719 Q2153.46 143.039 2152.02 141.21 Q2150.59 139.382 2147.72 139.382 Q2144.27 139.382 2142.28 141.581 Q2140.29 143.78 2140.29 147.576 L2140.29 162.229 L2136 162.229 L2136 136.303 L2140.29 136.303 L2140.29 140.331 Q2141.82 137.993 2143.88 136.835 Q2145.96 135.678 2148.67 135.678 Q2153.13 135.678 2155.43 138.456 Q2157.72 141.21 2157.72 146.581 Z" fill="#000000" fill-rule="nonzero" fill-opacity="1" /><path clip-path="url(#clip920)" d="M2185.91 170.099 L2185.91 173.409 L2161.28 173.409 L2161.28 170.099 L2185.91 170.099 Z" fill="#000000" fill-rule="nonzero" fill-opacity="1" /><path clip-path="url(#clip920)" d="M2194.04 158.34 L2194.04 172.09 L2189.75 172.09 L2189.75 136.303 L2194.04 136.303 L2194.04 140.238 Q2195.38 137.923 2197.42 136.812 Q2199.48 135.678 2202.32 135.678 Q2207.05 135.678 2209.99 139.428 Q2212.95 143.178 2212.95 149.289 Q2212.95 155.4 2209.99 159.15 Q2207.05 162.9 2202.32 162.9 Q2199.48 162.9 2197.42 161.789 Q2195.38 160.655 2194.04 158.34 M2208.53 149.289 Q2208.53 144.59 2206.58 141.928 Q2204.66 139.243 2201.28 139.243 Q2197.9 139.243 2195.96 141.928 Q2194.04 144.59 2194.04 149.289 Q2194.04 153.988 2195.96 156.673 Q2197.9 159.335 2201.28 159.335 Q2204.66 159.335 2206.58 156.673 Q2208.53 153.988 2208.53 149.289 Z" fill="#000000" fill-rule="nonzero" fill-opacity="1" /><path clip-path="url(#clip920)" d="M2224.13 158.34 L2224.13 172.09 L2219.85 172.09 L2219.85 136.303 L2224.13 136.303 L2224.13 140.238 Q2225.47 137.923 2227.51 136.812 Q2229.57 135.678 2232.42 135.678 Q2237.14 135.678 2240.08 139.428 Q2243.04 143.178 2243.04 149.289 Q2243.04 155.4 2240.08 159.15 Q2237.14 162.9 2232.42 162.9 Q2229.57 162.9 2227.51 161.789 Q2225.47 160.655 2224.13 158.34 M2238.62 149.289 Q2238.62 144.59 2236.68 141.928 Q2234.75 139.243 2231.37 139.243 Q2228 139.243 2226.05 141.928 Q2224.13 144.59 2224.13 149.289 Q2224.13 153.988 2226.05 156.673 Q2228 159.335 2231.37 159.335 Q2234.75 159.335 2236.68 156.673 Q2238.62 153.988 2238.62 149.289 Z" fill="#000000" fill-rule="nonzero" fill-opacity="1" /><path clip-path="url(#clip920)" d="M2250.1 126.21 L2254.36 126.21 L2254.36 162.229 L2250.1 162.229 L2250.1 126.21 Z" fill="#000000" fill-rule="nonzero" fill-opacity="1" /><polyline clip-path="url(#clip920)" style="stroke:#e26f46; stroke-linecap:round; stroke-linejoin:round; stroke-width:4; stroke-opacity:1; fill:none" points="1880.48,196.789 2028.07,196.789 "/>
<path clip-path="url(#clip920)" d="M2052.67 188.143 L2057.19 188.143 L2065.29 209.902 L2073.39 188.143 L2077.9 188.143 L2068.18 214.069 L2062.39 214.069 L2052.67 188.143 Z" fill="#000000" fill-rule="nonzero" fill-opacity="1" /><path clip-path="url(#clip920)" d="M2095.57 201.036 Q2090.4 201.036 2088.41 202.217 Q2086.42 203.397 2086.42 206.245 Q2086.42 208.513 2087.9 209.856 Q2089.41 211.175 2091.98 211.175 Q2095.52 211.175 2097.65 208.675 Q2099.8 206.152 2099.8 201.985 L2099.8 201.036 L2095.57 201.036 M2104.06 199.277 L2104.06 214.069 L2099.8 214.069 L2099.8 210.133 Q2098.34 212.495 2096.17 213.629 Q2093.99 214.74 2090.84 214.74 Q2086.86 214.74 2084.5 212.518 Q2082.16 210.272 2082.16 206.522 Q2082.16 202.147 2085.08 199.925 Q2088.02 197.703 2093.83 197.703 L2099.8 197.703 L2099.8 197.286 Q2099.8 194.347 2097.86 192.749 Q2095.94 191.129 2092.44 191.129 Q2090.22 191.129 2088.11 191.661 Q2086.01 192.194 2084.06 193.259 L2084.06 189.323 Q2086.4 188.421 2088.6 187.981 Q2090.8 187.518 2092.88 187.518 Q2098.51 187.518 2101.28 190.434 Q2104.06 193.351 2104.06 199.277 Z" fill="#000000" fill-rule="nonzero" fill-opacity="1" /><path clip-path="url(#clip920)" d="M2112.83 178.05 L2117.09 178.05 L2117.09 214.069 L2112.83 214.069 L2112.83 178.05 Z" fill="#000000" fill-rule="nonzero" fill-opacity="1" /><path clip-path="url(#clip920)" d="M2145.7 221.939 L2145.7 225.249 L2121.07 225.249 L2121.07 221.939 L2145.7 221.939 Z" fill="#000000" fill-rule="nonzero" fill-opacity="1" /><path clip-path="url(#clip920)" d="M2153.83 210.18 L2153.83 223.93 L2149.55 223.93 L2149.55 188.143 L2153.83 188.143 L2153.83 192.078 Q2155.17 189.763 2157.21 188.652 Q2159.27 187.518 2162.12 187.518 Q2166.84 187.518 2169.78 191.268 Q2172.74 195.018 2172.74 201.129 Q2172.74 207.24 2169.78 210.99 Q2166.84 214.74 2162.12 214.74 Q2159.27 214.74 2157.21 213.629 Q2155.17 212.495 2153.83 210.18 M2168.32 201.129 Q2168.32 196.43 2166.38 193.768 Q2164.45 191.083 2161.07 191.083 Q2157.69 191.083 2155.75 193.768 Q2153.83 196.43 2153.83 201.129 Q2153.83 205.828 2155.75 208.513 Q2157.69 211.175 2161.07 211.175 Q2164.45 211.175 2166.38 208.513 Q2168.32 205.828 2168.32 201.129 Z" fill="#000000" fill-rule="nonzero" fill-opacity="1" /><path clip-path="url(#clip920)" d="M2183.92 210.18 L2183.92 223.93 L2179.64 223.93 L2179.64 188.143 L2183.92 188.143 L2183.92 192.078 Q2185.26 189.763 2187.3 188.652 Q2189.36 187.518 2192.21 187.518 Q2196.93 187.518 2199.87 191.268 Q2202.83 195.018 2202.83 201.129 Q2202.83 207.24 2199.87 210.99 Q2196.93 214.74 2192.21 214.74 Q2189.36 214.74 2187.3 213.629 Q2185.26 212.495 2183.92 210.18 M2198.41 201.129 Q2198.41 196.43 2196.47 193.768 Q2194.55 191.083 2191.17 191.083 Q2187.79 191.083 2185.84 193.768 Q2183.92 196.43 2183.92 201.129 Q2183.92 205.828 2185.84 208.513 Q2187.79 211.175 2191.17 211.175 Q2194.55 211.175 2196.47 208.513 Q2198.41 205.828 2198.41 201.129 Z" fill="#000000" fill-rule="nonzero" fill-opacity="1" /><path clip-path="url(#clip920)" d="M2209.89 178.05 L2214.15 178.05 L2214.15 214.069 L2209.89 214.069 L2209.89 178.05 Z" fill="#000000" fill-rule="nonzero" fill-opacity="1" /></svg>
