<?xml version="1.0" encoding="utf-8"?>
<svg xmlns="http://www.w3.org/2000/svg" xmlns:xlink="http://www.w3.org/1999/xlink" width="600" height="400" viewBox="0 0 2400 1600">
<defs>
  <clipPath id="clip740">
    <rect x="0" y="0" width="2400" height="1600"/>
  </clipPath>
</defs>
<path clip-path="url(#clip740)" d="M0 1600 L2400 1600 L2400 0 L0 0  Z" fill="#ffffff" fill-rule="evenodd" fill-opacity="1"/>
<defs>
  <clipPath id="clip741">
    <rect x="480" y="0" width="1681" height="1600"/>
  </clipPath>
</defs>
<path clip-path="url(#clip740)" d="M138.867 1423.18 L2352.76 1423.18 L2352.76 47.2441 L138.867 47.2441  Z" fill="#ffffff" fill-rule="evenodd" fill-opacity="1"/>
<defs>
  <clipPath id="clip742">
    <rect x="138" y="47" width="2215" height="1377"/>
  </clipPath>
</defs>
<polyline clip-path="url(#clip742)" style="stroke:#000000; stroke-linecap:round; stroke-linejoin:round; stroke-width:2; stroke-opacity:0.1; fill:none" points="180.427,1423.18 180.427,47.2441 "/>
<polyline clip-path="url(#clip742)" style="stroke:#000000; stroke-linecap:round; stroke-linejoin:round; stroke-width:2; stroke-opacity:0.1; fill:none" points="707.845,1423.18 707.845,47.2441 "/>
<polyline clip-path="url(#clip742)" style="stroke:#000000; stroke-linecap:round; stroke-linejoin:round; stroke-width:2; stroke-opacity:0.1; fill:none" points="1235.26,1423.18 1235.26,47.2441 "/>
<polyline clip-path="url(#clip742)" style="stroke:#000000; stroke-linecap:round; stroke-linejoin:round; stroke-width:2; stroke-opacity:0.1; fill:none" points="1762.68,1423.18 1762.68,47.2441 "/>
<polyline clip-path="url(#clip742)" style="stroke:#000000; stroke-linecap:round; stroke-linejoin:round; stroke-width:2; stroke-opacity:0.1; fill:none" points="2290.1,1423.18 2290.1,47.2441 "/>
<polyline clip-path="url(#clip742)" style="stroke:#000000; stroke-linecap:round; stroke-linejoin:round; stroke-width:2; stroke-opacity:0.1; fill:none" points="138.867,1181.09 2352.76,1181.09 "/>
<polyline clip-path="url(#clip742)" style="stroke:#000000; stroke-linecap:round; stroke-linejoin:round; stroke-width:2; stroke-opacity:0.1; fill:none" points="138.867,920.045 2352.76,920.045 "/>
<polyline clip-path="url(#clip742)" style="stroke:#000000; stroke-linecap:round; stroke-linejoin:round; stroke-width:2; stroke-opacity:0.1; fill:none" points="138.867,659.006 2352.76,659.006 "/>
<polyline clip-path="url(#clip742)" style="stroke:#000000; stroke-linecap:round; stroke-linejoin:round; stroke-width:2; stroke-opacity:0.1; fill:none" points="138.867,397.966 2352.76,397.966 "/>
<polyline clip-path="url(#clip742)" style="stroke:#000000; stroke-linecap:round; stroke-linejoin:round; stroke-width:2; stroke-opacity:0.1; fill:none" points="138.867,136.926 2352.76,136.926 "/>
<polyline clip-path="url(#clip740)" style="stroke:#000000; stroke-linecap:round; stroke-linejoin:round; stroke-width:4; stroke-opacity:1; fill:none" points="138.867,1423.18 2352.76,1423.18 "/>
<polyline clip-path="url(#clip740)" style="stroke:#000000; stroke-linecap:round; stroke-linejoin:round; stroke-width:4; stroke-opacity:1; fill:none" points="180.427,1423.18 180.427,1404.28 "/>
<polyline clip-path="url(#clip740)" style="stroke:#000000; stroke-linecap:round; stroke-linejoin:round; stroke-width:4; stroke-opacity:1; fill:none" points="707.845,1423.18 707.845,1404.28 "/>
<polyline clip-path="url(#clip740)" style="stroke:#000000; stroke-linecap:round; stroke-linejoin:round; stroke-width:4; stroke-opacity:1; fill:none" points="1235.26,1423.18 1235.26,1404.28 "/>
<polyline clip-path="url(#clip740)" style="stroke:#000000; stroke-linecap:round; stroke-linejoin:round; stroke-width:4; stroke-opacity:1; fill:none" points="1762.68,1423.18 1762.68,1404.28 "/>
<polyline clip-path="url(#clip740)" style="stroke:#000000; stroke-linecap:round; stroke-linejoin:round; stroke-width:4; stroke-opacity:1; fill:none" points="2290.1,1423.18 2290.1,1404.28 "/>
<path clip-path="url(#clip740)" d="M180.427 1454.1 Q176.816 1454.1 174.988 1457.66 Q173.182 1461.2 173.182 1468.33 Q173.182 1475.44 174.988 1479.01 Q176.816 1482.55 180.427 1482.55 Q184.062 1482.55 185.867 1479.01 Q187.696 1475.44 187.696 1468.33 Q187.696 1461.2 185.867 1457.66 Q184.062 1454.1 180.427 1454.1 M180.427 1450.39 Q186.238 1450.39 189.293 1455 Q192.372 1459.58 192.372 1468.33 Q192.372 1477.06 189.293 1481.67 Q186.238 1486.25 180.427 1486.25 Q174.617 1486.25 171.539 1481.67 Q168.483 1477.06 168.483 1468.33 Q168.483 1459.58 171.539 1455 Q174.617 1450.39 180.427 1450.39 Z" fill="#000000" fill-rule="nonzero" fill-opacity="1" /><path clip-path="url(#clip740)" d="M687.116 1481.64 L703.435 1481.64 L703.435 1485.58 L681.491 1485.58 L681.491 1481.64 Q684.153 1478.89 688.737 1474.26 Q693.343 1469.61 694.524 1468.27 Q696.769 1465.74 697.648 1464.01 Q698.551 1462.25 698.551 1460.56 Q698.551 1457.8 696.607 1456.07 Q694.686 1454.33 691.584 1454.33 Q689.385 1454.33 686.931 1455.09 Q684.5 1455.86 681.723 1457.41 L681.723 1452.69 Q684.547 1451.55 687 1450.97 Q689.454 1450.39 691.491 1450.39 Q696.861 1450.39 700.056 1453.08 Q703.25 1455.77 703.25 1460.26 Q703.25 1462.39 702.44 1464.31 Q701.653 1466.2 699.547 1468.8 Q698.968 1469.47 695.866 1472.69 Q692.764 1475.88 687.116 1481.64 Z" fill="#000000" fill-rule="nonzero" fill-opacity="1" /><path clip-path="url(#clip740)" d="M713.297 1451.02 L731.653 1451.02 L731.653 1454.96 L717.579 1454.96 L717.579 1463.43 Q718.597 1463.08 719.616 1462.92 Q720.634 1462.73 721.653 1462.73 Q727.44 1462.73 730.82 1465.9 Q734.199 1469.08 734.199 1474.49 Q734.199 1480.07 730.727 1483.17 Q727.255 1486.25 720.935 1486.25 Q718.759 1486.25 716.491 1485.88 Q714.246 1485.51 711.838 1484.77 L711.838 1480.07 Q713.922 1481.2 716.144 1481.76 Q718.366 1482.32 720.843 1482.32 Q724.847 1482.32 727.185 1480.21 Q729.523 1478.1 729.523 1474.49 Q729.523 1470.88 727.185 1468.77 Q724.847 1466.67 720.843 1466.67 Q718.968 1466.67 717.093 1467.08 Q715.241 1467.5 713.297 1468.38 L713.297 1451.02 Z" fill="#000000" fill-rule="nonzero" fill-opacity="1" /><path clip-path="url(#clip740)" d="M1209.96 1451.02 L1228.32 1451.02 L1228.32 1454.96 L1214.24 1454.96 L1214.24 1463.43 Q1215.26 1463.08 1216.28 1462.92 Q1217.3 1462.73 1218.32 1462.73 Q1224.11 1462.73 1227.49 1465.9 Q1230.86 1469.08 1230.86 1474.49 Q1230.86 1480.07 1227.39 1483.17 Q1223.92 1486.25 1217.6 1486.25 Q1215.43 1486.25 1213.16 1485.88 Q1210.91 1485.51 1208.5 1484.77 L1208.5 1480.07 Q1210.59 1481.2 1212.81 1481.76 Q1215.03 1482.32 1217.51 1482.32 Q1221.51 1482.32 1223.85 1480.21 Q1226.19 1478.1 1226.19 1474.49 Q1226.19 1470.88 1223.85 1468.77 Q1221.51 1466.67 1217.51 1466.67 Q1215.63 1466.67 1213.76 1467.08 Q1211.91 1467.5 1209.96 1468.38 L1209.96 1451.02 Z" fill="#000000" fill-rule="nonzero" fill-opacity="1" /><path clip-path="url(#clip740)" d="M1250.08 1454.1 Q1246.47 1454.1 1244.64 1457.66 Q1242.83 1461.2 1242.83 1468.33 Q1242.83 1475.44 1244.64 1479.01 Q1246.47 1482.55 1250.08 1482.55 Q1253.71 1482.55 1255.52 1479.01 Q1257.35 1475.44 1257.35 1468.33 Q1257.35 1461.2 1255.52 1457.66 Q1253.71 1454.1 1250.08 1454.1 M1250.08 1450.39 Q1255.89 1450.39 1258.94 1455 Q1262.02 1459.58 1262.02 1468.33 Q1262.02 1477.06 1258.94 1481.67 Q1255.89 1486.25 1250.08 1486.25 Q1244.27 1486.25 1241.19 1481.67 Q1238.13 1477.06 1238.13 1468.33 Q1238.13 1459.58 1241.19 1455 Q1244.27 1450.39 1250.08 1450.39 Z" fill="#000000" fill-rule="nonzero" fill-opacity="1" /><path clip-path="url(#clip740)" d="M1736.54 1451.02 L1758.76 1451.02 L1758.76 1453.01 L1746.21 1485.58 L1741.33 1485.58 L1753.13 1454.96 L1736.54 1454.96 L1736.54 1451.02 Z" fill="#000000" fill-rule="nonzero" fill-opacity="1" /><path clip-path="url(#clip740)" d="M1767.92 1451.02 L1786.28 1451.02 L1786.28 1454.96 L1772.21 1454.96 L1772.21 1463.43 Q1773.22 1463.08 1774.24 1462.92 Q1775.26 1462.73 1776.28 1462.73 Q1782.07 1462.73 1785.45 1465.9 Q1788.83 1469.08 1788.83 1474.49 Q1788.83 1480.07 1785.35 1483.17 Q1781.88 1486.25 1775.56 1486.25 Q1773.39 1486.25 1771.12 1485.88 Q1768.87 1485.51 1766.47 1484.77 L1766.47 1480.07 Q1768.55 1481.2 1770.77 1481.76 Q1772.99 1482.32 1775.47 1482.32 Q1779.47 1482.32 1781.81 1480.21 Q1784.15 1478.1 1784.15 1474.49 Q1784.15 1470.88 1781.81 1468.77 Q1779.47 1466.67 1775.47 1466.67 Q1773.6 1466.67 1771.72 1467.08 Q1769.87 1467.5 1767.92 1468.38 L1767.92 1451.02 Z" fill="#000000" fill-rule="nonzero" fill-opacity="1" /><path clip-path="url(#clip740)" d="M2249.71 1481.64 L2257.34 1481.64 L2257.34 1455.28 L2249.03 1456.95 L2249.03 1452.69 L2257.3 1451.02 L2261.97 1451.02 L2261.97 1481.64 L2269.61 1481.64 L2269.61 1485.58 L2249.71 1485.58 L2249.71 1481.64 Z" fill="#000000" fill-rule="nonzero" fill-opacity="1" /><path clip-path="url(#clip740)" d="M2289.06 1454.1 Q2285.45 1454.1 2283.62 1457.66 Q2281.81 1461.2 2281.81 1468.33 Q2281.81 1475.44 2283.62 1479.01 Q2285.45 1482.55 2289.06 1482.55 Q2292.69 1482.55 2294.5 1479.01 Q2296.33 1475.44 2296.33 1468.33 Q2296.33 1461.2 2294.5 1457.66 Q2292.69 1454.1 2289.06 1454.1 M2289.06 1450.39 Q2294.87 1450.39 2297.92 1455 Q2301 1459.58 2301 1468.33 Q2301 1477.06 2297.92 1481.67 Q2294.87 1486.25 2289.06 1486.25 Q2283.25 1486.25 2280.17 1481.67 Q2277.11 1477.06 2277.11 1468.33 Q2277.11 1459.58 2280.17 1455 Q2283.25 1450.39 2289.06 1450.39 Z" fill="#000000" fill-rule="nonzero" fill-opacity="1" /><path clip-path="url(#clip740)" d="M2319.22 1454.1 Q2315.61 1454.1 2313.78 1457.66 Q2311.97 1461.2 2311.97 1468.33 Q2311.97 1475.44 2313.78 1479.01 Q2315.61 1482.55 2319.22 1482.55 Q2322.85 1482.55 2324.66 1479.01 Q2326.49 1475.44 2326.49 1468.33 Q2326.49 1461.2 2324.66 1457.66 Q2322.85 1454.1 2319.22 1454.1 M2319.22 1450.39 Q2325.03 1450.39 2328.08 1455 Q2331.16 1459.58 2331.16 1468.33 Q2331.16 1477.06 2328.08 1481.67 Q2325.03 1486.25 2319.22 1486.25 Q2313.41 1486.25 2310.33 1481.67 Q2307.27 1477.06 2307.27 1468.33 Q2307.27 1459.58 2310.33 1455 Q2313.41 1450.39 2319.22 1450.39 Z" fill="#000000" fill-rule="nonzero" fill-opacity="1" /><path clip-path="url(#clip740)" d="M1166 1548.76 L1166 1551.62 L1139.07 1551.62 Q1139.46 1557.67 1142.7 1560.85 Q1145.98 1564 1151.81 1564 Q1155.18 1564 1158.33 1563.17 Q1161.51 1562.35 1164.63 1560.69 L1164.63 1566.23 Q1161.48 1567.57 1158.17 1568.27 Q1154.86 1568.97 1151.46 1568.97 Q1142.93 1568.97 1137.93 1564 Q1132.96 1559.04 1132.96 1550.57 Q1132.96 1541.82 1137.67 1536.69 Q1142.42 1531.54 1150.44 1531.54 Q1157.63 1531.54 1161.8 1536.18 Q1166 1540.8 1166 1548.76 M1160.14 1547.04 Q1160.08 1542.23 1157.44 1539.37 Q1154.83 1536.5 1150.5 1536.5 Q1145.6 1536.5 1142.64 1539.27 Q1139.71 1542.04 1139.27 1547.07 L1160.14 1547.04 Z" fill="#000000" fill-rule="nonzero" fill-opacity="1" /><path clip-path="url(#clip740)" d="M1181.28 1562.7 L1181.28 1581.6 L1175.39 1581.6 L1175.39 1532.4 L1181.28 1532.4 L1181.28 1537.81 Q1183.13 1534.62 1185.93 1533.1 Q1188.76 1531.54 1192.67 1531.54 Q1199.17 1531.54 1203.21 1536.69 Q1207.28 1541.85 1207.28 1550.25 Q1207.28 1558.65 1203.21 1563.81 Q1199.17 1568.97 1192.67 1568.97 Q1188.76 1568.97 1185.93 1567.44 Q1183.13 1565.88 1181.28 1562.7 M1201.2 1550.25 Q1201.2 1543.79 1198.53 1540.13 Q1195.89 1536.44 1191.24 1536.44 Q1186.59 1536.44 1183.92 1540.13 Q1181.28 1543.79 1181.28 1550.25 Q1181.28 1556.71 1183.92 1560.4 Q1186.59 1564.07 1191.24 1564.07 Q1195.89 1564.07 1198.53 1560.4 Q1201.2 1556.71 1201.2 1550.25 Z" fill="#000000" fill-rule="nonzero" fill-opacity="1" /><path clip-path="url(#clip740)" d="M1230.8 1536.5 Q1226.09 1536.5 1223.36 1540.19 Q1220.62 1543.85 1220.62 1550.25 Q1220.62 1556.65 1223.32 1560.34 Q1226.06 1564 1230.8 1564 Q1235.48 1564 1238.22 1560.31 Q1240.96 1556.62 1240.96 1550.25 Q1240.96 1543.92 1238.22 1540.23 Q1235.48 1536.5 1230.8 1536.5 M1230.8 1531.54 Q1238.44 1531.54 1242.8 1536.5 Q1247.16 1541.47 1247.16 1550.25 Q1247.16 1559 1242.8 1564 Q1238.44 1568.97 1230.8 1568.97 Q1223.13 1568.97 1218.77 1564 Q1214.44 1559 1214.44 1550.25 Q1214.44 1541.47 1218.77 1536.5 Q1223.13 1531.54 1230.8 1531.54 Z" fill="#000000" fill-rule="nonzero" fill-opacity="1" /><path clip-path="url(#clip740)" d="M1282.53 1533.76 L1282.53 1539.24 Q1280.04 1537.87 1277.53 1537.2 Q1275.05 1536.5 1272.5 1536.5 Q1266.8 1536.5 1263.65 1540.13 Q1260.5 1543.73 1260.5 1550.25 Q1260.5 1556.78 1263.65 1560.4 Q1266.8 1564 1272.5 1564 Q1275.05 1564 1277.53 1563.33 Q1280.04 1562.63 1282.53 1561.26 L1282.53 1566.68 Q1280.07 1567.82 1277.43 1568.39 Q1274.82 1568.97 1271.86 1568.97 Q1263.81 1568.97 1259.07 1563.91 Q1254.33 1558.85 1254.33 1550.25 Q1254.33 1541.53 1259.1 1536.53 Q1263.91 1531.54 1272.24 1531.54 Q1274.95 1531.54 1277.53 1532.11 Q1280.11 1532.65 1282.53 1533.76 Z" fill="#000000" fill-rule="nonzero" fill-opacity="1" /><path clip-path="url(#clip740)" d="M1322.34 1546.53 L1322.34 1568.04 L1316.49 1568.04 L1316.49 1546.72 Q1316.49 1541.66 1314.51 1539.14 Q1312.54 1536.63 1308.59 1536.63 Q1303.85 1536.63 1301.11 1539.65 Q1298.38 1542.68 1298.38 1547.9 L1298.38 1568.04 L1292.49 1568.04 L1292.49 1518.52 L1298.38 1518.52 L1298.38 1537.93 Q1300.48 1534.72 1303.31 1533.13 Q1306.17 1531.54 1309.9 1531.54 Q1316.04 1531.54 1319.19 1535.36 Q1322.34 1539.14 1322.34 1546.53 Z" fill="#000000" fill-rule="nonzero" fill-opacity="1" /><path clip-path="url(#clip740)" d="M1356.75 1533.45 L1356.75 1538.98 Q1354.27 1537.71 1351.59 1537.07 Q1348.92 1536.44 1346.06 1536.44 Q1341.69 1536.44 1339.5 1537.77 Q1337.33 1539.11 1337.33 1541.79 Q1337.33 1543.82 1338.89 1545 Q1340.45 1546.15 1345.16 1547.2 L1347.17 1547.64 Q1353.41 1548.98 1356.02 1551.43 Q1358.66 1553.85 1358.66 1558.21 Q1358.66 1563.17 1354.71 1566.07 Q1350.8 1568.97 1343.92 1568.97 Q1341.06 1568.97 1337.94 1568.39 Q1334.85 1567.85 1331.41 1566.74 L1331.41 1560.69 Q1334.66 1562.38 1337.81 1563.24 Q1340.96 1564.07 1344.05 1564.07 Q1348.19 1564.07 1350.42 1562.66 Q1352.64 1561.23 1352.64 1558.65 Q1352.64 1556.27 1351.02 1554.99 Q1349.43 1553.72 1343.99 1552.54 L1341.95 1552.07 Q1336.51 1550.92 1334.09 1548.56 Q1331.67 1546.18 1331.67 1542.04 Q1331.67 1537.01 1335.23 1534.27 Q1338.8 1531.54 1345.36 1531.54 Q1348.6 1531.54 1351.47 1532.01 Q1354.33 1532.49 1356.75 1533.45 Z" fill="#000000" fill-rule="nonzero" fill-opacity="1" /><polyline clip-path="url(#clip740)" style="stroke:#000000; stroke-linecap:round; stroke-linejoin:round; stroke-width:4; stroke-opacity:1; fill:none" points="138.867,1423.18 138.867,47.2441 "/>
<polyline clip-path="url(#clip740)" style="stroke:#000000; stroke-linecap:round; stroke-linejoin:round; stroke-width:4; stroke-opacity:1; fill:none" points="138.867,1181.09 157.764,1181.09 "/>
<polyline clip-path="url(#clip740)" style="stroke:#000000; stroke-linecap:round; stroke-linejoin:round; stroke-width:4; stroke-opacity:1; fill:none" points="138.867,920.045 157.764,920.045 "/>
<polyline clip-path="url(#clip740)" style="stroke:#000000; stroke-linecap:round; stroke-linejoin:round; stroke-width:4; stroke-opacity:1; fill:none" points="138.867,659.006 157.764,659.006 "/>
<polyline clip-path="url(#clip740)" style="stroke:#000000; stroke-linecap:round; stroke-linejoin:round; stroke-width:4; stroke-opacity:1; fill:none" points="138.867,397.966 157.764,397.966 "/>
<polyline clip-path="url(#clip740)" style="stroke:#000000; stroke-linecap:round; stroke-linejoin:round; stroke-width:4; stroke-opacity:1; fill:none" points="138.867,136.926 157.764,136.926 "/>
<path clip-path="url(#clip740)" d="M91.3391 1179.22 Q88.191 1179.22 86.3392 1181.37 Q84.5105 1183.53 84.5105 1187.28 Q84.5105 1191 86.3392 1193.18 Q88.191 1195.33 91.3391 1195.33 Q94.4873 1195.33 96.316 1193.18 Q98.1678 1191 98.1678 1187.28 Q98.1678 1183.53 96.316 1181.37 Q94.4873 1179.22 91.3391 1179.22 M100.621 1164.57 L100.621 1168.83 Q98.8622 1167.99 97.0567 1167.56 Q95.2743 1167.12 93.515 1167.12 Q88.8854 1167.12 86.4318 1170.24 Q84.0012 1173.37 83.654 1179.68 Q85.0197 1177.67 87.0799 1176.61 Q89.1401 1175.52 91.6169 1175.52 Q96.8252 1175.52 99.8345 1178.69 Q102.867 1181.84 102.867 1187.28 Q102.867 1192.6 99.7187 1195.82 Q96.5706 1199.04 91.3391 1199.04 Q85.3438 1199.04 82.1725 1194.45 Q79.0012 1189.85 79.0012 1181.12 Q79.0012 1172.93 82.8901 1168.06 Q86.779 1163.18 93.3299 1163.18 Q95.0891 1163.18 96.8715 1163.53 Q98.6771 1163.87 100.621 1164.57 Z" fill="#000000" fill-rule="nonzero" fill-opacity="1" /><path clip-path="url(#clip740)" d="M81.2466 936.608 L81.2466 932.349 Q83.0058 933.182 84.8114 933.622 Q86.6169 934.061 88.353 934.061 Q92.9826 934.061 95.4132 930.96 Q97.8669 927.835 98.2141 921.492 Q96.8715 923.483 94.8113 924.548 Q92.7512 925.612 90.2512 925.612 Q85.066 925.612 82.0336 922.487 Q79.0244 919.339 79.0244 913.9 Q79.0244 908.576 82.1725 905.358 Q85.3206 902.14 90.5521 902.14 Q96.5474 902.14 99.6956 906.747 Q102.867 911.33 102.867 920.08 Q102.867 928.251 98.978 933.136 Q95.1123 937.997 88.5614 937.997 Q86.8021 937.997 84.9966 937.649 Q83.191 937.302 81.2466 936.608 M90.5521 921.955 Q93.7002 921.955 95.5289 919.802 Q97.3808 917.65 97.3808 913.9 Q97.3808 910.173 95.5289 908.02 Q93.7002 905.844 90.5521 905.844 Q87.404 905.844 85.5521 908.02 Q83.7234 910.173 83.7234 913.9 Q83.7234 917.65 85.5521 919.802 Q87.404 921.955 90.5521 921.955 Z" fill="#000000" fill-rule="nonzero" fill-opacity="1" /><path clip-path="url(#clip740)" d="M53.168 672.35 L60.8069 672.35 L60.8069 645.985 L52.4967 647.651 L52.4967 643.392 L60.7606 641.726 L65.4365 641.726 L65.4365 672.35 L73.0753 672.35 L73.0753 676.286 L53.168 676.286 L53.168 672.35 Z" fill="#000000" fill-rule="nonzero" fill-opacity="1" /><path clip-path="url(#clip740)" d="M86.5475 672.35 L102.867 672.35 L102.867 676.286 L80.9225 676.286 L80.9225 672.35 Q83.5845 669.596 88.1679 664.966 Q92.7743 660.313 93.9549 658.971 Q96.2002 656.448 97.0798 654.712 Q97.9826 652.952 97.9826 651.263 Q97.9826 648.508 96.0382 646.772 Q94.1169 645.036 91.0151 645.036 Q88.816 645.036 86.3623 645.8 Q83.9318 646.564 81.154 648.114 L81.154 643.392 Q83.9781 642.258 86.4318 641.679 Q88.8854 641.101 90.9225 641.101 Q96.2928 641.101 99.4872 643.786 Q102.682 646.471 102.682 650.962 Q102.682 653.091 101.871 655.013 Q101.084 656.911 98.978 659.503 Q98.3993 660.175 95.2974 663.392 Q92.1956 666.587 86.5475 672.35 Z" fill="#000000" fill-rule="nonzero" fill-opacity="1" /><path clip-path="url(#clip740)" d="M52.5662 411.311 L60.205 411.311 L60.205 384.945 L51.8949 386.612 L51.8949 382.352 L60.1587 380.686 L64.8346 380.686 L64.8346 411.311 L72.4735 411.311 L72.4735 415.246 L52.5662 415.246 L52.5662 411.311 Z" fill="#000000" fill-rule="nonzero" fill-opacity="1" /><path clip-path="url(#clip740)" d="M81.9642 380.686 L100.321 380.686 L100.321 384.621 L86.2466 384.621 L86.2466 393.093 Q87.2651 392.746 88.2836 392.584 Q89.3021 392.399 90.3206 392.399 Q96.1076 392.399 99.4872 395.57 Q102.867 398.741 102.867 404.158 Q102.867 409.737 99.3946 412.838 Q95.9224 415.917 89.603 415.917 Q87.4271 415.917 85.1586 415.547 Q82.9133 415.176 80.5059 414.436 L80.5059 409.737 Q82.5892 410.871 84.8114 411.426 Q87.0336 411.982 89.5104 411.982 Q93.515 411.982 95.853 409.875 Q98.1909 407.769 98.1909 404.158 Q98.1909 400.547 95.853 398.44 Q93.515 396.334 89.5104 396.334 Q87.6354 396.334 85.7605 396.751 Q83.9086 397.167 81.9642 398.047 L81.9642 380.686 Z" fill="#000000" fill-rule="nonzero" fill-opacity="1" /><path clip-path="url(#clip740)" d="M51.6634 150.271 L59.3023 150.271 L59.3023 123.905 L50.9921 125.572 L50.9921 121.313 L59.256 119.646 L63.9319 119.646 L63.9319 150.271 L71.5707 150.271 L71.5707 154.206 L51.6634 154.206 L51.6634 150.271 Z" fill="#000000" fill-rule="nonzero" fill-opacity="1" /><path clip-path="url(#clip740)" d="M91.0151 137.794 Q87.6817 137.794 85.7605 139.576 Q83.8623 141.359 83.8623 144.484 Q83.8623 147.609 85.7605 149.391 Q87.6817 151.174 91.0151 151.174 Q94.3484 151.174 96.2697 149.391 Q98.1909 147.586 98.1909 144.484 Q98.1909 141.359 96.2697 139.576 Q94.3715 137.794 91.0151 137.794 M86.3392 135.803 Q83.3299 135.063 81.6401 133.002 Q79.9735 130.942 79.9735 127.979 Q79.9735 123.836 82.9133 121.428 Q85.8762 119.021 91.0151 119.021 Q96.1771 119.021 99.1169 121.428 Q102.057 123.836 102.057 127.979 Q102.057 130.942 100.367 133.002 Q98.7002 135.063 95.7141 135.803 Q99.0937 136.59 100.969 138.882 Q102.867 141.174 102.867 144.484 Q102.867 149.507 99.7882 152.192 Q96.7326 154.877 91.0151 154.877 Q85.2975 154.877 82.2188 152.192 Q79.1633 149.507 79.1633 144.484 Q79.1633 141.174 81.0614 138.882 Q82.9595 136.59 86.3392 135.803 M84.6262 128.419 Q84.6262 131.104 86.2929 132.609 Q87.9827 134.114 91.0151 134.114 Q94.0243 134.114 95.7141 132.609 Q97.4271 131.104 97.4271 128.419 Q97.4271 125.734 95.7141 124.229 Q94.0243 122.725 91.0151 122.725 Q87.9827 122.725 86.2929 124.229 Q84.6262 125.734 84.6262 128.419 Z" fill="#000000" fill-rule="nonzero" fill-opacity="1" /><polyline clip-path="url(#clip742)" style="stroke:#009af9; stroke-linecap:round; stroke-linejoin:round; stroke-width:4; stroke-opacity:1; fill:none" points="201.524,86.1857 222.621,237.284 243.718,372.559 264.814,534.898 285.911,673.101 307.008,743.979 328.104,791.35 349.201,830.119 370.298,857.054 391.395,886.387 412.491,914.313 433.588,937.857 454.685,963.965 475.781,984.536 496.878,1006.11 517.975,1022.38 539.071,1039.77 560.168,1054.94 581.265,1071.58 602.362,1086.15 623.458,1098.68 644.555,1110.37 665.652,1123.61 686.748,1135.69 707.845,1146.12 728.942,1159.5 750.039,1167.91 771.135,1176.09 792.232,1187.13 813.329,1196.52 834.425,1202.75 855.522,1210.55 876.619,1217.22 897.716,1224.44 918.812,1232.48 939.909,1238.46 961.006,1245.43 982.102,1250.84 1003.2,1256.21 1024.3,1261.67 1045.39,1266.57 1066.49,1271.34 1087.59,1276.39 1108.68,1279.99 1129.78,1284.74 1150.88,1287.66 1171.97,1291.86 1193.07,1296.52 1214.17,1299.05 1235.26,1302.15 1256.36,1305.3 1277.46,1308.09 1298.55,1311.46 1319.65,1314.7 1340.75,1317.65 1361.84,1319.06 1382.94,1321.3 1404.04,1324.04 1425.13,1326.84 1446.23,1329.28 1467.33,1331.19 1488.42,1333.41 1509.52,1334.78 1530.62,1337.58 1551.71,1338.93 1572.81,1340.44 1593.91,1342.97 1615,1344.46 1636.1,1346.82 1657.2,1348.44 1678.29,1349.96 1699.39,1351.18 1720.49,1352.97 1741.58,1354.64 1762.68,1355.99 1783.78,1358.14 1804.87,1358.8 1825.97,1360.45 1847.07,1361.51 1868.16,1363.44 1889.26,1364.14 1910.36,1365.24 1931.45,1366.17 1952.55,1368.46 1973.65,1368.88 1994.74,1370.66 2015.84,1371.07 2036.94,1373.26 2058.03,1373.95 2079.13,1375.2 2100.23,1375.64 2121.32,1377.12 2142.42,1377.57 2163.52,1379.02 2184.62,1380.03 2205.71,1380.75 2226.81,1381.49 2247.91,1382.54 2269,1384.24 2290.1,1383.83 "/>
<polyline clip-path="url(#clip742)" style="stroke:#e26f46; stroke-linecap:round; stroke-linejoin:round; stroke-width:4; stroke-opacity:1; fill:none" points="201.524,215.791 222.621,321.796 243.718,477.198 264.814,643.716 285.911,730.568 307.008,785.208 328.104,817.716 349.201,844.903 370.298,860.7 391.395,878.735 412.491,902.184 433.588,917.964 454.685,936.838 475.781,961 496.878,976.691 517.975,991.399 539.071,1003.58 560.168,1008.68 581.265,1026.95 602.362,1029.43 623.458,1045.89 644.555,1041.87 665.652,1059.67 686.748,1061.84 707.845,1066.47 728.942,1077.74 750.039,1076.84 771.135,1088.05 792.232,1090.35 813.329,1097.44 834.425,1104.6 855.522,1096.45 876.619,1104.53 897.716,1116.23 918.812,1117.35 939.909,1110.5 961.006,1123.39 982.102,1121.27 1003.2,1112.09 1024.3,1120.44 1045.39,1116.35 1066.49,1122.23 1087.59,1129.95 1108.68,1129.97 1129.78,1121.24 1150.88,1126.11 1171.97,1116.4 1193.07,1115.18 1214.17,1120.36 1235.26,1120.14 1256.36,1126.07 1277.46,1132.52 1298.55,1117.43 1319.65,1125.1 1340.75,1114.99 1361.84,1104.59 1382.94,1118.47 1404.04,1114.1 1425.13,1122.66 1446.23,1096.3 1467.33,1119.52 1488.42,1101.64 1509.52,1115.64 1530.62,1114.91 1551.71,1094.54 1572.81,1114.53 1593.91,1094.55 1615,1095.34 1636.1,1116.23 1657.2,1093.09 1678.29,1108.59 1699.39,1105.76 1720.49,1099.27 1741.58,1113.63 1762.68,1093.4 1783.78,1116.4 1804.87,1091.84 1825.97,1103.48 1847.07,1108.35 1868.16,1090.84 1889.26,1089.34 1910.36,1082.98 1931.45,1082.5 1952.55,1078.52 1973.65,1103.91 1994.74,1099.13 2015.84,1088.78 2036.94,1092.74 2058.03,1097.39 2079.13,1073.18 2100.23,1077.48 2121.32,1089.52 2142.42,1067.36 2163.52,1071.12 2184.62,1075.85 2205.71,1075.46 2226.81,1062.06 2247.91,1071.57 2269,1054.85 2290.1,1064.41 "/>
<path clip-path="url(#clip740)" d="M1855.88 248.629 L2278.96 248.629 L2278.96 93.1086 L1855.88 93.1086  Z" fill="#ffffff" fill-rule="evenodd" fill-opacity="1"/>
<polyline clip-path="url(#clip740)" style="stroke:#000000; stroke-linecap:round; stroke-linejoin:round; stroke-width:4; stroke-opacity:1; fill:none" points="1855.88,248.629 2278.96,248.629 2278.96,93.1086 1855.88,93.1086 1855.88,248.629 "/>
<polyline clip-path="url(#clip740)" style="stroke:#009af9; stroke-linecap:round; stroke-linejoin:round; stroke-width:4; stroke-opacity:1; fill:none" points="1880.48,144.949 2028.07,144.949 "/>
<path clip-path="url(#clip740)" d="M2060.08 128.942 L2060.08 136.303 L2068.85 136.303 L2068.85 139.613 L2060.08 139.613 L2060.08 153.687 Q2060.08 156.858 2060.94 157.761 Q2061.82 158.664 2064.48 158.664 L2068.85 158.664 L2068.85 162.229 L2064.48 162.229 Q2059.55 162.229 2057.67 160.4 Q2055.8 158.548 2055.8 153.687 L2055.8 139.613 L2052.67 139.613 L2052.67 136.303 L2055.8 136.303 L2055.8 128.942 L2060.08 128.942 Z" fill="#000000" fill-rule="nonzero" fill-opacity="1" /><path clip-path="url(#clip740)" d="M2089.48 140.284 Q2088.76 139.868 2087.9 139.682 Q2087.07 139.474 2086.05 139.474 Q2082.44 139.474 2080.5 141.835 Q2078.57 144.173 2078.57 148.571 L2078.57 162.229 L2074.29 162.229 L2074.29 136.303 L2078.57 136.303 L2078.57 140.331 Q2079.92 137.969 2082.07 136.835 Q2084.22 135.678 2087.3 135.678 Q2087.74 135.678 2088.27 135.747 Q2088.81 135.794 2089.45 135.909 L2089.48 140.284 Z" fill="#000000" fill-rule="nonzero" fill-opacity="1" /><path clip-path="url(#clip740)" d="M2105.73 149.196 Q2100.57 149.196 2098.57 150.377 Q2096.58 151.557 2096.58 154.405 Q2096.58 156.673 2098.07 158.016 Q2099.57 159.335 2102.14 159.335 Q2105.68 159.335 2107.81 156.835 Q2109.96 154.312 2109.96 150.145 L2109.96 149.196 L2105.73 149.196 M2114.22 147.437 L2114.22 162.229 L2109.96 162.229 L2109.96 158.293 Q2108.51 160.655 2106.33 161.789 Q2104.15 162.9 2101.01 162.9 Q2097.02 162.9 2094.66 160.678 Q2092.32 158.432 2092.32 154.682 Q2092.32 150.307 2095.24 148.085 Q2098.18 145.863 2103.99 145.863 L2109.96 145.863 L2109.96 145.446 Q2109.96 142.507 2108.02 140.909 Q2106.1 139.289 2102.6 139.289 Q2100.38 139.289 2098.27 139.821 Q2096.17 140.354 2094.22 141.419 L2094.22 137.483 Q2096.56 136.581 2098.76 136.141 Q2100.96 135.678 2103.04 135.678 Q2108.67 135.678 2111.44 138.594 Q2114.22 141.511 2114.22 147.437 Z" fill="#000000" fill-rule="nonzero" fill-opacity="1" /><path clip-path="url(#clip740)" d="M2123 136.303 L2127.26 136.303 L2127.26 162.229 L2123 162.229 L2123 136.303 M2123 126.21 L2127.26 126.21 L2127.26 131.604 L2123 131.604 L2123 126.21 Z" fill="#000000" fill-rule="nonzero" fill-opacity="1" /><path clip-path="url(#clip740)" d="M2157.72 146.581 L2157.72 162.229 L2153.46 162.229 L2153.46 146.719 Q2153.46 143.039 2152.02 141.21 Q2150.59 139.382 2147.72 139.382 Q2144.27 139.382 2142.28 141.581 Q2140.29 143.78 2140.29 147.576 L2140.29 162.229 L2136 162.229 L2136 136.303 L2140.29 136.303 L2140.29 140.331 Q2141.82 137.993 2143.88 136.835 Q2145.96 135.678 2148.67 135.678 Q2153.13 135.678 2155.43 138.456 Q2157.72 141.21 2157.72 146.581 Z" fill="#000000" fill-rule="nonzero" fill-opacity="1" /><path clip-path="url(#clip740)" d="M2185.91 170.099 L2185.91 173.409 L2161.28 173.409 L2161.28 170.099 L2185.91 170.099 Z" fill="#000000" fill-rule="nonzero" fill-opacity="1" /><path clip-path="url(#clip740)" d="M2194.04 158.34 L2194.04 172.09 L2189.75 172.09 L2189.75 136.303 L2194.04 136.303 L2194.04 140.238 Q2195.38 137.923 2197.42 136.812 Q2199.48 135.678 2202.32 135.678 Q2207.05 135.678 2209.99 139.428 Q2212.95 143.178 2212.95 149.289 Q2212.95 155.4 2209.99 159.15 Q2207.05 162.9 2202.32 162.9 Q2199.48 162.9 2197.42 161.789 Q2195.38 160.655 2194.04 158.34 M2208.53 149.289 Q2208.53 144.59 2206.58 141.928 Q2204.66 139.243 2201.28 139.243 Q2197.9 139.243 2195.96 141.928 Q2194.04 144.59 2194.04 149.289 Q2194.04 153.988 2195.96 156.673 Q2197.9 159.335 2201.28 159.335 Q2204.66 159.335 2206.58 156.673 Q2208.53 153.988 2208.53 149.289 Z" fill="#000000" fill-rule="nonzero" fill-opacity="1" /><path clip-path="url(#clip740)" d="M2224.13 158.34 L2224.13 172.09 L2219.85 172.09 L2219.85 136.303 L2224.13 136.303 L2224.13 140.238 Q2225.47 137.923 2227.51 136.812 Q2229.57 135.678 2232.42 135.678 Q2237.14 135.678 2240.08 139.428 Q2243.04 143.178 2243.04 149.289 Q2243.04 155.4 2240.08 159.15 Q2237.14 162.9 2232.42 162.9 Q2229.57 162.9 2227.51 161.789 Q2225.47 160.655 2224.13 158.34 M2238.62 149.289 Q2238.62 144.59 2236.68 141.928 Q2234.75 139.243 2231.37 139.243 Q2228 139.243 2226.05 141.928 Q2224.13 144.59 2224.13 149.289 Q2224.13 153.988 2226.05 156.673 Q2228 159.335 2231.37 159.335 Q2234.75 159.335 2236.68 156.673 Q2238.62 153.988 2238.62 149.289 Z" fill="#000000" fill-rule="nonzero" fill-opacity="1" /><path clip-path="url(#clip740)" d="M2250.1 126.21 L2254.36 126.21 L2254.36 162.229 L2250.1 162.229 L2250.1 126.21 Z" fill="#000000" fill-rule="nonzero" fill-opacity="1" /><polyline clip-path="url(#clip740)" style="stroke:#e26f46; stroke-linecap:round; stroke-linejoin:round; stroke-width:4; stroke-opacity:1; fill:none" points="1880.48,196.789 2028.07,196.789 "/>
<path clip-path="url(#clip740)" d="M2052.67 188.143 L2057.19 188.143 L2065.29 209.902 L2073.39 188.143 L2077.9 188.143 L2068.18 214.069 L2062.39 214.069 L2052.67 188.143 Z" fill="#000000" fill-rule="nonzero" fill-opacity="1" /><path clip-path="url(#clip740)" d="M2095.57 201.036 Q2090.4 201.036 2088.41 202.217 Q2086.42 203.397 2086.42 206.245 Q2086.42 208.513 2087.9 209.856 Q2089.41 211.175 2091.98 211.175 Q2095.52 211.175 2097.65 208.675 Q2099.8 206.152 2099.8 201.985 L2099.8 201.036 L2095.57 201.036 M2104.06 199.277 L2104.06 214.069 L2099.8 214.069 L2099.8 210.133 Q2098.34 212.495 2096.17 213.629 Q2093.99 214.74 2090.84 214.74 Q2086.86 214.74 2084.5 212.518 Q2082.16 210.272 2082.16 206.522 Q2082.16 202.147 2085.08 199.925 Q2088.02 197.703 2093.83 197.703 L2099.8 197.703 L2099.8 197.286 Q2099.8 194.347 2097.86 192.749 Q2095.94 191.129 2092.44 191.129 Q2090.22 191.129 2088.11 191.661 Q2086.01 192.194 2084.06 193.259 L2084.06 189.323 Q2086.4 188.421 2088.6 187.981 Q2090.8 187.518 2092.88 187.518 Q2098.51 187.518 2101.28 190.434 Q2104.06 193.351 2104.06 199.277 Z" fill="#000000" fill-rule="nonzero" fill-opacity="1" /><path clip-path="url(#clip740)" d="M2112.83 178.05 L2117.09 178.05 L2117.09 214.069 L2112.83 214.069 L2112.83 178.05 Z" fill="#000000" fill-rule="nonzero" fill-opacity="1" /><path clip-path="url(#clip740)" d="M2145.7 221.939 L2145.7 225.249 L2121.07 225.249 L2121.07 221.939 L2145.7 221.939 Z" fill="#000000" fill-rule="nonzero" fill-opacity="1" /><path clip-path="url(#clip740)" d="M2153.83 210.18 L2153.83 223.93 L2149.55 223.93 L2149.55 188.143 L2153.83 188.143 L2153.83 192.078 Q2155.17 189.763 2157.21 188.652 Q2159.27 187.518 2162.12 187.518 Q2166.84 187.518 2169.78 191.268 Q2172.74 195.018 2172.74 201.129 Q2172.74 207.24 2169.78 210.99 Q2166.84 214.74 2162.12 214.74 Q2159.27 214.74 2157.21 213.629 Q2155.17 212.495 2153.83 210.18 M2168.32 201.129 Q2168.32 196.43 2166.38 193.768 Q2164.45 191.083 2161.07 191.083 Q2157.69 191.083 2155.75 193.768 Q2153.83 196.43 2153.83 201.129 Q2153.83 205.828 2155.75 208.513 Q2157.69 211.175 2161.07 211.175 Q2164.45 211.175 2166.38 208.513 Q2168.32 205.828 2168.32 201.129 Z" fill="#000000" fill-rule="nonzero" fill-opacity="1" /><path clip-path="url(#clip740)" d="M2183.92 210.18 L2183.92 223.93 L2179.64 223.93 L2179.64 188.143 L2183.92 188.143 L2183.92 192.078 Q2185.26 189.763 2187.3 188.652 Q2189.36 187.518 2192.21 187.518 Q2196.93 187.518 2199.87 191.268 Q2202.83 195.018 2202.83 201.129 Q2202.83 207.24 2199.87 210.99 Q2196.93 214.74 2192.21 214.74 Q2189.36 214.74 2187.3 213.629 Q2185.26 212.495 2183.92 210.18 M2198.41 201.129 Q2198.41 196.43 2196.47 193.768 Q2194.55 191.083 2191.17 191.083 Q2187.79 191.083 2185.84 193.768 Q2183.92 196.43 2183.92 201.129 Q2183.92 205.828 2185.84 208.513 Q2187.79 211.175 2191.17 211.175 Q2194.55 211.175 2196.47 208.513 Q2198.41 205.828 2198.41 201.129 Z" fill="#000000" fill-rule="nonzero" fill-opacity="1" /><path clip-path="url(#clip740)" d="M2209.89 178.05 L2214.15 178.05 L2214.15 214.069 L2209.89 214.069 L2209.89 178.05 Z" fill="#000000" fill-rule="nonzero" fill-opacity="1" /></svg>
