<?xml version="1.0" encoding="utf-8"?>
<svg xmlns="http://www.w3.org/2000/svg" xmlns:xlink="http://www.w3.org/1999/xlink" width="600" height="400" viewBox="0 0 2400 1600">
<defs>
  <clipPath id="clip940">
    <rect x="0" y="0" width="2400" height="1600"/>
  </clipPath>
</defs>
<path clip-path="url(#clip940)" d="M0 1600 L2400 1600 L2400 0 L0 0  Z" fill="#ffffff" fill-rule="evenodd" fill-opacity="1"/>
<defs>
  <clipPath id="clip941">
    <rect x="480" y="0" width="1681" height="1600"/>
  </clipPath>
</defs>
<path clip-path="url(#clip940)" d="M155.765 1423.18 L2352.76 1423.18 L2352.76 47.2441 L155.765 47.2441  Z" fill="#ffffff" fill-rule="evenodd" fill-opacity="1"/>
<defs>
  <clipPath id="clip942">
    <rect x="155" y="47" width="2198" height="1377"/>
  </clipPath>
</defs>
<polyline clip-path="url(#clip942)" style="stroke:#000000; stroke-linecap:round; stroke-linejoin:round; stroke-width:2; stroke-opacity:0.1; fill:none" points="448.236,1423.18 448.236,47.2441 "/>
<polyline clip-path="url(#clip942)" style="stroke:#000000; stroke-linecap:round; stroke-linejoin:round; stroke-width:2; stroke-opacity:0.1; fill:none" points="908.822,1423.18 908.822,47.2441 "/>
<polyline clip-path="url(#clip942)" style="stroke:#000000; stroke-linecap:round; stroke-linejoin:round; stroke-width:2; stroke-opacity:0.1; fill:none" points="1369.41,1423.18 1369.41,47.2441 "/>
<polyline clip-path="url(#clip942)" style="stroke:#000000; stroke-linecap:round; stroke-linejoin:round; stroke-width:2; stroke-opacity:0.1; fill:none" points="1829.99,1423.18 1829.99,47.2441 "/>
<polyline clip-path="url(#clip942)" style="stroke:#000000; stroke-linecap:round; stroke-linejoin:round; stroke-width:2; stroke-opacity:0.1; fill:none" points="2290.58,1423.18 2290.58,47.2441 "/>
<polyline clip-path="url(#clip942)" style="stroke:#000000; stroke-linecap:round; stroke-linejoin:round; stroke-width:2; stroke-opacity:0.1; fill:none" points="155.765,1149.08 2352.76,1149.08 "/>
<polyline clip-path="url(#clip942)" style="stroke:#000000; stroke-linecap:round; stroke-linejoin:round; stroke-width:2; stroke-opacity:0.1; fill:none" points="155.765,855.448 2352.76,855.448 "/>
<polyline clip-path="url(#clip942)" style="stroke:#000000; stroke-linecap:round; stroke-linejoin:round; stroke-width:2; stroke-opacity:0.1; fill:none" points="155.765,561.811 2352.76,561.811 "/>
<polyline clip-path="url(#clip942)" style="stroke:#000000; stroke-linecap:round; stroke-linejoin:round; stroke-width:2; stroke-opacity:0.1; fill:none" points="155.765,268.174 2352.76,268.174 "/>
<polyline clip-path="url(#clip940)" style="stroke:#000000; stroke-linecap:round; stroke-linejoin:round; stroke-width:4; stroke-opacity:1; fill:none" points="155.765,1423.18 2352.76,1423.18 "/>
<polyline clip-path="url(#clip940)" style="stroke:#000000; stroke-linecap:round; stroke-linejoin:round; stroke-width:4; stroke-opacity:1; fill:none" points="448.236,1423.18 448.236,1404.28 "/>
<polyline clip-path="url(#clip940)" style="stroke:#000000; stroke-linecap:round; stroke-linejoin:round; stroke-width:4; stroke-opacity:1; fill:none" points="908.822,1423.18 908.822,1404.28 "/>
<polyline clip-path="url(#clip940)" style="stroke:#000000; stroke-linecap:round; stroke-linejoin:round; stroke-width:4; stroke-opacity:1; fill:none" points="1369.41,1423.18 1369.41,1404.28 "/>
<polyline clip-path="url(#clip940)" style="stroke:#000000; stroke-linecap:round; stroke-linejoin:round; stroke-width:4; stroke-opacity:1; fill:none" points="1829.99,1423.18 1829.99,1404.28 "/>
<polyline clip-path="url(#clip940)" style="stroke:#000000; stroke-linecap:round; stroke-linejoin:round; stroke-width:4; stroke-opacity:1; fill:none" points="2290.58,1423.18 2290.58,1404.28 "/>
<path clip-path="url(#clip940)" d="M442.889 1481.64 L459.209 1481.64 L459.209 1485.58 L437.264 1485.58 L437.264 1481.64 Q439.926 1478.89 444.51 1474.26 Q449.116 1469.61 450.297 1468.27 Q452.542 1465.74 453.422 1464.01 Q454.324 1462.25 454.324 1460.56 Q454.324 1457.8 452.38 1456.07 Q450.459 1454.33 447.357 1454.33 Q445.158 1454.33 442.704 1455.09 Q440.274 1455.86 437.496 1457.41 L437.496 1452.69 Q440.32 1451.55 442.774 1450.97 Q445.227 1450.39 447.264 1450.39 Q452.635 1450.39 455.829 1453.08 Q459.023 1455.77 459.023 1460.26 Q459.023 1462.39 458.213 1464.31 Q457.426 1466.2 455.32 1468.8 Q454.741 1469.47 451.639 1472.69 Q448.537 1475.88 442.889 1481.64 Z" fill="#000000" fill-rule="nonzero" fill-opacity="1" /><path clip-path="url(#clip940)" d="M911.831 1455.09 L900.025 1473.54 L911.831 1473.54 L911.831 1455.09 M910.604 1451.02 L916.484 1451.02 L916.484 1473.54 L921.414 1473.54 L921.414 1477.43 L916.484 1477.43 L916.484 1485.58 L911.831 1485.58 L911.831 1477.43 L896.229 1477.43 L896.229 1472.92 L910.604 1451.02 Z" fill="#000000" fill-rule="nonzero" fill-opacity="1" /><path clip-path="url(#clip940)" d="M1369.81 1466.44 Q1366.66 1466.44 1364.81 1468.59 Q1362.98 1470.74 1362.98 1474.49 Q1362.98 1478.22 1364.81 1480.39 Q1366.66 1482.55 1369.81 1482.55 Q1372.96 1482.55 1374.79 1480.39 Q1376.64 1478.22 1376.64 1474.49 Q1376.64 1470.74 1374.79 1468.59 Q1372.96 1466.44 1369.81 1466.44 M1379.09 1451.78 L1379.09 1456.04 Q1377.33 1455.21 1375.53 1454.77 Q1373.75 1454.33 1371.99 1454.33 Q1367.36 1454.33 1364.9 1457.45 Q1362.47 1460.58 1362.13 1466.9 Q1363.49 1464.89 1365.55 1463.82 Q1367.61 1462.73 1370.09 1462.73 Q1375.3 1462.73 1378.31 1465.9 Q1381.34 1469.05 1381.34 1474.49 Q1381.34 1479.82 1378.19 1483.03 Q1375.04 1486.25 1369.81 1486.25 Q1363.82 1486.25 1360.65 1481.67 Q1357.47 1477.06 1357.47 1468.33 Q1357.47 1460.14 1361.36 1455.28 Q1365.25 1450.39 1371.8 1450.39 Q1373.56 1450.39 1375.34 1450.74 Q1377.15 1451.09 1379.09 1451.78 Z" fill="#000000" fill-rule="nonzero" fill-opacity="1" /><path clip-path="url(#clip940)" d="M1829.99 1469.17 Q1826.66 1469.17 1824.74 1470.95 Q1822.84 1472.73 1822.84 1475.86 Q1822.84 1478.98 1824.74 1480.77 Q1826.66 1482.55 1829.99 1482.55 Q1833.33 1482.55 1835.25 1480.77 Q1837.17 1478.96 1837.17 1475.86 Q1837.17 1472.73 1835.25 1470.95 Q1833.35 1469.17 1829.99 1469.17 M1825.32 1467.18 Q1822.31 1466.44 1820.62 1464.38 Q1818.95 1462.32 1818.95 1459.35 Q1818.95 1455.21 1821.89 1452.8 Q1824.85 1450.39 1829.99 1450.39 Q1835.15 1450.39 1838.09 1452.8 Q1841.03 1455.21 1841.03 1459.35 Q1841.03 1462.32 1839.34 1464.38 Q1837.68 1466.44 1834.69 1467.18 Q1838.07 1467.96 1839.95 1470.26 Q1841.84 1472.55 1841.84 1475.86 Q1841.84 1480.88 1838.76 1483.57 Q1835.71 1486.25 1829.99 1486.25 Q1824.27 1486.25 1821.2 1483.57 Q1818.14 1480.88 1818.14 1475.86 Q1818.14 1472.55 1820.04 1470.26 Q1821.94 1467.96 1825.32 1467.18 M1823.6 1459.79 Q1823.6 1462.48 1825.27 1463.98 Q1826.96 1465.49 1829.99 1465.49 Q1833 1465.49 1834.69 1463.98 Q1836.4 1462.48 1836.4 1459.79 Q1836.4 1457.11 1834.69 1455.6 Q1833 1454.1 1829.99 1454.1 Q1826.96 1454.1 1825.27 1455.6 Q1823.6 1457.11 1823.6 1459.79 Z" fill="#000000" fill-rule="nonzero" fill-opacity="1" /><path clip-path="url(#clip940)" d="M2265.26 1481.64 L2272.9 1481.64 L2272.9 1455.28 L2264.59 1456.95 L2264.59 1452.69 L2272.86 1451.02 L2277.53 1451.02 L2277.53 1481.64 L2285.17 1481.64 L2285.17 1485.58 L2265.26 1485.58 L2265.26 1481.64 Z" fill="#000000" fill-rule="nonzero" fill-opacity="1" /><path clip-path="url(#clip940)" d="M2304.62 1454.1 Q2301.01 1454.1 2299.18 1457.66 Q2297.37 1461.2 2297.37 1468.33 Q2297.37 1475.44 2299.18 1479.01 Q2301.01 1482.55 2304.62 1482.55 Q2308.25 1482.55 2310.06 1479.01 Q2311.88 1475.44 2311.88 1468.33 Q2311.88 1461.2 2310.06 1457.66 Q2308.25 1454.1 2304.62 1454.1 M2304.62 1450.39 Q2310.43 1450.39 2313.48 1455 Q2316.56 1459.58 2316.56 1468.33 Q2316.56 1477.06 2313.48 1481.67 Q2310.43 1486.25 2304.62 1486.25 Q2298.81 1486.25 2295.73 1481.67 Q2292.67 1477.06 2292.67 1468.33 Q2292.67 1459.58 2295.73 1455 Q2298.81 1450.39 2304.62 1450.39 Z" fill="#000000" fill-rule="nonzero" fill-opacity="1" /><path clip-path="url(#clip940)" d="M1174.45 1548.76 L1174.45 1551.62 L1147.52 1551.62 Q1147.91 1557.67 1151.15 1560.85 Q1154.43 1564 1160.25 1564 Q1163.63 1564 1166.78 1563.17 Q1169.96 1562.35 1173.08 1560.69 L1173.08 1566.23 Q1169.93 1567.57 1166.62 1568.27 Q1163.31 1568.97 1159.9 1568.97 Q1151.37 1568.97 1146.38 1564 Q1141.41 1559.04 1141.41 1550.57 Q1141.41 1541.82 1146.12 1536.69 Q1150.87 1531.54 1158.89 1531.54 Q1166.08 1531.54 1170.25 1536.18 Q1174.45 1540.8 1174.45 1548.76 M1168.59 1547.04 Q1168.53 1542.23 1165.89 1539.37 Q1163.28 1536.5 1158.95 1536.5 Q1154.05 1536.5 1151.09 1539.27 Q1148.16 1542.04 1147.71 1547.07 L1168.59 1547.04 Z" fill="#000000" fill-rule="nonzero" fill-opacity="1" /><path clip-path="url(#clip940)" d="M1189.73 1562.7 L1189.73 1581.6 L1183.84 1581.6 L1183.84 1532.4 L1189.73 1532.4 L1189.73 1537.81 Q1191.57 1534.62 1194.38 1533.1 Q1197.21 1531.54 1201.12 1531.54 Q1207.62 1531.54 1211.66 1536.69 Q1215.73 1541.85 1215.73 1550.25 Q1215.73 1558.65 1211.66 1563.81 Q1207.62 1568.97 1201.12 1568.97 Q1197.21 1568.97 1194.38 1567.44 Q1191.57 1565.88 1189.73 1562.7 M1209.65 1550.25 Q1209.65 1543.79 1206.98 1540.13 Q1204.34 1536.44 1199.69 1536.44 Q1195.04 1536.44 1192.37 1540.13 Q1189.73 1543.79 1189.73 1550.25 Q1189.73 1556.71 1192.37 1560.4 Q1195.04 1564.07 1199.69 1564.07 Q1204.34 1564.07 1206.98 1560.4 Q1209.65 1556.71 1209.65 1550.25 Z" fill="#000000" fill-rule="nonzero" fill-opacity="1" /><path clip-path="url(#clip940)" d="M1239.25 1536.5 Q1234.54 1536.5 1231.81 1540.19 Q1229.07 1543.85 1229.07 1550.25 Q1229.07 1556.65 1231.77 1560.34 Q1234.51 1564 1239.25 1564 Q1243.93 1564 1246.67 1560.31 Q1249.41 1556.62 1249.41 1550.25 Q1249.41 1543.92 1246.67 1540.23 Q1243.93 1536.5 1239.25 1536.5 M1239.25 1531.54 Q1246.89 1531.54 1251.25 1536.5 Q1255.61 1541.47 1255.61 1550.25 Q1255.61 1559 1251.25 1564 Q1246.89 1568.97 1239.25 1568.97 Q1231.58 1568.97 1227.22 1564 Q1222.89 1559 1222.89 1550.25 Q1222.89 1541.47 1227.22 1536.5 Q1231.58 1531.54 1239.25 1531.54 Z" fill="#000000" fill-rule="nonzero" fill-opacity="1" /><path clip-path="url(#clip940)" d="M1290.97 1533.76 L1290.97 1539.24 Q1288.49 1537.87 1285.98 1537.2 Q1283.49 1536.5 1280.95 1536.5 Q1275.25 1536.5 1272.1 1540.13 Q1268.95 1543.73 1268.95 1550.25 Q1268.95 1556.78 1272.1 1560.4 Q1275.25 1564 1280.95 1564 Q1283.49 1564 1285.98 1563.33 Q1288.49 1562.63 1290.97 1561.26 L1290.97 1566.68 Q1288.52 1567.82 1285.88 1568.39 Q1283.27 1568.97 1280.31 1568.97 Q1272.26 1568.97 1267.52 1563.91 Q1262.77 1558.85 1262.77 1550.25 Q1262.77 1541.53 1267.55 1536.53 Q1272.35 1531.54 1280.69 1531.54 Q1283.4 1531.54 1285.98 1532.11 Q1288.56 1532.65 1290.97 1533.76 Z" fill="#000000" fill-rule="nonzero" fill-opacity="1" /><path clip-path="url(#clip940)" d="M1330.79 1546.53 L1330.79 1568.04 L1324.94 1568.04 L1324.94 1546.72 Q1324.94 1541.66 1322.96 1539.14 Q1320.99 1536.63 1317.04 1536.63 Q1312.3 1536.63 1309.56 1539.65 Q1306.83 1542.68 1306.83 1547.9 L1306.83 1568.04 L1300.94 1568.04 L1300.94 1518.52 L1306.83 1518.52 L1306.83 1537.93 Q1308.93 1534.72 1311.76 1533.13 Q1314.62 1531.54 1318.35 1531.54 Q1324.49 1531.54 1327.64 1535.36 Q1330.79 1539.14 1330.79 1546.53 Z" fill="#000000" fill-rule="nonzero" fill-opacity="1" /><path clip-path="url(#clip940)" d="M1365.2 1533.45 L1365.2 1538.98 Q1362.72 1537.71 1360.04 1537.07 Q1357.37 1536.44 1354.5 1536.44 Q1350.14 1536.44 1347.95 1537.77 Q1345.78 1539.11 1345.78 1541.79 Q1345.78 1543.82 1347.34 1545 Q1348.9 1546.15 1353.61 1547.2 L1355.62 1547.64 Q1361.86 1548.98 1364.47 1551.43 Q1367.11 1553.85 1367.11 1558.21 Q1367.11 1563.17 1363.16 1566.07 Q1359.25 1568.97 1352.37 1568.97 Q1349.51 1568.97 1346.39 1568.39 Q1343.3 1567.85 1339.86 1566.74 L1339.86 1560.69 Q1343.11 1562.38 1346.26 1563.24 Q1349.41 1564.07 1352.5 1564.07 Q1356.64 1564.07 1358.86 1562.66 Q1361.09 1561.23 1361.09 1558.65 Q1361.09 1556.27 1359.47 1554.99 Q1357.88 1553.72 1352.44 1552.54 L1350.4 1552.07 Q1344.96 1550.92 1342.54 1548.56 Q1340.12 1546.18 1340.12 1542.04 Q1340.12 1537.01 1343.68 1534.27 Q1347.25 1531.54 1353.8 1531.54 Q1357.05 1531.54 1359.92 1532.01 Q1362.78 1532.49 1365.2 1533.45 Z" fill="#000000" fill-rule="nonzero" fill-opacity="1" /><polyline clip-path="url(#clip940)" style="stroke:#000000; stroke-linecap:round; stroke-linejoin:round; stroke-width:4; stroke-opacity:1; fill:none" points="155.765,1423.18 155.765,47.2441 "/>
<polyline clip-path="url(#clip940)" style="stroke:#000000; stroke-linecap:round; stroke-linejoin:round; stroke-width:4; stroke-opacity:1; fill:none" points="155.765,1149.08 174.663,1149.08 "/>
<polyline clip-path="url(#clip940)" style="stroke:#000000; stroke-linecap:round; stroke-linejoin:round; stroke-width:4; stroke-opacity:1; fill:none" points="155.765,855.448 174.663,855.448 "/>
<polyline clip-path="url(#clip940)" style="stroke:#000000; stroke-linecap:round; stroke-linejoin:round; stroke-width:4; stroke-opacity:1; fill:none" points="155.765,561.811 174.663,561.811 "/>
<polyline clip-path="url(#clip940)" style="stroke:#000000; stroke-linecap:round; stroke-linejoin:round; stroke-width:4; stroke-opacity:1; fill:none" points="155.765,268.174 174.663,268.174 "/>
<path clip-path="url(#clip940)" d="M63.5847 1134.88 Q59.9736 1134.88 58.1449 1138.45 Q56.3393 1141.99 56.3393 1149.12 Q56.3393 1156.23 58.1449 1159.79 Q59.9736 1163.33 63.5847 1163.33 Q67.2189 1163.33 69.0244 1159.79 Q70.8531 1156.23 70.8531 1149.12 Q70.8531 1141.99 69.0244 1138.45 Q67.2189 1134.88 63.5847 1134.88 M63.5847 1131.18 Q69.3948 1131.18 72.4503 1135.79 Q75.529 1140.37 75.529 1149.12 Q75.529 1157.85 72.4503 1162.45 Q69.3948 1167.04 63.5847 1167.04 Q57.7745 1167.04 54.6958 1162.45 Q51.6403 1157.85 51.6403 1149.12 Q51.6403 1140.37 54.6958 1135.79 Q57.7745 1131.18 63.5847 1131.18 Z" fill="#000000" fill-rule="nonzero" fill-opacity="1" /><path clip-path="url(#clip940)" d="M83.7466 1160.49 L88.6308 1160.49 L88.6308 1166.36 L83.7466 1166.36 L83.7466 1160.49 Z" fill="#000000" fill-rule="nonzero" fill-opacity="1" /><path clip-path="url(#clip940)" d="M98.8622 1131.8 L117.219 1131.8 L117.219 1135.74 L103.145 1135.74 L103.145 1144.21 Q104.163 1143.86 105.182 1143.7 Q106.2 1143.52 107.219 1143.52 Q113.006 1143.52 116.385 1146.69 Q119.765 1149.86 119.765 1155.28 Q119.765 1160.86 116.293 1163.96 Q112.82 1167.04 106.501 1167.04 Q104.325 1167.04 102.057 1166.67 Q99.8113 1166.3 97.4039 1165.55 L97.4039 1160.86 Q99.4872 1161.99 101.709 1162.55 Q103.932 1163.1 106.408 1163.1 Q110.413 1163.1 112.751 1160.99 Q115.089 1158.89 115.089 1155.28 Q115.089 1151.67 112.751 1149.56 Q110.413 1147.45 106.408 1147.45 Q104.534 1147.45 102.659 1147.87 Q100.807 1148.29 98.8622 1149.17 L98.8622 1131.8 Z" fill="#000000" fill-rule="nonzero" fill-opacity="1" /><path clip-path="url(#clip940)" d="M53.3995 868.793 L61.0384 868.793 L61.0384 842.427 L52.7282 844.094 L52.7282 839.835 L60.9921 838.168 L65.668 838.168 L65.668 868.793 L73.3068 868.793 L73.3068 872.728 L53.3995 872.728 L53.3995 868.793 Z" fill="#000000" fill-rule="nonzero" fill-opacity="1" /><path clip-path="url(#clip940)" d="M82.7512 866.848 L87.6354 866.848 L87.6354 872.728 L82.7512 872.728 L82.7512 866.848 Z" fill="#000000" fill-rule="nonzero" fill-opacity="1" /><path clip-path="url(#clip940)" d="M107.821 841.247 Q104.209 841.247 102.381 844.811 Q100.575 848.353 100.575 855.483 Q100.575 862.589 102.381 866.154 Q104.209 869.696 107.821 869.696 Q111.455 869.696 113.26 866.154 Q115.089 862.589 115.089 855.483 Q115.089 848.353 113.26 844.811 Q111.455 841.247 107.821 841.247 M107.821 837.543 Q113.631 837.543 116.686 842.149 Q119.765 846.733 119.765 855.483 Q119.765 864.209 116.686 868.816 Q113.631 873.399 107.821 873.399 Q102.01 873.399 98.9317 868.816 Q95.8761 864.209 95.8761 855.483 Q95.8761 846.733 98.9317 842.149 Q102.01 837.543 107.821 837.543 Z" fill="#000000" fill-rule="nonzero" fill-opacity="1" /><path clip-path="url(#clip940)" d="M54.3949 575.156 L62.0337 575.156 L62.0337 548.79 L53.7236 550.457 L53.7236 546.198 L61.9874 544.531 L66.6633 544.531 L66.6633 575.156 L74.3022 575.156 L74.3022 579.091 L54.3949 579.091 L54.3949 575.156 Z" fill="#000000" fill-rule="nonzero" fill-opacity="1" /><path clip-path="url(#clip940)" d="M83.7466 573.211 L88.6308 573.211 L88.6308 579.091 L83.7466 579.091 L83.7466 573.211 Z" fill="#000000" fill-rule="nonzero" fill-opacity="1" /><path clip-path="url(#clip940)" d="M98.8622 544.531 L117.219 544.531 L117.219 548.466 L103.145 548.466 L103.145 556.938 Q104.163 556.591 105.182 556.429 Q106.2 556.244 107.219 556.244 Q113.006 556.244 116.385 559.415 Q119.765 562.586 119.765 568.003 Q119.765 573.582 116.293 576.684 Q112.82 579.762 106.501 579.762 Q104.325 579.762 102.057 579.392 Q99.8113 579.022 97.4039 578.281 L97.4039 573.582 Q99.4872 574.716 101.709 575.272 Q103.932 575.827 106.408 575.827 Q110.413 575.827 112.751 573.721 Q115.089 571.614 115.089 568.003 Q115.089 564.392 112.751 562.286 Q110.413 560.179 106.408 560.179 Q104.534 560.179 102.659 560.596 Q100.807 561.012 98.8622 561.892 L98.8622 544.531 Z" fill="#000000" fill-rule="nonzero" fill-opacity="1" /><path clip-path="url(#clip940)" d="M56.6171 281.519 L72.9365 281.519 L72.9365 285.454 L50.9921 285.454 L50.9921 281.519 Q53.6541 278.764 58.2375 274.135 Q62.8439 269.482 64.0245 268.139 Q66.2698 265.616 67.1494 263.88 Q68.0522 262.121 68.0522 260.431 Q68.0522 257.677 66.1078 255.94 Q64.1865 254.204 61.0847 254.204 Q58.8856 254.204 56.4319 254.968 Q54.0014 255.732 51.2236 257.283 L51.2236 252.561 Q54.0477 251.427 56.5014 250.848 Q58.955 250.269 60.9921 250.269 Q66.3624 250.269 69.5568 252.954 Q72.7513 255.639 72.7513 260.13 Q72.7513 262.26 71.9411 264.181 Q71.1541 266.079 69.0476 268.672 Q68.4689 269.343 65.367 272.561 Q62.2652 275.755 56.6171 281.519 Z" fill="#000000" fill-rule="nonzero" fill-opacity="1" /><path clip-path="url(#clip940)" d="M82.7512 279.575 L87.6354 279.575 L87.6354 285.454 L82.7512 285.454 L82.7512 279.575 Z" fill="#000000" fill-rule="nonzero" fill-opacity="1" /><path clip-path="url(#clip940)" d="M107.821 253.973 Q104.209 253.973 102.381 257.538 Q100.575 261.079 100.575 268.209 Q100.575 275.315 102.381 278.88 Q104.209 282.422 107.821 282.422 Q111.455 282.422 113.26 278.88 Q115.089 275.315 115.089 268.209 Q115.089 261.079 113.26 257.538 Q111.455 253.973 107.821 253.973 M107.821 250.269 Q113.631 250.269 116.686 254.876 Q119.765 259.459 119.765 268.209 Q119.765 276.936 116.686 281.542 Q113.631 286.125 107.821 286.125 Q102.01 286.125 98.9317 281.542 Q95.8761 276.936 95.8761 268.209 Q95.8761 259.459 98.9317 254.876 Q102.01 250.269 107.821 250.269 Z" fill="#000000" fill-rule="nonzero" fill-opacity="1" /><polyline clip-path="url(#clip942)" style="stroke:#009af9; stroke-linecap:round; stroke-linejoin:round; stroke-width:4; stroke-opacity:1; fill:none" points="217.944,106.022 448.236,206.827 678.529,664.356 908.822,974.341 1139.11,1076.7 1369.41,912.715 1599.7,1114.09 1829.99,1163.63 2060.28,1187.22 2290.58,1203.84 "/>
<polyline clip-path="url(#clip942)" style="stroke:#e26f46; stroke-linecap:round; stroke-linejoin:round; stroke-width:4; stroke-opacity:1; fill:none" points="217.944,86.1857 448.236,351.384 678.529,821.437 908.822,999.162 1139.11,1065.89 1369.41,1029.53 1599.7,1082.81 1829.99,1137.53 2060.28,1145.32 2290.58,1151.05 "/>
<polyline clip-path="url(#clip942)" style="stroke:#3da44d; stroke-linecap:round; stroke-linejoin:round; stroke-width:4; stroke-opacity:1; fill:none" points="217.944,1384.24 448.236,1231.38 678.529,1060.11 908.822,994.949 1139.11,980.197 1369.41,984.03 1599.7,979.326 1829.99,958.476 2060.28,958.186 2290.58,959.173 "/>
<path clip-path="url(#clip940)" d="M1837.79 300.469 L2279.52 300.469 L2279.52 93.1086 L1837.79 93.1086  Z" fill="#ffffff" fill-rule="evenodd" fill-opacity="1"/>
<polyline clip-path="url(#clip940)" style="stroke:#000000; stroke-linecap:round; stroke-linejoin:round; stroke-width:4; stroke-opacity:1; fill:none" points="1837.79,300.469 2279.52,300.469 2279.52,93.1086 1837.79,93.1086 1837.79,300.469 "/>
<polyline clip-path="url(#clip940)" style="stroke:#009af9; stroke-linecap:round; stroke-linejoin:round; stroke-width:4; stroke-opacity:1; fill:none" points="1862.2,144.949 2008.67,144.949 "/>
<path clip-path="url(#clip940)" d="M2040.48 128.942 L2040.48 136.303 L2049.26 136.303 L2049.26 139.613 L2040.48 139.613 L2040.48 153.687 Q2040.48 156.858 2041.34 157.761 Q2042.22 158.664 2044.88 158.664 L2049.26 158.664 L2049.26 162.229 L2044.88 162.229 Q2039.95 162.229 2038.08 160.4 Q2036.2 158.548 2036.2 153.687 L2036.2 139.613 L2033.08 139.613 L2033.08 136.303 L2036.2 136.303 L2036.2 128.942 L2040.48 128.942 Z" fill="#000000" fill-rule="nonzero" fill-opacity="1" /><path clip-path="url(#clip940)" d="M2069.88 140.284 Q2069.16 139.868 2068.31 139.682 Q2067.47 139.474 2066.46 139.474 Q2062.84 139.474 2060.9 141.835 Q2058.98 144.173 2058.98 148.571 L2058.98 162.229 L2054.7 162.229 L2054.7 136.303 L2058.98 136.303 L2058.98 140.331 Q2060.32 137.969 2062.47 136.835 Q2064.63 135.678 2067.71 135.678 Q2068.15 135.678 2068.68 135.747 Q2069.21 135.794 2069.86 135.909 L2069.88 140.284 Z" fill="#000000" fill-rule="nonzero" fill-opacity="1" /><path clip-path="url(#clip940)" d="M2086.13 149.196 Q2080.97 149.196 2078.98 150.377 Q2076.99 151.557 2076.99 154.405 Q2076.99 156.673 2078.47 158.016 Q2079.97 159.335 2082.54 159.335 Q2086.08 159.335 2088.21 156.835 Q2090.37 154.312 2090.37 150.145 L2090.37 149.196 L2086.13 149.196 M2094.63 147.437 L2094.63 162.229 L2090.37 162.229 L2090.37 158.293 Q2088.91 160.655 2086.73 161.789 Q2084.56 162.9 2081.41 162.9 Q2077.43 162.9 2075.07 160.678 Q2072.73 158.432 2072.73 154.682 Q2072.73 150.307 2075.65 148.085 Q2078.59 145.863 2084.4 145.863 L2090.37 145.863 L2090.37 145.446 Q2090.37 142.507 2088.42 140.909 Q2086.5 139.289 2083.01 139.289 Q2080.78 139.289 2078.68 139.821 Q2076.57 140.354 2074.63 141.419 L2074.63 137.483 Q2076.96 136.581 2079.16 136.141 Q2081.36 135.678 2083.45 135.678 Q2089.07 135.678 2091.85 138.594 Q2094.63 141.511 2094.63 147.437 Z" fill="#000000" fill-rule="nonzero" fill-opacity="1" /><path clip-path="url(#clip940)" d="M2103.4 136.303 L2107.66 136.303 L2107.66 162.229 L2103.4 162.229 L2103.4 136.303 M2103.4 126.21 L2107.66 126.21 L2107.66 131.604 L2103.4 131.604 L2103.4 126.21 Z" fill="#000000" fill-rule="nonzero" fill-opacity="1" /><path clip-path="url(#clip940)" d="M2138.12 146.581 L2138.12 162.229 L2133.86 162.229 L2133.86 146.719 Q2133.86 143.039 2132.43 141.21 Q2130.99 139.382 2128.12 139.382 Q2124.67 139.382 2122.68 141.581 Q2120.69 143.78 2120.69 147.576 L2120.69 162.229 L2116.41 162.229 L2116.41 136.303 L2120.69 136.303 L2120.69 140.331 Q2122.22 137.993 2124.28 136.835 Q2126.36 135.678 2129.07 135.678 Q2133.54 135.678 2135.83 138.456 Q2138.12 141.21 2138.12 146.581 Z" fill="#000000" fill-rule="nonzero" fill-opacity="1" /><path clip-path="url(#clip940)" d="M2166.32 170.099 L2166.32 173.409 L2141.69 173.409 L2141.69 170.099 L2166.32 170.099 Z" fill="#000000" fill-rule="nonzero" fill-opacity="1" /><path clip-path="url(#clip940)" d="M2170.32 126.21 L2174.58 126.21 L2174.58 162.229 L2170.32 162.229 L2170.32 126.21 Z" fill="#000000" fill-rule="nonzero" fill-opacity="1" /><path clip-path="url(#clip940)" d="M2193.54 139.289 Q2190.11 139.289 2188.12 141.974 Q2186.13 144.636 2186.13 149.289 Q2186.13 153.942 2188.1 156.627 Q2190.09 159.289 2193.54 159.289 Q2196.94 159.289 2198.93 156.604 Q2200.92 153.918 2200.92 149.289 Q2200.92 144.682 2198.93 141.997 Q2196.94 139.289 2193.54 139.289 M2193.54 135.678 Q2199.09 135.678 2202.26 139.289 Q2205.44 142.9 2205.44 149.289 Q2205.44 155.655 2202.26 159.289 Q2199.09 162.9 2193.54 162.9 Q2187.96 162.9 2184.79 159.289 Q2181.64 155.655 2181.64 149.289 Q2181.64 142.9 2184.79 139.289 Q2187.96 135.678 2193.54 135.678 Z" fill="#000000" fill-rule="nonzero" fill-opacity="1" /><path clip-path="url(#clip940)" d="M2229.02 137.067 L2229.02 141.094 Q2227.22 140.169 2225.27 139.706 Q2223.33 139.243 2221.25 139.243 Q2218.08 139.243 2216.48 140.215 Q2214.9 141.187 2214.9 143.131 Q2214.9 144.613 2216.04 145.469 Q2217.17 146.303 2220.6 147.067 L2222.06 147.391 Q2226.59 148.363 2228.49 150.145 Q2230.41 151.905 2230.41 155.076 Q2230.41 158.687 2227.54 160.793 Q2224.7 162.9 2219.7 162.9 Q2217.61 162.9 2215.34 162.483 Q2213.1 162.09 2210.6 161.28 L2210.6 156.881 Q2212.96 158.108 2215.25 158.733 Q2217.54 159.335 2219.79 159.335 Q2222.8 159.335 2224.42 158.317 Q2226.04 157.275 2226.04 155.4 Q2226.04 153.664 2224.86 152.738 Q2223.7 151.812 2219.74 150.956 L2218.26 150.608 Q2214.3 149.775 2212.54 148.062 Q2210.78 146.326 2210.78 143.317 Q2210.78 139.659 2213.38 137.669 Q2215.97 135.678 2220.74 135.678 Q2223.1 135.678 2225.18 136.025 Q2227.26 136.372 2229.02 137.067 Z" fill="#000000" fill-rule="nonzero" fill-opacity="1" /><path clip-path="url(#clip940)" d="M2253.72 137.067 L2253.72 141.094 Q2251.92 140.169 2249.97 139.706 Q2248.03 139.243 2245.95 139.243 Q2242.77 139.243 2241.18 140.215 Q2239.6 141.187 2239.6 143.131 Q2239.6 144.613 2240.74 145.469 Q2241.87 146.303 2245.3 147.067 L2246.76 147.391 Q2251.29 148.363 2253.19 150.145 Q2255.11 151.905 2255.11 155.076 Q2255.11 158.687 2252.24 160.793 Q2249.39 162.9 2244.39 162.9 Q2242.31 162.9 2240.04 162.483 Q2237.8 162.09 2235.3 161.28 L2235.3 156.881 Q2237.66 158.108 2239.95 158.733 Q2242.24 159.335 2244.49 159.335 Q2247.5 159.335 2249.12 158.317 Q2250.74 157.275 2250.74 155.4 Q2250.74 153.664 2249.56 152.738 Q2248.4 151.812 2244.44 150.956 L2242.96 150.608 Q2239 149.775 2237.24 148.062 Q2235.48 146.326 2235.48 143.317 Q2235.48 139.659 2238.07 137.669 Q2240.67 135.678 2245.44 135.678 Q2247.8 135.678 2249.88 136.025 Q2251.96 136.372 2253.72 137.067 Z" fill="#000000" fill-rule="nonzero" fill-opacity="1" /><polyline clip-path="url(#clip940)" style="stroke:#e26f46; stroke-linecap:round; stroke-linejoin:round; stroke-width:4; stroke-opacity:1; fill:none" points="1862.2,196.789 2008.67,196.789 "/>
<path clip-path="url(#clip940)" d="M2033.08 188.143 L2037.59 188.143 L2045.69 209.902 L2053.79 188.143 L2058.31 188.143 L2048.59 214.069 L2042.8 214.069 L2033.08 188.143 Z" fill="#000000" fill-rule="nonzero" fill-opacity="1" /><path clip-path="url(#clip940)" d="M2075.97 201.036 Q2070.81 201.036 2068.82 202.217 Q2066.83 203.397 2066.83 206.245 Q2066.83 208.513 2068.31 209.856 Q2069.81 211.175 2072.38 211.175 Q2075.92 211.175 2078.05 208.675 Q2080.21 206.152 2080.21 201.985 L2080.21 201.036 L2075.97 201.036 M2084.46 199.277 L2084.46 214.069 L2080.21 214.069 L2080.21 210.133 Q2078.75 212.495 2076.57 213.629 Q2074.4 214.74 2071.25 214.74 Q2067.27 214.74 2064.9 212.518 Q2062.57 210.272 2062.57 206.522 Q2062.57 202.147 2065.48 199.925 Q2068.42 197.703 2074.23 197.703 L2080.21 197.703 L2080.21 197.286 Q2080.21 194.347 2078.26 192.749 Q2076.34 191.129 2072.84 191.129 Q2070.62 191.129 2068.52 191.661 Q2066.41 192.194 2064.46 193.259 L2064.46 189.323 Q2066.8 188.421 2069 187.981 Q2071.2 187.518 2073.28 187.518 Q2078.91 187.518 2081.69 190.434 Q2084.46 193.351 2084.46 199.277 Z" fill="#000000" fill-rule="nonzero" fill-opacity="1" /><path clip-path="url(#clip940)" d="M2093.24 178.05 L2097.5 178.05 L2097.5 214.069 L2093.24 214.069 L2093.24 178.05 Z" fill="#000000" fill-rule="nonzero" fill-opacity="1" /><path clip-path="url(#clip940)" d="M2126.11 221.939 L2126.11 225.249 L2101.48 225.249 L2101.48 221.939 L2126.11 221.939 Z" fill="#000000" fill-rule="nonzero" fill-opacity="1" /><path clip-path="url(#clip940)" d="M2130.11 178.05 L2134.37 178.05 L2134.37 214.069 L2130.11 214.069 L2130.11 178.05 Z" fill="#000000" fill-rule="nonzero" fill-opacity="1" /><path clip-path="url(#clip940)" d="M2153.33 191.129 Q2149.9 191.129 2147.91 193.814 Q2145.92 196.476 2145.92 201.129 Q2145.92 205.782 2147.89 208.467 Q2149.88 211.129 2153.33 211.129 Q2156.73 211.129 2158.72 208.444 Q2160.71 205.758 2160.71 201.129 Q2160.71 196.522 2158.72 193.837 Q2156.73 191.129 2153.33 191.129 M2153.33 187.518 Q2158.89 187.518 2162.06 191.129 Q2165.23 194.74 2165.23 201.129 Q2165.23 207.495 2162.06 211.129 Q2158.89 214.74 2153.33 214.74 Q2147.75 214.74 2144.58 211.129 Q2141.43 207.495 2141.43 201.129 Q2141.43 194.74 2144.58 191.129 Q2147.75 187.518 2153.33 187.518 Z" fill="#000000" fill-rule="nonzero" fill-opacity="1" /><path clip-path="url(#clip940)" d="M2188.82 188.907 L2188.82 192.934 Q2187.01 192.009 2185.07 191.546 Q2183.12 191.083 2181.04 191.083 Q2177.87 191.083 2176.27 192.055 Q2174.7 193.027 2174.7 194.971 Q2174.7 196.453 2175.83 197.309 Q2176.96 198.143 2180.39 198.907 L2181.85 199.231 Q2186.39 200.203 2188.28 201.985 Q2190.2 203.745 2190.2 206.916 Q2190.2 210.527 2187.33 212.633 Q2184.49 214.74 2179.49 214.74 Q2177.4 214.74 2175.14 214.323 Q2172.89 213.93 2170.39 213.12 L2170.39 208.721 Q2172.75 209.948 2175.04 210.573 Q2177.33 211.175 2179.58 211.175 Q2182.59 211.175 2184.21 210.157 Q2185.83 209.115 2185.83 207.24 Q2185.83 205.504 2184.65 204.578 Q2183.49 203.652 2179.53 202.796 L2178.05 202.448 Q2174.09 201.615 2172.33 199.902 Q2170.58 198.166 2170.58 195.157 Q2170.58 191.499 2173.17 189.509 Q2175.76 187.518 2180.53 187.518 Q2182.89 187.518 2184.97 187.865 Q2187.06 188.212 2188.82 188.907 Z" fill="#000000" fill-rule="nonzero" fill-opacity="1" /><path clip-path="url(#clip940)" d="M2213.51 188.907 L2213.51 192.934 Q2211.71 192.009 2209.76 191.546 Q2207.82 191.083 2205.74 191.083 Q2202.57 191.083 2200.97 192.055 Q2199.39 193.027 2199.39 194.971 Q2199.39 196.453 2200.53 197.309 Q2201.66 198.143 2205.09 198.907 L2206.55 199.231 Q2211.08 200.203 2212.98 201.985 Q2214.9 203.745 2214.9 206.916 Q2214.9 210.527 2212.03 212.633 Q2209.19 214.74 2204.19 214.74 Q2202.1 214.74 2199.83 214.323 Q2197.59 213.93 2195.09 213.12 L2195.09 208.721 Q2197.45 209.948 2199.74 210.573 Q2202.03 211.175 2204.28 211.175 Q2207.29 211.175 2208.91 210.157 Q2210.53 209.115 2210.53 207.24 Q2210.53 205.504 2209.35 204.578 Q2208.19 203.652 2204.23 202.796 L2202.75 202.448 Q2198.79 201.615 2197.03 199.902 Q2195.27 198.166 2195.27 195.157 Q2195.27 191.499 2197.87 189.509 Q2200.46 187.518 2205.23 187.518 Q2207.59 187.518 2209.67 187.865 Q2211.76 188.212 2213.51 188.907 Z" fill="#000000" fill-rule="nonzero" fill-opacity="1" /><polyline clip-path="url(#clip940)" style="stroke:#3da44d; stroke-linecap:round; stroke-linejoin:round; stroke-width:4; stroke-opacity:1; fill:none" points="1862.2,248.629 2008.67,248.629 "/>
<path clip-path="url(#clip940)" d="M2033.08 239.983 L2037.59 239.983 L2045.69 261.742 L2053.79 239.983 L2058.31 239.983 L2048.59 265.909 L2042.8 265.909 L2033.08 239.983 Z" fill="#000000" fill-rule="nonzero" fill-opacity="1" /><path clip-path="url(#clip940)" d="M2075.97 252.876 Q2070.81 252.876 2068.82 254.057 Q2066.83 255.237 2066.83 258.085 Q2066.83 260.353 2068.31 261.696 Q2069.81 263.015 2072.38 263.015 Q2075.92 263.015 2078.05 260.515 Q2080.21 257.992 2080.21 253.825 L2080.21 252.876 L2075.97 252.876 M2084.46 251.117 L2084.46 265.909 L2080.21 265.909 L2080.21 261.973 Q2078.75 264.335 2076.57 265.469 Q2074.4 266.58 2071.25 266.58 Q2067.27 266.58 2064.9 264.358 Q2062.57 262.112 2062.57 258.362 Q2062.57 253.987 2065.48 251.765 Q2068.42 249.543 2074.23 249.543 L2080.21 249.543 L2080.21 249.126 Q2080.21 246.187 2078.26 244.589 Q2076.34 242.969 2072.84 242.969 Q2070.62 242.969 2068.52 243.501 Q2066.41 244.034 2064.46 245.099 L2064.46 241.163 Q2066.8 240.261 2069 239.821 Q2071.2 239.358 2073.28 239.358 Q2078.91 239.358 2081.69 242.274 Q2084.46 245.191 2084.46 251.117 Z" fill="#000000" fill-rule="nonzero" fill-opacity="1" /><path clip-path="url(#clip940)" d="M2093.24 229.89 L2097.5 229.89 L2097.5 265.909 L2093.24 265.909 L2093.24 229.89 Z" fill="#000000" fill-rule="nonzero" fill-opacity="1" /><path clip-path="url(#clip940)" d="M2126.11 273.779 L2126.11 277.089 L2101.48 277.089 L2101.48 273.779 L2126.11 273.779 Z" fill="#000000" fill-rule="nonzero" fill-opacity="1" /><path clip-path="url(#clip940)" d="M2141.89 252.876 Q2136.73 252.876 2134.74 254.057 Q2132.75 255.237 2132.75 258.085 Q2132.75 260.353 2134.23 261.696 Q2135.74 263.015 2138.31 263.015 Q2141.85 263.015 2143.98 260.515 Q2146.13 257.992 2146.13 253.825 L2146.13 252.876 L2141.89 252.876 M2150.39 251.117 L2150.39 265.909 L2146.13 265.909 L2146.13 261.973 Q2144.67 264.335 2142.5 265.469 Q2140.32 266.58 2137.17 266.58 Q2133.19 266.58 2130.83 264.358 Q2128.49 262.112 2128.49 258.362 Q2128.49 253.987 2131.41 251.765 Q2134.35 249.543 2140.16 249.543 L2146.13 249.543 L2146.13 249.126 Q2146.13 246.187 2144.19 244.589 Q2142.27 242.969 2138.77 242.969 Q2136.55 242.969 2134.44 243.501 Q2132.33 244.034 2130.39 245.099 L2130.39 241.163 Q2132.73 240.261 2134.93 239.821 Q2137.13 239.358 2139.21 239.358 Q2144.83 239.358 2147.61 242.274 Q2150.39 245.191 2150.39 251.117 Z" fill="#000000" fill-rule="nonzero" fill-opacity="1" /><path clip-path="url(#clip940)" d="M2177.82 240.978 L2177.82 244.96 Q2176.02 243.964 2174.19 243.478 Q2172.38 242.969 2170.53 242.969 Q2166.39 242.969 2164.09 245.608 Q2161.8 248.224 2161.8 252.969 Q2161.8 257.714 2164.09 260.353 Q2166.39 262.969 2170.53 262.969 Q2172.38 262.969 2174.19 262.483 Q2176.02 261.973 2177.82 260.978 L2177.82 264.913 Q2176.04 265.747 2174.12 266.163 Q2172.22 266.58 2170.07 266.58 Q2164.21 266.58 2160.76 262.899 Q2157.31 259.219 2157.31 252.969 Q2157.31 246.626 2160.78 242.992 Q2164.28 239.358 2170.34 239.358 Q2172.31 239.358 2174.19 239.775 Q2176.06 240.168 2177.82 240.978 Z" fill="#000000" fill-rule="nonzero" fill-opacity="1" /><path clip-path="url(#clip940)" d="M2203.89 240.978 L2203.89 244.96 Q2202.08 243.964 2200.25 243.478 Q2198.45 242.969 2196.59 242.969 Q2192.45 242.969 2190.16 245.608 Q2187.87 248.224 2187.87 252.969 Q2187.87 257.714 2190.16 260.353 Q2192.45 262.969 2196.59 262.969 Q2198.45 262.969 2200.25 262.483 Q2202.08 261.973 2203.89 260.978 L2203.89 264.913 Q2202.1 265.747 2200.18 266.163 Q2198.28 266.58 2196.13 266.58 Q2190.27 266.58 2186.83 262.899 Q2183.38 259.219 2183.38 252.969 Q2183.38 246.626 2186.85 242.992 Q2190.34 239.358 2196.41 239.358 Q2198.38 239.358 2200.25 239.775 Q2202.13 240.168 2203.89 240.978 Z" fill="#000000" fill-rule="nonzero" fill-opacity="1" /></svg>
