<?xml version="1.0" encoding="utf-8"?>
<svg xmlns="http://www.w3.org/2000/svg" xmlns:xlink="http://www.w3.org/1999/xlink" width="600" height="400" viewBox="0 0 2400 1600">
<defs>
  <clipPath id="clip080">
    <rect x="0" y="0" width="2400" height="1600"/>
  </clipPath>
</defs>
<path clip-path="url(#clip080)" d="M0 1600 L2400 1600 L2400 0 L0 0  Z" fill="#ffffff" fill-rule="evenodd" fill-opacity="1"/>
<defs>
  <clipPath id="clip081">
    <rect x="480" y="0" width="1681" height="1600"/>
  </clipPath>
</defs>
<path clip-path="url(#clip080)" d="M156.598 1423.18 L2352.76 1423.18 L2352.76 47.2441 L156.598 47.2441  Z" fill="#ffffff" fill-rule="evenodd" fill-opacity="1"/>
<defs>
  <clipPath id="clip082">
    <rect x="156" y="47" width="2197" height="1377"/>
  </clipPath>
</defs>
<polyline clip-path="url(#clip082)" style="stroke:#000000; stroke-linecap:round; stroke-linejoin:round; stroke-width:2; stroke-opacity:0.1; fill:none" points="448.959,1423.18 448.959,47.2441 "/>
<polyline clip-path="url(#clip082)" style="stroke:#000000; stroke-linecap:round; stroke-linejoin:round; stroke-width:2; stroke-opacity:0.1; fill:none" points="909.369,1423.18 909.369,47.2441 "/>
<polyline clip-path="url(#clip082)" style="stroke:#000000; stroke-linecap:round; stroke-linejoin:round; stroke-width:2; stroke-opacity:0.1; fill:none" points="1369.78,1423.18 1369.78,47.2441 "/>
<polyline clip-path="url(#clip082)" style="stroke:#000000; stroke-linecap:round; stroke-linejoin:round; stroke-width:2; stroke-opacity:0.1; fill:none" points="1830.19,1423.18 1830.19,47.2441 "/>
<polyline clip-path="url(#clip082)" style="stroke:#000000; stroke-linecap:round; stroke-linejoin:round; stroke-width:2; stroke-opacity:0.1; fill:none" points="2290.6,1423.18 2290.6,47.2441 "/>
<polyline clip-path="url(#clip082)" style="stroke:#000000; stroke-linecap:round; stroke-linejoin:round; stroke-width:2; stroke-opacity:0.1; fill:none" points="156.598,1266.2 2352.76,1266.2 "/>
<polyline clip-path="url(#clip082)" style="stroke:#000000; stroke-linecap:round; stroke-linejoin:round; stroke-width:2; stroke-opacity:0.1; fill:none" points="156.598,1066.01 2352.76,1066.01 "/>
<polyline clip-path="url(#clip082)" style="stroke:#000000; stroke-linecap:round; stroke-linejoin:round; stroke-width:2; stroke-opacity:0.1; fill:none" points="156.598,865.814 2352.76,865.814 "/>
<polyline clip-path="url(#clip082)" style="stroke:#000000; stroke-linecap:round; stroke-linejoin:round; stroke-width:2; stroke-opacity:0.1; fill:none" points="156.598,665.621 2352.76,665.621 "/>
<polyline clip-path="url(#clip082)" style="stroke:#000000; stroke-linecap:round; stroke-linejoin:round; stroke-width:2; stroke-opacity:0.1; fill:none" points="156.598,465.428 2352.76,465.428 "/>
<polyline clip-path="url(#clip082)" style="stroke:#000000; stroke-linecap:round; stroke-linejoin:round; stroke-width:2; stroke-opacity:0.1; fill:none" points="156.598,265.235 2352.76,265.235 "/>
<polyline clip-path="url(#clip082)" style="stroke:#000000; stroke-linecap:round; stroke-linejoin:round; stroke-width:2; stroke-opacity:0.1; fill:none" points="156.598,65.0419 2352.76,65.0419 "/>
<polyline clip-path="url(#clip080)" style="stroke:#000000; stroke-linecap:round; stroke-linejoin:round; stroke-width:4; stroke-opacity:1; fill:none" points="156.598,1423.18 2352.76,1423.18 "/>
<polyline clip-path="url(#clip080)" style="stroke:#000000; stroke-linecap:round; stroke-linejoin:round; stroke-width:4; stroke-opacity:1; fill:none" points="448.959,1423.18 448.959,1404.28 "/>
<polyline clip-path="url(#clip080)" style="stroke:#000000; stroke-linecap:round; stroke-linejoin:round; stroke-width:4; stroke-opacity:1; fill:none" points="909.369,1423.18 909.369,1404.28 "/>
<polyline clip-path="url(#clip080)" style="stroke:#000000; stroke-linecap:round; stroke-linejoin:round; stroke-width:4; stroke-opacity:1; fill:none" points="1369.78,1423.18 1369.78,1404.28 "/>
<polyline clip-path="url(#clip080)" style="stroke:#000000; stroke-linecap:round; stroke-linejoin:round; stroke-width:4; stroke-opacity:1; fill:none" points="1830.19,1423.18 1830.19,1404.28 "/>
<polyline clip-path="url(#clip080)" style="stroke:#000000; stroke-linecap:round; stroke-linejoin:round; stroke-width:4; stroke-opacity:1; fill:none" points="2290.6,1423.18 2290.6,1404.28 "/>
<path clip-path="url(#clip080)" d="M443.612 1481.64 L459.931 1481.64 L459.931 1485.58 L437.987 1485.58 L437.987 1481.64 Q440.649 1478.89 445.232 1474.26 Q449.838 1469.61 451.019 1468.27 Q453.264 1465.74 454.144 1464.01 Q455.047 1462.25 455.047 1460.56 Q455.047 1457.8 453.102 1456.07 Q451.181 1454.33 448.079 1454.33 Q445.88 1454.33 443.426 1455.09 Q440.996 1455.86 438.218 1457.41 L438.218 1452.69 Q441.042 1451.55 443.496 1450.97 Q445.95 1450.39 447.987 1450.39 Q453.357 1450.39 456.551 1453.08 Q459.746 1455.77 459.746 1460.26 Q459.746 1462.39 458.936 1464.31 Q458.149 1466.2 456.042 1468.8 Q455.463 1469.47 452.362 1472.69 Q449.26 1475.88 443.612 1481.64 Z" fill="#000000" fill-rule="nonzero" fill-opacity="1" /><path clip-path="url(#clip080)" d="M912.379 1455.09 L900.573 1473.54 L912.379 1473.54 L912.379 1455.09 M911.152 1451.02 L917.031 1451.02 L917.031 1473.54 L921.962 1473.54 L921.962 1477.43 L917.031 1477.43 L917.031 1485.58 L912.379 1485.58 L912.379 1477.43 L896.777 1477.43 L896.777 1472.92 L911.152 1451.02 Z" fill="#000000" fill-rule="nonzero" fill-opacity="1" /><path clip-path="url(#clip080)" d="M1370.18 1466.44 Q1367.04 1466.44 1365.18 1468.59 Q1363.36 1470.74 1363.36 1474.49 Q1363.36 1478.22 1365.18 1480.39 Q1367.04 1482.55 1370.18 1482.55 Q1373.33 1482.55 1375.16 1480.39 Q1377.01 1478.22 1377.01 1474.49 Q1377.01 1470.74 1375.16 1468.59 Q1373.33 1466.44 1370.18 1466.44 M1379.47 1451.78 L1379.47 1456.04 Q1377.71 1455.21 1375.9 1454.77 Q1374.12 1454.33 1372.36 1454.33 Q1367.73 1454.33 1365.28 1457.45 Q1362.85 1460.58 1362.5 1466.9 Q1363.87 1464.89 1365.93 1463.82 Q1367.99 1462.73 1370.46 1462.73 Q1375.67 1462.73 1378.68 1465.9 Q1381.71 1469.05 1381.71 1474.49 Q1381.71 1479.82 1378.56 1483.03 Q1375.42 1486.25 1370.18 1486.25 Q1364.19 1486.25 1361.02 1481.67 Q1357.85 1477.06 1357.85 1468.33 Q1357.85 1460.14 1361.74 1455.28 Q1365.62 1450.39 1372.18 1450.39 Q1373.93 1450.39 1375.72 1450.74 Q1377.52 1451.09 1379.47 1451.78 Z" fill="#000000" fill-rule="nonzero" fill-opacity="1" /><path clip-path="url(#clip080)" d="M1830.19 1469.17 Q1826.86 1469.17 1824.94 1470.95 Q1823.04 1472.73 1823.04 1475.86 Q1823.04 1478.98 1824.94 1480.77 Q1826.86 1482.55 1830.19 1482.55 Q1833.52 1482.55 1835.44 1480.77 Q1837.37 1478.96 1837.37 1475.86 Q1837.37 1472.73 1835.44 1470.95 Q1833.55 1469.17 1830.19 1469.17 M1825.51 1467.18 Q1822.5 1466.44 1820.82 1464.38 Q1819.15 1462.32 1819.15 1459.35 Q1819.15 1455.21 1822.09 1452.8 Q1825.05 1450.39 1830.19 1450.39 Q1835.35 1450.39 1838.29 1452.8 Q1841.23 1455.21 1841.23 1459.35 Q1841.23 1462.32 1839.54 1464.38 Q1837.88 1466.44 1834.89 1467.18 Q1838.27 1467.96 1840.14 1470.26 Q1842.04 1472.55 1842.04 1475.86 Q1842.04 1480.88 1838.96 1483.57 Q1835.91 1486.25 1830.19 1486.25 Q1824.47 1486.25 1821.39 1483.57 Q1818.34 1480.88 1818.34 1475.86 Q1818.34 1472.55 1820.24 1470.26 Q1822.13 1467.96 1825.51 1467.18 M1823.8 1459.79 Q1823.8 1462.48 1825.47 1463.98 Q1827.16 1465.49 1830.19 1465.49 Q1833.2 1465.49 1834.89 1463.98 Q1836.6 1462.48 1836.6 1459.79 Q1836.6 1457.11 1834.89 1455.6 Q1833.2 1454.1 1830.19 1454.1 Q1827.16 1454.1 1825.47 1455.6 Q1823.8 1457.11 1823.8 1459.79 Z" fill="#000000" fill-rule="nonzero" fill-opacity="1" /><path clip-path="url(#clip080)" d="M2265.29 1481.64 L2272.93 1481.64 L2272.93 1455.28 L2264.62 1456.95 L2264.62 1452.69 L2272.88 1451.02 L2277.56 1451.02 L2277.56 1481.64 L2285.2 1481.64 L2285.2 1485.58 L2265.29 1485.58 L2265.29 1481.64 Z" fill="#000000" fill-rule="nonzero" fill-opacity="1" /><path clip-path="url(#clip080)" d="M2304.64 1454.1 Q2301.03 1454.1 2299.2 1457.66 Q2297.39 1461.2 2297.39 1468.33 Q2297.39 1475.44 2299.2 1479.01 Q2301.03 1482.55 2304.64 1482.55 Q2308.27 1482.55 2310.08 1479.01 Q2311.91 1475.44 2311.91 1468.33 Q2311.91 1461.2 2310.08 1457.66 Q2308.27 1454.1 2304.64 1454.1 M2304.64 1450.39 Q2310.45 1450.39 2313.51 1455 Q2316.58 1459.58 2316.58 1468.33 Q2316.58 1477.06 2313.51 1481.67 Q2310.45 1486.25 2304.64 1486.25 Q2298.83 1486.25 2295.75 1481.67 Q2292.7 1477.06 2292.7 1468.33 Q2292.7 1459.58 2295.75 1455 Q2298.83 1450.39 2304.64 1450.39 Z" fill="#000000" fill-rule="nonzero" fill-opacity="1" /><path clip-path="url(#clip080)" d="M1174.87 1548.76 L1174.87 1551.62 L1147.94 1551.62 Q1148.32 1557.67 1151.57 1560.85 Q1154.85 1564 1160.67 1564 Q1164.05 1564 1167.2 1563.17 Q1170.38 1562.35 1173.5 1560.69 L1173.5 1566.23 Q1170.35 1567.57 1167.04 1568.27 Q1163.73 1568.97 1160.32 1568.97 Q1151.79 1568.97 1146.79 1564 Q1141.83 1559.04 1141.83 1550.57 Q1141.83 1541.82 1146.54 1536.69 Q1151.28 1531.54 1159.3 1531.54 Q1166.5 1531.54 1170.67 1536.18 Q1174.87 1540.8 1174.87 1548.76 M1169.01 1547.04 Q1168.95 1542.23 1166.31 1539.37 Q1163.7 1536.5 1159.37 1536.5 Q1154.46 1536.5 1151.5 1539.27 Q1148.58 1542.04 1148.13 1547.07 L1169.01 1547.04 Z" fill="#000000" fill-rule="nonzero" fill-opacity="1" /><path clip-path="url(#clip080)" d="M1190.14 1562.7 L1190.14 1581.6 L1184.26 1581.6 L1184.26 1532.4 L1190.14 1532.4 L1190.14 1537.81 Q1191.99 1534.62 1194.79 1533.1 Q1197.62 1531.54 1201.54 1531.54 Q1208.03 1531.54 1212.07 1536.69 Q1216.15 1541.85 1216.15 1550.25 Q1216.15 1558.65 1212.07 1563.81 Q1208.03 1568.97 1201.54 1568.97 Q1197.62 1568.97 1194.79 1567.44 Q1191.99 1565.88 1190.14 1562.7 M1210.07 1550.25 Q1210.07 1543.79 1207.4 1540.13 Q1204.75 1536.44 1200.11 1536.44 Q1195.46 1536.44 1192.79 1540.13 Q1190.14 1543.79 1190.14 1550.25 Q1190.14 1556.71 1192.79 1560.4 Q1195.46 1564.07 1200.11 1564.07 Q1204.75 1564.07 1207.4 1560.4 Q1210.07 1556.71 1210.07 1550.25 Z" fill="#000000" fill-rule="nonzero" fill-opacity="1" /><path clip-path="url(#clip080)" d="M1239.67 1536.5 Q1234.96 1536.5 1232.22 1540.19 Q1229.48 1543.85 1229.48 1550.25 Q1229.48 1556.65 1232.19 1560.34 Q1234.93 1564 1239.67 1564 Q1244.35 1564 1247.09 1560.31 Q1249.82 1556.62 1249.82 1550.25 Q1249.82 1543.92 1247.09 1540.23 Q1244.35 1536.5 1239.67 1536.5 M1239.67 1531.54 Q1247.31 1531.54 1251.67 1536.5 Q1256.03 1541.47 1256.03 1550.25 Q1256.03 1559 1251.67 1564 Q1247.31 1568.97 1239.67 1568.97 Q1232 1568.97 1227.64 1564 Q1223.31 1559 1223.31 1550.25 Q1223.31 1541.47 1227.64 1536.5 Q1232 1531.54 1239.67 1531.54 Z" fill="#000000" fill-rule="nonzero" fill-opacity="1" /><path clip-path="url(#clip080)" d="M1291.39 1533.76 L1291.39 1539.24 Q1288.91 1537.87 1286.39 1537.2 Q1283.91 1536.5 1281.37 1536.5 Q1275.67 1536.5 1272.52 1540.13 Q1269.37 1543.73 1269.37 1550.25 Q1269.37 1556.78 1272.52 1560.4 Q1275.67 1564 1281.37 1564 Q1283.91 1564 1286.39 1563.33 Q1288.91 1562.63 1291.39 1561.26 L1291.39 1566.68 Q1288.94 1567.82 1286.3 1568.39 Q1283.69 1568.97 1280.73 1568.97 Q1272.68 1568.97 1267.93 1563.91 Q1263.19 1558.85 1263.19 1550.25 Q1263.19 1541.53 1267.97 1536.53 Q1272.77 1531.54 1281.11 1531.54 Q1283.82 1531.54 1286.39 1532.11 Q1288.97 1532.65 1291.39 1533.76 Z" fill="#000000" fill-rule="nonzero" fill-opacity="1" /><path clip-path="url(#clip080)" d="M1331.21 1546.53 L1331.21 1568.04 L1325.35 1568.04 L1325.35 1546.72 Q1325.35 1541.66 1323.38 1539.14 Q1321.41 1536.63 1317.46 1536.63 Q1312.72 1536.63 1309.98 1539.65 Q1307.24 1542.68 1307.24 1547.9 L1307.24 1568.04 L1301.35 1568.04 L1301.35 1518.52 L1307.24 1518.52 L1307.24 1537.93 Q1309.34 1534.72 1312.18 1533.13 Q1315.04 1531.54 1318.76 1531.54 Q1324.91 1531.54 1328.06 1535.36 Q1331.21 1539.14 1331.21 1546.53 Z" fill="#000000" fill-rule="nonzero" fill-opacity="1" /><path clip-path="url(#clip080)" d="M1365.62 1533.45 L1365.62 1538.98 Q1363.13 1537.71 1360.46 1537.07 Q1357.79 1536.44 1354.92 1536.44 Q1350.56 1536.44 1348.36 1537.77 Q1346.2 1539.11 1346.2 1541.79 Q1346.2 1543.82 1347.76 1545 Q1349.32 1546.15 1354.03 1547.2 L1356.04 1547.64 Q1362.27 1548.98 1364.88 1551.43 Q1367.53 1553.85 1367.53 1558.21 Q1367.53 1563.17 1363.58 1566.07 Q1359.66 1568.97 1352.79 1568.97 Q1349.92 1568.97 1346.8 1568.39 Q1343.72 1567.85 1340.28 1566.74 L1340.28 1560.69 Q1343.53 1562.38 1346.68 1563.24 Q1349.83 1564.07 1352.92 1564.07 Q1357.05 1564.07 1359.28 1562.66 Q1361.51 1561.23 1361.51 1558.65 Q1361.51 1556.27 1359.89 1554.99 Q1358.29 1553.72 1352.85 1552.54 L1350.82 1552.07 Q1345.37 1550.92 1342.95 1548.56 Q1340.53 1546.18 1340.53 1542.04 Q1340.53 1537.01 1344.1 1534.27 Q1347.66 1531.54 1354.22 1531.54 Q1357.47 1531.54 1360.33 1532.01 Q1363.2 1532.49 1365.62 1533.45 Z" fill="#000000" fill-rule="nonzero" fill-opacity="1" /><polyline clip-path="url(#clip080)" style="stroke:#000000; stroke-linecap:round; stroke-linejoin:round; stroke-width:4; stroke-opacity:1; fill:none" points="156.598,1423.18 156.598,47.2441 "/>
<polyline clip-path="url(#clip080)" style="stroke:#000000; stroke-linecap:round; stroke-linejoin:round; stroke-width:4; stroke-opacity:1; fill:none" points="156.598,1266.2 175.496,1266.2 "/>
<polyline clip-path="url(#clip080)" style="stroke:#000000; stroke-linecap:round; stroke-linejoin:round; stroke-width:4; stroke-opacity:1; fill:none" points="156.598,1066.01 175.496,1066.01 "/>
<polyline clip-path="url(#clip080)" style="stroke:#000000; stroke-linecap:round; stroke-linejoin:round; stroke-width:4; stroke-opacity:1; fill:none" points="156.598,865.814 175.496,865.814 "/>
<polyline clip-path="url(#clip080)" style="stroke:#000000; stroke-linecap:round; stroke-linejoin:round; stroke-width:4; stroke-opacity:1; fill:none" points="156.598,665.621 175.496,665.621 "/>
<polyline clip-path="url(#clip080)" style="stroke:#000000; stroke-linecap:round; stroke-linejoin:round; stroke-width:4; stroke-opacity:1; fill:none" points="156.598,465.428 175.496,465.428 "/>
<polyline clip-path="url(#clip080)" style="stroke:#000000; stroke-linecap:round; stroke-linejoin:round; stroke-width:4; stroke-opacity:1; fill:none" points="156.598,265.235 175.496,265.235 "/>
<polyline clip-path="url(#clip080)" style="stroke:#000000; stroke-linecap:round; stroke-linejoin:round; stroke-width:4; stroke-opacity:1; fill:none" points="156.598,65.0419 175.496,65.0419 "/>
<path clip-path="url(#clip080)" d="M64.0708 1252 Q60.4597 1252 58.631 1255.56 Q56.8254 1259.1 56.8254 1266.23 Q56.8254 1273.34 58.631 1276.91 Q60.4597 1280.45 64.0708 1280.45 Q67.705 1280.45 69.5105 1276.91 Q71.3392 1273.34 71.3392 1266.23 Q71.3392 1259.1 69.5105 1255.56 Q67.705 1252 64.0708 1252 M64.0708 1248.29 Q69.8809 1248.29 72.9365 1252.9 Q76.0151 1257.48 76.0151 1266.23 Q76.0151 1274.96 72.9365 1279.57 Q69.8809 1284.15 64.0708 1284.15 Q58.2606 1284.15 55.1819 1279.57 Q52.1264 1274.96 52.1264 1266.23 Q52.1264 1257.48 55.1819 1252.9 Q58.2606 1248.29 64.0708 1248.29 Z" fill="#000000" fill-rule="nonzero" fill-opacity="1" /><path clip-path="url(#clip080)" d="M84.2327 1277.6 L89.1169 1277.6 L89.1169 1283.48 L84.2327 1283.48 L84.2327 1277.6 Z" fill="#000000" fill-rule="nonzero" fill-opacity="1" /><path clip-path="url(#clip080)" d="M113.469 1264.85 Q116.825 1265.56 118.7 1267.83 Q120.598 1270.1 120.598 1273.43 Q120.598 1278.55 117.08 1281.35 Q113.561 1284.15 107.08 1284.15 Q104.904 1284.15 102.589 1283.71 Q100.297 1283.29 97.8437 1282.44 L97.8437 1277.92 Q99.7882 1279.06 102.103 1279.64 Q104.418 1280.22 106.941 1280.22 Q111.339 1280.22 113.631 1278.48 Q115.945 1276.74 115.945 1273.43 Q115.945 1270.38 113.793 1268.66 Q111.663 1266.93 107.844 1266.93 L103.816 1266.93 L103.816 1263.09 L108.029 1263.09 Q111.478 1263.09 113.307 1261.72 Q115.135 1260.33 115.135 1257.74 Q115.135 1255.08 113.237 1253.66 Q111.362 1252.23 107.844 1252.23 Q105.922 1252.23 103.723 1252.65 Q101.524 1253.06 98.8854 1253.94 L98.8854 1249.78 Q101.547 1249.04 103.862 1248.66 Q106.2 1248.29 108.26 1248.29 Q113.584 1248.29 116.686 1250.73 Q119.788 1253.13 119.788 1257.25 Q119.788 1260.12 118.145 1262.11 Q116.501 1264.08 113.469 1264.85 Z" fill="#000000" fill-rule="nonzero" fill-opacity="1" /><path clip-path="url(#clip080)" d="M62.9365 1051.81 Q59.3254 1051.81 57.4967 1055.37 Q55.6912 1058.91 55.6912 1066.04 Q55.6912 1073.15 57.4967 1076.71 Q59.3254 1080.25 62.9365 1080.25 Q66.5707 1080.25 68.3763 1076.71 Q70.205 1073.15 70.205 1066.04 Q70.205 1058.91 68.3763 1055.37 Q66.5707 1051.81 62.9365 1051.81 M62.9365 1048.1 Q68.7467 1048.1 71.8022 1052.71 Q74.8809 1057.29 74.8809 1066.04 Q74.8809 1074.77 71.8022 1079.37 Q68.7467 1083.96 62.9365 1083.96 Q57.1264 1083.96 54.0477 1079.37 Q50.9921 1074.77 50.9921 1066.04 Q50.9921 1057.29 54.0477 1052.71 Q57.1264 1048.1 62.9365 1048.1 Z" fill="#000000" fill-rule="nonzero" fill-opacity="1" /><path clip-path="url(#clip080)" d="M83.0984 1077.41 L87.9827 1077.41 L87.9827 1083.29 L83.0984 1083.29 L83.0984 1077.41 Z" fill="#000000" fill-rule="nonzero" fill-opacity="1" /><path clip-path="url(#clip080)" d="M111.015 1052.8 L99.2095 1071.25 L111.015 1071.25 L111.015 1052.8 M109.788 1048.73 L115.668 1048.73 L115.668 1071.25 L120.598 1071.25 L120.598 1075.14 L115.668 1075.14 L115.668 1083.29 L111.015 1083.29 L111.015 1075.14 L95.4132 1075.14 L95.4132 1070.62 L109.788 1048.73 Z" fill="#000000" fill-rule="nonzero" fill-opacity="1" /><path clip-path="url(#clip080)" d="M64.418 851.612 Q60.8069 851.612 58.9782 855.177 Q57.1726 858.719 57.1726 865.848 Q57.1726 872.955 58.9782 876.52 Q60.8069 880.061 64.418 880.061 Q68.0522 880.061 69.8578 876.52 Q71.6865 872.955 71.6865 865.848 Q71.6865 858.719 69.8578 855.177 Q68.0522 851.612 64.418 851.612 M64.418 847.909 Q70.2281 847.909 73.2837 852.515 Q76.3624 857.098 76.3624 865.848 Q76.3624 874.575 73.2837 879.182 Q70.2281 883.765 64.418 883.765 Q58.6078 883.765 55.5291 879.182 Q52.4736 874.575 52.4736 865.848 Q52.4736 857.098 55.5291 852.515 Q58.6078 847.909 64.418 847.909 Z" fill="#000000" fill-rule="nonzero" fill-opacity="1" /><path clip-path="url(#clip080)" d="M84.5799 877.214 L89.4641 877.214 L89.4641 883.094 L84.5799 883.094 L84.5799 877.214 Z" fill="#000000" fill-rule="nonzero" fill-opacity="1" /><path clip-path="url(#clip080)" d="M99.6956 848.534 L118.052 848.534 L118.052 852.469 L103.978 852.469 L103.978 860.941 Q104.996 860.594 106.015 860.432 Q107.033 860.247 108.052 860.247 Q113.839 860.247 117.219 863.418 Q120.598 866.589 120.598 872.006 Q120.598 877.584 117.126 880.686 Q113.654 883.765 107.334 883.765 Q105.159 883.765 102.89 883.395 Q100.645 883.024 98.2372 882.283 L98.2372 877.584 Q100.321 878.719 102.543 879.274 Q104.765 879.83 107.242 879.83 Q111.246 879.83 113.584 877.723 Q115.922 875.617 115.922 872.006 Q115.922 868.395 113.584 866.288 Q111.246 864.182 107.242 864.182 Q105.367 864.182 103.492 864.598 Q101.64 865.015 99.6956 865.895 L99.6956 848.534 Z" fill="#000000" fill-rule="nonzero" fill-opacity="1" /><path clip-path="url(#clip080)" d="M63.2606 651.419 Q59.6495 651.419 57.8208 654.984 Q56.0152 658.526 56.0152 665.655 Q56.0152 672.762 57.8208 676.327 Q59.6495 679.868 63.2606 679.868 Q66.8948 679.868 68.7004 676.327 Q70.5291 672.762 70.5291 665.655 Q70.5291 658.526 68.7004 654.984 Q66.8948 651.419 63.2606 651.419 M63.2606 647.716 Q69.0707 647.716 72.1263 652.322 Q75.205 656.905 75.205 665.655 Q75.205 674.382 72.1263 678.989 Q69.0707 683.572 63.2606 683.572 Q57.4504 683.572 54.3717 678.989 Q51.3162 674.382 51.3162 665.655 Q51.3162 656.905 54.3717 652.322 Q57.4504 647.716 63.2606 647.716 Z" fill="#000000" fill-rule="nonzero" fill-opacity="1" /><path clip-path="url(#clip080)" d="M83.4225 677.021 L88.3067 677.021 L88.3067 682.901 L83.4225 682.901 L83.4225 677.021 Z" fill="#000000" fill-rule="nonzero" fill-opacity="1" /><path clip-path="url(#clip080)" d="M109.071 663.757 Q105.922 663.757 104.071 665.91 Q102.242 668.063 102.242 671.813 Q102.242 675.54 104.071 677.716 Q105.922 679.868 109.071 679.868 Q112.219 679.868 114.047 677.716 Q115.899 675.54 115.899 671.813 Q115.899 668.063 114.047 665.91 Q112.219 663.757 109.071 663.757 M118.353 649.105 L118.353 653.364 Q116.594 652.531 114.788 652.091 Q113.006 651.651 111.246 651.651 Q106.617 651.651 104.163 654.776 Q101.733 657.901 101.385 664.22 Q102.751 662.206 104.811 661.142 Q106.871 660.054 109.348 660.054 Q114.557 660.054 117.566 663.225 Q120.598 666.373 120.598 671.813 Q120.598 677.137 117.45 680.354 Q114.302 683.572 109.071 683.572 Q103.075 683.572 99.9039 678.989 Q96.7326 674.382 96.7326 665.655 Q96.7326 657.461 100.621 652.6 Q104.51 647.716 111.061 647.716 Q112.82 647.716 114.603 648.063 Q116.408 648.41 118.353 649.105 Z" fill="#000000" fill-rule="nonzero" fill-opacity="1" /><path clip-path="url(#clip080)" d="M64.3254 451.226 Q60.7143 451.226 58.8856 454.791 Q57.0801 458.333 57.0801 465.462 Q57.0801 472.569 58.8856 476.134 Q60.7143 479.675 64.3254 479.675 Q67.9596 479.675 69.7652 476.134 Q71.5939 472.569 71.5939 465.462 Q71.5939 458.333 69.7652 454.791 Q67.9596 451.226 64.3254 451.226 M64.3254 447.523 Q70.1355 447.523 73.1911 452.129 Q76.2698 456.713 76.2698 465.462 Q76.2698 474.189 73.1911 478.796 Q70.1355 483.379 64.3254 483.379 Q58.5152 483.379 55.4365 478.796 Q52.381 474.189 52.381 465.462 Q52.381 456.713 55.4365 452.129 Q58.5152 447.523 64.3254 447.523 Z" fill="#000000" fill-rule="nonzero" fill-opacity="1" /><path clip-path="url(#clip080)" d="M84.4873 476.828 L89.3715 476.828 L89.3715 482.708 L84.4873 482.708 L84.4873 476.828 Z" fill="#000000" fill-rule="nonzero" fill-opacity="1" /><path clip-path="url(#clip080)" d="M98.3761 448.148 L120.598 448.148 L120.598 450.139 L108.052 482.708 L103.168 482.708 L114.973 452.083 L98.3761 452.083 L98.3761 448.148 Z" fill="#000000" fill-rule="nonzero" fill-opacity="1" /><path clip-path="url(#clip080)" d="M63.5152 251.034 Q59.9041 251.034 58.0754 254.598 Q56.2699 258.14 56.2699 265.27 Q56.2699 272.376 58.0754 275.941 Q59.9041 279.482 63.5152 279.482 Q67.1494 279.482 68.955 275.941 Q70.7837 272.376 70.7837 265.27 Q70.7837 258.14 68.955 254.598 Q67.1494 251.034 63.5152 251.034 M63.5152 247.33 Q69.3254 247.33 72.3809 251.936 Q75.4596 256.52 75.4596 265.27 Q75.4596 273.996 72.3809 278.603 Q69.3254 283.186 63.5152 283.186 Q57.7051 283.186 54.6264 278.603 Q51.5708 273.996 51.5708 265.27 Q51.5708 256.52 54.6264 251.936 Q57.7051 247.33 63.5152 247.33 Z" fill="#000000" fill-rule="nonzero" fill-opacity="1" /><path clip-path="url(#clip080)" d="M83.6771 276.635 L88.5614 276.635 L88.5614 282.515 L83.6771 282.515 L83.6771 276.635 Z" fill="#000000" fill-rule="nonzero" fill-opacity="1" /><path clip-path="url(#clip080)" d="M108.746 266.103 Q105.413 266.103 103.492 267.885 Q101.594 269.668 101.594 272.793 Q101.594 275.918 103.492 277.7 Q105.413 279.482 108.746 279.482 Q112.08 279.482 114.001 277.7 Q115.922 275.894 115.922 272.793 Q115.922 269.668 114.001 267.885 Q112.103 266.103 108.746 266.103 M104.071 264.112 Q101.061 263.371 99.3715 261.311 Q97.7048 259.251 97.7048 256.288 Q97.7048 252.145 100.645 249.737 Q103.608 247.33 108.746 247.33 Q113.908 247.33 116.848 249.737 Q119.788 252.145 119.788 256.288 Q119.788 259.251 118.098 261.311 Q116.432 263.371 113.445 264.112 Q116.825 264.899 118.7 267.191 Q120.598 269.482 120.598 272.793 Q120.598 277.816 117.52 280.501 Q114.464 283.186 108.746 283.186 Q103.029 283.186 99.9502 280.501 Q96.8947 277.816 96.8947 272.793 Q96.8947 269.482 98.7928 267.191 Q100.691 264.899 104.071 264.112 M102.358 256.728 Q102.358 259.413 104.024 260.918 Q105.714 262.422 108.746 262.422 Q111.756 262.422 113.445 260.918 Q115.158 259.413 115.158 256.728 Q115.158 254.043 113.445 252.538 Q111.756 251.034 108.746 251.034 Q105.714 251.034 104.024 252.538 Q102.358 254.043 102.358 256.728 Z" fill="#000000" fill-rule="nonzero" fill-opacity="1" /><path clip-path="url(#clip080)" d="M63.6078 50.8406 Q59.9967 50.8406 58.168 54.4054 Q56.3625 57.947 56.3625 65.0766 Q56.3625 72.183 58.168 75.7478 Q59.9967 79.2895 63.6078 79.2895 Q67.242 79.2895 69.0476 75.7478 Q70.8763 72.183 70.8763 65.0766 Q70.8763 57.947 69.0476 54.4054 Q67.242 50.8406 63.6078 50.8406 M63.6078 47.1369 Q69.418 47.1369 72.4735 51.7433 Q75.5522 56.3266 75.5522 65.0766 Q75.5522 73.8034 72.4735 78.4099 Q69.418 82.9932 63.6078 82.9932 Q57.7976 82.9932 54.719 78.4099 Q51.6634 73.8034 51.6634 65.0766 Q51.6634 56.3266 54.719 51.7433 Q57.7976 47.1369 63.6078 47.1369 Z" fill="#000000" fill-rule="nonzero" fill-opacity="1" /><path clip-path="url(#clip080)" d="M83.7697 76.4423 L88.654 76.4423 L88.654 82.3219 L83.7697 82.3219 L83.7697 76.4423 Z" fill="#000000" fill-rule="nonzero" fill-opacity="1" /><path clip-path="url(#clip080)" d="M98.978 81.6043 L98.978 77.3451 Q100.737 78.1784 102.543 78.6182 Q104.348 79.058 106.084 79.058 Q110.714 79.058 113.145 75.9562 Q115.598 72.8312 115.945 66.4886 Q114.603 68.4794 112.543 69.5442 Q110.483 70.609 107.983 70.609 Q102.797 70.609 99.765 67.484 Q96.7558 64.3359 96.7558 58.8961 Q96.7558 53.572 99.9039 50.3545 Q103.052 47.1369 108.283 47.1369 Q114.279 47.1369 117.427 51.7433 Q120.598 56.3266 120.598 65.0766 Q120.598 73.2479 116.709 78.1321 Q112.844 82.9932 106.293 82.9932 Q104.534 82.9932 102.728 82.6459 Q100.922 82.2987 98.978 81.6043 M108.283 66.9516 Q111.432 66.9516 113.26 64.7988 Q115.112 62.6461 115.112 58.8961 Q115.112 55.1692 113.26 53.0165 Q111.432 50.8406 108.283 50.8406 Q105.135 50.8406 103.284 53.0165 Q101.455 55.1692 101.455 58.8961 Q101.455 62.6461 103.284 64.7988 Q105.135 66.9516 108.283 66.9516 Z" fill="#000000" fill-rule="nonzero" fill-opacity="1" /><polyline clip-path="url(#clip082)" style="stroke:#009af9; stroke-linecap:round; stroke-linejoin:round; stroke-width:4; stroke-opacity:1; fill:none" points="218.754,308.194 448.959,1032.19 679.164,1168.78 909.369,1224.82 1139.57,1284.91 1369.78,1313.01 1599.98,1335.93 1830.19,1356.7 2060.4,1363.95 2290.6,1384.24 "/>
<polyline clip-path="url(#clip082)" style="stroke:#e26f46; stroke-linecap:round; stroke-linejoin:round; stroke-width:4; stroke-opacity:1; fill:none" points="218.754,779.945 448.959,800.093 679.164,875.359 909.369,1068.47 1139.57,1116.57 1369.78,1118.72 1599.98,1053.64 1830.19,1140.51 2060.4,1230.55 2290.6,1150.76 "/>
<polyline clip-path="url(#clip082)" style="stroke:#3da44d; stroke-linecap:round; stroke-linejoin:round; stroke-width:4; stroke-opacity:1; fill:none" points="218.754,226.154 448.959,239.023 679.164,224.571 909.369,156.071 1139.57,137.461 1369.78,134.69 1599.98,156.071 1830.19,116.476 2060.4,86.1857 2290.6,116.872 "/>
<path clip-path="url(#clip080)" d="M229.803 1377.32 L671.455 1377.32 L671.455 1169.96 L229.803 1169.96  Z" fill="#ffffff" fill-rule="evenodd" fill-opacity="1"/>
<polyline clip-path="url(#clip080)" style="stroke:#000000; stroke-linecap:round; stroke-linejoin:round; stroke-width:4; stroke-opacity:1; fill:none" points="229.803,1377.32 671.455,1377.32 671.455,1169.96 229.803,1169.96 229.803,1377.32 "/>
<polyline clip-path="url(#clip080)" style="stroke:#009af9; stroke-linecap:round; stroke-linejoin:round; stroke-width:4; stroke-opacity:1; fill:none" points="254.205,1221.8 400.616,1221.8 "/>
<path clip-path="url(#clip080)" d="M432.425 1205.79 L432.425 1213.15 L441.198 1213.15 L441.198 1216.46 L432.425 1216.46 L432.425 1230.53 Q432.425 1233.7 433.281 1234.61 Q434.161 1235.51 436.823 1235.51 L441.198 1235.51 L441.198 1239.08 L436.823 1239.08 Q431.892 1239.08 430.017 1237.25 Q428.142 1235.39 428.142 1230.53 L428.142 1216.46 L425.018 1216.46 L425.018 1213.15 L428.142 1213.15 L428.142 1205.79 L432.425 1205.79 Z" fill="#000000" fill-rule="nonzero" fill-opacity="1" /><path clip-path="url(#clip080)" d="M461.823 1217.13 Q461.105 1216.71 460.249 1216.53 Q459.415 1216.32 458.397 1216.32 Q454.786 1216.32 452.841 1218.68 Q450.92 1221.02 450.92 1225.42 L450.92 1239.08 L446.638 1239.08 L446.638 1213.15 L450.92 1213.15 L450.92 1217.18 Q452.263 1214.82 454.415 1213.68 Q456.568 1212.52 459.647 1212.52 Q460.087 1212.52 460.619 1212.59 Q461.152 1212.64 461.8 1212.76 L461.823 1217.13 Z" fill="#000000" fill-rule="nonzero" fill-opacity="1" /><path clip-path="url(#clip080)" d="M478.073 1226.04 Q472.911 1226.04 470.92 1227.22 Q468.929 1228.4 468.929 1231.25 Q468.929 1233.52 470.411 1234.86 Q471.915 1236.18 474.485 1236.18 Q478.026 1236.18 480.156 1233.68 Q482.309 1231.16 482.309 1226.99 L482.309 1226.04 L478.073 1226.04 M486.568 1224.28 L486.568 1239.08 L482.309 1239.08 L482.309 1235.14 Q480.851 1237.5 478.675 1238.64 Q476.499 1239.75 473.351 1239.75 Q469.369 1239.75 467.008 1237.52 Q464.67 1235.28 464.67 1231.53 Q464.67 1227.15 467.587 1224.93 Q470.527 1222.71 476.337 1222.71 L482.309 1222.71 L482.309 1222.29 Q482.309 1219.35 480.364 1217.76 Q478.443 1216.14 474.948 1216.14 Q472.726 1216.14 470.619 1216.67 Q468.513 1217.2 466.568 1218.27 L466.568 1214.33 Q468.906 1213.43 471.105 1212.99 Q473.304 1212.52 475.388 1212.52 Q481.013 1212.52 483.79 1215.44 Q486.568 1218.36 486.568 1224.28 Z" fill="#000000" fill-rule="nonzero" fill-opacity="1" /><path clip-path="url(#clip080)" d="M495.341 1213.15 L499.6 1213.15 L499.6 1239.08 L495.341 1239.08 L495.341 1213.15 M495.341 1203.06 L499.6 1203.06 L499.6 1208.45 L495.341 1208.45 L495.341 1203.06 Z" fill="#000000" fill-rule="nonzero" fill-opacity="1" /><path clip-path="url(#clip080)" d="M530.063 1223.43 L530.063 1239.08 L525.804 1239.08 L525.804 1223.57 Q525.804 1219.89 524.369 1218.06 Q522.934 1216.23 520.063 1216.23 Q516.614 1216.23 514.624 1218.43 Q512.633 1220.63 512.633 1224.42 L512.633 1239.08 L508.35 1239.08 L508.35 1213.15 L512.633 1213.15 L512.633 1217.18 Q514.161 1214.84 516.221 1213.68 Q518.304 1212.52 521.012 1212.52 Q525.48 1212.52 527.772 1215.3 Q530.063 1218.06 530.063 1223.43 Z" fill="#000000" fill-rule="nonzero" fill-opacity="1" /><path clip-path="url(#clip080)" d="M558.258 1246.95 L558.258 1250.26 L533.628 1250.26 L533.628 1246.95 L558.258 1246.95 Z" fill="#000000" fill-rule="nonzero" fill-opacity="1" /><path clip-path="url(#clip080)" d="M562.262 1203.06 L566.521 1203.06 L566.521 1239.08 L562.262 1239.08 L562.262 1203.06 Z" fill="#000000" fill-rule="nonzero" fill-opacity="1" /><path clip-path="url(#clip080)" d="M585.48 1216.14 Q582.054 1216.14 580.063 1218.82 Q578.072 1221.48 578.072 1226.14 Q578.072 1230.79 580.04 1233.47 Q582.031 1236.14 585.48 1236.14 Q588.882 1236.14 590.873 1233.45 Q592.864 1230.77 592.864 1226.14 Q592.864 1221.53 590.873 1218.84 Q588.882 1216.14 585.48 1216.14 M585.48 1212.52 Q591.035 1212.52 594.206 1216.14 Q597.378 1219.75 597.378 1226.14 Q597.378 1232.5 594.206 1236.14 Q591.035 1239.75 585.48 1239.75 Q579.901 1239.75 576.73 1236.14 Q573.582 1232.5 573.582 1226.14 Q573.582 1219.75 576.73 1216.14 Q579.901 1212.52 585.48 1212.52 Z" fill="#000000" fill-rule="nonzero" fill-opacity="1" /><path clip-path="url(#clip080)" d="M620.966 1213.91 L620.966 1217.94 Q619.16 1217.02 617.216 1216.55 Q615.271 1216.09 613.188 1216.09 Q610.017 1216.09 608.419 1217.06 Q606.845 1218.03 606.845 1219.98 Q606.845 1221.46 607.979 1222.32 Q609.114 1223.15 612.54 1223.91 L613.998 1224.24 Q618.535 1225.21 620.433 1226.99 Q622.354 1228.75 622.354 1231.92 Q622.354 1235.53 619.484 1237.64 Q616.637 1239.75 611.637 1239.75 Q609.554 1239.75 607.285 1239.33 Q605.04 1238.94 602.54 1238.13 L602.54 1233.73 Q604.901 1234.95 607.192 1235.58 Q609.484 1236.18 611.729 1236.18 Q614.739 1236.18 616.359 1235.16 Q617.979 1234.12 617.979 1232.25 Q617.979 1230.51 616.799 1229.58 Q615.641 1228.66 611.683 1227.8 L610.202 1227.46 Q606.243 1226.62 604.484 1224.91 Q602.725 1223.17 602.725 1220.16 Q602.725 1216.51 605.317 1214.52 Q607.91 1212.52 612.679 1212.52 Q615.04 1212.52 617.123 1212.87 Q619.206 1213.22 620.966 1213.91 Z" fill="#000000" fill-rule="nonzero" fill-opacity="1" /><path clip-path="url(#clip080)" d="M645.664 1213.91 L645.664 1217.94 Q643.859 1217.02 641.914 1216.55 Q639.97 1216.09 637.887 1216.09 Q634.715 1216.09 633.118 1217.06 Q631.544 1218.03 631.544 1219.98 Q631.544 1221.46 632.678 1222.32 Q633.813 1223.15 637.239 1223.91 L638.697 1224.24 Q643.234 1225.21 645.132 1226.99 Q647.053 1228.75 647.053 1231.92 Q647.053 1235.53 644.183 1237.64 Q641.336 1239.75 636.336 1239.75 Q634.252 1239.75 631.984 1239.33 Q629.739 1238.94 627.239 1238.13 L627.239 1233.73 Q629.6 1234.95 631.891 1235.58 Q634.183 1236.18 636.428 1236.18 Q639.438 1236.18 641.058 1235.16 Q642.678 1234.12 642.678 1232.25 Q642.678 1230.51 641.498 1229.58 Q640.34 1228.66 636.382 1227.8 L634.901 1227.46 Q630.942 1226.62 629.183 1224.91 Q627.424 1223.17 627.424 1220.16 Q627.424 1216.51 630.016 1214.52 Q632.609 1212.52 637.377 1212.52 Q639.739 1212.52 641.822 1212.87 Q643.905 1213.22 645.664 1213.91 Z" fill="#000000" fill-rule="nonzero" fill-opacity="1" /><polyline clip-path="url(#clip080)" style="stroke:#e26f46; stroke-linecap:round; stroke-linejoin:round; stroke-width:4; stroke-opacity:1; fill:none" points="254.205,1273.64 400.616,1273.64 "/>
<path clip-path="url(#clip080)" d="M425.018 1264.99 L429.531 1264.99 L437.633 1286.75 L445.735 1264.99 L450.249 1264.99 L440.527 1290.92 L434.74 1290.92 L425.018 1264.99 Z" fill="#000000" fill-rule="nonzero" fill-opacity="1" /><path clip-path="url(#clip080)" d="M467.911 1277.88 Q462.749 1277.88 460.758 1279.06 Q458.767 1280.24 458.767 1283.09 Q458.767 1285.36 460.249 1286.7 Q461.753 1288.02 464.323 1288.02 Q467.864 1288.02 469.994 1285.52 Q472.147 1283 472.147 1278.83 L472.147 1277.88 L467.911 1277.88 M476.406 1276.12 L476.406 1290.92 L472.147 1290.92 L472.147 1286.98 Q470.689 1289.34 468.513 1290.48 Q466.337 1291.59 463.189 1291.59 Q459.207 1291.59 456.846 1289.36 Q454.508 1287.12 454.508 1283.37 Q454.508 1278.99 457.425 1276.77 Q460.365 1274.55 466.175 1274.55 L472.147 1274.55 L472.147 1274.13 Q472.147 1271.19 470.202 1269.6 Q468.281 1267.98 464.786 1267.98 Q462.564 1267.98 460.457 1268.51 Q458.351 1269.04 456.406 1270.11 L456.406 1266.17 Q458.744 1265.27 460.943 1264.83 Q463.142 1264.36 465.226 1264.36 Q470.851 1264.36 473.628 1267.28 Q476.406 1270.2 476.406 1276.12 Z" fill="#000000" fill-rule="nonzero" fill-opacity="1" /><path clip-path="url(#clip080)" d="M485.179 1254.9 L489.438 1254.9 L489.438 1290.92 L485.179 1290.92 L485.179 1254.9 Z" fill="#000000" fill-rule="nonzero" fill-opacity="1" /><path clip-path="url(#clip080)" d="M518.049 1298.79 L518.049 1302.1 L493.42 1302.1 L493.42 1298.79 L518.049 1298.79 Z" fill="#000000" fill-rule="nonzero" fill-opacity="1" /><path clip-path="url(#clip080)" d="M522.054 1254.9 L526.313 1254.9 L526.313 1290.92 L522.054 1290.92 L522.054 1254.9 Z" fill="#000000" fill-rule="nonzero" fill-opacity="1" /><path clip-path="url(#clip080)" d="M545.271 1267.98 Q541.846 1267.98 539.855 1270.66 Q537.864 1273.32 537.864 1277.98 Q537.864 1282.63 539.832 1285.31 Q541.822 1287.98 545.271 1287.98 Q548.674 1287.98 550.665 1285.29 Q552.656 1282.61 552.656 1277.98 Q552.656 1273.37 550.665 1270.68 Q548.674 1267.98 545.271 1267.98 M545.271 1264.36 Q550.827 1264.36 553.998 1267.98 Q557.17 1271.59 557.17 1277.98 Q557.17 1284.34 553.998 1287.98 Q550.827 1291.59 545.271 1291.59 Q539.693 1291.59 536.522 1287.98 Q533.373 1284.34 533.373 1277.98 Q533.373 1271.59 536.522 1267.98 Q539.693 1264.36 545.271 1264.36 Z" fill="#000000" fill-rule="nonzero" fill-opacity="1" /><path clip-path="url(#clip080)" d="M580.757 1265.75 L580.757 1269.78 Q578.952 1268.86 577.007 1268.39 Q575.063 1267.93 572.98 1267.93 Q569.808 1267.93 568.211 1268.9 Q566.637 1269.87 566.637 1271.82 Q566.637 1273.3 567.771 1274.16 Q568.906 1274.99 572.332 1275.75 L573.79 1276.08 Q578.327 1277.05 580.225 1278.83 Q582.146 1280.59 582.146 1283.76 Q582.146 1287.37 579.276 1289.48 Q576.429 1291.59 571.429 1291.59 Q569.345 1291.59 567.077 1291.17 Q564.832 1290.78 562.332 1289.97 L562.332 1285.57 Q564.693 1286.79 566.984 1287.42 Q569.276 1288.02 571.521 1288.02 Q574.531 1288.02 576.151 1287 Q577.771 1285.96 577.771 1284.09 Q577.771 1282.35 576.591 1281.42 Q575.433 1280.5 571.475 1279.64 L569.994 1279.3 Q566.035 1278.46 564.276 1276.75 Q562.517 1275.01 562.517 1272 Q562.517 1268.35 565.109 1266.36 Q567.702 1264.36 572.47 1264.36 Q574.832 1264.36 576.915 1264.71 Q578.998 1265.06 580.757 1265.75 Z" fill="#000000" fill-rule="nonzero" fill-opacity="1" /><path clip-path="url(#clip080)" d="M605.456 1265.75 L605.456 1269.78 Q603.651 1268.86 601.706 1268.39 Q599.762 1267.93 597.679 1267.93 Q594.507 1267.93 592.91 1268.9 Q591.336 1269.87 591.336 1271.82 Q591.336 1273.3 592.47 1274.16 Q593.605 1274.99 597.03 1275.75 L598.489 1276.08 Q603.026 1277.05 604.924 1278.83 Q606.845 1280.59 606.845 1283.76 Q606.845 1287.37 603.975 1289.48 Q601.128 1291.59 596.128 1291.59 Q594.044 1291.59 591.776 1291.17 Q589.531 1290.78 587.031 1289.97 L587.031 1285.57 Q589.392 1286.79 591.683 1287.42 Q593.975 1288.02 596.22 1288.02 Q599.23 1288.02 600.85 1287 Q602.47 1285.96 602.47 1284.09 Q602.47 1282.35 601.29 1281.42 Q600.132 1280.5 596.174 1279.64 L594.693 1279.3 Q590.734 1278.46 588.975 1276.75 Q587.216 1275.01 587.216 1272 Q587.216 1268.35 589.808 1266.36 Q592.401 1264.36 597.169 1264.36 Q599.53 1264.36 601.614 1264.71 Q603.697 1265.06 605.456 1265.75 Z" fill="#000000" fill-rule="nonzero" fill-opacity="1" /><polyline clip-path="url(#clip080)" style="stroke:#3da44d; stroke-linecap:round; stroke-linejoin:round; stroke-width:4; stroke-opacity:1; fill:none" points="254.205,1325.48 400.616,1325.48 "/>
<path clip-path="url(#clip080)" d="M425.018 1316.83 L429.531 1316.83 L437.633 1338.59 L445.735 1316.83 L450.249 1316.83 L440.527 1342.76 L434.74 1342.76 L425.018 1316.83 Z" fill="#000000" fill-rule="nonzero" fill-opacity="1" /><path clip-path="url(#clip080)" d="M467.911 1329.72 Q462.749 1329.72 460.758 1330.9 Q458.767 1332.08 458.767 1334.93 Q458.767 1337.2 460.249 1338.54 Q461.753 1339.86 464.323 1339.86 Q467.864 1339.86 469.994 1337.36 Q472.147 1334.84 472.147 1330.67 L472.147 1329.72 L467.911 1329.72 M476.406 1327.96 L476.406 1342.76 L472.147 1342.76 L472.147 1338.82 Q470.689 1341.18 468.513 1342.32 Q466.337 1343.43 463.189 1343.43 Q459.207 1343.43 456.846 1341.2 Q454.508 1338.96 454.508 1335.21 Q454.508 1330.83 457.425 1328.61 Q460.365 1326.39 466.175 1326.39 L472.147 1326.39 L472.147 1325.97 Q472.147 1323.03 470.202 1321.44 Q468.281 1319.82 464.786 1319.82 Q462.564 1319.82 460.457 1320.35 Q458.351 1320.88 456.406 1321.95 L456.406 1318.01 Q458.744 1317.11 460.943 1316.67 Q463.142 1316.2 465.226 1316.2 Q470.851 1316.2 473.628 1319.12 Q476.406 1322.04 476.406 1327.96 Z" fill="#000000" fill-rule="nonzero" fill-opacity="1" /><path clip-path="url(#clip080)" d="M485.179 1306.74 L489.438 1306.74 L489.438 1342.76 L485.179 1342.76 L485.179 1306.74 Z" fill="#000000" fill-rule="nonzero" fill-opacity="1" /><path clip-path="url(#clip080)" d="M518.049 1350.63 L518.049 1353.94 L493.42 1353.94 L493.42 1350.63 L518.049 1350.63 Z" fill="#000000" fill-rule="nonzero" fill-opacity="1" /><path clip-path="url(#clip080)" d="M533.836 1329.72 Q528.674 1329.72 526.684 1330.9 Q524.693 1332.08 524.693 1334.93 Q524.693 1337.2 526.174 1338.54 Q527.679 1339.86 530.248 1339.86 Q533.79 1339.86 535.92 1337.36 Q538.072 1334.84 538.072 1330.67 L538.072 1329.72 L533.836 1329.72 M542.332 1327.96 L542.332 1342.76 L538.072 1342.76 L538.072 1338.82 Q536.614 1341.18 534.438 1342.32 Q532.262 1343.43 529.114 1343.43 Q525.133 1343.43 522.772 1341.2 Q520.434 1338.96 520.434 1335.21 Q520.434 1330.83 523.35 1328.61 Q526.29 1326.39 532.1 1326.39 L538.072 1326.39 L538.072 1325.97 Q538.072 1323.03 536.128 1321.44 Q534.207 1319.82 530.711 1319.82 Q528.489 1319.82 526.383 1320.35 Q524.276 1320.88 522.332 1321.95 L522.332 1318.01 Q524.67 1317.11 526.869 1316.67 Q529.068 1316.2 531.151 1316.2 Q536.776 1316.2 539.554 1319.12 Q542.332 1322.04 542.332 1327.96 Z" fill="#000000" fill-rule="nonzero" fill-opacity="1" /><path clip-path="url(#clip080)" d="M569.762 1317.82 L569.762 1321.81 Q567.957 1320.81 566.128 1320.32 Q564.322 1319.82 562.47 1319.82 Q558.327 1319.82 556.035 1322.45 Q553.744 1325.07 553.744 1329.82 Q553.744 1334.56 556.035 1337.2 Q558.327 1339.82 562.47 1339.82 Q564.322 1339.82 566.128 1339.33 Q567.957 1338.82 569.762 1337.82 L569.762 1341.76 Q567.98 1342.59 566.058 1343.01 Q564.16 1343.43 562.008 1343.43 Q556.151 1343.43 552.702 1339.75 Q549.253 1336.07 549.253 1329.82 Q549.253 1323.47 552.725 1319.84 Q556.221 1316.2 562.285 1316.2 Q564.253 1316.2 566.128 1316.62 Q568.003 1317.01 569.762 1317.82 Z" fill="#000000" fill-rule="nonzero" fill-opacity="1" /><path clip-path="url(#clip080)" d="M595.827 1317.82 L595.827 1321.81 Q594.021 1320.81 592.193 1320.32 Q590.387 1319.82 588.535 1319.82 Q584.392 1319.82 582.1 1322.45 Q579.808 1325.07 579.808 1329.82 Q579.808 1334.56 582.1 1337.2 Q584.392 1339.82 588.535 1339.82 Q590.387 1339.82 592.193 1339.33 Q594.021 1338.82 595.827 1337.82 L595.827 1341.76 Q594.044 1342.59 592.123 1343.01 Q590.225 1343.43 588.072 1343.43 Q582.216 1343.43 578.767 1339.75 Q575.318 1336.07 575.318 1329.82 Q575.318 1323.47 578.79 1319.84 Q582.285 1316.2 588.35 1316.2 Q590.318 1316.2 592.193 1316.62 Q594.068 1317.01 595.827 1317.82 Z" fill="#000000" fill-rule="nonzero" fill-opacity="1" /></svg>
