<?xml version="1.0" encoding="utf-8"?>
<svg xmlns="http://www.w3.org/2000/svg" xmlns:xlink="http://www.w3.org/1999/xlink" width="600" height="400" viewBox="0 0 2400 1600">
<defs>
  <clipPath id="clip160">
    <rect x="0" y="0" width="2400" height="1600"/>
  </clipPath>
</defs>
<path clip-path="url(#clip160)" d="M0 1600 L2400 1600 L2400 0 L0 0  Z" fill="#ffffff" fill-rule="evenodd" fill-opacity="1"/>
<defs>
  <clipPath id="clip161">
    <rect x="480" y="0" width="1681" height="1600"/>
  </clipPath>
</defs>
<path clip-path="url(#clip160)" d="M156.274 1486.45 L2352.76 1486.45 L2352.76 47.2441 L156.274 47.2441  Z" fill="#ffffff" fill-rule="evenodd" fill-opacity="1"/>
<defs>
  <clipPath id="clip162">
    <rect x="156" y="47" width="2197" height="1440"/>
  </clipPath>
</defs>
<polyline clip-path="url(#clip162)" style="stroke:#000000; stroke-linecap:round; stroke-linejoin:round; stroke-width:2; stroke-opacity:0.1; fill:none" points="545.621,1486.45 545.621,47.2441 "/>
<polyline clip-path="url(#clip162)" style="stroke:#000000; stroke-linecap:round; stroke-linejoin:round; stroke-width:2; stroke-opacity:0.1; fill:none" points="981.863,1486.45 981.863,47.2441 "/>
<polyline clip-path="url(#clip162)" style="stroke:#000000; stroke-linecap:round; stroke-linejoin:round; stroke-width:2; stroke-opacity:0.1; fill:none" points="1418.11,1486.45 1418.11,47.2441 "/>
<polyline clip-path="url(#clip162)" style="stroke:#000000; stroke-linecap:round; stroke-linejoin:round; stroke-width:2; stroke-opacity:0.1; fill:none" points="1854.35,1486.45 1854.35,47.2441 "/>
<polyline clip-path="url(#clip162)" style="stroke:#000000; stroke-linecap:round; stroke-linejoin:round; stroke-width:2; stroke-opacity:0.1; fill:none" points="2290.59,1486.45 2290.59,47.2441 "/>
<polyline clip-path="url(#clip162)" style="stroke:#000000; stroke-linecap:round; stroke-linejoin:round; stroke-width:2; stroke-opacity:0.1; fill:none" points="156.274,1456.74 2352.76,1456.74 "/>
<polyline clip-path="url(#clip162)" style="stroke:#000000; stroke-linecap:round; stroke-linejoin:round; stroke-width:2; stroke-opacity:0.1; fill:none" points="156.274,1108.45 2352.76,1108.45 "/>
<polyline clip-path="url(#clip162)" style="stroke:#000000; stroke-linecap:round; stroke-linejoin:round; stroke-width:2; stroke-opacity:0.1; fill:none" points="156.274,760.164 2352.76,760.164 "/>
<polyline clip-path="url(#clip162)" style="stroke:#000000; stroke-linecap:round; stroke-linejoin:round; stroke-width:2; stroke-opacity:0.1; fill:none" points="156.274,411.877 2352.76,411.877 "/>
<polyline clip-path="url(#clip162)" style="stroke:#000000; stroke-linecap:round; stroke-linejoin:round; stroke-width:2; stroke-opacity:0.1; fill:none" points="156.274,63.5907 2352.76,63.5907 "/>
<polyline clip-path="url(#clip160)" style="stroke:#000000; stroke-linecap:round; stroke-linejoin:round; stroke-width:4; stroke-opacity:1; fill:none" points="156.274,1486.45 2352.76,1486.45 "/>
<polyline clip-path="url(#clip160)" style="stroke:#000000; stroke-linecap:round; stroke-linejoin:round; stroke-width:4; stroke-opacity:1; fill:none" points="545.621,1486.45 545.621,1467.55 "/>
<polyline clip-path="url(#clip160)" style="stroke:#000000; stroke-linecap:round; stroke-linejoin:round; stroke-width:4; stroke-opacity:1; fill:none" points="981.863,1486.45 981.863,1467.55 "/>
<polyline clip-path="url(#clip160)" style="stroke:#000000; stroke-linecap:round; stroke-linejoin:round; stroke-width:4; stroke-opacity:1; fill:none" points="1418.11,1486.45 1418.11,1467.55 "/>
<polyline clip-path="url(#clip160)" style="stroke:#000000; stroke-linecap:round; stroke-linejoin:round; stroke-width:4; stroke-opacity:1; fill:none" points="1854.35,1486.45 1854.35,1467.55 "/>
<polyline clip-path="url(#clip160)" style="stroke:#000000; stroke-linecap:round; stroke-linejoin:round; stroke-width:4; stroke-opacity:1; fill:none" points="2290.59,1486.45 2290.59,1467.55 "/>
<path clip-path="url(#clip160)" d="M523.804 1517.37 Q520.193 1517.37 518.364 1520.93 Q516.558 1524.47 516.558 1531.6 Q516.558 1538.71 518.364 1542.27 Q520.193 1545.82 523.804 1545.82 Q527.438 1545.82 529.244 1542.27 Q531.072 1538.71 531.072 1531.6 Q531.072 1524.47 529.244 1520.93 Q527.438 1517.37 523.804 1517.37 M523.804 1513.66 Q529.614 1513.66 532.669 1518.27 Q535.748 1522.85 535.748 1531.6 Q535.748 1540.33 532.669 1544.94 Q529.614 1549.52 523.804 1549.52 Q517.994 1549.52 514.915 1544.94 Q511.859 1540.33 511.859 1531.6 Q511.859 1522.85 514.915 1518.27 Q517.994 1513.66 523.804 1513.66 Z" fill="#000000" fill-rule="nonzero" fill-opacity="1" /><path clip-path="url(#clip160)" d="M543.966 1542.97 L548.85 1542.97 L548.85 1548.85 L543.966 1548.85 L543.966 1542.97 Z" fill="#000000" fill-rule="nonzero" fill-opacity="1" /><path clip-path="url(#clip160)" d="M563.063 1544.91 L579.382 1544.91 L579.382 1548.85 L557.438 1548.85 L557.438 1544.91 Q560.1 1542.16 564.683 1537.53 Q569.29 1532.88 570.47 1531.53 Q572.715 1529.01 573.595 1527.27 Q574.498 1525.51 574.498 1523.82 Q574.498 1521.07 572.553 1519.33 Q570.632 1517.6 567.53 1517.6 Q565.331 1517.6 562.878 1518.36 Q560.447 1519.13 557.669 1520.68 L557.669 1515.95 Q560.493 1514.82 562.947 1514.24 Q565.401 1513.66 567.438 1513.66 Q572.808 1513.66 576.003 1516.35 Q579.197 1519.03 579.197 1523.52 Q579.197 1525.65 578.387 1527.57 Q577.6 1529.47 575.493 1532.07 Q574.915 1532.74 571.813 1535.95 Q568.711 1539.15 563.063 1544.91 Z" fill="#000000" fill-rule="nonzero" fill-opacity="1" /><path clip-path="url(#clip160)" d="M959.005 1517.37 Q955.394 1517.37 953.565 1520.93 Q951.759 1524.47 951.759 1531.6 Q951.759 1538.71 953.565 1542.27 Q955.394 1545.82 959.005 1545.82 Q962.639 1545.82 964.444 1542.27 Q966.273 1538.71 966.273 1531.6 Q966.273 1524.47 964.444 1520.93 Q962.639 1517.37 959.005 1517.37 M959.005 1513.66 Q964.815 1513.66 967.87 1518.27 Q970.949 1522.85 970.949 1531.6 Q970.949 1540.33 967.87 1544.94 Q964.815 1549.52 959.005 1549.52 Q953.195 1549.52 950.116 1544.94 Q947.06 1540.33 947.06 1531.6 Q947.06 1522.85 950.116 1518.27 Q953.195 1513.66 959.005 1513.66 Z" fill="#000000" fill-rule="nonzero" fill-opacity="1" /><path clip-path="url(#clip160)" d="M979.167 1542.97 L984.051 1542.97 L984.051 1548.85 L979.167 1548.85 L979.167 1542.97 Z" fill="#000000" fill-rule="nonzero" fill-opacity="1" /><path clip-path="url(#clip160)" d="M1007.08 1518.36 L995.278 1536.81 L1007.08 1536.81 L1007.08 1518.36 M1005.86 1514.29 L1011.74 1514.29 L1011.74 1536.81 L1016.67 1536.81 L1016.67 1540.7 L1011.74 1540.7 L1011.74 1548.85 L1007.08 1548.85 L1007.08 1540.7 L991.481 1540.7 L991.481 1536.19 L1005.86 1514.29 Z" fill="#000000" fill-rule="nonzero" fill-opacity="1" /><path clip-path="url(#clip160)" d="M1395.41 1517.37 Q1391.8 1517.37 1389.97 1520.93 Q1388.16 1524.47 1388.16 1531.6 Q1388.16 1538.71 1389.97 1542.27 Q1391.8 1545.82 1395.41 1545.82 Q1399.04 1545.82 1400.85 1542.27 Q1402.68 1538.71 1402.68 1531.6 Q1402.68 1524.47 1400.85 1520.93 Q1399.04 1517.37 1395.41 1517.37 M1395.41 1513.66 Q1401.22 1513.66 1404.28 1518.27 Q1407.35 1522.85 1407.35 1531.6 Q1407.35 1540.33 1404.28 1544.94 Q1401.22 1549.52 1395.41 1549.52 Q1389.6 1549.52 1386.52 1544.94 Q1383.47 1540.33 1383.47 1531.6 Q1383.47 1522.85 1386.52 1518.27 Q1389.6 1513.66 1395.41 1513.66 Z" fill="#000000" fill-rule="nonzero" fill-opacity="1" /><path clip-path="url(#clip160)" d="M1415.57 1542.97 L1420.46 1542.97 L1420.46 1548.85 L1415.57 1548.85 L1415.57 1542.97 Z" fill="#000000" fill-rule="nonzero" fill-opacity="1" /><path clip-path="url(#clip160)" d="M1441.22 1529.7 Q1438.07 1529.7 1436.22 1531.86 Q1434.39 1534.01 1434.39 1537.76 Q1434.39 1541.49 1436.22 1543.66 Q1438.07 1545.82 1441.22 1545.82 Q1444.37 1545.82 1446.2 1543.66 Q1448.05 1541.49 1448.05 1537.76 Q1448.05 1534.01 1446.2 1531.86 Q1444.37 1529.7 1441.22 1529.7 M1450.5 1515.05 L1450.5 1519.31 Q1448.74 1518.48 1446.94 1518.04 Q1445.15 1517.6 1443.4 1517.6 Q1438.77 1517.6 1436.31 1520.72 Q1433.88 1523.85 1433.53 1530.17 Q1434.9 1528.15 1436.96 1527.09 Q1439.02 1526 1441.5 1526 Q1446.71 1526 1449.71 1529.17 Q1452.75 1532.32 1452.75 1537.76 Q1452.75 1543.08 1449.6 1546.3 Q1446.45 1549.52 1441.22 1549.52 Q1435.22 1549.52 1432.05 1544.94 Q1428.88 1540.33 1428.88 1531.6 Q1428.88 1523.41 1432.77 1518.55 Q1436.66 1513.66 1443.21 1513.66 Q1444.97 1513.66 1446.75 1514.01 Q1448.56 1514.36 1450.5 1515.05 Z" fill="#000000" fill-rule="nonzero" fill-opacity="1" /><path clip-path="url(#clip160)" d="M1831.78 1517.37 Q1828.17 1517.37 1826.34 1520.93 Q1824.53 1524.47 1824.53 1531.6 Q1824.53 1538.71 1826.34 1542.27 Q1828.17 1545.82 1831.78 1545.82 Q1835.41 1545.82 1837.22 1542.27 Q1839.05 1538.71 1839.05 1531.6 Q1839.05 1524.47 1837.22 1520.93 Q1835.41 1517.37 1831.78 1517.37 M1831.78 1513.66 Q1837.59 1513.66 1840.65 1518.27 Q1843.72 1522.85 1843.72 1531.6 Q1843.72 1540.33 1840.65 1544.94 Q1837.59 1549.52 1831.78 1549.52 Q1825.97 1549.52 1822.89 1544.94 Q1819.83 1540.33 1819.83 1531.6 Q1819.83 1522.85 1822.89 1518.27 Q1825.97 1513.66 1831.78 1513.66 Z" fill="#000000" fill-rule="nonzero" fill-opacity="1" /><path clip-path="url(#clip160)" d="M1851.94 1542.97 L1856.83 1542.97 L1856.83 1548.85 L1851.94 1548.85 L1851.94 1542.97 Z" fill="#000000" fill-rule="nonzero" fill-opacity="1" /><path clip-path="url(#clip160)" d="M1877.01 1532.44 Q1873.68 1532.44 1871.76 1534.22 Q1869.86 1536 1869.86 1539.13 Q1869.86 1542.25 1871.76 1544.03 Q1873.68 1545.82 1877.01 1545.82 Q1880.34 1545.82 1882.27 1544.03 Q1884.19 1542.23 1884.19 1539.13 Q1884.19 1536 1882.27 1534.22 Q1880.37 1532.44 1877.01 1532.44 M1872.33 1530.45 Q1869.33 1529.7 1867.64 1527.64 Q1865.97 1525.58 1865.97 1522.62 Q1865.97 1518.48 1868.91 1516.07 Q1871.87 1513.66 1877.01 1513.66 Q1882.17 1513.66 1885.11 1516.07 Q1888.05 1518.48 1888.05 1522.62 Q1888.05 1525.58 1886.36 1527.64 Q1884.7 1529.7 1881.71 1530.45 Q1885.09 1531.23 1886.96 1533.52 Q1888.86 1535.82 1888.86 1539.13 Q1888.86 1544.15 1885.78 1546.83 Q1882.73 1549.52 1877.01 1549.52 Q1871.29 1549.52 1868.21 1546.83 Q1865.16 1544.15 1865.16 1539.13 Q1865.16 1535.82 1867.06 1533.52 Q1868.96 1531.23 1872.33 1530.45 M1870.62 1523.06 Q1870.62 1525.75 1872.29 1527.25 Q1873.98 1528.76 1877.01 1528.76 Q1880.02 1528.76 1881.71 1527.25 Q1883.42 1525.75 1883.42 1523.06 Q1883.42 1520.38 1881.71 1518.87 Q1880.02 1517.37 1877.01 1517.37 Q1873.98 1517.37 1872.29 1518.87 Q1870.62 1520.38 1870.62 1523.06 Z" fill="#000000" fill-rule="nonzero" fill-opacity="1" /><path clip-path="url(#clip160)" d="M2257.74 1544.91 L2265.38 1544.91 L2265.38 1518.55 L2257.07 1520.21 L2257.07 1515.95 L2265.34 1514.29 L2270.01 1514.29 L2270.01 1544.91 L2277.65 1544.91 L2277.65 1548.85 L2257.74 1548.85 L2257.74 1544.91 Z" fill="#000000" fill-rule="nonzero" fill-opacity="1" /><path clip-path="url(#clip160)" d="M2287.1 1542.97 L2291.98 1542.97 L2291.98 1548.85 L2287.1 1548.85 L2287.1 1542.97 Z" fill="#000000" fill-rule="nonzero" fill-opacity="1" /><path clip-path="url(#clip160)" d="M2312.17 1517.37 Q2308.55 1517.37 2306.73 1520.93 Q2304.92 1524.47 2304.92 1531.6 Q2304.92 1538.71 2306.73 1542.27 Q2308.55 1545.82 2312.17 1545.82 Q2315.8 1545.82 2317.61 1542.27 Q2319.43 1538.71 2319.43 1531.6 Q2319.43 1524.47 2317.61 1520.93 Q2315.8 1517.37 2312.17 1517.37 M2312.17 1513.66 Q2317.98 1513.66 2321.03 1518.27 Q2324.11 1522.85 2324.11 1531.6 Q2324.11 1540.33 2321.03 1544.94 Q2317.98 1549.52 2312.17 1549.52 Q2306.36 1549.52 2303.28 1544.94 Q2300.22 1540.33 2300.22 1531.6 Q2300.22 1522.85 2303.28 1518.27 Q2306.36 1513.66 2312.17 1513.66 Z" fill="#000000" fill-rule="nonzero" fill-opacity="1" /><polyline clip-path="url(#clip160)" style="stroke:#000000; stroke-linecap:round; stroke-linejoin:round; stroke-width:4; stroke-opacity:1; fill:none" points="156.274,1486.45 156.274,47.2441 "/>
<polyline clip-path="url(#clip160)" style="stroke:#000000; stroke-linecap:round; stroke-linejoin:round; stroke-width:4; stroke-opacity:1; fill:none" points="156.274,1456.74 175.172,1456.74 "/>
<polyline clip-path="url(#clip160)" style="stroke:#000000; stroke-linecap:round; stroke-linejoin:round; stroke-width:4; stroke-opacity:1; fill:none" points="156.274,1108.45 175.172,1108.45 "/>
<polyline clip-path="url(#clip160)" style="stroke:#000000; stroke-linecap:round; stroke-linejoin:round; stroke-width:4; stroke-opacity:1; fill:none" points="156.274,760.164 175.172,760.164 "/>
<polyline clip-path="url(#clip160)" style="stroke:#000000; stroke-linecap:round; stroke-linejoin:round; stroke-width:4; stroke-opacity:1; fill:none" points="156.274,411.877 175.172,411.877 "/>
<polyline clip-path="url(#clip160)" style="stroke:#000000; stroke-linecap:round; stroke-linejoin:round; stroke-width:4; stroke-opacity:1; fill:none" points="156.274,63.5907 175.172,63.5907 "/>
<path clip-path="url(#clip160)" d="M64.0939 1442.54 Q60.4828 1442.54 58.6541 1446.1 Q56.8486 1449.64 56.8486 1456.77 Q56.8486 1463.88 58.6541 1467.44 Q60.4828 1470.99 64.0939 1470.99 Q67.7281 1470.99 69.5337 1467.44 Q71.3624 1463.88 71.3624 1456.77 Q71.3624 1449.64 69.5337 1446.1 Q67.7281 1442.54 64.0939 1442.54 M64.0939 1438.83 Q69.9041 1438.83 72.9596 1443.44 Q76.0383 1448.02 76.0383 1456.77 Q76.0383 1465.5 72.9596 1470.11 Q69.9041 1474.69 64.0939 1474.69 Q58.2838 1474.69 55.2051 1470.11 Q52.1495 1465.5 52.1495 1456.77 Q52.1495 1448.02 55.2051 1443.44 Q58.2838 1438.83 64.0939 1438.83 Z" fill="#000000" fill-rule="nonzero" fill-opacity="1" /><path clip-path="url(#clip160)" d="M84.2558 1468.14 L89.1401 1468.14 L89.1401 1474.02 L84.2558 1474.02 L84.2558 1468.14 Z" fill="#000000" fill-rule="nonzero" fill-opacity="1" /><path clip-path="url(#clip160)" d="M99.3715 1439.46 L117.728 1439.46 L117.728 1443.39 L103.654 1443.39 L103.654 1451.86 Q104.672 1451.52 105.691 1451.36 Q106.709 1451.17 107.728 1451.17 Q113.515 1451.17 116.895 1454.34 Q120.274 1457.51 120.274 1462.93 Q120.274 1468.51 116.802 1471.61 Q113.33 1474.69 107.01 1474.69 Q104.834 1474.69 102.566 1474.32 Q100.321 1473.95 97.9132 1473.21 L97.9132 1468.51 Q99.9965 1469.64 102.219 1470.2 Q104.441 1470.75 106.918 1470.75 Q110.922 1470.75 113.26 1468.65 Q115.598 1466.54 115.598 1462.93 Q115.598 1459.32 113.26 1457.21 Q110.922 1455.11 106.918 1455.11 Q105.043 1455.11 103.168 1455.52 Q101.316 1455.94 99.3715 1456.82 L99.3715 1439.46 Z" fill="#000000" fill-rule="nonzero" fill-opacity="1" /><path clip-path="url(#clip160)" d="M62.9365 1094.25 Q59.3254 1094.25 57.4967 1097.81 Q55.6912 1101.36 55.6912 1108.49 Q55.6912 1115.59 57.4967 1119.16 Q59.3254 1122.7 62.9365 1122.7 Q66.5707 1122.7 68.3763 1119.16 Q70.205 1115.59 70.205 1108.49 Q70.205 1101.36 68.3763 1097.81 Q66.5707 1094.25 62.9365 1094.25 M62.9365 1090.55 Q68.7467 1090.55 71.8022 1095.15 Q74.8809 1099.74 74.8809 1108.49 Q74.8809 1117.21 71.8022 1121.82 Q68.7467 1126.4 62.9365 1126.4 Q57.1264 1126.4 54.0477 1121.82 Q50.9921 1117.21 50.9921 1108.49 Q50.9921 1099.74 54.0477 1095.15 Q57.1264 1090.55 62.9365 1090.55 Z" fill="#000000" fill-rule="nonzero" fill-opacity="1" /><path clip-path="url(#clip160)" d="M83.0984 1119.85 L87.9827 1119.85 L87.9827 1125.73 L83.0984 1125.73 L83.0984 1119.85 Z" fill="#000000" fill-rule="nonzero" fill-opacity="1" /><path clip-path="url(#clip160)" d="M108.746 1106.59 Q105.598 1106.59 103.746 1108.74 Q101.918 1110.89 101.918 1114.64 Q101.918 1118.37 103.746 1120.55 Q105.598 1122.7 108.746 1122.7 Q111.895 1122.7 113.723 1120.55 Q115.575 1118.37 115.575 1114.64 Q115.575 1110.89 113.723 1108.74 Q111.895 1106.59 108.746 1106.59 M118.029 1091.93 L118.029 1096.19 Q116.27 1095.36 114.464 1094.92 Q112.682 1094.48 110.922 1094.48 Q106.293 1094.48 103.839 1097.61 Q101.409 1100.73 101.061 1107.05 Q102.427 1105.04 104.487 1103.97 Q106.547 1102.88 109.024 1102.88 Q114.233 1102.88 117.242 1106.05 Q120.274 1109.2 120.274 1114.64 Q120.274 1119.97 117.126 1123.18 Q113.978 1126.4 108.746 1126.4 Q102.751 1126.4 99.5798 1121.82 Q96.4085 1117.21 96.4085 1108.49 Q96.4085 1100.29 100.297 1095.43 Q104.186 1090.55 110.737 1090.55 Q112.496 1090.55 114.279 1090.89 Q116.084 1091.24 118.029 1091.93 Z" fill="#000000" fill-rule="nonzero" fill-opacity="1" /><path clip-path="url(#clip160)" d="M64.0013 745.963 Q60.3902 745.963 58.5615 749.528 Q56.756 753.069 56.756 760.199 Q56.756 767.305 58.5615 770.87 Q60.3902 774.412 64.0013 774.412 Q67.6356 774.412 69.4411 770.87 Q71.2698 767.305 71.2698 760.199 Q71.2698 753.069 69.4411 749.528 Q67.6356 745.963 64.0013 745.963 M64.0013 742.259 Q69.8115 742.259 72.867 746.866 Q75.9457 751.449 75.9457 760.199 Q75.9457 768.926 72.867 773.532 Q69.8115 778.115 64.0013 778.115 Q58.1912 778.115 55.1125 773.532 Q52.0569 768.926 52.0569 760.199 Q52.0569 751.449 55.1125 746.866 Q58.1912 742.259 64.0013 742.259 Z" fill="#000000" fill-rule="nonzero" fill-opacity="1" /><path clip-path="url(#clip160)" d="M84.1632 771.564 L89.0475 771.564 L89.0475 777.444 L84.1632 777.444 L84.1632 771.564 Z" fill="#000000" fill-rule="nonzero" fill-opacity="1" /><path clip-path="url(#clip160)" d="M98.0521 742.884 L120.274 742.884 L120.274 744.875 L107.728 777.444 L102.844 777.444 L114.649 746.819 L98.0521 746.819 L98.0521 742.884 Z" fill="#000000" fill-rule="nonzero" fill-opacity="1" /><path clip-path="url(#clip160)" d="M63.1911 397.676 Q59.58 397.676 57.7513 401.241 Q55.9458 404.783 55.9458 411.912 Q55.9458 419.019 57.7513 422.583 Q59.58 426.125 63.1911 426.125 Q66.8254 426.125 68.6309 422.583 Q70.4596 419.019 70.4596 411.912 Q70.4596 404.783 68.6309 401.241 Q66.8254 397.676 63.1911 397.676 M63.1911 393.972 Q69.0013 393.972 72.0568 398.579 Q75.1355 403.162 75.1355 411.912 Q75.1355 420.639 72.0568 425.245 Q69.0013 429.829 63.1911 429.829 Q57.381 429.829 54.3023 425.245 Q51.2468 420.639 51.2468 411.912 Q51.2468 403.162 54.3023 398.579 Q57.381 393.972 63.1911 393.972 Z" fill="#000000" fill-rule="nonzero" fill-opacity="1" /><path clip-path="url(#clip160)" d="M83.3531 423.278 L88.2373 423.278 L88.2373 429.157 L83.3531 429.157 L83.3531 423.278 Z" fill="#000000" fill-rule="nonzero" fill-opacity="1" /><path clip-path="url(#clip160)" d="M108.422 412.745 Q105.089 412.745 103.168 414.528 Q101.27 416.31 101.27 419.435 Q101.27 422.56 103.168 424.343 Q105.089 426.125 108.422 426.125 Q111.756 426.125 113.677 424.343 Q115.598 422.537 115.598 419.435 Q115.598 416.31 113.677 414.528 Q111.779 412.745 108.422 412.745 M103.746 410.755 Q100.737 410.014 99.0474 407.954 Q97.3808 405.894 97.3808 402.931 Q97.3808 398.787 100.321 396.38 Q103.284 393.972 108.422 393.972 Q113.584 393.972 116.524 396.38 Q119.464 398.787 119.464 402.931 Q119.464 405.894 117.774 407.954 Q116.108 410.014 113.121 410.755 Q116.501 411.542 118.376 413.833 Q120.274 416.125 120.274 419.435 Q120.274 424.458 117.195 427.144 Q114.14 429.829 108.422 429.829 Q102.705 429.829 99.6261 427.144 Q96.5706 424.458 96.5706 419.435 Q96.5706 416.125 98.4687 413.833 Q100.367 411.542 103.746 410.755 M102.034 403.37 Q102.034 406.056 103.7 407.56 Q105.39 409.065 108.422 409.065 Q111.432 409.065 113.121 407.56 Q114.834 406.056 114.834 403.37 Q114.834 400.685 113.121 399.181 Q111.432 397.676 108.422 397.676 Q105.39 397.676 103.7 399.181 Q102.034 400.685 102.034 403.37 Z" fill="#000000" fill-rule="nonzero" fill-opacity="1" /><path clip-path="url(#clip160)" d="M63.2837 49.3894 Q59.6726 49.3894 57.8439 52.9542 Q56.0384 56.4958 56.0384 63.6254 Q56.0384 70.7319 57.8439 74.2967 Q59.6726 77.8383 63.2837 77.8383 Q66.918 77.8383 68.7235 74.2967 Q70.5522 70.7319 70.5522 63.6254 Q70.5522 56.4958 68.7235 52.9542 Q66.918 49.3894 63.2837 49.3894 M63.2837 45.6857 Q69.0939 45.6857 72.1494 50.2922 Q75.2281 54.8755 75.2281 63.6254 Q75.2281 72.3522 72.1494 76.9587 Q69.0939 81.542 63.2837 81.542 Q57.4736 81.542 54.3949 76.9587 Q51.3393 72.3522 51.3393 63.6254 Q51.3393 54.8755 54.3949 50.2922 Q57.4736 45.6857 63.2837 45.6857 Z" fill="#000000" fill-rule="nonzero" fill-opacity="1" /><path clip-path="url(#clip160)" d="M83.4457 74.9911 L88.3299 74.9911 L88.3299 80.8707 L83.4457 80.8707 L83.4457 74.9911 Z" fill="#000000" fill-rule="nonzero" fill-opacity="1" /><path clip-path="url(#clip160)" d="M98.6539 80.1531 L98.6539 75.8939 Q100.413 76.7272 102.219 77.167 Q104.024 77.6068 105.76 77.6068 Q110.39 77.6068 112.82 74.505 Q115.274 71.38 115.621 65.0374 Q114.279 67.0282 112.219 68.093 Q110.158 69.1578 107.658 69.1578 Q102.473 69.1578 99.4409 66.0328 Q96.4317 62.8847 96.4317 57.4449 Q96.4317 52.1209 99.5798 48.9033 Q102.728 45.6857 107.959 45.6857 Q113.955 45.6857 117.103 50.2922 Q120.274 54.8755 120.274 63.6254 Q120.274 71.7967 116.385 76.6809 Q112.52 81.542 105.969 81.542 Q104.209 81.542 102.404 81.1948 Q100.598 80.8476 98.6539 80.1531 M107.959 65.5004 Q111.108 65.5004 112.936 63.3476 Q114.788 61.1949 114.788 57.4449 Q114.788 53.7181 112.936 51.5653 Q111.108 49.3894 107.959 49.3894 Q104.811 49.3894 102.959 51.5653 Q101.131 53.7181 101.131 57.4449 Q101.131 61.1949 102.959 63.3476 Q104.811 65.5004 107.959 65.5004 Z" fill="#000000" fill-rule="nonzero" fill-opacity="1" /><polyline clip-path="url(#clip162)" style="stroke:#009af9; stroke-linecap:round; stroke-linejoin:round; stroke-width:4; stroke-opacity:1; fill:none" points="218.439,1445.72 327.499,644.574 1199.98,352.153 1745.29,269.146 2290.59,302.556 "/>
<polyline clip-path="url(#clip162)" style="stroke:#e26f46; stroke-linecap:round; stroke-linejoin:round; stroke-width:4; stroke-opacity:1; fill:none" points="218.439,154.451 327.499,196.816 1199.98,87.9763 1745.29,277.068 2290.59,130.341 "/>
<path clip-path="url(#clip160)" d="M1599.57 1438.47 L2279.54 1438.47 L2279.54 1282.95 L1599.57 1282.95  Z" fill="#ffffff" fill-rule="evenodd" fill-opacity="1"/>
<polyline clip-path="url(#clip160)" style="stroke:#000000; stroke-linecap:round; stroke-linejoin:round; stroke-width:4; stroke-opacity:1; fill:none" points="1599.57,1438.47 2279.54,1438.47 2279.54,1282.95 1599.57,1282.95 1599.57,1438.47 "/>
<polyline clip-path="url(#clip160)" style="stroke:#009af9; stroke-linecap:round; stroke-linejoin:round; stroke-width:4; stroke-opacity:1; fill:none" points="1623.98,1334.79 1770.41,1334.79 "/>
<path clip-path="url(#clip160)" d="M1794.81 1317.51 L1799.54 1317.51 L1806.8 1346.73 L1814.05 1317.51 L1819.3 1317.51 L1826.57 1346.73 L1833.82 1317.51 L1838.56 1317.51 L1829.88 1352.07 L1824 1352.07 L1816.71 1322.07 L1809.35 1352.07 L1803.47 1352.07 L1794.81 1317.51 Z" fill="#000000" fill-rule="nonzero" fill-opacity="1" /><path clip-path="url(#clip160)" d="M1843.54 1326.15 L1847.8 1326.15 L1847.8 1352.07 L1843.54 1352.07 L1843.54 1326.15 M1843.54 1316.06 L1847.8 1316.06 L1847.8 1321.45 L1843.54 1321.45 L1843.54 1316.06 Z" fill="#000000" fill-rule="nonzero" fill-opacity="1" /><path clip-path="url(#clip160)" d="M1860.92 1318.79 L1860.92 1326.15 L1869.7 1326.15 L1869.7 1329.46 L1860.92 1329.46 L1860.92 1343.53 Q1860.92 1346.7 1861.78 1347.61 Q1862.66 1348.51 1865.32 1348.51 L1869.7 1348.51 L1869.7 1352.07 L1865.32 1352.07 Q1860.39 1352.07 1858.52 1350.25 Q1856.64 1348.39 1856.64 1343.53 L1856.64 1329.46 L1853.52 1329.46 L1853.52 1326.15 L1856.64 1326.15 L1856.64 1318.79 L1860.92 1318.79 Z" fill="#000000" fill-rule="nonzero" fill-opacity="1" /><path clip-path="url(#clip160)" d="M1896.85 1336.43 L1896.85 1352.07 L1892.59 1352.07 L1892.59 1336.57 Q1892.59 1332.88 1891.15 1331.06 Q1889.72 1329.23 1886.85 1329.23 Q1883.4 1329.23 1881.41 1331.43 Q1879.42 1333.63 1879.42 1337.42 L1879.42 1352.07 L1875.14 1352.07 L1875.14 1316.06 L1879.42 1316.06 L1879.42 1330.18 Q1880.95 1327.84 1883.01 1326.68 Q1885.09 1325.52 1887.8 1325.52 Q1892.27 1325.52 1894.56 1328.3 Q1896.85 1331.06 1896.85 1336.43 Z" fill="#000000" fill-rule="nonzero" fill-opacity="1" /><path clip-path="url(#clip160)" d="M1915.39 1329.13 Q1911.97 1329.13 1909.97 1331.82 Q1907.98 1334.48 1907.98 1339.13 Q1907.98 1343.79 1909.95 1346.47 Q1911.94 1349.13 1915.39 1349.13 Q1918.79 1349.13 1920.78 1346.45 Q1922.78 1343.76 1922.78 1339.13 Q1922.78 1334.53 1920.78 1331.84 Q1918.79 1329.13 1915.39 1329.13 M1915.39 1325.52 Q1920.95 1325.52 1924.12 1329.13 Q1927.29 1332.75 1927.29 1339.13 Q1927.29 1345.5 1924.12 1349.13 Q1920.95 1352.75 1915.39 1352.75 Q1909.81 1352.75 1906.64 1349.13 Q1903.49 1345.5 1903.49 1339.13 Q1903.49 1332.75 1906.64 1329.13 Q1909.81 1325.52 1915.39 1325.52 Z" fill="#000000" fill-rule="nonzero" fill-opacity="1" /><path clip-path="url(#clip160)" d="M1933.91 1341.84 L1933.91 1326.15 L1938.17 1326.15 L1938.17 1341.68 Q1938.17 1345.36 1939.6 1347.21 Q1941.04 1349.04 1943.91 1349.04 Q1947.36 1349.04 1949.35 1346.84 Q1951.36 1344.64 1951.36 1340.85 L1951.36 1326.15 L1955.62 1326.15 L1955.62 1352.07 L1951.36 1352.07 L1951.36 1348.09 Q1949.81 1350.45 1947.75 1351.61 Q1945.71 1352.75 1943.01 1352.75 Q1938.54 1352.75 1936.22 1349.97 Q1933.91 1347.19 1933.91 1341.84 M1944.63 1325.52 L1944.63 1325.52 Z" fill="#000000" fill-rule="nonzero" fill-opacity="1" /><path clip-path="url(#clip160)" d="M1968.61 1318.79 L1968.61 1326.15 L1977.38 1326.15 L1977.38 1329.46 L1968.61 1329.46 L1968.61 1343.53 Q1968.61 1346.7 1969.46 1347.61 Q1970.34 1348.51 1973.01 1348.51 L1977.38 1348.51 L1977.38 1352.07 L1973.01 1352.07 Q1968.08 1352.07 1966.2 1350.25 Q1964.33 1348.39 1964.33 1343.53 L1964.33 1329.46 L1961.2 1329.46 L1961.2 1326.15 L1964.33 1326.15 L1964.33 1318.79 L1968.61 1318.79 Z" fill="#000000" fill-rule="nonzero" fill-opacity="1" /><path clip-path="url(#clip160)" d="M2002.91 1335.57 L2002.91 1348.23 L2010.41 1348.23 Q2014.19 1348.23 2015.99 1346.68 Q2017.82 1345.11 2017.82 1341.89 Q2017.82 1338.65 2015.99 1337.12 Q2014.19 1335.57 2010.41 1335.57 L2002.91 1335.57 M2002.91 1321.36 L2002.91 1331.77 L2009.83 1331.77 Q2013.26 1331.77 2014.93 1330.5 Q2016.62 1329.2 2016.62 1326.57 Q2016.62 1323.95 2014.93 1322.65 Q2013.26 1321.36 2009.83 1321.36 L2002.91 1321.36 M1998.24 1317.51 L2010.18 1317.51 Q2015.53 1317.51 2018.42 1319.74 Q2021.32 1321.96 2021.32 1326.06 Q2021.32 1329.23 2019.83 1331.1 Q2018.35 1332.98 2015.48 1333.44 Q2018.93 1334.18 2020.83 1336.54 Q2022.75 1338.88 2022.75 1342.4 Q2022.75 1347.03 2019.6 1349.55 Q2016.46 1352.07 2010.65 1352.07 L1998.24 1352.07 L1998.24 1317.51 Z" fill="#000000" fill-rule="nonzero" fill-opacity="1" /><path clip-path="url(#clip160)" d="M2042.36 1339.04 Q2037.2 1339.04 2035.21 1340.22 Q2033.21 1341.4 2033.21 1344.25 Q2033.21 1346.52 2034.7 1347.86 Q2036.2 1349.18 2038.77 1349.18 Q2042.31 1349.18 2044.44 1346.68 Q2046.59 1344.16 2046.59 1339.99 L2046.59 1339.04 L2042.36 1339.04 M2050.85 1337.28 L2050.85 1352.07 L2046.59 1352.07 L2046.59 1348.14 Q2045.14 1350.5 2042.96 1351.63 Q2040.78 1352.75 2037.64 1352.75 Q2033.65 1352.75 2031.29 1350.52 Q2028.96 1348.28 2028.96 1344.53 Q2028.96 1340.15 2031.87 1337.93 Q2034.81 1335.71 2040.62 1335.71 L2046.59 1335.71 L2046.59 1335.29 Q2046.59 1332.35 2044.65 1330.76 Q2042.73 1329.13 2039.23 1329.13 Q2037.01 1329.13 2034.9 1329.67 Q2032.8 1330.2 2030.85 1331.26 L2030.85 1327.33 Q2033.19 1326.43 2035.39 1325.99 Q2037.59 1325.52 2039.67 1325.52 Q2045.3 1325.52 2048.08 1328.44 Q2050.85 1331.36 2050.85 1337.28 Z" fill="#000000" fill-rule="nonzero" fill-opacity="1" /><path clip-path="url(#clip160)" d="M2063.84 1318.79 L2063.84 1326.15 L2072.61 1326.15 L2072.61 1329.46 L2063.84 1329.46 L2063.84 1343.53 Q2063.84 1346.7 2064.7 1347.61 Q2065.58 1348.51 2068.24 1348.51 L2072.61 1348.51 L2072.61 1352.07 L2068.24 1352.07 Q2063.31 1352.07 2061.43 1350.25 Q2059.56 1348.39 2059.56 1343.53 L2059.56 1329.46 L2056.43 1329.46 L2056.43 1326.15 L2059.56 1326.15 L2059.56 1318.79 L2063.84 1318.79 Z" fill="#000000" fill-rule="nonzero" fill-opacity="1" /><path clip-path="url(#clip160)" d="M2096.87 1327.14 L2096.87 1331.13 Q2095.07 1330.13 2093.24 1329.64 Q2091.43 1329.13 2089.58 1329.13 Q2085.44 1329.13 2083.14 1331.77 Q2080.85 1334.39 2080.85 1339.13 Q2080.85 1343.88 2083.14 1346.52 Q2085.44 1349.13 2089.58 1349.13 Q2091.43 1349.13 2093.24 1348.65 Q2095.07 1348.14 2096.87 1347.14 L2096.87 1351.08 Q2095.09 1351.91 2093.17 1352.33 Q2091.27 1352.75 2089.12 1352.75 Q2083.26 1352.75 2079.81 1349.07 Q2076.36 1345.38 2076.36 1339.13 Q2076.36 1332.79 2079.83 1329.16 Q2083.33 1325.52 2089.39 1325.52 Q2091.36 1325.52 2093.24 1325.94 Q2095.11 1326.33 2096.87 1327.14 Z" fill="#000000" fill-rule="nonzero" fill-opacity="1" /><path clip-path="url(#clip160)" d="M2125.83 1336.43 L2125.83 1352.07 L2121.57 1352.07 L2121.57 1336.57 Q2121.57 1332.88 2120.14 1331.06 Q2118.7 1329.23 2115.83 1329.23 Q2112.38 1329.23 2110.39 1331.43 Q2108.4 1333.63 2108.4 1337.42 L2108.4 1352.07 L2104.12 1352.07 L2104.12 1316.06 L2108.4 1316.06 L2108.4 1330.18 Q2109.93 1327.84 2111.99 1326.68 Q2114.07 1325.52 2116.78 1325.52 Q2121.25 1325.52 2123.54 1328.3 Q2125.83 1331.06 2125.83 1336.43 Z" fill="#000000" fill-rule="nonzero" fill-opacity="1" /><path clip-path="url(#clip160)" d="M2134.51 1317.51 L2140.81 1317.51 L2156.13 1346.43 L2156.13 1317.51 L2160.67 1317.51 L2160.67 1352.07 L2154.37 1352.07 L2139.05 1323.16 L2139.05 1352.07 L2134.51 1352.07 L2134.51 1317.51 Z" fill="#000000" fill-rule="nonzero" fill-opacity="1" /><path clip-path="url(#clip160)" d="M2179.83 1329.13 Q2176.41 1329.13 2174.42 1331.82 Q2172.43 1334.48 2172.43 1339.13 Q2172.43 1343.79 2174.39 1346.47 Q2176.38 1349.13 2179.83 1349.13 Q2183.24 1349.13 2185.23 1346.45 Q2187.22 1343.76 2187.22 1339.13 Q2187.22 1334.53 2185.23 1331.84 Q2183.24 1329.13 2179.83 1329.13 M2179.83 1325.52 Q2185.39 1325.52 2188.56 1329.13 Q2191.73 1332.75 2191.73 1339.13 Q2191.73 1345.5 2188.56 1349.13 Q2185.39 1352.75 2179.83 1352.75 Q2174.26 1352.75 2171.08 1349.13 Q2167.94 1345.5 2167.94 1339.13 Q2167.94 1332.75 2171.08 1329.13 Q2174.26 1325.52 2179.83 1325.52 Z" fill="#000000" fill-rule="nonzero" fill-opacity="1" /><path clip-path="url(#clip160)" d="M2213.82 1330.13 Q2213.1 1329.71 2212.24 1329.53 Q2211.41 1329.32 2210.39 1329.32 Q2206.78 1329.32 2204.83 1331.68 Q2202.91 1334.02 2202.91 1338.42 L2202.91 1352.07 L2198.63 1352.07 L2198.63 1326.15 L2202.91 1326.15 L2202.91 1330.18 Q2204.26 1327.82 2206.41 1326.68 Q2208.56 1325.52 2211.64 1325.52 Q2212.08 1325.52 2212.61 1325.59 Q2213.14 1325.64 2213.79 1325.76 L2213.82 1330.13 Z" fill="#000000" fill-rule="nonzero" fill-opacity="1" /><path clip-path="url(#clip160)" d="M2237.63 1331.13 Q2239.23 1328.26 2241.45 1326.89 Q2243.68 1325.52 2246.69 1325.52 Q2250.74 1325.52 2252.94 1328.37 Q2255.13 1331.19 2255.13 1336.43 L2255.13 1352.07 L2250.85 1352.07 L2250.85 1336.57 Q2250.85 1332.84 2249.53 1331.03 Q2248.21 1329.23 2245.5 1329.23 Q2242.19 1329.23 2240.27 1331.43 Q2238.35 1333.63 2238.35 1337.42 L2238.35 1352.07 L2234.07 1352.07 L2234.07 1336.57 Q2234.07 1332.82 2232.75 1331.03 Q2231.43 1329.23 2228.68 1329.23 Q2225.41 1329.23 2223.49 1331.45 Q2221.57 1333.65 2221.57 1337.42 L2221.57 1352.07 L2217.29 1352.07 L2217.29 1326.15 L2221.57 1326.15 L2221.57 1330.18 Q2223.03 1327.79 2225.07 1326.66 Q2227.1 1325.52 2229.9 1325.52 Q2232.73 1325.52 2234.69 1326.96 Q2236.69 1328.39 2237.63 1331.13 Z" fill="#000000" fill-rule="nonzero" fill-opacity="1" /><polyline clip-path="url(#clip160)" style="stroke:#e26f46; stroke-linecap:round; stroke-linejoin:round; stroke-width:4; stroke-opacity:1; fill:none" points="1623.98,1386.63 1770.41,1386.63 "/>
<path clip-path="url(#clip160)" d="M1794.81 1369.35 L1799.54 1369.35 L1806.8 1398.57 L1814.05 1369.35 L1819.3 1369.35 L1826.57 1398.57 L1833.82 1369.35 L1838.56 1369.35 L1829.88 1403.91 L1824 1403.91 L1816.71 1373.91 L1809.35 1403.91 L1803.47 1403.91 L1794.81 1369.35 Z" fill="#000000" fill-rule="nonzero" fill-opacity="1" /><path clip-path="url(#clip160)" d="M1843.54 1377.99 L1847.8 1377.99 L1847.8 1403.91 L1843.54 1403.91 L1843.54 1377.99 M1843.54 1367.9 L1847.8 1367.9 L1847.8 1373.29 L1843.54 1373.29 L1843.54 1367.9 Z" fill="#000000" fill-rule="nonzero" fill-opacity="1" /><path clip-path="url(#clip160)" d="M1860.92 1370.63 L1860.92 1377.99 L1869.7 1377.99 L1869.7 1381.3 L1860.92 1381.3 L1860.92 1395.37 Q1860.92 1398.54 1861.78 1399.45 Q1862.66 1400.35 1865.32 1400.35 L1869.7 1400.35 L1869.7 1403.91 L1865.32 1403.91 Q1860.39 1403.91 1858.52 1402.09 Q1856.64 1400.23 1856.64 1395.37 L1856.64 1381.3 L1853.52 1381.3 L1853.52 1377.99 L1856.64 1377.99 L1856.64 1370.63 L1860.92 1370.63 Z" fill="#000000" fill-rule="nonzero" fill-opacity="1" /><path clip-path="url(#clip160)" d="M1896.85 1388.27 L1896.85 1403.91 L1892.59 1403.91 L1892.59 1388.41 Q1892.59 1384.72 1891.15 1382.9 Q1889.72 1381.07 1886.85 1381.07 Q1883.4 1381.07 1881.41 1383.27 Q1879.42 1385.47 1879.42 1389.26 L1879.42 1403.91 L1875.14 1403.91 L1875.14 1367.9 L1879.42 1367.9 L1879.42 1382.02 Q1880.95 1379.68 1883.01 1378.52 Q1885.09 1377.36 1887.8 1377.36 Q1892.27 1377.36 1894.56 1380.14 Q1896.85 1382.9 1896.85 1388.27 Z" fill="#000000" fill-rule="nonzero" fill-opacity="1" /><path clip-path="url(#clip160)" d="M1925.28 1387.41 L1925.28 1400.07 L1932.78 1400.07 Q1936.55 1400.07 1938.35 1398.52 Q1940.18 1396.95 1940.18 1393.73 Q1940.18 1390.49 1938.35 1388.96 Q1936.55 1387.41 1932.78 1387.41 L1925.28 1387.41 M1925.28 1373.2 L1925.28 1383.61 L1932.2 1383.61 Q1935.62 1383.61 1937.29 1382.34 Q1938.98 1381.04 1938.98 1378.41 Q1938.98 1375.79 1937.29 1374.49 Q1935.62 1373.2 1932.2 1373.2 L1925.28 1373.2 M1920.6 1369.35 L1932.54 1369.35 Q1937.89 1369.35 1940.78 1371.58 Q1943.68 1373.8 1943.68 1377.9 Q1943.68 1381.07 1942.2 1382.94 Q1940.71 1384.82 1937.84 1385.28 Q1941.29 1386.02 1943.19 1388.38 Q1945.11 1390.72 1945.11 1394.24 Q1945.11 1398.87 1941.96 1401.39 Q1938.82 1403.91 1933.01 1403.91 L1920.6 1403.91 L1920.6 1369.35 Z" fill="#000000" fill-rule="nonzero" fill-opacity="1" /><path clip-path="url(#clip160)" d="M1964.72 1390.88 Q1959.56 1390.88 1957.57 1392.06 Q1955.58 1393.24 1955.58 1396.09 Q1955.58 1398.36 1957.06 1399.7 Q1958.56 1401.02 1961.13 1401.02 Q1964.67 1401.02 1966.8 1398.52 Q1968.96 1396 1968.96 1391.83 L1968.96 1390.88 L1964.72 1390.88 M1973.21 1389.12 L1973.21 1403.91 L1968.96 1403.91 L1968.96 1399.98 Q1967.5 1402.34 1965.32 1403.47 Q1963.15 1404.59 1960 1404.59 Q1956.02 1404.59 1953.65 1402.36 Q1951.32 1400.12 1951.32 1396.37 Q1951.32 1391.99 1954.23 1389.77 Q1957.17 1387.55 1962.98 1387.55 L1968.96 1387.55 L1968.96 1387.13 Q1968.96 1384.19 1967.01 1382.6 Q1965.09 1380.97 1961.59 1380.97 Q1959.37 1380.97 1957.27 1381.51 Q1955.16 1382.04 1953.21 1383.1 L1953.21 1379.17 Q1955.55 1378.27 1957.75 1377.83 Q1959.95 1377.36 1962.03 1377.36 Q1967.66 1377.36 1970.44 1380.28 Q1973.21 1383.2 1973.21 1389.12 Z" fill="#000000" fill-rule="nonzero" fill-opacity="1" /><path clip-path="url(#clip160)" d="M1986.2 1370.63 L1986.2 1377.99 L1994.97 1377.99 L1994.97 1381.3 L1986.2 1381.3 L1986.2 1395.37 Q1986.2 1398.54 1987.06 1399.45 Q1987.94 1400.35 1990.6 1400.35 L1994.97 1400.35 L1994.97 1403.91 L1990.6 1403.91 Q1985.67 1403.91 1983.79 1402.09 Q1981.92 1400.23 1981.92 1395.37 L1981.92 1381.3 L1978.79 1381.3 L1978.79 1377.99 L1981.92 1377.99 L1981.92 1370.63 L1986.2 1370.63 Z" fill="#000000" fill-rule="nonzero" fill-opacity="1" /><path clip-path="url(#clip160)" d="M2019.23 1378.98 L2019.23 1382.97 Q2017.43 1381.97 2015.6 1381.48 Q2013.79 1380.97 2011.94 1380.97 Q2007.8 1380.97 2005.51 1383.61 Q2003.21 1386.23 2003.21 1390.97 Q2003.21 1395.72 2005.51 1398.36 Q2007.8 1400.97 2011.94 1400.97 Q2013.79 1400.97 2015.6 1400.49 Q2017.43 1399.98 2019.23 1398.98 L2019.23 1402.92 Q2017.45 1403.75 2015.53 1404.17 Q2013.63 1404.59 2011.48 1404.59 Q2005.62 1404.59 2002.17 1400.91 Q1998.72 1397.22 1998.72 1390.97 Q1998.72 1384.63 2002.2 1381 Q2005.69 1377.36 2011.76 1377.36 Q2013.72 1377.36 2015.6 1377.78 Q2017.47 1378.17 2019.23 1378.98 Z" fill="#000000" fill-rule="nonzero" fill-opacity="1" /><path clip-path="url(#clip160)" d="M2048.19 1388.27 L2048.19 1403.91 L2043.93 1403.91 L2043.93 1388.41 Q2043.93 1384.72 2042.5 1382.9 Q2041.06 1381.07 2038.19 1381.07 Q2034.74 1381.07 2032.75 1383.27 Q2030.76 1385.47 2030.76 1389.26 L2030.76 1403.91 L2026.48 1403.91 L2026.48 1367.9 L2030.76 1367.9 L2030.76 1382.02 Q2032.29 1379.68 2034.35 1378.52 Q2036.43 1377.36 2039.14 1377.36 Q2043.61 1377.36 2045.9 1380.14 Q2048.19 1382.9 2048.19 1388.27 Z" fill="#000000" fill-rule="nonzero" fill-opacity="1" /><path clip-path="url(#clip160)" d="M2056.87 1369.35 L2063.17 1369.35 L2078.49 1398.27 L2078.49 1369.35 L2083.03 1369.35 L2083.03 1403.91 L2076.73 1403.91 L2061.41 1375 L2061.41 1403.91 L2056.87 1403.91 L2056.87 1369.35 Z" fill="#000000" fill-rule="nonzero" fill-opacity="1" /><path clip-path="url(#clip160)" d="M2102.2 1380.97 Q2098.77 1380.97 2096.78 1383.66 Q2094.79 1386.32 2094.79 1390.97 Q2094.79 1395.63 2096.76 1398.31 Q2098.75 1400.97 2102.2 1400.97 Q2105.6 1400.97 2107.59 1398.29 Q2109.58 1395.6 2109.58 1390.97 Q2109.58 1386.37 2107.59 1383.68 Q2105.6 1380.97 2102.2 1380.97 M2102.2 1377.36 Q2107.75 1377.36 2110.92 1380.97 Q2114.09 1384.59 2114.09 1390.97 Q2114.09 1397.34 2110.92 1400.97 Q2107.75 1404.59 2102.2 1404.59 Q2096.62 1404.59 2093.45 1400.97 Q2090.3 1397.34 2090.3 1390.97 Q2090.3 1384.59 2093.45 1380.97 Q2096.62 1377.36 2102.2 1377.36 Z" fill="#000000" fill-rule="nonzero" fill-opacity="1" /><path clip-path="url(#clip160)" d="M2136.18 1381.97 Q2135.46 1381.55 2134.6 1381.37 Q2133.77 1381.16 2132.75 1381.16 Q2129.14 1381.16 2127.2 1383.52 Q2125.27 1385.86 2125.27 1390.26 L2125.27 1403.91 L2120.99 1403.91 L2120.99 1377.99 L2125.27 1377.99 L2125.27 1382.02 Q2126.62 1379.66 2128.77 1378.52 Q2130.92 1377.36 2134 1377.36 Q2134.44 1377.36 2134.97 1377.43 Q2135.51 1377.48 2136.15 1377.6 L2136.18 1381.97 Z" fill="#000000" fill-rule="nonzero" fill-opacity="1" /><path clip-path="url(#clip160)" d="M2160 1382.97 Q2161.59 1380.1 2163.82 1378.73 Q2166.04 1377.36 2169.05 1377.36 Q2173.1 1377.36 2175.3 1380.21 Q2177.5 1383.03 2177.5 1388.27 L2177.5 1403.91 L2173.21 1403.91 L2173.21 1388.41 Q2173.21 1384.68 2171.89 1382.87 Q2170.57 1381.07 2167.87 1381.07 Q2164.56 1381.07 2162.63 1383.27 Q2160.71 1385.47 2160.71 1389.26 L2160.71 1403.91 L2156.43 1403.91 L2156.43 1388.41 Q2156.43 1384.66 2155.11 1382.87 Q2153.79 1381.07 2151.04 1381.07 Q2147.77 1381.07 2145.85 1383.29 Q2143.93 1385.49 2143.93 1389.26 L2143.93 1403.91 L2139.65 1403.91 L2139.65 1377.99 L2143.93 1377.99 L2143.93 1382.02 Q2145.39 1379.63 2147.43 1378.5 Q2149.46 1377.36 2152.26 1377.36 Q2155.09 1377.36 2157.06 1378.8 Q2159.05 1380.23 2160 1382.97 Z" fill="#000000" fill-rule="nonzero" fill-opacity="1" /></svg>
