<?xml version="1.0" encoding="utf-8"?>
<svg xmlns="http://www.w3.org/2000/svg" xmlns:xlink="http://www.w3.org/1999/xlink" width="600" height="400" viewBox="0 0 2400 1600">
<defs>
  <clipPath id="clip110">
    <rect x="0" y="0" width="2400" height="1600"/>
  </clipPath>
</defs>
<path clip-path="url(#clip110)" d="M0 1600 L2400 1600 L2400 0 L0 0  Z" fill="#ffffff" fill-rule="evenodd" fill-opacity="1"/>
<defs>
  <clipPath id="clip111">
    <rect x="480" y="0" width="1681" height="1600"/>
  </clipPath>
</defs>
<path clip-path="url(#clip110)" d="M156.598 1423.18 L2352.76 1423.18 L2352.76 47.2441 L156.598 47.2441  Z" fill="#ffffff" fill-rule="evenodd" fill-opacity="1"/>
<defs>
  <clipPath id="clip112">
    <rect x="156" y="47" width="2197" height="1377"/>
  </clipPath>
</defs>
<polyline clip-path="url(#clip112)" style="stroke:#000000; stroke-linecap:round; stroke-linejoin:round; stroke-width:2; stroke-opacity:0.1; fill:none" points="448.959,1423.18 448.959,47.2441 "/>
<polyline clip-path="url(#clip112)" style="stroke:#000000; stroke-linecap:round; stroke-linejoin:round; stroke-width:2; stroke-opacity:0.1; fill:none" points="909.369,1423.18 909.369,47.2441 "/>
<polyline clip-path="url(#clip112)" style="stroke:#000000; stroke-linecap:round; stroke-linejoin:round; stroke-width:2; stroke-opacity:0.1; fill:none" points="1369.78,1423.18 1369.78,47.2441 "/>
<polyline clip-path="url(#clip112)" style="stroke:#000000; stroke-linecap:round; stroke-linejoin:round; stroke-width:2; stroke-opacity:0.1; fill:none" points="1830.19,1423.18 1830.19,47.2441 "/>
<polyline clip-path="url(#clip112)" style="stroke:#000000; stroke-linecap:round; stroke-linejoin:round; stroke-width:2; stroke-opacity:0.1; fill:none" points="2290.6,1423.18 2290.6,47.2441 "/>
<polyline clip-path="url(#clip112)" style="stroke:#000000; stroke-linecap:round; stroke-linejoin:round; stroke-width:2; stroke-opacity:0.1; fill:none" points="156.598,1229.26 2352.76,1229.26 "/>
<polyline clip-path="url(#clip112)" style="stroke:#000000; stroke-linecap:round; stroke-linejoin:round; stroke-width:2; stroke-opacity:0.1; fill:none" points="156.598,1031.21 2352.76,1031.21 "/>
<polyline clip-path="url(#clip112)" style="stroke:#000000; stroke-linecap:round; stroke-linejoin:round; stroke-width:2; stroke-opacity:0.1; fill:none" points="156.598,833.167 2352.76,833.167 "/>
<polyline clip-path="url(#clip112)" style="stroke:#000000; stroke-linecap:round; stroke-linejoin:round; stroke-width:2; stroke-opacity:0.1; fill:none" points="156.598,635.121 2352.76,635.121 "/>
<polyline clip-path="url(#clip112)" style="stroke:#000000; stroke-linecap:round; stroke-linejoin:round; stroke-width:2; stroke-opacity:0.1; fill:none" points="156.598,437.075 2352.76,437.075 "/>
<polyline clip-path="url(#clip112)" style="stroke:#000000; stroke-linecap:round; stroke-linejoin:round; stroke-width:2; stroke-opacity:0.1; fill:none" points="156.598,239.029 2352.76,239.029 "/>
<polyline clip-path="url(#clip110)" style="stroke:#000000; stroke-linecap:round; stroke-linejoin:round; stroke-width:4; stroke-opacity:1; fill:none" points="156.598,1423.18 2352.76,1423.18 "/>
<polyline clip-path="url(#clip110)" style="stroke:#000000; stroke-linecap:round; stroke-linejoin:round; stroke-width:4; stroke-opacity:1; fill:none" points="448.959,1423.18 448.959,1404.28 "/>
<polyline clip-path="url(#clip110)" style="stroke:#000000; stroke-linecap:round; stroke-linejoin:round; stroke-width:4; stroke-opacity:1; fill:none" points="909.369,1423.18 909.369,1404.28 "/>
<polyline clip-path="url(#clip110)" style="stroke:#000000; stroke-linecap:round; stroke-linejoin:round; stroke-width:4; stroke-opacity:1; fill:none" points="1369.78,1423.18 1369.78,1404.28 "/>
<polyline clip-path="url(#clip110)" style="stroke:#000000; stroke-linecap:round; stroke-linejoin:round; stroke-width:4; stroke-opacity:1; fill:none" points="1830.19,1423.18 1830.19,1404.28 "/>
<polyline clip-path="url(#clip110)" style="stroke:#000000; stroke-linecap:round; stroke-linejoin:round; stroke-width:4; stroke-opacity:1; fill:none" points="2290.6,1423.18 2290.6,1404.28 "/>
<path clip-path="url(#clip110)" d="M443.612 1481.64 L459.931 1481.64 L459.931 1485.58 L437.987 1485.58 L437.987 1481.64 Q440.649 1478.89 445.232 1474.26 Q449.838 1469.61 451.019 1468.27 Q453.264 1465.74 454.144 1464.01 Q455.047 1462.25 455.047 1460.56 Q455.047 1457.8 453.102 1456.07 Q451.181 1454.33 448.079 1454.33 Q445.88 1454.33 443.426 1455.09 Q440.996 1455.86 438.218 1457.41 L438.218 1452.69 Q441.042 1451.55 443.496 1450.97 Q445.95 1450.39 447.987 1450.39 Q453.357 1450.39 456.551 1453.08 Q459.746 1455.77 459.746 1460.26 Q459.746 1462.39 458.936 1464.31 Q458.149 1466.2 456.042 1468.8 Q455.463 1469.47 452.362 1472.69 Q449.26 1475.88 443.612 1481.64 Z" fill="#000000" fill-rule="nonzero" fill-opacity="1" /><path clip-path="url(#clip110)" d="M912.379 1455.09 L900.573 1473.54 L912.379 1473.54 L912.379 1455.09 M911.152 1451.02 L917.031 1451.02 L917.031 1473.54 L921.962 1473.54 L921.962 1477.43 L917.031 1477.43 L917.031 1485.58 L912.379 1485.58 L912.379 1477.43 L896.777 1477.43 L896.777 1472.92 L911.152 1451.02 Z" fill="#000000" fill-rule="nonzero" fill-opacity="1" /><path clip-path="url(#clip110)" d="M1370.18 1466.44 Q1367.04 1466.44 1365.18 1468.59 Q1363.36 1470.74 1363.36 1474.49 Q1363.36 1478.22 1365.18 1480.39 Q1367.04 1482.55 1370.18 1482.55 Q1373.33 1482.55 1375.16 1480.39 Q1377.01 1478.22 1377.01 1474.49 Q1377.01 1470.74 1375.16 1468.59 Q1373.33 1466.44 1370.18 1466.44 M1379.47 1451.78 L1379.47 1456.04 Q1377.71 1455.21 1375.9 1454.77 Q1374.12 1454.33 1372.36 1454.33 Q1367.73 1454.33 1365.28 1457.45 Q1362.85 1460.58 1362.5 1466.9 Q1363.87 1464.89 1365.93 1463.82 Q1367.99 1462.73 1370.46 1462.73 Q1375.67 1462.73 1378.68 1465.9 Q1381.71 1469.05 1381.71 1474.49 Q1381.71 1479.82 1378.56 1483.03 Q1375.42 1486.25 1370.18 1486.25 Q1364.19 1486.25 1361.02 1481.67 Q1357.85 1477.06 1357.85 1468.33 Q1357.85 1460.14 1361.74 1455.28 Q1365.62 1450.39 1372.18 1450.39 Q1373.93 1450.39 1375.72 1450.74 Q1377.52 1451.09 1379.47 1451.78 Z" fill="#000000" fill-rule="nonzero" fill-opacity="1" /><path clip-path="url(#clip110)" d="M1830.19 1469.17 Q1826.86 1469.17 1824.94 1470.95 Q1823.04 1472.73 1823.04 1475.86 Q1823.04 1478.98 1824.94 1480.77 Q1826.86 1482.55 1830.19 1482.55 Q1833.52 1482.55 1835.44 1480.77 Q1837.37 1478.96 1837.37 1475.86 Q1837.37 1472.73 1835.44 1470.95 Q1833.55 1469.17 1830.19 1469.17 M1825.51 1467.18 Q1822.5 1466.44 1820.82 1464.38 Q1819.15 1462.32 1819.15 1459.35 Q1819.15 1455.21 1822.09 1452.8 Q1825.05 1450.39 1830.19 1450.39 Q1835.35 1450.39 1838.29 1452.8 Q1841.23 1455.21 1841.23 1459.35 Q1841.23 1462.32 1839.54 1464.38 Q1837.88 1466.44 1834.89 1467.18 Q1838.27 1467.96 1840.14 1470.26 Q1842.04 1472.55 1842.04 1475.86 Q1842.04 1480.88 1838.96 1483.57 Q1835.91 1486.25 1830.19 1486.25 Q1824.47 1486.25 1821.39 1483.57 Q1818.34 1480.88 1818.34 1475.86 Q1818.34 1472.55 1820.24 1470.26 Q1822.13 1467.96 1825.51 1467.18 M1823.8 1459.79 Q1823.8 1462.48 1825.47 1463.98 Q1827.16 1465.49 1830.19 1465.49 Q1833.2 1465.49 1834.89 1463.98 Q1836.6 1462.48 1836.6 1459.79 Q1836.6 1457.11 1834.89 1455.6 Q1833.2 1454.1 1830.19 1454.1 Q1827.16 1454.1 1825.47 1455.6 Q1823.8 1457.11 1823.8 1459.79 Z" fill="#000000" fill-rule="nonzero" fill-opacity="1" /><path clip-path="url(#clip110)" d="M2265.29 1481.64 L2272.93 1481.64 L2272.93 1455.28 L2264.62 1456.95 L2264.62 1452.69 L2272.88 1451.02 L2277.56 1451.02 L2277.56 1481.64 L2285.2 1481.64 L2285.2 1485.58 L2265.29 1485.58 L2265.29 1481.64 Z" fill="#000000" fill-rule="nonzero" fill-opacity="1" /><path clip-path="url(#clip110)" d="M2304.64 1454.1 Q2301.03 1454.1 2299.2 1457.66 Q2297.39 1461.2 2297.39 1468.33 Q2297.39 1475.44 2299.2 1479.01 Q2301.03 1482.55 2304.64 1482.55 Q2308.27 1482.55 2310.08 1479.01 Q2311.91 1475.44 2311.91 1468.33 Q2311.91 1461.2 2310.08 1457.66 Q2308.27 1454.1 2304.64 1454.1 M2304.64 1450.39 Q2310.45 1450.39 2313.51 1455 Q2316.58 1459.58 2316.58 1468.33 Q2316.58 1477.06 2313.51 1481.67 Q2310.45 1486.25 2304.64 1486.25 Q2298.83 1486.25 2295.75 1481.67 Q2292.7 1477.06 2292.7 1468.33 Q2292.7 1459.58 2295.75 1455 Q2298.83 1450.39 2304.64 1450.39 Z" fill="#000000" fill-rule="nonzero" fill-opacity="1" /><path clip-path="url(#clip110)" d="M1174.87 1548.76 L1174.87 1551.62 L1147.94 1551.62 Q1148.32 1557.67 1151.57 1560.85 Q1154.85 1564 1160.67 1564 Q1164.05 1564 1167.2 1563.17 Q1170.38 1562.35 1173.5 1560.69 L1173.5 1566.23 Q1170.35 1567.57 1167.04 1568.27 Q1163.73 1568.97 1160.32 1568.97 Q1151.79 1568.97 1146.79 1564 Q1141.83 1559.04 1141.83 1550.57 Q1141.83 1541.82 1146.54 1536.69 Q1151.28 1531.54 1159.3 1531.54 Q1166.5 1531.54 1170.67 1536.18 Q1174.87 1540.8 1174.87 1548.76 M1169.01 1547.04 Q1168.95 1542.23 1166.31 1539.37 Q1163.7 1536.5 1159.37 1536.5 Q1154.46 1536.5 1151.5 1539.27 Q1148.58 1542.04 1148.13 1547.07 L1169.01 1547.04 Z" fill="#000000" fill-rule="nonzero" fill-opacity="1" /><path clip-path="url(#clip110)" d="M1190.14 1562.7 L1190.14 1581.6 L1184.26 1581.6 L1184.26 1532.4 L1190.14 1532.4 L1190.14 1537.81 Q1191.99 1534.62 1194.79 1533.1 Q1197.62 1531.54 1201.54 1531.54 Q1208.03 1531.54 1212.07 1536.69 Q1216.15 1541.85 1216.15 1550.25 Q1216.15 1558.65 1212.07 1563.81 Q1208.03 1568.97 1201.54 1568.97 Q1197.62 1568.97 1194.79 1567.44 Q1191.99 1565.88 1190.14 1562.7 M1210.07 1550.25 Q1210.07 1543.79 1207.4 1540.13 Q1204.75 1536.44 1200.11 1536.44 Q1195.46 1536.44 1192.79 1540.13 Q1190.14 1543.79 1190.14 1550.25 Q1190.14 1556.71 1192.79 1560.4 Q1195.46 1564.07 1200.11 1564.07 Q1204.75 1564.07 1207.4 1560.4 Q1210.07 1556.71 1210.07 1550.25 Z" fill="#000000" fill-rule="nonzero" fill-opacity="1" /><path clip-path="url(#clip110)" d="M1239.67 1536.5 Q1234.96 1536.5 1232.22 1540.19 Q1229.48 1543.85 1229.48 1550.25 Q1229.48 1556.65 1232.19 1560.34 Q1234.93 1564 1239.67 1564 Q1244.35 1564 1247.09 1560.31 Q1249.82 1556.62 1249.82 1550.25 Q1249.82 1543.92 1247.09 1540.23 Q1244.35 1536.5 1239.67 1536.5 M1239.67 1531.54 Q1247.31 1531.54 1251.67 1536.5 Q1256.03 1541.47 1256.03 1550.25 Q1256.03 1559 1251.67 1564 Q1247.31 1568.97 1239.67 1568.97 Q1232 1568.97 1227.64 1564 Q1223.31 1559 1223.31 1550.25 Q1223.31 1541.47 1227.64 1536.5 Q1232 1531.54 1239.67 1531.54 Z" fill="#000000" fill-rule="nonzero" fill-opacity="1" /><path clip-path="url(#clip110)" d="M1291.39 1533.76 L1291.39 1539.24 Q1288.91 1537.87 1286.39 1537.2 Q1283.91 1536.5 1281.37 1536.5 Q1275.67 1536.5 1272.52 1540.13 Q1269.37 1543.73 1269.37 1550.25 Q1269.37 1556.78 1272.52 1560.4 Q1275.67 1564 1281.37 1564 Q1283.91 1564 1286.39 1563.33 Q1288.91 1562.63 1291.39 1561.26 L1291.39 1566.68 Q1288.94 1567.82 1286.3 1568.39 Q1283.69 1568.97 1280.73 1568.97 Q1272.68 1568.97 1267.93 1563.91 Q1263.19 1558.85 1263.19 1550.25 Q1263.19 1541.53 1267.97 1536.53 Q1272.77 1531.54 1281.11 1531.54 Q1283.82 1531.54 1286.39 1532.11 Q1288.97 1532.65 1291.39 1533.76 Z" fill="#000000" fill-rule="nonzero" fill-opacity="1" /><path clip-path="url(#clip110)" d="M1331.21 1546.53 L1331.21 1568.04 L1325.35 1568.04 L1325.35 1546.72 Q1325.35 1541.66 1323.38 1539.14 Q1321.41 1536.63 1317.46 1536.63 Q1312.72 1536.63 1309.98 1539.65 Q1307.24 1542.68 1307.24 1547.9 L1307.24 1568.04 L1301.35 1568.04 L1301.35 1518.52 L1307.24 1518.52 L1307.24 1537.93 Q1309.34 1534.72 1312.18 1533.13 Q1315.04 1531.54 1318.76 1531.54 Q1324.91 1531.54 1328.06 1535.36 Q1331.21 1539.14 1331.21 1546.53 Z" fill="#000000" fill-rule="nonzero" fill-opacity="1" /><path clip-path="url(#clip110)" d="M1365.62 1533.45 L1365.62 1538.98 Q1363.13 1537.71 1360.46 1537.07 Q1357.79 1536.44 1354.92 1536.44 Q1350.56 1536.44 1348.36 1537.77 Q1346.2 1539.11 1346.2 1541.79 Q1346.2 1543.82 1347.76 1545 Q1349.32 1546.15 1354.03 1547.2 L1356.04 1547.64 Q1362.27 1548.98 1364.88 1551.43 Q1367.53 1553.85 1367.53 1558.21 Q1367.53 1563.17 1363.58 1566.07 Q1359.66 1568.97 1352.79 1568.97 Q1349.92 1568.97 1346.8 1568.39 Q1343.72 1567.85 1340.28 1566.74 L1340.28 1560.69 Q1343.53 1562.38 1346.68 1563.24 Q1349.83 1564.07 1352.92 1564.07 Q1357.05 1564.07 1359.28 1562.66 Q1361.51 1561.23 1361.51 1558.65 Q1361.51 1556.27 1359.89 1554.99 Q1358.29 1553.72 1352.85 1552.54 L1350.82 1552.07 Q1345.37 1550.92 1342.95 1548.56 Q1340.53 1546.18 1340.53 1542.04 Q1340.53 1537.01 1344.1 1534.27 Q1347.66 1531.54 1354.22 1531.54 Q1357.47 1531.54 1360.33 1532.01 Q1363.2 1532.49 1365.62 1533.45 Z" fill="#000000" fill-rule="nonzero" fill-opacity="1" /><polyline clip-path="url(#clip110)" style="stroke:#000000; stroke-linecap:round; stroke-linejoin:round; stroke-width:4; stroke-opacity:1; fill:none" points="156.598,1423.18 156.598,47.2441 "/>
<polyline clip-path="url(#clip110)" style="stroke:#000000; stroke-linecap:round; stroke-linejoin:round; stroke-width:4; stroke-opacity:1; fill:none" points="156.598,1229.26 175.496,1229.26 "/>
<polyline clip-path="url(#clip110)" style="stroke:#000000; stroke-linecap:round; stroke-linejoin:round; stroke-width:4; stroke-opacity:1; fill:none" points="156.598,1031.21 175.496,1031.21 "/>
<polyline clip-path="url(#clip110)" style="stroke:#000000; stroke-linecap:round; stroke-linejoin:round; stroke-width:4; stroke-opacity:1; fill:none" points="156.598,833.167 175.496,833.167 "/>
<polyline clip-path="url(#clip110)" style="stroke:#000000; stroke-linecap:round; stroke-linejoin:round; stroke-width:4; stroke-opacity:1; fill:none" points="156.598,635.121 175.496,635.121 "/>
<polyline clip-path="url(#clip110)" style="stroke:#000000; stroke-linecap:round; stroke-linejoin:round; stroke-width:4; stroke-opacity:1; fill:none" points="156.598,437.075 175.496,437.075 "/>
<polyline clip-path="url(#clip110)" style="stroke:#000000; stroke-linecap:round; stroke-linejoin:round; stroke-width:4; stroke-opacity:1; fill:none" points="156.598,239.029 175.496,239.029 "/>
<path clip-path="url(#clip110)" d="M64.0708 1215.06 Q60.4597 1215.06 58.631 1218.62 Q56.8254 1222.16 56.8254 1229.29 Q56.8254 1236.4 58.631 1239.97 Q60.4597 1243.51 64.0708 1243.51 Q67.705 1243.51 69.5105 1239.97 Q71.3392 1236.4 71.3392 1229.29 Q71.3392 1222.16 69.5105 1218.62 Q67.705 1215.06 64.0708 1215.06 M64.0708 1211.35 Q69.8809 1211.35 72.9365 1215.96 Q76.0151 1220.54 76.0151 1229.29 Q76.0151 1238.02 72.9365 1242.63 Q69.8809 1247.21 64.0708 1247.21 Q58.2606 1247.21 55.1819 1242.63 Q52.1264 1238.02 52.1264 1229.29 Q52.1264 1220.54 55.1819 1215.96 Q58.2606 1211.35 64.0708 1211.35 Z" fill="#000000" fill-rule="nonzero" fill-opacity="1" /><path clip-path="url(#clip110)" d="M84.2327 1240.66 L89.1169 1240.66 L89.1169 1246.54 L84.2327 1246.54 L84.2327 1240.66 Z" fill="#000000" fill-rule="nonzero" fill-opacity="1" /><path clip-path="url(#clip110)" d="M113.469 1227.91 Q116.825 1228.62 118.7 1230.89 Q120.598 1233.16 120.598 1236.49 Q120.598 1241.61 117.08 1244.41 Q113.561 1247.21 107.08 1247.21 Q104.904 1247.21 102.589 1246.77 Q100.297 1246.35 97.8437 1245.5 L97.8437 1240.98 Q99.7882 1242.12 102.103 1242.7 Q104.418 1243.28 106.941 1243.28 Q111.339 1243.28 113.631 1241.54 Q115.945 1239.8 115.945 1236.49 Q115.945 1233.44 113.793 1231.72 Q111.663 1229.99 107.844 1229.99 L103.816 1229.99 L103.816 1226.15 L108.029 1226.15 Q111.478 1226.15 113.307 1224.78 Q115.135 1223.39 115.135 1220.8 Q115.135 1218.14 113.237 1216.72 Q111.362 1215.29 107.844 1215.29 Q105.922 1215.29 103.723 1215.71 Q101.524 1216.12 98.8854 1217 L98.8854 1212.84 Q101.547 1212.1 103.862 1211.72 Q106.2 1211.35 108.26 1211.35 Q113.584 1211.35 116.686 1213.78 Q119.788 1216.19 119.788 1220.31 Q119.788 1223.18 118.145 1225.17 Q116.501 1227.14 113.469 1227.91 Z" fill="#000000" fill-rule="nonzero" fill-opacity="1" /><path clip-path="url(#clip110)" d="M62.9365 1017.01 Q59.3254 1017.01 57.4967 1020.58 Q55.6912 1024.12 55.6912 1031.25 Q55.6912 1038.35 57.4967 1041.92 Q59.3254 1045.46 62.9365 1045.46 Q66.5707 1045.46 68.3763 1041.92 Q70.205 1038.35 70.205 1031.25 Q70.205 1024.12 68.3763 1020.58 Q66.5707 1017.01 62.9365 1017.01 M62.9365 1013.31 Q68.7467 1013.31 71.8022 1017.91 Q74.8809 1022.5 74.8809 1031.25 Q74.8809 1039.97 71.8022 1044.58 Q68.7467 1049.16 62.9365 1049.16 Q57.1264 1049.16 54.0477 1044.58 Q50.9921 1039.97 50.9921 1031.25 Q50.9921 1022.5 54.0477 1017.91 Q57.1264 1013.31 62.9365 1013.31 Z" fill="#000000" fill-rule="nonzero" fill-opacity="1" /><path clip-path="url(#clip110)" d="M83.0984 1042.61 L87.9827 1042.61 L87.9827 1048.49 L83.0984 1048.49 L83.0984 1042.61 Z" fill="#000000" fill-rule="nonzero" fill-opacity="1" /><path clip-path="url(#clip110)" d="M111.015 1018.01 L99.2095 1036.46 L111.015 1036.46 L111.015 1018.01 M109.788 1013.93 L115.668 1013.93 L115.668 1036.46 L120.598 1036.46 L120.598 1040.35 L115.668 1040.35 L115.668 1048.49 L111.015 1048.49 L111.015 1040.35 L95.4132 1040.35 L95.4132 1035.83 L109.788 1013.93 Z" fill="#000000" fill-rule="nonzero" fill-opacity="1" /><path clip-path="url(#clip110)" d="M64.418 818.966 Q60.8069 818.966 58.9782 822.531 Q57.1726 826.072 57.1726 833.202 Q57.1726 840.308 58.9782 843.873 Q60.8069 847.415 64.418 847.415 Q68.0522 847.415 69.8578 843.873 Q71.6865 840.308 71.6865 833.202 Q71.6865 826.072 69.8578 822.531 Q68.0522 818.966 64.418 818.966 M64.418 815.262 Q70.2281 815.262 73.2837 819.869 Q76.3624 824.452 76.3624 833.202 Q76.3624 841.929 73.2837 846.535 Q70.2281 851.118 64.418 851.118 Q58.6078 851.118 55.5291 846.535 Q52.4736 841.929 52.4736 833.202 Q52.4736 824.452 55.5291 819.869 Q58.6078 815.262 64.418 815.262 Z" fill="#000000" fill-rule="nonzero" fill-opacity="1" /><path clip-path="url(#clip110)" d="M84.5799 844.568 L89.4641 844.568 L89.4641 850.447 L84.5799 850.447 L84.5799 844.568 Z" fill="#000000" fill-rule="nonzero" fill-opacity="1" /><path clip-path="url(#clip110)" d="M99.6956 815.887 L118.052 815.887 L118.052 819.822 L103.978 819.822 L103.978 828.295 Q104.996 827.947 106.015 827.785 Q107.033 827.6 108.052 827.6 Q113.839 827.6 117.219 830.771 Q120.598 833.943 120.598 839.359 Q120.598 844.938 117.126 848.04 Q113.654 851.118 107.334 851.118 Q105.159 851.118 102.89 850.748 Q100.645 850.378 98.2372 849.637 L98.2372 844.938 Q100.321 846.072 102.543 846.628 Q104.765 847.183 107.242 847.183 Q111.246 847.183 113.584 845.077 Q115.922 842.97 115.922 839.359 Q115.922 835.748 113.584 833.642 Q111.246 831.535 107.242 831.535 Q105.367 831.535 103.492 831.952 Q101.64 832.369 99.6956 833.248 L99.6956 815.887 Z" fill="#000000" fill-rule="nonzero" fill-opacity="1" /><path clip-path="url(#clip110)" d="M63.2606 620.92 Q59.6495 620.92 57.8208 624.485 Q56.0152 628.026 56.0152 635.156 Q56.0152 642.262 57.8208 645.827 Q59.6495 649.369 63.2606 649.369 Q66.8948 649.369 68.7004 645.827 Q70.5291 642.262 70.5291 635.156 Q70.5291 628.026 68.7004 624.485 Q66.8948 620.92 63.2606 620.92 M63.2606 617.216 Q69.0707 617.216 72.1263 621.823 Q75.205 626.406 75.205 635.156 Q75.205 643.883 72.1263 648.489 Q69.0707 653.072 63.2606 653.072 Q57.4504 653.072 54.3717 648.489 Q51.3162 643.883 51.3162 635.156 Q51.3162 626.406 54.3717 621.823 Q57.4504 617.216 63.2606 617.216 Z" fill="#000000" fill-rule="nonzero" fill-opacity="1" /><path clip-path="url(#clip110)" d="M83.4225 646.522 L88.3067 646.522 L88.3067 652.401 L83.4225 652.401 L83.4225 646.522 Z" fill="#000000" fill-rule="nonzero" fill-opacity="1" /><path clip-path="url(#clip110)" d="M109.071 633.258 Q105.922 633.258 104.071 635.41 Q102.242 637.563 102.242 641.313 Q102.242 645.04 104.071 647.216 Q105.922 649.369 109.071 649.369 Q112.219 649.369 114.047 647.216 Q115.899 645.04 115.899 641.313 Q115.899 637.563 114.047 635.41 Q112.219 633.258 109.071 633.258 M118.353 618.605 L118.353 622.864 Q116.594 622.031 114.788 621.591 Q113.006 621.151 111.246 621.151 Q106.617 621.151 104.163 624.276 Q101.733 627.401 101.385 633.721 Q102.751 631.707 104.811 630.642 Q106.871 629.554 109.348 629.554 Q114.557 629.554 117.566 632.725 Q120.598 635.873 120.598 641.313 Q120.598 646.637 117.45 649.855 Q114.302 653.072 109.071 653.072 Q103.075 653.072 99.9039 648.489 Q96.7326 643.883 96.7326 635.156 Q96.7326 626.961 100.621 622.1 Q104.51 617.216 111.061 617.216 Q112.82 617.216 114.603 617.563 Q116.408 617.911 118.353 618.605 Z" fill="#000000" fill-rule="nonzero" fill-opacity="1" /><path clip-path="url(#clip110)" d="M64.3254 422.874 Q60.7143 422.874 58.8856 426.439 Q57.0801 429.98 57.0801 437.11 Q57.0801 444.216 58.8856 447.781 Q60.7143 451.323 64.3254 451.323 Q67.9596 451.323 69.7652 447.781 Q71.5939 444.216 71.5939 437.11 Q71.5939 429.98 69.7652 426.439 Q67.9596 422.874 64.3254 422.874 M64.3254 419.17 Q70.1355 419.17 73.1911 423.777 Q76.2698 428.36 76.2698 437.11 Q76.2698 445.837 73.1911 450.443 Q70.1355 455.026 64.3254 455.026 Q58.5152 455.026 55.4365 450.443 Q52.381 445.837 52.381 437.11 Q52.381 428.36 55.4365 423.777 Q58.5152 419.17 64.3254 419.17 Z" fill="#000000" fill-rule="nonzero" fill-opacity="1" /><path clip-path="url(#clip110)" d="M84.4873 448.475 L89.3715 448.475 L89.3715 454.355 L84.4873 454.355 L84.4873 448.475 Z" fill="#000000" fill-rule="nonzero" fill-opacity="1" /><path clip-path="url(#clip110)" d="M98.3761 419.795 L120.598 419.795 L120.598 421.786 L108.052 454.355 L103.168 454.355 L114.973 423.73 L98.3761 423.73 L98.3761 419.795 Z" fill="#000000" fill-rule="nonzero" fill-opacity="1" /><path clip-path="url(#clip110)" d="M63.5152 224.828 Q59.9041 224.828 58.0754 228.392 Q56.2699 231.934 56.2699 239.064 Q56.2699 246.17 58.0754 249.735 Q59.9041 253.277 63.5152 253.277 Q67.1494 253.277 68.955 249.735 Q70.7837 246.17 70.7837 239.064 Q70.7837 231.934 68.955 228.392 Q67.1494 224.828 63.5152 224.828 M63.5152 221.124 Q69.3254 221.124 72.3809 225.73 Q75.4596 230.314 75.4596 239.064 Q75.4596 247.791 72.3809 252.397 Q69.3254 256.98 63.5152 256.98 Q57.7051 256.98 54.6264 252.397 Q51.5708 247.791 51.5708 239.064 Q51.5708 230.314 54.6264 225.73 Q57.7051 221.124 63.5152 221.124 Z" fill="#000000" fill-rule="nonzero" fill-opacity="1" /><path clip-path="url(#clip110)" d="M83.6771 250.429 L88.5614 250.429 L88.5614 256.309 L83.6771 256.309 L83.6771 250.429 Z" fill="#000000" fill-rule="nonzero" fill-opacity="1" /><path clip-path="url(#clip110)" d="M108.746 239.897 Q105.413 239.897 103.492 241.679 Q101.594 243.462 101.594 246.587 Q101.594 249.712 103.492 251.494 Q105.413 253.277 108.746 253.277 Q112.08 253.277 114.001 251.494 Q115.922 249.689 115.922 246.587 Q115.922 243.462 114.001 241.679 Q112.103 239.897 108.746 239.897 M104.071 237.906 Q101.061 237.166 99.3715 235.105 Q97.7048 233.045 97.7048 230.082 Q97.7048 225.939 100.645 223.531 Q103.608 221.124 108.746 221.124 Q113.908 221.124 116.848 223.531 Q119.788 225.939 119.788 230.082 Q119.788 233.045 118.098 235.105 Q116.432 237.166 113.445 237.906 Q116.825 238.693 118.7 240.985 Q120.598 243.277 120.598 246.587 Q120.598 251.61 117.52 254.295 Q114.464 256.98 108.746 256.98 Q103.029 256.98 99.9502 254.295 Q96.8947 251.61 96.8947 246.587 Q96.8947 243.277 98.7928 240.985 Q100.691 238.693 104.071 237.906 M102.358 230.522 Q102.358 233.207 104.024 234.712 Q105.714 236.216 108.746 236.216 Q111.756 236.216 113.445 234.712 Q115.158 233.207 115.158 230.522 Q115.158 227.837 113.445 226.332 Q111.756 224.828 108.746 224.828 Q105.714 224.828 104.024 226.332 Q102.358 227.837 102.358 230.522 Z" fill="#000000" fill-rule="nonzero" fill-opacity="1" /><polyline clip-path="url(#clip112)" style="stroke:#009af9; stroke-linecap:round; stroke-linejoin:round; stroke-width:4; stroke-opacity:1; fill:none" points="218.754,402.236 448.959,982.488 679.164,1133.16 909.369,1209.66 1139.57,1260.64 1369.78,1292.11 1599.98,1324.46 1830.19,1346.25 2060.4,1366.18 2290.6,1384.24 "/>
<polyline clip-path="url(#clip112)" style="stroke:#e26f46; stroke-linecap:round; stroke-linejoin:round; stroke-width:4; stroke-opacity:1; fill:none" points="218.754,676.094 448.959,854.158 679.164,962.205 909.369,1010.61 1139.57,1013.26 1369.78,1088.35 1599.98,1061.32 1830.19,1099.94 2060.4,1137.48 2290.6,1119.04 "/>
<polyline clip-path="url(#clip112)" style="stroke:#3da44d; stroke-linecap:round; stroke-linejoin:round; stroke-width:4; stroke-opacity:1; fill:none" points="218.754,241.301 448.959,179.607 679.164,146.117 909.369,128.882 1139.57,126.727 1369.78,104.988 1599.98,117.326 1830.19,100.091 2060.4,86.1857 2290.6,100.679 "/>
<path clip-path="url(#clip110)" d="M229.803 1377.32 L671.455 1377.32 L671.455 1169.96 L229.803 1169.96  Z" fill="#ffffff" fill-rule="evenodd" fill-opacity="1"/>
<polyline clip-path="url(#clip110)" style="stroke:#000000; stroke-linecap:round; stroke-linejoin:round; stroke-width:4; stroke-opacity:1; fill:none" points="229.803,1377.32 671.455,1377.32 671.455,1169.96 229.803,1169.96 229.803,1377.32 "/>
<polyline clip-path="url(#clip110)" style="stroke:#009af9; stroke-linecap:round; stroke-linejoin:round; stroke-width:4; stroke-opacity:1; fill:none" points="254.205,1221.8 400.616,1221.8 "/>
<path clip-path="url(#clip110)" d="M432.425 1205.79 L432.425 1213.15 L441.198 1213.15 L441.198 1216.46 L432.425 1216.46 L432.425 1230.53 Q432.425 1233.7 433.281 1234.61 Q434.161 1235.51 436.823 1235.51 L441.198 1235.51 L441.198 1239.08 L436.823 1239.08 Q431.892 1239.08 430.017 1237.25 Q428.142 1235.39 428.142 1230.53 L428.142 1216.46 L425.018 1216.46 L425.018 1213.15 L428.142 1213.15 L428.142 1205.79 L432.425 1205.79 Z" fill="#000000" fill-rule="nonzero" fill-opacity="1" /><path clip-path="url(#clip110)" d="M461.823 1217.13 Q461.105 1216.71 460.249 1216.53 Q459.415 1216.32 458.397 1216.32 Q454.786 1216.32 452.841 1218.68 Q450.92 1221.02 450.92 1225.42 L450.92 1239.08 L446.638 1239.08 L446.638 1213.15 L450.92 1213.15 L450.92 1217.18 Q452.263 1214.82 454.415 1213.68 Q456.568 1212.52 459.647 1212.52 Q460.087 1212.52 460.619 1212.59 Q461.152 1212.64 461.8 1212.76 L461.823 1217.13 Z" fill="#000000" fill-rule="nonzero" fill-opacity="1" /><path clip-path="url(#clip110)" d="M478.073 1226.04 Q472.911 1226.04 470.92 1227.22 Q468.929 1228.4 468.929 1231.25 Q468.929 1233.52 470.411 1234.86 Q471.915 1236.18 474.485 1236.18 Q478.026 1236.18 480.156 1233.68 Q482.309 1231.16 482.309 1226.99 L482.309 1226.04 L478.073 1226.04 M486.568 1224.28 L486.568 1239.08 L482.309 1239.08 L482.309 1235.14 Q480.851 1237.5 478.675 1238.64 Q476.499 1239.75 473.351 1239.75 Q469.369 1239.75 467.008 1237.52 Q464.67 1235.28 464.67 1231.53 Q464.67 1227.15 467.587 1224.93 Q470.527 1222.71 476.337 1222.71 L482.309 1222.71 L482.309 1222.29 Q482.309 1219.35 480.364 1217.76 Q478.443 1216.14 474.948 1216.14 Q472.726 1216.14 470.619 1216.67 Q468.513 1217.2 466.568 1218.27 L466.568 1214.33 Q468.906 1213.43 471.105 1212.99 Q473.304 1212.52 475.388 1212.52 Q481.013 1212.52 483.79 1215.44 Q486.568 1218.36 486.568 1224.28 Z" fill="#000000" fill-rule="nonzero" fill-opacity="1" /><path clip-path="url(#clip110)" d="M495.341 1213.15 L499.6 1213.15 L499.6 1239.08 L495.341 1239.08 L495.341 1213.15 M495.341 1203.06 L499.6 1203.06 L499.6 1208.45 L495.341 1208.45 L495.341 1203.06 Z" fill="#000000" fill-rule="nonzero" fill-opacity="1" /><path clip-path="url(#clip110)" d="M530.063 1223.43 L530.063 1239.08 L525.804 1239.08 L525.804 1223.57 Q525.804 1219.89 524.369 1218.06 Q522.934 1216.23 520.063 1216.23 Q516.614 1216.23 514.624 1218.43 Q512.633 1220.63 512.633 1224.42 L512.633 1239.08 L508.35 1239.08 L508.35 1213.15 L512.633 1213.15 L512.633 1217.18 Q514.161 1214.84 516.221 1213.68 Q518.304 1212.52 521.012 1212.52 Q525.48 1212.52 527.772 1215.3 Q530.063 1218.06 530.063 1223.43 Z" fill="#000000" fill-rule="nonzero" fill-opacity="1" /><path clip-path="url(#clip110)" d="M558.258 1246.95 L558.258 1250.26 L533.628 1250.26 L533.628 1246.95 L558.258 1246.95 Z" fill="#000000" fill-rule="nonzero" fill-opacity="1" /><path clip-path="url(#clip110)" d="M562.262 1203.06 L566.521 1203.06 L566.521 1239.08 L562.262 1239.08 L562.262 1203.06 Z" fill="#000000" fill-rule="nonzero" fill-opacity="1" /><path clip-path="url(#clip110)" d="M585.48 1216.14 Q582.054 1216.14 580.063 1218.82 Q578.072 1221.48 578.072 1226.14 Q578.072 1230.79 580.04 1233.47 Q582.031 1236.14 585.48 1236.14 Q588.882 1236.14 590.873 1233.45 Q592.864 1230.77 592.864 1226.14 Q592.864 1221.53 590.873 1218.84 Q588.882 1216.14 585.48 1216.14 M585.48 1212.52 Q591.035 1212.52 594.206 1216.14 Q597.378 1219.75 597.378 1226.14 Q597.378 1232.5 594.206 1236.14 Q591.035 1239.75 585.48 1239.75 Q579.901 1239.75 576.73 1236.14 Q573.582 1232.5 573.582 1226.14 Q573.582 1219.75 576.73 1216.14 Q579.901 1212.52 585.48 1212.52 Z" fill="#000000" fill-rule="nonzero" fill-opacity="1" /><path clip-path="url(#clip110)" d="M620.966 1213.91 L620.966 1217.94 Q619.16 1217.02 617.216 1216.55 Q615.271 1216.09 613.188 1216.09 Q610.017 1216.09 608.419 1217.06 Q606.845 1218.03 606.845 1219.98 Q606.845 1221.46 607.979 1222.32 Q609.114 1223.15 612.54 1223.91 L613.998 1224.24 Q618.535 1225.21 620.433 1226.99 Q622.354 1228.75 622.354 1231.92 Q622.354 1235.53 619.484 1237.64 Q616.637 1239.75 611.637 1239.75 Q609.554 1239.75 607.285 1239.33 Q605.04 1238.94 602.54 1238.13 L602.54 1233.73 Q604.901 1234.95 607.192 1235.58 Q609.484 1236.18 611.729 1236.18 Q614.739 1236.18 616.359 1235.16 Q617.979 1234.12 617.979 1232.25 Q617.979 1230.51 616.799 1229.58 Q615.641 1228.66 611.683 1227.8 L610.202 1227.46 Q606.243 1226.62 604.484 1224.91 Q602.725 1223.17 602.725 1220.16 Q602.725 1216.51 605.317 1214.52 Q607.91 1212.52 612.679 1212.52 Q615.04 1212.52 617.123 1212.87 Q619.206 1213.22 620.966 1213.91 Z" fill="#000000" fill-rule="nonzero" fill-opacity="1" /><path clip-path="url(#clip110)" d="M645.664 1213.91 L645.664 1217.94 Q643.859 1217.02 641.914 1216.55 Q639.97 1216.09 637.887 1216.09 Q634.715 1216.09 633.118 1217.06 Q631.544 1218.03 631.544 1219.98 Q631.544 1221.46 632.678 1222.32 Q633.813 1223.15 637.239 1223.91 L638.697 1224.24 Q643.234 1225.21 645.132 1226.99 Q647.053 1228.75 647.053 1231.92 Q647.053 1235.53 644.183 1237.64 Q641.336 1239.75 636.336 1239.75 Q634.252 1239.75 631.984 1239.33 Q629.739 1238.94 627.239 1238.13 L627.239 1233.73 Q629.6 1234.95 631.891 1235.58 Q634.183 1236.18 636.428 1236.18 Q639.438 1236.18 641.058 1235.16 Q642.678 1234.12 642.678 1232.25 Q642.678 1230.51 641.498 1229.58 Q640.34 1228.66 636.382 1227.8 L634.901 1227.46 Q630.942 1226.62 629.183 1224.91 Q627.424 1223.17 627.424 1220.16 Q627.424 1216.51 630.016 1214.52 Q632.609 1212.52 637.377 1212.52 Q639.739 1212.52 641.822 1212.87 Q643.905 1213.22 645.664 1213.91 Z" fill="#000000" fill-rule="nonzero" fill-opacity="1" /><polyline clip-path="url(#clip110)" style="stroke:#e26f46; stroke-linecap:round; stroke-linejoin:round; stroke-width:4; stroke-opacity:1; fill:none" points="254.205,1273.64 400.616,1273.64 "/>
<path clip-path="url(#clip110)" d="M425.018 1264.99 L429.531 1264.99 L437.633 1286.75 L445.735 1264.99 L450.249 1264.99 L440.527 1290.92 L434.74 1290.92 L425.018 1264.99 Z" fill="#000000" fill-rule="nonzero" fill-opacity="1" /><path clip-path="url(#clip110)" d="M467.911 1277.88 Q462.749 1277.88 460.758 1279.06 Q458.767 1280.24 458.767 1283.09 Q458.767 1285.36 460.249 1286.7 Q461.753 1288.02 464.323 1288.02 Q467.864 1288.02 469.994 1285.52 Q472.147 1283 472.147 1278.83 L472.147 1277.88 L467.911 1277.88 M476.406 1276.12 L476.406 1290.92 L472.147 1290.92 L472.147 1286.98 Q470.689 1289.34 468.513 1290.48 Q466.337 1291.59 463.189 1291.59 Q459.207 1291.59 456.846 1289.36 Q454.508 1287.12 454.508 1283.37 Q454.508 1278.99 457.425 1276.77 Q460.365 1274.55 466.175 1274.55 L472.147 1274.55 L472.147 1274.13 Q472.147 1271.19 470.202 1269.6 Q468.281 1267.98 464.786 1267.98 Q462.564 1267.98 460.457 1268.51 Q458.351 1269.04 456.406 1270.11 L456.406 1266.17 Q458.744 1265.27 460.943 1264.83 Q463.142 1264.36 465.226 1264.36 Q470.851 1264.36 473.628 1267.28 Q476.406 1270.2 476.406 1276.12 Z" fill="#000000" fill-rule="nonzero" fill-opacity="1" /><path clip-path="url(#clip110)" d="M485.179 1254.9 L489.438 1254.9 L489.438 1290.92 L485.179 1290.92 L485.179 1254.9 Z" fill="#000000" fill-rule="nonzero" fill-opacity="1" /><path clip-path="url(#clip110)" d="M518.049 1298.79 L518.049 1302.1 L493.42 1302.1 L493.42 1298.79 L518.049 1298.79 Z" fill="#000000" fill-rule="nonzero" fill-opacity="1" /><path clip-path="url(#clip110)" d="M522.054 1254.9 L526.313 1254.9 L526.313 1290.92 L522.054 1290.92 L522.054 1254.9 Z" fill="#000000" fill-rule="nonzero" fill-opacity="1" /><path clip-path="url(#clip110)" d="M545.271 1267.98 Q541.846 1267.98 539.855 1270.66 Q537.864 1273.32 537.864 1277.98 Q537.864 1282.63 539.832 1285.31 Q541.822 1287.98 545.271 1287.98 Q548.674 1287.98 550.665 1285.29 Q552.656 1282.61 552.656 1277.98 Q552.656 1273.37 550.665 1270.68 Q548.674 1267.98 545.271 1267.98 M545.271 1264.36 Q550.827 1264.36 553.998 1267.98 Q557.17 1271.59 557.17 1277.98 Q557.17 1284.34 553.998 1287.98 Q550.827 1291.59 545.271 1291.59 Q539.693 1291.59 536.522 1287.98 Q533.373 1284.34 533.373 1277.98 Q533.373 1271.59 536.522 1267.98 Q539.693 1264.36 545.271 1264.36 Z" fill="#000000" fill-rule="nonzero" fill-opacity="1" /><path clip-path="url(#clip110)" d="M580.757 1265.75 L580.757 1269.78 Q578.952 1268.86 577.007 1268.39 Q575.063 1267.93 572.98 1267.93 Q569.808 1267.93 568.211 1268.9 Q566.637 1269.87 566.637 1271.82 Q566.637 1273.3 567.771 1274.16 Q568.906 1274.99 572.332 1275.75 L573.79 1276.08 Q578.327 1277.05 580.225 1278.83 Q582.146 1280.59 582.146 1283.76 Q582.146 1287.37 579.276 1289.48 Q576.429 1291.59 571.429 1291.59 Q569.345 1291.59 567.077 1291.17 Q564.832 1290.78 562.332 1289.97 L562.332 1285.57 Q564.693 1286.79 566.984 1287.42 Q569.276 1288.02 571.521 1288.02 Q574.531 1288.02 576.151 1287 Q577.771 1285.96 577.771 1284.09 Q577.771 1282.35 576.591 1281.42 Q575.433 1280.5 571.475 1279.64 L569.994 1279.3 Q566.035 1278.46 564.276 1276.75 Q562.517 1275.01 562.517 1272 Q562.517 1268.35 565.109 1266.36 Q567.702 1264.36 572.47 1264.36 Q574.832 1264.36 576.915 1264.71 Q578.998 1265.06 580.757 1265.75 Z" fill="#000000" fill-rule="nonzero" fill-opacity="1" /><path clip-path="url(#clip110)" d="M605.456 1265.75 L605.456 1269.78 Q603.651 1268.86 601.706 1268.39 Q599.762 1267.93 597.679 1267.93 Q594.507 1267.93 592.91 1268.9 Q591.336 1269.87 591.336 1271.82 Q591.336 1273.3 592.47 1274.16 Q593.605 1274.99 597.03 1275.75 L598.489 1276.08 Q603.026 1277.05 604.924 1278.83 Q606.845 1280.59 606.845 1283.76 Q606.845 1287.37 603.975 1289.48 Q601.128 1291.59 596.128 1291.59 Q594.044 1291.59 591.776 1291.17 Q589.531 1290.78 587.031 1289.97 L587.031 1285.57 Q589.392 1286.79 591.683 1287.42 Q593.975 1288.02 596.22 1288.02 Q599.23 1288.02 600.85 1287 Q602.47 1285.96 602.47 1284.09 Q602.47 1282.35 601.29 1281.42 Q600.132 1280.5 596.174 1279.64 L594.693 1279.3 Q590.734 1278.46 588.975 1276.75 Q587.216 1275.01 587.216 1272 Q587.216 1268.35 589.808 1266.36 Q592.401 1264.36 597.169 1264.36 Q599.53 1264.36 601.614 1264.71 Q603.697 1265.06 605.456 1265.75 Z" fill="#000000" fill-rule="nonzero" fill-opacity="1" /><polyline clip-path="url(#clip110)" style="stroke:#3da44d; stroke-linecap:round; stroke-linejoin:round; stroke-width:4; stroke-opacity:1; fill:none" points="254.205,1325.48 400.616,1325.48 "/>
<path clip-path="url(#clip110)" d="M425.018 1316.83 L429.531 1316.83 L437.633 1338.59 L445.735 1316.83 L450.249 1316.83 L440.527 1342.76 L434.74 1342.76 L425.018 1316.83 Z" fill="#000000" fill-rule="nonzero" fill-opacity="1" /><path clip-path="url(#clip110)" d="M467.911 1329.72 Q462.749 1329.72 460.758 1330.9 Q458.767 1332.08 458.767 1334.93 Q458.767 1337.2 460.249 1338.54 Q461.753 1339.86 464.323 1339.86 Q467.864 1339.86 469.994 1337.36 Q472.147 1334.84 472.147 1330.67 L472.147 1329.72 L467.911 1329.72 M476.406 1327.96 L476.406 1342.76 L472.147 1342.76 L472.147 1338.82 Q470.689 1341.18 468.513 1342.32 Q466.337 1343.43 463.189 1343.43 Q459.207 1343.43 456.846 1341.2 Q454.508 1338.96 454.508 1335.21 Q454.508 1330.83 457.425 1328.61 Q460.365 1326.39 466.175 1326.39 L472.147 1326.39 L472.147 1325.97 Q472.147 1323.03 470.202 1321.44 Q468.281 1319.82 464.786 1319.82 Q462.564 1319.82 460.457 1320.35 Q458.351 1320.88 456.406 1321.95 L456.406 1318.01 Q458.744 1317.11 460.943 1316.67 Q463.142 1316.2 465.226 1316.2 Q470.851 1316.2 473.628 1319.12 Q476.406 1322.04 476.406 1327.96 Z" fill="#000000" fill-rule="nonzero" fill-opacity="1" /><path clip-path="url(#clip110)" d="M485.179 1306.74 L489.438 1306.74 L489.438 1342.76 L485.179 1342.76 L485.179 1306.74 Z" fill="#000000" fill-rule="nonzero" fill-opacity="1" /><path clip-path="url(#clip110)" d="M518.049 1350.63 L518.049 1353.94 L493.42 1353.94 L493.42 1350.63 L518.049 1350.63 Z" fill="#000000" fill-rule="nonzero" fill-opacity="1" /><path clip-path="url(#clip110)" d="M533.836 1329.72 Q528.674 1329.72 526.684 1330.9 Q524.693 1332.08 524.693 1334.93 Q524.693 1337.2 526.174 1338.54 Q527.679 1339.86 530.248 1339.86 Q533.79 1339.86 535.92 1337.36 Q538.072 1334.84 538.072 1330.67 L538.072 1329.72 L533.836 1329.72 M542.332 1327.96 L542.332 1342.76 L538.072 1342.76 L538.072 1338.82 Q536.614 1341.18 534.438 1342.32 Q532.262 1343.43 529.114 1343.43 Q525.133 1343.43 522.772 1341.2 Q520.434 1338.96 520.434 1335.21 Q520.434 1330.83 523.35 1328.61 Q526.29 1326.39 532.1 1326.39 L538.072 1326.39 L538.072 1325.97 Q538.072 1323.03 536.128 1321.44 Q534.207 1319.82 530.711 1319.82 Q528.489 1319.82 526.383 1320.35 Q524.276 1320.88 522.332 1321.95 L522.332 1318.01 Q524.67 1317.11 526.869 1316.67 Q529.068 1316.2 531.151 1316.2 Q536.776 1316.2 539.554 1319.12 Q542.332 1322.04 542.332 1327.96 Z" fill="#000000" fill-rule="nonzero" fill-opacity="1" /><path clip-path="url(#clip110)" d="M569.762 1317.82 L569.762 1321.81 Q567.957 1320.81 566.128 1320.32 Q564.322 1319.82 562.47 1319.82 Q558.327 1319.82 556.035 1322.45 Q553.744 1325.07 553.744 1329.82 Q553.744 1334.56 556.035 1337.2 Q558.327 1339.82 562.47 1339.82 Q564.322 1339.82 566.128 1339.33 Q567.957 1338.82 569.762 1337.82 L569.762 1341.76 Q567.98 1342.59 566.058 1343.01 Q564.16 1343.43 562.008 1343.43 Q556.151 1343.43 552.702 1339.75 Q549.253 1336.07 549.253 1329.82 Q549.253 1323.47 552.725 1319.84 Q556.221 1316.2 562.285 1316.2 Q564.253 1316.2 566.128 1316.62 Q568.003 1317.01 569.762 1317.82 Z" fill="#000000" fill-rule="nonzero" fill-opacity="1" /><path clip-path="url(#clip110)" d="M595.827 1317.82 L595.827 1321.81 Q594.021 1320.81 592.193 1320.32 Q590.387 1319.82 588.535 1319.82 Q584.392 1319.82 582.1 1322.45 Q579.808 1325.07 579.808 1329.82 Q579.808 1334.56 582.1 1337.2 Q584.392 1339.82 588.535 1339.82 Q590.387 1339.82 592.193 1339.33 Q594.021 1338.82 595.827 1337.82 L595.827 1341.76 Q594.044 1342.59 592.123 1343.01 Q590.225 1343.43 588.072 1343.43 Q582.216 1343.43 578.767 1339.75 Q575.318 1336.07 575.318 1329.82 Q575.318 1323.47 578.79 1319.84 Q582.285 1316.2 588.35 1316.2 Q590.318 1316.2 592.193 1316.62 Q594.068 1317.01 595.827 1317.82 Z" fill="#000000" fill-rule="nonzero" fill-opacity="1" /></svg>
