<?xml version="1.0" encoding="utf-8"?>
<svg xmlns="http://www.w3.org/2000/svg" xmlns:xlink="http://www.w3.org/1999/xlink" width="600" height="400" viewBox="0 0 2400 1600">
<defs>
  <clipPath id="clip550">
    <rect x="0" y="0" width="2400" height="1600"/>
  </clipPath>
</defs>
<path clip-path="url(#clip550)" d="M0 1600 L2400 1600 L2400 0 L0 0  Z" fill="#ffffff" fill-rule="evenodd" fill-opacity="1"/>
<defs>
  <clipPath id="clip551">
    <rect x="480" y="0" width="1681" height="1600"/>
  </clipPath>
</defs>
<path clip-path="url(#clip550)" d="M155.765 1423.18 L2352.76 1423.18 L2352.76 47.2441 L155.765 47.2441  Z" fill="#ffffff" fill-rule="evenodd" fill-opacity="1"/>
<defs>
  <clipPath id="clip552">
    <rect x="155" y="47" width="2198" height="1377"/>
  </clipPath>
</defs>
<polyline clip-path="url(#clip552)" style="stroke:#000000; stroke-linecap:round; stroke-linejoin:round; stroke-width:2; stroke-opacity:0.1; fill:none" points="448.236,1423.18 448.236,47.2441 "/>
<polyline clip-path="url(#clip552)" style="stroke:#000000; stroke-linecap:round; stroke-linejoin:round; stroke-width:2; stroke-opacity:0.1; fill:none" points="908.822,1423.18 908.822,47.2441 "/>
<polyline clip-path="url(#clip552)" style="stroke:#000000; stroke-linecap:round; stroke-linejoin:round; stroke-width:2; stroke-opacity:0.1; fill:none" points="1369.41,1423.18 1369.41,47.2441 "/>
<polyline clip-path="url(#clip552)" style="stroke:#000000; stroke-linecap:round; stroke-linejoin:round; stroke-width:2; stroke-opacity:0.1; fill:none" points="1829.99,1423.18 1829.99,47.2441 "/>
<polyline clip-path="url(#clip552)" style="stroke:#000000; stroke-linecap:round; stroke-linejoin:round; stroke-width:2; stroke-opacity:0.1; fill:none" points="2290.58,1423.18 2290.58,47.2441 "/>
<polyline clip-path="url(#clip552)" style="stroke:#000000; stroke-linecap:round; stroke-linejoin:round; stroke-width:2; stroke-opacity:0.1; fill:none" points="155.765,1150.25 2352.76,1150.25 "/>
<polyline clip-path="url(#clip552)" style="stroke:#000000; stroke-linecap:round; stroke-linejoin:round; stroke-width:2; stroke-opacity:0.1; fill:none" points="155.765,858.061 2352.76,858.061 "/>
<polyline clip-path="url(#clip552)" style="stroke:#000000; stroke-linecap:round; stroke-linejoin:round; stroke-width:2; stroke-opacity:0.1; fill:none" points="155.765,565.876 2352.76,565.876 "/>
<polyline clip-path="url(#clip552)" style="stroke:#000000; stroke-linecap:round; stroke-linejoin:round; stroke-width:2; stroke-opacity:0.1; fill:none" points="155.765,273.69 2352.76,273.69 "/>
<polyline clip-path="url(#clip550)" style="stroke:#000000; stroke-linecap:round; stroke-linejoin:round; stroke-width:4; stroke-opacity:1; fill:none" points="155.765,1423.18 2352.76,1423.18 "/>
<polyline clip-path="url(#clip550)" style="stroke:#000000; stroke-linecap:round; stroke-linejoin:round; stroke-width:4; stroke-opacity:1; fill:none" points="448.236,1423.18 448.236,1404.28 "/>
<polyline clip-path="url(#clip550)" style="stroke:#000000; stroke-linecap:round; stroke-linejoin:round; stroke-width:4; stroke-opacity:1; fill:none" points="908.822,1423.18 908.822,1404.28 "/>
<polyline clip-path="url(#clip550)" style="stroke:#000000; stroke-linecap:round; stroke-linejoin:round; stroke-width:4; stroke-opacity:1; fill:none" points="1369.41,1423.18 1369.41,1404.28 "/>
<polyline clip-path="url(#clip550)" style="stroke:#000000; stroke-linecap:round; stroke-linejoin:round; stroke-width:4; stroke-opacity:1; fill:none" points="1829.99,1423.18 1829.99,1404.28 "/>
<polyline clip-path="url(#clip550)" style="stroke:#000000; stroke-linecap:round; stroke-linejoin:round; stroke-width:4; stroke-opacity:1; fill:none" points="2290.58,1423.18 2290.58,1404.28 "/>
<path clip-path="url(#clip550)" d="M442.889 1481.64 L459.209 1481.64 L459.209 1485.58 L437.264 1485.58 L437.264 1481.64 Q439.926 1478.89 444.51 1474.26 Q449.116 1469.61 450.297 1468.27 Q452.542 1465.74 453.422 1464.01 Q454.324 1462.25 454.324 1460.56 Q454.324 1457.8 452.38 1456.07 Q450.459 1454.33 447.357 1454.33 Q445.158 1454.33 442.704 1455.09 Q440.274 1455.86 437.496 1457.41 L437.496 1452.69 Q440.32 1451.55 442.774 1450.97 Q445.227 1450.39 447.264 1450.39 Q452.635 1450.39 455.829 1453.08 Q459.023 1455.77 459.023 1460.26 Q459.023 1462.39 458.213 1464.31 Q457.426 1466.2 455.32 1468.8 Q454.741 1469.47 451.639 1472.69 Q448.537 1475.88 442.889 1481.64 Z" fill="#000000" fill-rule="nonzero" fill-opacity="1" /><path clip-path="url(#clip550)" d="M911.831 1455.09 L900.025 1473.54 L911.831 1473.54 L911.831 1455.09 M910.604 1451.02 L916.484 1451.02 L916.484 1473.54 L921.414 1473.54 L921.414 1477.43 L916.484 1477.43 L916.484 1485.58 L911.831 1485.58 L911.831 1477.43 L896.229 1477.43 L896.229 1472.92 L910.604 1451.02 Z" fill="#000000" fill-rule="nonzero" fill-opacity="1" /><path clip-path="url(#clip550)" d="M1369.81 1466.44 Q1366.66 1466.44 1364.81 1468.59 Q1362.98 1470.74 1362.98 1474.49 Q1362.98 1478.22 1364.81 1480.39 Q1366.66 1482.55 1369.81 1482.55 Q1372.96 1482.55 1374.79 1480.39 Q1376.64 1478.22 1376.64 1474.49 Q1376.64 1470.74 1374.79 1468.59 Q1372.96 1466.44 1369.81 1466.44 M1379.09 1451.78 L1379.09 1456.04 Q1377.33 1455.21 1375.53 1454.77 Q1373.75 1454.33 1371.99 1454.33 Q1367.36 1454.33 1364.9 1457.45 Q1362.47 1460.58 1362.13 1466.9 Q1363.49 1464.89 1365.55 1463.82 Q1367.61 1462.73 1370.09 1462.73 Q1375.3 1462.73 1378.31 1465.9 Q1381.34 1469.05 1381.34 1474.49 Q1381.34 1479.82 1378.19 1483.03 Q1375.04 1486.25 1369.81 1486.25 Q1363.82 1486.25 1360.65 1481.67 Q1357.47 1477.06 1357.47 1468.33 Q1357.47 1460.14 1361.36 1455.28 Q1365.25 1450.39 1371.8 1450.39 Q1373.56 1450.39 1375.34 1450.74 Q1377.15 1451.09 1379.09 1451.78 Z" fill="#000000" fill-rule="nonzero" fill-opacity="1" /><path clip-path="url(#clip550)" d="M1829.99 1469.17 Q1826.66 1469.17 1824.74 1470.95 Q1822.84 1472.73 1822.84 1475.86 Q1822.84 1478.98 1824.74 1480.77 Q1826.66 1482.55 1829.99 1482.55 Q1833.33 1482.55 1835.25 1480.77 Q1837.17 1478.96 1837.17 1475.86 Q1837.17 1472.73 1835.25 1470.95 Q1833.35 1469.17 1829.99 1469.17 M1825.32 1467.18 Q1822.31 1466.44 1820.62 1464.38 Q1818.95 1462.32 1818.95 1459.35 Q1818.95 1455.21 1821.89 1452.8 Q1824.85 1450.39 1829.99 1450.39 Q1835.15 1450.39 1838.09 1452.8 Q1841.03 1455.21 1841.03 1459.35 Q1841.03 1462.32 1839.34 1464.38 Q1837.68 1466.44 1834.69 1467.18 Q1838.07 1467.96 1839.95 1470.26 Q1841.84 1472.55 1841.84 1475.86 Q1841.84 1480.88 1838.76 1483.57 Q1835.71 1486.25 1829.99 1486.25 Q1824.27 1486.25 1821.2 1483.57 Q1818.14 1480.88 1818.14 1475.86 Q1818.14 1472.55 1820.04 1470.26 Q1821.94 1467.96 1825.32 1467.18 M1823.6 1459.79 Q1823.6 1462.48 1825.27 1463.98 Q1826.96 1465.49 1829.99 1465.49 Q1833 1465.49 1834.69 1463.98 Q1836.4 1462.48 1836.4 1459.79 Q1836.4 1457.11 1834.69 1455.6 Q1833 1454.1 1829.99 1454.1 Q1826.96 1454.1 1825.27 1455.6 Q1823.6 1457.11 1823.6 1459.79 Z" fill="#000000" fill-rule="nonzero" fill-opacity="1" /><path clip-path="url(#clip550)" d="M2265.26 1481.64 L2272.9 1481.64 L2272.9 1455.28 L2264.59 1456.95 L2264.59 1452.69 L2272.86 1451.02 L2277.53 1451.02 L2277.53 1481.64 L2285.17 1481.64 L2285.17 1485.58 L2265.26 1485.58 L2265.26 1481.64 Z" fill="#000000" fill-rule="nonzero" fill-opacity="1" /><path clip-path="url(#clip550)" d="M2304.62 1454.1 Q2301.01 1454.1 2299.18 1457.66 Q2297.37 1461.2 2297.37 1468.33 Q2297.37 1475.44 2299.18 1479.01 Q2301.01 1482.55 2304.62 1482.55 Q2308.25 1482.55 2310.06 1479.01 Q2311.88 1475.44 2311.88 1468.33 Q2311.88 1461.2 2310.06 1457.66 Q2308.25 1454.1 2304.62 1454.1 M2304.62 1450.39 Q2310.43 1450.39 2313.48 1455 Q2316.56 1459.58 2316.56 1468.33 Q2316.56 1477.06 2313.48 1481.67 Q2310.43 1486.25 2304.62 1486.25 Q2298.81 1486.25 2295.73 1481.67 Q2292.67 1477.06 2292.67 1468.33 Q2292.67 1459.58 2295.73 1455 Q2298.81 1450.39 2304.62 1450.39 Z" fill="#000000" fill-rule="nonzero" fill-opacity="1" /><path clip-path="url(#clip550)" d="M1174.45 1548.76 L1174.45 1551.62 L1147.52 1551.62 Q1147.91 1557.67 1151.15 1560.85 Q1154.43 1564 1160.25 1564 Q1163.63 1564 1166.78 1563.17 Q1169.96 1562.35 1173.08 1560.69 L1173.08 1566.23 Q1169.93 1567.57 1166.62 1568.27 Q1163.31 1568.97 1159.9 1568.97 Q1151.37 1568.97 1146.38 1564 Q1141.41 1559.04 1141.41 1550.57 Q1141.41 1541.82 1146.12 1536.69 Q1150.87 1531.54 1158.89 1531.54 Q1166.08 1531.54 1170.25 1536.18 Q1174.45 1540.8 1174.45 1548.76 M1168.59 1547.04 Q1168.53 1542.23 1165.89 1539.37 Q1163.28 1536.5 1158.95 1536.5 Q1154.05 1536.5 1151.09 1539.27 Q1148.16 1542.04 1147.71 1547.07 L1168.59 1547.04 Z" fill="#000000" fill-rule="nonzero" fill-opacity="1" /><path clip-path="url(#clip550)" d="M1189.73 1562.7 L1189.73 1581.6 L1183.84 1581.6 L1183.84 1532.4 L1189.73 1532.4 L1189.73 1537.81 Q1191.57 1534.62 1194.38 1533.1 Q1197.21 1531.54 1201.12 1531.54 Q1207.62 1531.54 1211.66 1536.69 Q1215.73 1541.85 1215.73 1550.25 Q1215.73 1558.65 1211.66 1563.81 Q1207.62 1568.97 1201.12 1568.97 Q1197.21 1568.97 1194.38 1567.44 Q1191.57 1565.88 1189.73 1562.7 M1209.65 1550.25 Q1209.65 1543.79 1206.98 1540.13 Q1204.34 1536.44 1199.69 1536.44 Q1195.04 1536.44 1192.37 1540.13 Q1189.73 1543.79 1189.73 1550.25 Q1189.73 1556.71 1192.37 1560.4 Q1195.04 1564.07 1199.69 1564.07 Q1204.34 1564.07 1206.98 1560.4 Q1209.65 1556.71 1209.65 1550.25 Z" fill="#000000" fill-rule="nonzero" fill-opacity="1" /><path clip-path="url(#clip550)" d="M1239.25 1536.5 Q1234.54 1536.5 1231.81 1540.19 Q1229.07 1543.85 1229.07 1550.25 Q1229.07 1556.65 1231.77 1560.34 Q1234.51 1564 1239.25 1564 Q1243.93 1564 1246.67 1560.31 Q1249.41 1556.62 1249.41 1550.25 Q1249.41 1543.92 1246.67 1540.23 Q1243.93 1536.5 1239.25 1536.5 M1239.25 1531.54 Q1246.89 1531.54 1251.25 1536.5 Q1255.61 1541.47 1255.61 1550.25 Q1255.61 1559 1251.25 1564 Q1246.89 1568.97 1239.25 1568.97 Q1231.58 1568.97 1227.22 1564 Q1222.89 1559 1222.89 1550.25 Q1222.89 1541.47 1227.22 1536.5 Q1231.58 1531.54 1239.25 1531.54 Z" fill="#000000" fill-rule="nonzero" fill-opacity="1" /><path clip-path="url(#clip550)" d="M1290.97 1533.76 L1290.97 1539.24 Q1288.49 1537.87 1285.98 1537.2 Q1283.49 1536.5 1280.95 1536.5 Q1275.25 1536.5 1272.1 1540.13 Q1268.95 1543.73 1268.95 1550.25 Q1268.95 1556.78 1272.1 1560.4 Q1275.25 1564 1280.95 1564 Q1283.49 1564 1285.98 1563.33 Q1288.49 1562.63 1290.97 1561.26 L1290.97 1566.68 Q1288.52 1567.82 1285.88 1568.39 Q1283.27 1568.97 1280.31 1568.97 Q1272.26 1568.97 1267.52 1563.91 Q1262.77 1558.85 1262.77 1550.25 Q1262.77 1541.53 1267.55 1536.53 Q1272.35 1531.54 1280.69 1531.54 Q1283.4 1531.54 1285.98 1532.11 Q1288.56 1532.65 1290.97 1533.76 Z" fill="#000000" fill-rule="nonzero" fill-opacity="1" /><path clip-path="url(#clip550)" d="M1330.79 1546.53 L1330.79 1568.04 L1324.94 1568.04 L1324.94 1546.72 Q1324.94 1541.66 1322.96 1539.14 Q1320.99 1536.63 1317.04 1536.63 Q1312.3 1536.63 1309.56 1539.65 Q1306.83 1542.68 1306.83 1547.9 L1306.83 1568.04 L1300.94 1568.04 L1300.94 1518.52 L1306.83 1518.52 L1306.83 1537.93 Q1308.93 1534.72 1311.76 1533.13 Q1314.62 1531.54 1318.35 1531.54 Q1324.49 1531.54 1327.64 1535.36 Q1330.79 1539.14 1330.79 1546.53 Z" fill="#000000" fill-rule="nonzero" fill-opacity="1" /><path clip-path="url(#clip550)" d="M1365.2 1533.45 L1365.2 1538.98 Q1362.72 1537.71 1360.04 1537.07 Q1357.37 1536.44 1354.5 1536.44 Q1350.14 1536.44 1347.95 1537.77 Q1345.78 1539.11 1345.78 1541.79 Q1345.78 1543.82 1347.34 1545 Q1348.9 1546.15 1353.61 1547.2 L1355.62 1547.64 Q1361.86 1548.98 1364.47 1551.43 Q1367.11 1553.85 1367.11 1558.21 Q1367.11 1563.17 1363.16 1566.07 Q1359.25 1568.97 1352.37 1568.97 Q1349.51 1568.97 1346.39 1568.39 Q1343.3 1567.85 1339.86 1566.74 L1339.86 1560.69 Q1343.11 1562.38 1346.26 1563.24 Q1349.41 1564.07 1352.5 1564.07 Q1356.64 1564.07 1358.86 1562.66 Q1361.09 1561.23 1361.09 1558.65 Q1361.09 1556.27 1359.47 1554.99 Q1357.88 1553.72 1352.44 1552.54 L1350.4 1552.07 Q1344.96 1550.92 1342.54 1548.56 Q1340.12 1546.18 1340.12 1542.04 Q1340.12 1537.01 1343.68 1534.27 Q1347.25 1531.54 1353.8 1531.54 Q1357.05 1531.54 1359.92 1532.01 Q1362.78 1532.49 1365.2 1533.45 Z" fill="#000000" fill-rule="nonzero" fill-opacity="1" /><polyline clip-path="url(#clip550)" style="stroke:#000000; stroke-linecap:round; stroke-linejoin:round; stroke-width:4; stroke-opacity:1; fill:none" points="155.765,1423.18 155.765,47.2441 "/>
<polyline clip-path="url(#clip550)" style="stroke:#000000; stroke-linecap:round; stroke-linejoin:round; stroke-width:4; stroke-opacity:1; fill:none" points="155.765,1150.25 174.663,1150.25 "/>
<polyline clip-path="url(#clip550)" style="stroke:#000000; stroke-linecap:round; stroke-linejoin:round; stroke-width:4; stroke-opacity:1; fill:none" points="155.765,858.061 174.663,858.061 "/>
<polyline clip-path="url(#clip550)" style="stroke:#000000; stroke-linecap:round; stroke-linejoin:round; stroke-width:4; stroke-opacity:1; fill:none" points="155.765,565.876 174.663,565.876 "/>
<polyline clip-path="url(#clip550)" style="stroke:#000000; stroke-linecap:round; stroke-linejoin:round; stroke-width:4; stroke-opacity:1; fill:none" points="155.765,273.69 174.663,273.69 "/>
<path clip-path="url(#clip550)" d="M63.5847 1136.05 Q59.9736 1136.05 58.1449 1139.61 Q56.3393 1143.15 56.3393 1150.28 Q56.3393 1157.39 58.1449 1160.95 Q59.9736 1164.49 63.5847 1164.49 Q67.2189 1164.49 69.0244 1160.95 Q70.8531 1157.39 70.8531 1150.28 Q70.8531 1143.15 69.0244 1139.61 Q67.2189 1136.05 63.5847 1136.05 M63.5847 1132.34 Q69.3948 1132.34 72.4503 1136.95 Q75.529 1141.53 75.529 1150.28 Q75.529 1159.01 72.4503 1163.61 Q69.3948 1168.2 63.5847 1168.2 Q57.7745 1168.2 54.6958 1163.61 Q51.6403 1159.01 51.6403 1150.28 Q51.6403 1141.53 54.6958 1136.95 Q57.7745 1132.34 63.5847 1132.34 Z" fill="#000000" fill-rule="nonzero" fill-opacity="1" /><path clip-path="url(#clip550)" d="M83.7466 1161.65 L88.6308 1161.65 L88.6308 1167.53 L83.7466 1167.53 L83.7466 1161.65 Z" fill="#000000" fill-rule="nonzero" fill-opacity="1" /><path clip-path="url(#clip550)" d="M98.8622 1132.97 L117.219 1132.97 L117.219 1136.9 L103.145 1136.9 L103.145 1145.37 Q104.163 1145.03 105.182 1144.87 Q106.2 1144.68 107.219 1144.68 Q113.006 1144.68 116.385 1147.85 Q119.765 1151.02 119.765 1156.44 Q119.765 1162.02 116.293 1165.12 Q112.82 1168.2 106.501 1168.2 Q104.325 1168.2 102.057 1167.83 Q99.8113 1167.46 97.4039 1166.72 L97.4039 1162.02 Q99.4872 1163.15 101.709 1163.71 Q103.932 1164.26 106.408 1164.26 Q110.413 1164.26 112.751 1162.16 Q115.089 1160.05 115.089 1156.44 Q115.089 1152.83 112.751 1150.72 Q110.413 1148.62 106.408 1148.62 Q104.534 1148.62 102.659 1149.03 Q100.807 1149.45 98.8622 1150.33 L98.8622 1132.97 Z" fill="#000000" fill-rule="nonzero" fill-opacity="1" /><path clip-path="url(#clip550)" d="M53.3995 871.406 L61.0384 871.406 L61.0384 845.04 L52.7282 846.707 L52.7282 842.448 L60.9921 840.781 L65.668 840.781 L65.668 871.406 L73.3068 871.406 L73.3068 875.341 L53.3995 875.341 L53.3995 871.406 Z" fill="#000000" fill-rule="nonzero" fill-opacity="1" /><path clip-path="url(#clip550)" d="M82.7512 869.462 L87.6354 869.462 L87.6354 875.341 L82.7512 875.341 L82.7512 869.462 Z" fill="#000000" fill-rule="nonzero" fill-opacity="1" /><path clip-path="url(#clip550)" d="M107.821 843.86 Q104.209 843.86 102.381 847.425 Q100.575 850.966 100.575 858.096 Q100.575 865.202 102.381 868.767 Q104.209 872.309 107.821 872.309 Q111.455 872.309 113.26 868.767 Q115.089 865.202 115.089 858.096 Q115.089 850.966 113.26 847.425 Q111.455 843.86 107.821 843.86 M107.821 840.156 Q113.631 840.156 116.686 844.763 Q119.765 849.346 119.765 858.096 Q119.765 866.823 116.686 871.429 Q113.631 876.013 107.821 876.013 Q102.01 876.013 98.9317 871.429 Q95.8761 866.823 95.8761 858.096 Q95.8761 849.346 98.9317 844.763 Q102.01 840.156 107.821 840.156 Z" fill="#000000" fill-rule="nonzero" fill-opacity="1" /><path clip-path="url(#clip550)" d="M54.3949 579.22 L62.0337 579.22 L62.0337 552.855 L53.7236 554.521 L53.7236 550.262 L61.9874 548.596 L66.6633 548.596 L66.6633 579.22 L74.3022 579.22 L74.3022 583.156 L54.3949 583.156 L54.3949 579.22 Z" fill="#000000" fill-rule="nonzero" fill-opacity="1" /><path clip-path="url(#clip550)" d="M83.7466 577.276 L88.6308 577.276 L88.6308 583.156 L83.7466 583.156 L83.7466 577.276 Z" fill="#000000" fill-rule="nonzero" fill-opacity="1" /><path clip-path="url(#clip550)" d="M98.8622 548.596 L117.219 548.596 L117.219 552.531 L103.145 552.531 L103.145 561.003 Q104.163 560.656 105.182 560.494 Q106.2 560.308 107.219 560.308 Q113.006 560.308 116.385 563.48 Q119.765 566.651 119.765 572.068 Q119.765 577.646 116.293 580.748 Q112.82 583.827 106.501 583.827 Q104.325 583.827 102.057 583.456 Q99.8113 583.086 97.4039 582.345 L97.4039 577.646 Q99.4872 578.781 101.709 579.336 Q103.932 579.892 106.408 579.892 Q110.413 579.892 112.751 577.785 Q115.089 575.679 115.089 572.068 Q115.089 568.457 112.751 566.35 Q110.413 564.244 106.408 564.244 Q104.534 564.244 102.659 564.66 Q100.807 565.077 98.8622 565.957 L98.8622 548.596 Z" fill="#000000" fill-rule="nonzero" fill-opacity="1" /><path clip-path="url(#clip550)" d="M56.6171 287.035 L72.9365 287.035 L72.9365 290.97 L50.9921 290.97 L50.9921 287.035 Q53.6541 284.28 58.2375 279.65 Q62.8439 274.998 64.0245 273.655 Q66.2698 271.132 67.1494 269.396 Q68.0522 267.637 68.0522 265.947 Q68.0522 263.192 66.1078 261.456 Q64.1865 259.72 61.0847 259.72 Q58.8856 259.72 56.4319 260.484 Q54.0014 261.248 51.2236 262.799 L51.2236 258.076 Q54.0477 256.942 56.5014 256.364 Q58.955 255.785 60.9921 255.785 Q66.3624 255.785 69.5568 258.47 Q72.7513 261.155 72.7513 265.646 Q72.7513 267.776 71.9411 269.697 Q71.1541 271.595 69.0476 274.188 Q68.4689 274.859 65.367 278.076 Q62.2652 281.271 56.6171 287.035 Z" fill="#000000" fill-rule="nonzero" fill-opacity="1" /><path clip-path="url(#clip550)" d="M82.7512 285.09 L87.6354 285.09 L87.6354 290.97 L82.7512 290.97 L82.7512 285.09 Z" fill="#000000" fill-rule="nonzero" fill-opacity="1" /><path clip-path="url(#clip550)" d="M107.821 259.489 Q104.209 259.489 102.381 263.053 Q100.575 266.595 100.575 273.725 Q100.575 280.831 102.381 284.396 Q104.209 287.937 107.821 287.937 Q111.455 287.937 113.26 284.396 Q115.089 280.831 115.089 273.725 Q115.089 266.595 113.26 263.053 Q111.455 259.489 107.821 259.489 M107.821 255.785 Q113.631 255.785 116.686 260.391 Q119.765 264.975 119.765 273.725 Q119.765 282.451 116.686 287.058 Q113.631 291.641 107.821 291.641 Q102.01 291.641 98.9317 287.058 Q95.8761 282.451 95.8761 273.725 Q95.8761 264.975 98.9317 260.391 Q102.01 255.785 107.821 255.785 Z" fill="#000000" fill-rule="nonzero" fill-opacity="1" /><polyline clip-path="url(#clip552)" style="stroke:#009af9; stroke-linecap:round; stroke-linejoin:round; stroke-width:4; stroke-opacity:1; fill:none" points="217.944,109.598 448.236,109.687 678.529,110.545 908.822,110.149 1139.11,109.583 1369.41,110.031 1599.7,109.324 1829.99,110.095 2060.28,109.673 2290.58,109.492 "/>
<polyline clip-path="url(#clip552)" style="stroke:#e26f46; stroke-linecap:round; stroke-linejoin:round; stroke-width:4; stroke-opacity:1; fill:none" points="217.944,93.1402 448.236,88.2599 678.529,92.1996 908.822,86.1857 1139.11,93.2547 1369.41,88.3474 1599.7,90.6586 1829.99,89.3517 2060.28,88.235 2290.58,92.4104 "/>
<polyline clip-path="url(#clip552)" style="stroke:#3da44d; stroke-linecap:round; stroke-linejoin:round; stroke-width:4; stroke-opacity:1; fill:none" points="217.944,1384.24 448.236,1383.43 678.529,1383.43 908.822,1384.24 1139.11,1383.43 1369.41,1383.43 1599.7,1383.83 1829.99,1384.24 2060.28,1384.24 2290.58,1384.24 "/>
<path clip-path="url(#clip550)" d="M228.998 1377.32 L670.733 1377.32 L670.733 1169.96 L228.998 1169.96  Z" fill="#ffffff" fill-rule="evenodd" fill-opacity="1"/>
<polyline clip-path="url(#clip550)" style="stroke:#000000; stroke-linecap:round; stroke-linejoin:round; stroke-width:4; stroke-opacity:1; fill:none" points="228.998,1377.32 670.733,1377.32 670.733,1169.96 228.998,1169.96 228.998,1377.32 "/>
<polyline clip-path="url(#clip550)" style="stroke:#009af9; stroke-linecap:round; stroke-linejoin:round; stroke-width:4; stroke-opacity:1; fill:none" points="253.409,1221.8 399.875,1221.8 "/>
<path clip-path="url(#clip550)" d="M431.693 1205.79 L431.693 1213.15 L440.466 1213.15 L440.466 1216.46 L431.693 1216.46 L431.693 1230.53 Q431.693 1233.7 432.55 1234.61 Q433.429 1235.51 436.092 1235.51 L440.466 1235.51 L440.466 1239.08 L436.092 1239.08 Q431.161 1239.08 429.286 1237.25 Q427.411 1235.39 427.411 1230.53 L427.411 1216.46 L424.286 1216.46 L424.286 1213.15 L427.411 1213.15 L427.411 1205.79 L431.693 1205.79 Z" fill="#000000" fill-rule="nonzero" fill-opacity="1" /><path clip-path="url(#clip550)" d="M461.091 1217.13 Q460.374 1216.71 459.517 1216.53 Q458.684 1216.32 457.665 1216.32 Q454.054 1216.32 452.11 1218.68 Q450.189 1221.02 450.189 1225.42 L450.189 1239.08 L445.906 1239.08 L445.906 1213.15 L450.189 1213.15 L450.189 1217.18 Q451.531 1214.82 453.684 1213.68 Q455.837 1212.52 458.915 1212.52 Q459.355 1212.52 459.888 1212.59 Q460.42 1212.64 461.068 1212.76 L461.091 1217.13 Z" fill="#000000" fill-rule="nonzero" fill-opacity="1" /><path clip-path="url(#clip550)" d="M477.341 1226.04 Q472.179 1226.04 470.189 1227.22 Q468.198 1228.4 468.198 1231.25 Q468.198 1233.52 469.679 1234.86 Q471.184 1236.18 473.753 1236.18 Q477.295 1236.18 479.425 1233.68 Q481.577 1231.16 481.577 1226.99 L481.577 1226.04 L477.341 1226.04 M485.837 1224.28 L485.837 1239.08 L481.577 1239.08 L481.577 1235.14 Q480.119 1237.5 477.943 1238.64 Q475.767 1239.75 472.619 1239.75 Q468.638 1239.75 466.277 1237.52 Q463.939 1235.28 463.939 1231.53 Q463.939 1227.15 466.855 1224.93 Q469.795 1222.71 475.605 1222.71 L481.577 1222.71 L481.577 1222.29 Q481.577 1219.35 479.633 1217.76 Q477.712 1216.14 474.216 1216.14 Q471.994 1216.14 469.888 1216.67 Q467.781 1217.2 465.837 1218.27 L465.837 1214.33 Q468.175 1213.43 470.374 1212.99 Q472.573 1212.52 474.656 1212.52 Q480.281 1212.52 483.059 1215.44 Q485.837 1218.36 485.837 1224.28 Z" fill="#000000" fill-rule="nonzero" fill-opacity="1" /><path clip-path="url(#clip550)" d="M494.61 1213.15 L498.869 1213.15 L498.869 1239.08 L494.61 1239.08 L494.61 1213.15 M494.61 1203.06 L498.869 1203.06 L498.869 1208.45 L494.61 1208.45 L494.61 1203.06 Z" fill="#000000" fill-rule="nonzero" fill-opacity="1" /><path clip-path="url(#clip550)" d="M529.332 1223.43 L529.332 1239.08 L525.073 1239.08 L525.073 1223.57 Q525.073 1219.89 523.637 1218.06 Q522.202 1216.23 519.332 1216.23 Q515.883 1216.23 513.892 1218.43 Q511.901 1220.63 511.901 1224.42 L511.901 1239.08 L507.619 1239.08 L507.619 1213.15 L511.901 1213.15 L511.901 1217.18 Q513.429 1214.84 515.489 1213.68 Q517.573 1212.52 520.281 1212.52 Q524.748 1212.52 527.04 1215.3 Q529.332 1218.06 529.332 1223.43 Z" fill="#000000" fill-rule="nonzero" fill-opacity="1" /><path clip-path="url(#clip550)" d="M557.526 1246.95 L557.526 1250.26 L532.897 1250.26 L532.897 1246.95 L557.526 1246.95 Z" fill="#000000" fill-rule="nonzero" fill-opacity="1" /><path clip-path="url(#clip550)" d="M561.531 1203.06 L565.79 1203.06 L565.79 1239.08 L561.531 1239.08 L561.531 1203.06 Z" fill="#000000" fill-rule="nonzero" fill-opacity="1" /><path clip-path="url(#clip550)" d="M584.748 1216.14 Q581.322 1216.14 579.331 1218.82 Q577.341 1221.48 577.341 1226.14 Q577.341 1230.79 579.308 1233.47 Q581.299 1236.14 584.748 1236.14 Q588.151 1236.14 590.142 1233.45 Q592.132 1230.77 592.132 1226.14 Q592.132 1221.53 590.142 1218.84 Q588.151 1216.14 584.748 1216.14 M584.748 1212.52 Q590.304 1212.52 593.475 1216.14 Q596.646 1219.75 596.646 1226.14 Q596.646 1232.5 593.475 1236.14 Q590.304 1239.75 584.748 1239.75 Q579.169 1239.75 575.998 1236.14 Q572.85 1232.5 572.85 1226.14 Q572.85 1219.75 575.998 1216.14 Q579.169 1212.52 584.748 1212.52 Z" fill="#000000" fill-rule="nonzero" fill-opacity="1" /><path clip-path="url(#clip550)" d="M620.234 1213.91 L620.234 1217.94 Q618.429 1217.02 616.484 1216.55 Q614.54 1216.09 612.456 1216.09 Q609.285 1216.09 607.688 1217.06 Q606.114 1218.03 606.114 1219.98 Q606.114 1221.46 607.248 1222.32 Q608.382 1223.15 611.808 1223.91 L613.266 1224.24 Q617.804 1225.21 619.702 1226.99 Q621.623 1228.75 621.623 1231.92 Q621.623 1235.53 618.753 1237.64 Q615.905 1239.75 610.905 1239.75 Q608.822 1239.75 606.554 1239.33 Q604.308 1238.94 601.808 1238.13 L601.808 1233.73 Q604.169 1234.95 606.461 1235.58 Q608.753 1236.18 610.998 1236.18 Q614.007 1236.18 615.628 1235.16 Q617.248 1234.12 617.248 1232.25 Q617.248 1230.51 616.067 1229.58 Q614.91 1228.66 610.952 1227.8 L609.47 1227.46 Q605.512 1226.62 603.753 1224.91 Q601.993 1223.17 601.993 1220.16 Q601.993 1216.51 604.586 1214.52 Q607.179 1212.52 611.947 1212.52 Q614.308 1212.52 616.391 1212.87 Q618.475 1213.22 620.234 1213.91 Z" fill="#000000" fill-rule="nonzero" fill-opacity="1" /><path clip-path="url(#clip550)" d="M644.933 1213.91 L644.933 1217.94 Q643.127 1217.02 641.183 1216.55 Q639.239 1216.09 637.155 1216.09 Q633.984 1216.09 632.387 1217.06 Q630.813 1218.03 630.813 1219.98 Q630.813 1221.46 631.947 1222.32 Q633.081 1223.15 636.507 1223.91 L637.965 1224.24 Q642.502 1225.21 644.401 1226.99 Q646.322 1228.75 646.322 1231.92 Q646.322 1235.53 643.452 1237.64 Q640.604 1239.75 635.604 1239.75 Q633.521 1239.75 631.253 1239.33 Q629.007 1238.94 626.507 1238.13 L626.507 1233.73 Q628.868 1234.95 631.16 1235.58 Q633.452 1236.18 635.697 1236.18 Q638.706 1236.18 640.327 1235.16 Q641.947 1234.12 641.947 1232.25 Q641.947 1230.51 640.766 1229.58 Q639.609 1228.66 635.651 1227.8 L634.169 1227.46 Q630.211 1226.62 628.452 1224.91 Q626.692 1223.17 626.692 1220.16 Q626.692 1216.51 629.285 1214.52 Q631.878 1212.52 636.646 1212.52 Q639.007 1212.52 641.09 1212.87 Q643.174 1213.22 644.933 1213.91 Z" fill="#000000" fill-rule="nonzero" fill-opacity="1" /><polyline clip-path="url(#clip550)" style="stroke:#e26f46; stroke-linecap:round; stroke-linejoin:round; stroke-width:4; stroke-opacity:1; fill:none" points="253.409,1273.64 399.875,1273.64 "/>
<path clip-path="url(#clip550)" d="M424.286 1264.99 L428.8 1264.99 L436.902 1286.75 L445.004 1264.99 L449.517 1264.99 L439.795 1290.92 L434.008 1290.92 L424.286 1264.99 Z" fill="#000000" fill-rule="nonzero" fill-opacity="1" /><path clip-path="url(#clip550)" d="M467.179 1277.88 Q462.017 1277.88 460.027 1279.06 Q458.036 1280.24 458.036 1283.09 Q458.036 1285.36 459.517 1286.7 Q461.022 1288.02 463.591 1288.02 Q467.133 1288.02 469.263 1285.52 Q471.415 1283 471.415 1278.83 L471.415 1277.88 L467.179 1277.88 M475.675 1276.12 L475.675 1290.92 L471.415 1290.92 L471.415 1286.98 Q469.957 1289.34 467.781 1290.48 Q465.605 1291.59 462.457 1291.59 Q458.476 1291.59 456.115 1289.36 Q453.777 1287.12 453.777 1283.37 Q453.777 1278.99 456.693 1276.77 Q459.633 1274.55 465.443 1274.55 L471.415 1274.55 L471.415 1274.13 Q471.415 1271.19 469.471 1269.6 Q467.55 1267.98 464.054 1267.98 Q461.832 1267.98 459.726 1268.51 Q457.619 1269.04 455.675 1270.11 L455.675 1266.17 Q458.013 1265.27 460.212 1264.83 Q462.411 1264.36 464.494 1264.36 Q470.119 1264.36 472.897 1267.28 Q475.675 1270.2 475.675 1276.12 Z" fill="#000000" fill-rule="nonzero" fill-opacity="1" /><path clip-path="url(#clip550)" d="M484.448 1254.9 L488.707 1254.9 L488.707 1290.92 L484.448 1290.92 L484.448 1254.9 Z" fill="#000000" fill-rule="nonzero" fill-opacity="1" /><path clip-path="url(#clip550)" d="M517.318 1298.79 L517.318 1302.1 L492.688 1302.1 L492.688 1298.79 L517.318 1298.79 Z" fill="#000000" fill-rule="nonzero" fill-opacity="1" /><path clip-path="url(#clip550)" d="M521.323 1254.9 L525.582 1254.9 L525.582 1290.92 L521.323 1290.92 L521.323 1254.9 Z" fill="#000000" fill-rule="nonzero" fill-opacity="1" /><path clip-path="url(#clip550)" d="M544.54 1267.98 Q541.114 1267.98 539.123 1270.66 Q537.133 1273.32 537.133 1277.98 Q537.133 1282.63 539.1 1285.31 Q541.091 1287.98 544.54 1287.98 Q547.943 1287.98 549.934 1285.29 Q551.924 1282.61 551.924 1277.98 Q551.924 1273.37 549.934 1270.68 Q547.943 1267.98 544.54 1267.98 M544.54 1264.36 Q550.096 1264.36 553.267 1267.98 Q556.438 1271.59 556.438 1277.98 Q556.438 1284.34 553.267 1287.98 Q550.096 1291.59 544.54 1291.59 Q538.961 1291.59 535.79 1287.98 Q532.642 1284.34 532.642 1277.98 Q532.642 1271.59 535.79 1267.98 Q538.961 1264.36 544.54 1264.36 Z" fill="#000000" fill-rule="nonzero" fill-opacity="1" /><path clip-path="url(#clip550)" d="M580.026 1265.75 L580.026 1269.78 Q578.22 1268.86 576.276 1268.39 Q574.332 1267.93 572.248 1267.93 Q569.077 1267.93 567.48 1268.9 Q565.906 1269.87 565.906 1271.82 Q565.906 1273.3 567.04 1274.16 Q568.174 1274.99 571.6 1275.75 L573.058 1276.08 Q577.595 1277.05 579.494 1278.83 Q581.415 1280.59 581.415 1283.76 Q581.415 1287.37 578.544 1289.48 Q575.697 1291.59 570.697 1291.59 Q568.614 1291.59 566.345 1291.17 Q564.1 1290.78 561.6 1289.97 L561.6 1285.57 Q563.961 1286.79 566.253 1287.42 Q568.545 1288.02 570.79 1288.02 Q573.799 1288.02 575.419 1287 Q577.04 1285.96 577.04 1284.09 Q577.04 1282.35 575.859 1281.42 Q574.702 1280.5 570.744 1279.64 L569.262 1279.3 Q565.304 1278.46 563.545 1276.75 Q561.785 1275.01 561.785 1272 Q561.785 1268.35 564.378 1266.36 Q566.97 1264.36 571.739 1264.36 Q574.1 1264.36 576.183 1264.71 Q578.267 1265.06 580.026 1265.75 Z" fill="#000000" fill-rule="nonzero" fill-opacity="1" /><path clip-path="url(#clip550)" d="M604.725 1265.75 L604.725 1269.78 Q602.919 1268.86 600.975 1268.39 Q599.03 1267.93 596.947 1267.93 Q593.776 1267.93 592.179 1268.9 Q590.605 1269.87 590.605 1271.82 Q590.605 1273.3 591.739 1274.16 Q592.873 1274.99 596.299 1275.75 L597.757 1276.08 Q602.294 1277.05 604.192 1278.83 Q606.114 1280.59 606.114 1283.76 Q606.114 1287.37 603.243 1289.48 Q600.396 1291.59 595.396 1291.59 Q593.313 1291.59 591.044 1291.17 Q588.799 1290.78 586.299 1289.97 L586.299 1285.57 Q588.66 1286.79 590.952 1287.42 Q593.243 1288.02 595.489 1288.02 Q598.498 1288.02 600.118 1287 Q601.739 1285.96 601.739 1284.09 Q601.739 1282.35 600.558 1281.42 Q599.401 1280.5 595.443 1279.64 L593.961 1279.3 Q590.003 1278.46 588.243 1276.75 Q586.484 1275.01 586.484 1272 Q586.484 1268.35 589.077 1266.36 Q591.669 1264.36 596.438 1264.36 Q598.799 1264.36 600.882 1264.71 Q602.966 1265.06 604.725 1265.75 Z" fill="#000000" fill-rule="nonzero" fill-opacity="1" /><polyline clip-path="url(#clip550)" style="stroke:#3da44d; stroke-linecap:round; stroke-linejoin:round; stroke-width:4; stroke-opacity:1; fill:none" points="253.409,1325.48 399.875,1325.48 "/>
<path clip-path="url(#clip550)" d="M424.286 1316.83 L428.8 1316.83 L436.902 1338.59 L445.004 1316.83 L449.517 1316.83 L439.795 1342.76 L434.008 1342.76 L424.286 1316.83 Z" fill="#000000" fill-rule="nonzero" fill-opacity="1" /><path clip-path="url(#clip550)" d="M467.179 1329.72 Q462.017 1329.72 460.027 1330.9 Q458.036 1332.08 458.036 1334.93 Q458.036 1337.2 459.517 1338.54 Q461.022 1339.86 463.591 1339.86 Q467.133 1339.86 469.263 1337.36 Q471.415 1334.84 471.415 1330.67 L471.415 1329.72 L467.179 1329.72 M475.675 1327.96 L475.675 1342.76 L471.415 1342.76 L471.415 1338.82 Q469.957 1341.18 467.781 1342.32 Q465.605 1343.43 462.457 1343.43 Q458.476 1343.43 456.115 1341.2 Q453.777 1338.96 453.777 1335.21 Q453.777 1330.83 456.693 1328.61 Q459.633 1326.39 465.443 1326.39 L471.415 1326.39 L471.415 1325.97 Q471.415 1323.03 469.471 1321.44 Q467.55 1319.82 464.054 1319.82 Q461.832 1319.82 459.726 1320.35 Q457.619 1320.88 455.675 1321.95 L455.675 1318.01 Q458.013 1317.11 460.212 1316.67 Q462.411 1316.2 464.494 1316.2 Q470.119 1316.2 472.897 1319.12 Q475.675 1322.04 475.675 1327.96 Z" fill="#000000" fill-rule="nonzero" fill-opacity="1" /><path clip-path="url(#clip550)" d="M484.448 1306.74 L488.707 1306.74 L488.707 1342.76 L484.448 1342.76 L484.448 1306.74 Z" fill="#000000" fill-rule="nonzero" fill-opacity="1" /><path clip-path="url(#clip550)" d="M517.318 1350.63 L517.318 1353.94 L492.688 1353.94 L492.688 1350.63 L517.318 1350.63 Z" fill="#000000" fill-rule="nonzero" fill-opacity="1" /><path clip-path="url(#clip550)" d="M533.105 1329.72 Q527.943 1329.72 525.952 1330.9 Q523.961 1332.08 523.961 1334.93 Q523.961 1337.2 525.443 1338.54 Q526.948 1339.86 529.517 1339.86 Q533.059 1339.86 535.188 1337.36 Q537.341 1334.84 537.341 1330.67 L537.341 1329.72 L533.105 1329.72 M541.6 1327.96 L541.6 1342.76 L537.341 1342.76 L537.341 1338.82 Q535.883 1341.18 533.707 1342.32 Q531.531 1343.43 528.383 1343.43 Q524.401 1343.43 522.04 1341.2 Q519.702 1338.96 519.702 1335.21 Q519.702 1330.83 522.619 1328.61 Q525.559 1326.39 531.369 1326.39 L537.341 1326.39 L537.341 1325.97 Q537.341 1323.03 535.397 1321.44 Q533.475 1319.82 529.98 1319.82 Q527.758 1319.82 525.651 1320.35 Q523.545 1320.88 521.6 1321.95 L521.6 1318.01 Q523.938 1317.11 526.137 1316.67 Q528.336 1316.2 530.42 1316.2 Q536.045 1316.2 538.822 1319.12 Q541.6 1322.04 541.6 1327.96 Z" fill="#000000" fill-rule="nonzero" fill-opacity="1" /><path clip-path="url(#clip550)" d="M569.031 1317.82 L569.031 1321.81 Q567.225 1320.81 565.396 1320.32 Q563.591 1319.82 561.739 1319.82 Q557.595 1319.82 555.304 1322.45 Q553.012 1325.07 553.012 1329.82 Q553.012 1334.56 555.304 1337.2 Q557.595 1339.82 561.739 1339.82 Q563.591 1339.82 565.396 1339.33 Q567.225 1338.82 569.031 1337.82 L569.031 1341.76 Q567.248 1342.59 565.327 1343.01 Q563.429 1343.43 561.276 1343.43 Q555.42 1343.43 551.971 1339.75 Q548.521 1336.07 548.521 1329.82 Q548.521 1323.47 551.994 1319.84 Q555.489 1316.2 561.554 1316.2 Q563.521 1316.2 565.396 1316.62 Q567.271 1317.01 569.031 1317.82 Z" fill="#000000" fill-rule="nonzero" fill-opacity="1" /><path clip-path="url(#clip550)" d="M595.095 1317.82 L595.095 1321.81 Q593.29 1320.81 591.461 1320.32 Q589.656 1319.82 587.804 1319.82 Q583.66 1319.82 581.369 1322.45 Q579.077 1325.07 579.077 1329.82 Q579.077 1334.56 581.369 1337.2 Q583.66 1339.82 587.804 1339.82 Q589.656 1339.82 591.461 1339.33 Q593.29 1338.82 595.095 1337.82 L595.095 1341.76 Q593.313 1342.59 591.392 1343.01 Q589.493 1343.43 587.341 1343.43 Q581.484 1343.43 578.035 1339.75 Q574.586 1336.07 574.586 1329.82 Q574.586 1323.47 578.058 1319.84 Q581.554 1316.2 587.618 1316.2 Q589.586 1316.2 591.461 1316.62 Q593.336 1317.01 595.095 1317.82 Z" fill="#000000" fill-rule="nonzero" fill-opacity="1" /></svg>
